<svg id="Capa_1" data-name="Capa 1" xmlns="http://www.w3.org/2000/svg" xmlns:xlink="http://www.w3.org/1999/xlink" viewBox="0 0 396.85 396.85"><defs><style>.cls-1{fill:none;}.cls-2{clip-path:url(#clip-path);}.cls-3{fill:url(#radial-gradient);}.cls-4{fill:#0b1156;}.cls-5{fill:#f2eee5;}.cls-6{fill:#ff1507;}.cls-7{fill:#1a1a4a;}</style><clipPath id="clip-path"><path class="cls-1" d="M198.12,1.39C109.5,1.4,28.9,61.5,6.65,151.43-19.56,257.28,45,364.31,150.86,390.49s212.88-38.36,239.08-144.21S351.58,33.41,245.72,7.22a197.8,197.8,0,0,0-47.58-5.83h0"/></clipPath><radialGradient id="radial-gradient" cx="-3219.7" cy="2186.43" r="1" gradientTransform="matrix(197.47, 0, 0, -197.47, 635985.4, 431947.48)" gradientUnits="userSpaceOnUse"><stop offset="0" stop-color="#fff"/><stop offset="0.78" stop-color="#fff"/><stop offset="0.81" stop-color="#f9f9f8"/><stop offset="0.87" stop-color="#e9e7e3"/><stop offset="0.93" stop-color="#cfc9c1"/><stop offset="1" stop-color="#aca193"/><stop offset="1" stop-color="#aa9f91"/></radialGradient></defs><title>english</title><g class="cls-2"><rect class="cls-3" x="-19.56" y="1.39" width="435.68" height="415.3"/></g><path class="cls-4" d="M6.66,151.43C32.84,45.56,139.89-19,245.72,7.22s170.4,133.21,144.21,239.06S256.71,416.7,150.86,390.49-19.56,257.28,6.66,151.43"/><path class="cls-5" d="M338.34,59.66,259,112.59V11q-6.5-2.09-13.23-3.77a196.5,196.5,0,0,0-108.61,3.92V112.6L58,59.89A196.1,196.1,0,0,0,15.21,125l20.94,14h-26c-1.3,4.1-2.5,8.27-3.55,12.51A196.43,196.43,0,0,0,10.8,260.76H36.67L16,274.57a198.43,198.43,0,0,0,43.46,64.63l77.7-51.79v99.14q6.75,2.19,13.75,3.94A196.47,196.47,0,0,0,259,386.75V287.42l78,52a196.12,196.12,0,0,0,43.57-64.56l-21.15-14.1h26.38q2.34-7.1,4.17-14.48a196.55,196.55,0,0,0-3.51-107.36H359.91l21.35-14.23a198.37,198.37,0,0,0-42.92-65"/><path class="cls-6" d="M106.74,138.92,33.43,90.16a195.79,195.79,0,0,0-13.18,23.3l38.27,25.46Zm256.1-49.14a198.29,198.29,0,0,0-16.26-21.27L259,126.79v12.14h30ZM34,308.3a198.13,198.13,0,0,0,16.3,21.22l86.83-57.75v-11H105.46Zm358.73-144H233.58V4.63a196.36,196.36,0,0,0-71.09,0V164.29H3.93a196.28,196.28,0,0,0,.3,71.06H162.48V393a196.32,196.32,0,0,0,71.09.15V235.36H392.31a196.38,196.38,0,0,0,.4-71.06M290.66,260.76l71.84,47.78a195.79,195.79,0,0,0,13.31-23.22l-36.93-24.56Z"/><path class="cls-7" d="M259,31.54h0V44.35a22.79,22.79,0,0,0,1.19-6.89A14.44,14.44,0,0,0,259,31.54"/></svg>