<svg id="Capa_1" data-name="Capa 1" xmlns="http://www.w3.org/2000/svg" viewBox="0 0 396.85 396.85"><defs><style>.cls-1{fill:#ffe831;}.cls-2{fill:#1e1e1e;}.cls-3{fill:#ff1507;}.cls-4{fill:#138f34;}.cls-5{fill:#fff;}.cls-6{fill:#0a51a1;}</style></defs><title>portuguese</title><polygon class="cls-1" points="176.25 131.95 198.86 131.95 199.73 132.91 198.86 133.88 176.25 133.88 175.38 132.91 176.25 131.95"/><polygon class="cls-2" points="176.25 131.95 176.25 132.3 198.68 132.3 199.25 132.91 198.68 133.53 176.38 133.53 175.86 132.91 176.52 132.18 176.25 131.95 176.25 132.3 176.25 131.95 175.99 131.74 175.12 132.7 174.9 132.91 175.99 134.09 176.08 134.23 198.86 134.23 198.99 134.23 199.99 133.14 200.21 132.91 199.12 131.74 198.99 131.6 176.25 131.6 176.08 131.6 175.99 131.74 176.25 131.95"/><polygon class="cls-1" points="176.78 133.88 198.38 133.88 199.2 134.84 198.38 135.84 176.78 135.84 175.95 134.84 176.78 133.88"/><polygon class="cls-2" points="176.78 133.88 176.78 134.23 198.2 134.23 198.73 134.84 198.2 135.49 176.95 135.49 176.38 134.84 177.04 134.09 176.78 133.88 176.78 134.23 176.78 133.88 176.52 133.66 175.69 134.62 175.51 134.84 176.52 136.06 176.6 136.19 198.38 136.19 198.55 136.19 199.47 135.05 199.64 134.84 198.64 133.66 198.55 133.53 176.78 133.53 176.6 133.53 176.52 133.66 176.78 133.88"/><polygon class="cls-1" points="190.31 122.71 190.7 131.96 184.72 131.91 185.11 122.71 190.31 122.71"/><polygon class="cls-2" points="189.96 122.71 190.35 131.6 185.07 131.56 185.46 123.06 190.3 123.06 190.3 122.36 185.11 122.36 184.76 122.36 184.37 131.91 184.37 132.26 190.7 132.3 191.04 132.3 190.65 122.71 189.96 122.71"/><polygon class="cls-1" points="183.98 119.22 185.59 119.22 185.59 120.43 186.81 120.43 186.81 119.22 188.56 119.22 188.56 120.43 189.78 120.43 189.78 119.22 191.48 119.22 191.48 122.01 190.74 122.71 184.72 122.71 183.98 122.01 183.94 119.22 183.98 119.22"/><polygon class="cls-2" points="183.98 119.22 183.98 119.57 185.24 119.57 185.24 120.43 185.24 120.78 186.81 120.78 187.16 120.78 187.16 119.57 188.21 119.57 188.21 120.43 188.21 120.78 189.78 120.78 190.13 120.78 190.13 119.57 191.13 119.57 191.13 121.88 190.61 122.36 184.72 122.36 184.33 121.88 184.28 119.22 183.94 119.22 183.94 119.57 183.98 119.57 183.98 119.22 183.98 118.87 183.94 118.87 183.59 118.87 183.63 122.01 183.63 122.14 184.5 122.97 184.59 123.06 190.74 123.06 191.7 122.27 191.83 122.14 191.83 119.22 191.83 118.87 189.78 118.87 189.43 118.87 189.43 120.09 188.91 120.09 188.91 119.22 188.91 118.87 186.81 118.87 186.47 118.87 186.47 120.09 185.94 120.09 185.94 119.22 185.94 118.87 183.98 118.87 183.98 119.22"/><rect class="cls-2" x="187.07" y="126.59" width="1.22" height="2.14"/><polygon class="cls-1" points="191.26 123.58 192.92 123.58 192.92 124.8 194.15 124.8 194.15 123.58 195.89 123.58 195.89 124.8 197.11 124.8 197.11 123.58 198.81 123.58 198.81 126.37 198.07 127.07 192.05 127.07 191.26 126.37 191.26 123.58"/><polygon class="cls-2" points="191.26 123.58 191.26 123.92 192.57 123.92 192.57 124.8 192.57 125.15 194.15 125.15 194.49 125.15 194.49 123.92 195.54 123.92 195.54 124.8 195.54 125.15 197.11 125.15 197.46 125.15 197.46 123.92 198.46 123.92 198.46 126.24 197.94 126.72 192.05 126.72 191.61 126.24 191.61 123.58 191.26 123.58 191.26 123.92 191.26 123.58 190.91 123.58 190.91 126.37 190.91 126.5 191.83 127.33 198.07 127.42 199.03 126.63 199.16 126.5 199.16 123.58 199.16 123.23 197.11 123.23 196.76 123.23 196.76 124.45 196.24 124.45 196.24 123.58 196.24 123.23 194.15 123.23 193.79 123.23 193.79 124.45 193.27 124.45 193.27 123.58 193.27 123.23 191.26 123.23 190.91 123.23 190.91 123.58 191.26 123.58"/><polygon class="cls-1" points="197.72 127.07 197.9 131.95 192.18 131.95 192.36 127.07 197.72 127.07"/><polygon class="cls-2" points="197.37 127.07 197.55 131.6 192.53 131.6 192.7 127.42 197.72 127.42 197.72 126.72 192.36 126.72 192 126.72 191.83 131.95 191.83 132.31 197.9 132.31 198.24 132.31 198.07 127.07 197.37 127.07"/><polygon class="cls-1" points="176.52 123.58 178.18 123.58 178.18 124.8 179.39 124.8 179.39 123.58 181.14 123.58 181.14 124.8 182.36 124.8 182.36 123.58 184.07 123.58 184.07 126.37 183.32 127.07 177.3 127.07 176.52 126.37 176.52 123.58"/><polygon class="cls-2" points="176.52 123.58 176.52 123.92 177.82 123.92 177.82 124.8 177.82 125.15 179.39 125.15 179.74 125.15 179.74 123.92 180.79 123.92 180.79 124.8 180.79 125.15 182.36 125.15 182.71 125.15 182.71 123.92 183.71 123.92 183.71 126.24 183.19 126.72 177.3 126.72 176.87 126.24 176.87 123.58 176.52 123.58 176.52 123.92 176.52 123.58 176.17 123.58 176.17 126.37 176.17 126.5 177.08 127.33 183.32 127.42 184.28 126.63 184.41 126.5 184.41 123.58 184.41 123.23 182.36 123.23 182.01 123.23 182.01 124.45 181.49 124.45 181.49 123.58 181.49 123.23 179.39 123.23 179.05 123.23 179.05 124.45 178.52 124.45 178.52 123.58 178.52 123.23 176.52 123.23 176.17 123.23 176.17 123.58 176.52 123.58"/><polygon class="cls-1" points="182.97 127.07 183.15 131.95 177.43 131.95 177.61 127.07 182.97 127.07"/><polygon class="cls-2" points="182.63 127.07 182.8 131.6 177.78 131.6 177.96 127.42 182.97 127.42 182.97 126.72 177.61 126.72 177.26 126.72 177.08 131.95 177.08 132.31 183.15 132.31 183.5 132.31 183.32 127.07 182.63 127.07"/><rect class="cls-2" x="194.4" y="129.16" width="1.22" height="1.31"/><rect class="cls-2" x="179.7" y="129.16" width="1.18" height="1.31"/><polygon class="cls-1" points="239.35 131.95 261.91 131.95 262.78 132.91 261.91 133.88 239.35 133.88 238.47 132.91 239.35 131.95"/><polygon class="cls-2" points="239.35 131.95 239.35 132.31 261.73 132.31 262.3 132.91 261.73 133.53 239.48 133.53 238.96 132.91 239.61 132.18 239.35 131.95 239.35 132.31 239.35 131.95 239.09 131.74 238.21 132.7 237.99 132.91 239.09 134.09 239.17 134.23 261.91 134.23 262.08 134.23 263.04 133.14 263.26 132.91 262.17 131.74 262.04 131.6 239.35 131.6 239.17 131.6 239.09 131.74 239.35 131.95"/><polygon class="cls-1" points="239.78 133.88 261.43 133.88 262.21 134.84 261.43 135.84 239.78 135.84 239 134.84 239.78 133.88"/><polygon class="cls-2" points="239.78 133.88 239.78 134.23 261.25 134.23 261.77 134.84 261.25 135.49 239.96 135.49 239.44 134.84 240.04 134.09 239.78 133.88 239.78 134.23 239.78 133.88 239.52 133.66 238.74 134.62 238.56 134.84 239.52 136.06 239.61 136.19 261.43 136.19 261.6 136.19 262.47 135.05 262.65 134.84 261.69 133.66 261.6 133.53 239.78 133.53 239.61 133.53 239.52 133.66 239.78 133.88"/><polygon class="cls-1" points="253.35 122.71 253.75 131.96 247.72 131.91 248.16 122.71 253.35 122.71"/><polygon class="cls-2" points="253 122.71 253.4 131.61 248.07 131.56 248.51 123.06 253.35 123.06 253.35 122.36 248.16 122.36 247.81 122.36 247.38 131.91 247.33 132.26 253.75 132.3 254.1 132.3 253.7 122.71 253 122.71"/><polygon class="cls-1" points="247.03 119.22 248.69 119.22 248.69 120.43 249.91 120.43 249.91 119.22 251.56 119.22 251.56 120.43 252.83 120.43 252.83 119.22 254.53 119.22 254.53 122.01 253.79 122.71 247.77 122.71 247.03 122.01 247.03 119.22"/><polygon class="cls-2" points="247.03 119.22 247.03 119.57 248.34 119.57 248.34 120.43 248.34 120.78 249.91 120.78 250.25 120.78 250.25 119.57 251.22 119.57 251.22 120.43 251.22 120.78 252.83 120.78 253.18 120.78 253.18 119.57 254.18 119.57 254.18 121.88 253.66 122.36 247.77 122.36 247.38 121.88 247.38 119.22 247.03 119.22 247.03 119.57 247.03 119.22 246.68 119.22 246.68 122.01 246.68 122.14 247.51 122.97 247.64 123.06 253.79 123.06 254.75 122.27 254.88 122.14 254.88 119.22 254.88 118.87 252.83 118.87 252.48 118.87 252.48 120.09 251.91 120.09 251.91 119.22 251.91 118.87 249.91 118.87 249.56 118.87 249.56 120.09 249.04 120.09 249.04 119.22 249.04 118.87 247.03 118.87 246.68 118.87 246.68 119.22 247.03 119.22"/><rect class="cls-2" x="250.13" y="126.59" width="1.22" height="2.14"/><polygon class="cls-1" points="254.31 123.58 256.01 123.58 256.01 124.8 257.24 124.8 257.24 123.58 258.9 123.58 258.9 124.8 260.12 124.8 260.12 123.58 261.86 123.58 261.86 126.37 261.12 127.07 255.1 127.07 254.31 126.37 254.31 123.58"/><polygon class="cls-2" points="254.31 123.58 254.31 123.92 255.67 123.92 255.67 124.8 255.67 125.15 257.24 125.15 257.58 125.15 257.58 123.92 258.55 123.92 258.55 124.8 258.55 125.15 260.12 125.15 260.47 125.15 260.47 123.92 261.51 123.92 261.51 126.24 260.99 126.72 255.1 126.72 254.66 126.24 254.66 123.58 254.31 123.58 254.31 123.92 254.31 123.58 253.96 123.58 253.96 126.37 253.96 126.5 254.88 127.33 261.12 127.42 262.08 126.63 262.21 126.5 262.21 123.58 262.21 123.23 260.12 123.23 259.77 123.23 259.77 124.45 259.24 124.45 259.24 123.58 259.24 123.23 257.24 123.23 256.89 123.23 256.89 124.45 256.37 124.45 256.37 123.58 256.37 123.23 254.31 123.23 253.96 123.23 253.96 123.58 254.31 123.58"/><polygon class="cls-1" points="260.82 127.07 260.95 131.95 255.23 131.95 255.4 127.07 260.82 127.07"/><polygon class="cls-2" points="260.47 127.07 260.6 131.6 255.58 131.6 255.75 127.42 260.82 127.42 260.82 126.72 255.4 126.72 255.06 126.72 254.88 131.95 254.88 132.31 260.95 132.31 261.29 132.31 261.16 127.07 260.47 127.07"/><polygon class="cls-1" points="239.57 123.58 241.22 123.58 241.22 124.8 242.49 124.8 242.49 123.58 244.15 123.58 244.15 124.8 245.37 124.8 245.37 123.58 247.12 123.58 247.12 126.37 246.37 127.07 240.35 127.07 239.57 126.37 239.57 123.58"/><polygon class="cls-2" points="239.57 123.58 239.57 123.92 240.88 123.92 240.88 124.8 240.88 125.15 242.49 125.15 242.84 125.15 242.84 123.92 243.8 123.92 243.8 124.8 243.8 125.15 245.37 125.15 245.72 125.15 245.72 123.92 246.76 123.92 246.76 126.24 246.24 126.72 240.35 126.72 239.91 126.24 239.91 123.58 239.57 123.58 239.57 123.92 239.57 123.58 239.22 123.58 239.22 126.37 239.22 126.5 240.13 127.33 246.37 127.42 247.33 126.63 247.47 126.5 247.47 123.58 247.47 123.23 245.37 123.23 245.02 123.23 245.02 124.45 244.5 124.45 244.5 123.58 244.5 123.23 242.49 123.23 242.14 123.23 242.14 124.45 241.57 124.45 241.57 123.58 241.57 123.23 239.57 123.23 239.22 123.23 239.22 123.58 239.57 123.58"/><polygon class="cls-1" points="246.02 127.07 246.2 131.95 240.48 131.95 240.66 127.07 246.02 127.07"/><polygon class="cls-2" points="245.68 127.07 245.85 131.6 240.83 131.6 241.01 127.42 246.02 127.42 246.02 126.72 240.66 126.72 240.31 126.72 240.13 131.95 240.13 132.31 246.2 132.31 246.55 132.31 246.37 127.07 245.68 127.07"/><rect class="cls-2" x="257.5" y="129.16" width="1.22" height="1.31"/><rect class="cls-2" x="242.75" y="129.16" width="1.18" height="1.31"/><polygon class="cls-1" points="113.25 131.95 135.81 131.95 136.68 132.91 135.81 133.88 113.25 133.88 112.38 132.91 113.25 131.95"/><polygon class="cls-2" points="113.25 131.95 113.25 132.3 135.63 132.3 136.2 132.91 135.63 133.53 113.38 133.53 112.86 132.91 113.51 132.18 113.25 131.95 113.25 132.3 113.25 131.95 112.99 131.74 112.11 132.7 111.9 132.91 112.99 134.09 113.07 134.23 135.81 134.23 135.98 134.23 136.94 133.14 137.16 132.91 136.07 131.74 135.94 131.6 113.25 131.6 113.07 131.6 112.99 131.74 113.25 131.95"/><polygon class="cls-1" points="113.73 133.88 135.33 133.88 136.16 134.84 135.33 135.84 113.73 135.84 112.9 134.84 113.73 133.88"/><polygon class="cls-2" points="113.73 133.88 113.73 134.23 135.15 134.23 135.72 134.84 135.15 135.49 113.91 135.49 113.34 134.84 113.99 134.09 113.73 133.88 113.73 134.23 113.73 133.88 113.47 133.66 112.64 134.62 112.42 134.84 113.47 136.06 113.55 136.19 135.33 136.19 135.5 136.19 136.42 135.05 136.59 134.84 135.59 133.66 135.5 133.53 113.73 133.53 113.55 133.53 113.47 133.66 113.73 133.88"/><polygon class="cls-1" points="127.3 122.71 127.65 131.96 121.63 131.91 122.06 122.71 127.3 122.71"/><polygon class="cls-2" points="126.95 122.71 127.3 131.6 121.98 131.56 122.41 123.06 127.3 123.06 127.3 122.36 122.06 122.36 121.71 122.36 121.28 131.91 121.23 132.26 127.65 132.3 128 132.3 127.65 122.71 126.95 122.71"/><polygon class="cls-1" points="120.93 119.22 122.59 119.22 122.59 120.43 123.81 120.43 123.81 119.22 125.51 119.22 125.51 120.43 126.73 120.43 126.73 119.22 128.43 119.22 128.43 122.01 127.69 122.71 121.71 122.71 120.93 122.01 120.93 119.22"/><polygon class="cls-2" points="120.93 119.22 120.93 119.57 122.24 119.57 122.24 120.43 122.24 120.78 123.81 120.78 124.16 120.78 124.16 119.57 125.16 119.57 125.16 120.43 125.16 120.78 126.73 120.78 127.08 120.78 127.08 119.57 128.08 119.57 128.08 121.88 127.56 122.36 121.71 122.36 121.28 121.88 121.28 119.22 120.93 119.22 120.93 119.57 120.93 119.22 120.58 119.22 120.58 122.01 120.58 122.14 121.5 122.97 127.69 123.06 127.82 123.06 128.65 122.27 128.78 122.14 128.78 119.22 128.78 118.87 126.73 118.87 126.38 118.87 126.38 120.09 125.86 120.09 125.86 119.22 125.86 118.87 123.81 118.87 123.46 118.87 123.46 120.09 122.94 120.09 122.94 119.22 122.94 118.87 120.93 118.87 120.58 118.87 120.58 119.22 120.93 119.22"/><rect class="cls-2" x="124.07" y="126.59" width="1.18" height="2.14"/><polygon class="cls-1" points="128.21 123.58 129.92 123.58 129.92 124.8 131.14 124.8 131.14 123.58 132.84 123.58 132.84 124.8 134.06 124.8 134.06 123.58 135.76 123.58 135.76 126.37 135.02 127.07 129 127.07 128.21 126.37 128.21 123.58"/><polygon class="cls-2" points="128.21 123.58 128.21 123.92 129.57 123.92 129.57 124.8 129.57 125.15 131.14 125.15 131.49 125.15 131.49 123.92 132.49 123.92 132.49 124.8 132.49 125.15 134.06 125.15 134.41 125.15 134.41 123.92 135.41 123.92 135.41 126.24 134.89 126.72 129 126.72 128.56 126.24 128.56 123.58 128.21 123.58 128.21 123.92 128.21 123.58 127.86 123.58 127.86 126.37 127.86 126.5 128.78 127.33 135.02 127.42 135.15 127.42 135.98 126.63 136.11 126.5 136.11 123.58 136.11 123.23 134.06 123.23 133.71 123.23 133.71 124.45 133.19 124.45 133.19 123.58 133.19 123.23 131.14 123.23 130.79 123.23 130.79 124.45 130.26 124.45 130.26 123.58 130.26 123.23 128.21 123.23 127.86 123.23 127.86 123.58 128.21 123.58"/><polygon class="cls-1" points="134.67 127.07 134.89 131.95 129.13 131.95 129.31 127.07 134.67 127.07"/><polygon class="cls-2" points="134.32 127.07 134.54 131.6 129.48 131.6 129.66 127.42 134.67 127.42 134.67 126.72 129.31 126.72 128.96 126.72 128.78 131.95 128.78 132.31 134.89 132.31 135.24 132.31 135.02 127.07 134.32 127.07"/><polygon class="cls-1" points="113.51 123.58 115.17 123.58 115.17 124.8 116.39 124.8 116.39 123.58 118.09 123.58 118.09 124.8 119.31 124.8 119.31 123.58 121.02 123.58 121.02 126.37 120.27 127.07 114.25 127.07 113.51 126.37 113.51 123.58"/><polygon class="cls-2" points="113.51 123.58 113.51 123.92 114.82 123.92 114.82 124.8 114.82 125.15 116.39 125.15 116.74 125.15 116.74 123.92 117.74 123.92 117.74 124.8 117.74 125.15 119.31 125.15 119.67 125.15 119.67 123.92 120.67 123.92 120.67 126.24 120.14 126.72 114.38 126.72 113.86 126.24 113.86 123.58 113.51 123.58 113.51 123.92 113.51 123.58 113.16 123.58 113.16 126.37 113.16 126.5 113.99 127.33 114.12 127.42 120.27 127.42 120.4 127.42 121.23 126.63 121.36 126.5 121.36 123.58 121.36 123.23 119.31 123.23 118.97 123.23 118.97 124.45 118.44 124.45 118.44 123.58 118.44 123.23 116.39 123.23 116.04 123.23 116.04 124.45 115.52 124.45 115.52 123.58 115.52 123.23 113.51 123.23 113.16 123.23 113.16 123.58 113.51 123.58"/><polygon class="cls-1" points="119.92 127.07 120.14 131.95 114.38 131.95 114.56 127.07 119.92 127.07"/><polygon class="cls-2" points="119.58 127.07 119.8 131.6 114.73 131.6 114.91 127.42 119.92 127.42 119.92 126.72 114.56 126.72 114.21 126.72 114.03 131.95 114.03 132.31 120.14 132.31 120.49 132.31 120.27 127.07 119.58 127.07"/><rect class="cls-2" x="131.4" y="129.16" width="1.22" height="1.31"/><rect class="cls-2" x="116.65" y="129.16" width="1.22" height="1.31"/><path class="cls-3" d="M244.8,6.62a197.22,197.22,0,0,0-63.67-5.17V395c94.93,8,184.26-53.9,207.88-149.34C415.2,139.83,350.66,32.8,244.8,6.62"/><path class="cls-4" d="M182.08,1.31C99.94,8.07,27.26,66.36,6.37,150.83c-26.21,105.85,38.36,212.88,144.2,239.06,10.41,2.58,21.36,3.74,31.72,4.61Z"/><path class="cls-1" d="M309.17,288.85C266.49,287.54,70.93,165.45,69.58,146l10.78-18c19.42,28.19,219.39,146.91,239,142.72Z"/><path class="cls-2" d="M309.17,288.5C266.84,287.36,70.93,164.89,69.93,146l-.35,0,.3.18,10.78-18-.3-.18-.31.22C99.38,156.12,292.5,271.09,318.2,271.18l1.22-.09,0-.35-.31-.17-10.21,18.11.61.35,10.21-18.11.35-.65-.7.13-1.14.09c-25,.13-218.73-115.15-237.54-142.68l-.35-.44-11,18.5,0,.09V146c1.7,20,196.92,141.68,239.94,143.16Z"/><path class="cls-1" d="M310.17,289.37l-4.62,1.13c-15.93-1.79-64.36-25.35-121.65-59.64C117.27,190.94,62.2,154.63,68.14,145.12l1.66-2.88.31.09c-5.37,16.15,108.69,81.29,115.37,85.48C251.4,268.69,307,292.51,312,286.32l-1.79,3.1ZM78.09,125.58c-3.8,10.3,51.05,44.2,117.07,84.34s123,65,127.15,61.43l1.92-3.58-5.71.7c-17.85-5.15-64.31-26.49-122-61.44S88.82,139.93,81.05,126.27l-.87-4H80l-1.66,2.88Z"/><path class="cls-2" d="M310.17,289.37l-.09-.35-4.62,1.13c-15.62-1.74-64.14-25.3-121.39-59.6-63.31-37.83-116.24-72.82-116-83.82l.39-1.44L70,142.64l0,0,.09-.35-.35-.13-.17,1.31c.22,18.46,109.17,80.37,115.71,84.61,59,36.56,109.65,59.47,123.44,59.51l3.49-1.09-.26-.22-.3-.17-1.79,3.1.3.17h.35v-.48l-.44.09.09.35h-.35v1.35l2.44-4.24-.57-.39-3,.83c-13.35,0-64.18-22.86-123.09-59.43-6.5-4-115.63-66.63-115.37-84l.17-1,.09-.35-.65-.22-.26,0-1.79,3.1-.48,1.79c.22,12,53,46.38,116.37,84.43C241.06,265.46,289.4,289,305.5,290.86l4.75-1.13-.09-.35h0ZM78.09,125.58l-.31-.13-.22,1.22c.22,12,53.54,44.59,117.42,83.56C256.85,247.88,310.6,272,320.86,272l1.66-.39,2-3.67.31-.61-6.37.79c-17.63-5.11-64.1-26.44-121.74-61.4S89,139.58,81.36,126.1l-.83-3.93-.09-.26h-.66L78,125l-.26.44.31.17.3.18.26-.44,1.66-2.88-.31-.17v.34h.18v-.34l-.35.09.87,4c8,13.92,58,46,115.67,81s104.11,56.29,122,61.48l5.19-.61-1.62,3-1.13.17c-9.73,0-63.75-24.13-125.53-61.74-63.84-38.71-117.29-72-117.07-82.95l.13-1Z"/><path class="cls-1" d="M196.59,297.1c51.49.26,96.38-7.29,116.94-17.94L321,266.07c-17.85,9.73-66.28,19.85-124.31,18.32-47.3-.3-97.78-5.24-122-18.94l11,15.18c19.68,10.91,66.71,16.41,111,16.45"/><path class="cls-2" d="M196.59,297.44h2.57c50.44,0,94.2-7.46,114.54-18l7.59-13.22.56-1-1,.57c-16.5,9-59.73,18.46-112.44,18.42L196.68,284c-47.25-.3-97.74-5.24-121.82-18.89l-.43.52,11,15.18c19.9,11,66.93,16.54,111.22,16.58v-.7c-44.2,0-91.24-5.54-110.79-16.4l-10.86-15.1-.26.22-.17.3c24.35,13.74,74.83,18.67,122.17,19l11.69.13c52.84,0,96-9.38,112.79-18.5l-.18-.3-.31-.17L313.22,279c-19.94,10.26-63.71,17.76-114.06,17.76h-2.57Z"/><path class="cls-1" d="M197.29,298.27c-29.67-.09-57.07-1.92-78.37-5.8-15.45-3.05-25.74-6.76-33.34-10.77l-2.88-4.36c5.54,3.58,16.53,8.16,36.7,12,21.16,3.93,48.39,5.72,77.89,5.8,28.1-.22,54.63-1.7,76.1-5.45,18.37-3.32,39.18-9.17,44.68-15.41l-3.23,5.24c-6.2,4.67-23,9.91-40.1,13.26-21.64,3.93-49.35,5.5-77.45,5.45m0-12c-32.73-.22-58.73-1.44-81.59-5.68a154.8,154.8,0,0,1-43.5-15l-1.35-2.92c4,3,22.08,10.43,45.42,14.83,22.12,3.93,47.87,5.67,81,5.58,29.19,0,57.51-1.3,79.89-5.58s39.57-9.38,46.55-14l-2.22,4c-2.83,3.23-22.86,9.12-43.89,13.09-22.56,4.1-50.92,5.76-80.29,5.72"/><path class="cls-2" d="M197.29,297.92c-29.67-.09-57-1.92-78.32-5.8-15.4-3.05-25.66-6.72-33.2-10.73L83,277.16l-.31.17-.18.3c5.59,3.58,16.62,8.2,36.79,12.09,21.2,3.93,48.47,5.72,78,5.8,28.1-.22,54.67-1.71,76.14-5.46,18.41-3.36,39.23-9.12,44.9-15.53l-.27-.22-.3-.17-3.23,5.24c-6,4.49-22.82,9.77-39.88,13.09-21.29,3.89-48.52,5.45-76.23,5.45h-1.13v.7h1.13c27.71,0,55-1.57,76.36-5.45,17.1-3.4,33.95-8.59,40.27-13.35l3.31-5.32-.57-.39c-5.32,6.07-26.14,12-44.46,15.27-21.47,3.75-48,5.23-76.05,5.45-29.5-.09-56.68-1.88-77.84-5.8-20.11-3.89-31.07-8.47-36.56-12l-.48.48,2.88,4.36c7.77,4.14,18.11,7.9,33.55,10.95,21.34,3.89,48.78,5.72,78.45,5.8Zm0-11.65v-.35c-32.73-.22-58.69-1.44-81.55-5.67a154,154,0,0,1-43.37-15l-1.22-2.75-.3.13-.22.26c4.15,3.1,22.17,10.47,45.55,14.92,21.64,3.84,46.73,5.58,78.71,5.58h3.71c28.71,0,56.5-1.39,78.58-5.58,22.3-4.32,39.62-9.38,46.69-14.05l-.17-.3-.31-.17-2.22,4c-2.53,3-22.69,9-43.64,12.92-22.25,4.06-50.18,5.72-79.11,5.72h-1.13v.7h1.13c29,0,56.9-1.66,79.2-5.71,21.12-4,41-9.82,44.11-13.22l2.27-4-.48-.48c-6.9,4.58-24.22,9.68-46.43,14-22,4.19-49.78,5.58-78.5,5.58h-3.71c-32,0-57-1.74-78.58-5.58-23.25-4.36-41.36-11.83-45.25-14.75l-.52.39,1.35,2.93A151.61,151.61,0,0,0,115.65,281c22.87,4.23,48.91,5.45,81.64,5.67Z"/><path class="cls-1" d="M198.21,229.81c47.6-.4,106.77-6.68,140.54-20.46v-12c-20,11.26-86.74,18.72-140.93,19.81-64.14-.61-116.24-9.34-138.93-24.87l-.35,15.53c41.71,18,84.73,21.82,139.67,22"/><path class="cls-2" d="M198.21,230.16c47.65-.4,106.81-6.68,140.67-20.51l.22-.09V196.7l-.53.3c-19.81,11.17-86.61,18.68-140.76,19.77-64.1-.61-116.2-9.34-138.76-24.83l-.52-.35-.35,16.19V208l.22.09c41.76,18.06,84.87,21.86,139.8,22.08v-.7c-54.93-.22-97.87-4-139.54-22l-.13.3h.35l.35-15.53h-.35l-.22.31c22.86,15.57,75,24.3,139.15,24.91,54.24-1.09,121-8.51,141.11-19.86l-.17-.3h-.35v12h.35l-.13-.31c-33.68,13.74-92.85,20-140.41,20.42Z"/><path class="cls-1" d="M340.36,209.65c-1.18,1.92-23.26,9.64-55.72,15.4a561.84,561.84,0,0,1-86.57,6.41,598.16,598.16,0,0,1-82.95-5.37C81.05,220.65,63.42,213,56.92,210.35V207c18.72,7.68,38,12.26,58.73,15.49a582.71,582.71,0,0,0,82.29,5.37,563.54,563.54,0,0,0,86-6.5c33.29-5.45,53.84-12.57,56.42-15.84Z"/><path class="cls-2" d="M340.36,209.65l-.31-.17c-.83,1.61-23.12,9.56-55.46,15.23a561.38,561.38,0,0,1-86.52,6.41h-.87a599.07,599.07,0,0,1-82-5.37c-34-5.45-51.62-13-58.12-15.71l-.13.31h.35V207h-.35l-.13.31c18.76,7.72,38,12.3,58.82,15.53a580.26,580.26,0,0,0,80.63,5.37h1.7a564.09,564.09,0,0,0,86-6.5c33.38-5.5,53.8-12.48,56.64-16l-.26-.22H340v4.14h.35l-.31-.17.31.17h.35V204.5l-.61.79c-2.31,3.05-23,10.3-56.2,15.71a562.72,562.72,0,0,1-86,6.5h-1.7a579.64,579.64,0,0,1-80.55-5.37c-20.68-3.23-40-7.81-58.64-15.45l-.48-.22v4.1l.22.09c6.5,2.66,24.17,10.34,58.29,15.8a601.6,601.6,0,0,0,82.12,5.36h.87a561.47,561.47,0,0,0,86.61-6.41c32.55-5.84,54.45-13.35,56-15.57l0-.09v-.09Z"/><path class="cls-1" d="M340.36,197.39c-3.62,3-28.06,9.47-59.65,14.66a562.89,562.89,0,0,1-82.29,5.84c-32.6.09-59.25-2.18-79.5-5.19-32.11-4.32-62-18.72-62-18.72l0-4.71s29.84,15.22,62.4,19.94c20.07,2.88,46.69,5.06,79.15,5a551.41,551.41,0,0,0,81.68-5.93c31.81-4.45,57.68-12.78,60.26-14.83Zm0,12.26c-1.18,1.88-23.26,9.64-55.72,15.4a561.84,561.84,0,0,1-86.57,6.41,598.16,598.16,0,0,1-82.95-5.37C81.05,220.65,63.42,213,56.92,210.35V207c18.72,7.68,38,12.26,58.73,15.49a582.71,582.71,0,0,0,82.29,5.37,563.54,563.54,0,0,0,86-6.5c33.29-5.45,53.84-12.57,56.42-15.84Z"/><path class="cls-2" d="M340.36,197.39l-.22-.26c-3.4,2.84-28,9.42-59.47,14.57a562.28,562.28,0,0,1-82.25,5.85h-1.83c-31.72,0-57.77-2.23-77.62-5.2-32-4.32-61.83-18.67-61.91-18.67l-.13.31h.35l0-4.71h-.35l-.17.3s29.89,15.27,62.53,20c19.9,2.84,46.21,5,78.23,5h1a552.41,552.41,0,0,0,81.72-5.93c31.9-4.49,57.64-12.74,60.43-14.92l-.22-.26H340v3.93h.35l-.22-.26.22.26h.35v-4.67l-.57.48c-2.36,1.92-28.36,10.34-60.08,14.75a551.42,551.42,0,0,1-81.64,5.93h-1c-32,0-58.3-2.18-78.15-5C86.85,204.16,57.1,189,57.05,189l-.52-.26,0,5.28v.22l.17.09s29.93,14.44,62.13,18.76c19.85,3,45.94,5.19,77.71,5.19h1.83a563.78,563.78,0,0,0,82.34-5.84c31.63-5.24,56-11.65,59.82-14.75l.13-.09v-.17Zm0,12.26-.31-.17c-.83,1.57-23.12,9.56-55.46,15.23a561.38,561.38,0,0,1-86.52,6.41h-.87a599.07,599.07,0,0,1-82-5.37c-34-5.45-51.62-13-58.12-15.71l-.13.31h.35V207h-.35l-.13.31c18.76,7.72,38.09,12.3,58.82,15.53a580.26,580.26,0,0,0,80.63,5.37h1.7a564.09,564.09,0,0,0,86-6.5c33.38-5.5,53.8-12.48,56.64-16l-.26-.22H340v4.14h.35l-.31-.17.31.17h.35V204.5l-.61.79c-2.31,3.05-23,10.3-56.2,15.71a562.72,562.72,0,0,1-86,6.5h-1.7a579.64,579.64,0,0,1-80.55-5.37c-20.64-3.23-40-7.81-58.64-15.45l-.48-.22v4.1l.22.09c6.5,2.66,24.17,10.34,58.29,15.8a601.6,601.6,0,0,0,82.12,5.36h.87a561.47,561.47,0,0,0,86.61-6.41c32.55-5.84,54.45-13.39,56-15.57l0-.09v-.09Z"/><path class="cls-1" d="M198.95,157.77c42.67-.3,95.38-5.8,125.66-17.89l-6.5-10.6c-17.93,9.91-70.9,16.45-119.51,17.41-57.51-.52-98.17-5.89-118.51-19.55l-6.15,11.3c37.39,15.84,75.7,19.2,125,19.33"/><path class="cls-2" d="M198.95,158.12c42.72-.3,95.42-5.8,125.79-17.93l.4-.13-6.72-11-.17-.3-.3.17c-17.76,9.82-70.77,16.41-119.33,17.36-57.47-.52-98.13-5.89-118.34-19.5l-.3-.17-6.33,11.61-.17.35.35.13c37.44,15.88,75.83,19.25,125.14,19.37v-.7c-49.3-.13-87.53-3.49-124.88-19.28l-.13.31.3.18,6.15-11.3-.31-.18-.22.31C100.38,141.15,141,146.52,198.6,147c48.65-1,101.58-7.51,119.68-17.45l-.17-.31-.3.18,6.5,10.6.31-.18-.13-.3c-30.19,12-82.9,17.54-125.53,17.84Z"/><path class="cls-1" d="M320.68,129.37c-3.27,2.57-19.37,8.34-47.78,12.83a504,504,0,0,1-73.78,5.19c-29.23,0-53.1-1.92-71.3-4.58-28.8-3.75-44.16-10.56-49.7-12.53l1.7-2.83c4.32,2.14,19.11,8.16,48.3,12.3,18,2.53,41.89,4.41,71,4.41a500.1,500.1,0,0,0,73.22-5.24c28.53-3.88,43.89-11.17,46.25-13Zm5.67,10.78c-1,1.66-20.77,8.47-49.92,13.52a517.8,517.8,0,0,1-77.67,5.59,545.43,545.43,0,0,1-74.35-4.71c-30.59-4.8-46.38-11.43-52.19-13.79l1.4-3c16.84,6.72,32.68,10.74,51.23,13.62a552.36,552.36,0,0,0,73.83,4.71,519,519,0,0,0,77.14-5.76c29.85-4.8,46.16-11,48.44-13.87Z"/><path class="cls-2" d="M320.46,129.11c-3.1,2.45-19.24,8.29-47.6,12.74A503.18,503.18,0,0,1,199.12,147h-1c-28.8,0-52.31-2-70.29-4.58-28.76-3.75-44.07-10.52-49.61-12.52l-.13.34.31.17,1.7-2.83-.3-.17-.17.3c4.36,2.18,19.2,8.2,48.43,12.35,18,2.53,41.93,4.41,71,4.41a501,501,0,0,0,73.26-5.24c28.58-3.93,43.94-11.17,46.42-13.13l-.22-.26-.31.17,2.1,3.49.61-.35-2.1-3.49-.22-.35-.31.26c-2.23,1.79-17.58,9.08-46.08,13a498.9,498.9,0,0,1-73.17,5.24c-29.1,0-53-1.88-70.94-4.41C99,135.26,84.24,129.24,80,127.14L79.7,127l-1.88,3.1-.22.35.39.13c5.55,2,20.95,8.82,49.79,12.57a495.44,495.44,0,0,0,70.38,4.58h1a504.5,504.5,0,0,0,73.83-5.19c28.45-4.54,44.51-10.25,48-12.92Zm5.89,11-.3-.17c-.66,1.35-20.64,8.38-49.65,13.35a517.2,517.2,0,0,1-77.62,5.59h-.92a545.56,545.56,0,0,1-73.39-4.71c-30.54-4.8-46.29-11.39-52.1-13.74l-.13.31.31.13,1.4-3-.31-.13-.13.31c16.88,6.76,32.73,10.78,51.31,13.66a552.82,552.82,0,0,0,73.87,4.71,519.88,519.88,0,0,0,77.18-5.76c29.93-4.84,46.17-10.91,48.65-14l-.26-.22-.31.18,2.09,3.67.3-.17-.3-.17.3.17.31-.17-2.09-3.66-.26-.44-.31.39c-2.05,2.66-18.45,9-48.21,13.75a519,519,0,0,1-77.1,5.76,551.31,551.31,0,0,1-73.78-4.71c-18.5-2.88-34.34-6.89-51.14-13.57l-.31-.13-1.53,3.27-.17.31.35.13c5.8,2.36,21.64,9,52.27,13.83a547.78,547.78,0,0,0,73.48,4.71h.92A519,519,0,0,0,276.48,154c29.24-5.14,48.82-11.74,50.18-13.7l.09-.17-.09-.17Z"/><path class="cls-1" d="M198.55,325.2A124.42,124.42,0,1,1,323,200.8,124.4,124.4,0,0,1,198.55,325.2m0-262.06A137.64,137.64,0,1,0,336.18,200.8,137.65,137.65,0,0,0,198.55,63.14"/><path class="cls-1" d="M198.55,64.58A136.22,136.22,0,1,0,334.82,200.8,136.27,136.27,0,0,0,198.55,64.58m139,136.22a139,139,0,1,1-139-139,139,139,0,0,1,139,139"/><path class="cls-2" d="M198.55,64.58v-.35A136.57,136.57,0,1,0,335.17,200.8,136.64,136.64,0,0,0,198.55,64.23v.7A135.87,135.87,0,1,1,62.64,200.8,136,136,0,0,1,198.55,64.93Zm139,136.22h-.35A138.66,138.66,0,1,1,198.55,62.13,138.78,138.78,0,0,1,337.22,200.8h.7A139.36,139.36,0,1,0,198.55,340.16,139.36,139.36,0,0,0,337.92,200.8Z"/><path class="cls-1" d="M198.55,77.75a123,123,0,1,0,123,123,123.07,123.07,0,0,0-123-123m125.79,123A125.79,125.79,0,1,1,198.55,75,125.81,125.81,0,0,1,324.35,200.8"/><path class="cls-2" d="M198.55,77.75V77.4A123.37,123.37,0,1,0,321.95,200.8,123.44,123.44,0,0,0,198.55,77.4v.7A122.67,122.67,0,1,1,75.86,200.8,122.87,122.87,0,0,1,198.55,78.1Zm125.79,123H324A125.44,125.44,0,1,1,198.55,75.31,125.61,125.61,0,0,1,324,200.8h.7A126.14,126.14,0,1,0,198.55,327,126.16,126.16,0,0,0,324.7,200.8Z"/><path class="cls-1" d="M197.12,171.43c58-.3,118.51,8.29,141.63,20.42v14.92c-20.12-11-76.1-22.6-141.55-20.9-53.28.35-110.09,6-138.67,21.6V190.24c23.47-12.44,88.7-18.72,138.58-18.81"/><path class="cls-2" d="M197.12,171.78h3c57,0,115.84,8.51,138.45,20.37l.18-.3h-.35v14.92h.35l.17-.31C320,196.13,270,185.35,210.12,185.35c-4.28,0-8.6,0-12.92.17-53.32.35-110.13,6-138.84,21.64l.17.31h.35V190.24h-.35l.17.3c23.3-12.39,88.57-18.67,138.41-18.76v-.7c-49.92.09-115.11,6.37-138.75,18.85l-.18.09v18l.52-.26c28.45-15.53,85.26-21.2,138.49-21.55,4.36-.13,8.64-.17,12.92-.17,59.78,0,109.78,10.77,128.45,21l.53.31V191.63l-.17-.09c-22.87-12-81.68-20.46-138.8-20.46h-3Z"/><path class="cls-1" d="M197.9,170.08c31.63-.09,62.92,1.75,87.27,6.24,19.24,3.79,48.26,9.77,55.2,15.1v5.93c-6.24-7.07-36-13.75-56.68-17.5-24.17-4.27-54.15-6-85.78-6.24-33.25.09-64,2.18-87.79,6.63-22.73,4.41-46.95,9.64-53.19,13.74v-5c8.6-4.62,35.21-8.86,52.67-12.31,24-4.49,54.89-6.54,88.31-6.63m0,13.7c33.07-.09,65,1.79,90.5,6.5,23.65,4.5,48.73,11.26,52,14.88v4.54c-7.85-5.24-27.4-11.08-52.49-16s-57.16-6.41-90.06-6.33c-37.31-.13-66.32,1.88-91.24,6.33-26.31,5-45.16,12.22-49.65,15.62v-4.71c8.77-4.62,25.66-10.12,49-14.4,25.74-4.8,55.06-6.29,92-6.46"/><path class="cls-2" d="M197.9,170.43H200c30.89,0,61.3,1.83,85.08,6.24,19.2,3.75,48.26,9.82,55,15l.22-.26H340v5.93h.35l.26-.22c-6.46-7.24-36.17-13.83-56.9-17.63-24.17-4.28-54.19-6-85.83-6.24-33.25.09-64,2.18-87.83,6.63-22.78,4.45-46.95,9.6-53.32,13.79l.17.31h.35v-5h-.35l.17.3c8.46-4.58,35.13-8.81,52.54-12.26,24-4.49,54.85-6.54,88.27-6.63v-.7c-33.42.09-64.36,2.14-88.36,6.63C92,179.81,65.47,184,56.75,188.71l-.17.09v5.84l.52-.35c6.11-4.06,30.37-9.34,53.06-13.7C134,176.15,164.65,174,197.9,174c31.63.26,61.57,2,85.74,6.24,20.64,3.71,50.44,10.48,56.46,17.37l.61.7v-7l-.13-.09c-7.11-5.45-36.08-11.35-55.37-15.19-23.82-4.4-54.28-6.24-85.17-6.24H197.9Zm0,13.35v.35h2.18c32.29,0,63.36,1.88,88.27,6.5,23.56,4.45,48.78,11.34,51.75,14.75l.26-.22H340v4.54h.35l.17-.31c-7.94-5.28-27.49-11.12-52.62-16-24.57-4.67-55.59-6.33-87.61-6.33h-5.89c-35.69,0-63.7,2-87.88,6.33-26.4,5.06-45.2,12.22-49.83,15.71l.22.26h.35v-4.71h-.35l.17.3c8.68-4.58,25.57-10.08,48.87-14.35,25.74-4.8,55-6.29,91.93-6.46v-.7c-36.91.17-66.28,1.66-92,6.46-23.39,4.28-40.27,9.77-49.13,14.44l-.17.09V210l.57-.43c4.36-3.32,23.26-10.56,49.48-15.53,24.13-4.32,52.14-6.33,87.79-6.33h5.89c32,0,63,1.66,87.53,6.33,25,4.88,44.6,10.73,52.36,15.92l.52.35V205l-.09-.09c-3.49-3.84-28.45-10.47-52.18-15-25-4.62-56.07-6.5-88.36-6.5H197.9Z"/><path class="cls-1" d="M198,106.59c52-.26,97.39,7.29,118.16,17.93l7.55,13.09c-18-9.73-67-19.86-125.66-18.33-47.78.31-98.87,5.24-124.48,18.94l9-15.14c21-10.86,70.64-16.45,115.41-16.49"/><path class="cls-2" d="M198,106.94h2.62c50.87,0,95.08,7.46,115.36,17.89l7.42,13,.31-.17.17-.31c-16.93-9.12-60.61-18.5-114-18.54l-11.82.17c-47.82.31-98.92,5.24-124.66,19l.17.3.31.17,9-15.14C103.65,112.57,153.26,107,198,106.94v-.7c-44.81,0-94.42,5.63-115.58,16.54l-9.16,15.27-.66,1.09,1.13-.61C99.2,124.88,150.29,119.95,198,119.64l11.82-.17c53.32,0,97,9.43,113.66,18.46l1.09.61-8.16-14.18c-20.68-10.65-64.88-18.11-115.84-18.11H198Z"/><path class="cls-1" d="M198.64,105.42c28.4,0,56.42,1.53,78.28,5.45,17.23,3.36,34.3,8.6,40.53,13.27l3.32,5.23c-5.59-6.24-26.62-12.13-45.2-15.4-21.69-3.75-48.52-5.24-76.92-5.45-29.8,0-57.38,1.88-78.72,5.8-20.38,3.88-33.55,8.46-39.09,12L83.67,122c7.72-4,20.12-7.73,35.78-10.78,21.51-3.93,49.22-5.72,79.19-5.8m0,12c29.67-.09,58.33,1.61,81.2,5.72,21.21,3.93,41.45,9.86,44.33,13.09l2.27,3.93c-7.06-4.58-24.56-9.69-47.08-14s-51.27-5.68-80.76-5.59c-33.51-.13-59.52,1.66-81.86,5.59-23.61,4.41-40,10.69-44.07,13.7l2.23-4.19c7.86-4,20.33-8.86,41.28-12.61,23.08-4.23,49.39-5.5,82.47-5.67"/><path class="cls-2" d="M198.64,105.77h1.13c28,0,55.55,1.57,77.1,5.45,17.19,3.32,34.26,8.59,40.36,13.18l3.23,5.15.31-.17.26-.22c-5.8-6.42-26.79-12.22-45.42-15.53-21.69-3.75-48.57-5.24-77-5.45-29.8,0-57.42,1.88-78.8,5.8-20.38,3.88-33.55,8.47-39.18,12.08l.17.3.31.18L84,122.17c7.51-3.84,19.9-7.55,35.52-10.6,21.51-3.93,49.18-5.71,79.15-5.8v-.7c-30,.09-57.73,1.88-79.24,5.8-15.71,3.05-28.1,6.77-35.91,10.82l-3,4.5.48.48c5.45-3.53,18.63-8.12,39-12,21.34-3.93,48.87-5.76,78.67-5.8,28.4.21,55.2,1.7,76.88,5.45,18.54,3.23,39.57,9.21,45,15.27l.57-.4L317.76,124c-6.46-4.85-23.52-10-40.75-13.44-21.64-3.88-49.22-5.45-77.23-5.45h-1.13Zm0,11.65v.35h2.14c28.88,0,56.72,1.7,79,5.71,21.12,3.89,41.5,9.91,44.12,13l2.23,3.88.3-.17.18-.31c-7.16-4.62-24.65-9.73-47.21-14-22-4.15-49.66-5.59-78.24-5.59h-6c-31.9,0-56.9,1.79-78.5,5.59-23.65,4.4-40,10.69-44.25,13.79l.22.26.31.18,2.23-4.19c7.68-3.88,20.11-8.68,41-12.43,23.08-4.24,49.35-5.5,82.42-5.67v-.7c-33.08.17-59.43,1.44-82.51,5.67-21,3.75-33.51,8.64-41.41,12.66l-2.36,4.32.53.44c4-2.93,20.33-9.25,43.89-13.62,21.56-3.8,46.56-5.58,78.41-5.58h6c28.58,0,56.2,1.44,78.1,5.58,22.51,4.28,40,9.38,47,13.92l.48-.48L324.48,136c-3.18-3.49-23.3-9.29-44.59-13.27-22.34-4-50.18-5.72-79.1-5.72h-2.14Z"/><path class="cls-1" d="M198.64,105.42c28.4,0,56.42,1.53,78.28,5.45,17.23,3.36,34.3,8.6,40.53,13.27l3.32,5.23c-5.59-6.24-26.62-12.13-45.2-15.4-21.64-3.75-48.52-5.24-76.92-5.45-29.8,0-57.38,1.88-78.72,5.8-20.38,3.84-33.55,8.46-39.09,12L83.67,122c7.72-4,20.12-7.73,35.78-10.78,21.51-3.93,49.22-5.72,79.19-5.8m0,12c29.67-.09,58.33,1.61,81.15,5.72,21.25,3.93,41.5,9.86,44.38,13.09l2.27,3.93c-7.06-4.58-24.56-9.69-47.08-14s-51.27-5.68-80.76-5.59c-33.51-.13-59.52,1.66-81.86,5.59-23.61,4.41-40,10.69-44.07,13.7l2.23-4.19c7.86-4,20.33-8.86,41.28-12.61,23.08-4.23,49.39-5.5,82.47-5.67"/><path class="cls-2" d="M198.64,105.42v.35h1.13c28,0,55.55,1.57,77.1,5.45,17.19,3.32,34.26,8.59,40.36,13.18l3.23,5.15.31-.17.26-.22c-5.8-6.42-26.79-12.22-45.42-15.53-21.64-3.75-48.57-5.24-77-5.45-29.8,0-57.42,1.88-78.8,5.8-20.38,3.84-33.55,8.47-39.18,12.08l.17.3.31.18L84,122.17c7.51-3.84,19.9-7.55,35.52-10.6,21.51-3.93,49.18-5.71,79.15-5.8v-.7c-30,.09-57.73,1.88-79.24,5.8-15.71,3.05-28.1,6.77-35.91,10.82l-3,4.5.48.48c5.45-3.53,18.63-8.16,39-12,21.34-3.93,48.87-5.76,78.67-5.8,28.4.21,55.24,1.7,76.88,5.45,18.54,3.23,39.57,9.21,45,15.27l.57-.4L317.76,124c-6.46-4.85-23.52-10-40.75-13.44-21.64-3.88-49.22-5.45-77.23-5.45h-1.13Zm0,12v.35h2.14c28.88,0,56.72,1.7,79,5.71,21.16,3.89,41.54,9.91,44.16,13l2.23,3.88.3-.17.18-.31c-7.16-4.62-24.65-9.73-47.21-14-22-4.15-49.66-5.59-78.24-5.59h-6c-31.9,0-56.9,1.79-78.5,5.59-23.65,4.4-40,10.69-44.25,13.79l.22.26.31.18,2.23-4.19c7.68-3.88,20.11-8.68,41-12.43,23.08-4.24,49.35-5.5,82.42-5.67v-.7c-33.08.17-59.43,1.44-82.51,5.67-21,3.75-33.51,8.64-41.41,12.66l-2.36,4.32.53.44c4-2.93,20.33-9.25,43.89-13.62,21.56-3.8,46.56-5.58,78.41-5.58h6c28.58,0,56.2,1.44,78.1,5.58,22.51,4.28,40,9.38,47,13.92l.48-.48L324.48,136c-3.18-3.49-23.3-9.29-44.63-13.27-22.3-4-50.13-5.72-79.06-5.72h-2.14Z"/><path class="cls-1" d="M197.55,245.61c42.67.3,95.38,5.8,125.66,17.89l-6.5,10.65c-17.93-9.91-70.9-16.45-119.51-17.41-57.55.53-97.39,6.42-117.33,17.63l-5.54-9.43c35.61-15.8,73.91-19.2,123.22-19.33"/><path class="cls-2" d="M197.55,246c42.63.3,95.34,5.8,125.53,17.84l.13-.3-.31-.17L316.41,274l.3.17.17-.3c-18.11-10-71-16.5-119.68-17.46-57.6.52-97.43,6.41-117.5,17.67l.17.31.3-.17-5.54-9.43-.31.17.13.3C110,249.49,148.25,246.09,197.55,246v-.7c-49.31.13-87.7,3.53-123.35,19.37l-.35.13,5.71,9.78.18.3.3-.17c19.81-11.17,59.65-17.06,117.16-17.58,48.56,1,101.57,7.5,119.33,17.37l.3.17,6.68-11,.22-.35-.39-.13c-30.37-12.13-83.07-17.63-125.79-17.93Z"/><path class="cls-1" d="M313.27,276c-5.76-2.88-20.2-8.38-43.46-11.56A502.52,502.52,0,0,0,197,259.27c-28.93,0-52.71,1.83-70.55,4.41-29.06,4.14-43.77,10.17-48,12.3l-1.7-2.84c5.54-2,20.77-8.77,49.43-12.57C144.19,258,167.93,256,197,256a505.15,505.15,0,0,1,73.35,5.15c23.39,3.75,38.4,8.29,44.68,11.26Zm10.3-12.74-2.14,3.67c-2.31-2.92-18.5-9.12-48.22-13.92a507.23,507.23,0,0,0-76.62-5.71A537.35,537.35,0,0,0,123.2,252c-18.5,2.88-34.21,6.9-51,13.57l-1.39-2.92c5.8-2.36,21.47-9,51.84-13.83a548.9,548.9,0,0,1,74-4.67,506.82,506.82,0,0,1,77.18,5.58c29,5,48.65,11.87,49.7,13.53"/><path class="cls-2" d="M313.27,276l.13-.3c-5.76-2.92-20.25-8.42-43.55-11.61A503.25,503.25,0,0,0,197,258.92h-1c-28.49,0-52,1.88-69.59,4.4-29.1,4.14-43.85,10.17-48.17,12.35l.17.31.3-.17L77,273l-.3.18.13.3c5.54-2,20.72-8.72,49.35-12.52A493.83,493.83,0,0,1,196,256.38h1a504.61,504.61,0,0,1,73.3,5.15c23.35,3.75,38.36,8.29,44.6,11.22l.13-.31-.31-.13L313,275.89l.31.13.13-.3-.13.3.31.13,1.74-3.58.18-.31-.35-.13c-6.33-3-21.34-7.55-44.77-11.3A506.12,506.12,0,0,0,197,255.69h-1a495.93,495.93,0,0,0-69.94,4.53c-28.71,3.8-44,10.6-49.52,12.61l-.39.13,1.92,3.19.17.26.3-.13c4.19-2.09,18.89-8.12,47.91-12.26,17.63-2.58,41.06-4.41,69.51-4.41h1a501.76,501.76,0,0,1,72.78,5.2c23.21,3.18,37.61,8.68,43.33,11.52l.35.17.13-.35Zm10.3-12.74-.31-.17-2.14,3.67.31.17.26-.22c-2.53-3.14-18.63-9.21-48.43-14.05A507.85,507.85,0,0,0,196.59,247h-.87a541,541,0,0,0-72.56,4.71c-18.55,2.88-34.25,6.89-51.05,13.61l.13.3.31-.13-1.4-2.92-.3.13.13.3c5.8-2.35,21.42-9,51.75-13.79a543,543,0,0,1,73-4.67h.91a505.9,505.9,0,0,1,77.14,5.59c28.84,4.93,48.74,12,49.44,13.35l.31-.17-.31-.17.31.17.3-.17c-1.4-2-20.9-8.6-50-13.7a507.33,507.33,0,0,0-77.23-5.58h-.91a552.43,552.43,0,0,0-73.13,4.67c-30.41,4.8-46.12,11.52-51.92,13.87l-.35.13,1.57,3.23.13.3.3-.13a227.81,227.81,0,0,1,50.88-13.53,533.17,533.17,0,0,1,72.48-4.71h.87a506.56,506.56,0,0,1,76.58,5.72c29.62,4.75,45.9,11,48,13.79l.3.39,2.4-4.1.09-.17-.09-.17Z"/><rect class="cls-1" x="204.1" y="61.08" width="2.97" height="279.42"/><polygon class="cls-2" points="207.06 340.51 207.06 340.16 204.45 340.16 204.44 61.44 206.72 61.44 206.72 340.51 207.06 340.51 207.06 340.16 207.06 340.51 207.41 340.51 207.41 60.74 204.1 60.74 203.75 60.74 203.75 340.86 207.06 340.86 207.41 340.86 207.41 340.51 207.06 340.51"/><rect class="cls-1" x="190.05" y="61.08" width="2.97" height="279.42"/><polygon class="cls-2" points="193.01 340.51 193.01 340.16 190.4 340.16 190.4 61.44 192.67 61.44 192.66 340.51 193.01 340.51 193.01 340.16 193.01 340.51 193.36 340.51 193.36 60.74 190.05 60.74 189.7 60.74 189.7 340.86 193.01 340.86 193.36 340.86 193.36 340.51 193.01 340.51"/><rect class="cls-1" x="193.01" y="62.48" width="11.08" height="276.64"/><polygon class="cls-2" points="204.1 339.12 204.1 338.77 193.36 338.77 193.36 62.83 203.75 62.83 203.75 339.12 204.1 339.12 204.1 338.77 204.1 339.12 204.45 339.12 204.44 62.13 193.01 62.13 192.66 62.13 192.66 339.46 204.1 339.46 204.45 339.46 204.45 339.12 204.1 339.12"/><path class="cls-1" d="M81.36,122.91c43-.57,241.33,121.21,241.9,143.6L311,285.36c-5.54-26-206.78-144.51-240-142.29Z"/><path class="cls-2" d="M81.36,123.26h.3c43.24-.22,241,121.47,241.25,143.25h.35l-.3-.18-12.31,18.85.3.17.35-.09c-5.85-26.18-203.07-142.42-239.37-142.6l-1,0,0,.35.31.17,10.38-20.16-.61-.35L70.67,142.9l-.3.56.66,0,.92,0c35.6-.13,233.52,116.72,238.67,142.07l.17.78,12.79-19.54,0-.09v-.09c-.92-22.91-198-143.77-241.94-143.95h-.3Z"/><path class="cls-1" d="M324.48,267.9c5-9.95-49.3-50.87-116.67-90.76-68.9-39-118.55-62-127.62-55.15l-2.05,3.66.53-.61,5.63-1.35c15.62.26,60.22,20.77,122.83,56.68,27.4,16,115.85,72.69,115.54,88.62l-.39,2.31ZM69.71,142.37c8-5.45,66.58,20.68,127.89,57.64,61.13,37.09,119.51,79,114.28,86.79l-1.75,2.75-.78.61-.09-4.1c-2.62-8.55-44.07-41.63-112.83-83.17-67-40-122.87-64.05-128.45-57.16Z"/><path class="cls-2" d="M324.79,268.08l.35-1.61C325,253.94,272.47,215.11,208,176.85c-60.78-34.38-106.46-56.38-122.91-56.42L80,121.74l-2.14,3.75.57.39.53-.61L84.37,124c15.32.22,60,20.73,122.57,56.64,27.31,15.8,115.58,72.73,115.36,88.23V269l-.39,2.23.65.22,2.23-3.4-.61-.35-1.3,2,.13-.7v-.13c-.22-16.58-88.31-72.78-115.72-88.84-62.66-35.91-107.16-56.42-123-56.72l-5.72,1.35-.7.74.26.22.31.18,2.05-3.67,4.58-1c16,0,61.87,21.95,122.56,56.33,64.44,38,117,77.49,116.81,89l-.27,1.26ZM69.71,142.37l.17.3L73,142c14.92,0,68.63,24.65,124.44,58.34C255.93,235.7,312,276,311.83,285.62l-.26,1-1.74,2.75-.13.09-.09-3.4c-2.84-8.95-44.2-41.85-113-83.47C137.21,167.2,86.68,144.25,71.8,144.2l-4.1,1.31.26.22.31.18L70,142.55l-.3-.17-.31-.17-1.75,3.36.57.4,3.58-1c14.44,0,65.14,22.91,124.44,58.3C265,244.65,306.5,277.9,308.9,286.14l.09,4v.7l1.35-1,1.83-2.84.35-1.35c-.18-10.69-56.16-50.27-114.76-85.91C141.88,166,88.34,141.33,73,141.28l-3.49.78Z"/><path class="cls-5" d="M116,214.67a81.74,81.74,0,0,0,24.26,58c15.05,15,35.47,24.44,58.12,24.44a82.69,82.69,0,0,0,82.69-82.43V104.45H116Z"/><path class="cls-2" d="M116,214.67h-.35A82.24,82.24,0,0,0,140,273c15.14,15,35.65,24.52,58.38,24.52a83,83,0,0,0,83-82.77V104.11H115.7V214.67h.7V104.8H280.76V214.72a82.38,82.38,0,0,1-82.34,82.08c-22.56,0-42.89-9.43-57.86-24.35a81.23,81.23,0,0,1-24.17-57.77Z"/><path class="cls-3" d="M119.36,214.67v0a79.19,79.19,0,0,0,158.39,0V108H119.45Z"/><path class="cls-2" d="M119,214.67v0a79.54,79.54,0,0,0,159.08,0V107.64h-159l-.09,107h.7l.09-106.33H277.4V214.76a78.81,78.81,0,0,1-78.8,78.45,79.18,79.18,0,0,1-78.89-78.5v0Z"/><path class="cls-5" d="M151.74,209.79v0A53.48,53.48,0,0,0,165.53,246a43.86,43.86,0,0,0,66.15.09,53.69,53.69,0,0,0,13.74-36.21V140.45H151.78Z"/><path class="cls-2" d="M151.39,209.79v0a53.8,53.8,0,0,0,13.88,36.39,44.18,44.18,0,0,0,66.67.09,54,54,0,0,0,13.83-36.43V140.1H151.43l0,69.69h.7l0-69h92.94v69.07a53.36,53.36,0,0,1-13.66,36,44.31,44.31,0,0,1-32.81,14.88c-12.74,0-24.39-5.72-32.81-15a53.15,53.15,0,0,1-13.7-36v0Z"/><polygon class="cls-6" points="188.26 202.76 188.26 202.76 191.27 210.74 198.55 214.06 205.84 210.74 208.85 202.76 208.85 187.49 188.26 187.49 188.26 202.76"/><rect class="cls-5" x="202.78" y="191.45" width="2.9" height="2.9" transform="translate(-76.58 200.99) rotate(-45.02)"/><polygon class="cls-5" points="198.42 196.39 196.37 198.44 198.42 200.54 200.52 198.44 198.42 196.39"/><polygon class="cls-5" points="204.18 202.2 202.13 204.25 204.18 206.29 206.28 204.25 204.18 202.2"/><polygon class="cls-5" points="192.93 202.2 190.83 204.29 192.93 206.34 195.02 204.29 192.93 202.2"/><polygon class="cls-5" points="192.93 190.85 190.83 192.9 192.93 194.95 194.98 192.9 192.93 190.85"/><polygon class="cls-6" points="159.29 202.76 159.29 202.76 162.3 210.74 169.63 214.06 176.87 210.74 179.92 202.76 179.92 187.49 159.29 187.49 159.29 202.76"/><rect class="cls-5" x="173.81" y="191.45" width="2.9" height="2.9" transform="translate(-85.07 180.35) rotate(-44.98)"/><polygon class="cls-5" points="169.45 196.39 167.36 198.44 169.45 200.54 171.54 198.44 169.45 196.39"/><polygon class="cls-5" points="175.26 202.2 173.16 204.25 175.26 206.29 177.3 204.25 175.26 202.2"/><polygon class="cls-5" points="163.95 202.2 161.86 204.29 163.95 206.34 166.05 204.29 163.95 202.2"/><polygon class="cls-5" points="163.95 190.85 161.86 192.9 163.95 194.95 166 192.9 163.95 190.85"/><polygon class="cls-6" points="217.23 202.76 220.24 210.74 227.53 214.06 234.81 210.74 237.87 202.76 237.87 187.49 217.23 187.49 217.23 202.76"/><rect class="cls-5" x="231.75" y="191.45" width="2.9" height="2.9" transform="translate(-68.11 221.31) rotate(-44.98)"/><polygon class="cls-5" points="227.4 196.39 225.35 198.44 227.4 200.54 229.49 198.44 227.4 196.39"/><polygon class="cls-5" points="233.16 202.2 231.15 204.25 233.16 206.29 235.25 204.25 233.16 202.2"/><polygon class="cls-5" points="221.9 202.2 219.8 204.29 221.9 206.34 223.99 204.29 221.9 202.2"/><polygon class="cls-5" points="221.86 190.85 219.8 192.9 221.86 194.95 223.95 192.9 221.86 190.85"/><polygon class="cls-6" points="188.26 237.67 188.26 237.71 191.27 245.65 198.55 248.97 205.84 245.65 208.85 237.71 208.85 222.44 188.26 222.4 188.26 237.67"/><rect class="cls-5" x="202.78" y="226.35" width="2.9" height="2.9" transform="translate(-101.27 211.31) rotate(-45.03)"/><polygon class="cls-5" points="198.42 231.29 196.37 233.34 198.42 235.44 200.52 233.34 198.42 231.29"/><polygon class="cls-5" points="204.18 237.1 202.13 239.15 204.18 241.2 206.28 239.15 204.18 237.1"/><polygon class="cls-5" points="192.93 237.1 190.83 239.19 192.93 241.25 195.02 239.19 192.93 237.1"/><polygon class="cls-5" points="192.93 225.75 190.83 227.8 192.93 229.85 194.98 227.8 192.93 225.75"/><polygon class="cls-6" points="188.26 167.85 188.26 167.85 191.27 175.84 198.55 179.16 205.84 175.84 208.85 167.9 208.85 152.58 188.26 152.58 188.26 167.85"/><rect class="cls-5" x="202.78" y="156.54" width="2.9" height="2.9" transform="translate(-51.88 190.84) rotate(-45.03)"/><polygon class="cls-5" points="198.42 161.49 196.37 163.54 198.42 165.63 200.52 163.54 198.42 161.49"/><polygon class="cls-5" points="204.18 167.29 202.13 169.34 204.18 171.39 206.28 169.34 204.18 167.29"/><polygon class="cls-5" points="192.93 167.29 190.83 169.38 192.93 171.39 195.02 169.38 192.93 167.29"/><polygon class="cls-5" points="192.93 155.94 190.83 158 192.93 160.05 194.98 158 192.93 155.94"/><polygon class="cls-1" points="187.12 135.7 209.99 135.7 208.94 126.88 188.08 126.88 187.12 135.7"/><polygon class="cls-2" points="187.12 135.7 187.12 136.04 209.99 136.04 210.38 136.04 209.29 126.84 209.24 126.53 188.08 126.53 187.78 126.53 186.78 135.66 186.73 136.04 187.12 136.04 187.12 135.7 187.47 135.74 188.39 127.23 208.63 127.23 209.59 135.35 187.12 135.35 187.12 135.7 187.47 135.74 187.12 135.7"/><polygon class="cls-1" points="198.47 127.58 204.23 135.7 192.88 135.7 198.47 127.58"/><polygon class="cls-2" points="198.21 127.8 203.57 135.35 193.54 135.35 198.77 127.8 198.16 127.36 192.58 135.48 192.23 136.04 204.23 136.04 204.93 136.04 198.73 127.36 198.21 127.8"/><path class="cls-1" d="M198.51,129.5a6.78,6.78,0,0,1,3.27,6.19h-6.41c0-4.58,3.14-6.19,3.14-6.19"/><path class="cls-2" d="M198.51,129.5l-.18.3s3.1,1.48,3.1,5.89h.35v-.35h-6.41v.35h.35a6.48,6.48,0,0,1,3-5.89l-.17-.3-.18.3.18-.3-.18-.31s-3.32,1.75-3.32,6.5V136h7.11v-.35c0-4.75-3.4-6.5-3.49-6.5l-.13-.09-.18.09Z"/><polygon class="cls-1" points="186.69 135.7 210.47 135.7 211.34 136.75 210.47 137.79 186.69 137.79 185.77 136.75 186.69 135.7"/><polygon class="cls-2" points="186.69 135.7 186.69 136.04 210.29 136.04 210.91 136.75 210.29 137.44 186.86 137.44 186.21 136.75 186.95 135.91 186.69 135.7 186.69 136.04 186.69 135.7 186.43 135.48 185.51 136.53 185.29 136.75 186.43 138.01 186.51 138.14 210.47 138.14 210.64 138.14 211.6 136.96 211.78 136.75 210.73 135.48 210.64 135.35 186.69 135.35 186.51 135.35 186.43 135.48 186.69 135.7"/><polygon class="cls-1" points="250.17 135.7 273.04 135.7 271.99 126.88 251.13 126.88 250.17 135.7"/><polygon class="cls-2" points="250.17 135.7 250.17 136.04 273.04 136.04 273.43 136.04 272.34 126.84 272.29 126.53 251.13 126.53 250.83 126.53 249.82 135.66 249.78 136.04 250.17 136.04 250.17 135.7 250.52 135.74 251.44 127.23 271.69 127.23 272.64 135.35 250.17 135.35 250.17 135.7 250.52 135.74 250.17 135.7"/><polygon class="cls-1" points="261.52 127.58 267.28 135.7 255.93 135.7 261.52 127.58"/><polygon class="cls-2" points="261.21 127.8 266.62 135.35 256.59 135.35 261.82 127.8 261.21 127.36 255.63 135.48 255.28 136.05 267.28 136.05 267.98 136.05 261.78 127.36 261.25 127.8 261.21 127.8"/><path class="cls-1" d="M261.52,129.5a6.77,6.77,0,0,1,3.31,6.19h-6.46c0-4.58,3.14-6.19,3.14-6.19"/><path class="cls-2" d="M261.52,129.5l-.13.3a6.37,6.37,0,0,1,3.1,5.89h.35v-.35h-6.46v.35h.35a6.48,6.48,0,0,1,3-5.89l-.17-.3-.13.3.13-.3-.18-.31s-3.31,1.75-3.31,6.5V136h7.16v-.35a7,7,0,0,0-3.53-6.5l-.13-.09-.18.09Z"/><polygon class="cls-1" points="249.74 135.7 273.47 135.7 274.39 136.75 273.47 137.79 249.74 137.79 248.82 136.75 249.74 135.7"/><polygon class="cls-2" points="249.74 135.7 249.74 136.04 273.3 136.04 273.91 136.75 273.3 137.44 249.87 137.44 249.26 136.75 250 135.91 249.74 135.7 249.74 136.04 249.74 135.7 249.47 135.48 248.56 136.53 248.34 136.75 249.47 138.01 249.56 138.14 273.47 138.14 273.6 138.14 274.65 136.96 274.82 136.75 273.74 135.48 273.6 135.35 249.74 135.35 249.56 135.35 249.47 135.48 249.74 135.7"/><polygon class="cls-1" points="250.17 201.93 273.04 201.93 271.99 193.07 251.13 193.07 250.17 201.93"/><polygon class="cls-2" points="250.17 201.93 250.17 202.28 273.04 202.28 273.43 202.28 272.34 193.03 272.29 192.73 251.13 192.73 250.83 192.73 249.82 201.89 249.78 202.28 250.17 202.28 250.17 201.93 250.52 201.97 251.44 193.42 271.69 193.42 272.64 201.58 250.17 201.58 250.17 201.93 250.52 201.97 250.17 201.93"/><polygon class="cls-1" points="261.52 193.82 267.28 201.93 255.93 201.93 261.52 193.82"/><polygon class="cls-2" points="261.21 194.03 266.62 201.59 256.59 201.59 261.82 194.03 261.21 193.6 255.63 201.71 255.28 202.28 267.28 202.28 267.93 202.28 261.78 193.6 261.25 194.03 261.21 194.03"/><path class="cls-1" d="M261.52,195.73a6.71,6.71,0,0,1,3.31,6.2h-6.46c0-4.58,3.14-6.2,3.14-6.2"/><path class="cls-2" d="M261.52,195.73l-.13.31s3.1,1.44,3.1,5.89h.35v-.35h-6.46v.35h.35a6.46,6.46,0,0,1,3-5.89l-.17-.31-.13.31.13-.31-.18-.3s-3.31,1.74-3.31,6.5v.35h7.16v-.35c0-4.8-3.45-6.5-3.53-6.5l-.13-.09-.18.09Z"/><polygon class="cls-1" points="250.35 189.15 272.91 189.15 273.78 190.11 272.91 191.11 250.35 191.11 249.47 190.11 250.35 189.15"/><polygon class="cls-2" points="250.35 189.15 250.35 189.5 272.73 189.5 273.3 190.11 272.73 190.76 250.52 190.76 249.96 190.11 250.61 189.37 250.35 189.15 250.35 189.5 250.35 189.15 250.09 188.93 249.21 189.89 248.99 190.11 250.09 191.33 250.17 191.46 272.91 191.46 273.08 191.46 274.04 190.33 274.26 190.11 273.17 188.93 273.04 188.8 250.35 188.8 250.17 188.8 250.09 188.93 250.35 189.15"/><polygon class="cls-1" points="249.74 201.93 273.47 201.93 274.39 202.98 273.47 203.98 249.74 203.98 248.82 202.98 249.74 201.93"/><polygon class="cls-2" points="249.74 201.93 249.74 202.28 273.3 202.28 273.91 202.98 273.3 203.63 249.87 203.63 249.3 202.98 250 202.15 249.74 201.93 249.74 202.28 249.74 201.93 249.47 201.71 248.56 202.76 248.34 202.98 249.47 204.2 249.56 204.33 273.47 204.33 273.6 204.33 274.65 203.2 274.87 202.98 273.74 201.71 273.6 201.58 249.74 201.58 249.56 201.58 249.47 201.71 249.74 201.93"/><polygon class="cls-1" points="250.78 191.11 272.43 191.11 273.21 192.07 272.43 193.03 250.78 193.03 250 192.07 250.78 191.11"/><polygon class="cls-2" points="250.78 191.11 250.78 191.46 272.25 191.46 272.77 192.07 272.25 192.68 250.96 192.68 250.44 192.07 251.04 191.33 250.78 191.11 250.78 191.46 250.78 191.11 250.52 190.89 249.74 191.85 249.56 192.07 250.52 193.25 250.61 193.38 272.43 193.38 272.6 193.38 273.47 192.29 273.65 192.07 272.69 190.89 272.6 190.76 250.78 190.76 250.61 190.76 250.52 190.89 250.78 191.11"/><polygon class="cls-1" points="264.35 179.9 264.75 189.19 258.73 189.1 259.16 179.9 264.35 179.9"/><polygon class="cls-2" points="264 179.9 264.4 188.84 259.07 188.75 259.51 180.25 264.35 180.25 264.35 179.55 259.16 179.55 258.81 179.55 258.38 189.1 258.33 189.45 264.75 189.54 265.1 189.54 264.7 179.9 264 179.9"/><polygon class="cls-1" points="258.03 176.45 259.69 176.45 259.69 177.67 260.91 177.67 260.91 176.41 262.56 176.41 262.56 177.67 263.83 177.67 263.83 176.41 265.53 176.41 265.53 179.2 264.79 179.94 258.77 179.94 258.03 179.2 258.03 176.45"/><polygon class="cls-2" points="258.03 176.45 258.03 176.8 259.34 176.8 259.34 177.67 259.34 178.02 260.91 178.02 261.25 178.02 261.25 176.76 262.21 176.76 262.21 177.67 262.21 178.02 263.83 178.02 264.18 178.02 264.18 176.76 265.18 176.76 265.18 179.07 264.66 179.59 258.9 179.59 258.38 179.07 258.38 176.45 258.03 176.45 258.03 176.8 258.03 176.45 257.68 176.45 257.68 179.2 257.68 179.33 258.51 180.2 258.6 180.29 264.79 180.29 264.92 180.29 265.8 179.46 265.88 179.33 265.88 176.41 265.88 176.06 263.83 176.06 263.48 176.06 263.48 177.32 262.91 177.32 262.91 176.41 262.91 176.06 260.91 176.06 260.56 176.06 260.56 177.32 260.04 177.32 260.04 176.45 260.04 176.1 258.03 176.1 257.68 176.1 257.68 176.45 258.03 176.45"/><rect class="cls-2" x="261.13" y="183.78" width="1.22" height="2.18"/><polygon class="cls-1" points="265.31 180.81 267.01 180.81 267.01 182.04 268.24 182.04 268.24 180.81 269.9 180.81 269.9 182.04 271.12 182.04 271.12 180.81 272.86 180.81 272.86 183.6 272.12 184.3 266.1 184.3 265.31 183.6 265.31 180.81"/><polygon class="cls-2" points="265.31 180.81 265.31 181.16 266.67 181.16 266.67 182.04 266.67 182.39 268.24 182.39 268.58 182.39 268.58 181.16 269.55 181.16 269.55 182.04 269.55 182.39 271.12 182.39 271.47 182.39 271.47 181.16 272.51 181.16 272.51 183.48 271.99 183.95 266.1 183.95 265.66 183.48 265.66 180.81 265.31 180.81 265.31 181.16 265.31 180.81 264.96 180.81 264.96 183.6 264.96 183.74 265.88 184.56 272.12 184.65 273.08 183.87 273.21 183.74 273.21 180.81 273.21 180.46 271.12 180.46 270.77 180.46 270.77 181.69 270.24 181.69 270.24 180.81 270.24 180.46 268.24 180.46 267.89 180.46 267.89 181.69 267.37 181.69 267.37 180.81 267.37 180.46 265.31 180.46 264.96 180.46 264.96 180.81 265.31 180.81"/><polygon class="cls-1" points="271.82 184.3 271.95 189.19 266.23 189.19 266.4 184.3 271.82 184.3"/><polygon class="cls-2" points="271.47 184.3 271.6 188.84 266.58 188.84 266.75 184.65 271.82 184.65 271.82 183.95 266.4 183.95 266.06 183.95 265.88 189.19 265.88 189.54 271.95 189.54 272.29 189.54 272.16 184.3 271.47 184.3"/><polygon class="cls-1" points="250.57 180.81 252.22 180.81 252.22 182.04 253.49 182.04 253.49 180.81 255.15 180.81 255.15 182.04 256.37 182.04 256.37 180.81 258.12 180.81 258.12 183.6 257.37 184.3 251.35 184.3 250.57 183.6 250.57 180.81"/><polygon class="cls-2" points="250.57 180.81 250.57 181.16 251.88 181.16 251.88 182.04 251.88 182.39 253.49 182.39 253.84 182.39 253.84 181.16 254.8 181.16 254.8 182.04 254.8 182.39 256.37 182.39 256.72 182.39 256.72 181.16 257.76 181.16 257.76 183.48 257.24 183.95 251.35 183.95 250.91 183.48 250.91 180.81 250.57 180.81 250.57 181.16 250.57 180.81 250.22 180.81 250.22 183.6 250.22 183.74 251.13 184.56 257.37 184.65 258.33 183.87 258.47 183.74 258.47 180.81 258.47 180.46 256.37 180.46 256.02 180.46 256.02 181.69 255.5 181.69 255.5 180.81 255.5 180.46 253.49 180.46 253.14 180.46 253.14 181.69 252.57 181.69 252.57 180.81 252.57 180.46 250.57 180.46 250.22 180.46 250.22 180.81 250.57 180.81"/><polygon class="cls-1" points="257.02 184.3 257.2 189.19 251.48 189.19 251.66 184.3 257.02 184.3"/><polygon class="cls-2" points="256.68 184.3 256.85 188.84 251.83 188.84 252.01 184.65 257.02 184.65 257.02 183.95 251.66 183.95 251.31 183.95 251.13 189.19 251.13 189.54 257.2 189.54 257.55 189.54 257.37 184.3 256.68 184.3"/><rect class="cls-2" x="268.5" y="186.4" width="1.22" height="1.3"/><rect class="cls-2" x="253.75" y="186.4" width="1.18" height="1.3"/><polygon class="cls-1" points="230.84 254.21 247.47 269.91 252.79 262.8 237.61 248.44 230.84 254.21"/><polygon class="cls-2" points="230.84 254.21 230.58 254.47 247.25 270.18 247.51 270.44 253.05 263.02 253.27 262.76 237.82 248.18 237.61 247.97 230.62 253.94 230.32 254.21 230.58 254.47 230.84 254.21 231.06 254.47 237.61 248.93 252.31 262.85 247.42 269.39 231.06 253.94 230.84 254.21 231.06 254.47 230.84 254.21"/><polygon class="cls-1" points="244.68 256.12 243.28 265.94 235.03 258.13 244.68 256.12"/><polygon class="cls-2" points="244.33 256.08 243.02 265.24 235.73 258.35 244.76 256.47 244.59 255.77 234.94 257.78 234.33 257.91 243.06 266.2 243.54 266.64 245.03 256.17 244.33 256.08"/><polygon class="cls-1" points="243.37 257.52 241.49 264.24 236.82 259.83 243.37 257.52"/><polygon class="cls-2" points="243.37 257.52 243.02 257.43 241.32 263.59 237.48 259.96 243.5 257.82 243.37 257.52 243.02 257.43 243.37 257.52 243.24 257.17 236.69 259.48 236.17 259.7 241.23 264.5 241.66 264.89 243.72 257.61 243.89 256.95 243.24 257.17 243.37 257.52"/><polygon class="cls-1" points="239.79 245 256.15 260.57 256.11 261.84 254.8 261.97 238.39 246.44 238.48 245.13 239.79 245"/><polygon class="cls-2" points="239.79 245 239.57 245.26 255.8 260.7 255.76 261.53 254.93 261.62 238.74 246.3 238.78 245.44 239.83 245.35 239.79 245 239.57 245.26 239.79 245 239.74 244.65 238.44 244.78 238.17 244.82 238.04 246.39 238.04 246.57 254.58 262.23 254.67 262.32 256.15 262.19 256.46 262.15 256.5 260.57 256.5 260.44 240.01 244.74 239.92 244.65 239.74 244.65 239.79 245"/><polygon class="cls-1" points="230.54 253.9 247.73 270.26 247.73 271.62 246.33 271.74 229.1 255.38 229.14 254.03 230.54 253.9"/><polygon class="cls-2" points="230.54 253.9 230.32 254.16 247.38 270.39 247.38 271.31 246.47 271.39 229.45 255.25 229.49 254.34 230.58 254.25 230.54 253.9 230.32 254.16 230.54 253.9 230.49 253.55 229.1 253.68 228.79 253.73 228.75 255.38 228.75 255.52 246.11 272.01 246.2 272.09 247.77 271.96 248.08 271.92 248.08 270.26 248.08 270.13 230.76 253.64 230.67 253.55 230.49 253.55 230.54 253.9"/><polygon class="cls-1" points="238.74 246.79 254.45 261.62 254.36 262.93 253.09 263.06 237.43 248.18 237.48 246.92 238.74 246.79"/><polygon class="cls-2" points="238.74 246.79 238.52 247.05 254.1 261.75 254.01 262.62 253.22 262.71 237.78 248.05 237.82 247.22 238.78 247.14 238.74 246.79 238.52 247.05 238.74 246.79 238.7 246.44 237.43 246.57 237.13 246.61 237.08 248.18 237.08 248.31 252.84 263.32 252.97 263.41 254.41 263.28 254.67 263.24 254.8 261.66 254.8 261.49 238.96 246.53 238.87 246.44 238.7 246.44 238.74 246.79"/><polygon class="cls-1" points="256.28 247.96 250.17 254.9 245.9 250.8 252.53 244.43 256.28 247.96"/><polygon class="cls-2" points="256.02 247.75 250.13 254.38 246.38 250.8 252.53 244.91 256.06 248.23 256.5 247.7 252.75 244.17 252.53 243.95 245.64 250.54 245.37 250.8 249.91 255.17 250.17 255.38 256.55 248.18 256.02 247.75"/><polygon class="cls-1" points="254.1 241.07 255.28 242.25 254.45 243.08 255.36 243.95 256.19 243.03 257.42 244.26 256.59 245.13 257.46 245.96 258.33 245.04 259.55 246.26 257.63 248.27 256.59 248.27 252.22 244.17 252.18 243.08 254.1 241.07"/><polygon class="cls-2" points="254.1 241.07 253.84 241.33 254.8 242.25 254.19 242.81 253.97 243.08 255.1 244.21 255.36 244.43 256.19 243.51 256.94 244.26 256.33 244.91 256.11 245.13 257.2 246.22 257.46 246.44 258.33 245.52 259.07 246.26 257.46 247.92 256.59 247.92 252.57 244.04 252.53 243.21 254.36 241.33 254.1 241.07 253.84 241.33 254.1 241.07 253.84 240.81 251.92 242.81 251.83 242.95 251.88 244.17 251.88 244.3 256.33 248.53 256.46 248.62 257.63 248.62 257.76 248.62 259.81 246.48 260.04 246.26 258.6 244.78 258.33 244.56 257.46 245.48 257.07 245.13 257.68 244.47 257.9 244.26 256.46 242.77 256.19 242.51 255.36 243.43 254.93 243.08 255.54 242.51 255.76 242.25 254.36 240.81 254.1 240.59 253.84 240.81 254.1 241.07"/><polygon class="cls-2" points="251.31 248.58 252.14 249.4 250.7 250.98 249.82 250.1 251.31 248.58"/><polygon class="cls-1" points="256.37 249.32 257.59 250.45 256.76 251.32 257.63 252.15 258.47 251.24 259.73 252.42 258.9 253.33 259.77 254.21 260.64 253.29 261.87 254.47 259.95 256.47 258.9 256.52 254.54 252.37 254.45 251.32 256.37 249.32"/><polygon class="cls-2" points="256.37 249.32 256.15 249.58 257.11 250.45 256.5 251.11 256.28 251.32 257.37 252.42 257.63 252.63 258.47 251.72 259.25 252.42 258.64 253.11 258.42 253.33 259.51 254.47 259.77 254.68 260.64 253.77 261.39 254.47 259.69 256.21 259.03 256.17 254.88 252.19 254.8 251.46 256.63 249.54 256.37 249.32 256.15 249.58 256.37 249.32 256.11 249.06 254.19 251.06 254.1 251.19 254.19 252.42 254.19 252.54 258.68 256.78 258.77 256.87 259.95 256.82 262.13 254.68 262.35 254.47 260.86 253.03 260.64 252.81 259.77 253.73 259.38 253.33 259.99 252.63 260.21 252.37 258.68 250.98 258.42 250.75 257.59 251.68 257.24 251.32 257.85 250.67 258.07 250.41 256.59 249.06 256.37 248.84 256.11 249.06 256.37 249.32"/><polygon class="cls-1" points="258.64 256.3 255.45 259.88 251.31 255.95 254.71 252.54 258.64 256.3"/><polygon class="cls-2" points="258.38 256.08 255.41 259.4 251.79 255.95 254.71 253.03 258.38 256.56 258.9 256.04 254.93 252.28 254.71 252.07 251.04 255.69 250.83 255.95 255.19 260.14 255.45 260.36 258.9 256.52 258.38 256.08"/><polygon class="cls-1" points="245.68 239.15 246.86 240.29 246.07 241.2 246.94 241.99 247.77 241.11 249.04 242.29 248.16 243.21 249.04 244.04 249.91 243.12 251.13 244.3 249.21 246.35 248.16 246.35 243.84 242.21 243.76 241.16 245.68 239.15"/><polygon class="cls-2" points="245.68 239.15 245.41 239.41 246.38 240.29 245.81 240.98 245.59 241.25 246.73 242.25 246.94 242.46 247.77 241.6 248.56 242.29 247.91 242.99 247.69 243.21 248.82 244.3 249.04 244.51 249.91 243.6 250.66 244.3 249.04 246 248.29 246 244.19 242.03 244.11 241.29 245.94 239.41 245.68 239.15 245.41 239.41 245.68 239.15 245.41 238.89 243.5 240.9 243.41 241.03 243.5 242.25 243.5 242.34 247.91 246.61 248.03 246.7 249.21 246.7 249.34 246.7 251.4 244.51 251.61 244.3 250.13 242.86 249.91 242.64 249.04 243.56 248.65 243.21 249.3 242.51 249.52 242.29 247.99 240.85 247.77 240.63 246.9 241.51 246.55 241.16 247.12 240.5 247.34 240.24 245.94 238.89 245.68 238.67 245.41 238.89 245.68 239.15"/><polygon class="cls-1" points="247.95 246.13 244.76 249.75 240.57 245.82 244.02 242.42 247.95 246.13"/><polygon class="cls-2" points="247.69 245.91 244.72 249.23 241.06 245.82 244.02 242.9 247.69 246.39 248.21 245.87 244.24 242.16 244.02 241.94 240.31 245.56 240.09 245.82 244.54 250.01 244.76 250.23 248.21 246.35 247.69 245.91"/><polygon class="cls-2" points="254.8 255.52 255.67 256.38 254.8 257.3 253.93 256.47 254.8 255.52"/><polygon class="cls-2" points="244.11 245.39 244.98 246.22 244.11 247.14 243.24 246.35 244.11 245.39"/><polygon class="cls-1" points="167.19 254.2 150.56 269.91 145.24 262.8 160.38 248.44 167.19 254.2"/><polygon class="cls-2" points="167.19 254.2 166.97 253.94 150.6 269.39 145.72 262.85 160.38 248.93 166.97 254.47 167.19 254.2 166.97 253.94 167.19 254.2 167.4 253.94 160.59 248.18 160.38 247.96 144.97 262.54 144.76 262.76 150.29 270.13 150.51 270.44 167.4 254.47 167.71 254.2 167.4 253.94 167.19 254.2"/><polygon class="cls-1" points="153.35 256.12 154.75 265.94 162.95 258.13 153.35 256.12"/><polygon class="cls-2" points="153 256.17 154.4 265.99 154.49 266.64 163.17 258.39 163.65 257.91 153.44 255.77 153.26 256.47 162.21 258.35 155.01 265.24 153.7 256.08 153 256.17"/><polygon class="cls-1" points="154.62 257.52 156.54 264.24 161.16 259.83 154.62 257.52"/><polygon class="cls-2" points="154.62 257.52 154.27 257.61 156.19 264.33 156.36 264.9 161.38 260.1 161.81 259.7 154.75 257.17 154.09 256.95 154.27 257.61 154.62 257.52 154.49 257.82 160.51 259.96 156.71 263.58 154.96 257.43 154.62 257.52 154.49 257.82 154.62 257.52"/><polygon class="cls-1" points="158.28 245 141.88 260.57 141.92 261.84 143.19 261.97 159.59 246.44 159.55 245.13 158.28 245"/><polygon class="cls-2" points="158.28 245 158.06 244.74 141.66 260.31 141.53 260.44 141.57 261.84 141.57 262.15 143.14 262.32 143.32 262.32 159.81 246.7 159.94 246.57 159.9 245.13 159.9 244.82 158.32 244.65 158.15 244.65 158.06 244.74 158.28 245 158.24 245.35 159.2 245.44 159.24 246.31 143.06 261.62 142.27 261.54 142.22 260.71 158.5 245.26 158.28 245 158.24 245.35 158.28 245"/><polygon class="cls-1" points="167.49 253.9 150.25 270.26 150.29 271.62 151.65 271.74 168.93 255.38 168.84 254.03 167.49 253.9"/><polygon class="cls-2" points="167.49 253.9 167.23 253.64 150.04 270 149.91 270.13 149.95 271.62 149.95 271.92 151.61 272.09 151.78 272.09 169.15 255.64 169.28 255.52 169.19 253.98 169.15 253.73 167.53 253.55 167.36 253.55 167.23 253.64 167.49 253.9 167.44 254.25 168.49 254.33 168.58 255.25 151.52 271.39 150.65 271.31 150.6 270.39 167.71 254.16 167.49 253.9 167.44 254.25 167.49 253.9"/><polygon class="cls-1" points="159.24 246.79 143.58 261.62 143.62 262.93 144.93 263.06 160.59 248.18 160.51 246.92 159.24 246.79"/><polygon class="cls-2" points="159.24 246.79 159.02 246.53 143.32 261.36 143.23 261.49 143.27 262.93 143.27 263.24 144.89 263.41 145.06 263.41 160.81 248.44 160.94 248.31 160.86 246.87 160.81 246.61 159.29 246.44 159.11 246.44 159.02 246.53 159.24 246.79 159.2 247.14 160.16 247.22 160.25 248.05 144.8 262.71 143.97 262.62 143.93 261.75 159.46 247.05 159.24 246.79 159.2 247.14 159.24 246.79"/><polygon class="cls-1" points="141.7 247.96 147.81 254.9 152.13 250.8 145.5 244.43 141.7 247.96"/><polygon class="cls-2" points="141.44 248.18 147.55 255.12 147.77 255.38 152.35 251.06 152.65 250.8 145.76 244.17 145.5 243.95 141.48 247.7 141.92 248.23 145.5 244.91 151.61 250.8 147.81 254.42 141.96 247.75 141.44 248.18"/><polygon class="cls-1" points="143.93 241.07 142.75 242.25 143.53 243.08 142.66 243.95 141.83 243.03 140.57 244.26 141.44 245.13 140.57 245.96 139.69 245.04 138.47 246.26 140.39 248.27 141.44 248.27 145.76 244.17 145.8 243.08 143.93 241.07"/><polygon class="cls-2" points="143.93 241.07 143.66 240.81 142.49 241.99 142.27 242.25 143.06 243.08 142.66 243.42 142.09 242.81 141.83 242.55 140.31 244 140.09 244.26 140.96 245.13 140.57 245.48 139.96 244.82 139.69 244.56 138.21 246 137.99 246.26 140.13 248.49 140.26 248.62 141.44 248.62 141.57 248.62 145.98 244.43 146.11 244.3 146.15 243.08 146.15 242.95 144.19 240.81 143.93 240.55 143.66 240.81 143.93 241.07 143.66 241.29 145.45 243.21 145.41 244 141.31 247.92 140.53 247.92 138.95 246.26 139.69 245.52 140.31 246.18 140.57 246.44 141.66 245.39 141.92 245.13 141.05 244.26 141.83 243.51 142.4 244.17 142.66 244.47 143.8 243.34 144.01 243.08 143.23 242.25 144.19 241.33 143.93 241.07 143.66 241.29 143.93 241.07"/><polygon class="cls-2" points="146.72 248.58 145.89 249.4 147.33 250.97 148.21 250.1 146.72 248.58"/><polygon class="cls-1" points="141.62 249.32 140.44 250.45 141.26 251.33 140.39 252.15 139.52 251.24 138.3 252.42 139.13 253.33 138.25 254.2 137.38 253.29 136.16 254.47 138.08 256.47 139.08 256.52 143.45 252.37 143.53 251.33 141.62 249.32"/><polygon class="cls-2" points="141.62 249.32 141.35 249.05 140.18 250.19 139.96 250.45 140.79 251.33 140.39 251.68 139.78 251.02 139.52 250.76 138.04 252.15 137.82 252.42 138.65 253.33 138.25 253.73 137.64 253.03 137.38 252.81 135.9 254.2 135.68 254.47 137.82 256.69 137.91 256.82 139.08 256.87 139.21 256.87 143.66 252.63 143.8 252.54 143.88 251.37 143.88 251.19 141.88 249.05 141.62 248.84 141.35 249.05 141.62 249.32 141.35 249.54 143.19 251.46 143.1 252.19 138.95 256.17 138.25 256.12 136.64 254.47 137.38 253.77 137.99 254.42 138.25 254.68 139.39 253.59 139.61 253.33 138.78 252.42 139.52 251.72 140.13 252.37 140.39 252.63 141.48 251.59 141.75 251.33 140.92 250.45 141.83 249.58 141.62 249.32 141.35 249.54 141.62 249.32"/><polygon class="cls-1" points="139.34 256.3 142.53 259.88 146.72 255.95 143.27 252.54 139.34 256.3"/><polygon class="cls-2" points="139.08 256.52 142.27 260.1 142.49 260.36 146.94 256.21 147.2 255.95 143.53 252.28 143.27 252.07 139.08 256.03 139.61 256.56 143.27 253.03 146.2 255.95 142.53 259.4 139.61 256.08 139.08 256.52"/><polygon class="cls-1" points="152.35 239.15 151.13 240.29 151.96 241.2 151.04 241.99 150.25 241.11 148.99 242.29 149.82 243.21 148.94 244.04 148.07 243.12 146.85 244.3 148.77 246.35 149.82 246.35 154.18 242.21 154.22 241.16 152.35 239.15"/><polygon class="cls-2" points="152.35 239.15 152.13 238.89 150.91 240.02 150.65 240.24 151.48 241.16 151.08 241.51 150.51 240.9 150.25 240.63 148.77 242.03 148.51 242.25 149.34 243.16 148.94 243.56 148.33 242.9 148.07 242.64 146.59 244.04 146.37 244.3 148.51 246.57 148.59 246.7 149.82 246.7 149.95 246.7 154.4 242.47 154.53 242.38 154.57 241.16 154.57 241.03 152.61 238.89 152.35 238.67 152.13 238.89 152.35 239.15 152.09 239.37 153.88 241.29 153.83 242.03 149.69 246 148.9 246 147.33 244.3 148.07 243.6 148.68 244.26 148.94 244.51 150.04 243.47 150.3 243.21 149.47 242.29 150.21 241.6 150.78 242.21 150.99 242.47 152.17 241.46 152.44 241.25 151.61 240.29 152.57 239.41 152.35 239.15 152.09 239.37 152.35 239.15"/><polygon class="cls-1" points="150.08 246.13 153.26 249.75 157.41 245.83 153.96 242.42 150.08 246.13"/><polygon class="cls-2" points="149.82 246.35 153 249.97 153.22 250.23 157.63 246.09 157.89 245.83 154.22 242.16 153.96 241.94 149.82 245.87 150.34 246.39 153.96 242.9 156.93 245.83 153.26 249.27 150.34 245.91 149.82 246.35"/><polygon class="cls-2" points="143.19 255.52 142.31 256.38 143.19 257.3 144.06 256.47 143.19 255.52"/><polygon class="cls-2" points="153.88 245.39 153.05 246.22 153.92 247.14 154.79 246.35 153.88 245.39"/><polygon class="cls-1" points="124.08 135.7 146.94 135.7 145.89 126.88 125.03 126.88 124.08 135.7"/><polygon class="cls-2" points="124.08 135.7 124.08 136.04 146.94 136.04 147.33 136.04 146.24 126.84 146.2 126.53 125.03 126.53 124.73 126.53 123.72 135.66 123.68 136.04 124.08 136.04 124.08 135.7 124.42 135.74 125.34 127.23 145.59 127.23 146.54 135.35 124.08 135.35 124.08 135.7 124.42 135.74 124.08 135.7"/><polygon class="cls-1" points="135.42 127.58 141.18 135.7 129.83 135.7 135.42 127.58"/><polygon class="cls-2" points="135.11 127.8 140.52 135.35 130.49 135.35 135.72 127.8 135.11 127.36 129.53 135.48 129.18 136.04 141.18 136.04 141.88 136.04 135.68 127.36 135.16 127.8 135.11 127.8"/><path class="cls-1" d="M135.46,129.5a6.78,6.78,0,0,1,3.28,6.19h-6.46a6.8,6.8,0,0,1,3.18-6.19"/><path class="cls-2" d="M135.46,129.5l-.17.3a6.36,6.36,0,0,1,3.1,5.89h.35v-.35h-6.46v.35h.35a6.47,6.47,0,0,1,3-5.89l-.17-.3-.17.3.17-.3-.17-.31s-3.36,1.75-3.36,6.5V136h7.16v-.35a7.12,7.12,0,0,0-3.45-6.5l-.17-.09-.17.09Z"/><polygon class="cls-1" points="123.64 135.7 147.42 135.7 148.33 136.75 147.42 137.79 123.64 137.79 122.72 136.75 123.64 135.7"/><polygon class="cls-2" points="123.64 135.7 123.64 136.04 147.24 136.04 147.85 136.75 147.24 137.44 123.77 137.44 123.16 136.75 123.9 135.91 123.64 135.7 123.64 136.04 123.64 135.7 123.38 135.48 122.46 136.53 122.24 136.75 123.38 138.01 123.47 138.14 147.42 138.14 147.59 138.14 148.59 136.96 148.81 136.75 147.68 135.48 147.59 135.35 123.64 135.35 123.47 135.35 123.38 135.48 123.64 135.7"/><polygon class="cls-1" points="124.08 201.93 146.94 201.93 145.89 193.07 125.03 193.07 124.08 201.93"/><polygon class="cls-2" points="124.08 201.93 124.08 202.28 146.94 202.28 147.33 202.28 146.24 193.03 146.2 192.73 125.03 192.73 124.73 192.73 123.72 201.89 123.68 202.28 124.08 202.28 124.08 201.93 124.42 201.97 125.34 193.42 145.59 193.42 146.54 201.58 124.08 201.58 124.08 201.93 124.42 201.97 124.08 201.93"/><polygon class="cls-1" points="135.42 193.82 141.18 201.93 129.83 201.93 135.42 193.82"/><polygon class="cls-2" points="135.11 194.03 140.52 201.58 130.49 201.58 135.72 194.03 135.11 193.6 129.53 201.71 129.18 202.28 141.18 202.28 141.83 202.28 135.68 193.6 135.16 194.03 135.11 194.03"/><path class="cls-1" d="M135.46,195.73a6.71,6.71,0,0,1,3.28,6.2h-6.46a6.81,6.81,0,0,1,3.18-6.2"/><path class="cls-2" d="M135.46,195.73l-.17.31s3.1,1.44,3.1,5.89h.35v-.35h-6.46v.35h.35a6.45,6.45,0,0,1,3-5.89l-.17-.31-.17.31.17-.31-.17-.3s-3.36,1.74-3.36,6.5v.35h7.16v-.35a7,7,0,0,0-3.49-6.5l-.13-.09-.17.09Z"/><polygon class="cls-1" points="124.25 189.15 146.81 189.15 147.68 190.11 146.81 191.11 124.25 191.11 123.38 190.11 124.25 189.15"/><polygon class="cls-2" points="124.25 189.15 124.25 189.49 146.63 189.49 147.2 190.11 146.63 190.76 124.42 190.76 123.86 190.11 124.51 189.37 124.25 189.15 124.25 189.49 124.25 189.15 123.99 188.93 123.11 189.89 122.9 190.11 123.99 191.33 124.07 191.46 146.81 191.46 146.98 191.46 147.94 190.33 148.16 190.11 147.07 188.93 146.94 188.8 124.25 188.8 124.07 188.8 123.99 188.93 124.25 189.15"/><polygon class="cls-1" points="123.64 201.93 147.42 201.93 148.33 202.98 147.42 203.98 123.64 203.98 122.72 202.98 123.64 201.93"/><polygon class="cls-2" points="123.64 201.93 123.64 202.28 147.24 202.28 147.85 202.98 147.24 203.63 123.77 203.63 123.2 202.98 123.9 202.15 123.64 201.93 123.64 202.28 123.64 201.93 123.38 201.71 122.46 202.76 122.24 202.98 123.38 204.2 123.47 204.33 147.42 204.33 147.59 204.33 148.59 203.2 148.81 202.98 147.68 201.71 147.59 201.58 123.64 201.58 123.47 201.58 123.38 201.71 123.64 201.93"/><polygon class="cls-1" points="124.73 191.11 146.33 191.11 147.16 192.07 146.33 193.03 124.73 193.03 123.9 192.07 124.73 191.11"/><polygon class="cls-2" points="124.73 191.11 124.73 191.46 146.15 191.46 146.67 192.07 146.15 192.68 124.91 192.68 124.38 192.07 124.99 191.33 124.73 191.11 124.73 191.46 124.73 191.11 124.47 190.89 123.64 191.85 123.42 192.07 124.47 193.25 124.55 193.38 146.33 193.38 146.5 193.38 147.42 192.29 147.59 192.07 146.59 190.89 146.5 190.76 124.73 190.76 124.55 190.76 124.47 190.89 124.73 191.11"/><polygon class="cls-1" points="138.3 179.9 138.65 189.19 132.63 189.1 133.06 179.9 138.3 179.9"/><polygon class="cls-2" points="137.95 179.9 138.3 188.84 132.98 188.75 133.41 180.25 138.3 180.25 138.3 179.55 133.06 179.55 132.71 179.55 132.28 189.1 132.23 189.45 138.65 189.54 139 189.54 138.65 179.9 137.95 179.9"/><polygon class="cls-1" points="131.93 176.45 133.59 176.45 133.59 177.67 134.81 177.67 134.81 176.41 136.51 176.41 136.51 177.67 137.73 177.67 137.73 176.41 139.43 176.41 139.43 179.2 138.69 179.94 132.71 179.94 131.93 179.2 131.93 176.45"/><polygon class="cls-2" points="131.93 176.45 131.93 176.8 133.24 176.8 133.24 177.67 133.24 178.02 134.81 178.02 135.16 178.02 135.16 176.76 136.16 176.76 136.16 177.67 136.16 178.02 137.73 178.02 138.08 178.02 138.08 176.76 139.08 176.76 139.08 179.07 138.56 179.59 132.84 179.59 132.28 179.02 132.28 176.45 131.93 176.45 131.93 176.8 131.93 176.45 131.58 176.45 131.58 179.2 131.58 179.33 132.5 180.2 132.58 180.29 138.69 180.29 138.82 180.29 139.69 179.46 139.78 179.33 139.78 176.41 139.78 176.06 137.73 176.06 137.38 176.06 137.38 177.32 136.86 177.32 136.86 176.41 136.86 176.06 134.81 176.06 134.46 176.06 134.46 177.32 133.94 177.32 133.94 176.45 133.94 176.1 131.93 176.1 131.58 176.1 131.58 176.45 131.93 176.45"/><rect class="cls-2" x="135.07" y="183.78" width="1.18" height="2.18"/><polygon class="cls-1" points="139.21 180.81 140.92 180.81 140.92 182.03 142.14 182.03 142.14 180.81 143.84 180.81 143.84 182.03 145.06 182.03 145.06 180.81 146.76 180.81 146.76 183.6 146.02 184.3 140 184.3 139.21 183.6 139.21 180.81"/><polygon class="cls-2" points="139.21 180.81 139.21 181.16 140.57 181.16 140.57 182.03 140.57 182.39 142.14 182.39 142.49 182.39 142.49 181.16 143.49 181.16 143.49 182.03 143.49 182.39 145.06 182.39 145.41 182.39 145.41 181.16 146.41 181.16 146.41 183.47 145.89 183.95 140 183.95 139.56 183.47 139.56 180.81 139.21 180.81 139.21 181.16 139.21 180.81 138.87 180.81 138.87 183.6 138.87 183.74 139.78 184.56 146.02 184.65 146.15 184.65 146.98 183.87 147.11 183.74 147.11 180.81 147.11 180.46 145.06 180.46 144.71 180.46 144.71 181.69 144.19 181.69 144.19 180.81 144.19 180.46 142.14 180.46 141.79 180.46 141.79 181.69 141.26 181.69 141.26 180.81 141.26 180.46 139.21 180.46 138.87 180.46 138.87 180.81 139.21 180.81"/><polygon class="cls-1" points="145.67 184.3 145.89 189.19 140.13 189.19 140.31 184.3 145.67 184.3"/><polygon class="cls-2" points="145.32 184.3 145.54 188.84 140.48 188.84 140.66 184.65 145.67 184.65 145.67 183.95 140.31 183.95 139.96 183.95 139.78 189.19 139.78 189.54 145.89 189.54 146.24 189.54 146.02 184.3 145.32 184.3"/><polygon class="cls-1" points="124.51 180.81 126.17 180.81 126.17 182.03 127.39 182.03 127.39 180.81 129.09 180.81 129.09 182.03 130.31 182.03 130.31 180.81 132.01 180.81 132.01 183.6 131.27 184.3 125.25 184.3 124.51 183.6 124.51 180.81"/><polygon class="cls-2" points="124.51 180.81 124.51 181.16 125.82 181.16 125.82 182.03 125.82 182.39 127.39 182.39 127.74 182.39 127.74 181.16 128.74 181.16 128.74 182.03 128.74 182.39 130.31 182.39 130.66 182.39 130.66 181.16 131.66 181.16 131.66 183.47 131.14 183.95 125.38 183.95 124.86 183.47 124.86 180.81 124.51 180.81 124.51 181.16 124.51 180.81 124.16 180.81 124.16 183.6 124.16 183.74 124.99 184.56 125.12 184.65 131.27 184.65 131.4 184.65 132.23 183.87 132.37 183.74 132.37 180.81 132.37 180.46 130.31 180.46 129.97 180.46 129.97 181.69 129.44 181.69 129.44 180.81 129.44 180.46 127.39 180.46 127.04 180.46 127.04 181.69 126.52 181.69 126.52 180.81 126.52 180.46 124.51 180.46 124.16 180.46 124.16 180.81 124.51 180.81"/><polygon class="cls-1" points="130.93 184.3 131.14 189.19 125.38 189.19 125.56 184.3 130.93 184.3"/><polygon class="cls-2" points="130.57 184.3 130.79 188.84 125.73 188.84 125.91 184.65 130.93 184.65 130.93 183.95 125.56 183.95 125.21 183.95 125.03 189.19 125.03 189.54 131.14 189.54 131.49 189.54 131.27 184.3 130.57 184.3"/><rect class="cls-2" x="142.4" y="186.4" width="1.22" height="1.31"/><rect class="cls-2" x="127.65" y="186.4" width="1.22" height="1.31"/></svg>