<svg id="Capa_1" data-name="Capa 1" xmlns="http://www.w3.org/2000/svg" viewBox="0 0 396.85 396.85"><defs><style>.cls-1{fill:#ff1507;}.cls-2{fill:#ffd606;}</style></defs><title>spanish</title><path class="cls-1" d="M6.06,150.33C32.25,44.47,139.29-20.07,245.13,6.13s170.4,133.21,144.21,239.06S256.12,415.6,150.26,389.4-20.15,256.18,6.06,150.33"/><path class="cls-1" d="M11.74,131.45H383.67A197.18,197.18,0,0,0,245.13,6.13C145.75-18.47,45.3,36.94,11.74,131.45"/><path class="cls-2" d="M390.9,238.35l.26-1.26q.22-1.1.44-2.2l.24-1.28q.21-1.14.41-2.28c.07-.38.14-.76.2-1.15q.24-1.42.45-2.85l.09-.56q.25-1.71.48-3.42c0-.3.07-.6.11-.91.11-.84.21-1.67.3-2.51q.07-.6.13-1.19c.08-.75.16-1.5.23-2.25,0-.41.08-.83.12-1.24.07-.76.13-1.51.19-2.27,0-.38.06-.77.09-1.15q.09-1.3.17-2.61c0-.26,0-.53.05-.79q.09-1.71.16-3.42c0-.19,0-.37,0-.56q0-1.42.08-2.83c0-.36,0-.72,0-1.07q0-1.17,0-2.33c0-.39,0-.78,0-1.17q0-1.14,0-2.28c0-.38,0-.75,0-1.13q0-1.25-.07-2.5c0-.29,0-.58,0-.87q-.13-3.39-.37-6.76c0-.29,0-.59-.07-.89q-.1-1.23-.2-2.47-.05-.53-.1-1.07-.11-1.16-.24-2.32c0-.35-.07-.71-.11-1.06q-.14-1.23-.29-2.46l-.11-.86q-.44-3.36-1-6.69l-.1-.6q-.22-1.35-.47-2.69l-.17-.92q-.22-1.2-.46-2.4c-.06-.32-.13-.64-.19-1-.17-.82-.34-1.64-.52-2.45l-.18-.82c-.23-1-.45-2-.69-3l-.05-.22q-.38-1.57-.78-3.13h0q-2.24-8.68-5.25-17.09H11.74q-3.27,9.2-5.68,18.89a196.72,196.72,0,0,0-3.38,78.41l.05.34q.22,1.39.47,2.77l.11.58q.23,1.29.48,2.59l.15.77q.24,1.22.49,2.44l.2.92c.17.77.33,1.54.51,2.3l.25,1.07c.17.72.33,1.44.51,2.15.13.54.27,1.08.41,1.62q.31,1.22.63,2.43c.21.8.43,1.6.65,2.39l.3,1c.22.75.43,1.51.66,2.26l.32,1.05c.23.75.46,1.49.7,2.24l.33,1q.37,1.12.75,2.24l.35,1q.39,1.13.79,2.25l.18.53h0c.17.46.33.93.5,1.39H382.9c.17-.46.32-.93.49-1.39h0c.42-1.16.81-2.32,1.21-3.49l.12-.34q.77-2.29,1.49-4.6l.2-.65c.44-1.44.86-2.89,1.27-4.35.09-.31.18-.61.27-.92q.72-2.6,1.37-5.24.42-1.71.81-3.41c.08-.36.16-.73.24-1.09.17-.78.34-1.56.51-2.34"/></svg>