<svg xmlns="http://www.w3.org/2000/svg" width="872.34" height="550.616" viewBox="0 0 872.34 550.616">
  <g id="adoption-illustration" transform="translate(-63.83 -88.913)">
    <g id="Groupe_4170" data-name="Groupe 4170">
      <path id="Tracé_1664" data-name="Tracé 1664" d="M360.4,281.526l7.181,35.916.759,39.483C348.722,316.394,360.4,281.526,360.4,281.526Z" fill="#45bddd"/>
      <path id="Tracé_1665" data-name="Tracé 1665" d="M474.646,284.515l-16.393,32.706L447.07,355.073C476.605,321.234,474.646,284.515,474.646,284.515Z" fill="#45bddd"/>
      <path id="Tracé_1666" data-name="Tracé 1666" d="M404.331,97.3c-7-2.569,7.031,23.234,7.031,23.234l24.251,29.956C430.388,135.789,411.331,99.87,404.331,97.3Z" fill="#f44556"/>
      <path id="Tracé_1667" data-name="Tracé 1667" d="M431.955,198.532l-27.3,196.839s52-47.087,66.737-90.7S450.156,213.2,431.955,198.532Z" fill="#54cdf7"/>
      <path id="Tracé_1668" data-name="Tracé 1668" d="M431.764,201.209l-5.23,37.714c.3,1.1.6,2.2.941,3.306,9.651,31.665,31.869,51.959,47.171,42.286C476.7,243.044,446.814,213.337,431.764,201.209Z" fill="#334368"/>
      <path id="Tracé_1669" data-name="Tracé 1669" d="M431.955,198.532l-5.229,37.714c.294,1.1.6,2.2.941,3.3,9.652,31.666,31.871,51.959,47.17,42.287C476.893,240.366,447.005,210.66,431.955,198.532Z" fill="#dddd43"/>
      <path id="Tracé_1670" data-name="Tracé 1670" d="M451.107,217.366c13.167,28.449,15.879,58.182,21.708,56.717.816-.2,1.44-1.067,1.872-2.48C472.985,249.227,462.289,230.792,451.107,217.366Z" fill="#fff648"/>
      <path id="Tracé_1671" data-name="Tracé 1671" d="M419.864,285.712,404.655,395.371s25.985-23.533,46.422-52.732C438.25,334.912,426.421,313.359,419.864,285.712Z" fill="#45bddd"/>
      <path id="Tracé_1672" data-name="Tracé 1672" d="M450.5,253.256c-6.8-2.9-18.231,2.464-27.863,10.92l-20.273,128.9C425.348,372.886,436.6,357.867,447.643,335,472.306,283.956,465.949,259.861,450.5,253.256Z" fill="#334368"/>
      <path id="Tracé_1673" data-name="Tracé 1673" d="M410.288,488c-23.4-10.808-36.4-58.669-33.367-93.789a320.558,320.558,0,0,1,16.033-76.806s3.9,48.244,3.9,71.788S389.488,473.336,410.288,488Z" fill="#c42c49"/>
      <g id="Groupe_4169" data-name="Groupe 4169">
        <path id="Tracé_1674" data-name="Tracé 1674" d="M395.081,452.679q1.259,3.759,2.315,7.4c-3.724-23.926-.543-55.4-.543-70.879,0-23.544-3.9-71.788-3.9-71.788a320.558,320.558,0,0,0-16.033,76.806,132.8,132.8,0,0,0,.052,22C382.622,422.6,389.56,436.216,395.081,452.679Z" fill="#b21d40"/>
      </g>
      <path id="Tracé_1675" data-name="Tracé 1675" d="M410.288,488c-9.98-7.038-13.474-24.645-14.411-43.666-2.705,5.174-4.661,13.089-5.333,22.292C395.83,476.643,402.475,484.392,410.288,488Z" fill="#db355d"/>
      <path id="Tracé_1676" data-name="Tracé 1676" d="M380.949,468.969c-19.965-17.231-21.354-68.266-10.3-102.212a320.974,320.974,0,0,1,33.2-71.608s-7.439,48.877-12.9,72.2S364.376,448.64,380.949,468.969Z" fill="#c42c49"/>
      <path id="Tracé_1677" data-name="Tracé 1677" d="M384.868,389.829c2.448-8.876,4.744-16.732,6.09-22.481,5.46-23.322,6.212-70.487,6.212-70.487-34.437,56.187-34.839,93.6-33.2,124.1C369.522,403.122,377.683,390.635,384.868,389.829Z" fill="#b21d40"/>
      <path id="Tracé_1678" data-name="Tracé 1678" d="M367.438,444.271c2.8,10.517,7.234,19.282,13.511,24.7-8.235-10.1-7.159-29.494-3.327-49.314C372.642,421.749,368.365,431.809,367.438,444.271Z" fill="#db355d"/>
      <path id="Tracé_1679" data-name="Tracé 1679" d="M402.923,467.545c-10.835-14.281-30.148-92.042-8.045-160.743l48.345,18.325s-32.5,50.174-38.568,75.261C398.913,424.132,402.923,467.545,402.923,467.545Z" fill="#c42c49"/>
      <path id="Tracé_1680" data-name="Tracé 1680" d="M397.027,357.941c4.843,0,9.09,12.294,11.506,30.8,10.555-26.359,34.69-63.617,34.69-63.617L394.878,306.8c-9.137,28.4-11.193,58.346-9.7,84.718C387.521,371.474,391.948,357.941,397.027,357.941Z" fill="#b21d40"/>
      <path id="Tracé_1681" data-name="Tracé 1681" d="M392.082,438.9c3.46,14.064,7.541,24.3,10.841,28.644,0,0-3.3-35.762.382-60.121C398.415,411.88,394.127,423.815,392.082,438.9Z" fill="#db355d"/>
      <path id="Tracé_1682" data-name="Tracé 1682" d="M433.69,593.621l9.533,4.5-2.6-225.27-3.9.753Z" fill="#ffb95c"/>
      <path id="Tracé_1683" data-name="Tracé 1683" d="M441.359,410.712l-.737-37.858-3.9.752-1.079,45.847A96.846,96.846,0,0,1,441.359,410.712Z" fill="#f78b41"/>
      <path id="Tracé_1684" data-name="Tracé 1684" d="M389.488,401.158s-33.632-76.2-31.2-123.12c1.3-25.086,13.159-63.845,47.259-75.526,5.633-1.93,4.688,36.286-3.489,56.229C383.855,303.126,389.488,401.158,389.488,401.158Z" fill="#54cdf7"/>
      <path id="Tracé_1685" data-name="Tracé 1685" d="M387.995,265.315c-17.781,10.037,2.832,104.97-22.475,66.377,9.26,36.142,23.968,69.466,23.968,69.466S393.157,293.706,387.995,265.315Z" fill="#45bddd"/>
      <path id="Tracé_1686" data-name="Tracé 1686" d="M405.545,206.145c-34.1,11.681-45.961,50.44-47.259,75.526-.129,2.494-.152,5.073-.087,7.714,14.13-.655,30.709-10.865,44.079-27.584C410.244,241.71,411.125,204.232,405.545,206.145Z" fill="#334368"/>
      <path id="Tracé_1687" data-name="Tracé 1687" d="M405.545,202.512c-34.1,11.681-45.961,50.44-47.259,75.526-.129,2.494-.152,5.073-.087,7.715,14.13-.655,30.709-10.866,44.079-27.586C410.244,238.078,411.125,200.6,405.545,202.512Z" fill="#dddd43"/>
      <path id="Tracé_1688" data-name="Tracé 1688" d="M362.947,287.492l2.869-15.677.781,13.011Z" fill="#334368"/>
      <path id="Tracé_1689" data-name="Tracé 1689" d="M395.983,342.985s2.767,13.247,5.636,13.146c4.993-.171,1.961-12.637,1.961-12.637Z" fill="#3a1c25"/>
      <path id="Tracé_1690" data-name="Tracé 1690" d="M390.881,312.464c-1.94,19.689-.151,35.992,10.381,37.9,4.5.816,11.2-24.28,11.2-24.28Z" fill="#e53851"/>
      <path id="Tracé_1691" data-name="Tracé 1691" d="M416.384,343.459s-6.165,12.044-3.872,13.765a3.374,3.374,0,0,0,5.168-1.859c.854-3.3,5.373-7.1,5.373-7.1Z" fill="#3a1c25"/>
      <path id="Tracé_1692" data-name="Tracé 1692" d="M444.484,321.148c-5.165,15.219-14.725,30.919-27.463,29.393-5.389-.646,3.2-24.966,3.2-24.966Z" fill="#e53851"/>
      <path id="Tracé_1693" data-name="Tracé 1693" d="M444.2,329.552c6.253-10.873,24.188-38.654,18.542-66.818-6.5-32.4-23.131-43.015-24.85-69.684l-43.59-3.442c13.765,19.214-4.1,41.794-8.5,66.6-3.2,18.039-4.211,40.525.1,69.218.686,4.964,4.493,14.06,6.683,13.3,1.314-.454,1.311-8.012,1.753-12.2,0,0-.206,9.955,3.981,11.623,4.9,1.949,6.639-6.01,6.639-6.01s-2.437,6.249,1.392,7.157,8.825-6.743,8.825-6.743-4.675,6.425.066,7.027c4.759.606,12.364-9.77,12.364-9.77s-4.628,7.135-2.042,8.339C432.206,343.023,441.412,334.4,444.2,329.552Z" fill="#f44556"/>
      <path id="Tracé_1694" data-name="Tracé 1694" d="M462.743,262.734c-4.014-20.011-11.887-31.711-17.731-44.015-10.589-6.266-34.244,6.171-43.164,19.938-23.036,35.548,23.276,87.219,53.626,69.853C461.263,295.6,466.05,279.233,462.743,262.734Z" fill="#ff4d5e"/>
      <path id="Tracé_1695" data-name="Tracé 1695" d="M386.274,289.834c0-46.008,19.2-83.307,42.87-83.307a24.275,24.275,0,0,1,12.217,3.452,62.081,62.081,0,0,1-3.468-16.929l-43.59-3.442c13.765,19.214-4.1,41.794-8.5,66.6-3.2,18.039-4.211,40.525.1,69.218.686,4.964,4.493,14.06,6.683,13.3.446-.153.738-1.132.95-2.51C388.951,322.96,386.274,307.005,386.274,289.834Z" fill="#d32d41"/>
      <path id="Tracé_1696" data-name="Tracé 1696" d="M383.1,283.393c8.337-36.413,36.114-61.211,62.571-55.56a36.22,36.22,0,0,1,4.615,1.318c-5.872-11.406-11.437-21.273-12.394-36.1l-43.59-3.442c13.765,19.214-4.1,41.794-8.5,66.6A183.2,183.2,0,0,0,383.1,283.393Z" fill="#d32d41"/>
      <path id="Tracé_1697" data-name="Tracé 1697" d="M416.1,354.5l-3.586,2.725a83.5,83.5,0,0,1,9.609,8.461l9.032.855S422.121,358.8,416.1,354.5Z" fill="#562c36"/>
      <path id="Tracé_1698" data-name="Tracé 1698" d="M420.287,357.649c-1.454-1.133-2.986-3.654-4.285-4.58l-3.49,4.155a101.293,101.293,0,0,1,7.8,6.6A12.468,12.468,0,0,1,420.287,357.649Z" fill="#3a1c25"/>
      <path id="Tracé_1699" data-name="Tracé 1699" d="M365.22,368.571c11.671-13.077,63.269,0,78.869-1.545s45.071-1.928,45.5,3.861-24.268,12.736-50.271,7.332C439.322,378.219,351.785,383.623,365.22,368.571Z" fill="#ffb95c"/>
      <path id="Tracé_1700" data-name="Tracé 1700" d="M464.583,374.854c-8.822.372-16.748-.334-22.019-1.739-6.206,1.769-16.636,2.828-28.08,2.608-17.577-.341-30.886-3.569-29.73-7.214.734-2.3,7.076-4.217,16.078-5.23-15.458-1.229-30.059-.934-35.612,5.292-13.435,15.052,74.2,10.686,74.2,10.686,26,5.4,50.6-2.581,50.171-8.37a1.859,1.859,0,0,0-.318-.864C484.541,372.482,475.288,374.4,464.583,374.854Z" fill="#f78b41"/>
      <path id="Tracé_1701" data-name="Tracé 1701" d="M398.906,378.763c-5.183-4.742.957-12.841,5.183-14.269,0,0,.9-4.952-6.887-.515s-7.49,10.319-3.565,13.225A7.989,7.989,0,0,0,398.906,378.763Z" fill="#f78b41"/>
      <path id="Tracé_1702" data-name="Tracé 1702" d="M421.309,365.462c5.807,3.853,1.171,9.8-2.695,10.72,0,0-.064,3.758,6.767.688s5.579-7.6,1.294-9.992A10.932,10.932,0,0,0,421.309,365.462Z" fill="#f78b41"/>
      <path id="Tracé_1703" data-name="Tracé 1703" d="M404.877,362.517c7.291,3.418,5.94,11.874,2.81,13.913,0,0,1.8,4.675,6.614-.731s1.409-10.717-3.747-12.681S404.877,362.517,404.877,362.517Z" fill="#f78b41"/>
      <path id="Tracé_1704" data-name="Tracé 1704" d="M424.272,366.356c8.05.1,10.314,8.357,8.308,11.51,0,0,3.572,3.509,5.721-3.4s-3.145-10.343-8.653-10S424.272,366.356,424.272,366.356Z" fill="#f78b41"/>
      <path id="Tracé_1705" data-name="Tracé 1705" d="M432.389,149.9c-29.87-17.134-43.768,8.492-46.368,17.369s3.319,22.252,8.323,27.428c9.535,9.868,32.622,13.665,43.26.933C440.039,192.72,457.956,164.567,432.389,149.9Z" fill="#f95368"/>
      <path id="Tracé_1706" data-name="Tracé 1706" d="M373.021,88.918c-6.068-.384,11.7,19.684,15.167,22.387,0,0-32.5-17.754-37.27-15.053s10.834,25.858,41.6,39.753c0,0-27.3-8.876-29.469-4.629s8.234,10.419,8.234,10.419-16.468,0-15.6,5.4,25.7,6.712,30.47,31.414l54.9-20.993C428.923,138.321,388.961,89.933,373.021,88.918Z" fill="#f44556"/>
      <path id="Tracé_1707" data-name="Tracé 1707" d="M442.67,213.448c-.184-.175-2.509-7.737-2.692-7.907-.084-.3-.165-.606-.243-.912-.066-.25-.13-.5-.191-.752-.008-.036-.017-.073-.025-.108-.1-.4-.188-.794-.276-1.195q-.114-.509-.219-1.026a.477.477,0,0,0-.009-.05q-.116-.562-.221-1.135c-.074-.413-.146-.832-.213-1.253l-.006-.032c-.054-.346-.112-.69-.161-1.043-.073-.509-.137-1.031-.2-1.552,0-.012,0-.024-.006-.036-.031-.283-.069-.562-.1-.847-.086-.835-.161-1.683-.216-2.55l-43.59-3.442a26.812,26.812,0,0,1,5.1,15.4c-29.4,13.979-39.9,49.51-41.118,73.027-.062,1.192-.094,2.4-.112,3.63,0,.093,0,.184,0,.276-.026,2.35.034,4.765.162,7.228C379.247,244.748,428.34,221.9,442.67,213.448Z" fill="#b23841" opacity="0.5" style="mix-blend-mode: multiply;isolation: isolate"/>
      <path id="Tracé_1708" data-name="Tracé 1708" d="M383.12,167.814c3.726,7.456-1.111,30.461.573,33.265,3.441,5.736,9.749,0,9.749,0s-9.464,12.044-6.883,13.191,10.611-3.441,10.611-3.441-2.579,5.162-.285,6.309c5.194,2.6,16.631-7.169,16.631-7.169s-3.153,4.875,2.3,5.162,21.793-16.92,26.957-29.251Z" fill="#f44556"/>
      <path id="Tracé_1709" data-name="Tracé 1709" d="M387.372,188.482c-8.133,6.973-20.23,2.791-14.574-6.983,4.541-7.838,13.83-17.014,13.83-17.014Z" fill="#f44556"/>
      <path id="Tracé_1710" data-name="Tracé 1710" d="M425.781,200.159c.688,10.952,12.339,17.312,15.462,6.331,2.5-8.805,2.958-28.066,2.958-28.066Z" fill="#f44556"/>
      <path id="Tracé_1711" data-name="Tracé 1711" d="M442.67,189.609s-13.19,14.529-25.425,14.529,4.4-28.868,4.4-28.868Z" fill="#d32d41"/>
      <path id="Tracé_1712" data-name="Tracé 1712" d="M379.615,160.8c-18.391-3.681-18.963,2.525-6.608,9.541,7.212,4.1,14.505,7.312,14.505,7.312Z" fill="#f44556"/>
      <path id="Tracé_1713" data-name="Tracé 1713" d="M404.239,352.055l-4.344,1.874s2.206,5.543,2,9.445l7.035.631S406.807,354.853,404.239,352.055Z" fill="#562c36"/>
      <path id="Tracé_1714" data-name="Tracé 1714" d="M405.964,356.127a3.349,3.349,0,0,1,.541.048c-.674-1.686-1.44-4.078-2.26-4.97l-4.841,2.68a23.319,23.319,0,0,1,2.258,6.343C402.381,357.817,404.037,356.127,405.964,356.127Z" fill="#3a1c25"/>
      <path id="Tracé_1715" data-name="Tracé 1715" d="M422.209,364.213c6.342,5.414,2.225,13.7-1.636,14.957,0,0,.325,5.253,7,1s4.767-12.7.137-16.067S422.209,364.213,422.209,364.213Z" fill="#562c36"/>
      <path id="Tracé_1716" data-name="Tracé 1716" d="M407.512,363.64c7.66,3.3,6.17,12.433,2.856,14.777,0,0,1.862,4.92,6.977-1.116s.8-13.546-4.616-15.392S407.512,363.64,407.512,363.64Z" fill="#562c36"/>
      <path id="Tracé_1717" data-name="Tracé 1717" d="M426.153,366.216c8.662-.465,12.181,8.3,10.439,11.852,0,0,4.3,3.544,5.7-4.078s-6.484-12.384-12.355-11.624S426.153,366.216,426.153,366.216Z" fill="#562c36"/>
      <path id="Tracé_1718" data-name="Tracé 1718" d="M404.258,363.57c-8.675,1.6-9.946,10.972-7.332,14.015,0,0-3.355,4.469-6.654-2.621s3.288-13.593,9.28-14.244S404.258,363.57,404.258,363.57Z" fill="#562c36"/>
      <path id="Tracé_1719" data-name="Tracé 1719" d="M408.355,363.248l-4.875-.143c-.576.894-1.05,5.182-1.72,8.89-.831,4.6-1.617,8.732.764,9.365,2.639.705,4.844-3,5.831-8.028C408.977,370.166,409.3,366.3,408.355,363.248Z" fill="#562c36"/>
      <path id="Tracé_1720" data-name="Tracé 1720" d="M377.562,368.673c-.027-2.409-3.007-3.7-6.657-2.885s-6.58,3.422-6.551,5.828,3.007,3.7,6.656,2.883S377.589,371.079,377.562,368.673Z" fill="#e55838"/>
      <path id="Tracé_1721" data-name="Tracé 1721" d="M404.245,97.277c-6.5-2.16,3.048,14.622,5.783,20.886a15.1,15.1,0,0,1,1.1-1.107C409.706,113.613,401.76,99.705,404.245,97.277Z" fill="#d3354f"/>
      <path id="Tracé_1722" data-name="Tracé 1722" d="M352.4,95.985a3.03,3.03,0,0,0-1.479.267c-4.747,2.691,10.708,25.661,41.219,39.573.219-1.11.2-1.121.474-2.2C374.955,121.917,361.669,107.666,352.4,95.985Z" fill="#d3354f"/>
      <path id="Tracé_1723" data-name="Tracé 1723" d="M392.657,153.615c1.43-4.2-1.35-13.61-.531-17.736-3.313-1.054-27.058-8.453-29.073-4.5-2.167,4.245,8.234,10.419,8.234,10.419s-16.468,0-15.6,5.4c.563,3.516,11.276,5.3,20,12.924-14.461-2.038-14.079,3.741-2.678,10.215,1.909,1.083,3.818,2.1,5.6,3.019A64.992,64.992,0,0,0,372.8,181.5c-4.868,8.413,3.415,12.674,11,9.256-.429,5.092-.76,9.235-.107,10.324,3.441,5.736,9.749,0,9.749,0s-9.464,12.044-6.883,13.191,10.611-3.441,10.611-3.441-2.579,5.162-.285,6.309c5.194,2.6,16.631-7.169,16.631-7.169s-3.153,4.875,2.3,5.162c2.456.129,7.129-3.3,11.992-8.235,3.632,6.232,11.045,8.019,13.44-.406.334-1.181.633-2.556.9-4.044C414.924,207.582,380.348,189.8,392.657,153.615Z" fill="#d32d41"/>
      <path id="Tracé_1724" data-name="Tracé 1724" d="M424.4,173.753c-8.122,7.379,1.246,24.582,11.769,20.157,8.437-3.547,16.708-19.356,16.708-19.356Z" fill="#554256"/>
      <path id="Tracé_1725" data-name="Tracé 1725" d="M421.337,181.054c12.314-.729,20.713.652,26.2,2.506,3.308-4.58,6.2-8.935,6.2-8.935l-29.333-.872A9.644,9.644,0,0,0,421.337,181.054Z" fill="#3f323f"/>
      <path id="Tracé_1726" data-name="Tracé 1726" d="M437.319,192.428c-9.238,3.883-17.58-8.9-13.988-17.067-6.1,7.865,2.842,23.183,12.841,18.979,6.539-2.75,12.976-12.858,15.541-17.27-.673,1.089-1.643,1.493-2.54,2.789C446,184.435,441.774,190.556,437.319,192.428Z" fill="#3f323f"/>
      <path id="Tracé_1727" data-name="Tracé 1727" d="M355.855,145.936c.091,4,29.982,13.178,36.333,14.458l.106-14.948s-12.255-3.28-22.513-3.615C362.215,141.583,355.8,143.72,355.855,145.936Z" fill="#f44556"/>
      <path id="Tracé_1728" data-name="Tracé 1728" d="M422.228,177.182c-6.143,12.618-22.767,16.823-28.55,5.735s-4.044-29.972,4.11-37.188c17.4-15.4,34.561,10.041,34.561,10.041Z" fill="#ffe7ab"/>
      <path id="Tracé_1729" data-name="Tracé 1729" d="M425.848,146.594c-5.354,3.441,1.912,10.706,4.208,9.94l9.939-1.147C444.584,144.68,431.2,143.152,425.848,146.594Z" fill="#d8324a"/>
      <path id="Tracé_1730" data-name="Tracé 1730" d="M428.526,145.449a4.306,4.306,0,0,0-.194,1.241c0,3.748,4.964,6.786,11.087,6.786.421,0,.835-.017,1.244-.044C442.553,145.853,434.167,143.9,428.526,145.449Z" fill="#f44556"/>
      <path id="Tracé_1731" data-name="Tracé 1731" d="M409.739,158.764c.341-2.7-.755-5.313-2.562-5.855-1.923-.574-3.87,1.419-4.218,4.462-.342,3.006,1.04,5.613,2.972,5.837C407.741,163.42,409.4,161.435,409.739,158.764Z" fill="#4f3d3d"/>
      <path id="Tracé_1732" data-name="Tracé 1732" d="M407.928,156.734a1.961,1.961,0,0,0-.955-2.19c-.733-.226-1.483.5-1.627,1.63s.375,2.091,1.11,2.186C407.146,158.451,407.789,157.725,407.928,156.734Z" fill="#ffe7ab"/>
      <path id="Tracé_1733" data-name="Tracé 1733" d="M430.368,149.589c-.45-1.154-1.424-1.974-2.22-1.817-.848.169-1.155,1.371-.637,2.664.513,1.276,1.591,2.033,2.367,1.722C430.606,151.867,430.809,150.729,430.368,149.589Z" fill="#af1b33"/>
      <path id="Tracé_1734" data-name="Tracé 1734" d="M432.511,154.833c-11.346,2.179-12.874,24.4-12.874,24.4.554-.036,1.073-.057,1.611-.086C422.218,172.968,425.291,159.723,432.511,154.833Z" fill="#3f323f"/>
      <path id="Tracé_1735" data-name="Tracé 1735" d="M420.687,179.232s2.169-22.77,13-24.7,24.266,8.491,24.7,35.894C458.391,190.426,456.224,176.917,420.687,179.232Z" fill="#91546b"/>
      <path id="Tracé_1736" data-name="Tracé 1736" d="M458.335,190.19c.041.147.056.236.056.236-.435-27.4-13.868-37.824-24.7-35.894-3.919.7-6.7,4.125-8.658,8.211C438.906,163.228,456.157,176.479,458.335,190.19Z" fill="#c987a2"/>
      <path id="Tracé_1737" data-name="Tracé 1737" d="M422.449,179.208a1.884,1.884,0,1,0-1.46,2.584A2.128,2.128,0,0,0,422.449,179.208Z" fill="#3f323f"/>
      <path id="Tracé_1738" data-name="Tracé 1738" d="M363.714,131.059c-1,3.871,22.845,12.522,28.58,15.534l2.823-10.8S364.718,127.188,363.714,131.059Z" fill="#f44556"/>
      <path id="Tracé_1739" data-name="Tracé 1739" d="M423.01,179.5a1.953,1.953,0,0,0,.5-2.7,2,2,0,0,0-2.77.137,1.953,1.953,0,0,0-.5,2.7A2,2,0,0,0,423.01,179.5Z" fill="#91546b"/>
      <path id="Tracé_1740" data-name="Tracé 1740" d="M439.506,157.044c.644-.641-4.181-2.242-6.05-1.687s-2.713,1.8-1.683,2.126C432.73,157.787,438.926,157.615,439.506,157.044Z" fill="#3f323f"/>
      <path id="Tracé_1741" data-name="Tracé 1741" d="M400.107,156.712c-2.24,5.4-3.114,21.2,8.4,16.3l-.078-.172C398.855,176.231,398.508,163.073,400.107,156.712Z" fill="#f44556"/>
      <path id="Tracé_1742" data-name="Tracé 1742" d="M410.692,162.968c2.568-4.271,5.3-17.473-5.019-14.795l.044.154C414.208,146.676,412.841,157.808,410.692,162.968Z" fill="#f44556"/>
      <path id="Tracé_1743" data-name="Tracé 1743" d="M374.613,282.905l4.016-17.782-.218,15.53Z" fill="#334368"/>
      <path id="Tracé_1744" data-name="Tracé 1744" d="M467.143,285.246l.43-13.335,1.955,12.927Z" fill="#334368"/>
      <path id="Tracé_1745" data-name="Tracé 1745" d="M445.634,285.1a77.846,77.846,0,0,1-12.33,29.251l6.022,6.022C446.495,305.463,445.634,285.1,445.634,285.1Z" fill="#f44556"/>
      <path id="Tracé_1746" data-name="Tracé 1746" d="M406.7,268.828a77.83,77.83,0,0,1-7.178,30.921l6.96,4.911C411.01,288.746,406.7,268.828,406.7,268.828Z" fill="#f44556"/>
      <path id="Tracé_1747" data-name="Tracé 1747" d="M456.546,284.673a77.868,77.868,0,0,1-15.8,27.534l5.246,6.71C454.924,304.986,456.546,284.673,456.546,284.673Z" fill="#f44556"/>
      <path id="Tracé_1748" data-name="Tracé 1748" d="M425.234,269.327c-5.711,24.357-17.645,40.24-17.645,40.24l6.9,8.918C424.572,298.034,425.234,269.327,425.234,269.327Z" fill="#f44556"/>
    </g>
    <g id="Groupe_4174" data-name="Groupe 4174">
      <path id="Tracé_1749" data-name="Tracé 1749" d="M793.5,547.642l-1.995.571c.854,1.9,1.8,5.227,3.515,4.56S793.5,547.642,793.5,547.642Z" fill="#a09a2b"/>
      <path id="Tracé_1750" data-name="Tracé 1750" d="M751.973,550.158c-2.142,1.425-6.707.141-1-3.427,2.595-1.624,4.563,2.855,10.981,4.282,1.149.255.287,2.994.287,2.994Z" fill="#a09a2b"/>
      <path id="Tracé_1751" data-name="Tracé 1751" d="M724.264,551.559l-5.491-5.284s-4.8,19.463-2.708,28.336l6.517-2.491S719.458,564.342,724.264,551.559Z" fill="#a09a2b"/>
      <path id="Tracé_1752" data-name="Tracé 1752" d="M788.06,534.752l-7.275-1.569s5.557,13.507,11.64,16.93l3.337-2.095S789.485,544.166,788.06,534.752Z" fill="#a09a2b"/>
      <path id="Tracé_1753" data-name="Tracé 1753" d="M668.385,624.329h79.168l-23.967-26.1s4.281-20.969,8.988-25.675l12.837-8.559,41.51-9.414L801.04,547.3s36.8-20.112,73.6-2.139l17.972-2.994,5.563.854,17.544-9.841-19.684,7.274s-36.8-.854-43.648-8.56c0,0-31.666-1.283-62.477,18.831L780.5,554.15s-23.534-.855-28.671-5.134c0,0-30.381,23.106-50.922,29.953l-11.979,16.689L685.5,606.785S670.1,615.343,668.385,624.329Z" fill="#8e573f"/>
      <path id="Tracé_1754" data-name="Tracé 1754" d="M780.5,554.15s-23.534-.855-28.671-5.134c0,0-30.381,23.106-50.922,29.953l-11.979,16.689-3.082,10.018c11.536-11.463,13.815,11.348,61.708,18.653l-20.264-26.313s.578-20.759,5.285-25.465l12.837-8.559,41.51-9.414L801.04,547.3a92.519,92.519,0,0,1,31.728-9.14,36.2,36.2,0,0,0-3.626-3.671,117.563,117.563,0,0,0-39.229,16.236Z" fill="#773e2a"/>
      <path id="Tracé_1755" data-name="Tracé 1755" d="M842.406,520.916c-1-6.277-8.131-2.568-8.131-2.568s2.533-22.635-44.362-29.669c-5.7-.856,1.144,19.971,1.144,19.971s-16.548-41.937-57.629-30.811-65.615,88.722-41.65,115.538,88.153,34.231,102.985-3.994c2.569-6.205,3.71-18.687-5.7-22.68-13.466-5.713-28.526,14.122-20.682,24.533s14.7,3.44,16.475-1.067c3.923-9.985-3.924-13.981-7.133-13.269s-3.781,5.636-1.709,6.777,2.278,4.422.784,5.708-5.136,1.283-4.995-5.708,8.773-11.982,15.262-9.129c14.542,6.392-16.811,55.52-68.465,25.39-23.964-13.979-15.845-40.192-1.713-43.933,9.7-2.567,42.51-18.829,58.484-19.4s29.382,7.418,46.784-2S842.991,524.59,842.406,520.916Z" fill="#c5d841"/>
      <g id="Groupe_4171" data-name="Groupe 4171">
        <path id="Tracé_1756" data-name="Tracé 1756" d="M792.991,586.341c-14.835,38.227-76.843,28.794-100.807,1.979-.948-1.058-3.991-.192-4.787-1.406a30.7,30.7,0,0,0,4.381,6.463c23.965,26.814,88.153,34.231,102.985-3.994,2.044-4.938,3.176-13.841-1.182-19.289C795.757,575.415,794.685,582.246,792.991,586.341Z" fill="#acb22b"/>
        <path id="Tracé_1757" data-name="Tracé 1757" d="M789.282,505.607s-.214-.647-.528-1.7c-.522-.955-1.128-2.012-1.832-3.147A47.927,47.927,0,0,1,789.282,505.607Z" fill="#acb22b"/>
        <path id="Tracé_1758" data-name="Tracé 1758" d="M833.943,514.717a20.322,20.322,0,0,0-3.216-7.152,15.61,15.61,0,0,1,1.775,7.741A10.953,10.953,0,0,1,833.943,514.717Z" fill="#acb22b"/>
        <path id="Tracé_1759" data-name="Tracé 1759" d="M774.8,581.047a2.9,2.9,0,0,0,1.178,2.607A3.823,3.823,0,0,0,774.8,581.047Z" fill="#acb22b"/>
        <path id="Tracé_1760" data-name="Tracé 1760" d="M842.406,520.916a4.146,4.146,0,0,0-1.788-3.105c.005.021,0,.043.014.063,2.862,4.613-1.405,5.971-18.807,15.384s-32.259-.264-48.233.307-49.151,16.262-58.851,18.83c-6.861,1.815-16.043,2.286-17.124,10.916-1.348,10.778,4.6,18.3,8.27,23.714-6.576-13.28,1.157-27.5,11.581-30.257,9.7-2.571,42-18.631,57.975-19.2s29.306,6.457,46.708-2.957S842.991,524.59,842.406,520.916Z" fill="#acb22b"/>
        <path id="Tracé_1761" data-name="Tracé 1761" d="M788.6,575.539a5.7,5.7,0,0,0-3.314-4.033c-6.492-2.853-15.122,2.141-15.265,9.128-.074,3.631.874,5.367,2.007,6.025a13.685,13.685,0,0,1-.233-2.982,8.9,8.9,0,0,1,1.371-4.514c-.543-1.9.383-4.77,2.776-5.3a5.776,5.776,0,0,1,3.374.517,10.633,10.633,0,0,1,7.741.172A5.81,5.81,0,0,1,788.6,575.539Z" fill="#acb22b"/>
        <path id="Tracé_1762" data-name="Tracé 1762" d="M785.705,587.257c.688-3.633-.353-6.258-1.961-7.965a11.646,11.646,0,0,1-.667,7.834c-1.745,4.439-8.418,11.253-16.105,1.535a10.235,10.235,0,0,0,1.405,2.575c3.321,4.415,6.468,5.7,9.129,5.375A37.234,37.234,0,0,0,785.705,587.257Z" fill="#acb22b"/>
      </g>
      <path id="Tracé_1763" data-name="Tracé 1763" d="M814.81,509.334c-1.647-5.452-6.631-8.684-11.139-7.221s-6.823,7.075-5.18,12.526,6.633,8.683,11.138,7.219S816.453,514.786,814.81,509.334Z" fill="#7e842a"/>
      <path id="Tracé_1764" data-name="Tracé 1764" d="M745.791,487.382c26.436,0,30.412,3.232,37.863,8.583-8.46-11.308-24.545-26.561-50.219-19.607-41.082,11.126-65.622,90.2-41.657,117.019s88.153,34.231,102.985-3.994c2.569-6.205,3.71-18.687-5.7-22.68a12.616,12.616,0,0,0-4.636-1c-2.209,3.644.986,4.366,4.2,6.2,17.739,10.137-19.706,62.222-75.72,32.567C670.62,582.094,689.806,487.382,745.791,487.382Z" fill="#d9e545"/>
      <path id="Tracé_1765" data-name="Tracé 1765" d="M826.194,523.088c2.33-2.037,6.258-3.553,11.139-4.511a34.655,34.655,0,0,1,3.644-.514c-2.387-1.959-6.7.285-6.7.285s2.334-20.944-39.225-28.8C805.873,492.153,832.47,512.222,826.194,523.088Z" fill="#d9e545"/>
      <path id="Tracé_1766" data-name="Tracé 1766" d="M702.83,568.647a19.332,19.332,0,0,1,10.645-12.642c-2.187-7.033-12.52-7.036-15.967-1.521C694.356,559.526,697.587,565.492,702.83,568.647Z" fill="#e1ed48"/>
      <path id="Tracé_1767" data-name="Tracé 1767" d="M711.885,553.06a26.816,26.816,0,0,1-7.007,6.662,28.456,28.456,0,0,1-7.372,3.641,16.864,16.864,0,0,0,6.572,7.118c1.529-6.08,5.354-11.146,10.2-13.5A6.379,6.379,0,0,0,711.885,553.06Z" fill="#acb22b"/>
      <path id="Tracé_1768" data-name="Tracé 1768" d="M771.928,522.3c-6.457-.245-11.693,4.534-11.693,10.675a10.892,10.892,0,0,0,1,4.526,60.228,60.228,0,0,1,13.995-2.16,59.029,59.029,0,0,1,8.167.645,10.485,10.485,0,0,0,.221-2.122C783.618,527.718,778.383,522.542,771.928,522.3Z" fill="#e1ed48"/>
      <path id="Tracé_1769" data-name="Tracé 1769" d="M768.5,533.164c-4.356,0-4.82-2.275-7.383-4.4-1.19,2.7-1.734,6.571-.41,9.466,5.268-1.322,10.573-2.387,14.447-2.377,2.787.008,9.023.194,11.691.57-2.471-2.09-3.311-5.248-4.406-7.441C779.882,530.978,772.7,533.164,768.5,533.164Z" fill="#acb22b"/>
      <path id="Tracé_1770" data-name="Tracé 1770" d="M814.156,507.914c-1.689-5.186-6.486-8.277-10.712-6.9s-6.281,6.688-4.591,11.875,6.487,8.278,10.713,6.906S815.847,513.1,814.156,507.914Z" fill="#d9e545"/>
      <path id="Tracé_1771" data-name="Tracé 1771" d="M814.156,507.914a11.648,11.648,0,0,0-2.272-4.044c.1,3.947-1.865,7.435-5.169,8.509-2.953.961-6.183-.268-8.439-2.861a11.834,11.834,0,0,0,.577,3.369c1.692,5.185,6.487,8.278,10.713,6.906S815.847,513.1,814.156,507.914Z" fill="#b5bf34"/>
      <path id="Tracé_1772" data-name="Tracé 1772" d="M811.266,509.323c-1.053-3.225-4.038-5.153-6.666-4.294s-3.912,4.166-2.858,7.4,4.038,5.151,6.665,4.294S812.315,512.555,811.266,509.323Z" fill="#f5f964"/>
      <path id="Tracé_1773" data-name="Tracé 1773" d="M804.611,505.351c2.545-.829,5.4.84,6.677,3.776-.006-.021-.011-.041-.017-.063-1.1-3.362-4.207-5.367-6.946-4.474s-4.07,4.345-2.975,7.709c.077.24.168.472.263.7C800.558,509.652,801.89,506.24,804.611,505.351Z" fill="#b5bf34"/>
      <path id="Tracé_1774" data-name="Tracé 1774" d="M807.822,514.248c-1.743.676-3.806-.383-4.811-2.387a.222.222,0,0,1,.013.042c.9,2.311,3.15,3.6,5.027,2.866s2.671-3.191,1.775-5.5c-.066-.163-.137-.324-.216-.476C810.48,511.088,809.685,513.525,807.822,514.248Z" fill="#b5bf34"/>
      <path id="Tracé_1775" data-name="Tracé 1775" d="M807.931,509.945a1.8,1.8,0,1,0-1.13,2.343A1.838,1.838,0,0,0,807.931,509.945Z" fill="#7e842a"/>
      <path id="Tracé_1776" data-name="Tracé 1776" d="M800.756,529.476s-11.124-12.837-12.838-27.1l2.852,4.564S794.908,522.912,800.756,529.476Z" fill="#7e842a"/>
      <path id="Tracé_1777" data-name="Tracé 1777" d="M774.019,531.44c1.868-1.085,4.663-6.892.148-6.875s-14.145,2.025-22.569-1.479-7.978,5.109-2.409,7.312S767.4,535.288,774.019,531.44Z" fill="#e1ed48"/>
      <path id="Tracé_1778" data-name="Tracé 1778" d="M774.3,530.438c-6.625,3.85-19.739-.5-25.308-2.7a6.635,6.635,0,0,1-3.731-3.683c-.636,2.01.873,5.137,3.923,6.344,5.568,2.2,19.266,5.562,25.887,1.712A.924.924,0,1,0,774.3,530.438Z" fill="#d4d835"/>
      <path id="Tracé_1779" data-name="Tracé 1779" d="M761.527,553.438c-3.706-4.565-19.967-25.389-15.831-30.241s16.261,26.389,20.684,29.954Z" fill="#e1ed48"/>
      <path id="Tracé_1780" data-name="Tracé 1780" d="M756.56,536.2c.738,3.487.562,6.053-.685,6.611-.824.368-1.991-.2-3.294-1.457,3.566,5.309,7.381,10.149,8.946,12.082l4.853-.287C764.282,551.461,760.45,543.541,756.56,536.2Z" fill="#d4d835"/>
      <path id="Tracé_1781" data-name="Tracé 1781" d="M741.629,569.345c1.578,0,1.254-3.586-1.057-6.174a10.247,10.247,0,0,0-5.334-2.643c-4.971-.942-3.82,1.972-3.82,1.972a15.267,15.267,0,0,1,6,2.379C739.477,566.465,740.2,569.339,741.629,569.345Z" fill="#d4d835"/>
      <path id="Tracé_1782" data-name="Tracé 1782" d="M768.47,563.565c1.466.586,2.484-2.875,1.286-6.135a10.32,10.32,0,0,0-3.995-4.421c-4.28-2.709-4.28.427-4.28.427a15.276,15.276,0,0,1,4.706,4.423C767.525,560.093,767.142,563.033,768.47,563.565Z" fill="#d4d835"/>
      <path id="Tracé_1783" data-name="Tracé 1783" d="M745.282,558.068c-3.853-2.936-10.957.419-13.214,1.639l1.971,1.852s4.793-3.406,8.844-.731C746.658,563.321,749.139,561.009,745.282,558.068Z" fill="#d4d835"/>
      <path id="Tracé_1784" data-name="Tracé 1784" d="M775.842,555.527c-2-4.42-9.843-4.848-12.411-4.848l.856,2.566s5.834-.717,8.129,3.569C774.557,560.8,777.837,559.951,775.842,555.527Z" fill="#d4d835"/>
      <path id="Tracé_1785" data-name="Tracé 1785" d="M800.623,546.853c-1.718-3.282-7.334-1.678-9.64-.844l1.73,2.42s4.155-2.6,6.324.376C800.642,551,802,549.479,800.623,546.853Z" fill="#a09a2b"/>
      <path id="Tracé_1786" data-name="Tracé 1786" d="M788.7,553.245c-1.834-3.2,1.948-6.493,3.643-7.741l1.147,2.713s-3.92,1.611-2.532,4.977C791.982,555.685,790.172,555.815,788.7,553.245Z" fill="#a09a2b"/>
      <path id="Tracé_1787" data-name="Tracé 1787" d="M699.85,561.454c9.088-.631,13.685-19.341,19.633-19.97,2.2-.235,3.37-8.46.537-8.587s-15.312,10.857-20.719,20.456C696.159,558.923,697.53,561.617,699.85,561.454Z" fill="#e1ed48"/>
      <path id="Tracé_1788" data-name="Tracé 1788" d="M721.212,533.719c-.212,1.994-.964,3.893-1.993,4-5.932.639-9.221,22.3-18.29,22.939-1.185.085-5.108,3.184-2.952,2.55,19.394-5.686,15.8-21.009,21.732-21.647C721.486,541.375,722.436,535.854,721.212,533.719Z" fill="#d4d835"/>
      <path id="Tracé_1789" data-name="Tracé 1789" d="M720.02,532.9c-3.029-.564-5.807,8.635-1.927,9.057s8.882,13.561,11.959,21.849l4.8-3.091C732.064,552.424,723.052,533.461,720.02,532.9Z" fill="#e1ed48"/>
      <path id="Tracé_1790" data-name="Tracé 1790" d="M725.51,540.116c1.726,6.06,1.913,11.4.576,13.591,1.481,3.443,2.85,7.089,3.966,10.1l4.8-3.091A147.572,147.572,0,0,0,725.51,540.116Z" fill="#d4d835"/>
      <path id="Tracé_1791" data-name="Tracé 1791" d="M732.733,575.145c-.848,1.4-3.8-.687-4.812-4.03a10.445,10.445,0,0,1,.579-6.044c1.866-4.874,3.787-2.392,3.787-2.392a15.708,15.708,0,0,0-1.168,6.5C731.387,571.8,733.505,573.875,732.733,575.145Z" fill="#d4d835"/>
      <g id="Groupe_4172" data-name="Groupe 4172">
        <path id="Tracé_1792" data-name="Tracé 1792" d="M819.544,531.39l-.855-.952c.617-2.709,7.769-9.267,15.612-12.766l.313.514C826.408,521.849,822.682,525.116,819.544,531.39Z" fill="#757a31"/>
      </g>
      <path id="Tracé_1793" data-name="Tracé 1793" d="M831.139,512.284c-1.008,2.016-3.9-5.322-3.326-6.081C827.813,506.2,832.375,509.815,831.139,512.284Z" fill="#7e842a"/>
      <path id="Tracé_1794" data-name="Tracé 1794" d="M703.969,500.69c9.718-12.159,24.619-24.862,41-25.282,17.3-.443,29.34,11.341,29.34,11.341C746.939,472.168,726.93,477.525,703.969,500.69Z" fill="#c5d841"/>
      <g id="Groupe_4173" data-name="Groupe 4173" opacity="0.6" style="mix-blend-mode: overlay;isolation: isolate">
        <path id="Tracé_1795" data-name="Tracé 1795" d="M771.2,510.829a.888.888,0,1,0,.887-.887A.887.887,0,0,0,771.2,510.829Z" fill="#fff"/>
        <path id="Tracé_1796" data-name="Tracé 1796" d="M754.845,519.832a.887.887,0,1,0,.885-.889A.885.885,0,0,0,754.845,519.832Z" fill="#fff"/>
        <path id="Tracé_1797" data-name="Tracé 1797" d="M777.787,501.83a.888.888,0,1,0,.887-.887A.887.887,0,0,0,777.787,501.83Z" fill="#fff"/>
        <path id="Tracé_1798" data-name="Tracé 1798" d="M788.81,528.252a.888.888,0,1,0,.889-.886A.89.89,0,0,0,788.81,528.252Z" fill="#fff"/>
        <path id="Tracé_1799" data-name="Tracé 1799" d="M808.962,498.027a.888.888,0,1,0,.887-.886A.887.887,0,0,0,808.962,498.027Z" fill="#fff"/>
        <path id="Tracé_1800" data-name="Tracé 1800" d="M820.559,510.194a.886.886,0,1,0,.883-.887A.884.884,0,0,0,820.559,510.194Z" fill="#fff"/>
        <path id="Tracé_1801" data-name="Tracé 1801" d="M830.632,523.691a.887.887,0,1,0,.888-.888A.889.889,0,0,0,830.632,523.691Z" fill="#fff"/>
        <path id="Tracé_1802" data-name="Tracé 1802" d="M764.607,519.129a.888.888,0,1,0,.889-.889A.889.889,0,0,0,764.607,519.129Z" fill="#fff"/>
        <path id="Tracé_1803" data-name="Tracé 1803" d="M794.515,499.169a.887.887,0,1,0,.885-.888A.886.886,0,0,0,794.515,499.169Z" fill="#fff"/>
        <path id="Tracé_1804" data-name="Tracé 1804" d="M785.264,516.467a.888.888,0,1,0,.886-.888A.886.886,0,0,0,785.264,516.467Z" fill="#fff"/>
        <path id="Tracé_1805" data-name="Tracé 1805" d="M815.045,521.6a.887.887,0,1,0,.887-.888A.888.888,0,0,0,815.045,521.6Z" fill="#fff"/>
        <path id="Tracé_1806" data-name="Tracé 1806" d="M804.59,527.936a.886.886,0,1,0,.888-.888A.887.887,0,0,0,804.59,527.936Z" fill="#fff"/>
        <path id="Tracé_1807" data-name="Tracé 1807" d="M795.847,535.855a.887.887,0,1,0,.885-.887A.887.887,0,0,0,795.847,535.855Z" fill="#fff"/>
        <path id="Tracé_1808" data-name="Tracé 1808" d="M794.515,515.9a.888.888,0,1,0,.885-.888A.885.885,0,0,0,794.515,515.9Z" fill="#fff"/>
        <path id="Tracé_1809" data-name="Tracé 1809" d="M812,531.673a.887.887,0,1,0,.887-.886A.887.887,0,0,0,812,531.673Z" fill="#fff"/>
        <path id="Tracé_1810" data-name="Tracé 1810" d="M743.95,498.216a.888.888,0,1,0,.889-.885A.89.89,0,0,0,743.95,498.216Z" fill="#fff"/>
        <path id="Tracé_1811" data-name="Tracé 1811" d="M728.175,499.232a.887.887,0,1,0,.886-.888A.887.887,0,0,0,728.175,499.232Z" fill="#fff"/>
        <path id="Tracé_1812" data-name="Tracé 1812" d="M740.4,486.433a.887.887,0,1,0,.887-.887A.887.887,0,0,0,740.4,486.433Z" fill="#fff"/>
        <path id="Tracé_1813" data-name="Tracé 1813" d="M728.953,487.433a.887.887,0,1,0,.884-.888A.884.884,0,0,0,728.953,487.433Z" fill="#fff"/>
        <path id="Tracé_1814" data-name="Tracé 1814" d="M770.185,491.565a.887.887,0,1,0,.885-.886A.887.887,0,0,0,770.185,491.565Z" fill="#fff"/>
        <path id="Tracé_1815" data-name="Tracé 1815" d="M759.728,497.9a.887.887,0,1,0,.889-.886A.891.891,0,0,0,759.728,497.9Z" fill="#fff"/>
        <path id="Tracé_1816" data-name="Tracé 1816" d="M760.111,483.772a.886.886,0,1,0,.887-.888A.885.885,0,0,0,760.111,483.772Z" fill="#fff"/>
        <path id="Tracé_1817" data-name="Tracé 1817" d="M750.987,505.822a.887.887,0,1,0,.884-.888A.886.886,0,0,0,750.987,505.822Z" fill="#fff"/>
        <path id="Tracé_1818" data-name="Tracé 1818" d="M740.4,516.467a.887.887,0,1,0,.887-.888A.886.886,0,0,0,740.4,516.467Z" fill="#fff"/>
        <path id="Tracé_1819" data-name="Tracé 1819" d="M749.654,485.862a.888.888,0,1,0,.889-.886A.889.889,0,0,0,749.654,485.862Z" fill="#fff"/>
        <path id="Tracé_1820" data-name="Tracé 1820" d="M735.4,507.532a.887.887,0,1,0,.886-.886A.888.888,0,0,0,735.4,507.532Z" fill="#fff"/>
        <path id="Tracé_1821" data-name="Tracé 1821" d="M764.48,506.392a.888.888,0,1,0,.89-.887A.887.887,0,0,0,764.48,506.392Z" fill="#fff"/>
        <path id="Tracé_1822" data-name="Tracé 1822" d="M731.977,541.243a.887.887,0,1,0,.887-.887A.888.888,0,0,0,731.977,541.243Z" fill="#fff"/>
        <path id="Tracé_1823" data-name="Tracé 1823" d="M740.34,528.063a.886.886,0,1,0,.887-.887A.886.886,0,0,0,740.34,528.063Z" fill="#fff"/>
        <path id="Tracé_1824" data-name="Tracé 1824" d="M743.382,536.615a.886.886,0,1,0,.887-.887A.885.885,0,0,0,743.382,536.615Z" fill="#fff"/>
        <path id="Tracé_1825" data-name="Tracé 1825" d="M732.737,517.8a.887.887,0,1,0,.885-.888A.888.888,0,0,0,732.737,517.8Z" fill="#fff"/>
        <path id="Tracé_1826" data-name="Tracé 1826" d="M722.283,524.135a.887.887,0,1,0,.887-.888A.886.886,0,0,0,722.283,524.135Z" fill="#fff"/>
        <path id="Tracé_1827" data-name="Tracé 1827" d="M717.921,500.765a.886.886,0,1,0,.886-.888A.884.884,0,0,0,717.921,500.765Z" fill="#fff"/>
        <path id="Tracé_1828" data-name="Tracé 1828" d="M722.662,510a.887.887,0,1,0,.886-.887A.886.886,0,0,0,722.662,510Z" fill="#fff"/>
        <path id="Tracé_1829" data-name="Tracé 1829" d="M705.554,504.11a.887.887,0,1,0,.885-.886A.887.887,0,0,0,705.554,504.11Z" fill="#fff"/>
        <path id="Tracé_1830" data-name="Tracé 1830" d="M714.108,532.435a.887.887,0,1,0,.886-.887A.888.888,0,0,0,714.108,532.435Z" fill="#fff"/>
        <path id="Tracé_1831" data-name="Tracé 1831" d="M704.983,539.594a.888.888,0,1,0,.887-.887A.886.886,0,0,0,704.983,539.594Z" fill="#fff"/>
        <path id="Tracé_1832" data-name="Tracé 1832" d="M695.1,546.818a.887.887,0,1,0,.888-.888A.886.886,0,0,0,695.1,546.818Z" fill="#fff"/>
        <path id="Tracé_1833" data-name="Tracé 1833" d="M691.494,566.014a.887.887,0,1,0,.886-.886A.886.886,0,0,0,691.494,566.014Z" fill="#fff"/>
        <path id="Tracé_1834" data-name="Tracé 1834" d="M696.807,574.147a.888.888,0,1,0,.887-.886A.887.887,0,0,0,696.807,574.147Z" fill="#fff"/>
        <path id="Tracé_1835" data-name="Tracé 1835" d="M702.387,597.824a.887.887,0,1,0,.885-.885A.884.884,0,0,0,702.387,597.824Z" fill="#fff"/>
        <path id="Tracé_1836" data-name="Tracé 1836" d="M717.717,603.274a.889.889,0,1,0,.891-.886A.889.889,0,0,0,717.717,603.274Z" fill="#fff"/>
        <path id="Tracé_1837" data-name="Tracé 1837" d="M694.4,590.221a.887.887,0,1,0,.888-.887A.886.886,0,0,0,694.4,590.221Z" fill="#fff"/>
        <path id="Tracé_1838" data-name="Tracé 1838" d="M723.676,610.182a.886.886,0,1,0,.886-.889A.886.886,0,0,0,723.676,610.182Z" fill="#fff"/>
        <path id="Tracé_1839" data-name="Tracé 1839" d="M737.741,611.131a.887.887,0,1,0,.889-.888A.889.889,0,0,0,737.741,611.131Z" fill="#fff"/>
        <path id="Tracé_1840" data-name="Tracé 1840" d="M752.7,613.792a.888.888,0,1,0,.887-.888A.888.888,0,0,0,752.7,613.792Z" fill="#fff"/>
        <path id="Tracé_1841" data-name="Tracé 1841" d="M764.227,609.99a.888.888,0,1,0,.886-.887A.887.887,0,0,0,764.227,609.99Z" fill="#fff"/>
        <path id="Tracé_1842" data-name="Tracé 1842" d="M777.476,607.456c.106.347.624.5,1.155.337s.881-.573.776-.919-.626-.495-1.159-.335S777.369,607.109,777.476,607.456Z" fill="#fff"/>
        <path id="Tracé_1843" data-name="Tracé 1843" d="M783.3,598.478c.178.24.637.2,1.025-.087s.555-.721.376-.959-.638-.2-1.027.088S783.123,598.237,783.3,598.478Z" fill="#fff"/>
        <path id="Tracé_1844" data-name="Tracé 1844" d="M792.937,587.19c-.075.473.143.9.486.959s.69-.282.767-.755a.785.785,0,0,0-.486-.964C793.36,586.374,793.018,586.714,792.937,587.19Z" fill="#fff"/>
        <path id="Tracé_1845" data-name="Tracé 1845" d="M790.881,593.978c-.172.451-.184.87-.027.932s.423-.26.6-.712.18-.869.024-.93S791.051,593.524,790.881,593.978Z" fill="#fff"/>
        <path id="Tracé_1846" data-name="Tracé 1846" d="M791.563,579.97c.066.475.3.838.526.8s.352-.442.288-.919-.3-.837-.525-.806S791.5,579.491,791.563,579.97Z" fill="#fff"/>
        <path id="Tracé_1847" data-name="Tracé 1847" d="M770.985,591.652c.221.428.653.644.96.484a.918.918,0,1,0-.96-.484Z" fill="#fff"/>
        <path id="Tracé_1848" data-name="Tracé 1848" d="M769.116,580.412a.784.784,0,0,0,.467.971c.345.062.7-.27.779-.742s-.123-.911-.466-.972S769.2,579.94,769.116,580.412Z" fill="#fff"/>
        <path id="Tracé_1849" data-name="Tracé 1849" d="M781.439,590.989c-.078.477.139.908.485.962s.687-.281.766-.756a.783.783,0,0,0-.486-.963C781.858,590.177,781.518,590.516,781.439,590.989Z" fill="#fff"/>
        <path id="Tracé_1850" data-name="Tracé 1850" d="M777.068,581.583a.784.784,0,0,0,.484.962c.344.055.688-.283.767-.761s-.142-.9-.487-.96S777.144,581.106,777.068,581.583Z" fill="#fff"/>
        <path id="Tracé_1851" data-name="Tracé 1851" d="M778.65,567.621c-.416.24-.621.678-.448.981a.918.918,0,1,0,.448-.981Z" fill="#fff"/>
        <path id="Tracé_1852" data-name="Tracé 1852" d="M787.533,571.658a.793.793,0,0,0-1.045.286c-.117.328.156.733.612.9a.783.783,0,0,0,1.045-.288C788.264,572.233,787.991,571.828,787.533,571.658Z" fill="#fff"/>
        <path id="Tracé_1853" data-name="Tracé 1853" d="M793.978,573.134c-.193-.44-.61-.679-.926-.532a.792.792,0,0,0-.217,1.061c.2.439.612.68.927.531A.793.793,0,0,0,793.978,573.134Z" fill="#fff"/>
        <path id="Tracé_1854" data-name="Tracé 1854" d="M782.907,581.992a.667.667,0,1,0-.061-1.074A.777.777,0,0,0,782.907,581.992Z" fill="#fff"/>
        <path id="Tracé_1855" data-name="Tracé 1855" d="M702.132,589.272a.887.887,0,1,0,.887-.887A.887.887,0,0,0,702.132,589.272Z" fill="#fff"/>
        <path id="Tracé_1856" data-name="Tracé 1856" d="M689.9,582.048a.888.888,0,1,0,.889-.888A.891.891,0,0,0,689.9,582.048Z" fill="#fff"/>
        <path id="Tracé_1857" data-name="Tracé 1857" d="M687.306,557.906a.886.886,0,1,0,.887-.885A.887.887,0,0,0,687.306,557.906Z" fill="#fff"/>
        <path id="Tracé_1858" data-name="Tracé 1858" d="M708.406,522.358a.888.888,0,1,0,.887-.885A.887.887,0,0,0,708.406,522.358Z" fill="#fff"/>
        <path id="Tracé_1859" data-name="Tracé 1859" d="M697.381,530.977a.886.886,0,1,0,.887-.886A.887.887,0,0,0,697.381,530.977Z" fill="#fff"/>
        <path id="Tracé_1860" data-name="Tracé 1860" d="M690.347,538.326a.887.887,0,1,0,.887-.886A.889.889,0,0,0,690.347,538.326Z" fill="#fff"/>
        <path id="Tracé_1861" data-name="Tracé 1861" d="M712.208,512.094a.887.887,0,1,0,.886-.888A.887.887,0,0,0,712.208,512.094Z" fill="#fff"/>
        <path id="Tracé_1862" data-name="Tracé 1862" d="M699.282,517.037a.887.887,0,1,0,.886-.89A.885.885,0,0,0,699.282,517.037Z" fill="#fff"/>
        <path id="Tracé_1863" data-name="Tracé 1863" d="M729.887,531.612a.886.886,0,1,0,.885-.889A.886.886,0,0,0,729.887,531.612Z" fill="#fff"/>
      </g>
      <path id="Tracé_1864" data-name="Tracé 1864" d="M871.8,543.274l-.952.191c7.6,3.8,13.685,12.925,16.538,18.249l3.23.186S882.447,548.6,871.8,543.274Z" fill="#8e573f"/>
    </g>
    <g id="Groupe_4175" data-name="Groupe 4175">
      <path id="Tracé_1865" data-name="Tracé 1865" d="M511.879,502.879c-35.7,62.684,1.739,97.942,33.517,111.437l5.661-13.495C482.278,576.444,511.879,502.879,511.879,502.879Z" fill="#e27a34"/>
      <path id="Tracé_1866" data-name="Tracé 1866" d="M541.477,532.042c6.926,16.56,27.861,3.05,24.813-11.315s-30.033-92.721-21.329-116.666C544.961,404.061,495.555,422.239,541.477,532.042Z" fill="#e27a34"/>
      <path id="Tracé_1867" data-name="Tracé 1867" d="M545.738,526.46c4.746,12.563,17.869,1.882,15.644-9.064s-24.534-82.449-19.428-100.918C541.954,416.478,514.257,443.132,545.738,526.46Z" fill="#c6422c"/>
      <path id="Tracé_1868" data-name="Tracé 1868" d="M587.622,386.652c10.013-2.613,28.731-1.306,43.966,36.131s43.966,121.449,8.705,118.839S587.622,386.652,587.622,386.652Z" fill="#e27a34"/>
      <path id="Tracé_1869" data-name="Tracé 1869" d="M596.481,402.475c8.071-2.021,23.038-.569,34.5,31.359s32.818,103.463,4.627,100.6S596.481,402.475,596.481,402.475Z" fill="#c6422c"/>
      <path id="Tracé_1870" data-name="Tracé 1870" d="M643.342,560.34s1.29-55.029-23.086-82.89-45.057-3.265-45.057-3.265-22.837,51.764-28.061,69.612-12.624,67.473-10.013,80.532H658.577S669.46,593.423,643.342,560.34Z" fill="#ffd16c"/>
      <path id="Tracé_1871" data-name="Tracé 1871" d="M643.342,560.34s2.611-59.2-21.766-87.063-47.883-3.918-47.883-3.918-21.331,56.59-26.555,74.438-12.624,67.473-10.013,80.532H580.1c-4.816-62.095,12.249-132.649,42.224-124.243,21.067,5.907,23.432,50.008,15.07,99.063a195.82,195.82,0,0,1-5.99,25.18h27.175S669.46,593.423,643.342,560.34Z" fill="#ffb852"/>
      <path id="Tracé_1872" data-name="Tracé 1872" d="M583.379,624.329h15.345L596.2,503.569l-26.772,20.242Z" fill="#ffb852"/>
      <path id="Tracé_1873" data-name="Tracé 1873" d="M628.742,624.329h8.83l.313-86.153-22.7-18.678Z" fill="#ffb852"/>
      <path id="Tracé_1874" data-name="Tracé 1874" d="M555.846,624.329H515.361s-11.864-7.477-5.77-16.621,34.689-4.908,39.817-.319C555.611,612.939,555.846,624.329,555.846,624.329Z" fill="#ffd16c"/>
      <path id="Tracé_1875" data-name="Tracé 1875" d="M546.269,538.574c-13.061,5.223-19.589,54.849-19.155,71.824l6.094,13.931h30.907S559.326,533.35,546.269,538.574Z" fill="#ffd16c"/>
      <path id="Tracé_1876" data-name="Tracé 1876" d="M558.822,601.424a125.116,125.116,0,0,1,1.154,22.9h5.755s-6.528-92.9-19.587-87.676c-4.348,1.74-7.844,10.335-10.73,19.075C544.7,554.662,555.159,575.033,558.822,601.424Z" fill="#ffb852"/>
      <path id="Tracé_1877" data-name="Tracé 1877" d="M685.55,602.737c-35.843-4.337-46.36,21.592-46.36,21.592h47.742S695.227,603.908,685.55,602.737Z" fill="#ffd16c"/>
      <path id="Tracé_1878" data-name="Tracé 1878" d="M684.929,612.522c-13.509.6-24.622-2.574-24.821-7.079,0-.031.011-.061.011-.09a50.89,50.89,0,0,0-23.432,18.976h50.245a52.462,52.462,0,0,0,3.187-12.222C688.448,612.3,686.716,612.445,684.929,612.522Z" fill="#ffb852"/>
      <path id="Tracé_1879" data-name="Tracé 1879" d="M631.588,449.336c-6.967-37.872-21.766-71.392-63.119-60.943s-31.777,53.759-19.7,78.9c5.334,4.027,16,8.164,17.087,23.105l62.248-1.884C618.094,468.489,631.588,449.336,631.588,449.336Z" fill="#ffd16c"/>
      <path id="Tracé_1880" data-name="Tracé 1880" d="M631.588,449.336c-6.762.363-22.682-18.127-40.554-15.309-12.242,1.933-36.074,34.117-42.154,33.35,5.6,3.644,15.686,11.463,16.6,24.038l63.694-2.429C620.613,471.856,628.912,453.746,631.588,449.336Z" fill="#ffb852"/>
      <path id="Tracé_1881" data-name="Tracé 1881" d="M603,431.811s-3.707,7.971-11.717,10.722c-4,1.376-9.531.424-15.308-1.429,0,0,8.444,12.475,20.284,8.6S603,431.811,603,431.811Z" fill="#e27a34"/>
      <path id="Tracé_1882" data-name="Tracé 1882" d="M583.2,460.147c2.944,3.643,14.957,11.661,20.726,7.179s12.308-14.442,8-24.809-19.484,4.631-19.484,4.631Z" fill="#513935"/>
      <path id="Tracé_1883" data-name="Tracé 1883" d="M604.239,460.319c-4.484,2.675-12.332,1.648-18.732-.193l-.6.922c2.944,2.893,14.511,8.88,19.523,4.661a21.911,21.911,0,0,0,7.13-11.485A29.981,29.981,0,0,1,604.239,460.319Z" fill="#fff2d2"/>
      <path id="Tracé_1884" data-name="Tracé 1884" d="M577.828,431.38c-7.836,3.591-18.951,12.769-17.644,27.786,0,0,12.175,7.632,21,5.225,7.185-1.959,14.274-21.259,14.274-21.259Z" fill="#ffe18d"/>
      <path id="Tracé_1885" data-name="Tracé 1885" d="M590.756,440c-2.386,6.066-8.912,12.278-17.813,16.136a41.4,41.4,0,0,1-12.286,3.272c3.241,1.616,14.113,7.524,21.886,4.414,7.618-3.046,12.916-20.689,12.916-20.689Z" fill="#ffcf7b"/>
      <path id="Tracé_1886" data-name="Tracé 1886" d="M593.31,425.468c7.831-3.6,21.535-1.708,31.679,10.029,0,0,.645,20.8-8.456,19.86s-23.285-12.542-23.285-12.542Z" fill="#ffe18d"/>
      <path id="Tracé_1887" data-name="Tracé 1887" d="M607.517,442.723a46.52,46.52,0,0,1-14.252-4.415l-.017,4.507s14.185,11.605,23.285,12.542c5.647.581,7.541-7.2,8.165-13.2A44.434,44.434,0,0,1,607.517,442.723Z" fill="#ffcf7b"/>
      <path id="Tracé_1888" data-name="Tracé 1888" d="M602.408,409.334c-1.7-3.564-4.786-5.639-6.772-4.594-1.9,1-2,4.459-.358,7.7,1.611,3.156,3.632,3.782,5.565,3.064C602.868,414.747,604.063,412.81,602.408,409.334Z" fill="#513935"/>
      <path id="Tracé_1889" data-name="Tracé 1889" d="M563.348,426.853c-1.876-3.939-5.145-6.2-7.3-5.068s-2.383,5.263-.508,9.2,4.237,4.528,6.392,3.39S565.223,430.794,563.348,426.853Z" fill="#513935"/>
      <path id="Tracé_1890" data-name="Tracé 1890" d="M594.958,442.8c-2.638,1.216-21.265-5.437-20.4-10.442s18.479-14.111,23.509-8.488C601.769,428.006,597.787,441.494,594.958,442.8Z" fill="#6b4a43"/>
      <path id="Tracé_1891" data-name="Tracé 1891" d="M577.5,624.329h15.346l-.536-92.9-23.34,19.481Z" fill="#ffe18d"/>
      <path id="Tracé_1892" data-name="Tracé 1892" d="M592.215,540.552c.048.005.1.016.147.023l.359-21.552c-5.481-12.906-27.234-2.97-24.868,31.069.683,9.791,5.661,39.926,5.661,39.926C575.688,561.916,583.835,540.065,592.215,540.552Z" fill="#ffd16c"/>
      <path id="Tracé_1893" data-name="Tracé 1893" d="M655.095,624.329H638.1l-23.4-107.049c10.142,3.546,17.231,6.582,26.9,9.976Z" fill="#ffe18d"/>
      <path id="Tracé_1894" data-name="Tracé 1894" d="M587.948,624.329h21.221s-3.917-11.1-16.087-11.448C585.01,612.649,587.948,624.329,587.948,624.329Z" fill="#ffe18d"/>
      <path id="Tracé_1895" data-name="Tracé 1895" d="M571.69,624.329h21.221s-2.017-9.2-14.126-9.489C570.75,614.647,571.69,624.329,571.69,624.329Z" fill="#ffe18d"/>
      <path id="Tracé_1896" data-name="Tracé 1896" d="M665.167,624.329H644.746s1.941-9.2,13.594-9.489C666.073,614.647,665.167,624.329,665.167,624.329Z" fill="#ffe18d"/>
      <path id="Tracé_1897" data-name="Tracé 1897" d="M630.372,624.329h21.221s-2.022-9.2-14.129-9.489C629.43,614.647,630.372,624.329,630.372,624.329Z" fill="#ffe18d"/>
      <path id="Tracé_1898" data-name="Tracé 1898" d="M646.514,562.595,641.6,527.256c-6.873-33.263-30.6-28.691-26.9-9.976l3.87,17.71C626.547,534.123,637.442,545.244,646.514,562.595Z" fill="#ffd16c"/>
      <path id="Tracé_1899" data-name="Tracé 1899" d="M586.687,432.023a35.925,35.925,0,0,1-11.552,2.344c3.118,4.589,17.526,9.491,19.823,8.434,2.652-1.226,6.316-13.152,3.719-18.048A33.221,33.221,0,0,1,586.687,432.023Z" fill="#4f322d"/>
      <path id="Tracé_1900" data-name="Tracé 1900" d="M589.59,439.929c.872-.327-2.711-5.422-6.325-5.938s-4.142,1.279-2.836,2.452C581.719,437.6,588.557,440.316,589.59,439.929Z" fill="#35201d"/>
      <path id="Tracé_1901" data-name="Tracé 1901" d="M594.518,439.206c-.829.478-2.331-5.638-.314-8.827s3.741-2.452,3.768-.662C598,431.485,595.5,438.64,594.518,439.206Z" fill="#35201d"/>
      <path id="Tracé_1902" data-name="Tracé 1902" d="M549.809,425.891c.589,6.494-7.008,6.737-6.523-2.616S553.7,406.019,558.9,406.436s1.937,6.988-2.188,7.211S549.035,417.366,549.809,425.891Z" fill="#ffb852"/>
      <path id="Tracé_1903" data-name="Tracé 1903" d="M588.761,402.317c-5.074,3.655-9.284-3.98-1.272-7.882s19.8,2.514,22.2,8.012-4.772,5.258-7.131,1.156S595.421,397.521,588.761,402.317Z" fill="#ffb852"/>
      <path id="Tracé_1904" data-name="Tracé 1904" d="M590.318,461.294s3.875,15.918,9.806,14.884c7.425-1.3,8.368-20.715,8.368-20.715S596.948,454.511,590.318,461.294Z" fill="#f45e4e"/>
      <path id="Tracé_1905" data-name="Tracé 1905" d="M560.652,608.226c-4.092,10.724-22.959,16.2-42.827,12.252a63.934,63.934,0,0,1-8.458-2.286,24.155,24.155,0,0,0,7.522,6.137h50.8S567.41,614,560.652,608.226Z" fill="#ffb852"/>
      <path id="Tracé_1906" data-name="Tracé 1906" d="M577.485,624.329h5.007s-1.523-4.354-2.937-4.571S577.485,624.329,577.485,624.329Z" fill="#bf6767"/>
      <path id="Tracé_1907" data-name="Tracé 1907" d="M589.131,624.329h5.006s-1.525-4.354-2.938-4.571S589.131,624.329,589.131,624.329Z" fill="#bf6767"/>
      <path id="Tracé_1908" data-name="Tracé 1908" d="M600.124,624.329h5.005s-3.075-4.044-4.568-4.245S600.124,624.329,600.124,624.329Z" fill="#bf6767"/>
      <path id="Tracé_1909" data-name="Tracé 1909" d="M636.035,624.329h4.73s-1.44-4.354-2.777-4.571S636.035,624.329,636.035,624.329Z" fill="#bf6767"/>
      <path id="Tracé_1910" data-name="Tracé 1910" d="M647.038,624.329h4.73s-1.439-4.354-2.775-4.571S647.038,624.329,647.038,624.329Z" fill="#bf6767"/>
      <path id="Tracé_1911" data-name="Tracé 1911" d="M657.423,624.329h4.729s-2.906-4.044-4.315-4.245S657.423,624.329,657.423,624.329Z" fill="#bf6767"/>
      <path id="Tracé_1912" data-name="Tracé 1912" d="M596.109,424.435c-.342-.9-2.466-.926-4.742-.058s-3.841,2.3-3.5,3.2,2.466.924,4.741.057S596.451,425.333,596.109,424.435Z" fill="#fffbf6" opacity="0.7" style="mix-blend-mode: overlay;isolation: isolate"/>
      <path id="Tracé_1913" data-name="Tracé 1913" d="M584.425,429.36c-.276-.372-1.046-.269-1.715.233s-.991,1.211-.711,1.585,1.046.269,1.717-.231S584.705,429.734,584.425,429.36Z" fill="#fffbf6" opacity="0.7" style="mix-blend-mode: overlay;isolation: isolate"/>
    </g>
    <g id="Groupe_4177" data-name="Groupe 4177">
      <path id="Tracé_1914" data-name="Tracé 1914" d="M340.373,504.436c11.4.6,20.484-1.1,17.04-10.921-5.055-14.405-18.534,6.194-18.534,6.194Z" fill="#ff9f50"/>
      <path id="Tracé_1915" data-name="Tracé 1915" d="M342.783,400.845c7.688,8.7-1.743,17.409-7.255,20.6l-13.2-12.911C323.2,407.084,335.1,392.141,342.783,400.845Z" fill="#ffb95c"/>
      <path id="Tracé_1916" data-name="Tracé 1916" d="M340.49,403.185c5.553,6.286-1.257,12.574-5.237,14.878-2.492-4.628-4.8-7.6-9.537-9.325C326.345,407.69,334.937,396.9,340.49,403.185Z" fill="#ff8040"/>
      <path id="Tracé_1917" data-name="Tracé 1917" d="M297.557,400.055c-7.968,7.147-.272,16.83,4.5,20.808l14.634-9.976C316.015,409.294,306.041,392.443,297.557,400.055Z" fill="#ffb95c"/>
      <path id="Tracé_1918" data-name="Tracé 1918" d="M298.6,402.961c-5.854,5.158-.229,12.209,3.253,15.086l10.5-7.259C311.865,409.646,304.722,397.563,298.6,402.961Z" fill="#ff8040"/>
      <path id="Tracé_1919" data-name="Tracé 1919" d="M291.217,502.486l3.065,2.37H279.6S276.089,500.166,291.217,502.486Z" fill="#ff9f50"/>
      <path id="Tracé_1920" data-name="Tracé 1920" d="M296.239,463.467c20.283,6.251,23.144,34.491,22.088,41.389H288.158C273.964,480.52,290.022,461.551,296.239,463.467Z" fill="#ffb95c"/>
      <path id="Tracé_1921" data-name="Tracé 1921" d="M289.06,484.4c0-6.257-.966-11.672-2.373-14.3,3.063-4.858,7.084-7.392,9.552-6.632,20.283,6.251,23.144,34.491,22.088,41.389H288.158a46.959,46.959,0,0,1-2.462-4.834C287.619,498.428,289.06,492.043,289.06,484.4Z" fill="#ff9f50"/>
      <path id="Tracé_1922" data-name="Tracé 1922" d="M338.285,504.856c4.932-8.992,19.15-44.1-2.9-72.532s-46.421,22.34-46.421,38.008,6.371,34.524,20.31,34.524Z" fill="#ff9f50"/>
      <path id="Tracé_1923" data-name="Tracé 1923" d="M293.751,457.9c5.077-19.584,28.434-17.7,32.785-13.492,15.14,14.637,2.756,47.292-1.031,60.444h-16.52C293.176,498.137,288.675,477.487,293.751,457.9Z" fill="#ffeac5"/>
      <path id="Tracé_1924" data-name="Tracé 1924" d="M325.957,481.43c-5.585-14.332-17.2-23.192-25.929-19.787-4.421,1.722-7.254,6.26-8.253,12.179a60.509,60.509,0,0,1,1.976-15.918c5.077-19.584,28.434-17.7,32.785-13.492,11.848,11.453,6.841,33.939,2.288,49.482A42.808,42.808,0,0,0,325.957,481.43Z" fill="#ffd58a"/>
      <path id="Tracé_1925" data-name="Tracé 1925" d="M294.729,450.506l4.318,21.582-1.173-.019s-6.46-5.384-8.287-7.354C287.778,462.762,286.665,451.669,294.729,450.506Z" fill="#ffb95c"/>
      <path id="Tracé_1926" data-name="Tracé 1926" d="M291.359,482.009c5.056-9.393,12.5-13.752,18.191-11.292s6.212,12.07,1.153,21.464-13.109,13.329-19.472,12.55C287.432,500.581,286.3,491.4,291.359,482.009Z" fill="#b24a3f"/>
      <path id="Tracé_1927" data-name="Tracé 1927" d="M291.669,482.768c1.97-3.508,3.419-6.289,5.914-8.593,2.151-2.6,8.235-2.236,9.851-1.135,8.4,5.722-8.635,26.694-16.342,31.574C287.413,500.885,286.276,492.353,291.669,482.768Z" fill="#993730"/>
      <path id="Tracé_1928" data-name="Tracé 1928" d="M291.359,482.009a29.943,29.943,0,0,1,5.826-7.768,6.86,6.86,0,0,1,5.147.712c7.74,5.243-3.72,24.245-11.2,29.661C287.413,500.411,286.344,491.316,291.359,482.009Z" fill="#bf5b4b"/>
      <path id="Tracé_1929" data-name="Tracé 1929" d="M314.134,484.379c1.845.223,5.511-8.994-2.516-14.217s-15.474.387-13.152,2.225c1.2.95,4.576-.865,10.25,3.579C314.52,480.511,312.965,484.239,314.134,484.379Z" fill="#542f29"/>
      <path id="Tracé_1930" data-name="Tracé 1930" d="M304.242,471.978c5.072.532,9.242,1.616,9.565-.014,5.066,5.29,1.976,12.614.327,12.415-1.169-.14.386-3.868-5.418-8.413-5.674-4.444-9.05-2.629-10.25-3.579a1.046,1.046,0,0,1-.423-.936C299.673,471.645,301.844,471.727,304.242,471.978Z" fill="#472622"/>
      <path id="Tracé_1931" data-name="Tracé 1931" d="M310.346,465.8l1.561-1.633c2.014,1.444,2.64,4.123-.385,7.382l-.5-.267S313.723,467.365,310.346,465.8Z" fill="#542f29"/>
      <path id="Tracé_1932" data-name="Tracé 1932" d="M334.434,448.3,312.05,470.347l1.152.848s14.039-3.3,22.918-1.634L342.8,460.1S339.834,445.567,334.434,448.3Z" fill="#ffb95c"/>
      <path id="Tracé_1933" data-name="Tracé 1933" d="M339.3,460.435c-1.485-3.9-7.884-4.686-15.083-2.08L334.434,448.3c6.472-5.537,9.847,11.192,9.847,11.192l-8.161,10.073c-.032-.006-.065-.009-.1-.015C338.93,466.373,340.281,463,339.3,460.435Z" fill="#ff9f50"/>
      <path id="Tracé_1934" data-name="Tracé 1934" d="M343.992,463.079c17.034,6.308,5.416,34.814.775,41.777H314.4C312.851,480.293,338.77,461.145,343.992,463.079Z" fill="#ffd685"/>
      <path id="Tracé_1935" data-name="Tracé 1935" d="M338.2,496.162c7.375-12.455,9.1-25.066,3.866-28.17s-15.465,4.48-22.839,16.934q-.968,1.631-1.8,3.259c6.769-15.93,22.606-26.573,26.565-25.106,17.034,6.308,5.416,34.814.775,41.777H331.939A58.347,58.347,0,0,0,338.2,496.162Z" fill="#ffb95c"/>
      <path id="Tracé_1936" data-name="Tracé 1936" d="M305.791,448.427s-10.5,7.358-14.779,3.784a7.06,7.06,0,0,1,3.477-1.637c8.451-18.736,25.257-38.416,40.9-18.25a56.142,56.142,0,0,1,7.734,13.406C336.158,462.208,309.091,458.186,305.791,448.427Z" fill="#b23841" opacity="0.5" style="mix-blend-mode: multiply;isolation: isolate"/>
      <path id="Tracé_1937" data-name="Tracé 1937" d="M306.081,446.348c4.063,3.093,16.636,17.02,29.787,1.16s-7.35-40.424-14.892-39.264a38.041,38.041,0,0,0-29.206,25.529c-1.965,5.891-2.2,14.214,0,16.056C296.041,453.413,306.081,446.348,306.081,446.348Z" fill="#ffd685"/>
      <g id="Groupe_4176" data-name="Groupe 4176">
        <path id="Tracé_1938" data-name="Tracé 1938" d="M303.471,446.348c.328.252.711.572,1.148.941-2.436,1.483-7.4,4.127-10.895,3.439C298.24,450.027,303.471,446.348,303.471,446.348Z" fill="#ffb95c"/>
        <path id="Tracé_1939" data-name="Tracé 1939" d="M333.258,447.508c12.208-14.723-4.581-36.942-13.086-39.125.276-.053.544-.1.8-.139,7.542-1.16,28.044,23.4,14.892,39.264-5.088,6.138-10.089,7.813-14.544,7.385C325.083,454.518,329.143,452.472,333.258,447.508Z" fill="#ffb95c"/>
      </g>
      <path id="Tracé_1940" data-name="Tracé 1940" d="M304.341,440.06c3.144,2.062,10.315,3.676,14.216,3.676,11.6,0,17.83-8.342,18.121-21.321,4.055,7.825,5.516,17.466-.81,25.093-13.151,15.86-25.724,1.933-29.787-1.16,0,0-10.04,7.065-14.311,3.481-.908-.762-3.193-5.8-1.17-11.123C294.536,442.466,296.894,441.511,304.341,440.06Z" fill="#ffb95c"/>
      <path id="Tracé_1941" data-name="Tracé 1941" d="M326.729,504.856H307.643C304.309,499.9,318.605,497.879,326.729,504.856Z" fill="#ffb95c"/>
      <path id="Tracé_1942" data-name="Tracé 1942" d="M321.982,504.856H307.625C305.118,501.129,315.872,499.607,321.982,504.856Z" fill="#ffd685"/>
      <path id="Tracé_1943" data-name="Tracé 1943" d="M300.409,441.766c-4.753,1.868-8.9.583-8.62-3.192.28-3.857,5.111-11.14,9.961-12.2,4.245-.93,6.886,4.043,6.519,7.122C307.912,436.519,304.589,440.125,300.409,441.766Z" fill="#ffeac5"/>
      <path id="Tracé_1944" data-name="Tracé 1944" d="M298.248,436.822c4.026-2.943,6.258-6.945,4.5-9.354a3.4,3.4,0,0,0-1.233-1.034c.081-.02.16-.046.239-.062,4.245-.93,6.886,4.043,6.519,7.122-.357,3.025-3.68,6.631-7.86,8.272-4.247,1.67-8,.814-8.554-2.083C293.9,439.676,295.983,438.478,298.248,436.822Z" fill="#ffdfab"/>
      <path id="Tracé_1945" data-name="Tracé 1945" d="M308.821,442.414c-3.126-1.553-6.043-2.74-7.092-4.867-1.182-2.394-.174-5.737,2.118-7.531,4.426-3.463,13.5-2.471,19.374,1.713,5.14,3.664,5.84,8.461,2.17,11.072C321.785,445.367,314.666,445.31,308.821,442.414Z" fill="#ffeac5"/>
      <path id="Tracé_1946" data-name="Tracé 1946" d="M303.847,430.016c12.2-9.543,4.484.929,4.555,3.687.127,4.806,5.3,10.324,12.088,10.324a17.087,17.087,0,0,0,3.179-.305c-3.867,1.567-9.824,1.182-14.848-1.308-3.126-1.553-6.043-2.74-7.092-4.867C300.547,435.153,301.555,431.81,303.847,430.016Z" fill="#ffdfab"/>
      <path id="Tracé_1947" data-name="Tracé 1947" d="M303.36,433.535l.274.271a20.993,20.993,0,0,0,1.484,6.775l-1.147-.235S302.938,435.617,303.36,433.535Z" fill="#513229"/>
      <path id="Tracé_1948" data-name="Tracé 1948" d="M309.368,442.672s-6.488-3.18-8.428-.864a2.766,2.766,0,0,1,2.739-2.185C305.983,439.524,309.368,442.672,309.368,442.672Z" fill="#513229"/>
      <path id="Tracé_1949" data-name="Tracé 1949" d="M302.407,418.107c3.8-3.2,13.771-7.588,15.812-5.964,2.091,1.666-6.371,10.314-10.463,13.536-3.941,3.105-8.4,4.136-10.064,2.44C296.071,426.461,298.739,421.191,302.407,418.107Z" fill="#ffeac5"/>
      <path id="Tracé_1950" data-name="Tracé 1950" d="M310,425.8c-1.165-5.192,3.478-13.388,7.819-13.866s8.8,3.343,9.97,8.534-1.408,9.786-5.748,10.263S311.164,430.986,310,425.8Z" fill="#ffeac5"/>
      <path id="Tracé_1951" data-name="Tracé 1951" d="M318.575,424.643a1.075,1.075,0,0,1,1.074-.971.943.943,0,0,1,.687,1.188,1.08,1.08,0,0,1-1.076.973A.942.942,0,0,1,318.575,424.643Z" fill="#513830"/>
      <path id="Tracé_1952" data-name="Tracé 1952" d="M316.4,415.551c-1.863,11.8-4.931,13.3-6.838,14.79l-10.011-1.064S318.265,403.753,316.4,415.551Z" fill="#ffeac5"/>
      <path id="Tracé_1953" data-name="Tracé 1953" d="M314.2,422.363c.851.865-3.745,6.831-4.449,7.928l-4.8-1.567C309.814,427.939,314.2,422.363,314.2,422.363Z" fill="#ffdfab"/>
      <path id="Tracé_1954" data-name="Tracé 1954" d="M310.01,429.2c.7,1.541-3.945,5.691-6.376,5.691-.968,0-5.192-4.528-4.758-5.687S309.285,427.6,310.01,429.2Z" fill="#513229"/>
      <path id="Tracé_1955" data-name="Tracé 1955" d="M298.2,472.341a1.546,1.546,0,0,1-.8-1.843,5.29,5.29,0,0,1,1.67-2.084,1.138,1.138,0,0,1,1.033.193Z" fill="#ffb95c"/>
      <path id="Tracé_1956" data-name="Tracé 1956" d="M309.54,468.9a1.535,1.535,0,0,1,1.938-.633c.413.157,1.9,1.49,1.945,1.936a1.164,1.164,0,0,1-.287,1.034Z" fill="#ffb95c"/>
      <path id="Tracé_1957" data-name="Tracé 1957" d="M310.869,469.231c-.712.284-2.528,1.42-2.892,1.093-.722-.643,1.416-1.773,2.137-1.907S310.869,469.231,310.869,469.231Z" fill="#ffb95c"/>
      <path id="Tracé_1958" data-name="Tracé 1958" d="M299.082,468.416c.728-.107,2.662-.78,2.959-.381.594.786-1.651,1.374-2.366,1.336S299.082,468.416,299.082,468.416Z" fill="#ffb95c"/>
      <path id="Tracé_1959" data-name="Tracé 1959" d="M298.872,469.778c.7.263,2.746.627,2.824,1.11.157.96-2.124.378-2.742,0S298.872,469.778,298.872,469.778Z" fill="#ffb95c"/>
      <path id="Tracé_1960" data-name="Tracé 1960" d="M312.019,469.789c-.605.475-2.03,2.076-2.474,1.875-.88-.4.854-2.091,1.513-2.428S312.019,469.789,312.019,469.789Z" fill="#ffb95c"/>
      <path id="Tracé_1961" data-name="Tracé 1961" d="M298.143,471.058c.6.461,2.47,1.418,2.4,1.894-.138.947-2.16-.286-2.649-.828S298.143,471.058,298.143,471.058Z" fill="#ffb95c"/>
      <path id="Tracé_1962" data-name="Tracé 1962" d="M313.6,470.839c-.6.476-2.021,2.075-2.463,1.874-.877-.4.851-2.085,1.5-2.424S313.6,470.839,313.6,470.839Z" fill="#ffb95c"/>
      <path id="Tracé_1963" data-name="Tracé 1963" d="M291.857,482.7c.314-.58.638-1.133.968-1.671a18.9,18.9,0,0,1,2.474,12.3,19.531,19.531,0,0,1-3.863,9.979C288.181,499.33,287.328,491.112,291.857,482.7Z" fill="#d1756b"/>
      <path id="Tracé_1964" data-name="Tracé 1964" d="M300.793,442.2c-.18-1.105,2.136-1.6,4.8-1.129,2.318.415,3.945,1.417,3.9,2.252-.042.8-1.62,1.3-3.75,1.121C303.321,444.246,300.965,443.249,300.793,442.2Z" fill="#ffdfab"/>
      <path id="Tracé_1965" data-name="Tracé 1965" d="M309.019,442.786c0-.289.17-.524.381-.524s.38.235.38.524-.17.528-.38.528S309.019,443.078,309.019,442.786Z" fill="#513229"/>
      <path id="Tracé_1966" data-name="Tracé 1966" d="M300.606,441.646c0-.293.169-.527.38-.527s.382.234.382.527-.172.525-.382.525S300.606,441.935,300.606,441.646Z" fill="#513229"/>
      <path id="Tracé_1967" data-name="Tracé 1967" d="M309.78,428.928a17.734,17.734,0,0,1-7.942,1.512c-.935,0-1.834-.049-2.685-.134a1.6,1.6,0,0,1-.277-1.107C299.286,428.109,308.115,427.655,309.78,428.928Z" fill="#684436"/>
      <path id="Tracé_1968" data-name="Tracé 1968" d="M304.559,433.7c1.305-.219,5.208-3.54,2.967-3.319C303.1,430.818,304.559,433.7,304.559,433.7Z" fill="#351e19"/>
      <path id="Tracé_1969" data-name="Tracé 1969" d="M302.549,433.5c-.837-.23-3.4-3.114-2.1-2.748A2.858,2.858,0,0,1,302.549,433.5Z" fill="#351e19"/>
      <path id="Tracé_1970" data-name="Tracé 1970" d="M293.98,480.742a3.318,3.318,0,0,1,1.145-2.6c1-.691,1.9.22,1.64,1.97-.22,1.458-1.13,2.349-1.847,2.241C294.369,482.269,293.995,481.587,293.98,480.742Z" fill="#d1756b"/>
      <path id="Tracé_1971" data-name="Tracé 1971" d="M303.859,424.262a1.086,1.086,0,0,1,1.127-.887.652.652,0,0,1,.448.982,1.124,1.124,0,0,1-.967.679A.616.616,0,0,1,303.859,424.262Z" fill="#513830"/>
    </g>
    <g id="Groupe_4185" data-name="Groupe 4185">
      <path id="Tracé_1972" data-name="Tracé 1972" d="M479.226,453.6l-5.511,3.775,7.6.382Z" fill="#d6ae85"/>
      <path id="Tracé_1973" data-name="Tracé 1973" d="M487.267,454.17l-5.88,3.176,7.517,1.185Z" fill="#d6ae85"/>
      <path id="Tracé_1974" data-name="Tracé 1974" d="M465.815,452.8l-1.569,4.509,7.451-.2Z" fill="#d6ae85"/>
      <path id="Tracé_1975" data-name="Tracé 1975" d="M425.329,518.071s11.845,1.482,20.193,9.957l-3.978-15.3Z" fill="#a56b55"/>
      <path id="Tracé_1976" data-name="Tracé 1976" d="M501.631,520.31s10.807-5.066,22.391-2.352l-11.527-10.821Z" fill="#a56b55"/>
      <path id="Tracé_1977" data-name="Tracé 1977" d="M496.588,523.36a18.385,18.385,0,0,1,15.485,1.176l-7.446-12.544Z" fill="#a56b55"/>
      <path id="Tracé_1978" data-name="Tracé 1978" d="M512.3,624.329H482.134s8.27-83.178,15.676-72.02C515.348,578.734,512.3,624.329,512.3,624.329Z" fill="#a56b55"/>
      <path id="Tracé_1979" data-name="Tracé 1979" d="M517.459,615.45c-4.315-.948-7.022,2.5-8.06,5.519l1,3.36h8.253C521.848,621.484,521.778,616.4,517.459,615.45Z" fill="#ba8867"/>
      <path id="Tracé_1980" data-name="Tracé 1980" d="M425.381,613.058c-18.815,6.466-33.222-4.411-32.635-17.935s7.939-53.806-10.29-54.394-19.111,47.924-4.41,69.093,43.515,10.289,49.689,7.059Z" fill="#ba8867"/>
      <path id="Tracé_1981" data-name="Tracé 1981" d="M425.381,613.058c-18.815,6.466-33.222-4.411-32.635-17.935.357-8.162,3.165-26.057,1.337-39.1-.449,5.389-1.159,11.108-2.153,17.019-2.732,16.242-6.994,30.474-11.5,39.779,15.228,17.055,41.449,7.13,47.307,4.063Z" fill="#a56b55"/>
      <path id="Tracé_1982" data-name="Tracé 1982" d="M423.618,624.329h85.855s-23.13-86.245-6.668-108.984L443.22,512.6S401.272,565.525,423.618,624.329Z" fill="#ba8867"/>
      <path id="Tracé_1983" data-name="Tracé 1983" d="M497.288,560.639c.551,21,5.68,63.69,5.68,63.69h-8.317s-15.725-43.513-11.668-63.194C484.391,554.3,496.776,541.128,497.288,560.639Z" fill="#a56b55"/>
      <path id="Tracé_1984" data-name="Tracé 1984" d="M496.9,544.788c-.1-12.484,1.454-23.29,5.908-29.443L443.22,512.6s-41.948,52.922-19.6,111.726h32.121C417.9,507.484,489.065,520.478,496.9,544.788Z" fill="#a56b55"/>
      <path id="Tracé_1985" data-name="Tracé 1985" d="M524.957,436.941s1.281,18.553-5.566,35.212l-29.912-14.631S520.617,434.1,524.957,436.941Z" fill="#d6ae85"/>
      <path id="Tracé_1986" data-name="Tracé 1986" d="M521.952,441.44s.871,12.629-3.792,23.969L497.8,455.455S518.994,439.5,521.952,441.44Z" fill="#f7d5b7"/>
      <path id="Tracé_1987" data-name="Tracé 1987" d="M423.424,438.119S424.8,458.5,434.6,473.794l28.816-16.27S427.345,434.592,423.424,438.119Z" fill="#d6ae85"/>
      <path id="Tracé_1988" data-name="Tracé 1988" d="M427.6,442.8s1.093,16.228,8.9,28.4l22.941-12.954S430.718,439.985,427.6,442.8Z" fill="#f7d5b7"/>
      <path id="Tracé_1989" data-name="Tracé 1989" d="M412.249,505.936s38.223,19.8,68.6,16.859S535.541,502.8,535.541,502.8l-4.7-4.9,8.428-1.765-3.919-3.922,6.859-1.174s-25.1-35.055-53.708-34.3c-7.448.2-25.087-1.177-28.225.39s-26.854,8.429-35.086,16.467l8.037,3.526s-15.486,2.744-20.191,4.511c0,0,9.606,5.094,16.662,7.251l-16.662,8.625,6.47,3.921Z" fill="#d6ae85"/>
      <path id="Tracé_1990" data-name="Tracé 1990" d="M535.394,492.266c-13.131,9.116-32.761-5.3-53.623-5.3-22.373,0-41.505,13.562-54.688,3.268l-14.05,7.274,6.47,3.921-7.254,4.505s38.223,19.8,68.6,16.859S535.541,502.8,535.541,502.8l-4.7-4.9,8.428-1.765Z" fill="#c69a71"/>
      <path id="Tracé_1991" data-name="Tracé 1991" d="M467.548,472.676c-.124-2.915-2-5.277-4.183-5.277s-3.857,2.362-3.733,5.277,2,5.276,4.188,5.276S467.676,475.589,467.548,472.676Z" fill="#513935"/>
      <path id="Tracé_1992" data-name="Tracé 1992" d="M498.557,471.31c-.834-2.971-3.3-5.38-5.5-5.38s-3.306,2.409-2.469,5.38,3.3,5.382,5.5,5.382S499.395,474.281,498.557,471.31Z" fill="#513935"/>
      <path id="Tracé_1993" data-name="Tracé 1993" d="M479.68,500.5l-1.763,1.961s5.685,7.057,13.132-2.939C491.049,499.522,483.8,504.814,479.68,500.5Z" fill="#a56b55"/>
      <path id="Tracé_1994" data-name="Tracé 1994" d="M455.765,494.373c3.713,4.617,14.463,9.557,21.56,3.137,8.233-7.45,4.312-13.526,4.312-13.526l-6.074-5.291S442.825,478.3,455.765,494.373Z" fill="#f7d5b7"/>
      <path id="Tracé_1995" data-name="Tracé 1995" d="M510.924,492.328c-2.285,4.143-12.06,8.292-21.541,2.148-10.256-6.648-8.226-11.636-8.226-11.636l4.271-4.282S518.712,478.22,510.924,492.328Z" fill="#f7d5b7"/>
      <path id="Tracé_1996" data-name="Tracé 1996" d="M482.7,486.055s-9.637-6.987-7.538-8.572c1.984-1.493,11.871-.214,12.4,1.312C488.123,480.394,482.7,486.055,482.7,486.055Z" fill="#7f5752"/>
      <path id="Tracé_1997" data-name="Tracé 1997" d="M452.355,554.249c4.49,23.109,9.122,70.08,9.122,70.08h9.331s7.055-47.88-2.285-69.535C465.282,547.275,448.181,532.783,452.355,554.249Z" fill="#d6ae85"/>
      <path id="Tracé_1998" data-name="Tracé 1998" d="M497.951,552.283c2.336,23.757,11.1,72.046,11.1,72.046h-8.32s-19.426-49.223-17.042-71.483C484.514,545.116,495.779,530.215,497.951,552.283Z" fill="#d6ae85"/>
      <path id="Tracé_1999" data-name="Tracé 1999" d="M417.444,624.329h41.45s-36.4-84.894-43.215-73.505C399.537,577.79,417.444,624.329,417.444,624.329Z" fill="#ba8867"/>
      <g id="Groupe_4178" data-name="Groupe 4178">
        <path id="Tracé_2000" data-name="Tracé 2000" d="M411.31,568.287c9.923-2.707,22.309,14.256,33.342,37.888a107.858,107.858,0,0,1,6.658,18.154h7.584s-33.806-90.264-43.215-73.505a50.809,50.809,0,0,0-5.695,17.981A7.176,7.176,0,0,1,411.31,568.287Z" fill="#a56b55"/>
        <path id="Tracé_2001" data-name="Tracé 2001" d="M417.123,623.425c.2.589.321.9.321.9h.176C417.455,624.031,417.289,623.726,417.123,623.425Z" fill="#a56b55"/>
      </g>
      <path id="Tracé_2002" data-name="Tracé 2002" d="M513.075,613.718c-5.327-1.135-8.6,2.986-9.825,6.592l1.286,4.019h10.153C518.566,620.928,518.405,614.85,513.075,613.718Z" fill="#d6ae85"/>
      <path id="Tracé_2003" data-name="Tracé 2003" d="M477.751,614.194c-5.762-1.084-8.155,2.852-8.565,6.3l2.281,3.837h10.468C485.127,621.081,483.514,615.275,477.751,614.194Z" fill="#d6ae85"/>
      <path id="Tracé_2004" data-name="Tracé 2004" d="M461.051,613.242c4.683-.849,7.406,2.353,8.683,5.915l-1.415,5.169-12.362,0A7.5,7.5,0,0,1,461.051,613.242Z" fill="#d6ae85"/>
      <path id="Tracé_2005" data-name="Tracé 2005" d="M416.992,614.639c9.638-.744,21.853,9.687,21.853,9.687l-26.69,0C403.994,620.469,406.81,615.424,416.992,614.639Z" fill="#d6ae85"/>
      <path id="Tracé_2006" data-name="Tracé 2006" d="M471.033,613.458c-5.558-1.006-12.573,2.507-8.134,10.871h11.827C478.664,620.845,477.434,614.622,471.033,613.458Z" fill="#d6ae85"/>
      <path id="Tracé_2007" data-name="Tracé 2007" d="M473.8,619.994c-.169,1.68-2.385,3.009-5.1,3.009a5.827,5.827,0,0,1-4.639-1.862,4.338,4.338,0,0,0,.895,3.188h7.993C474.632,623.122,474.912,621.317,473.8,619.994Z" fill="#c69a71"/>
      <path id="Tracé_2008" data-name="Tracé 2008" d="M482.574,619.994c-.2,1.68-2.8,3.009-5.984,3.009-2.415,0-5.371.061-4.395,1.326h9.987C484.161,623.122,483.882,621.317,482.574,619.994Z" fill="#c69a71"/>
      <path id="Tracé_2009" data-name="Tracé 2009" d="M482.182,480.045a18.732,18.732,0,0,1-7.137-1.266c1.159,2.56,7.657,7.276,7.657,7.276s4.4-4.6,4.853-6.678A20.877,20.877,0,0,1,482.182,480.045Z" fill="#513935"/>
      <g id="Groupe_4179" data-name="Groupe 4179">
        <path id="Tracé_2010" data-name="Tracé 2010" d="M422.339,498.172l-.2-.344c.185-.108,18.9-10.852,39.394-10.727l-.011,1.175h-.457C441.046,488.275,422.522,498.065,422.339,498.172Z" fill="#f7d5b7"/>
      </g>
      <g id="Groupe_4180" data-name="Groupe 4180">
        <path id="Tracé_2011" data-name="Tracé 2011" d="M435.785,508.234l-.412-.338c.5-.609,12.427-14.888,26.029-18.642l.312,1.133C448.473,494.04,435.9,508.088,435.785,508.234Z" fill="#f7d5b7"/>
      </g>
      <g id="Groupe_4181" data-name="Groupe 4181">
        <path id="Tracé_2012" data-name="Tracé 2012" d="M445.157,512.118l-.477-.162c.039-.11,3.879-11,17.373-18.076l.546,1.039C449.516,501.785,445.193,512.012,445.157,512.118Z" fill="#f7d5b7"/>
      </g>
      <path id="Tracé_2013" data-name="Tracé 2013" d="M469.478,485.923c0-.543-.279-.982-.624-.982s-.625.439-.625.982.28.979.625.979S469.478,486.465,469.478,485.923Z" fill="#c69a71"/>
      <path id="Tracé_2014" data-name="Tracé 2014" d="M461.931,489.255c0-.542-.279-.98-.624-.98s-.624.438-.624.98.28.979.624.979S461.931,489.8,461.931,489.255Z" fill="#c69a71"/>
      <path id="Tracé_2015" data-name="Tracé 2015" d="M469.576,493.568c0-.541-.279-.979-.625-.979s-.623.438-.623.979.279.98.623.98S469.576,494.11,469.576,493.568Z" fill="#c69a71"/>
      <path id="Tracé_2016" data-name="Tracé 2016" d="M477.613,489.255c0-.541-.279-.98-.625-.98s-.624.439-.624.98.279.98.624.98S477.613,489.8,477.613,489.255Z" fill="#c69a71"/>
      <path id="Tracé_2017" data-name="Tracé 2017" d="M494.47,484.944c0-.544-.28-.981-.625-.981s-.623.437-.623.981.278.979.623.979S494.47,485.485,494.47,484.944Z" fill="#c69a71"/>
      <path id="Tracé_2018" data-name="Tracé 2018" d="M497.411,491.8c0-.542-.281-.981-.626-.981s-.625.439-.625.981.28.981.625.981S497.411,492.345,497.411,491.8Z" fill="#c69a71"/>
      <g id="Groupe_4182" data-name="Groupe 4182">
        <path id="Tracé_2019" data-name="Tracé 2019" d="M543.06,496.165l.2-.343c-.187-.109-18.9-10.853-39.392-10.727l.008,1.177.459,0C524.355,486.27,542.878,496.06,543.06,496.165Z" fill="#f7d5b7"/>
      </g>
      <g id="Groupe_4183" data-name="Groupe 4183">
        <path id="Tracé_2020" data-name="Tracé 2020" d="M529.617,506.228l.413-.339c-.5-.608-12.429-14.887-26.032-18.641l-.313,1.133C516.926,492.034,529.5,506.081,529.617,506.228Z" fill="#f7d5b7"/>
      </g>
      <g id="Groupe_4184" data-name="Groupe 4184">
        <path id="Tracé_2021" data-name="Tracé 2021" d="M520.242,510.111l.478-.162c-.035-.109-3.88-11-17.372-18.077l-.546,1.041C515.885,499.779,520.206,510.007,520.242,510.111Z" fill="#f7d5b7"/>
      </g>
      <path id="Tracé_2022" data-name="Tracé 2022" d="M504.759,492.2c0-.541-.278-.978-.622-.978s-.626.437-.626.978.28.981.626.981S504.759,492.737,504.759,492.2Z" fill="#c69a71"/>
      <path id="Tracé_2023" data-name="Tracé 2023" d="M504.858,484.944c0-.544-.281-.981-.625-.981s-.623.437-.623.981.28.979.623.979S504.858,485.485,504.858,484.944Z" fill="#c69a71"/>
      <path id="Tracé_2024" data-name="Tracé 2024" d="M462.345,462.944a15.188,15.188,0,0,0-10.094,7.244s-2.205-5.145,2.2-7.645A7.084,7.084,0,0,1,462.345,462.944Z" fill="#ba8867"/>
      <path id="Tracé_2025" data-name="Tracé 2025" d="M495.99,461.957a14.619,14.619,0,0,1,9.156,7.927s2.483-4.981-1.565-7.781A6.6,6.6,0,0,0,495.99,461.957Z" fill="#ba8867"/>
      <path id="Tracé_2026" data-name="Tracé 2026" d="M484.235,478c-.962-.055-1.759.19-1.778.547s.744.684,1.7.735,1.755-.186,1.777-.542S485.2,478.053,484.235,478Z" fill="#c69a71"/>
      <path id="Tracé_2027" data-name="Tracé 2027" d="M480.784,482.5c-1.135-1.349-3.237-2.719-2.79-1.35a5.726,5.726,0,0,0,2.449,2.532c.467.239.8.261.9.111C481.459,483.618,481.308,483.129,480.784,482.5Z" fill="#382927"/>
      <path id="Tracé_2028" data-name="Tracé 2028" d="M484.466,483.228c1.349-1.135,2.718-3.238,1.349-2.79a5.687,5.687,0,0,0-2.526,2.452c-.239.467-.264.8-.112.9C483.353,483.906,483.838,483.753,484.466,483.228Z" fill="#382927"/>
      <path id="Tracé_2029" data-name="Tracé 2029" d="M458.22,624.3h3.767s-1.146-3.921-2.209-4.115S458.22,624.3,458.22,624.3Z" fill="#644"/>
      <path id="Tracé_2030" data-name="Tracé 2030" d="M466.982,624.3l3.768,0s-1.146-3.923-2.212-4.117S466.982,624.3,466.982,624.3Z" fill="#644"/>
      <path id="Tracé_2031" data-name="Tracé 2031" d="M475.255,624.3h3.767s-2.315-3.644-3.438-3.825S475.255,624.3,475.255,624.3Z" fill="#644"/>
      <path id="Tracé_2032" data-name="Tracé 2032" d="M518.564,624.3H515.6s1.621-3.912,2.5-4.108S518.564,624.3,518.564,624.3Z" fill="#644"/>
      <path id="Tracé_2033" data-name="Tracé 2033" d="M511.743,624.3h-3.721s2.287-3.644,3.4-3.825S511.743,624.3,511.743,624.3Z" fill="#644"/>
    </g>
    <g id="Groupe_4186" data-name="Groupe 4186">
      <path id="Tracé_2034" data-name="Tracé 2034" d="M247.883,576.624l4.074,11.907c-29.229-18.088-63.014,4.012-64.542-20.579C192.916,566.011,247.883,576.624,247.883,576.624Z" fill="#eddb58"/>
      <path id="Tracé_2035" data-name="Tracé 2035" d="M431.5,595.705c-6.112,1.968-48.735-9.3-48.735-9.3L402.277,575.4a39.115,39.115,0,0,0,13.957,12.137C424.54,591.71,435.077,594.549,431.5,595.705Z" fill="#9e9e2e"/>
      <path id="Tracé_2036" data-name="Tracé 2036" d="M409.259,592.767a1.758,1.758,0,0,1-.43-1.086c0-1.65,2.882-3.126,7.424-4.136,8.3,4.168,18.821,7.005,15.243,8.16C428.831,596.56,419.239,594.906,409.259,592.767Z" fill="#d8c93d"/>
      <path id="Tracé_2037" data-name="Tracé 2037" d="M356.947,624.329H333.269s2.356-39.227,15.8-45.516,9.48,2.563,8.094,5.09C353.217,591.088,351.832,606.959,356.947,624.329Z" fill="#8c802d"/>
      <path id="Tracé_2038" data-name="Tracé 2038" d="M260.455,624.329H236.777s11.981-38.165,26.965-44.283,8.85,2.494,6.844,4.954C264.881,591.992,259.6,607.432,260.455,624.329Z" fill="#8c802d"/>
      <path id="Tracé_2039" data-name="Tracé 2039" d="M410.484,581.1c-15.955,6.213-76.589,20.5-82.02,22.573,0,0-46.046,5.555-78.973-16.533l-11.542-22.434Z" fill="#8c802d"/>
      <path id="Tracé_2040" data-name="Tracé 2040" d="M244,565.283l8.4,17.562c30.863,22.056,74.036,20,80.286,19.576-2.1.571-3.568,1-4.225,1.253,0,0-44.811,8.412-82.557-18.231L235.562,577.4Z" fill="#dbc645"/>
      <path id="Tracé_2041" data-name="Tracé 2041" d="M302.023,624.329H278.346S284.2,590.42,298.2,584.984s9.25,2.214,7.638,4.4C301.26,595.6,298.458,609.316,302.023,624.329Z" fill="#9e9e2e"/>
      <path id="Tracé_2042" data-name="Tracé 2042" d="M278.346,624.329s2.474-14.307,8.045-25.826a9.352,9.352,0,0,1,3.289-.61c4.355,0,8.262,3.094,10.936,7.993a58.13,58.13,0,0,0,1.407,18.443Z" fill="#d8c93d"/>
      <path id="Tracé_2043" data-name="Tracé 2043" d="M375.756,624.329h24.086s-5.957-33.909-20.2-39.345-9.407,2.214-7.77,4.4C376.533,595.6,379.38,609.316,375.756,624.329Z" fill="#9e9e2e"/>
      <path id="Tracé_2044" data-name="Tracé 2044" d="M388.124,595.478a6.755,6.755,0,0,1,2.121.35c6.662,11.837,9.6,28.5,9.6,28.5H375.756a57.351,57.351,0,0,0,1.509-17.254C379.66,600.067,383.63,595.478,388.124,595.478Z" fill="#d8c93d"/>
      <path id="Tracé_2045" data-name="Tracé 2045" d="M264.767,584.9s-4.809,1.356-6.446,1.805c0,0-28.77-17.066-70.1-15.277a3.207,3.207,0,0,1-3.053-3.383c.033-4.924-1.363-10.529,1.564-13.809,7.47-8.367,27.189-9.8,35.937-.743,2.854,2.954,3.117,4.191,8.317,6.386C251.418,552.848,264.767,584.9,264.767,584.9Z" fill="#afac31"/>
      <path id="Tracé_2046" data-name="Tracé 2046" d="M226.093,556.906a20.617,20.617,0,0,0,4.9,2.97c20.429-7.028,33.778,25.021,33.778,25.021s-4.809,1.356-6.446,1.805c0,0-20.218-11.983-51.092-14.809C216.331,568.441,223.245,562.827,226.093,556.906Z" fill="#9e9e2e"/>
      <path id="Tracé_2047" data-name="Tracé 2047" d="M231.48,564.754a41.071,41.071,0,0,0-4.928-7.5,20.436,20.436,0,0,0,4.437,2.62c20.429-7.028,36.965,27.146,36.965,27.146s-8-.769-9.633-.32c0,0-8.452-5-22.759-9.306A40.137,40.137,0,0,0,231.48,564.754Z" fill="#8c802d"/>
      <path id="Tracé_2048" data-name="Tracé 2048" d="M418.11,581.751c-1.963,6.754-119.4,13.673-144.518,7.116-26.41-6.9-45.15-32.1-45.15-32.1s2.038-6.731,8.659-1.553c0,0,42.156-61.814,60.084-66.783,5.6-1.555,62.122,1.55,75.871,27.955s32.588,58.5,32.588,58.5S421.115,571.391,418.11,581.751Z" fill="#c6c63e"/>
      <path id="Tracé_2049" data-name="Tracé 2049" d="M231.017,553.607c5.384,6.429,21.785,24.131,43.255,29.737,24.087,6.288,133.031.183,143.684-6.284a7.831,7.831,0,0,1,.72,5.474c-1.96,6.755-120.511,13.806-145.632,7.249-26.409-6.9-44.6-33.012-44.6-33.012A5.646,5.646,0,0,1,231.017,553.607Z" fill="#b7b332"/>
      <path id="Tracé_2050" data-name="Tracé 2050" d="M297.911,490.3c5.6-1.555,61.358-1.036,75.109,25.367,13.218,25.386,31.174,56.747,32.534,59.067-32.452,4.986-111.842,8.314-132.055,3.09-16.724-4.323-30.4-15.839-38.278-23.832a11.937,11.937,0,0,1,1.88,1.227S279.981,495.269,297.911,490.3Z" fill="#e5e14a"/>
      <path id="Tracé_2051" data-name="Tracé 2051" d="M336.865,535.6c-28,0-52.473-9.2-65.77-22.909,10.065-11.122,20.16-20.544,26.816-22.39,5.6-1.555,61.358-1.036,75.109,25.367,2.037,3.915,4.188,7.971,6.375,12.041A113.107,113.107,0,0,1,336.865,535.6Z" fill="#f4eb53"/>
      <path id="Tracé_2052" data-name="Tracé 2052" d="M334.663,540.7l22.661,15.014-.509,25.365h-1.273V555.971l-20.714-13.815-21.8,10.969,5.346,27.954-1.018.519-5.6-29.251Z" fill="#c6c63e"/>
      <path id="Tracé_2053" data-name="Tracé 2053" d="M289.51,547.763l22.744,4.4.253,1.552L289.764,548.8,277.035,562l2.545,20.19-1.783-.259L275.507,562Z" fill="#c6c63e"/>
      <path id="Tracé_2054" data-name="Tracé 2054" d="M299.354,514.2l25.631.689,10.354,26.4-1.529.688-9.166-25.711-24.951-1.21-13.579,15.015,4.244,18.465h-1.187L285.1,530.247Z" fill="#c6c63e"/>
      <path id="Tracé_2055" data-name="Tracé 2055" d="M264.559,532.319l21.047-2.59.34,1.208L264.9,533.182l-7.807,16.912,3.394,10.354,15.785,1.378-.51,1.555-16.124-2.071-3.4-11.045Z" fill="#c6c63e"/>
      <path id="Tracé_2056" data-name="Tracé 2056" d="M254.6,570.046l5.381-8.952-.509-1.424-5.474,10.1Z" fill="#c6c63e"/>
      <path id="Tracé_2057" data-name="Tracé 2057" d="M256.158,550.61h-9.549l-9.419,5.306-.089-.7,9.255-5.384,10.31.127Z" fill="#c6c63e"/>
      <path id="Tracé_2058" data-name="Tracé 2058" d="M246.1,542.715l.509,7.9h-.635l-.638-7.118Z" fill="#c6c63e"/>
      <path id="Tracé_2059" data-name="Tracé 2059" d="M264.559,532.748l-10.183-.774.507-.583,10.058.971Z" fill="#c6c63e"/>
      <path id="Tracé_2060" data-name="Tracé 2060" d="M264.559,532.748l1.655-15.141-.763.906-1.528,14.234Z" fill="#c6c63e"/>
      <path id="Tracé_2061" data-name="Tracé 2061" d="M276.271,505.959l14.894-3.106,8.189,11.346-.424.818-8.148-11.39-15.146,2.978Z" fill="#c6c63e"/>
      <path id="Tracé_2062" data-name="Tracé 2062" d="M356.895,556.477l14.937-7.593,14.256,10.01,4.584,18.119,1.528-.174-5.094-17.6,6.961-4.66-.681-1.208-6.449,4.659-14.6-10.524-16.3,8.454Z" fill="#c6c63e"/>
      <path id="Tracé_2063" data-name="Tracé 2063" d="M324.644,516.271l8.317-13.114-5.6-11.907-1.187-.518,5.771,12.425-8.316,12.6Z" fill="#c6c63e"/>
      <path id="Tracé_2064" data-name="Tracé 2064" d="M291.546,503.5l11.033-15.013h-1.189L290.7,503.156Z" fill="#c6c63e"/>
      <path id="Tracé_2065" data-name="Tracé 2065" d="M372.847,548.194l-1.865-18.465,6.9-4.676-.278-.458-7.407,4.988,1.591,18.77Z" fill="#c6c63e"/>
      <path id="Tracé_2066" data-name="Tracé 2066" d="M334.665,541.205l19.47-18.119,16.505,7.16.339-.86L353.8,521.877l-19.647,18.38Z" fill="#c6c63e"/>
      <path id="Tracé_2067" data-name="Tracé 2067" d="M354.177,522.524l-2.544-16.306,5.346-5.566-.89-.648-5.22,5.7,2.418,17.473Z" fill="#c6c63e"/>
      <path id="Tracé_2068" data-name="Tracé 2068" d="M332.2,503.249l18.922,3.486.128-1.165-18.969-2.978Z" fill="#c6c63e"/>
      <path id="Tracé_2069" data-name="Tracé 2069" d="M210.767,557.816l-8.69-.482s.44,5.255,4.942,5.185C208.711,562.49,210.767,557.816,210.767,557.816Z" fill="#666426"/>
      <path id="Tracé_2070" data-name="Tracé 2070" d="M204.39,567.985c-.428-1.41-2.463,4.563-16.295,3.068l-.511.392S206.172,573.885,204.39,567.985Z" fill="#666426"/>
      <path id="Tracé_2071" data-name="Tracé 2071" d="M199.976,557.254c1.569,1.345,10.353,1.9,12.473,1.813s-.337-6.473-5.345-6.644S198.361,555.874,199.976,557.254Z" fill="#c6c63e"/>
      <path id="Tracé_2072" data-name="Tracé 2072" d="M333.808,541.293l-21.554,10.871-22.744-4.4,22.572,1.813Z" fill="#f4eb53"/>
      <path id="Tracé_2073" data-name="Tracé 2073" d="M275.759,561.654l-15.274-1.206-3.394-10.354,7.807-16.912L258.787,549.4l2.5,8.986Z" fill="#f4eb53"/>
      <path id="Tracé_2074" data-name="Tracé 2074" d="M285.266,529.729l-20.659,2.591L266.256,518l-.511,12.941Z" fill="#f4eb53"/>
      <path id="Tracé_2075" data-name="Tracé 2075" d="M355.541,555.971l.036,23.113-36.915,1.423-2.545-10.871,3.564,9.577,34.37-1.553Z" fill="#f4eb53"/>
      <path id="Tracé_2076" data-name="Tracé 2076" d="M386.087,558.894l4.626,17.73-33.863,2.46.383-14.755,1.273,13.46,30.17-2.589Z" fill="#f4eb53"/>
      <path id="Tracé_2077" data-name="Tracé 2077" d="M314.094,564.583l3.04,15.924s-33.1.647-37.935-1.813L277.035,562l3.054,15.531,35.9,1.812Z" fill="#f4eb53"/>
    </g>
    <path id="Tracé_2078" data-name="Tracé 2078" d="M63.83,623.98H936.17s-192.531,15.549-451.62,15.549S63.83,623.98,63.83,623.98Z" fill="#ff508a"/>
  </g>
</svg>
