<svg xmlns="http://www.w3.org/2000/svg" xmlns:xlink="http://www.w3.org/1999/xlink" width="30" height="26.25" viewBox="0 0 30 26.25">
  <defs>
    <linearGradient id="linear-gradient" y1="0.5" x2="1" y2="0.5" gradientUnits="objectBoundingBox">
      <stop offset="0" stop-color="#fa5c42"/>
      <stop offset="1" stop-color="#ec1d45"/>
    </linearGradient>
  </defs>
  <path id="Icon_awesome-list-alt" data-name="Icon awesome-list-alt" d="M27.188,28.5H2.813A2.812,2.812,0,0,1,0,25.688V5.063A2.812,2.812,0,0,1,2.813,2.25H27.188A2.812,2.812,0,0,1,30,5.063V25.688A2.812,2.812,0,0,1,27.188,28.5ZM7.5,7.406A2.344,2.344,0,1,0,9.844,9.75,2.344,2.344,0,0,0,7.5,7.406Zm0,5.625a2.344,2.344,0,1,0,2.344,2.344A2.344,2.344,0,0,0,7.5,13.031Zm0,5.625A2.344,2.344,0,1,0,9.844,21,2.344,2.344,0,0,0,7.5,18.656Zm16.875-7.969V8.813a.7.7,0,0,0-.7-.7H11.953a.7.7,0,0,0-.7.7v1.875a.7.7,0,0,0,.7.7H23.672A.7.7,0,0,0,24.375,10.688Zm0,5.625V14.438a.7.7,0,0,0-.7-.7H11.953a.7.7,0,0,0-.7.7v1.875a.7.7,0,0,0,.7.7H23.672A.7.7,0,0,0,24.375,16.313Zm0,5.625V20.063a.7.7,0,0,0-.7-.7H11.953a.7.7,0,0,0-.7.7v1.875a.7.7,0,0,0,.7.7H23.672A.7.7,0,0,0,24.375,21.938Z" transform="translate(0 -2.25)" fill="url(#linear-gradient)"/>
</svg>
