<svg id="Calque_3" data-name="Calque 3" xmlns="http://www.w3.org/2000/svg" viewBox="0 0 438 329.67">
    <title>envelope</title>
    <path d="M144,495c-7.5-7.5-8-15-8-35s18-39,42-39c9.71,0,53-.16,101.09-.36l75.58-.31h.66l75.58.31c48.09.2,91.38.36,101.09.36,24,0,42,19,42,39s-.5,27.5-8,35S431,594,417,605s-41.56,34.63-61.53,35h-.94c-20-.36-47.64-24.08-61.53-35S151.5,502.5,144,495Z"
          transform="translate(-136 -420.33)"/>
    <path d="M574,533V708a41.61,41.61,0,0,1-42,42H178a41.61,41.61,0,0,1-42-42V533c0-5,5-6,8-4s118,87,132,98,48,41,79,41,65-30,79-41,129-96,132-98S574,528,574,533Z"
          transform="translate(-136 -420.33)"/>
</svg>