<svg id="Groupe_4592" data-name="Groupe 4592" xmlns="http://www.w3.org/2000/svg" width="18.77" height="20" viewBox="0 0 18.77 20">
    <path id="Tracé_1650" data-name="Tracé 1650" d="M724.165,850.986s2.862-.823,2.778-1.409-2.618.471-2.618.471a5.212,5.212,0,0,0-.7-4.051,4.982,4.982,0,0,0-2.27-1.8l.055-.06a23.957,23.957,0,0,0,2.495-3.752c1.178-2.2,1.7-5.389.559-5.389s-2.116.2-4.471,3.513a13.2,13.2,0,0,0-2.361,5.079h-.008a13.2,13.2,0,0,0-2.362-5.08c-2.355-3.313-3.333-3.513-4.471-3.513s-.619,3.193.559,5.389a24.081,24.081,0,0,0,2.486,3.741l-.17.024a6.143,6.143,0,0,0-2.821,3.726,5.971,5.971,0,0,0-.234,2.179c-.315-.194-2.109-1.261-2.4-.582-.319.745,2.728,1.437,2.728,1.437s-.033.146.24.605a2.132,2.132,0,0,0,.426.572s-3.686,1.091-3.416,1.77,4.022-1.038,4.022-1.038,2.3,2.255,4.87,2.175a9.486,9.486,0,0,0,5.808-2.135l.251.077q3.389,1.029,3.471.812c.133-.31-1-.707-3.163-1.687A2.607,2.607,0,0,0,724.165,850.986Zm-8.881-1.43a.812.812,0,1,1,.812.812A.812.812,0,0,1,715.284,849.556Zm2.222,3.007c-.293.013-1.264-.865-1-1.224s1.73-.226,2.1,0S717.786,852.55,717.506,852.563Zm1.517-2.2a.812.812,0,1,1,.812-.812A.812.812,0,0,1,719.023,850.368Z" transform="translate(-708.174 -835)" fill="#333"/>
</svg>
