<svg xmlns="http://www.w3.org/2000/svg" width="71.311" height="60.596" viewBox="0 0 71.311 60.596">
  <g id="Group_4031" data-name="Group 4031" transform="translate(-1194.099 -290.306)">
    <path id="Path_1621" data-name="Path 1621" d="M1265.41,307.919a17.572,17.572,0,0,1-5.144,12.472l-5.573,5.573L1229.754,350.9l-24.939-24.939-5.573-5.573a17.634,17.634,0,0,1,24.939-24.939l5.573,5.569,5.569-5.569a17.615,17.615,0,0,1,30.087,12.467Z" transform="translate(0 0)" fill="#333"/>
    <g id="Group_4030" data-name="Group 4030" transform="translate(1214.74 307.798)">
      <path id="Path_1622" data-name="Path 1622" d="M1258.732,350.172a3.387,3.387,0,0,1-3.7,3.554c-2.665,0-4.194-1.493-6.646-1.493s-3.981,1.493-6.646,1.493a3.386,3.386,0,0,1-3.7-3.554c0-1.742,4.016-10.378,10.342-10.378S1258.732,348.43,1258.732,350.172Z" transform="translate(-1233.375 -328.782)" fill="#fff"/>
      <ellipse id="Ellipse_642" data-name="Ellipse 642" cx="3.578" cy="2.94" rx="3.578" ry="2.94" transform="translate(21.571 12.886) rotate(-63.487)" fill="#fff"/>
      <ellipse id="Ellipse_643" data-name="Ellipse 643" cx="4.399" cy="3.099" rx="4.399" ry="3.099" transform="matrix(0.236, -0.972, 0.972, 0.236, 15.52, 8.55)" fill="#fff"/>
      <ellipse id="Ellipse_644" data-name="Ellipse 644" cx="2.94" cy="3.578" rx="2.94" ry="3.578" transform="translate(0 9.107) rotate(-26.513)" fill="#fff"/>
      <ellipse id="Ellipse_645" data-name="Ellipse 645" cx="3.099" cy="4.399" rx="3.099" ry="4.399" transform="matrix(0.972, -0.236, 0.236, 0.972, 6.411, 1.462)" fill="#fff"/>
    </g>
  </g>
</svg>