<svg xmlns="http://www.w3.org/2000/svg" width="25" height="28.752" viewBox="0 0 25 28.752">
  <path id="Icon_map-veterinary-care" data-name="Icon map-veterinary-care" d="M12.036,11.941a3.455,3.455,0,0,0,2.7-3.158C14.9,7.171,15.28.7,12.849,1.108,6.544,2.177,6.987,12.8,12.036,11.941Zm8.3,0c5.048.856,5.491-9.763-.814-10.833C17.087.7,17.463,7.171,17.629,8.782A3.457,3.457,0,0,0,20.332,11.941Zm-10.886,5a3.288,3.288,0,0,0-.785-2.162c-.8-1.041-3.33-3.147-3.952-2.608-1.3,1.129-1.256,3.907-.474,5.926a2.728,2.728,0,0,0,2.507,1.912A2.9,2.9,0,0,0,9.446,16.944Zm18.211-4.769c-.621-.539-3.154,1.566-3.951,2.608a3.288,3.288,0,0,0-.786,2.162,2.9,2.9,0,0,0,2.7,3.068A2.729,2.729,0,0,0,28.133,18.1C28.913,16.081,28.956,13.3,27.657,12.174Zm-5.085,9.548c-2.3-1.146-2.226-3.352-2.749-5.365a3.768,3.768,0,0,0-7.251-.1c-.559,1.926-.223,4.169-2.727,5.448-2.034.663-2.858,1.631-2.858,3.919a4.338,4.338,0,0,0,3.655,4.1,8.3,8.3,0,0,0,5.542-.934,8.306,8.306,0,0,0,5.544.934,4.332,4.332,0,0,0,3.654-4.1c0-2.338-.772-3.209-2.811-3.9Zm-2.711,2.8H17.479l0,2.5h-2.6l0-2.5H12.361v-2.5h2.528l0-2.5h2.6l0,2.5h2.381v2.5Z" transform="translate(-3.683 -1.089)" fill="#13e2ba"/>
</svg>
