<svg xmlns="http://www.w3.org/2000/svg" width="20.629" height="20.046" viewBox="0 0 20.629 20.046">
    <g id="Groupe_4591" data-name="Groupe 4591" transform="translate(-272.612 -495.999)">
        <path id="Tracé_1608" data-name="Tracé 1608" d="M530.556,233.835l-1.34-.29c.032-.049.065-.1.1-.146,1-1.595,1.17-3.731,1.471-7.938.374-5.2-.118-5.567-.342-5.7-.78-.467-4.425,3.365-4.425,3.365l-7.321-1.5c-.374-.529-.748-3.52-1.808-3.645-1.666-.2-3.488,5.851-4.144,8.786a17.305,17.305,0,0,0-.494,4h-1.609a.35.35,0,0,0,0,.7h1.649a6.223,6.223,0,0,0,.1.665l-1.7.267a.35.35,0,0,0,.108.692l1.765-.281c.024.071.047.137.069.2a7.084,7.084,0,0,0,2.849,3.7,6.07,6.07,0,0,0,1.032.5,11,11,0,0,0,8.433-.071,10.464,10.464,0,0,0,2.838-1.89l1.884.95a.432.432,0,0,0,.389-.772l-1.643-.828c.082-.092.163-.189.243-.288l1.716.37a.432.432,0,1,0,.181-.845Zm-15.724-2.77a1.262,1.262,0,1,1,1.262-1.262A1.261,1.261,0,0,1,514.833,231.065Zm6.225,1.043c-.049.408-.669.669-1.389.585s-1.264-.486-1.215-.894.671-.669,1.389-.585S521.107,231.7,521.058,232.108Zm4.851.477a1.262,1.262,0,1,1,1.262-1.262A1.262,1.262,0,0,1,525.909,232.584Z" transform="translate(-237.68 278.02)" fill="#333"/>
    </g>
</svg>
