<svg xmlns="http://www.w3.org/2000/svg" width="79" height="79" viewBox="0 0 79 79">
  <path id="icon-instagram" d="M-2601.5-73a39.253,39.253,0,0,1-15.375-3.1,39.372,39.372,0,0,1-12.556-8.465,39.371,39.371,0,0,1-8.465-12.556A39.257,39.257,0,0,1-2641-112.5a39.257,39.257,0,0,1,3.1-15.375,39.371,39.371,0,0,1,8.465-12.556,39.373,39.373,0,0,1,12.556-8.465A39.253,39.253,0,0,1-2601.5-152a39.253,39.253,0,0,1,15.375,3.1,39.373,39.373,0,0,1,12.555,8.465,39.372,39.372,0,0,1,8.465,12.556A39.257,39.257,0,0,1-2562-112.5a39.257,39.257,0,0,1-3.1,15.375,39.372,39.372,0,0,1-8.465,12.556,39.373,39.373,0,0,1-12.555,8.465A39.253,39.253,0,0,1-2601.5-73Zm.5-63.2c-6.458,0-7.329.028-9.977.145a18,18,0,0,0-5.875,1.126,11.829,11.829,0,0,0-4.288,2.791,11.8,11.8,0,0,0-2.791,4.288,17.933,17.933,0,0,0-1.125,5.874c-.12,2.557-.146,3.33-.146,9.977,0,6.462.028,7.332.146,9.977a17.984,17.984,0,0,0,1.125,5.874,11.858,11.858,0,0,0,2.791,4.288,11.811,11.811,0,0,0,4.288,2.791,18,18,0,0,0,5.875,1.126c2.56.12,3.333.145,9.977.145,6.483,0,7.35-.028,9.976-.145a18.034,18.034,0,0,0,5.875-1.126,11.86,11.86,0,0,0,4.288-2.791,11.813,11.813,0,0,0,2.791-4.288,17.992,17.992,0,0,0,1.125-5.874c.12-2.552.146-3.324.146-9.977,0-6.465-.028-7.335-.146-9.977a18.014,18.014,0,0,0-1.125-5.874,11.864,11.864,0,0,0-2.791-4.288,11.78,11.78,0,0,0-4.288-2.791,17.92,17.92,0,0,0-5.875-1.126C-2593.583-136.175-2594.357-136.2-2601-136.2Zm-.06,44.042c-6.571,0-7.255-.032-9.8-.149a13.716,13.716,0,0,1-4.51-.85,7.462,7.462,0,0,1-2.781-1.813,7.4,7.4,0,0,1-1.815-2.783,13.771,13.771,0,0,1-.847-4.508l-.005-.151v-.006c-.085-2.4-.117-3.3-.117-9.611s.032-7.216.117-9.64l.006-.163a13.767,13.767,0,0,1,.847-4.505,7.214,7.214,0,0,1,1.815-2.785,7.175,7.175,0,0,1,2.781-1.811,13.371,13.371,0,0,1,4.479-.85l.1,0c2.478-.088,3.313-.117,9.7-.117l.091.06c6.483,0,7.248.033,9.781.143a13.269,13.269,0,0,1,4.491.837,7.512,7.512,0,0,1,2.787,1.807,7.492,7.492,0,0,1,1.807,2.785,13.378,13.378,0,0,1,.833,4.492c.116,2.58.141,3.351.141,9.781,0,6.378-.026,7.156-.149,9.78a13.57,13.57,0,0,1-.849,4.492,7.721,7.721,0,0,1-1.812,2.787,7.539,7.539,0,0,1-2.784,1.806,13.49,13.49,0,0,1-4.507.833C-2593.883-92.184-2594.66-92.159-2601.06-92.159Zm.06-32.268A12.441,12.441,0,0,0-2613.427-112,12.441,12.441,0,0,0-2601-99.573,12.441,12.441,0,0,0-2588.573-112,12.441,12.441,0,0,0-2601-124.427Zm12.924-3.392h0a2.906,2.906,0,0,0-2.9,2.9,2.908,2.908,0,0,0,2.9,2.9,2.907,2.907,0,0,0,2.9-2.9,2.883,2.883,0,0,0-.85-2.051A2.876,2.876,0,0,0-2588.076-127.819ZM-2601-103.933a8.076,8.076,0,0,1-8.067-8.067,8.076,8.076,0,0,1,8.067-8.068,8.076,8.076,0,0,1,8.067,8.068A8.076,8.076,0,0,1-2601-103.933Z" transform="translate(2641 152)" fill="#fff"/>
</svg>
