<svg xmlns="http://www.w3.org/2000/svg" width="68.188" height="53.035" viewBox="0 0 68.188 53.035">
  <path id="Icon_awesome-capsules" data-name="Icon awesome-capsules" d="M65.738,33.988,50.218,11.815a13.526,13.526,0,0,0-23.771,3.042A13.231,13.231,0,0,0,0,15.509V42.026a13.259,13.259,0,1,0,26.518,0V24.376a13.718,13.718,0,0,0,1.515,2.96L43.565,49.508a13.532,13.532,0,1,0,22.173-15.52Zm-46.8-5.221H7.576V15.509a5.682,5.682,0,0,1,11.365,0ZM42,34.083,34.236,22.991A5.959,5.959,0,1,1,44,16.16l7.766,11.092L42,34.083Z" transform="translate(0 -2.25)" fill="#333"/>
</svg>