    <svg xmlns="http://www.w3.org/2000/svg" width="40.021" height="36.72" viewBox="0 0 40.021 36.72">
    <g id="Group_4081" data-name="Group 4081" transform="translate(-1174.067 -835)" opacity="1">
        <path id="Path_1648" data-name="Path 1648" d="M1214.088,841.92a20.683,20.683,0,0,1-5.777,1.259,5.524,5.524,0,0,1-.591-.029,2.23,2.23,0,0,1-1.534-.65h.078a.97.97,0,0,0,.667-.447c.5-.687,1-2.427.449-6.8,0,0-.58-.835-1.485.545-.754,1.143-1.7,4.388-6.2,5.455a13.933,13.933,0,0,1-3.222.345h-4.788a14.081,14.081,0,0,1-3.146-.328c-4.561-1.05-5.518-4.324-6.275-5.475-.908-1.377-1.488-.542-1.488-.542-.832,6.649.734,7.209,1.113,7.25h.081a2.725,2.725,0,0,1-2.123.679,20.683,20.683,0,0,1-5.779-1.259c.835,8.372,7.745,9.375,7.745,9.375a15.205,15.205,0,0,0-.107,2.059c-.241,2.529-.583,8.485,1.1,11.814a10.451,10.451,0,0,0,2.99,3.425.023.023,0,0,1,.012.012,12.542,12.542,0,0,0,16.544,0,.022.022,0,0,0,.012-.012c1.554-1.464,2.474-3.573,3.207-7.244a41.231,41.231,0,0,0,.882-7.995,15.205,15.205,0,0,0-.107-2.059S1213.253,850.3,1214.088,841.92Zm-9.752,9.671a14.625,14.625,0,0,1,.084,1.763,39.268,39.268,0,0,1-.841,7.6c-.638,3.193-1.38,4.97-2.552,6.11a10.5,10.5,0,0,1-13.9-.006,1.509,1.509,0,0,0-.133-.1,8.4,8.4,0,0,1-2.372-2.7c-1.006-1.989-1.34-5.991-.89-10.706.006-.064.009-.128.009-.191a14.227,14.227,0,0,1,.084-1.751,2.093,2.093,0,0,0,.023-.328,1.987,1.987,0,0,0-1.728-1.986,7.376,7.376,0,0,1-2.822-1.293,7.468,7.468,0,0,1-2.448-3.158,14.6,14.6,0,0,0,3,.371,5.364,5.364,0,0,0,2.833-.679h4.721a3.347,3.347,0,0,0,.687,1.679c2.175,2.9,7.612,0,10.8,3.842,1.639,1.975,3.8,1.67,5.533.542A2.071,2.071,0,0,0,1204.336,851.592Zm4.526-3.6a7.339,7.339,0,0,1-2.821,1.293c-.035.006-.07.009-.1.017a5.39,5.39,0,0,0,1.508-2.88c.038-.45.07-.867.1-1.256.241.023.5.038.766.038a14.572,14.572,0,0,0,3-.371A7.467,7.467,0,0,1,1208.862,848Z" transform="translate(0)" fill="#333" />
        <g id="Group_4080" data-name="Group 4080" transform="translate(1188.442 857.22)">
            <path id="Path_1649" data-name="Path 1649" d="M1226.661,914.2a1.512,1.512,0,1,1-1.511-1.514A1.512,1.512,0,0,1,1226.661,914.2Z" transform="translate(-1223.637 -912.378)" fill="#333" />
            <circle id="Ellipse_652" data-name="Ellipse 652" cx="1.514" cy="1.514" r="1.514" transform="matrix(0.23, -0.973, 0.973, 0.23, 7.937, 2.946)" fill="#333" />
        </g>
    </g>
</svg>