<svg xmlns="http://www.w3.org/2000/svg" width="79" height="79" viewBox="0 0 79 79">
  <path id="icon-twitter" d="M39.5,79A39.51,39.51,0,0,1,24.125,3.1,39.51,39.51,0,0,1,54.875,75.9,39.254,39.254,0,0,1,39.5,79Zm7.233-39.112a3.315,3.315,0,0,1,3.432,2.173,12.424,12.424,0,0,1,.515,4.3v11.9h7.583V44.833c0-3.9-.514-6.449-1.667-8.28-1.42-2.255-3.85-3.351-7.429-3.351a8.017,8.017,0,0,0-7.183,3.948h-.106V33.816H34.6V58.263h7.583V46.158a8.891,8.891,0,0,1,.8-4.33A3.89,3.89,0,0,1,46.733,39.888ZM22.25,33.816V58.263h7.592V33.816Zm3.792-12.17a4.417,4.417,0,1,0,4.4,4.4A4.4,4.4,0,0,0,26.042,21.646Z" fill="#fff"/>
</svg>
