<svg xmlns="http://www.w3.org/2000/svg" width="23.955" height="18.186" viewBox="0 0 23.955 18.186">
    <g id="Groupe_4590" data-name="Groupe 4590" transform="translate(-139.89 -497.859)">
        <g id="Groupe_4025" data-name="Groupe 4025" transform="translate(139.89 497.859)">
            <path id="Tracé_1609" data-name="Tracé 1609" d="M289.674,278.888c-.124-.416-.961-.5-1.4-.472-.455.026-1.266.212-1.337.625-.075.446.723,1.137,1.5,1.058C289.161,280.028,289.8,279.314,289.674,278.888Zm.486,2.677a9.112,9.112,0,0,1-1.652-.4c-.288.056-.62.535-1.5.8a3.712,3.712,0,0,0,.43,1.695,1.4,1.4,0,0,0,1.452.707l.042,0a1.4,1.4,0,0,0,1.234-1.046A3.742,3.742,0,0,0,290.16,281.565Z" transform="translate(-274.474 -266.565)"/>
            <path id="Tracé_1610" data-name="Tracé 1610" d="M259.351,228.942c-.5-2.511-1.338-3.282-2.165-3.743a3.573,3.573,0,0,0-1.022-.354c-.337-.077-.718-.16-.826-.508l-.016.022c-3.994.319-6.92.767-7.564,1.142-.077.044-.168.1-.168.1a6.987,6.987,0,0,0-1.467,1.07,3.539,3.539,0,0,0-.51.635,6.689,6.689,0,0,0-.534,3.561,15.156,15.156,0,0,1-.611,5.925c.077.105.154.209.233.309l.612.7a10.768,10.768,0,0,0,2.8,2.082,11.269,11.269,0,0,0,8.616.516,6.224,6.224,0,0,0,1.081-.456,7.254,7.254,0,0,0,3.106-3.633c.026-.062.055-.127.081-.2.073-.23.146-.458.219-.686a6.844,6.844,0,0,0,.135-.675c.026-.238.051-.474.077-.713.007-.1.012-.195.015-.3A12.044,12.044,0,0,1,259.351,228.942Zm-10.357,5.406a1,1,0,0,1-.328-.072,1.019,1.019,0,1,1,.328.072Zm3.6.964c.071-.412.882-.6,1.337-.625.434-.024,1.271.056,1.4.472s-.513,1.14-1.229,1.211C253.32,236.449,252.523,235.759,252.6,235.312Zm3.222,4.274a1.4,1.4,0,0,1-1.234,1.046l-.042,0a1.4,1.4,0,0,1-1.452-.707,3.712,3.712,0,0,1-.43-1.695c.883-.263,1.215-.742,1.5-.8a9.108,9.108,0,0,0,1.652.4A3.742,3.742,0,0,1,255.82,239.586Zm1.9-6.035a.927.927,0,0,1-.221.014,1.008,1.008,0,1,1,.221-.014Z" transform="translate(-240.13 -222.838)" fill="#333"/>
            <path id="Tracé_1611" data-name="Tracé 1611" d="M303.132,217.849c.052.332.8.195,1.678.679,1.11.619,1.887,1.665,2.355,4a11.847,11.847,0,0,0,1.725,4.218,7.156,7.156,0,0,0,.673.887,1.574,1.574,0,0,0,.978.537.929.929,0,0,0,.248-.02c.57-.126.681-1.76.572-2.981-.155-1.709-.824-3.307-.3-3.654.147-.1.436-.127.464-.3.024-.139-.141-.274-.183-.308-.652-.553-1.073-2.259-2.473-3.385a4.87,4.87,0,0,0-2.212-.978c-.133-.02-.272-.035-.414-.042a3.784,3.784,0,0,0-.387,0C304.446,216.57,303.058,217.385,303.132,217.849Z" transform="translate(-287.568 -216.502)" fill="#333"/>
            <path id="Tracé_1612" data-name="Tracé 1612" d="M288.444,280.1c-.78.079-1.578-.612-1.5-1.058.071-.412.882-.6,1.337-.625.434-.024,1.271.056,1.4.472S289.161,280.028,288.444,280.1Z" transform="translate(-274.474 -266.565)" fill="#fff"/>
            <path id="Tracé_1613" data-name="Tracé 1613" d="M290.454,294.941a1.4,1.4,0,0,1-1.234,1.046l-.042,0a1.4,1.4,0,0,1-1.452-.707,3.711,3.711,0,0,1-.43-1.695c.883-.263,1.215-.742,1.5-.8a9.111,9.111,0,0,0,1.652.4A3.743,3.743,0,0,1,290.454,294.941Z" transform="translate(-274.764 -278.192)" fill="#fff"/>
            <g id="Groupe_4024" data-name="Groupe 4024" transform="translate(0 1.789)">
                <path id="Tracé_1614" data-name="Tracé 1614" d="M221.82,232.07c.074.155.36.1.528.158.6.188.394,1.909.719,3.595.227,1.177.766,2.676,1.336,2.705a.253.253,0,0,0,.038,0c.69-.043,1.036-.836,1.036-.836s.074-.144.182-.414a11.671,11.671,0,0,0,.709-5.156c-.2-2.376.259-3.6,1.156-4.5.705-.707,1.466-.783,1.426-1.116-.041-.318-.777-.605-1.677-.652a4.654,4.654,0,0,0-1.307.114,4.3,4.3,0,0,0-1.54.727,4.938,4.938,0,0,0-1.073,1.086c-1.036,1.47-.967,3.226-1.441,3.938C221.882,231.769,221.759,231.943,221.82,232.07Z" transform="translate(-221.803 -225.851)" fill="#333"/>
            </g>
        </g>
    </g>
</svg>
