<svg xmlns="http://www.w3.org/2000/svg" width="23.933" height="34.56" viewBox="0 0 23.933 34.56">
  <path id="Icon_map-beauty-salon" data-name="Icon map-beauty-salon" d="M25.042,4.8h-5a.671.671,0,0,0,0,1.343h5V6.83h-5a.671.671,0,0,0,0,1.343h5v.7h-5a.671.671,0,0,0,0,1.343h5v.671h-5a.68.68,0,0,0,0,1.359h5v.672h-5a.671.671,0,0,0,0,1.343h5v.671h-5a.672.672,0,0,0,0,1.344h5v.688h-5a.671.671,0,0,0,0,1.343h5v.67h-5a.672.672,0,0,0,0,1.344h5V33.4a1.519,1.519,0,0,0,3.038,0V2.8A2.092,2.092,0,0,0,26.094.737H20.038a.671.671,0,0,0,0,1.343l5,.017v.67h-5a.672.672,0,0,0,0,1.344h5V4.8Zm-5.349,23.18c0-2.326-2.413-4.827-5.293-3.207V15.876L12.537,1.206A.547.547,0,0,0,11.948.72c-.228.006-.685.1-.735.486L9.36,15.876v8.895c-2.88-1.62-5.213.9-5.214,3.189a3.652,3.652,0,0,0,3.694,3.709A3.756,3.756,0,0,0,11.52,27.96V18.72h.72v9.24A3.636,3.636,0,0,0,15.6,31.635a5.119,5.119,0,0,0,1.031,3.374.859.859,0,0,0,1.382-.989,3.181,3.181,0,0,1-.454-2.74,3.62,3.62,0,0,0,2.131-3.3ZM7.923,29.807a1.831,1.831,0,1,1,1.818-1.83,1.831,1.831,0,0,1-1.818,1.83Zm6.171-1.83a1.818,1.818,0,1,1,1.819,1.83,1.838,1.838,0,0,1-1.819-1.83Z" transform="translate(-4.146 -0.72)" fill="#13e2ba"/>
</svg>
