<svg xmlns="http://www.w3.org/2000/svg" xmlns:xlink="http://www.w3.org/1999/xlink" viewBox="0 0 1481.28 821.8">
    <defs>
        <style>
            .cls-1,.cls-2,.cls-3,.cls-4,.cls-5{fill:none;stroke:#fd5e5a;stroke-miterlimit:10;}.cls-2{stroke-dasharray:11.82
            11.82;}.cls-3{stroke-dasharray:12.33 12.33;}.cls-4{stroke-dasharray:11.81
            11.81;}.cls-5{stroke-dasharray:11.93
            11.93;}.cls-6{fill:#e6edfb;}.cls-7{fill:url(#Dégradé_sans_nom_13);}.cls-8{fill:#f2f2f2;}.cls-14,.cls-9{fill:#c1dee2;}.cls-9{opacity:0.2;isolation:isolate;}.cls-10{opacity:0.7;}.cls-11{fill:#69a1ac;}.cls-12{fill:#89c5cc;}.cls-13{opacity:0.5;}.cls-15{fill:#dbcbf5;}.cls-16{fill:#b28b67;}.cls-17{fill:#191847;}.cls-18{fill:#c5cfd6;}.cls-19{fill:#1f28cf;}.cls-20{fill:#e4e4e4;}.cls-21{fill:#6b6863;}.cls-22{fill:#a9a9a9;}.cls-23{fill:#3d1046;}.cls-24{fill:#d5d5d7;}.cls-25{fill:#fff7cf;}.cls-26{fill:#514f4a;}.cls-27{fill:#999;}.cls-28{fill:url(#Dégradé_sans_nom_4);}.cls-29{fill:#ec1d45;}.cls-30{fill:#d3d3d3;}.cls-31{fill:#e1ddda;}.cls-32{fill:#e5e5e3;}.cls-33{fill:#0e0a07;}.cls-34{fill:#2d2926;}.cls-35{fill:#f98988;}.cls-36{fill:#080d07;}.cls-37{fill:#2b44ff;}.cls-38{fill:#cc0937;}
        </style>
        <linearGradient id="Dégradé_sans_nom_13" x1="388.11" y1="1074.91" x2="1130.57" y2="311.45"
                        gradientUnits="userSpaceOnUse">
            <stop offset="0" stop-color="#9bbefe"/>
            <stop offset="1" stop-color="#edbbec"/>
        </linearGradient>
        <linearGradient id="Dégradé_sans_nom_4" x1="461.12" y1="922.59" x2="479.94" y2="563.75"
                        gradientUnits="userSpaceOnUse">
            <stop offset="0" stop-color="#514f4a"/>
            <stop offset="1" stop-color="#6b6863"/>
        </linearGradient>
    </defs>
    <title>landing-illustration-v2</title>
    <g id="Scene">
        <path class="cls-1" d="M9.74,881.67q.79-2.91,1.59-5.78" transform="translate(-9.26 -60)"/>
        <path class="cls-2" d="M14.56,864.51C75.58,653.65,166.65,570.12,244.7,535c73.35-33,148.62-29.36,196.75-85.95"
              transform="translate(-9.26 -60)"/>
        <path class="cls-1" d="M445.18,444.44q1.83-2.34,3.59-4.81-2.86-.9-5.68-1.92" transform="translate(-9.26 -60)"/>
        <path class="cls-3" d="M431.7,433C360,399.87,313.28,310.15,325.1,295.84c7.45-9,42.17,6.86,76.06,25.42"
              transform="translate(-9.26 -60)"/>
        <path class="cls-1" d="M406.55,324.23l5.23,2.93q1.38-2.75,2.71-5.36" transform="translate(-9.26 -60)"/>
        <path class="cls-4" d="M420,311.35c25-46.69,37.87-55,45.06-53.11,20.59,5.31,31.62,103.1-9.72,171.46"
              transform="translate(-9.26 -60)"/>
        <path class="cls-1" d="M452.18,434.69l-.72,1.08c-.88,1.32-1.78,2.6-2.68,3.86,1.77.37,3.73.77,5.88,1.16"
              transform="translate(-9.26 -60)"/>
        <path class="cls-5"
              d="M466.45,442.61A213.36,213.36,0,0,0,504.3,444c50.31-2.66,87.51-22.94,104.2-32.5,128.6-73.6,245.56-200.43,369-228,168.89-37.73,374.33,104.89,381.83,210,.27,3.76,3.23,54.7-28.83,76-29.83,19.82-81,8.47-98-21-19.93-34.51,13.9-81.86,29-103C1320,263.66,1425.06,244,1478.59,238.55"
              transform="translate(-9.26 -60)"/>
        <path class="cls-1" d="M1484.52,238q3.14-.28,6-.49" transform="translate(-9.26 -60)"/>
        <circle class="cls-6" cx="760.74" cy="368" r="284"/>
        <circle class="cls-6" cx="1010.32" cy="217.39" r="87.49"/>
        <ellipse class="cls-7" cx="680.74" cy="774" rx="676" ry="43"/>
        <g id="Scene_Plants" data-name="Scene Plants">
            <path id="Leaf_Bottom" data-name="Leaf Bottom" class="cls-8"
                  d="M1233,743.74a46.77,46.77,0,0,1-1.31,5.94A17.92,17.92,0,0,0,1233,743.74Zm-8.36-47.51c-5.16-12.61-12.89-23.69-21.95-33.65,2.27-6.83,21.39-16.69,10-23-6.07-3.36-12.29,2.21-13.61,8.11-.91,4.06.48,9.15,2,13.08q-4.27-4.56-8.86-8.82c-4.22-3.93-8.53-7.74-12.89-11.51,7.18-6.75,14-26,4.35-29.19-14.22-4.64-7.37,21.66-6.38,26.6a.77.77,0,0,0,.66-.25c-.08.45-.17.93-.29,1.42-8.34-7.17-16.81-14.2-25-21.55.74-.55,1.91-2.63,2.83-3.74a42.08,42.08,0,0,0,5.53-8c2.3-4.62,4.51-12-1.58-14.71-6.62-3-9.77,5.37-9.81,10.35,0,3.44.91,6.71,1.39,10.08.15,1.05-.43,5.79,1,3.75a10.14,10.14,0,0,0,0,1.68q-2.2-2-4.38-4a1.78,1.78,0,0,0,.13-.57,1.72,1.72,0,0,0-2.46-1.62q-2.87-2.73-5.67-5.53c-3.94-4-7.94-8.06-11.91-12.24.86-.74.52-1.77,1.33-2.55s2.39-1.22,3.33-1.95a22.87,22.87,0,0,0,5.78-7.13c2.36-4.34,5.4-13.45-1.48-15.52-7.1-2.14-10.69,6.63-11.15,12.11a139.87,139.87,0,0,0,1.31,14.11c-7.35-7.76-14.57-15.81-21.12-24,2,0,7.61-4.09,8.75-5.2,2.78-2.71,7.19-8.69,2.32-11.85-4.33-2.81-9.66,1.26-11.51,5.21a55.53,55.53,0,0,0-1.46,9.43c-2.71-3.47-5.3-7-7.7-10.47q-2.41-3.5-4.51-7.17a3.23,3.23,0,0,0,1-.94c7.22-1.22,16.42-12.49,7.94-16.41-4-1.86-8.42,2-10.39,5.13a41.93,41.93,0,0,0-1.6,6.44,135.13,135.13,0,0,1-9.47-25.45,1.58,1.58,0,0,0,1.23-1.46c3.5-2,6.27-3.66,8.72-7.5,1.52-2.39,4.26-7.84-.21-9.16-5.81-1.72-9.46,7.15-9.94,11.52-.06.51-.05,2,0,3.34a2,2,0,0,0-.6,0c-1.33-5.44-2.4-11-3.24-16.47,3.17-1,3.72-17.68,1.61-20.05-4.72-5.31-8.05,2.36-7.8,6.42.3,4.78,2.46,9.13,5,13,.28.41.2.39.27-.18a1.14,1.14,0,0,0,.27.64,72.43,72.43,0,0,0-.27,7.32,169.52,169.52,0,0,0,2.18,19.09q.39,2.3.9,4.55a37,37,0,0,0-7.33-4.71c-3.49-1.56-8.87-3.25-12.34-.6a5.83,5.83,0,0,0-.66,8.71c2.8,3.13,7.91,3,11.72,2.71,1.72-.14,10.94-.88,8.75-2.38a7.44,7.44,0,0,1,.89.43q.3,1.11.64,2.21l-.16.1.16-.09a84.54,84.54,0,0,0,9.5,20.81,19.88,19.88,0,0,0-4.77-1.27c-4.81-.61-14.91,3.12-9.54,9.53,5.15,6.13,13.18-.45,19-1.35a273.56,273.56,0,0,0,18.48,22.85,1.56,1.56,0,0,0-1,.8c-2.63-1.34-5.37-3.24-7.8-3.76-3.51-.74-10.72-1.2-13.37,1.95-3.27,3.87.23,7,4.09,7.75,5.59,1.08,12.92-1.66,18.3-3.51a1.78,1.78,0,0,0,1.69-.56l.35-.11c6.64,7.3,13.53,14.36,20.38,21.26H1134a18.6,18.6,0,0,0-5.78-2.64c-4.81-1.17-10.46-1.18-14.36,2.3s-5.26,9.52-1.24,13.41c8,7.78,19.9-10,24-10.71,7,6.94,14.32,13.43,21.8,19.79a13.3,13.3,0,0,0-2.62-.54c-7.33-.7-24.54,8.29-15.54,17.13,7.84,7.71,16.92-7.12,23.24-12.32,7,5.92,14.13,11.81,21,17.92a20,20,0,0,0-11.41.07c-4.17,1.26-10.89,4.41-8.25,10s10.75,3.12,15,1.3c2.29-1,6.89-4.33,10.93-5.74,11,10.37,20.51,21.8,27.71,35.26a121,121,0,0,1,10.32,26.61c1.53,5.89,4.56,15.78,4,23.45C1235.52,728.38,1230.31,709.95,1224.69,696.23ZM1073.33,504.82c-.61,0-2.58-6.36-3.26-7.32a20.72,20.72,0,0,0-7.88-6.37c-4.92-2.44-11.47.39-8.74,6.83,2.18,5.14,8.75,6.5,14.49,6.8C1069.92,504.88,1071.78,504.86,1073.33,504.82Z"
                  transform="translate(-9.26 -60)"/>
            <path id="Leaf_Top" data-name="Leaf Top" class="cls-9"
                  d="M220.9,545A21.86,21.86,0,0,0,222.1,549,8.45,8.45,0,0,1,220.9,545Zm6.23-33.91a83.43,83.43,0,0,1,16-24.34c-1.66-4.94-15.61-12.06-7.27-16.65,4.43-2.43,9,1.6,9.94,5.86.66,2.93-.35,6.61-1.43,9.46q3.12-3.3,6.47-6.38c3.08-2.84,6.23-5.6,9.42-8.33-5.24-4.88-10.2-18.82-3.16-21.11,10.38-3.36,5.38,15.66,4.65,19.23a.57.57,0,0,1-.48-.18c.06.33.13.68.21,1,6.09-5.19,12.28-10.28,18.26-15.59a27.14,27.14,0,0,1-2.07-2.7,30.33,30.33,0,0,1-4-5.81c-1.68-3.34-3.29-8.67,1.16-10.64,4.84-2.14,7.13,3.88,7.16,7.48,0,2.49-.66,4.85-1,7.29-.11.76.32,4.19-.73,2.71a7.32,7.32,0,0,1,0,1.22q1.61-1.44,3.2-2.9a1.28,1.28,0,0,1-.09-.41,1.26,1.26,0,0,1,1.79-1.17q2.1-2,4.14-4c2.88-2.88,5.8-5.83,8.7-8.86-.63-.53-.38-1.28-1-1.84s-1.75-.88-2.43-1.41a16.54,16.54,0,0,1-4.22-5.15c-1.72-3.14-3.94-9.72,1.09-11.22,5.18-1.55,7.81,4.79,8.14,8.76a100.12,100.12,0,0,1-1,10.2c5.37-5.61,10.65-11.44,15.43-17.37-1.45,0-5.56-3-6.39-3.75-2-2-5.25-6.28-1.69-8.57,3.16-2,7.06.91,8.41,3.77a39.66,39.66,0,0,1,1.06,6.82c2-2.51,3.87-5,5.63-7.58q1.76-2.53,3.29-5.18a2.34,2.34,0,0,1-.7-.68c-5.27-.88-12-9-5.79-11.86,2.95-1.35,6.14,1.43,7.59,3.71a30,30,0,0,1,1.16,4.65,97.14,97.14,0,0,0,6.92-18.41,1.14,1.14,0,0,1-.9-1.05c-2.56-1.44-4.58-2.65-6.36-5.42-1.11-1.72-3.1-5.67.15-6.63,4.24-1.25,6.91,5.17,7.25,8.33,0,.37,0,1.43,0,2.41a1.45,1.45,0,0,1,.44,0c1-3.93,1.76-7.92,2.38-11.91-2.31-.74-2.71-12.78-1.17-14.5,3.45-3.84,5.88,1.7,5.69,4.64a19.27,19.27,0,0,1-3.69,9.39c-.2.29-.14.28-.2-.13a.82.82,0,0,1-.2.46,51.73,51.73,0,0,1,.19,5.3,121.49,121.49,0,0,1-1.6,13.8q-.29,1.66-.66,3.29a27.1,27.1,0,0,1,5.36-3.4c2.55-1.14,6.48-2.36,9-.44a4.19,4.19,0,0,1,.48,6.3c-2,2.26-5.77,2.18-8.56,2-1.26-.1-8-.63-6.39-1.72a5.52,5.52,0,0,0-.65.31q-.22.8-.46,1.6l.12.07-.12-.06a60.93,60.93,0,0,1-6.94,15,14.65,14.65,0,0,1,3.48-.92c3.51-.44,10.89,2.26,7,6.89-3.77,4.44-9.62-.32-13.89-1a198.56,198.56,0,0,1-13.51,16.53,1.14,1.14,0,0,1,.7.58c1.92-1,3.92-2.35,5.7-2.72,2.56-.53,7.82-.87,9.76,1.4,2.38,2.8-.17,5.07-3,5.61-4.08.78-9.43-1.2-13.36-2.53a1.3,1.3,0,0,1-1.23-.41l-.26-.09c-4.85,5.27-9.89,10.37-14.89,15.37h.16a13.67,13.67,0,0,1,4.22-1.91c3.51-.85,7.64-.86,10.49,1.65s3.84,6.88.9,9.7c-5.88,5.63-14.53-7.2-17.49-7.73-5.09,5-10.46,9.72-15.93,14.31a9.73,9.73,0,0,1,1.91-.39c5.35-.51,17.92,6,11.34,12.38-5.73,5.58-12.35-5.15-17-8.9-5.15,4.29-10.32,8.54-15.35,13a14.77,14.77,0,0,1,8.33,0c3,.91,7.95,3.18,6,7.25s-7.85,2.26-10.92.95c-1.67-.71-5-3.13-8-4.15a100.28,100.28,0,0,0-20.25,25.51,87.07,87.07,0,0,0-7.54,19.25c-1.12,4.27-3.33,11.42-2.89,17C219.21,534.37,223,521,227.13,511.12Zm110.13-138.9c.44,0,1.84-4.54,2.33-5.23a14.81,14.81,0,0,1,5.63-4.55c3.51-1.74,8.19.28,6.24,4.88-1.56,3.67-6.25,4.64-10.35,4.86C339.7,372.26,338.37,372.24,337.26,372.22Z"
                  transform="translate(-9.26 -60)"/>
            <g id="Plant_Right" data-name="Plant Right" class="cls-10">
                <path id="Leaf_Me_Alone_" data-name="Leaf Me Alone " class="cls-11"
                      d="M1149.79,532.8c13.65-.71,30.55,7.25,32,22.1,1.06,10.79.74,21.55,2.38,32.32a87.22,87.22,0,0,0,7.87,24.71c3.64,7.54,11.18,14,13.14,22,1.25,5.13.56,12.35-1.17,17.38-2.09,6.11-1,5.62,3.2,10.74,8.19,10,15.56,20.33,20.77,32.32,7.51,17.27,12.44,37.45,9.66,56.35-.35,2.4-.77,11-4.07,11.62-3.69.67-2-4.25-1.77-5.84,1.25-10.15,2.36-19,.85-29.34-5.86-39.79-34.42-66-53-99.76-1-1.74-3.18-5.89-4.68-8.62-2.37-4.32-4.75-12.54-8-15.74-6-6-.48,6.1.69,8.41,1.49,2.93,3.13,6,4.65,8.61,7,11.89,14.77,24.88,22,37.14-31.14,7.11-53.1-30.33-61.47-54.95-6.89-20.28-15.15-67.7,16.94-69.45"
                      transform="translate(-9.26 -60)"/>
                <path id="Leaf_Me_Alone_2" data-name="Leaf Me Alone 2" class="cls-12"
                      d="M1332.81,495.12c-22.82,1.81-37.47,16.87-44.29,37.93-3.68,11.35-4.1,23-6.14,34.68-3.07,17.55-9.69,30.85-22.61,43.36a43.63,43.63,0,0,0-9,12.1,51.55,51.55,0,0,0-10.45,14.93c-3.4,7.5-4.36,16.51-.44,24,1.05,2,3.69,6,6.42,7.88-10.22,21.76-15.84,45.59-15.2,69.39.38,14.37,1.08,28.74,1.9,43.09.22,3.85,1.47,10.22,3.36,3.75,1.72-5.91-.44-15.19-.64-21.36-1-30.08-1.81-57.43,10.58-85.54q1.95-4.42,4.11-8.77l.24-.16.16.13c.09-.16.22-.36.36-.57a7.75,7.75,0,0,0,1.11-1.56c1.1-1.52,2.34-3.31,2.35-4.29v0A405,405,0,0,1,1280,628.15c-.07.08,9.73-13.25,8.21-5.88-.73,3.55-7.94,10.32-10.85,14.09a351,351,0,0,0-20.28,29.25c-.84.49-2,2.87-2.9,4.65-.48.9-.92,1.81-1.36,2.6,22.26,7.35,39.57-7.46,51.38-24.69l0-.06c3.59-4.76,7.27-9.49,11.87-13.25,7.67-6.28,15.89-7.39,24.93-10.48,24.66-8.43,35.15-40.39,38.48-64.11,3.76-26.76-14.62-67.79-46.71-65.15"
                      transform="translate(-9.26 -60)"/>
                <path id="Leaf_Me_Alone_3" data-name="Leaf Me Alone 3" class="cls-12"
                      d="M1287.72,420.19c-23.42,24.38-34.74,58.19-43.7,90-10,35.5-16.62,71.56-16.87,108.47-.17,24.25-.83,48.66.59,72.88a257.78,257.78,0,0,0,2.72,25.73c.11.7,3.16,19.7,6.08,15.27,1.66-2.52-3.13-19.71-3.49-22.58a370.09,370.09,0,0,1-2.41-48.63c.16-26.75-.63-53.36,2.08-80a90.18,90.18,0,0,1,1.67-12c1-4.14-.27-2.33,3-4s7.1-1.37,10.4-3.36c13.07-7.93,19.76-28.29,25-41.65,6-15.28,9.57-31.57,12.46-47.65a336.06,336.06,0,0,0,4.5-35.52,92.5,92.5,0,0,1,1-11.42c.2-1,1.2-2.77,1.16-3.65-.08-1.87-1.21-3-1.3-4.55q-1.47,1.32-2.88,2.71"
                      transform="translate(-9.26 -60)"/>
                <path id="Base-3" class="cls-12" d="M1160,745a73,73,0,0,0,146,0" transform="translate(-9.26 -60)"/>
                <path id="Leaf_Me_Alone_4" data-name="Leaf Me Alone 4" class="cls-11"
                      d="M1311.48,772a11.21,11.21,0,0,1-7.65-2.69,15.35,15.35,0,0,1-4.12-6.63c-1.88-5.41-2.05-12.05-2.17-16.45-.15-5.51-.54-11.94-2.35-17.74a31.93,31.93,0,0,0-3.56-7.77,31.38,31.38,0,0,0-6-6.94c-1.23-1.07-2.55-2.08-3.82-3.06s-2.31-1.78-3.42-2.72l-.53-.45c-3.57-3-7.26-6.1-7.72-11-.25-2.73.19-4.73,1.31-6a5.65,5.65,0,0,1,4.42-1.57,18.19,18.19,0,0,1,3.76.46c.2,0,.73.24,1.46.52,2.1.79,5.6,2.12,7.47,2.12.58,0,1-.13,1.12-.39a1.12,1.12,0,0,0,0-1c-.43-1-1.91-2-4.4-2.72-5-.55-9.75-1-12.56-1a9.33,9.33,0,0,0-1.82.13,27.63,27.63,0,0,0-13.45,7.5,47.76,47.76,0,0,0-9.28,13.39c-5.66,11.63-7.83,24.59-8.61,31.28-.21,1.81-.4,3.77-.59,6H1235a130.16,130.16,0,0,1,1.43-14.46c1.1-6.48,3.88-19,10.2-29.83a44.27,44.27,0,0,1,10-12.12,27.7,27.7,0,0,1,13.83-6.2,20.47,20.47,0,0,1,2.23-.08c1.45,0,3.2.06,4.92.16a12.84,12.84,0,0,1,5.46-1.61c.76-.06,1.55-.09,2.33-.09a39.61,39.61,0,0,1,13.16,2.41,56.68,56.68,0,0,1,12.57,6.39,65.59,65.59,0,0,1,10.86,9.12,55.09,55.09,0,0,1,8,10.58c3.28,5.72,5,12.56,5,20.35a65.9,65.9,0,0,1-3.51,20.93,47.92,47.92,0,0,1-7,13.83c-3.78,4.85-8.08,7.34-12.79,7.39Z"
                      transform="translate(-9.26 -60)"/>
            </g>
            <g id="Plant_Left" data-name="Plant Left" class="cls-13">
                <path id="Leaf-4" class="cls-11"
                      d="M269.22,396.44c4.2-6,12-21.21,17.92-23.35,3.81-1.38,2.7,12.89,2.75,15.61a228,228,0,0,1-2.11,31.42c-2.28,18.82-9.73,35.58-20,51.6-5.26,8.24-11.43,16.58-20,21.73-3.93,2.37-8.67,2.76-12.55,4.81-4.52,2.38-2.06.46-4.1,5.17-2.83,6.55-3.74,15-5,22-6,32.06-20.58,201.55-18.05,234.17.22,2.89-3.81,3.58-4,.05-1.07-18.71,8.19-148.29,12.85-190.66s9.39-79.81,14.13-94.47c5.75-17.79,16.13-39.17,24.77-55.76A197.23,197.23,0,0,1,269.22,396.44Z"
                      transform="translate(-9.26 -60)"/>
                <path id="Leaf-5" class="cls-14"
                      d="M300.41,604.28c10.93-8,22.77,7.12,12.88,15.15-5.47,4.44-11.19,2.86-14.41-.84-2.09,2.55-4,5.21-5.93,7.46-5.73,6.86-11.14,13.88-16.31,21.06-10.74,14.92-20,30.69-29.58,46.17-9.5,15.28-18.93,30.63-27.54,46.29-7.3,13.27-17,28.88-19.52,43.43,3.79-30.85,18.17-60.51,35.3-87.71,17-27,36.48-56.44,62.78-77.73a9.32,9.32,0,0,1,2-13Z"
                      transform="translate(-9.26 -60)"/>
                <path id="Leaf-6" class="cls-11"
                      d="M92.91,529c6.12,1.2,16.12,15,21.16,20.31a197.55,197.55,0,0,1,16.56,19.95,337.38,337.38,0,0,1,29.3,47.79,444.19,444.19,0,0,1,32.6,84.84,350,350,0,0,1,9.89,55.65c.35,3.52,4,30.69-1.28,31.42-4.79.66-3.31-20.63-3.54-23.52C195,732.8,187.18,701,176.3,670.23c-2.37-6.71-4.57-14.92-8.36-21-2.73-4.35,0-2.83-4.82-4.48-4.12-1.41-8.81-1.07-13-2.8-9.16-3.76-16.5-11.05-22.92-18.39-12.5-14.26-22.4-29.68-27.56-47.95a230.85,230.85,0,0,1-7-30.76C92.28,542.2,89,528.26,92.91,529Z"
                      transform="translate(-9.26 -60)"/>
                <path id="Leaf-7" class="cls-12"
                      d="M117.06,298.72c23.05,40,42,83.88,54.22,128.36,7.41,26.95,12.59,54.6,17.74,82.05,8,42.51,15.51,85,17.66,128.27,2.16,43.51,6.43,93.7-7.82,135.6,7.12-42.55.34-87.84-.86-130.65-.57-20.44-2.24-40.68-4.41-61-2.11-19.71-5.57-39.33-8.79-58.88q-2.35-14.29-4.89-28.54c-.5-2.84-.71-11.25-2.51-13.19s-11-2.75-13.95-4.18a74.88,74.88,0,0,1-16.19-11.3c-9.32-8.29-17.43-19.12-23.83-29.8C108.63,410.76,102.71,380.61,103,352c.06-5.56,9-65.38,5.4-66.21q.32-.38.61-.79Q113.1,291.82,117.06,298.72Z"
                      transform="translate(-9.26 -60)"/>
                <path id="Leaf-8" class="cls-12"
                      d="M365.85,442.89c.36-.51,2.67-4.08,1.5-3.85,2.38-.46-3.26,3.93,2.65,1.24-2.81,2.65-1.19,6.1-1.15,9.66a86.55,86.55,0,0,1-2,17.21,118,118,0,0,1-8,26c-8.13,18.17-21.93,35.65-38.31,47-8.09,5.61-16,7.52-25.24,10.1-5.83,1.63-6.29,4.64-9.38,10.3-6.44,11.78-12.76,23.51-18.44,35.68-6.78,14.54-13.36,29.09-19.57,43.88C227,690,209.94,741.58,201,795c-.22-31.48,7.06-63.9,16.25-93.91,6.69-21.86,15.4-42.94,24.69-63.8,2.25-5.05,5.66-11.56,6.62-17.13.67-3.91-1.38-7.67-2.31-11.79-3.65-16-3.39-34-.18-50.13,3.54-17.78,13.77-26,31.07-28.55,6.33-.92,14.37-.58,20.18-3.28,6.32-2.94,8.93-12.6,12.53-18.8a255.67,255.67,0,0,1,34.31-46.67,111.28,111.28,0,0,1,11.74-10.79C358.51,448.05,364.06,445.47,365.85,442.89Z"
                      transform="translate(-9.26 -60)"/>
                <path id="Base-4" class="cls-14"
                      d="M166.85,766.73a5,5,0,0,1,4.95-5.73h61.42a5,5,0,0,1,4.95,5.73l-4.75,32.19A20,20,0,0,1,213.62,816H191.38a20,20,0,0,1-19.79-17.08Z"
                      transform="translate(-9.26 -60)"/>
            </g>
            <g id="Maceta">
                <path id="Base-5" class="cls-8"
                      d="M280.42,780.46c0,21.29,1.68,38.54,24.23,38.54s24.23-17.26,24.23-38.54"
                      transform="translate(-9.26 -60)"/>
                <path id="Fill_27" data-name="Fill 27" class="cls-8"
                      d="M311.35,767.17a44.57,44.57,0,0,0-2.21,4.37,59.74,59.74,0,0,1,.61-9.23c.79-5.33,2-10.63,3.12-15.92.81-3.8.76-10.64,3.84-13.67.84-.66,1,.63,1,1.19,0,.12,0-2.28-.82-1.86-4.87,2.52-6.45,10.43-8,14.39a76.21,76.21,0,0,0-5,17.7,39.66,39.66,0,0,0-.34,4.55c-.17-.4-.32-.81-.49-1.22a82.22,82.22,0,0,0-11.34-19c-1.17-1.46-15.81-15.86-17-13.66a1.52,1.52,0,0,0,.71.8s0,0,0,0c.86,1.39,3.31,3.54,4.07,4.75a92,92,0,0,1,4.92,9.5c3.2,6.74,6.17,13.55,9,20.37.67,1.59,1.37,3.17,2.08,4.74-7.34-10.59-17.14-20.2-30.62-25.71,4.6,2.34,7.62,6.75,10.73,10.13,3.75,4.07,7.7,8,11.46,12.1,4.43,4.8,9.65,9.85,13.91,15.16,4.13,8.67,8.14,17.35,10.62,26.46-1-3.15-.08-7.5-.25-10.8a73,73,0,0,0-.87-7.85,16.1,16.1,0,0,1,1.17,3.44c-.19-1.83-.4-3.66-.63-5.47.59-1.7,1.17-3.28,1.56-4.58a117.8,117.8,0,0,1,7.64-19.68,175.66,175.66,0,0,1,10.22-17.46c1.75-2.65,3.53-5.28,5.3-7.92,1.16-1.73,2.26-4.5,3.87-6.15-10.41,9.52-21.78,19.1-28.38,30.51"
                      transform="translate(-9.26 -60)"/>
            </g>
            <g id="Top_Leaves" data-name="Top Leaves">
                <path id="Leaf-9" class="cls-8"
                      d="M1254.69,642.82c-1.21,4-.65,16.81,3.19,21.83-12.52,20.19-21.14,40.64-23.48,64.66-.28,2.9-1.66,12.5,3.05,7.52,2.58-2.73,2.06-16.86,2.79-20.64,2.5-12.94,8-25.05,14.31-36.52,2.43-4.39,5-8.73,7.62-13a6.3,6.3,0,0,0,2.3-.92c3.85-2.41,7.59-13.51,9.94-17.42,1.6-2.66,3.28-5.27,5-7.84q6.41-9.11,13-18h0c4.24-5.76,8.57-11.46,13.25-16.83-.06.08,9.06-12.46,11-9.12,1.79,3-7.09,9.84-8.6,11.62-16.1,17.68-29.43,38.89-40.85,59.9,12.2,1.65,22.08-2.76,30-12.66,5.29-6.63,7.74-15.78,11.95-23.08,5.26-9.14,11.7-14.38,21.39-18.36,17.2-7.06,26.15-18.87,27.91-38,1.42-15.46-2.36-32.73-16.46-41.14-9.16-4.52-21,.78-27.8,7.09-9.41,8.67-12.43,21.34-15.4,33.29-5,20.33-12.66,28.91-26.81,42.81-7.27,7.14-14.27,14.92-17.26,24.87"
                      transform="translate(-9.26 -60)"/>
                <path id="Leaf-10" class="cls-8"
                      d="M1416.19,654.43c7.14,8.43-5.36,18.54-12.83,21.35-9.53,3.59-14.54-1.57-23.2-4.09a22.5,22.5,0,0,0-10.07-.72c-4.92.83-9.82,3.7-14.85,4.86-5.81,1.35-11.36-1.13-13.67-6.51a74.09,74.09,0,0,1,27.06-10.39,95.88,95.88,0,0,1,15.68-1.45c1.27,0,8.46,1,8.37-.93s-4.44-1-5.77-1.05a93.49,93.49,0,0,0-30.7,4.57c-9.54,3.22-17.47,9-26.12,13.85-4.05,2.28-22.25,15.52-23.87,13.59s16.89-13.1,18.4-14c12.48-7.75,26.25-15.75,40.43-20.13,8.6-2.66,17.89-4.86,26.94-5.35,7.31-.39,19.26.6,24.23,6.46"
                      transform="translate(-9.26 -60)"/>
                <path id="Leaf_Me_Alone_5" data-name="Leaf Me Alone 5" class="cls-8"
                      d="M1455.05,615c2.88,0,5.51-1.54,7.81-4.47a28.84,28.84,0,0,0,4.3-8.36,39.45,39.45,0,0,0,2.14-12.65,24.46,24.46,0,0,0-3.06-12.3,33.34,33.34,0,0,0-4.91-6.39,40,40,0,0,0-6.64-5.51,34.77,34.77,0,0,0-7.68-3.86,24.43,24.43,0,0,0-8-1.46c-.48,0-1,0-1.42.05a7.89,7.89,0,0,0-3.33,1c-1.05-.07-2.12-.1-3-.1a12.68,12.68,0,0,0-1.36,0,17,17,0,0,0-8.45,3.75,26.82,26.82,0,0,0-6.09,7.33,55.67,55.67,0,0,0-6.23,18,77.29,77.29,0,0,0-.88,8.92h2.35c.12-1.42.24-2.66.37-3.8a61.28,61.28,0,0,1,5.26-18.91,28.87,28.87,0,0,1,5.67-8.09,16.93,16.93,0,0,1,8.22-4.53,5.76,5.76,0,0,1,1.12-.08c1.72,0,4.61.3,7.67.63,1.52.46,2.43,1,2.69,1.64a.67.67,0,0,1,0,.63c-.1.16-.33.24-.69.24a17.68,17.68,0,0,1-4.55-1.28c-.45-.17-.78-.29-.9-.32a11.23,11.23,0,0,0-2.3-.28,3.46,3.46,0,0,0-2.71,1,4.6,4.6,0,0,0-.79,3.59c.28,3,2.53,4.84,4.71,6.65l0,0,.31.26c.68.57,1.39,1.11,2.08,1.64s1.59,1.21,2.34,1.86a18.82,18.82,0,0,1,5.87,8.89,39.82,39.82,0,0,1,1.44,10.72c.07,2.66.18,6.68,1.33,9.94a9.27,9.27,0,0,0,2.52,4,6.89,6.89,0,0,0,4.67,1.62Z"
                      transform="translate(-9.26 -60)"/>
            </g>
        </g>
        <rect class="cls-15" x="369.5" y="109.5" width="78" height="78"
              transform="translate(215.39 -305.36) rotate(45)"/>
        <rect class="cls-15" x="1112.1" y="120.1" width="19.8" height="19.8"
              transform="translate(411.29 -815.3) rotate(45)"/>
    </g>
    <g id="Humain">
        <g id="Tete">
            <g id="Head-7">
                <path id="Head-8" class="cls-16"
                      d="M655.3,275.5l16-74.77c-8.94-10.5-15-23.37-14-37.79,2.91-41.55,60.75-32.41,72-11.44s9.92,74.16-4.62,77.91c-5.8,1.49-18.15-2.17-30.72-9.74l7.89,55.83Z"
                      transform="translate(-9.26 -60)"/>
            </g>
            <path id="hair-4" class="cls-17"
                  d="M702.8,127.34c-6.14-1-22.68-1.7-25.73-1.7-1.94,0-4.06.44-5.21-1.34-.95-1.47-.6-3.94-.88-5.64-.33-2-.79-3.93-1.26-5.87A59.68,59.68,0,0,0,663.52,97a48.39,48.39,0,0,0-22.94-20.77,73.65,73.65,0,0,0-34.82-4.78c-12.5,1-23.81,5.14-35.61,9a74.63,74.63,0,0,1-34.78,3.35c-11.84-1.82-20.8-8.24-30.8-14.34-10.23-6.24-21.92-10.32-34-9.39-11.29.88-21.7,5.54-31,11.77-8.74,5.82-15.94,12.84-20,22.71-4.38,10.61-4.37,22.26,2.83,31.64,10.44,13.59,29.81,17.11,45.92,16.76a87.74,87.74,0,0,0,27.27-5c11.74-4.13,21.88-11.13,32.86-16.8a85.51,85.51,0,0,1,16.06-6.43c5.42-1.53,10.75-2.23,15.66,1a74,74,0,0,0,15.78,9,50.88,50.88,0,0,0,17.8,3.2c11.81-.09,23.44-3.77,34.91-6.23,9.35-2,19.35-4,28.89-2.08,4,.81,9.79,2.47,11.22,6.6-24.18,4.38-33.68,34.29-26.86,56.24,3.68,11.84,25.79,25.7,34.39,19.47,5.45-3.95,2.14-9.12,0-12.55-4.1-6.55-5.5-15,2.08-19.52,6.54-3.93,13.42,5.41,13.55,5.4,1.8-.14,17.34-8.93,28-21.74,10.56.63,12.16-6.34,9.64-12S711.29,128.73,702.8,127.34Z"
                  transform="translate(-9.26 -60)"/>
        </g>
        <g id="Jambes">
            <g id="Objects_Seat_Cube_2" data-name="Objects Seat Cube 2">
                <path id="Seat-10" class="cls-18"
                      d="M750.44,803.58H527.17a31.06,31.06,0,0,1-31.06-31.06V593.91a31.06,31.06,0,0,1,31.06-31.06H750.44a31.06,31.06,0,0,1,31.06,31.06V772.52A31.06,31.06,0,0,1,750.44,803.58ZM558.23,617.2a7.78,7.78,0,0,0-7.77,7.77V741.46a7.78,7.78,0,0,0,7.77,7.77H719.37a7.77,7.77,0,0,0,7.77-7.77V625a7.77,7.77,0,0,0-7.77-7.77Z"
                      transform="translate(-9.26 -60)"/>
            </g>
            <g id="Bottom_Sitting_Sweat_Pants" data-name="Bottom Sitting Sweat Pants">
                <path id="Skin-15" class="cls-16"
                      d="M868.3,676.57c-12.36-43.31-21.77-81.42-24.15-95.65-5.67-33.94,43.61-35.92,50.12-19C904.14,587.4,921.35,671.28,942,798l-23.64,6.9C893.52,749.81,875.53,701.87,868.3,676.57ZM629.85,632.09c22.82-9,102.75-37.25,141.3-45.24,11.08-2.3,21.81-4.43,31.91-6.35,30-5.73,45.55,48.4,16.65,52.56-72,10.35-174,21-182.72,22.25a11.13,11.13,0,0,1-1.51.1C624,655.4,616.1,637.52,629.85,632.09Z"
                      transform="translate(-9.26 -60)"/>
                <path id="Leg_Back" data-name="Leg Back" class="cls-19"
                      d="M821.81,572a25.24,25.24,0,0,1-.33-6.43L698,502.75V489.07H712.7s179.15,45.65,183.09,58.51c0,.09.05.18.07.27l.18.24c23.67,32.55,37.85,191.48,42.5,203.38l-45.36,6.77C875.84,693.89,820.33,649.08,821.81,572Z"
                      transform="translate(-9.26 -60)"/>
                <g id="Right_Shoe-8" data-name="Right Shoe-8">
                    <path id="shoe-12" class="cls-20"
                          d="M642.41,630a3.88,3.88,0,0,0-4.34-3.36l-.19,0-13.36,2.39a124.73,124.73,0,0,0-13,8.28l48,98.44S674,733.45,671,724.69s-4.86-14.63-4.86-14.63l-1.89-55.69a1.94,1.94,0,0,0-2-1.88h-.06l-8.57.54s-7.3-5.91-9.63-10.7Z"
                          transform="translate(-9.26 -60)"/>
                </g>
                <g id="Right_Shoe-9" data-name="Right Shoe-9">
                    <path id="shoe-13" class="cls-20"
                          d="M912.5,792a3.88,3.88,0,0,0-4.92,2.43l-.06.19-3.7,13.06A124.72,124.72,0,0,0,905.56,823h109.5s4.27-14.11-4.93-15.24-15.28-2-15.28-2L944,783a1.94,1.94,0,0,0-2.56,1l0,.05L938.11,792s-8.51,4-13.84,4Z"
                          transform="translate(-9.26 -60)"/>
                </g>
            </g>
        </g>
    </g>
    <g id="Chat">
        <path class="cls-21"
              d="M578.22,591l-9.55,11.81c0-.09,0-.22-.06-.34v0c0-.15-.07-.3-.1-.45a.09.09,0,0,0,0-.05,3.13,3.13,0,0,0-.09-.43.15.15,0,0,1,0-.06l-.09-.45s0,0,0-.05-.07-.3-.1-.45a.11.11,0,0,1,0-.06c0-.16-.08-.3-.13-.45a.45.45,0,0,0,0-.05c0-.17-.08-.31-.11-.46s0,0,0-.05c0-.17-.08-.32-.13-.48v-.05c-.05-.17-.1-.31-.15-.48v-.05c-.06-.17-.1-.32-.16-.49s0,0,0-.05l-.16-.5a.45.45,0,0,1,0-.05l-.16-.49s0,0,0,0v0l-.08-.22c0-.09-.06-.19-.08-.29s0,0,0,0a1.17,1.17,0,0,0-.08-.27,2.69,2.69,0,0,1-.08-.27s0,0,0,0c-.07-.19-.14-.38-.2-.55v0l-.42-1.18a10.54,10.54,0,0,0-.4-1Z"
              transform="translate(-9.26 -60)"/>
        <path class="cls-22"
              d="M511.17,604.4a11.09,11.09,0,0,1,1.39.25A8.26,8.26,0,0,0,511.17,604.4ZM510.59,584h0l.52-.08ZM493.21,662.4l-.57-.51c.42.39.82.75,1.22,1.07C493.63,662.78,493.43,662.6,493.21,662.4Zm-4.86-6.22a12.78,12.78,0,0,0,1.44,2.63A13.29,13.29,0,0,1,488.35,656.18ZM487,646.36a22.51,22.51,0,0,0,1.36,9.82A22.79,22.79,0,0,1,487,646.36Z"
              transform="translate(-9.26 -60)"/>
        <path class="cls-22"
              d="M553.57,579.18c4.66-4.14,12.75-9.74,21.18-8-9.47-2.15-20.56,2.48-26.09,5.28l-.92-.41-.31-.13-.51-.21-.34-.14-.07,0,0,0c-.38-.17-.76-.3-1.1-.44l-.07.1,0,0a.08.08,0,0,1,0,0,23.2,23.2,0,0,1-2.29,4h0c-.14.2-.28.39-.44.57s-.26.33-.41.5l-.53.6-.56.56-.58.53-.4.32a11.32,11.32,0,0,1-1.77,1.17c-.16.09-.32.17-.48.25a10,10,0,0,1-1,.42,10.49,10.49,0,0,1-2.27.53,11.49,11.49,0,0,1-1.5.1h-.46l-.53-.05a2.3,2.3,0,0,1-.39-.06l-.39-.08a4.15,4.15,0,0,1-1.51-.71l-.44-.38-.2-.21a7.29,7.29,0,0,1-.51-.65,11,11,0,0,0-1.38-1.7,3,3,0,0,0-.41-.31,3.25,3.25,0,0,0-.81-.39l-.32-.08a3.36,3.36,0,0,0-.34-.06,1.72,1.72,0,0,0-.23,0h-.67l-.45,0a7.71,7.71,0,0,0-.78.08l-.3.05-.58.11-.92.23-1,.3-.41.14-1.33.48c-.63.24-1.29.51-2,.81-.31.15-.65.27-1,.39s-.61.23-.93.32l-.61.2-.63.17-.71.18q-.55.13-1.09.22l-.54.08-.52.08-.56.05-.54,0-.73,0-.87,0-.87,0-.36,0c-.25,0-.49,0-.74,0l-.85-.09-.93-.15-.91-.17c-.59-.13-1.19-.28-1.76-.46s-1.15-.36-1.69-.57c-.28-.1-.55-.21-.82-.33s-.44-.19-.65-.3a5.31,5.31,0,0,1-.49-.24c-.28-.13-.56-.28-.84-.44a7.64,7.64,0,0,1-.7-.41c-.16-.08-.3-.18-.45-.27s-.28-.18-.42-.27a1.77,1.77,0,0,1-.23-.16c-.22-.14-.43-.29-.64-.45-3.71,1.57-7.65,3.36-11.86,5.35l-1.82.87-1.81.87c-4.66,2.24-9.64,4.71-15,7.4l0,0h0a10.13,10.13,0,0,1,3.4,6.47l0,0s0,0,0,.05c.11.27.49,1.13,1,2.38,0,.05,0,.09.06.16s.13.31.19.49l.16.43,0,.09.18.47c.31.88.66,1.88,1,2.95.1.33.21.67.29,1,.06.18.1.34.15.51s.09.32.14.47a.13.13,0,0,0,0,.06c.15.52.28,1.06.4,1.61.08.38.18.75.25,1.14l.09.52c0,.08,0,.17.05.24s.05.27.07.42.08.51.13.78.08.53.11.8c0,.1,0,.22,0,.32a2.58,2.58,0,0,0,0,.28c.05.54.1,1.07.13,1.62a3.22,3.22,0,0,1,0,.45,19.77,19.77,0,0,1-.1,3.25c0,.18,0,.35-.07.53s0,.26-.06.4-.06.36-.1.54-.1.48-.17.71-.09.33-.15.49-.08.27-.14.41-.07.2-.11.3-.11.31-.19.47-.07.16-.11.23l-.06.15-.15.28a8.54,8.54,0,0,1-1.43,2c-.16.17-.32.32-.49.48s-.38.31-.57.46-.4.28-.61.42c-10.15,6.25-12.41-7.58-27-.19l-.38.19c-.33.17-.66.33-1,.49a25.88,25.88,0,0,1-5,1.73c-.27.06-.53.13-.79.17s-.64.14-1,.19l-1,.14c-.31,0-.61.08-.92.1s-.47.05-.7.06-.47,0-.71,0a4.35,4.35,0,0,1-.52,0,23.78,23.78,0,0,1-2.44,0h-.14l-1-.08h-.05l-.63-.07c-.21,0-.42-.05-.63-.09l-.63-.1-.4-.08-.4-.08q-.53-.11-1-.25l-.59-.17-.21-.06c-.23-.06-.45-.15-.67-.23l-.66-.24-.65-.27-.44-.2c-.14-.06-.27-.13-.42-.21l-.45-.23-.07,0-.44-.24-.42-.26a10.5,10.5,0,0,1-1.05-.73c-.18-.13-.34-.26-.5-.4a6.66,6.66,0,0,1-.51-.44h0c-.17-.15-.32-.31-.48-.47l-.26-.28,0,0c-.18-.2-.35-.41-.51-.6a0,0,0,0,1,0,0l-.2-.24c-.18-.25-.35-.5-.51-.76s-.19-.29-.27-.45a.53.53,0,0,1-.09-.17,1.47,1.47,0,0,1-.18-.33.06.06,0,0,1,0-.05c-.05-.09-.08-.18-.13-.25s0-.08-.05-.14-.17-.36-.24-.54A1.39,1.39,0,0,1,411,623l-.13-.35-.19-.64c-.05-.21-.1-.43-.15-.66-66.85,38.35-73.13,111.47-73.13,141.83a19.76,19.76,0,0,0,.57,4.64,56.33,56.33,0,0,0-11.09,24.6,45.29,45.29,0,0,0-.52,11.13c.92,11.42,6.49,21.76,17.48,30.15a74.91,74.91,0,0,0,15.67,9c37.09,16.09,112.87,22.1,151.32,6.08,1.43-.6,2.8-1.23,4.11-1.88,3.67-1.82,5-5.94,2.95-9.2A8.16,8.16,0,0,0,507.65,835c-1,.35-8.12,4.62-26.62,6.93a237,237,0,0,1-51.19.8,262.24,262.24,0,0,1-35.9-5.81c-15.75-3.69-36.81-10-44.89-22.53a24.51,24.51,0,0,1-4-14.22,35.11,35.11,0,0,1,4.24-15.72A98.63,98.63,0,0,0,367.72,797a163.41,163.41,0,0,0,24.78,10.86c.51,0,2.1-.07,4.51-.2l1.76-.08c1.57-.08,3.37-.19,5.38-.28l.6,0,.61,0a8.75,8.75,0,0,1-.33-.88c-4-2.9-7.44-7.39-10.17-12.42-6.39-11.8-9-26.66-6.88-31.35,4-8.73,14.9,5.69,27.51,1.91,10.1-3.05,21.84-22.23,20.18-36.17-5.2-8.84-13.2-15-28.76-19.24-2.87-.65-5.65-1.24-8.14-1.9-10.33-1.93-20.62-1.14-29.59,4.78,5.35-5.56,12.59-8.4,20-9.14a4.5,4.5,0,0,1-1-4.46c3.15-11.78,28.35-5.71,40.77-3.8s-.51-30,12.56-33.07S452.87,711,459.1,717.73c.72.78,2.13,1.25,4,1.4h0l0,0a.15.15,0,0,0,.06-.05s.09,0,.13-.06a.07.07,0,0,1,.06,0,.7.7,0,0,1,.11-.07l.08-.05.19-.1.06,0,.11-.06.08,0a.56.56,0,0,1,.14-.07s0,0,.06-.05a.79.79,0,0,0,.14-.06s0,0,.08-.05l0,0h0l0,0,0,0,.2-.1.07,0,0,0,0,0,.08,0,.08,0s0,0,0,0l.18-.09h0l.05,0a.31.31,0,0,1,.1,0l0,0,.07,0a.86.86,0,0,0,.14-.07.35.35,0,0,0,.13-.06l.11,0,.09-.06a1,1,0,0,0,.16-.06.12.12,0,0,1,.07,0l.14-.06a.55.55,0,0,0,.11-.07.27.27,0,0,0,.1,0,.48.48,0,0,0,.15-.07l.42-.19a1.76,1.76,0,0,1,.19-.07s.07,0,.1-.05l.11-.05a1,1,0,0,1,.16-.06l.1-.05.07,0,.05,0,.07,0h0l.05,0,.13-.05.13-.05.11-.05.17-.06,0,0v0l.07,0,.11,0h0l.25-.1.09-.05a1.33,1.33,0,0,0,.19-.06l.15-.07a.31.31,0,0,1,.1,0l.15-.06c.05,0,.1-.05.15-.06a1,1,0,0,0,.16-.06l.08,0a.57.57,0,0,1,.18-.07l.09-.05a1,1,0,0,0,.19-.06l.1-.05.18-.06.5-.2,0,0a1.28,1.28,0,0,0,.18-.07l.13,0,.23-.1h0a.64.64,0,0,0,.2-.07l.15-.05.16-.05a.32.32,0,0,1,.14-.06l.15-.05.11-.05.59-.22.05,0,.32-.15a.13.13,0,0,0,.09,0l.23-.06s0,0,0,0,0,0,0,0c.27-.08.55-.19.83-.3l.08,0,1.06-.4h.06l.15-.05.2-.08,1.15-.41a2.61,2.61,0,0,1,.45-.17l3.21-1.2.09,0,.11,0,.07,0,.1,0a.1.1,0,0,0,.06,0c.68-.25,1.35-.49,2-.75h0l.25-.09.05,0,.11,0,.2-.08.08,0c.2-.07.42-.15.63-.24h.05l.33-.14h0l.27-.09a2.62,2.62,0,0,1,.3-.13s0,0,.06,0l.18-.06.19-.07a.31.31,0,0,1,.1,0,1.39,1.39,0,0,0,.25-.11h0l.1,0s.05,0,.07,0a.6.6,0,0,0,.18-.06h0l.27-.11a.47.47,0,0,1,.11,0A.64.64,0,0,1,488,709a1,1,0,0,1,.19-.06l1-.39a.38.38,0,0,0,.11-.05h0l.15-.05,0,0h0l.08,0,.09,0,.08,0,.4-.16.07,0c.24-.08.48-.18.71-.28l.22-.09.05,0h0l.16-.06.11,0,.09,0,.22-.09.05,0,.08,0,.07,0a.16.16,0,0,1,.07,0l.06,0h0l.11-.05.13-.05a1.84,1.84,0,0,1,.21-.09l.07,0,.07,0,.05,0h0l.61-.27h0l.15-.06.19-.08.24-.09.06,0,.05,0,.1,0a.21.21,0,0,1,.08,0,.32.32,0,0,0,.1-.05l0,0,.23-.1.27-.13a3,3,0,0,1,.38-.17l.15-.07.15-.06a5,5,0,0,1,.48-.23l.1,0,0,0s0,0,.06,0l.09,0,.07,0s0,0,.06,0h.06l.07,0,.08,0s.05,0,.06,0l.05,0a.26.26,0,0,0,.09,0l.09,0,.09-.05.09,0,.19-.1.14-.06.14-.07c7.53-3.84,17.33-11,25-15.93l1.67-1.05c.56-.36,1.12-.7,1.66-1,3.38-2,6.1-3.36,7.65-3.36h.24v0h.31a.22.22,0,0,0,.11,0h0a.3.3,0,0,1,.11,0h.18l0,0a.17.17,0,0,1,.1,0H535l.11,0h.05l.15,0,.11,0h.05l0,0h0a0,0,0,0,0,0,0h0a8.09,8.09,0,0,0-8.1-8.46,3.81,3.81,0,0,0-.75.07,1.36,1.36,0,0,0-.28.06,6.07,6.07,0,0,0-.74.2l-.21.07a5.54,5.54,0,0,0-.66.24l-.36.16-.65.28-.7.35c-.16.07-.31.15-.48.24s-.31.16-.47.25l-.53.29-1.42.79c-1.33.77-2.69,1.58-4,2.31l-.6.33c-.63.34-1.23.66-1.8.94l-.53.24-.41.18a7.67,7.67,0,0,1-.95.36,3.74,3.74,0,0,1-.45.15,5.23,5.23,0,0,1-.64.17l-.26,0-.32,0-.36,0-.33,0h0l-.25-.05a1.44,1.44,0,0,1-.34-.1,1.91,1.91,0,0,1-.25-.14l0,0a1.14,1.14,0,0,1-.18-.14,1.67,1.67,0,0,1-.23-.24l-.07-.09a.86.86,0,0,1-.09-.17.36.36,0,0,1-.07-.13l-.11-.26a4.31,4.31,0,0,1-.16-.58,3.45,3.45,0,0,1,0-.34,5.68,5.68,0,0,1,0-.76,13.84,13.84,0,0,1,.19-2.08,14.79,14.79,0,0,0,.16-5.35c-1.8.61-3.52,1.25-5.2,2-2.74,1.16-6.69,3-11,5.08l-2.92,1.37-3.06,1.42-1.4.63-1.39.63h0l-1.58.69c.6-.49,1.25-1,1.91-1.51.92-.7,1.88-1.41,2.89-2.13.42-.31.85-.61,1.29-.92s1-.69,1.51-1l1-.68c.34-.24.69-.46,1-.68l.52-.34.53-.33,1.61-1,1.62-1,1.23-.7c.41-.24.81-.46,1.23-.69s1.08-.59,1.64-.88,1.24-.65,1.86-.95l.85-.42.83-.4.73-.33c.71-.32,1.43-.64,2.13-.92a24.35,24.35,0,0,0-3.61-1.57l-1.16-.46-.74-.32-.76-.34c-.71-.34-1.46-.73-2.24-1.2l-.68-.41c-.33-.22-.68-.45-1-.7l-.55-.41-.68-.51-.64-.52c-.4-.32-.8-.69-1.22-1.07-.22-.2-.44-.42-.66-.64l-.63-.64c-.22-.22-.43-.44-.64-.67a10.86,10.86,0,0,1-.93-1.15,12.78,12.78,0,0,1-1.44-2.63,22.51,22.51,0,0,1-1.36-9.82c0-.57.07-1.17.14-1.76l.09-.89c0-.3.06-.6.11-.91s.08-.6.14-.91c.09-.61.21-1.23.33-1.84.05-.28.11-.55.17-.83s.15-.68.23-1,.15-.63.23-.94.16-.63.24-.94.17-.63.25-.94q.27-.94.56-1.88c.11-.36.23-.74.35-1.1s.27-.83.42-1.25h0c.28-.81.57-1.62.9-2.42s.56-1.46.87-2.17.59-1.43.92-2.14.64-1.4,1-2.07.66-1.35,1-2,.68-1.3,1-1.94c.18-.31.34-.63.52-.93a59.89,59.89,0,0,1,3.84-6c.44-.58.87-1.15,1.29-1.66l.6-.7c.21-.24.41-.47.61-.68A17.14,17.14,0,0,1,504.3,607l.42-.33.42-.31c.2-.14.39-.27.57-.39l.48-.3.45-.26.64-.31a8.47,8.47,0,0,1,1.06-.41,2.87,2.87,0,0,1,.49-.14,2.83,2.83,0,0,1,.48-.1,5,5,0,0,1,.55-.07,5.67,5.67,0,0,1,.59,0q.36,0,.72,0a8.26,8.26,0,0,1,1.39.25l.72.21h0l.56.2.53.2.67.28c.53.22,1.09.48,1.68.75l2,.95.91.43.19.08,1.17.52a60.19,60.19,0,0,0,8,2.93l1.41.4c1.05.27,2.16.53,3.34.78l1.79.35.94.17c.53.08,1.07.18,1.63.25.36.06.73.11,1.1.16l.23,0,.7.09,1.42.16a105,105,0,0,0,10.69.61,52.82,52.82,0,0,0,7.88-.52q.48-.06.94-.16a24.1,24.1,0,0,0,2.54-.56l.68-.2a16.45,16.45,0,0,0,2.08-.78l.5-.25a4.53,4.53,0,0,0,.45-.24h0l.41-.25a1.77,1.77,0,0,0,.23-.16,5.93,5.93,0,0,0,.74-.56,1.73,1.73,0,0,0,.2-.19,2.46,2.46,0,0,0,.33-.36l.11-.15a1.3,1.3,0,0,0,.15-.21v-.08c0-.68-.08-1.38-.15-2.07a2.78,2.78,0,0,1,0-.41s0,0,0,0a3,3,0,0,0,0-.44v0c0-.13,0-.27,0-.42s-.05-.3-.06-.46h0q0-.2-.06-.44h0c0-.15,0-.28-.06-.43v0s0-.06,0-.09l0-.11a1.94,1.94,0,0,0,0-.24v0c0-.15-.05-.28-.06-.43a2.09,2.09,0,0,1,0-.25,1.47,1.47,0,0,0,0-.21s0-.05,0-.07l0-.09v0a2.15,2.15,0,0,1-.05-.25h0s0,0,0-.06a.26.26,0,0,0,0-.09c0-.09,0-.22-.06-.34v0c0-.15-.07-.3-.1-.45a.09.09,0,0,0,0-.05,3.13,3.13,0,0,0-.09-.43.15.15,0,0,1,0-.06l-.09-.45s0,0,0-.05-.07-.3-.1-.45a.11.11,0,0,1,0-.06c0-.16-.08-.3-.13-.45a.45.45,0,0,0,0-.05c0-.17-.08-.31-.11-.46s0,0,0-.05c0-.17-.08-.32-.13-.48v-.05c-.05-.17-.1-.31-.15-.48v-.05c-.06-.17-.1-.32-.16-.49s0,0,0-.05l-.16-.5a.45.45,0,0,1,0-.05l-.16-.49s0,0,0,0-.05-.17-.08-.25-.06-.19-.08-.29,0,0,0,0a1.17,1.17,0,0,0-.08-.27,2.69,2.69,0,0,1-.08-.27s0,0,0,0c-.07-.19-.14-.38-.2-.55v0l-.42-1.18a10.54,10.54,0,0,0-.4-1,21.8,21.8,0,0,0-1.2-2.48c-.26-.49-.54-1-.84-1.43s-.54-.81-.82-1.21l-2.51,3.14-.67.83-.29-.27h0l-3.09-2.76-6.41-5.76.06-.06A46.52,46.52,0,0,1,553.57,579.18ZM407.39,718.41c12.18,8.12-1.24,4.36-13.29,17.43s-25.33,23.31-31.29,16.85,3.07-28.1,3.07-28.1S395.21,710.29,407.39,718.41Zm4.7-53.79c-10.25,6.31-27.13,19.53-27.13,6S400.78,640,410.3,647.19C410.3,647.19,422.34,658.31,412.09,664.62Z"
              transform="translate(-9.26 -60)"/>
        <path class="cls-23"
              d="M569.54,645.7a6.76,6.76,0,0,1-.47.69.68.68,0,0,1-.13.18h0l-.17.2a22,22,0,0,1-2.51,2.74c-.44-2.4-1.46-7.06-1.46-7.06C565.35,642.46,569.54,645.7,569.54,645.7Z"
              transform="translate(-9.26 -60)"/>
        <path class="cls-24"
              d="M511.17,604.4a11.09,11.09,0,0,1,1.39.25A8.26,8.26,0,0,0,511.17,604.4Zm-18.53,57.48c.42.39.82.75,1.22,1.07-.22-.18-.43-.36-.65-.56Zm-2.85-3.09a13.29,13.29,0,0,1-1.44-2.63A12.78,12.78,0,0,0,489.79,658.8ZM487,646.36a22.51,22.51,0,0,0,1.36,9.82A22.79,22.79,0,0,1,487,646.36Z"
              transform="translate(-9.26 -60)"/>
        <path class="cls-24"
              d="M569.39,637.51c-.05-3.6-.08-8.1-.08-12.9,0-5,.31-9,.23-13.1,0-.61,0-1.24-.05-1.88a1.3,1.3,0,0,1-.15.21.63.63,0,0,1-.11.15,2.46,2.46,0,0,1-.33.36,1.73,1.73,0,0,1-.2.19,5.93,5.93,0,0,1-.74.56,1.77,1.77,0,0,1-.23.16l-.41.25h0a4.53,4.53,0,0,1-.45.24l-.5.25a16.45,16.45,0,0,1-2.08.78l-.68.2a24.1,24.1,0,0,1-2.54.56q-.45.09-.94.16a52.82,52.82,0,0,1-7.88.52,105,105,0,0,1-10.69-.61l-1.42-.16-.7-.09-.23,0c-.38,0-.74-.09-1.1-.16-.55-.07-1.09-.17-1.63-.25l-.94-.17-1.79-.35c-1.18-.25-2.28-.51-3.34-.78l-1.41-.4a60.19,60.19,0,0,1-8-2.93l-1.17-.52-.19-.08-.91-.43-2-.95c-.58-.27-1.15-.53-1.68-.75l-.67-.28-.53-.2-.56-.2h0l-.72-.21a11.09,11.09,0,0,0-1.39-.25q-.36,0-.72,0a5.67,5.67,0,0,0-.59,0,5,5,0,0,0-.55.07l-.48.1a4.3,4.3,0,0,0-.49.14,8.47,8.47,0,0,0-1.06.41l-.64.31-.45.26-.48.3c-.19.11-.38.25-.57.39l-.42.31-.42.33a17.14,17.14,0,0,0-1.49,1.44c-.21.21-.41.44-.61.68l-.6.7c-.43.51-.85,1.07-1.29,1.66a59.89,59.89,0,0,0-3.84,6c-.18.3-.34.61-.52.93q-.53,1-1,1.94c-.33.66-.68,1.32-1,2s-.65,1.38-1,2.07-.61,1.42-.92,2.14-.58,1.44-.87,2.17-.61,1.61-.9,2.42h0c-.15.42-.28.83-.42,1.25s-.24.74-.35,1.1q-.3.94-.56,1.88c-.08.31-.18.63-.25.94s-.17.63-.24.94-.16.63-.23.94-.16.68-.23,1-.11.55-.17.83c-.13.61-.24,1.23-.33,1.84-.05.3-.09.6-.14.91s-.07.6-.11.91l-.09.89c-.06.59-.1,1.19-.14,1.76a22.79,22.79,0,0,0,1.36,9.82,13.29,13.29,0,0,0,1.44,2.63,10.86,10.86,0,0,0,.93,1.15c.21.23.42.45.64.67l.63.64c.22.22.44.44.66.64l.57.51c.22.2.43.39.65.56l.64.52.68.51.55.41c.35.25.7.48,1,.7l.68.41c.78.47,1.53.85,2.24,1.2l.76.34.74.32,1.16.46a24.35,24.35,0,0,1,3.61,1.57c1.08-.45,2.13-.84,3.16-1.18l1.22-.33c-2.63-4.9,2.65-22.33,5.41-25.33,1.26-1.35,4.41-.78,8.81.83,5.69,2.08,13.48,5.89,21.93,9.43.82.34,1.63.63,2.4.87a17.36,17.36,0,0,0,17.42-4.18c-.44-2.4-1.46-7.06-1.46-7.06.54,0,4.73,3.24,4.73,3.24S569.46,642.46,569.39,637.51Zm-7.44-10.45c-.39-6.22-6.6-8-10.84-10.49C558.77,616,564.35,622.35,561.95,627.05Z"
              transform="translate(-9.26 -60)"/>
        <path class="cls-23" d="M494.26,706.4l.1,0a.21.21,0,0,1,.08,0Z" transform="translate(-9.26 -60)"/>
        <path class="cls-23" d="M569,604.57a1.94,1.94,0,0,0,0-.24s0,0,0,0A1.7,1.7,0,0,1,569,604.57Z"
              transform="translate(-9.26 -60)"/>
        <path class="cls-23" d="M568.78,646.77c.12-.13.22-.26.3-.38C569,646.51,568.9,646.62,568.78,646.77Z"
              transform="translate(-9.26 -60)"/>
        <path class="cls-23" d="M568.87,603.84v0a2.09,2.09,0,0,1,0-.25A1.47,1.47,0,0,0,568.87,603.84Z"
              transform="translate(-9.26 -60)"/>
        <path class="cls-23" d="M568.78,603.36v.06s0-.05,0-.07Z" transform="translate(-9.26 -60)"/>
        <path class="cls-23" d="M567.12,596.69v0c0-.08-.05-.17-.08-.25Z" transform="translate(-9.26 -60)"/>
        <path class="cls-24"
              d="M566.44,683.71a5.66,5.66,0,0,1-.56,2.74,5.85,5.85,0,0,1-2.39,2.57c-6.64,3.8-21.55-3.83-27.86-5.42a8.09,8.09,0,0,0-8.1-8.46,3.81,3.81,0,0,0-.75.07,1.36,1.36,0,0,0-.28.06,6.07,6.07,0,0,0-.74.2l-.21.07a5.54,5.54,0,0,0-.66.24l-.36.16-.65.28-.7.35c-.16.07-.31.15-.48.24s-.31.16-.47.25l-.53.29-1.42.79c-1.33.77-2.69,1.58-4,2.31l-.6.33c-.63.34-1.23.66-1.8.94l-.53.24-.41.18a7.67,7.67,0,0,1-.95.36,3.74,3.74,0,0,1-.45.15,5.23,5.23,0,0,1-.64.17l-.26,0-.32,0-.36,0-.33,0h0l-.25-.05a1.44,1.44,0,0,1-.34-.1,1.91,1.91,0,0,1-.25-.14l0,0a1.14,1.14,0,0,1-.18-.14,1.67,1.67,0,0,1-.23-.24l-.07-.09a.86.86,0,0,1-.09-.17.36.36,0,0,1-.07-.13l-.11-.26a4.31,4.31,0,0,1-.16-.58,3.45,3.45,0,0,1,0-.34,5.68,5.68,0,0,1,0-.76,13.84,13.84,0,0,1,.19-2.08,14.79,14.79,0,0,0,.16-5.35l.95-.32,1.84-.58,2.14-.65,1.32-.4L519.6,669l1.53-.46,2-.61c.33-.1.67-.2,1-.31l.45-.15c1.28-.41,2.6-.85,4-1.33.45-.15.9-.31,1.34-.48.61-.22,1.23-.44,1.86-.68,1.4-.53,2.84-1.09,4.3-1.71l1.18-.5,2.41-1.05c3.15-.87,13.55,4.65,20.45,11.3l2.53,4.38,2.73,5,.25.25A7.72,7.72,0,0,0,566.44,683.71Z"
              transform="translate(-9.26 -60)"/>
        <path class="cls-25"
              d="M566.44,683.71a6.82,6.82,0,0,1-.91-1.14l-.25-.25-2.73-5L560,673C563.67,676.5,566.35,680.33,566.44,683.71Z"
              transform="translate(-9.26 -60)"/>
        <path class="cls-24"
              d="M575.85,571.48l-12.36,15.45-.61.78-2.51,3.14-.67.83-.29-.27h0l-3-2.76-6.41-5.83a46.52,46.52,0,0,1,3.62-3.63c4.66-4.14,12.75-9.74,21.18-8C575.12,571.28,575.49,571.38,575.85,571.48Z"
              transform="translate(-9.26 -60)"/>
        <path class="cls-23" d="M561.95,627.05c-.39-6.22-6.6-8-10.84-10.49C558.77,616,564.35,622.35,561.95,627.05Z"
              transform="translate(-9.26 -60)"/>
        <polygon class="cls-26" points="550.12 531.4 547.04 528.63 547.1 528.63 550.12 531.4"/>
        <path class="cls-26" d="M556.36,588.63h-.06l-6.41-5.76.06-.06Z" transform="translate(-9.26 -60)"/>
        <path class="cls-23" d="M545.35,575.15l-.07.1s0-.07.05-.1Z" transform="translate(-9.26 -60)"/>
        <path class="cls-21"
              d="M545.33,575.15s0,.07-.05.1l0,0a.08.08,0,0,1,0,0l-2.29,4h0c-.14.2-.28.39-.44.57s-.26.33-.41.5l-.53.6-.56.56-.58.53-.4.32a11.32,11.32,0,0,1-1.77,1.17c-.16.09-.32.17-.48.25a10,10,0,0,1-1,.42,10.49,10.49,0,0,1-2.27.53,11.49,11.49,0,0,1-1.5.1h-.46l-.53-.05a2.3,2.3,0,0,1-.39-.06l-.39-.08a4.15,4.15,0,0,1-1.51-.71l-.44-.38-.2-.21a7.29,7.29,0,0,1-.51-.65,11,11,0,0,0-1.38-1.7,3,3,0,0,0-.41-.31,3.25,3.25,0,0,0-.81-.39l-.32-.08a3.36,3.36,0,0,0-.34-.06,1.72,1.72,0,0,0-.23,0h-.67l-.45,0a7.71,7.71,0,0,0-.78.08l-.3.05-.58.11c-.29.06-.59.15-.92.23s-.66.19-1,.3l-.41.14-1.33.48c-.63.24-1.29.51-2,.81-.31.15-.65.27-1,.39s-.61.23-.93.32l-.61.2-.63.17-.71.18q-.55.13-1.09.22l-.54.08-.52.08-.56.05-.54,0-.73,0-.87,0-.87,0-.36,0c-.25,0-.49,0-.74,0l-.85-.09-.93-.15-.91-.17c-.59-.14-1.19-.28-1.76-.46s-1.15-.36-1.69-.57l-.82-.33c-.22-.09-.44-.19-.65-.3a5.31,5.31,0,0,1-.49-.24c-.28-.13-.56-.28-.84-.44a7.64,7.64,0,0,1-.7-.41c-.16-.08-.3-.18-.45-.27s-.28-.18-.42-.27a1.77,1.77,0,0,1-.23-.16c-.22-.14-.43-.29-.64-.45,3.35-1.42,6.5-2.65,9.51-3.71a91.09,91.09,0,0,1,11.26-3.25h0a57.83,57.83,0,0,1,9.19-1.29A47.42,47.42,0,0,1,545.33,575.15Z"
              transform="translate(-9.26 -60)"/>
        <path class="cls-26" d="M545.24,575.33a23.2,23.2,0,0,1-2.29,4Z" transform="translate(-9.26 -60)"/>
        <path class="cls-25" d="M535.54,683.59l-.05,0h0Z" transform="translate(-9.26 -60)"/>
        <path class="cls-25" d="M534.85,683.44l-.07,0h.05Z" transform="translate(-9.26 -60)"/>
        <path class="cls-25" d="M534.65,683.41l-.29-.05h0a.22.22,0,0,0,.11,0h0A.3.3,0,0,1,534.65,683.41Z"
              transform="translate(-9.26 -60)"/>
        <path class="cls-25" d="M534.09,683.35a.17.17,0,0,0-.1,0h.09Z" transform="translate(-9.26 -60)"/>
        <path class="cls-21"
              d="M539.57,661.68l-2.41,1.05-1.18.5c-1.47.61-2.91,1.18-4.3,1.71-.63.24-1.24.46-1.86.68-.45.17-.9.33-1.34.48-1.36.48-2.67.93-4,1.33l-.45.15c-.32.11-.66.21-1,.31l-2,.61-1.53.46-5.26,1.55-1.32.4-2.14.65-1.84.58-.95.32c-1.8.61-3.52,1.25-5.2,2-2.74,1.16-6.69,3-11,5.08l-2.92,1.37-3.06,1.42-1.4.63-1.39.61c.09-.28.21-.54.31-.81.92-.7,1.88-1.41,2.89-2.13.42-.31.85-.61,1.29-.92s1-.69,1.51-1l1-.68c.34-.24.69-.46,1-.68l.52-.34.53-.33,1.61-1,1.62-1,1.23-.7c.41-.24.81-.46,1.23-.69s1.08-.59,1.64-.88,1.24-.65,1.86-.95l.85-.42.83-.4.73-.33c.71-.32,1.43-.64,2.13-.92,1.08-.45,2.13-.84,3.16-1.18l1.22-.33c2.53-.65,8.2-2,14.22-3.32C529.94,663.38,535.64,662.22,539.57,661.68Z"
              transform="translate(-9.26 -60)"/>
        <path class="cls-23"
              d="M483.41,682.74c-.1.27-.22.53-.31.81h0l-1.58.69C482.11,683.77,482.75,683.25,483.41,682.74Z"
              transform="translate(-9.26 -60)"/>
        <path class="cls-23" d="M497.7,704.77l-.14.07-.09.05-.09,0,.19-.1Z" transform="translate(-9.26 -60)"/>
        <path class="cls-23" d="M495.46,705.85l-.1.05-.21.1h-.06A3,3,0,0,1,495.46,705.85Z"
              transform="translate(-9.26 -60)"/>
        <path class="cls-23" d="M496.23,705.49l-.07,0-.13.06-.28.13A5,5,0,0,1,496.23,705.49Z"
              transform="translate(-9.26 -60)"/>
        <path class="cls-23" d="M496.33,705.45l0,0-.07,0Z" transform="translate(-9.26 -60)"/>
        <path class="cls-23" d="M494.45,706.32a.21.21,0,0,0-.08,0l-.1,0Z" transform="translate(-9.26 -60)"/>
        <path class="cls-23" d="M494.81,706.14l0,0-.22.09,0,0Z" transform="translate(-9.26 -60)"/>
        <path class="cls-23" d="M495.08,706a2.51,2.51,0,0,0-.23.13h0Z" transform="translate(-9.26 -60)"/>
        <path class="cls-23" d="M493.9,706.55s0,0,0,0l-.15.05Z" transform="translate(-9.26 -60)"/>
        <path class="cls-23" d="M492.7,707.07l-.06,0-.15.05A1.84,1.84,0,0,1,492.7,707.07Z"
              transform="translate(-9.26 -60)"/>
        <path class="cls-23" d="M492,707.37l0,0h-.05Z" transform="translate(-9.26 -60)"/>
        <path class="cls-23" d="M492.25,707.27l0,0-.13,0a.11.11,0,0,1,.07,0l.06,0Z" transform="translate(-9.26 -60)"/>
        <path class="cls-23" d="M492.36,707.22l-.07,0h0Z" transform="translate(-9.26 -60)"/>
        <path class="cls-23" d="M491.44,707.6l-.11.06h0Z" transform="translate(-9.26 -60)"/>
        <path class="cls-23" d="M490.23,708.1l-.07,0-.2.08-.13,0Z" transform="translate(-9.26 -60)"/>
        <path class="cls-23" d="M489.75,708.3l-.09,0-.08,0Z" transform="translate(-9.26 -60)"/>
        <path class="cls-23" d="M487.25,709.28l-.06,0h0Z" transform="translate(-9.26 -60)"/>
        <path class="cls-26"
              d="M490,793.89c-5.41-2.57-13.21-4.39-20.91-5.7,0-.13-.11-.27-.17-.4,6-.4,12.07-.78,18.28-1.16A50.19,50.19,0,0,1,490,793.89Z"
              transform="translate(-9.26 -60)"/>
        <path class="cls-27"
              d="M487.17,786.64c-6.21.39-12.32.76-18.28,1.16-6.34-16.1-11.29-41.8-13.72-56.12,2.75-5.72,4.71-9.69,5.66-10.73a11.67,11.67,0,0,1,2.3-1.82h0l0,0a.15.15,0,0,0,.06-.05s.09,0,.13-.06a.07.07,0,0,1,.06,0,.7.7,0,0,1,.11-.07l.08-.05.19-.1.06,0,.11-.06.08,0a.56.56,0,0,1,.14-.07s0,0,.06-.05a.79.79,0,0,0,.14-.06s0,0,.08-.05l0,0h0l0,0,0,0,.2-.1.07,0,0,0,0,0,.08,0,.08,0s0,0,0,0l.18-.09h0l.16-.06,0,0,.07,0a.86.86,0,0,0,.14-.07.35.35,0,0,0,.13-.06l.11,0,.09-.06a1,1,0,0,0,.16-.06.12.12,0,0,1,.07,0l.14-.06a.55.55,0,0,0,.11-.07.27.27,0,0,0,.1,0,.48.48,0,0,0,.15-.07l.42-.19a1.76,1.76,0,0,1,.19-.07s.07,0,.1-.05l.11-.05a1,1,0,0,1,.16-.06l.1-.05.07,0,.13-.05h0l.05,0,.13-.05.13-.05.11-.05.17-.06,0,0,.07,0h0l.11,0h0l.25-.1c.08,0,.18-.08.28-.11l.15-.07a.31.31,0,0,1,.1,0l.15-.06c.05,0,.1-.05.15-.06a1,1,0,0,0,.16-.06l.08,0a.57.57,0,0,1,.18-.07l.09-.05a1,1,0,0,0,.19-.06l.1-.05.18-.06.5-.2,0,0a1.28,1.28,0,0,0,.18-.07l.13,0,.23-.1h0a.64.64,0,0,0,.2-.07l.15-.05.16-.05a.32.32,0,0,1,.14-.06l.15-.05.11-.05.59-.22.05,0c.22-.09.43-.17.65-.24,0,0,0,0,0,0s0,0,0,0c.27-.08.55-.19.83-.3l.08,0,1.06-.4h.06l.15-.05.2-.08,1.15-.41a2.61,2.61,0,0,1,.45-.17l3.21-1.2.09,0,.11,0,.07,0a.27.27,0,0,0,.1,0,.1.1,0,0,0,.06,0c.68-.25,1.35-.49,2-.75h0l.25-.09.05,0c-.08,1.56-.17,3.28-.27,5.15-.73.43-1.49.9-2.24,1.41-.58.4-1.18.81-1.75,1.27a27.36,27.36,0,0,0-2.15,1.86c-.32.3-.65.63-1,1a0,0,0,0,1,0,0c-.45.49-.9,1-1.31,1.55l-.42.56c-.27.36-.52.75-.76,1.15s-.47.8-.68,1.21a15.39,15.39,0,0,0-1.7,7c0,14.05,7.12,20.89,5.36,34.95-1.1,8.9,4.5,14.31,8.76,17.06a.92.92,0,0,0-.05-.16,10.19,10.19,0,0,0,.41,1C486.78,785.78,487,786.21,487.17,786.64Z"
              transform="translate(-9.26 -60)"/>
        <path class="cls-26"
              d="M486.11,784.23c0,.12.08.23.12.33-4.25-2.75-9.87-8.16-8.76-17.07,1.75-14.05-5.36-20.89-5.36-34.95,0-8.39,6.62-13.92,12-17,0,.55,0,1.09-.07,1.64s0,1.13-.07,1.72c0,1.16-.1,2.35-.15,3.59,0,.3,0,.61,0,.93-.08,2.19-.17,4.45-.23,6.79-.08,2.71-.15,5.53-.22,8.38,0,2-.07,4-.08,6,0,3.61,0,7.23,0,10.74l0,2.07v.6c0,.78,0,1.54.07,2.3,0,2,.13,4,.23,5.89,0,.43,0,.88.07,1.29s0,.86.08,1.27c.07,1.26.17,2.47.28,3.63.07.84.15,1.64.23,2.43.12,1,.23,2,.36,2.86,0,.36.1.71.17,1.06.08.58.18,1.14.3,1.67.07.36.15.73.22,1.06.18.79.36,1.51.58,2.15A5.9,5.9,0,0,0,486.11,784.23Z"
              transform="translate(-9.26 -60)"/>
        <path class="cls-26" d="M485.9,783.58c.07.22.15.43.22.65A5.9,5.9,0,0,1,485.9,783.58Z"
              transform="translate(-9.26 -60)"/>
        <path class="cls-26" d="M485.32,781.43c.18.78.38,1.51.58,2.15C485.68,782.93,485.5,782.22,485.32,781.43Z"
              transform="translate(-9.26 -60)"/>
        <path class="cls-26" d="M484.8,778.7c.1.58.2,1.14.3,1.67C485,779.84,484.89,779.28,484.8,778.7Z"
              transform="translate(-9.26 -60)"/>
        <path class="cls-26" d="M484.27,774.77c.12,1,.23,2,.36,2.86C484.51,776.73,484.39,775.77,484.27,774.77Z"
              transform="translate(-9.26 -60)"/>
        <path class="cls-23" d="M484.11,715.51c0,.53,0,1.09-.08,1.66,0-.55,0-1.09.07-1.64A0,0,0,0,1,484.11,715.51Z"
              transform="translate(-9.26 -60)"/>
        <path class="cls-23" d="M484,718.88c0,1.16-.1,2.35-.15,3.59C483.86,721.24,483.91,720,484,718.88Z"
              transform="translate(-9.26 -60)"/>
        <path class="cls-26" d="M483.76,768.71c.08,1.24.17,2.47.28,3.63C483.93,771.18,483.83,770,483.76,768.71Z"
              transform="translate(-9.26 -60)"/>
        <path class="cls-26" d="M483.61,766.15c0,.45,0,.88.07,1.29C483.64,767,483.63,766.58,483.61,766.15Z"
              transform="translate(-9.26 -60)"/>
        <path class="cls-23" d="M483.78,723.4c-.08,2.17-.17,4.44-.23,6.79C483.61,727.86,483.69,725.59,483.78,723.4Z"
              transform="translate(-9.26 -60)"/>
        <path class="cls-23" d="M483.31,758c0,.78,0,1.54.07,2.3C483.35,759.49,483.33,758.73,483.31,758Z"
              transform="translate(-9.26 -60)"/>
        <path class="cls-26" d="M483.26,755.29c0,.7,0,1.39,0,2.07Z" transform="translate(-9.26 -60)"/>
        <path class="cls-23" d="M483.33,738.57c0,2-.07,4-.08,6C483.26,742.54,483.3,740.55,483.33,738.57Z"
              transform="translate(-9.26 -60)"/>
        <path class="cls-25" d="M474.31,714.12c-.22.07-.43.15-.65.24l.32-.15a.13.13,0,0,0,.09,0Z"
              transform="translate(-9.26 -60)"/>
        <path class="cls-25" d="M469.53,716c-.1,0-.2.08-.28.11l.09-.05A1.33,1.33,0,0,0,469.53,716Z"
              transform="translate(-9.26 -60)"/>
        <path class="cls-28"
              d="M469.06,788.2c-.6-.1-1.18-.2-1.77-.28.53-.05,1.06-.09,1.6-.12C468.95,787.93,469,788.07,469.06,788.2Z"
              transform="translate(-9.26 -60)"/>
        <path class="cls-25" d="M468.87,716.27h0l-.07,0v0Z" transform="translate(-9.26 -60)"/>
        <path class="cls-25" d="M468.14,716.6l-.13.05.05,0Z" transform="translate(-9.26 -60)"/>
        <path class="cls-24"
              d="M463.81,807.86c-14.65-2.53-42.15-1.47-58.44-.66a8.75,8.75,0,0,1-.33-.88c-4-2.9-7.44-7.39-10.17-12.42-6.39-11.8-9-26.66-6.88-31.35,4-8.73,14.9,5.69,27.51,1.91,10.1-3.05,21.84-22.23,20.18-36.17A62.48,62.48,0,0,1,441,740.4a114.74,114.74,0,0,1,3.58,13.16c1,14.53-1.76,28.24-1.76,31.79,0,0,11.86.57,24.49,2.56.58.07,1.17.18,1.76.27,7.7,1.31,15.5,3.14,20.91,5.7a17.47,17.47,0,0,1,5.37,3.63C504.6,807.58,484.13,811.37,463.81,807.86Z"
              transform="translate(-9.26 -60)"/>
        <path class="cls-25" d="M465.55,717.81l-.16.06.05,0A.31.31,0,0,1,465.55,717.81Z"
              transform="translate(-9.26 -60)"/>
        <path class="cls-24"
              d="M463.14,719.13a11.67,11.67,0,0,0-2.3,1.82c-.95,1-2.91,5-5.66,10.73-2.84,5.88-6.45,13.61-10.61,21.89a69.64,69.64,0,0,0-3.31-20.6c-6.39-19.95-21.7-27-41.5-29.91a42.31,42.31,0,0,0-10.53-.26,4.5,4.5,0,0,1-1-4.46c3.15-11.78,28.35-5.71,40.77-3.8s-.51-30,12.56-33.07S452.87,711,459.1,717.73C459.82,718.52,461.23,719,463.14,719.13Z"
              transform="translate(-9.26 -60)"/>
        <path class="cls-21"
              d="M444.56,753.57A114.74,114.74,0,0,0,441,740.4a62.48,62.48,0,0,0-5.32-12.11c-5.2-8.84-13.2-15-28.76-19.24-2.41-.66-5-1.28-7.77-1.83-.14,0-.25-.05-.38-.06-10.33-1.93-20.62-1.14-29.59,4.78,5.35-5.56,12.59-8.4,20-9.14a42.31,42.31,0,0,1,10.53.26c19.8,2.93,35.12,10,41.5,29.91A69.64,69.64,0,0,1,444.56,753.57Z"
              transform="translate(-9.26 -60)"/>
        <path class="cls-21"
              d="M412.09,664.62c-10.25,6.31-27.13,19.53-27.13,6S400.78,640,410.3,647.19C410.3,647.19,422.34,658.31,412.09,664.62Z"
              transform="translate(-9.26 -60)"/>
        <path class="cls-21"
              d="M471.9,621.32c0,.18,0,.35-.07.53s0,.26-.06.4-.06.36-.1.54-.1.48-.17.71-.09.33-.15.49-.08.27-.14.41-.07.2-.11.3-.11.31-.19.47-.07.16-.11.23l-.06.15-.15.28a8.54,8.54,0,0,1-1.43,2c-.16.17-.32.32-.49.48s-.38.31-.57.46-.4.28-.61.42c-10.15,6.25-12.41-7.58-27-.19a13,13,0,0,0-1.38.68,25.88,25.88,0,0,1-5,1.73c-.27.06-.53.13-.79.17s-.64.14-1,.19l-1,.14c-.31,0-.61.08-.92.1s-.47.05-.7.06-.47,0-.71,0a4.35,4.35,0,0,1-.52,0,23.78,23.78,0,0,1-2.44,0h-.14l-1-.08h-.05l-.63-.07c-.21,0-.42-.05-.63-.09l-.63-.1-.4-.08-.4-.08q-.53-.11-1-.25l-.59-.17-.21-.06c-.23-.06-.45-.15-.67-.23l-.66-.24-.65-.27-.44-.2c-.14-.06-.27-.13-.42-.21l-.45-.23-.07,0-.44-.24-.42-.26a10.5,10.5,0,0,1-1.05-.73c-.18-.13-.34-.26-.5-.4a6.66,6.66,0,0,1-.51-.44h0c-.17-.15-.32-.31-.48-.47l-.26-.28,0,0c-.18-.2-.35-.41-.51-.6a0,0,0,0,1,0,0l-.2-.24c-.18-.25-.35-.5-.51-.76s-.19-.29-.27-.45a.53.53,0,0,1-.09-.17,1.47,1.47,0,0,1-.18-.33.06.06,0,0,1,0-.05c-.05-.09-.08-.18-.13-.25s0-.08-.05-.14-.17-.36-.24-.54A1.39,1.39,0,0,1,411,623c-.2-.59-.34-1.15-.46-1.65h0l53.53-27h0a10.13,10.13,0,0,1,3.4,6.47l0,0s0,0,0,.05c.11.27.49,1.13,1,2.38,0,.05,0,.09.06.16s.13.31.19.49l.16.43,0,.09.18.47c.31.88.66,1.88,1,2.95.1.33.21.67.29,1,.06.18.1.34.15.51s.09.32.14.47a.13.13,0,0,0,0,.06c.15.52.28,1.06.4,1.61.08.38.18.75.25,1.14l.09.52c0,.08,0,.17.05.24s.05.27.07.42.08.51.13.78.08.53.11.8c0,.1,0,.22,0,.32a2.58,2.58,0,0,0,0,.28c.05.54.1,1.07.13,1.62a3.22,3.22,0,0,1,0,.45A19.77,19.77,0,0,1,471.9,621.32Z"
              transform="translate(-9.26 -60)"/>
        <path class="cls-21"
              d="M394.1,735.84c-12.06,13.08-25.33,23.31-31.29,16.85s3.07-28.1,3.07-28.1,29.32-14.3,41.5-6.18S406.15,722.77,394.1,735.84Z"
              transform="translate(-9.26 -60)"/>
        <path class="cls-23" d="M405.37,807.21h0l-.61,0Z" transform="translate(-9.26 -60)"/>
        <path class="cls-25"
              d="M406.91,709.05c-2.87-.65-5.65-1.24-8.14-1.9.13,0,.24,0,.38.06C401.93,707.77,404.51,708.4,406.91,709.05Z"
              transform="translate(-9.26 -60)"/>
    </g>
    <g id="bras-chat">
        <g id="bras-chat-2" data-name="bras-chat">
            <path id="Skin-13" class="cls-16"
                  d="M481.33,583.31c-2.17-1.34-4.54-6.37,1.19-10.29,14.29-9.8,34.87-26.95,37.65-32.59,5.69-11.54,34.11-160.09,34.11-160.09l42.5.16s-48.56,157.36-51.56,164.78c-4.49,11.13,5,28.09,9.08,37.2-6.41,2.87-9.39-.79-12.64-4.45-3.47-3.9-7.27-7.8-15.89-3.79-11,5.13-20.15,13.28-31,13.28A25.22,25.22,0,0,1,481.33,583.31Z"
                  transform="translate(-9.26 -60)"/>
            <path class="cls-29"
                  d="M594,461c20-38,51-66,66-106,10-29,6-59,3-89-.84-10.07-6.61-19.43-16.13-22.18a7.73,7.73,0,0,0-1.19,3.61l-.8,11.37c-31.6,24.31-109.9,97-130.3,232.22-3.61,23.93,9.86,29.14,7.92,39.85l28.55,7.88c0-7.88,21.68-11.14,27.27-31.6,3.14-11.49,7.74-25.85,13.23-41.82,0,2,.14,4,.25,5.91C594.54,468.22,592.16,463.76,594,461Z"
                  transform="translate(-9.26 -60)"/>
        </g>
    </g>
    <g id="Chien">
        <path class="cls-30"
              d="M902.87,685.44s24.28,82.77,24.28,94.91S918,809.41,911,809.78s-10.67,1.47-11,8.09,32,6.25,35.32,4.78,4-20.6,11.4-33.11,11.4-33.84,5.15-54.08l-3.91-59.23Z"
              transform="translate(-9.26 -60)"/>
        <path class="cls-31"
              d="M1009.92,764.9s-15.82,21.34-18,32,4.78,34.21-.37,34.58-48.56,3.68-49.66-1.1,1.47-14,10.67-16.92,12.14,1.84,16.19-8.46,3.68-34.21-2.58-47.82-.37-34.21-.37-34.21Z"
              transform="translate(-9.26 -60)"/>
        <path class="cls-32"
              d="M1113.29,828s-72.29,5.24-71.74,2.48,5.52-16.55,13.8-17.93,23.73-8,23.73-8l34.49,3-.28,20.42"
              transform="translate(-9.26 -60)"/>
        <path class="cls-33"
              d="M940,440.43s2.58-15.82,26.67-13.61c23.33,2.14,30.11,29.45,28.18,37a5.48,5.48,0,0,1-.22.68c-2.58,6.44-5.89-11-14.53-13.43,0,0,1.66,9.2-3.68,11.22S940,440.43,940,440.43Z"
              transform="translate(-9.26 -60)"/>
        <path class="cls-33"
              d="M916.85,441s2.76-6.07,0-9.2-20.42-10.67-32.19-5.33-23.73,22.26-18.76,34.76c0,0,9.38-13.61,13.61-12.69,0,0-6.25,10.67,4.41,8.46S916.85,441,916.85,441Z"
              transform="translate(-9.26 -60)"/>
        <path class="cls-32"
              d="M880.79,530.56s-9.2,33.48-10.67,42.67c0,0,11-8.83,11.77-5.89,0,0-18,41.2-12.14,60.33,0,0,5.43,8.55,8.46,1S878.77,652,883,643s-1.38,61.67,3.31,45.11,11.17-32.42,9.52,9.24,11-.14,13.93-4.69,7.31,19.73,8.42,30.21,4.69-39.18,9.66-17.38-6.07,17.93,11,32.28,22.35,11.86,27.87,14.62,46.9-199.48,46.9-199.48l-17.38-11.45-17.93-21.93s-43.13-83-44-83.32-1.38-1.84-7-1S880.79,530.56,880.79,530.56Z"
              transform="translate(-9.26 -60)"/>
        <path class="cls-34"
              d="M934.32,436.56c6-.38,20.44-.41,32.19,9.2,9,7.35,12.67,17.28,14.72,22.81,5.87,15.85,2.22,24.85,10.48,36.42a39.09,39.09,0,0,0,9.36,9.22,15.33,15.33,0,0,1-4.25,0,10.33,10.33,0,0,1-7-3.61s-2.07,19.45,1.38,22.9c0,0-8.14-4.41-9.66-7.45,0,0-4.28,15.45,2.07,24.42,0,0-9.79-7-10.21-9.66,0,0-1.93,8-.28,11,0,0-19-15.45-20.56-22.9,0,0-.41-14.35-6.67-25.2-3.54-6.14-6.13-9.75-8-14.58a51.73,51.73,0,0,1-3-15A287,287,0,0,1,934.32,436.56Z"
              transform="translate(-9.26 -60)"/>
        <path class="cls-34"
              d="M928.25,435.28s-32.51.09-42.58,16-15,49.11-25.38,55.18c0,0,6.76,3.72,10.07-1.24s-.69.14-.69.14-3.45,17.93-8.14,22.21c0,0,10.22-4.76,12.76-7.89a2.88,2.88,0,0,0,.48-.8c1.1-3,.83,19.87-3.72,24,0,0,12.42-7.86,12.42-9.24,0,0-2.07,12.28-4.28,13.93,0,0,21.38-13.66,23.87-22.21s-2.07-10.07,6.48-20.69,14.35-9.79,17-25.52S928.25,435.28,928.25,435.28Z"
              transform="translate(-9.26 -60)"/>
        <path class="cls-34"
              d="M1128.75,800.58s18.39,23.18,51.14,16.19,64.38-48.93,62.54-57.39c0,0-18.58,14.62-13.24,5.89s14.35-47.5,6.48-52.61S1165,701.9,1165,701.9l-5.38-.69s6.21,13.93,3.45,15.59-9.52-8.42-12.14-6.9,5.24,28-.41,29.52c0,0-1.66-13.24-5-10.62s-3.31,18.35-12.14,18.07-38.17-18.76-38.17-18.76L1082,795.43Z"
              transform="translate(-9.26 -60)"/>
        <path class="cls-34"
              d="M995.21,535.52s2.21,15.73,7.73,17.66c0,0-2.48,2.76-8.28-.28s4.14,21.66,4.14,21.66-11.73,2.48-19.59-1.79,14.9,26.49,14.9,26.49a18.33,18.33,0,0,1-9.79-4.14c-5.1-4-1.38,21.52-1.38,21.52s-2.35,1-5,10.9,2.48,21.52,2.48,21.52-12.14-15-12-9S973.68,670,973.68,670s-7.31,1.1-8.83-3,.41,23.18,0,23.31-9.93,1.1-10.21,22.35S951.43,735.83,958,745a135,135,0,0,0,12.19,14.81,17,17,0,0,0,9.93-1.79c4.55-2.62-1.24.28-1.24.28s3.72,7.73,8.28,3.31-3.86,9.38,4,6.62,6.35-6.48,5.52,3.17,5.66,5.24,10.76.41,4.41,10.35,4.41,10.35,4.14-15.73,6.35-10.76,21.93,23.31,21.93,23.31l-8-16.42s24.14,22.9,39.32,25l-4.28,6.07s46.9-4.55,45.8,15.59c0,0,.28,4.28,2.21,4.28s8-4.41,7.45-6.21,20.56,19.18,18.35,13,14.39,6.9,14.39,6.9-15.08-19.31-5.89-16.74,8.28.37,8.28.37a49.91,49.91,0,0,1-4.78-8.09c-2-4.41,14.72-6.07,14.72-6.07l-17.29-114.41s-14.72-27.59-27.22-30.53a17.45,17.45,0,0,0,13-4.9s-12.48-2.28-19.11-14.14-11.86-21.25-27.32-32.83-51.32-19.59-59.32-32.83-7.45-20.14-13.8-27.59S995.21,535.52,995.21,535.52Z"
              transform="translate(-9.26 -60)"/>
        <path id="langue" class="cls-35"
              d="M929,532.4c7.17.28,11.4-.37,12.32,13.8s5,28.33-11.4,28.33-14.53-5-13.24-17.11S914.64,531.85,929,532.4Z"
              transform="translate(-9.26 -60)"/>
        <path class="cls-36"
              d="M929.47,527.32c1.66,0,12-9.17,11.52-10.42s-19.93-1.86-20.42-.62S929.47,527.32,929.47,527.32Z"
              transform="translate(-9.26 -60)"/>
        <path class="cls-32"
              d="M1159.65,701.21s-6.07-25.52-28-28.28c0,0,16.92.74,12.88-4.41s-10.85-38.44-.92-49.66c0,0,10.12,21.89,11,13.61a18.86,18.86,0,0,1,7.54-12.69s1.84,9.75,3.86,9.93,46.72,4.78,59,53c0,0,1.1-14.72,3.49-7.54s15.27,33.66,10.67,44.88c0,0-5.52-14-7.17-7.17a144,144,0,0,1-4.78,14.9s-8.28-25.57-9.38-10.12,2,22.44,2,22.44-9.2-9.2-9.38-5.52-2.94,12-2.94,12-5.7-15.08-9.56-23.54-1.29,22.81-4.23,14-1.66-24.46-9.56-31.45c0,0,2,19.5-1.66,17.66S1174.36,704.29,1159.65,701.21Z"
              transform="translate(-9.26 -60)"/>
        <path class="cls-33"
              d="M950.28,482.37c6.19-.45,8.28,3.86,8.28,3.86s-4.83-.55-8.83-1.24-7.45,2.48-7.45,2.48A10.09,10.09,0,0,1,950.28,482.37Z"
              transform="translate(-9.26 -60)"/>
        <path class="cls-33"
              d="M911,482.37c-6.19-.45-8.28,3.86-8.28,3.86s4.83-.55,8.83-1.24,7.45,2.48,7.45,2.48A10.09,10.09,0,0,0,911,482.37Z"
              transform="translate(-9.26 -60)"/>
        <g id="jambe-devant">
            <path id="Leg_Front" data-name="Leg Front" class="cls-37"
                  d="M671,615.7l37.29-12.79c-11.29-2.26-21.7-4.27-30.6-5.84-57.49-10.08-74.26-40.86-64.35-108H719.26c17.3,5,107.23,42.68,153.89,62.74,30.88,13.28,21.15,61.13,3.66,73.58a1.71,1.71,0,0,1-1,1.52c-64.7,26.82-120.1,25.52-156.47,24.22-16.52-.58-29.12-1.18-36.89.86Z"
                  transform="translate(-9.26 -60)"/>
        </g>
    </g>
    <g id="bras-chien">
        <g id="bras-chien-2" data-name="bras-chien">
            <path class="cls-16"
                  d="M897,448.25,831.21,439,836,402.79l71.34,28.53a166.74,166.74,0,0,1,45,5.84c3.18,1.68,7.53,5.63-3.38,7.57s-22.28,4.47-22.81,8.5,7.06,6.71,5.35,12.41a1.42,1.42,0,0,1-.85.95Q925.86,468.57,897,448.25Z"
                  transform="translate(-9.26 -60)"/>
            <path id="Clothes_Back-2" data-name="Clothes Back-2" class="cls-38"
                  d="M677,282.5,710.5,270c11,13.78,23.31,27.88,37,42a601.79,601.79,0,0,0,139,106.5,13,13,0,0,0,4.59,6.8,11.26,11.26,0,0,0,1.53.94l-15,22.52a53.5,53.5,0,0,1-8.84,2.7,65.3,65.3,0,0,1-22.82,0c-70.29-12.89-119-69-119-69C695,345.68,682.4,306.36,677,282.5Z"
                  transform="translate(-9.26 -60)"/>
        </g>
    </g>
    <g id="torse">
        <path id="torse-2" data-name="torse" class="cls-29"
              d="M712.08,272.15l1.4-20h0a7.77,7.77,0,0,0-7.21-8.29L654,240.23a7.77,7.77,0,0,0-8.29,7.2l-.8,11.37a313.73,313.73,0,0,0-45.93,44c-11.16,52.67-.66,109.5-7.36,163.6.63,20.73,4.64,39.8,13.23,55.64,21.8,40.19,147.76-3.88,160.92-44.89C781.69,427.51,710.14,395.93,712.08,272.15Z"
              transform="translate(-9.26 -60)"/>
    </g>
</svg>