<svg xmlns="http://www.w3.org/2000/svg" xmlns:xlink="http://www.w3.org/1999/xlink" width="327" height="237" viewBox="0 0 327 237">
  <defs>
    <clipPath id="clip-path">
      <rect id="Rectangle_1733" data-name="Rectangle 1733" width="327" height="237" transform="translate(-7515 12873)" fill="#fff"/>
    </clipPath>
  </defs>
  <g id="leaf-top-left" transform="translate(7515 -12873)" clip-path="url(#clip-path)">
    <g id="Corner_Plants" data-name="Corner Plants" transform="translate(-7584 12782)" opacity="0.5">
      <path id="Fill_10" data-name="Fill 10" d="M93-22.364a51.114,51.114,0,0,1-11.522.675A71.7,71.7,0,0,1,28.652-46.65C17.686-59.578,14.671-75.65,12.5-91.9c-.215-1.613-.307-3.216-.428-4.832-.026-.347-.065-.656-.106-.948-.852-.759-1.3-1.643-.795-2.615A107.733,107.733,0,0,1,6.349-112.9C2.339-125.635-1.74-138.611.773-152a186.354,186.354,0,0,0,3.3,22.15c.085.416.177.829.272,1.24.01.043.019.087.029.13A48.293,48.293,0,0,0,6.4-121.989c.009.023.017.046.026.069.109.279.225.556.339.834.237.574.48,1.147.738,1.718q.131.291.251.588c1.2,2.936,1.711,6.245,2.789,9.283q.387,1.036.81,2.064l.051.12c.763,1.842,1.607,3.662,2.5,5.463a6.719,6.719,0,0,1,1.162,2.08,12.987,12.987,0,0,1,.963,1.855q.788,1.518,1.577,3.034l-.048-.018q.794,1.455,1.587,2.9l.35.635.567,1.011c1.766,3.146,3.637,6.23,5.582,9.275.694,1.087,2.351,2.645,2.669,3.865.012.046.014.088.022.131a69.377,69.377,0,0,0,14.9,15.655c-.7-.758-2.2-3.33-2.6-3.839-1.211-1.559-2.525-3.01-3.844-4.479a95.432,95.432,0,0,1-6.719-8.217A156.038,156.038,0,0,1,20.032-94.378c-.029-.033-.061-.064-.088-.1-1.536-1.886-2.5-4.737-3.61-6.894,4.377,2.019,9.217,3.334,13.709,5.127a112.849,112.849,0,0,1,13.044,6.115A145.645,145.645,0,0,1,59.763-79.547c6.055,3.74,11.142,8.888,15.633,14.291,5.314,6.392,10.183,12.84,13.195,20.6a61.665,61.665,0,0,1,3.333,11.814c.03.175.069.366.111.563A38.619,38.619,0,0,1,93.9-28.015c.841,2.305,2.827,4.841-.9,5.651" transform="translate(48.069 337.141)" fill="#69a1ac"/>
      <path id="Fill_1" data-name="Fill 1" d="M138.459,233.9c-4.267,2.888-9.941,3.645-15.048,3.645-19.945,0-38.691-7.385-54.887-18.39a128.292,128.292,0,0,1-23.821-21.7A63.553,63.553,0,0,1,34.5,182.287a52.158,52.158,0,0,1-3.708-11.68,119.8,119.8,0,0,1-2.1-14.907c-.138-1.965-1.282-12.392,1.991-12.569a4.5,4.5,0,0,1,0-.722c-7.108-11.093-11.5-24.093-15.572-36.418A247.662,247.662,0,0,1,6.35,73.354,354.992,354.992,0,0,1,1.036,29.1c-.181-3.185-.305-6.371-.412-9.56Q.488,15.46.352,11.38C.252,8.332-.285,4.822.2,1.792c.423-2.639,2.711-2.24,2.812.387.122,3.171.1,6.349.241,9.523q.277,6.318.582,12.635a294.9,294.9,0,0,0,16.785,85.7A199.645,199.645,0,0,0,35.2,142.152a223.888,223.888,0,0,0,17.9,26.1c6.233,7.969,12.714,15.753,20.351,22.5a156.5,156.5,0,0,0,20.023,14.693c8.9,5.64,17.785,11.144,27.426,15.474,5.012,2.251,10.118,4.265,15.169,6.425.909.389,1.883.765,2.757,1.215,2.916,1.5,1.956,3.761-.367,5.333" transform="translate(0 31.637) rotate(-13)" fill="#c1dee2"/>
      <path id="Fill_20" data-name="Fill 20" d="M47.523-10.827c8.109,0,15.326-1.055,22.8-4.283A101.292,101.292,0,0,0,88.355-25.6c8.027-5.647,14.35-12.219,18.776-20.927,2.644-5.2,4.584-12.564,2.808-18.238-2.092-6.683-7.835-12.257-15.4-11.079-4.678.727-8.965,3.829-12.521,6.747A47.4,47.4,0,0,0,71.55-56.741c-4.586,7.606-7.28,16.206-11.176,24.154-1.848,3.772-3.635,7.572-5.849,11.157A17.992,17.992,0,0,1,50.6-16.577c-.89.706-4.64,1.927-3.206,3.512C26.365-13.342,7.735-29.518,3.7-49.54c-.376-1.866-.67-3.748-.98-5.625-.2-1.186-.117-5.558-1.175-6.316C-.792-63.152.189-58.076.289-57.345q.388,2.833.825,5.66A47.131,47.131,0,0,0,14.842-24.6C23.529-16.247,35.249-10.827,47.523-10.827Z" transform="translate(43.781 168.526)" fill="#89c5cc"/>
    </g>
  </g>
</svg>
