<svg xmlns="http://www.w3.org/2000/svg" xmlns:xlink="http://www.w3.org/1999/xlink" width="327" height="237" viewBox="0 0 327 237">
  <defs>
    <clipPath id="clip-path">
      <rect id="Rectangle_1734" data-name="Rectangle 1734" width="327" height="237" transform="translate(-7515 13271)" fill="#fff"/>
    </clipPath>
  </defs>
  <g id="leaf-mid-left" transform="translate(7515 -13271)" clip-path="url(#clip-path)">
    <g id="Big_Leaf_Plant" data-name="Big Leaf Plant" transform="translate(-7583.953 13280.311)" opacity="0.5">
      <g id="Big_Ass_Leaf" data-name="Big Ass Leaf" transform="translate(19.889 0)">
        <path id="leaf" d="M20.745.149a14.352,14.352,0,0,1,7.343.78C32.932,3,34.309,8.774,34.243,13.465c-.072,5.049-1.135,10.564,2.672,14.632,1.75,1.87,3.926,3.3,5.645,5.206A24.638,24.638,0,0,1,46.9,40.169c1.958,4.594,2.92,10,1.129,14.814-1.577,4.243-5.544,8.072-4.687,12.9.894,5.033,5.925,8.88,9.071,12.628,3.56,4.242,6.838,9.664,7.376,15.227.516,5.331-1.785,10.723-5.317,14.753-7.056,8.053-17.663,12-28.357,11.976-4.541-.011-9.682-.217-13.6-2.678a7.534,7.534,0,0,1-2.57-2.8,9.092,9.092,0,0,0-2.485-2.508A14.867,14.867,0,0,1,2.728,108.1c-3.881-9.687-.779-21.672,4.653-30.274,1.287-2.038,2.341-4,1.716-6.429-.653-2.536-2.256-4.823-3.675-7a56.4,56.4,0,0,1-4.1-6.539A14.949,14.949,0,0,1,.057,50.191a26.2,26.2,0,0,1,5.569-13.68c2.928-3.886,6.366-7.6,6.374-12.7.008-5.4-3.569-10.2-2.045-15.684A10.46,10.46,0,0,1,13.9,2.167C15.855.861,18.441.433,20.745.149Z" transform="translate(0 0)" fill="#dde3e9"/>
        <path id="middle_thing" data-name="middle thing" d="M1.185,1.015a1.233,1.233,0,0,1,1.57-.97c.883.249.866,1.081.843,1.823a24.7,24.7,0,0,0,.8,6.706c1.129,4.6,3.216,8.835,4.87,13.252a24.312,24.312,0,0,1,1.458,13.64c-.914,4.4-2.349,8.692-3.284,13.1C6.617,52.453,5.74,56.551,7,60.427,8.2,64.158,10.873,67.2,12.8,70.568a48.125,48.125,0,0,1,5.982,22.69,42.778,42.778,0,0,1-.84,11.063c-.49,2.09-1.148,4.913-2.924,6.356a2.016,2.016,0,0,1-2.908-.09c-.647-.924-.079-2.355.126-3.339A51.039,51.039,0,0,0,13.087,94.3a47.114,47.114,0,0,0-2.006-12.384A42.043,42.043,0,0,0,5.849,71.609C3.636,68.3,1.336,64.975.421,61.05c-.929-3.987-.174-8.044.835-11.955,1.067-4.137,2.465-8.155,3.91-12.179A21.539,21.539,0,0,0,6.3,25.179C4.761,17.07.65,9.459,1.185,1.015Z" transform="translate(17.959 7.762)" fill="#c5cfd6"/>
      </g>
      <g id="Big_Ass_Leaf-2" data-name="Big Ass Leaf" transform="translate(27.442 9.267)">
        <path id="leaf-2" data-name="leaf" d="M77.945,1.355A18.435,18.435,0,0,1,86.171,6.1c4.608,4.96,3.194,12.458.65,17.934-2.738,5.894-6.887,11.818-4.548,18.58,1.075,3.109,2.883,5.924,3.9,9.057A31.553,31.553,0,0,1,87.675,62c-.111,6.417-1.82,13.263-6.458,17.99-4.084,4.162-10.763,6.593-12.29,12.707-1.593,6.378,2.3,13.519,4.032,19.561,1.957,6.838,2.963,14.915.672,21.73-2.195,6.532-7.735,11.666-14.007,14.56-12.531,5.782-27.081,4.893-39.647-.709-5.335-2.379-11.273-5.3-14.588-10.233a9.642,9.642,0,0,1-1.551-4.628,11.635,11.635,0,0,0-1.6-4.241,19.034,19.034,0,0,1-2.217-9.956c.527-13.4,10.474-25.864,21.384-33.138,2.585-1.723,4.855-3.478,5.4-6.658.565-3.319-.119-6.841-.642-10.141a72.233,72.233,0,0,1-1.383-9.816,19.212,19.212,0,0,1,2.538-9.666C30.4,43.664,35.355,39.345,41.051,36.19,46.537,33.151,52.535,30.575,55.22,24.6c2.846-6.335,1.162-13.838,5.838-19.489A13.527,13.527,0,0,1,68.828.156C71.819-.358,75.086.488,77.945,1.355Z" transform="translate(0 0)" fill="#dde3e9"/>
        <path id="middle_thing-2" data-name="middle thing" d="M44.294.695A1.577,1.577,0,0,1,46.639.377c.906.757.453,1.727.039,2.587a31.859,31.859,0,0,0-2.556,8.308c-1.071,6-.83,12.081-1.191,18.145s-1.825,11.826-5.393,16.811c-3.364,4.7-7.281,8.991-10.673,13.687-2.99,4.138-6.152,8.5-6.7,13.716-.527,5.023,1.022,10,1.52,14.974,1.032,10.3-.93,20.334-4.8,29.831a55.049,55.049,0,0,1-6.747,12.572c-1.663,2.2-3.905,5.177-6.738,5.942-1.306.353-3.068-.112-3.363-1.633-.277-1.427,1.133-2.811,1.887-3.862a65.689,65.689,0,0,0,7.747-14.783,60.8,60.8,0,0,0,4.1-15.62A54.385,54.385,0,0,0,13,86.182c-.869-5.059-1.838-10.172-.866-15.27.987-5.178,3.985-9.554,7.2-13.624,3.406-4.306,7.137-8.3,10.928-12.273A27.71,27.71,0,0,0,37.7,31.8C40.125,21.458,39.268,10.347,44.294.695Z" transform="translate(27.442 11.136)" fill="#c5cfd6"/>
      </g>
      <g id="Big_Ass_Leaf-3" data-name="Big Ass Leaf" transform="translate(0 46.999)">
        <path id="leaf-3" data-name="leaf" d="M11.521,0A16.528,16.528,0,0,1,24.2,6.481c3.619,4.451,4.35,9.886,5.82,15.191a13.534,13.534,0,0,0,4.193,7.054c2,1.631,4.55,1.958,6.95,2.754a16.14,16.14,0,0,1,10.2,10.11c1.866,5.71-.11,11.469.23,17.256.312,5.314,5.6,8.63,9.86,11.178,4.2,2.512,7.979,4.864,9.243,9.758,1.341,5.191,1.79,10.984-.066,16.112-3.092,8.538-12.139,12.3-20.881,12.88-7.934.529-17.91-.3-23.868-6.005-3.565-3.413-4.857-8.187-4.7-12.936A39.032,39.032,0,0,1,22.639,81.1a39.083,39.083,0,0,0,1.481-6.127c.554-5.561-4.636-6.629-9.053-8.156A21.478,21.478,0,0,1,2.792,56.105C.247,51.351-.821,46.014.7,40.78a17.848,17.848,0,0,1,4.109-7.16c.844-.908,2.033-1.665,2.794-2.619a3.5,3.5,0,0,0,.311-3.088C6.786,23.094,3.257,19.1,2,14.294.856,9.952,1.53,4.549,5.538,1.748A10.541,10.541,0,0,1,11.521,0Z" transform="translate(0 0)" fill="#c5cfd6"/>
        <path id="middle_thing-3" data-name="middle thing" d="M2.89.55C8.3,6.257,9.77,14,10.2,21.5c.242,4.208-.01,8.647,1.238,12.729,1.068,3.494,3.572,6.164,6.153,8.688,5.2,5.081,10.99,10.246,12.51,17.6.892,4.315.29,8.773,1.522,13.04a35.732,35.732,0,0,0,5.492,10.966c1.932,2.638,4.449,4.658,6.56,7.117.644.751,1.567,1.856,1.3,2.915-.311,1.241-1.907,1.634-3.04,1.439-2.64-.454-4.863-2.951-6.589-4.767a41.077,41.077,0,0,1-6.413-8.712A36.4,36.4,0,0,1,24.776,71.2c-.691-4.14-.347-8.454-1.925-12.426C20.2,52.087,13.755,48.142,9.1,42.932,3.3,36.44,4.162,28.36,4.757,20.374c.326-4.389.651-9.345-1.588-13.352C2.314,5.493.408,4.067.04,2.329-.3.736,1.541-.874,2.89.55Z" transform="translate(15.586 12.006)" fill="#afb9c5"/>
      </g>
      <path id="Base" d="M0,0C0,32.637,5.326,49.738,33.445,49.738S66.889,32.637,66.889,0Z" transform="translate(24.011 154.192)" fill="#89c5cc"/>
    </g>
  </g>
</svg>
