<svg xmlns="http://www.w3.org/2000/svg" xmlns:xlink="http://www.w3.org/1999/xlink" width="327" height="237" viewBox="0 0 327 237">
  <defs>
    <clipPath id="clip-path">
      <rect id="Rectangle_1735" data-name="Rectangle 1735" width="327" height="237" transform="translate(-7515 13508)" fill="#fff"/>
    </clipPath>
  </defs>
  <g id="leaf-bottom-left" transform="translate(7515 -13508)" clip-path="url(#clip-path)">
    <g id="Corner_Plants" data-name="Corner Plants" transform="translate(-7444.173 13710.909) rotate(180)" opacity="0.5">
      <path id="Fill_16" data-name="Fill 16" d="M78.554,0c2.428,0,4.849.049,7.274.175,1.849.1,4.673-.287,6.238.866,1.625,1.2,1.513,3.648,1.259,5.378-1.342,9.152-4.618,17.267-11.47,23.75C71.3,40.153,59.209,45.226,44.9,47.485c-10.054,1.587-19.335-.616-26.737-7.768A111.616,111.616,0,0,0,6.591,72.079,77.561,77.561,0,0,0,5.444,88.713c.115,3.609.314,7.209.7,10.8.168,1.561.963,3.923.352,5.4a2.461,2.461,0,0,1-4.219.423c-.9-1.229-.737-3.643-.923-5.1C1.047,97.82.763,95.4.559,92.974.228,89.045-.017,85.1,0,81.161.042,72.3,2.012,63.4,4.706,54.991c5.169-16.138,13.555-30.48,26.6-41.733,8.019-6.92,17.2-9.722,27.611-11.226C65.4,1.1,71.986,0,78.554,0" transform="translate(100.333 146.64) rotate(180)" fill="#89c5cc"/>
      <path id="Twisted_Leaf" data-name="Twisted Leaf" d="M3.237,1.144A6.358,6.358,0,0,1,5.285.594,33.2,33.2,0,0,1,11.685,0a118.093,118.093,0,0,1,19.79,1.778c4.119.712,9.1,3.106,13.2,1.806C51.809,1.318,59.024,1.429,65.8,4.664,71.989,7.622,76.689,13.24,79.432,19.31A37.223,37.223,0,0,1,82,25.872c.2.465.4.933.574,1.408.5,1.349.947,2.721,1.364,4.1.178.587.625,1.882.094,2.132a38.984,38.984,0,0,1,2.228,4.847c1.822,4.847,3.815,10.163,4.455,15.3a23.936,23.936,0,0,1,.026,5.721c-.109.942-.064,2.836-.7,3.552-1.355,1.52-2.051-.608-1.9-1.621,1.167-7.723-1.086-14.976-3.756-22.236a45.687,45.687,0,0,0-7.741-12.879,32.507,32.507,0,0,0-8.856-7.715A138.47,138.47,0,0,0,54.3,11.79c-3-1.362-6.011-2.687-9.1-3.861A9.069,9.069,0,0,0,42.672,7c-1.61-.006-3.891,1.182-5.446,1.624-5.115,1.454-10.294,3.316-15.58,4.058a20.092,20.092,0,0,1-9.738-1.189,9.114,9.114,0,0,1-1.533-.835,22.241,22.241,0,0,1-6.52-3.689A26,26,0,0,1,.8,3.672,1.724,1.724,0,0,1,.4,2.588C.188,2.479.049,2.351.017,2.2-.213,1.1,1.89,1.078,3.237,1.144" transform="translate(107.194 168.936) rotate(180)" fill="#89c5cc"/>
      <path id="Fill_18" data-name="Fill 18" d="M39.135,0c26.114,0,43.7,21.3,52.017,43.442,3.135,8.345,3.869,17.509,5.077,26.272.388,2.812.244,7.1,1.372,9.6.409.908,1.348,1.235.9,2.473a1.99,1.99,0,0,1-1.6,1.357c-1.643.306-3.965-1.5-5.373-2.219C79.841,75,72.166,65.831,65.905,54.613c-3.881-6.953-7.819-14.17-10.124-21.8A76.178,76.178,0,0,1,53.072,18.4a55.526,55.526,0,0,1-.362-5.772c.011-1.9.885-2.907,1.513-4.562C45.51,4.728,35.675,3.818,26.849,7.278A35.236,35.236,0,0,0,8.107,24.429a32.975,32.975,0,0,0-2.3,6.322c-.363,1.423-.38,3.269-1.052,4.556-1.63,3.119-5.06,1.034-4.731-1.87.918-8.1,5.5-16.23,11.346-21.861A40.565,40.565,0,0,1,39.135,0" transform="translate(98.618 83.182) rotate(180)" fill="#89c5cc"/>
    </g>
  </g>
</svg>
