<svg xmlns="http://www.w3.org/2000/svg" xmlns:xlink="http://www.w3.org/1999/xlink" width="1920" height="1080" viewBox="0 0 1920 1080">
  <defs>
    <clipPath id="clip-path">
      <rect id="Rectangle_1733" data-name="Rectangle 1733" width="1920" height="1080" transform="translate(-7514 11417)" fill="#fff"/>
    </clipPath>
  </defs>
  <g id="leaf-bg" transform="translate(7514 -11417)" clip-path="url(#clip-path)">
    <g id="Groupe_4585" data-name="Groupe 4585">
      <rect id="Rectangle_1732" data-name="Rectangle 1732" width="1920" height="1080" transform="translate(-7514 11417)" fill="#fff"/>
      <g id="Groupe_4584" data-name="Groupe 4584" transform="translate(-35.946 32.896)">
        <g id="Big_Leaf_Plant" data-name="Big Leaf Plant" transform="translate(-7548.008 11941.414)" opacity="0.5">
          <g id="Big_Ass_Leaf" data-name="Big Ass Leaf" transform="translate(19.889 0)">
            <path id="leaf" d="M20.745.149a14.352,14.352,0,0,1,7.343.78C32.932,3,34.309,8.774,34.243,13.465c-.072,5.049-1.135,10.564,2.672,14.632,1.75,1.87,3.926,3.3,5.645,5.206A24.638,24.638,0,0,1,46.9,40.169c1.958,4.594,2.92,10,1.129,14.814-1.577,4.243-5.544,8.072-4.687,12.9.894,5.033,5.925,8.88,9.071,12.628,3.56,4.242,6.838,9.664,7.376,15.227.516,5.331-1.785,10.723-5.317,14.753-7.056,8.053-17.663,12-28.357,11.976-4.541-.011-9.682-.217-13.6-2.678a7.534,7.534,0,0,1-2.57-2.8,9.092,9.092,0,0,0-2.485-2.508A14.867,14.867,0,0,1,2.728,108.1c-3.881-9.687-.779-21.672,4.653-30.274,1.287-2.038,2.341-4,1.716-6.429-.653-2.536-2.256-4.823-3.675-7a56.4,56.4,0,0,1-4.1-6.539A14.949,14.949,0,0,1,.057,50.191a26.2,26.2,0,0,1,5.569-13.68c2.928-3.886,6.366-7.6,6.374-12.7.008-5.4-3.569-10.2-2.045-15.684A10.46,10.46,0,0,1,13.9,2.167C15.855.861,18.441.433,20.745.149Z" transform="translate(0 0)" fill="#dde3e9"/>
            <path id="middle_thing" data-name="middle thing" d="M1.185,1.015a1.233,1.233,0,0,1,1.57-.97c.883.249.866,1.081.843,1.823a24.7,24.7,0,0,0,.8,6.706c1.129,4.6,3.216,8.835,4.87,13.252a24.312,24.312,0,0,1,1.458,13.64c-.914,4.4-2.349,8.692-3.284,13.1C6.617,52.453,5.74,56.551,7,60.427,8.2,64.158,10.873,67.2,12.8,70.568a48.125,48.125,0,0,1,5.982,22.69,42.778,42.778,0,0,1-.84,11.063c-.49,2.09-1.148,4.913-2.924,6.356a2.016,2.016,0,0,1-2.908-.09c-.647-.924-.079-2.355.126-3.339A51.039,51.039,0,0,0,13.087,94.3a47.114,47.114,0,0,0-2.006-12.384A42.043,42.043,0,0,0,5.849,71.609C3.636,68.3,1.336,64.975.421,61.05c-.929-3.987-.174-8.044.835-11.955,1.067-4.137,2.465-8.155,3.91-12.179A21.539,21.539,0,0,0,6.3,25.179C4.761,17.07.65,9.459,1.185,1.015Z" transform="translate(17.959 7.762)" fill="#c5cfd6"/>
          </g>
          <g id="Big_Ass_Leaf-2" data-name="Big Ass Leaf" transform="translate(27.442 9.267)">
            <path id="leaf-2" data-name="leaf" d="M77.945,1.355A18.435,18.435,0,0,1,86.171,6.1c4.608,4.96,3.194,12.458.65,17.934-2.738,5.894-6.887,11.818-4.548,18.58,1.075,3.109,2.883,5.924,3.9,9.057A31.553,31.553,0,0,1,87.675,62c-.111,6.417-1.82,13.263-6.458,17.99-4.084,4.162-10.763,6.593-12.29,12.707-1.593,6.378,2.3,13.519,4.032,19.561,1.957,6.838,2.963,14.915.672,21.73-2.195,6.532-7.735,11.666-14.007,14.56-12.531,5.782-27.081,4.893-39.647-.709-5.335-2.379-11.273-5.3-14.588-10.233a9.642,9.642,0,0,1-1.551-4.628,11.635,11.635,0,0,0-1.6-4.241,19.034,19.034,0,0,1-2.217-9.956c.527-13.4,10.474-25.864,21.384-33.138,2.585-1.723,4.855-3.478,5.4-6.658.565-3.319-.119-6.841-.642-10.141a72.233,72.233,0,0,1-1.383-9.816,19.212,19.212,0,0,1,2.538-9.666C30.4,43.664,35.355,39.345,41.051,36.19,46.537,33.151,52.535,30.575,55.22,24.6c2.846-6.335,1.162-13.838,5.838-19.489A13.527,13.527,0,0,1,68.828.156C71.819-.358,75.086.488,77.945,1.355Z" transform="translate(0 0)" fill="#dde3e9"/>
            <path id="middle_thing-2" data-name="middle thing" d="M44.294.695A1.577,1.577,0,0,1,46.639.377c.906.757.453,1.727.039,2.587a31.859,31.859,0,0,0-2.556,8.308c-1.071,6-.83,12.081-1.191,18.145s-1.825,11.826-5.393,16.811c-3.364,4.7-7.281,8.991-10.673,13.687-2.99,4.138-6.152,8.5-6.7,13.716-.527,5.023,1.022,10,1.52,14.974,1.032,10.3-.93,20.334-4.8,29.831a55.049,55.049,0,0,1-6.747,12.572c-1.663,2.2-3.905,5.177-6.738,5.942-1.306.353-3.068-.112-3.363-1.633-.277-1.427,1.133-2.811,1.887-3.862a65.689,65.689,0,0,0,7.747-14.783,60.8,60.8,0,0,0,4.1-15.62A54.385,54.385,0,0,0,13,86.182c-.869-5.059-1.838-10.172-.866-15.27.987-5.178,3.985-9.554,7.2-13.624,3.406-4.306,7.137-8.3,10.928-12.273A27.71,27.71,0,0,0,37.7,31.8C40.125,21.458,39.268,10.347,44.294.695Z" transform="translate(27.442 11.136)" fill="#c5cfd6"/>
          </g>
          <g id="Big_Ass_Leaf-3" data-name="Big Ass Leaf" transform="translate(0 46.999)">
            <path id="leaf-3" data-name="leaf" d="M11.521,0A16.528,16.528,0,0,1,24.2,6.481c3.619,4.451,4.35,9.886,5.82,15.191a13.534,13.534,0,0,0,4.193,7.054c2,1.631,4.55,1.958,6.95,2.754a16.14,16.14,0,0,1,10.2,10.11c1.866,5.71-.11,11.469.23,17.256.312,5.314,5.6,8.63,9.86,11.178,4.2,2.512,7.979,4.864,9.243,9.758,1.341,5.191,1.79,10.984-.066,16.112-3.092,8.538-12.139,12.3-20.881,12.88-7.934.529-17.91-.3-23.868-6.005-3.565-3.413-4.857-8.187-4.7-12.936A39.032,39.032,0,0,1,22.639,81.1a39.083,39.083,0,0,0,1.481-6.127c.554-5.561-4.636-6.629-9.053-8.156A21.478,21.478,0,0,1,2.792,56.105C.247,51.351-.821,46.014.7,40.78a17.848,17.848,0,0,1,4.109-7.16c.844-.908,2.033-1.665,2.794-2.619a3.5,3.5,0,0,0,.311-3.088C6.786,23.094,3.257,19.1,2,14.294.856,9.952,1.53,4.549,5.538,1.748A10.541,10.541,0,0,1,11.521,0Z" transform="translate(0 0)" fill="#c5cfd6"/>
            <path id="middle_thing-3" data-name="middle thing" d="M2.89.55C8.3,6.257,9.77,14,10.2,21.5c.242,4.208-.01,8.647,1.238,12.729,1.068,3.494,3.572,6.164,6.153,8.688,5.2,5.081,10.99,10.246,12.51,17.6.892,4.315.29,8.773,1.522,13.04a35.732,35.732,0,0,0,5.492,10.966c1.932,2.638,4.449,4.658,6.56,7.117.644.751,1.567,1.856,1.3,2.915-.311,1.241-1.907,1.634-3.04,1.439-2.64-.454-4.863-2.951-6.589-4.767a41.077,41.077,0,0,1-6.413-8.712A36.4,36.4,0,0,1,24.776,71.2c-.691-4.14-.347-8.454-1.925-12.426C20.2,52.087,13.755,48.142,9.1,42.932,3.3,36.44,4.162,28.36,4.757,20.374c.326-4.389.651-9.345-1.588-13.352C2.314,5.493.408,4.067.04,2.329-.3.736,1.541-.874,2.89.55Z" transform="translate(15.586 12.006)" fill="#afb9c5"/>
          </g>
          <path id="Base" d="M0,0C0,32.637,5.326,49.738,33.445,49.738S66.889,32.637,66.889,0Z" transform="translate(24.011 154.192)" fill="#89c5cc"/>
        </g>
        <g id="Plant" transform="translate(-5637 11931.897)" opacity="0.5">
          <path id="Fill_19" data-name="Fill 19" d="M9.938,35.736C28.6,67.052,50.345,97.374,63.4,131.613c-.526-4.036-1.084-8.067-1.708-12.093-3.313-21.341-7.43-42.526-11.757-63.685-2.2-10.773-4.534-21.507-6.924-32.241C41.727,17.829,40.457,12.061,39.145,6.3c-.318-1.4-.591-3.832-.989-6.3C50.845,41.637,63.081,83.3,72.031,125.942q1.761,8.394,2.993,16.758c.28-1.272.556-2.544.857-3.813A246.4,246.4,0,0,1,91.4,94.374a134.951,134.951,0,0,1,10.825-19.648c2.608-3.863,8.757-8.455,11.136-12.412-13.01,23.861-17.707,53.717-25.219,79.659-1.833,6.331-3.678,12.651-5.486,18.982,11.328-22.718,28.9-41.384,53.341-49.473-29.58,19.544-47.322,53.771-59.278,88.777-.039.415-.086.83-.127,1.246,3.518-6.677,7.95-12.716,13.956-16.946,12.855-9.055,27.116-6.417,39.586,1.35-9.787-6.221-27.474-.556-35.709,5.767-5.9,4.526-10.933,10.6-15.308,16.523-1.048,1.42-2.479,3.077-3.989,4.845A218.405,218.405,0,0,1,64.672,254c.807-3.889.223-10.108.447-13.007.024-.314.044-.628.068-.941q-1.114,4.449-2.152,8.784a120.22,120.22,0,0,0,2.7-17.061q.225-3.743.451-7.487-.074-7.1-.574-14.253c-1.17-4.629-2.48-8.994-3.56-12.625a163.194,163.194,0,0,0-16.646-37.36,147.491,147.491,0,0,0-22.966-29.116c-4.78-4.717-9.783-9.21-14.716-13.765-1.784-1.647-4.972-5.7-7.729-7.806,20.08,11.071,40.749,23.047,55.4,40.884q-2.576-9.892-5.556-19.468C39.831,98.454,27.191,64.953,9.938,35.736Z" fill="#dde3e9"/>
          <path id="Base-2" data-name="Base" d="M0,0C0,35.9,2.843,65,41,65S82,35.9,82,0" transform="translate(30 213)" fill="#c5cfd6"/>
        </g>
        <g id="Corner_Plants" data-name="Corner Plants" transform="translate(-7408.227 12372.013) rotate(180)" opacity="0.5">
          <path id="Fill_16" data-name="Fill 16" d="M78.554,0c2.428,0,4.849.049,7.274.175,1.849.1,4.673-.287,6.238.866,1.625,1.2,1.513,3.648,1.259,5.378-1.342,9.152-4.618,17.267-11.47,23.75C71.3,40.153,59.209,45.226,44.9,47.485c-10.054,1.587-19.335-.616-26.737-7.768A111.616,111.616,0,0,0,6.591,72.079,77.561,77.561,0,0,0,5.444,88.713c.115,3.609.314,7.209.7,10.8.168,1.561.963,3.923.352,5.4a2.461,2.461,0,0,1-4.219.423c-.9-1.229-.737-3.643-.923-5.1C1.047,97.82.763,95.4.559,92.974.228,89.045-.017,85.1,0,81.161.042,72.3,2.012,63.4,4.706,54.991c5.169-16.138,13.555-30.48,26.6-41.733,8.019-6.92,17.2-9.722,27.611-11.226C65.4,1.1,71.986,0,78.554,0" transform="translate(100.333 146.64) rotate(180)" fill="#89c5cc"/>
          <path id="Twisted_Leaf" data-name="Twisted Leaf" d="M3.237,1.144A6.358,6.358,0,0,1,5.285.594,33.2,33.2,0,0,1,11.685,0a118.093,118.093,0,0,1,19.79,1.778c4.119.712,9.1,3.106,13.2,1.806C51.809,1.318,59.024,1.429,65.8,4.664,71.989,7.622,76.689,13.24,79.432,19.31A37.223,37.223,0,0,1,82,25.872c.2.465.4.933.574,1.408.5,1.349.947,2.721,1.364,4.1.178.587.625,1.882.094,2.132a38.984,38.984,0,0,1,2.228,4.847c1.822,4.847,3.815,10.163,4.455,15.3a23.936,23.936,0,0,1,.026,5.721c-.109.942-.064,2.836-.7,3.552-1.355,1.52-2.051-.608-1.9-1.621,1.167-7.723-1.086-14.976-3.756-22.236a45.687,45.687,0,0,0-7.741-12.879,32.507,32.507,0,0,0-8.856-7.715A138.47,138.47,0,0,0,54.3,11.79c-3-1.362-6.011-2.687-9.1-3.861A9.069,9.069,0,0,0,42.672,7c-1.61-.006-3.891,1.182-5.446,1.624-5.115,1.454-10.294,3.316-15.58,4.058a20.092,20.092,0,0,1-9.738-1.189,9.114,9.114,0,0,1-1.533-.835,22.241,22.241,0,0,1-6.52-3.689A26,26,0,0,1,.8,3.672,1.724,1.724,0,0,1,.4,2.588C.188,2.479.049,2.351.017,2.2-.213,1.1,1.89,1.078,3.237,1.144" transform="translate(107.194 168.936) rotate(180)" fill="#89c5cc"/>
          <path id="Fill_18" data-name="Fill 18" d="M39.135,0c26.114,0,43.7,21.3,52.017,43.442,3.135,8.345,3.869,17.509,5.077,26.272.388,2.812.244,7.1,1.372,9.6.409.908,1.348,1.235.9,2.473a1.99,1.99,0,0,1-1.6,1.357c-1.643.306-3.965-1.5-5.373-2.219C79.841,75,72.166,65.831,65.905,54.613c-3.881-6.953-7.819-14.17-10.124-21.8A76.178,76.178,0,0,1,53.072,18.4a55.526,55.526,0,0,1-.362-5.772c.011-1.9.885-2.907,1.513-4.562C45.51,4.728,35.675,3.818,26.849,7.278A35.236,35.236,0,0,0,8.107,24.429a32.975,32.975,0,0,0-2.3,6.322c-.363,1.423-.38,3.269-1.052,4.556-1.63,3.119-5.06,1.034-4.731-1.87.918-8.1,5.5-16.23,11.346-21.861A40.565,40.565,0,0,1,39.135,0" transform="translate(98.618 83.182) rotate(180)" fill="#89c5cc"/>
        </g>
        <g id="Corner_Plants-2" data-name="Corner Plants" transform="translate(-5513.097 12405) rotate(180)" opacity="0.5">
          <path id="Fill_10" data-name="Fill 10" d="M2.111.687A49.4,49.4,0,0,1,13.247.034a69.3,69.3,0,0,1,51.06,24.129C74.906,36.66,77.82,52.2,79.914,67.9c.208,1.559.3,3.109.414,4.671.025.335.063.634.1.916.823.733,1.255,1.588.768,2.527a104.15,104.15,0,0,1,4.665,12.19c3.875,12.308,7.818,24.851,5.389,37.794a180.165,180.165,0,0,0-3.188-21.411c-.082-.4-.171-.8-.263-1.2-.009-.042-.018-.084-.028-.126a46.688,46.688,0,0,0-1.961-6.275c-.008-.022-.016-.044-.025-.066-.105-.27-.217-.538-.328-.806-.229-.555-.464-1.109-.713-1.66q-.126-.282-.243-.568c-1.163-2.839-1.654-6.037-2.7-8.974q-.374-1-.783-1.995l-.049-.116c-.738-1.781-1.553-3.54-2.415-5.281a6.5,6.5,0,0,1-1.123-2.011,12.554,12.554,0,0,1-.931-1.793q-.761-1.467-1.524-2.932l.046.017Q74.264,69.4,73.5,68l-.338-.613-.548-.977c-1.706-3.042-3.516-6.022-5.395-8.966-.671-1.05-2.273-2.557-2.58-3.736-.011-.044-.014-.085-.021-.127a67.059,67.059,0,0,0-14.4-15.133c.68.733,2.127,3.219,2.509,3.711,1.17,1.507,2.44,2.91,3.716,4.33a92.248,92.248,0,0,1,6.494,7.943,150.838,150.838,0,0,1,9.7,15.865c.028.032.059.062.085.095,1.485,1.823,2.42,4.579,3.489,6.665-4.23-1.952-8.908-3.223-13.25-4.956a109.066,109.066,0,0,1-12.608-5.911A140.766,140.766,0,0,1,34.238,55.963c-5.852-3.616-10.769-8.592-15.11-13.814C13.993,35.971,9.287,29.738,6.376,22.235a59.616,59.616,0,0,1-3.222-11.42c-.029-.17-.066-.353-.107-.544a37.334,37.334,0,0,1-1.8-4.122C.43,3.921-1.489,1.47,2.111.687" transform="translate(145.903 179.811) rotate(180)" fill="#69a1ac"/>
          <path id="Fill_1" data-name="Fill 1" d="M.3,0h0Z" transform="translate(246.088 0) rotate(180)" fill="#c1dee2"/>
          <path id="Fill_20" data-name="Fill 20" d="M61.034,0C53.19,0,46.211,1.02,38.983,4.14A97.989,97.989,0,0,0,21.54,14.279C13.775,19.738,7.66,26.091,3.379,34.508.821,39.537-1.055,46.653.663,52.138c2.023,6.46,7.579,11.848,14.9,10.71,4.524-.7,8.672-3.7,12.11-6.522A45.831,45.831,0,0,0,37.794,44.384c4.435-7.353,7.042-15.665,10.809-23.349,1.788-3.647,3.516-7.319,5.657-10.785a17.394,17.394,0,0,1,3.8-4.691c.86-.682,4.488-1.863,3.1-3.395,20.341.267,38.361,15.9,42.266,35.259.364,1.8.648,3.623.948,5.438.189,1.146.113,5.373,1.137,6.1,2.258,1.615,1.309-3.291,1.212-4q-.376-2.739-.8-5.471A45.549,45.549,0,0,0,92.644,13.317C84.242,5.239,72.906,0,61.034,0Z" transform="translate(156.903 72.472) rotate(180)" fill="#89c5cc"/>
        </g>
        <g id="Corner_Plants-3" data-name="Corner Plants" transform="translate(-7548.054 11443.104)" opacity="0.5">
          <path id="Fill_10-2" data-name="Fill 10" d="M93-22.364a51.114,51.114,0,0,1-11.522.675A71.7,71.7,0,0,1,28.652-46.65C17.686-59.578,14.671-75.65,12.5-91.9c-.215-1.613-.307-3.216-.428-4.832-.026-.347-.065-.656-.106-.948-.852-.759-1.3-1.643-.795-2.615A107.733,107.733,0,0,1,6.349-112.9C2.339-125.635-1.74-138.611.773-152a186.354,186.354,0,0,0,3.3,22.15c.085.416.177.829.272,1.24.01.043.019.087.029.13A48.293,48.293,0,0,0,6.4-121.989c.009.023.017.046.026.069.109.279.225.556.339.834.237.574.48,1.147.738,1.718q.131.291.251.588c1.2,2.936,1.711,6.245,2.789,9.283q.387,1.036.81,2.064l.051.12c.763,1.842,1.607,3.662,2.5,5.463a6.719,6.719,0,0,1,1.162,2.08,12.987,12.987,0,0,1,.963,1.855q.788,1.518,1.577,3.034l-.048-.018q.794,1.455,1.587,2.9l.35.635.567,1.011c1.766,3.146,3.637,6.23,5.582,9.275.694,1.087,2.351,2.645,2.669,3.865.012.046.014.088.022.131a69.377,69.377,0,0,0,14.9,15.655c-.7-.758-2.2-3.33-2.6-3.839-1.211-1.559-2.525-3.01-3.844-4.479a95.432,95.432,0,0,1-6.719-8.217A156.038,156.038,0,0,1,20.032-94.378c-.029-.033-.061-.064-.088-.1-1.536-1.886-2.5-4.737-3.61-6.894,4.377,2.019,9.217,3.334,13.709,5.127a112.849,112.849,0,0,1,13.044,6.115A145.645,145.645,0,0,1,59.763-79.547c6.055,3.74,11.142,8.888,15.633,14.291,5.314,6.392,10.183,12.84,13.195,20.6a61.665,61.665,0,0,1,3.333,11.814c.03.175.069.366.111.563A38.619,38.619,0,0,1,93.9-28.015c.841,2.305,2.827,4.841-.9,5.651" transform="translate(48.069 337.141)" fill="#69a1ac"/>
          <path id="Fill_1-2" data-name="Fill 1" d="M138.459,233.9c-4.267,2.888-9.941,3.645-15.048,3.645-19.945,0-38.691-7.385-54.887-18.39a128.292,128.292,0,0,1-23.821-21.7A63.553,63.553,0,0,1,34.5,182.287a52.158,52.158,0,0,1-3.708-11.68,119.8,119.8,0,0,1-2.1-14.907c-.138-1.965-1.282-12.392,1.991-12.569a4.5,4.5,0,0,1,0-.722c-7.108-11.093-11.5-24.093-15.572-36.418A247.662,247.662,0,0,1,6.35,73.354,354.992,354.992,0,0,1,1.036,29.1c-.181-3.185-.305-6.371-.412-9.56Q.488,15.46.352,11.38C.252,8.332-.285,4.822.2,1.792c.423-2.639,2.711-2.24,2.812.387.122,3.171.1,6.349.241,9.523q.277,6.318.582,12.635a294.9,294.9,0,0,0,16.785,85.7A199.645,199.645,0,0,0,35.2,142.152a223.888,223.888,0,0,0,17.9,26.1c6.233,7.969,12.714,15.753,20.351,22.5a156.5,156.5,0,0,0,20.023,14.693c8.9,5.64,17.785,11.144,27.426,15.474,5.012,2.251,10.118,4.265,15.169,6.425.909.389,1.883.765,2.757,1.215,2.916,1.5,1.956,3.761-.367,5.333" transform="translate(0 31.637) rotate(-13)" fill="#c1dee2"/>
          <path id="Fill_20-2" data-name="Fill 20" d="M47.523-10.827c8.109,0,15.326-1.055,22.8-4.283A101.292,101.292,0,0,0,88.355-25.6c8.027-5.647,14.35-12.219,18.776-20.927,2.644-5.2,4.584-12.564,2.808-18.238-2.092-6.683-7.835-12.257-15.4-11.079-4.678.727-8.965,3.829-12.521,6.747A47.4,47.4,0,0,0,71.55-56.741c-4.586,7.606-7.28,16.206-11.176,24.154-1.848,3.772-3.635,7.572-5.849,11.157A17.992,17.992,0,0,1,50.6-16.577c-.89.706-4.64,1.927-3.206,3.512C26.365-13.342,7.735-29.518,3.7-49.54c-.376-1.866-.67-3.748-.98-5.625-.2-1.186-.117-5.558-1.175-6.316C-.792-63.152.189-58.076.289-57.345q.388,2.833.825,5.66A47.131,47.131,0,0,0,14.842-24.6C23.529-16.247,35.249-10.827,47.523-10.827Z" transform="translate(43.781 168.526)" fill="#89c5cc"/>
        </g>
        <g id="Corner_Plants-4" data-name="Corner Plants" transform="translate(-5830.541 11504.522)" opacity="0.5">
          <path id="Fill_16-2" data-name="Fill 16" d="M11.726,23.053c6.016-4.88,12.858-8.778,19.487-12.743C41.859,3.943,52.33-.325,64.772.019,85,.578,103.248,7.41,119.865,18.269c8.662,5.66,17.017,12.3,23.58,20.34,2.921,3.579,5.6,7.35,8.188,11.175,1.6,2.363,3.12,4.777,4.618,7.206.9,1.463,2.83,3.538,2.908,5.329a2.912,2.912,0,0,1-4.176,2.75c-1.646-.889-2.656-3.632-3.652-5.178-2.29-3.559-4.759-6.986-7.311-10.358a90.191,90.191,0,0,0-13.3-14.3A129.932,129.932,0,0,0,96.294,14.352C94.781,26.366,87.9,35.27,77.523,41.295,62.749,49.873,47.934,54.24,30.917,52.986c-11.051-.814-20.027-5.772-28-13.11C1.415,38.488-.491,36.339.116,34.041.7,31.829,3.57,30.079,5.192,28.618,7.32,26.7,9.5,24.857,11.726,23.053Z" transform="translate(172.845 212.928) rotate(-30)" fill="#dde3e9"/>
          <path id="Leaf-4" data-name="Leaf" d="M119.947,266.087c-2.306-18.46-4.748-36.814-9.231-54.913-2.643-10.666-6.032-21.106-9.111-31.65q.413,1.984.731,3.989c-1.072-3.145-3.313-6.151-4.6-9.285-1.436-3.495-2.591-7.125-3.687-10.733-2.141-7.043-4.16-14.1-6.57-21.06-2.685-7.756-5.779-15.384-8.661-23.072-2.446-6.525-4.736-13.376-7.923-19.6-1.737-3.394-3.293-7.039-5-10.5-.571-1.158-5.464-14.091-5.427-14.091.811,0,3.847,5.747,4.35,6.592,1.47,2.466,2.719,5.033,3.981,7.6a33.886,33.886,0,0,1,2.78-8.856c.421-.867,3.376-7.263,4.336-7.264.48,0-3.964,12.077-4.525,13.137a21.908,21.908,0,0,0-1.607,2.87c-.481,1.48-.234,1.11.161,2.444.724,2.445,2.327,4.839,3.336,7.187.554,1.253,1.917,5.6,3.245,7.543,3.419,6.68,5.846,14.827,8.447,22.032a47.188,47.188,0,0,1,2.883-10.29c.319-.792,2.86-8.136,3.59-8.136.821,0-2.334,11.761-2.762,12.777-.8,1.887-2.044,3.715-2.706,5.636-.726,2.108.544,4,1.353,6.16,2.974,7.929,5.581,15.937,7.962,24.053,13.875-6.077,16.649-23.926,17.566-37.089.66-9.486-.8-19.145-3.1-28.344C106.693,80.95,101.526,69.1,96.043,57.689A126.864,126.864,0,0,0,70.258,22.12,135.838,135.838,0,0,0,51.977,7.547,38.865,38.865,0,0,0,41.961,2.4,36.3,36.3,0,0,0,36.9,1.171C35.6.944,32.949-.258,31.87.05,23.056,2.492,16.429,6.545,11.287,14.074,6.42,21.2,3.395,29.719,1.71,38.073A76.23,76.23,0,0,0,.97,66.116,172.874,172.874,0,0,0,6.4,87.189c7.491,24.654,20.636,51.081,44.253,64.588a71.888,71.888,0,0,0,24.84,8.274c2.053.318,4.1.62,6.181.735,1.4.078,6.006-.855,7.019-.253,1.389.825,2.182,5.512,2.786,7.212,4.589,12.915,8.692,25.977,12.413,39.157,3.959,14.022,7.1,28.181,9.717,42.5,1.112,6.09,2.2,12.169,3.117,18.292.215,1.424-.012,5.906,1.379,7.163a1.683,1.683,0,0,0,2.65-.507c.913-1.695-.567-6.37-.8-8.26" transform="matrix(0.391, -0.921, 0.921, 0.391, 0, 111.422)" fill="#c1dee2"/>
          <path id="Leave_the_Leaf_" data-name="Leave the Leaf!" d="M48.173,61.367a77.667,77.667,0,0,1-13.182-1.1A70.816,70.816,0,0,1,22.009,56.73c-4.276-1.618-9.717-3.9-13.868-7.218a18.181,18.181,0,0,1-4.954-5.778,12.647,12.647,0,0,1-1.267-7.609,1.43,1.43,0,0,1-.44.068,1.506,1.506,0,0,1-1.476-1c-.04-.334.221-.587.734-.711,1.254-.3,1.3-.391,1.774-1.252l.142-.258A13.36,13.36,0,0,0,3.4,31.259c.157-.411.319-.835.5-1.226a34.091,34.091,0,0,1,3.275-5.687,45.245,45.245,0,0,1,9.937-9.9C25.044,8.624,32.2,4.86,38.994,2.937A76.37,76.37,0,0,1,49.9.72,87.645,87.645,0,0,1,61.175,0,88.891,88.891,0,0,1,78.241,1.633,44.508,44.508,0,0,1,89.213,5.066a26.032,26.032,0,0,1,9.017,6.987,25.732,25.732,0,0,1,5.476,10.827,12.781,12.781,0,0,1,.2,1.48,10.443,10.443,0,0,0,.275,1.78l.054.193c.3,1.067.3,1.067,1.136,1.159.235.026.527.058.91.122,1.988.332,4.029.679,6.064,1.031a148.868,148.868,0,0,1,15.764,3.38,42.674,42.674,0,0,1,4.976,1.784c.191.082.478.194.811.324,1.883.734,5.388,2.1,5.889,3.448a1.476,1.476,0,0,1,.05,1.322.966.966,0,0,1-.847.331,6.288,6.288,0,0,1-2.551-.78c-.893-.5-1.823-.978-2.763-1.414a44.883,44.883,0,0,0-7.338-2.618c-2.69-.721-5.475-1.27-8.168-1.8l-.09-.018c-2.311-.455-4.775-.9-7.754-1.412-1.466-.249-2.968-.5-4.294-.717l-.027,0a3.917,3.917,0,0,1-.381-.094,2.551,2.551,0,0,0-.609-.121.314.314,0,0,0-.245.083.329.329,0,0,0-.059.264,43.459,43.459,0,0,0-6.841-.567c-.843-.026-1.71-.052-2.546-.1-3.229-.168-5.94-.281-8.677-.281-.924,0-1.826.014-2.682.04a79.319,79.319,0,0,0-8.19.634,41.14,41.14,0,0,0-4.712.929c-.19.049-.51.11-.881.182-1.292.249-3.454.667-3.819,1.249.062-.1.46-.146,1.181-.146.586,0,1.3.032,1.862.06l.445.023c.405.021.723.037.873.037h.042c1.935-.073,3.87-.27,5.672-.472a89,89,0,0,1,9.866-.572l.672,0c-.01.451-1.28,1.154-2.207,1.668-.343.19-.638.353-.8.465a34.032,34.032,0,0,0-3.752,3.027,37.106,37.106,0,0,0-5.984,6.642,6.942,6.942,0,0,1,2.137-1.442c.44-.236.855-.458,1.108-.635,1.26-.883,2.418-1.778,3.442-2.66,1.081-.931,2.067-1.928,2.889-2.78.3-.311.635-.731.99-1.176A9.6,9.6,0,0,1,87.223,32.3a.026.026,0,0,1,.013,0,.682.682,0,0,1,.192.081l.11.055a1.134,1.134,0,0,0,.45.136.338.338,0,0,0,.145-.029,2.2,2.2,0,0,0,.589-.67,1.043,1.043,0,0,1,.173-.226,3.265,3.265,0,0,1,1.165-.17,15.992,15.992,0,0,1,2.054.191c.472.064.917.125,1.274.142,2.271.1,4.576.235,6.8.361l.08,0,2.413.135c.119.006.247.009.4.009h.222l.224,0c.554,0,1.034.04,1.288.537.313.614-.094,2.045-.364,2.992-.065.227-.121.423-.159.58a18.781,18.781,0,0,1-4.162,8.181A33.611,33.611,0,0,1,85.952,54,132.2,132.2,0,0,1,67.2,59.36,96.084,96.084,0,0,1,48.173,61.367ZM68.166,22.645c-.091,0-.149.02-.173.058a.184.184,0,0,0-.015.152c.22.79,4.25,2.84,7.193,4.337a26.5,26.5,0,0,1,2.908,1.575,20.411,20.411,0,0,0-5.4-4.335C72.2,24.178,68.978,22.645,68.166,22.645ZM96.6,17.376c-.007.04.4.758.834,1.518l0,.006c.348.611.708,1.244.872,1.56.726,1.392,1.442,2.89,2.191,4.578a27.943,27.943,0,0,0-3.9-7.662Z" transform="translate(135.882 148.594) rotate(-30)" fill="#89c5cc"/>
        </g>
      </g>
    </g>
  </g>
</svg>
