<svg id="Calque_1" data-name="Calque 1" xmlns="http://www.w3.org/2000/svg" viewBox="0 0 400 400"><defs><style>.cls-1{fill:#fff;}.cls-2{fill:#ec1d45;}.cls-3{fill:#333;}</style></defs><title>logo_white</title><path class="cls-1" d="M208.49,235.52c13.2-.69,26.4-3.6,37-11.47,10.43-7.76,17.78-19.35,19.54-31.86a86.86,86.86,0,0,0,.37-14.94c-.52-15.68-1.48-32.46-11.33-45-9.6-12.24-25.64-17.9-40.78-22.95-7.94-2.65-16-5.31-24.37-5.91-8.85-.63-17.74,1.1-26.15,3.8-5,1.61-9.93,3.61-13.94,6.86-5.65,4.58-9,11.31-13.4,16.72l-3.87,5.46C127,144,120.8,151.15,117,159.44c-8.23,17.94-4,39.86,8.47,55.43,6.17,7.71,12.38,10.36,21.5,12.86,4.38,1.2,8.43,3.44,13,4.43a121.07,121.07,0,0,0,14.82,1.94c5.22.47,10.44.93,15.68,1.24A161.53,161.53,0,0,0,208.49,235.52Z"/><path class="cls-1" d="M94.78,65.28c-3.43,9.23-9.3,17.76-10,27.66-1.06,14.45,4.73,34.37,21.38,38.17a6.77,6.77,0,0,0,2.7.19,6.89,6.89,0,0,0,2.75-1.41c19.46-14.35,23.88-39,11.69-60.64a27.8,27.8,0,0,0-6.18-7.88c-7.74-6.45-20.54-3.21-22.7,6.57"/><path class="cls-1" d="M158.7,19.38c-3.38,9.29-9.23,17.93-9.86,27.83-.92,14.45,5.15,34.19,22.05,37.59a6.94,6.94,0,0,0,2.74.13,7.12,7.12,0,0,0,2.77-1.47C196,68.68,200.18,44,187.61,22.67a27.31,27.31,0,0,0-6.34-7.72c-7.91-6.26-20.83-2.73-22.92,7.08"/><path class="cls-1" d="M222.65,15.31c-1.34,10.05-5.25,20.11-3.78,30,2.14,14.49,12.22,32.38,29.44,31.3a7,7,0,0,0,2.7-.59,7.68,7.68,0,0,0,2.4-2.18c16-19.7,14.93-45.18-1.83-62.9a25.53,25.53,0,0,0-7.82-6c-9-4.1-20.92,2.77-20.9,13"/><path class="cls-1" d="M283,75.4c-4,9.05-10.44,17.41-11.84,27.11-2,14.15,2.36,33.61,18.65,37.26a6.72,6.72,0,0,0,2.67.18,7.5,7.5,0,0,0,2.83-1.39c20.31-14.13,26.38-38.28,15.74-59.39a24.54,24.54,0,0,0-5.6-7.69c-7.25-6.28-20.18-3.06-23,6.53"/><path class="cls-1" d="M167.87,257.49q5.34-1.07,11.23-2.07a69.88,69.88,0,0,1,11.76-1,27.38,27.38,0,0,1,28.2,27.19,26.47,26.47,0,0,1-3.87,14.1,22.19,22.19,0,0,1-5.68,6.15,47.5,47.5,0,0,1-7.88,4.88,43.47,43.47,0,0,1-8.35,3.14,24,24,0,0,1-6.95.94l-2,19.11a8.86,8.86,0,0,1-3.21,6.48,9.24,9.24,0,0,1-5.75,2.21,7.48,7.48,0,0,1-5.21-1.94q-2.14-1.94-2-5.95L170,272.59a3.72,3.72,0,0,1-1.4.27h-1.4q-4,0-6.08-2.14a6.75,6.75,0,0,1-2.07-4.81,7.69,7.69,0,0,1,2.07-5.08Q163.19,258.43,167.87,257.49ZM186.31,294a9.37,9.37,0,0,0,6,.4,13.46,13.46,0,0,0,5.28-2.81,14.9,14.9,0,0,0,3.68-4.68,10.66,10.66,0,0,0,1.2-5.35,17.31,17.31,0,0,0-1.54-5.81,13,13,0,0,0-3.41-4.54,11.2,11.2,0,0,0-5-2.41,13,13,0,0,0-6.21.33Z"/><path class="cls-1" d="M239.5,310.68a17.73,17.73,0,0,0,8.29,7,23.09,23.09,0,0,0,10.56,1.67,11.64,11.64,0,0,0,2.94-.67q1.47-.53,2.87-1.14t2.81-1.07a12.7,12.7,0,0,1,2.74-.6,8.38,8.38,0,0,1,6.82,2.07,8.68,8.68,0,0,1,2.94,5.81,7.43,7.43,0,0,1-1.47,5.35,14.74,14.74,0,0,1-4.61,3.88,25.6,25.6,0,0,1-6.42,2.47,43.42,43.42,0,0,1-6.75,1.14,38.72,38.72,0,0,1-9.09,0A30.36,30.36,0,0,1,240,333.2a40,40,0,0,1-10-7.28,40.47,40.47,0,0,1-7.28-9.89,29.68,29.68,0,0,1-3.41-11,49,49,0,0,1,.4-10.69,32.57,32.57,0,0,1,3.54-10.89,25.46,25.46,0,0,1,7.75-8.75,26.24,26.24,0,0,1,12.9-4.41q9-.8,14.83,2.21a27,27,0,0,1,9.35,7.55A29.6,29.6,0,0,1,273,289.5a42.1,42.1,0,0,1,1.74,7.82,14.8,14.8,0,0,1-.74,6.75q-1.14,3.14-5,3.81ZM258.88,294a19,19,0,0,0-.94-3.88,9.71,9.71,0,0,0-1.94-3.27,8.15,8.15,0,0,0-3.21-2.14,10.6,10.6,0,0,0-4.74-.47,7.75,7.75,0,0,0-3.47,1.34,19.18,19.18,0,0,0-3.47,2.87,20.35,20.35,0,0,0-2.67,3.41,4.68,4.68,0,0,0-.94,2.81q0,1.2,1.47.94Z"/><path class="cls-1" d="M292.69,271.53a45.35,45.35,0,0,0,1.07-4.88,45.22,45.22,0,0,1,1.07-4.88,13.37,13.37,0,0,1,3.88-6.55,8,8,0,0,1,5.21-2.14,7.59,7.59,0,0,1,5.55,2.54q2.47,2.54,2.47,7.48a20.9,20.9,0,0,1-.47,4.34q-.47,2.2-1,4.08a37.27,37.27,0,0,1,5.48.4,14.85,14.85,0,0,1,4.61,1.39,8,8,0,0,1,3.07,2.72,6.88,6.88,0,0,1,1,4.24,9,9,0,0,1-1.34,4.78,7.38,7.38,0,0,1-3.21,2.58,15.57,15.57,0,0,1-4.61,1.13,54.63,54.63,0,0,1-5.55.26,18.63,18.63,0,0,1-3.61-.4,60,60,0,0,0-1,6,53.48,53.48,0,0,0-.33,6,48.55,48.55,0,0,0,3.88,19.09,38.12,38.12,0,0,0,13,15.87,7.24,7.24,0,0,1,2.94,5.76,8.45,8.45,0,0,1-.73,3.42,10.6,10.6,0,0,1-2,3,11.13,11.13,0,0,1-2.94,2.21,7.53,7.53,0,0,1-7.15-.07,37.47,37.47,0,0,1-11.29-8.5A48.9,48.9,0,0,1,293,330.08a53.11,53.11,0,0,1-4.34-13.26,75.47,75.47,0,0,1-1.34-14.13q0-3.62.33-7.1t1-7q-6.41-.26-9.29-2.79a7.34,7.34,0,0,1-2.87-5.57,8.34,8.34,0,0,1,3.21-6.3q3.21-2.85,8.82-2.85A24,24,0,0,1,292.69,271.53Z"/><path class="cls-1" d="M368.32,275.8a19.9,19.9,0,0,1,5.88,5.61,10.14,10.14,0,0,1,1.74,5.28,7,7,0,0,1-1.4,4.34,7.26,7.26,0,0,1-3.67,2.61,10.14,10.14,0,0,1-4.94.27,9.87,9.87,0,0,1-5.08-2.74,17.56,17.56,0,0,0-8-4.54,15.63,15.63,0,0,0-6.75-.33q-2.61.6-2.94,2.41t3.41,3.67q3.21,1.6,6.48,2.87a68,68,0,0,1,6.28,2.81,26,26,0,0,1,5.48,3.74,16.56,16.56,0,0,1,4.08,5.95,18.27,18.27,0,0,1,.94,12.76,22.45,22.45,0,0,1-6.68,10.36,27.35,27.35,0,0,1-11.56,6,25.1,25.1,0,0,1-13.56-.27,29.6,29.6,0,0,1-6.62-2.61,35.28,35.28,0,0,1-5.81-4.21q-3.61-3.07-3.74-6.55a8.2,8.2,0,0,1,1.94-5.88,9.15,9.15,0,0,1,5.61-3q3.54-.6,7.42,2.21a22.71,22.71,0,0,0,7.62,3.88q3.34.8,4.81,0,2.81-1.6,2.81-3.27a4.68,4.68,0,0,0-1.6-3.27,16.69,16.69,0,0,0-4.21-2.94q-2.61-1.33-5-2.41a38.41,38.41,0,0,1-8-4.54,29.91,29.91,0,0,1-6.41-6.35,18.22,18.22,0,0,1-3.34-7.82,15.69,15.69,0,0,1,1.27-9,13.78,13.78,0,0,1,3.88-5.35,23.9,23.9,0,0,1,5.68-3.54,27.67,27.67,0,0,1,6.62-2,39.86,39.86,0,0,1,6.82-.6,33.93,33.93,0,0,1,11,1.67A42.55,42.55,0,0,1,368.32,275.8Z"/><path class="cls-1" d="M96.51,323.24a15.89,15.89,0,0,1,.07,4.81,12.7,12.7,0,0,1-1.34,4.28,7.76,7.76,0,0,1-2.67,2.94,5.56,5.56,0,0,1-3.81.8q-5.75,0-8.82-8.15-1.07-2.81-2.07-6.21t-2-7.82q-1-4.41-1.94-10T72.05,291.3a55.65,55.65,0,0,1-4.48,9.82q-2.74,4.74-4.74,8.62a27.09,27.09,0,0,1-6.08,8,10.82,10.82,0,0,1-7.15,2.94,10.21,10.21,0,0,1-6.08-2.2A19.85,19.85,0,0,1,38,311.22a57.86,57.86,0,0,0-3.07-5.48q-1.47-2.27-2.87-4.34t-2.81-4.21a37.44,37.44,0,0,1-2.74-5.08q.27,2.14.4,4.34t.13,4.48q0,5.21-.33,10.16t-.94,9.22q-.6,4.28-1.27,7.55A39.66,39.66,0,0,1,23.14,333a7.91,7.91,0,0,1-3.54,4.21,10.06,10.06,0,0,1-5,1.4,7.6,7.6,0,0,1-3.88-1A7.49,7.49,0,0,1,8,334.94a9.63,9.63,0,0,1-1.27-3.81,8.05,8.05,0,0,1,.67-4.28q.8-9.22,1.34-16.64t1.07-14.5q.53-7.08,1.07-14.43t1.47-16.44q.4-4.68,2.87-6.95a8,8,0,0,1,5.55-2.27,10.14,10.14,0,0,1,6,2.14,14.37,14.37,0,0,1,4.68,6.41q2.14,5.08,4.21,9.35t4.28,8.42q2.21,4.14,4.48,8.35t4.81,9.15q2-4.81,4.28-10.42t4.21-11q1.94-5.41,3.41-10.09t2.14-7.48A8.44,8.44,0,0,1,66.57,255a9.52,9.52,0,0,1,5.48-1.74,10.41,10.41,0,0,1,5.41,1.47,7.68,7.68,0,0,1,3.41,4q3.61,10.42,7.62,27T96.51,323.24Z"/><path class="cls-1" d="M98.78,294.78a10.16,10.16,0,0,1-2.61-3.54,9.64,9.64,0,0,1-.73-3.67,9,9,0,0,1,2.34-6.21,7.49,7.49,0,0,1,5.81-2.61,8.51,8.51,0,0,1,3.14.67,10.92,10.92,0,0,1,3.27,2.14,28,28,0,0,0,6.48,4.68,13,13,0,0,0,5.68,1.47,10.44,10.44,0,0,0,8.08-3.88,38.1,38.1,0,0,0,6.08-10,6.91,6.91,0,0,1,2.47-3.14,6.1,6.1,0,0,1,3.41-1,9,9,0,0,1,6.28,2.81,9.23,9.23,0,0,1,2.94,6.95v.87a2.77,2.77,0,0,1-.13.87q-2.14,11.09-5,20.71a119.41,119.41,0,0,1-7.08,18.24,115.11,115.11,0,0,1-10,16.7,125.7,125.7,0,0,1-14,16.1,12.07,12.07,0,0,1-2.81,1.14,10.53,10.53,0,0,1-2.54.33,8.66,8.66,0,0,1-6.08-2.27,7.47,7.47,0,0,1-2.47-5.75,10.11,10.11,0,0,1,2.14-6q3.74-5.21,6.82-9.29t5.55-8q2.47-3.94,4.61-8.08a88.79,88.79,0,0,0,4.14-9.49,6.16,6.16,0,0,1-1.2.13h-1.2a27.47,27.47,0,0,1-12.43-3A43.6,43.6,0,0,1,98.78,294.78Z"/><path class="cls-2" d="M296.88,355.82a3.62,3.62,0,0,1,1.25-3,4.57,4.57,0,0,1,2.78-1.09,4.32,4.32,0,0,1,2.78.84,3.27,3.27,0,0,1,1.25,2.84q0,3.31-.12,6.55t-.25,6.49q-.13,3.25-.16,6.52t.16,6.59a20.47,20.47,0,0,0,5.59.59,28.29,28.29,0,0,0,5.46-.72,4.81,4.81,0,0,1,3.5.94,3.73,3.73,0,0,1,1.4,2.47,4.05,4.05,0,0,1-.78,2.78,4.68,4.68,0,0,1-3.12,1.81l-1.44.28q-1.12.22-2.81.38t-3.68.19a23.49,23.49,0,0,1-4-.28A16.1,16.1,0,0,1,300.9,389a7.88,7.88,0,0,1-3-2.12,5.7,5.7,0,0,1-1-1.94,12.67,12.67,0,0,1-.44-2.18,20.39,20.39,0,0,1-.12-2.25V378.3q-.12-5.68.19-11.24T296.88,355.82Z"/><path class="cls-2" d="M324.22,363.94a4,4,0,0,1,1.56-3,4.82,4.82,0,0,1,2.87-1,3.85,3.85,0,0,1,2.53.91,3.33,3.33,0,0,1,1.09,2.72q0,3.12-.19,6.46t-.19,6.52q0,2.06.16,4a35.07,35.07,0,0,0,.47,3.59c0,.21.07.41.09.59a5.44,5.44,0,0,1,0,.59,4.14,4.14,0,0,1-1.22,3.15,3.92,3.92,0,0,1-2.78,1.16,3.19,3.19,0,0,1-2.75-1.41,9.63,9.63,0,0,1-1.47-3.62,30.82,30.82,0,0,1-.59-5q-.13-2.75-.12-5.43t.13-5.18Q324,366.44,324.22,363.94Zm3.87-6.8a3.64,3.64,0,0,1-2.62-1.09,3.78,3.78,0,0,1-1.12-2.84,4.61,4.61,0,0,1,.44-1.9,7,7,0,0,1,1.12-1.75,5.13,5.13,0,0,1,1.56-1.22,3.35,3.35,0,0,1,1.75-.37,3.46,3.46,0,0,1,2.62,1.12A4.1,4.1,0,0,1,332.9,352a4,4,0,0,1-.47,1.84,7,7,0,0,1-1.16,1.62,6.2,6.2,0,0,1-1.56,1.19A3.46,3.46,0,0,1,328.09,357.13Z"/><path class="cls-2" d="M339.58,366.19a15.22,15.22,0,0,1,.16-4.43,9.56,9.56,0,0,1,1.69-4.06A8.09,8.09,0,0,1,345,355a10.54,10.54,0,0,1,5.71-.37,3.42,3.42,0,0,1,2.18,1.31,4.46,4.46,0,0,1,.94,2.28,3.3,3.3,0,0,1-.5,2.18,2.2,2.2,0,0,1-2,1,3.82,3.82,0,0,0-3.31,1.37,6.56,6.56,0,0,0-1.12,3.56l1.37-.25a5.14,5.14,0,0,1,1.37-.06,2.72,2.72,0,0,1,2.09,1.25,3.93,3.93,0,0,1,.59,2.31,4.19,4.19,0,0,1-.84,2.31,3.07,3.07,0,0,1-2.15,1.25,6.41,6.41,0,0,1-1.44,0,4.4,4.4,0,0,0-1.37,0,60.79,60.79,0,0,0,.25,8,54.13,54.13,0,0,1,.31,6.59,2.91,2.91,0,0,1-1.09,2.5,3.79,3.79,0,0,1-2.4.78,4.15,4.15,0,0,1-2.43-.87,3,3,0,0,1-1.19-2.47q-.13-1.87-.16-3.71t-.09-3.65q-.12-1.62-.25-3.12t-.12-3.56a3.48,3.48,0,0,1-2.4-.31,3.4,3.4,0,0,1-1.4-1.47,4.25,4.25,0,0,1-.41-2,4.14,4.14,0,0,1,.56-2,3.63,3.63,0,0,1,1.5-1.4A3.53,3.53,0,0,1,339.58,366.19Z"/><path class="cls-2" d="M365.11,377.11a8.28,8.28,0,0,0,3.87,3.28,10.79,10.79,0,0,0,4.93.78,5.42,5.42,0,0,0,1.37-.31q.69-.25,1.34-.53t1.31-.5a5.94,5.94,0,0,1,1.28-.28,3.91,3.91,0,0,1,3.18,1,4.06,4.06,0,0,1,1.37,2.71,3.47,3.47,0,0,1-.69,2.5,6.87,6.87,0,0,1-2.15,1.81,12,12,0,0,1-3,1.16,20.32,20.32,0,0,1-3.15.53,18.08,18.08,0,0,1-4.25,0,14.19,14.19,0,0,1-5.21-1.59,18.7,18.7,0,0,1-4.65-3.4,18.89,18.89,0,0,1-3.4-4.62,13.85,13.85,0,0,1-1.59-5.12,22.88,22.88,0,0,1,.19-5,15.22,15.22,0,0,1,1.65-5.09,11.88,11.88,0,0,1,3.62-4.09,12.26,12.26,0,0,1,6-2.06,12,12,0,0,1,11.3,4.56,13.86,13.86,0,0,1,2.31,4.4,19.7,19.7,0,0,1,.81,3.65,6.91,6.91,0,0,1-.34,3.15,2.76,2.76,0,0,1-2.34,1.78Zm9.05-7.8a9,9,0,0,0-.44-1.81,4.54,4.54,0,0,0-.91-1.53,3.81,3.81,0,0,0-1.5-1,4.94,4.94,0,0,0-2.22-.22,3.63,3.63,0,0,0-1.62.62,9,9,0,0,0-1.62,1.34,9.48,9.48,0,0,0-1.25,1.59,2.18,2.18,0,0,0-.44,1.31q0,.56.69.44Z"/><path class="cls-3" d="M188.35,207.88c-10.22,7-22.61,17.3-35.69,17.58-5.68.12-10.94-2-15.88-4.63s-9.9-4.87-14.56-7.7a9.41,9.41,0,0,1-3.24-3.27c-3.8-5.56-7.3-10.91-9.52-17.34-5.59-16.22-3.09-32.67,6.6-46.71,4.88-7.06,9.92-14.14,15.25-20.86,5.15-6.5,9.48-13.72,17.1-17.63,8.5-4.36,19.19-6.51,28.67-6.7s18.27,2.48,27,5.65c14.43,5.22,30.54,10.67,40.8,22.74,11.31,13.31,11.27,32,11.15,48.52-.08,10.54-1.65,19.79-7.87,28.53-4.65,6.53-11.44,15.42-19.17,18.34-13,4.93-30.64-.67-41.28-8.75-1.54-1.17-3,1.44-1.51,2.59,10.49,8,26,12.56,39.06,10.24,7.11-1.26,11.53-5.17,16.42-10.22,5.85-6,11.38-12.66,14.48-20.56,3.52-9,3-19.1,2.84-28.59-.14-8.81-.71-17.79-3.36-26.25-5.3-16.92-19-26.62-34.7-33.29-17.48-7.45-35.41-14.27-54.66-10.85-9,1.6-18.9,4.21-25.87,10.46-6.31,5.65-11.58,13.56-16.49,20.43-5.54,7.75-12,15.46-16,24.15a50.52,50.52,0,0,0-4.41,24,62,62,0,0,0,14.18,35.54c2.18,2.59,5.77,3.89,8.69,5.42,6.78,3.54,13.57,8,21.24,9.34,15.55,2.7,30.37-9.38,42.26-17.58,1.58-1.09.08-3.69-1.51-2.59Z"/><path class="cls-3" d="M82.53,55.9c-3.14,8.12-8,15.75-9.6,24.4a46.29,46.29,0,0,0,.66,18.31c2.47,11,10.18,24,22.7,25.18,5.82.54,11.73-6.84,14.91-10.91A45,45,0,0,0,119.67,95c3-13.46-.34-29.13-8.87-40.06C103,45,85.9,44.73,82.15,58.55a1.5,1.5,0,0,0,2.89.8c2-7.54,10.57-10.82,17.52-7.59,7.12,3.32,11.05,12.8,13.19,19.9,4.3,14.32,1.47,30-8.48,41.28-2.73,3.1-7.07,8.09-11.54,7.73-3.22-.26-6.75-2.5-9.18-4.55-5.14-4.32-8.17-10.69-9.78-17.09a42.48,42.48,0,0,1-.62-19.52c1.83-8,6.32-15.19,9.27-22.81.7-1.8-2.2-2.58-2.89-.8Z"/><path class="cls-3" d="M144.77,13c-3.09,8.17-7.93,15.87-9.47,24.57a45.44,45.44,0,0,0,.85,18.26c2.65,11.06,10.64,23.71,23.23,24.63,5.95.43,11.74-7,15-11.2a45.14,45.14,0,0,0,8.4-18c2.89-13.46-.64-29-9.38-39.78-8-9.86-25.32-9.64-29,4.17a1.5,1.5,0,0,0,2.89.8c1.93-7.32,10-10.85,17-8.3,7.67,2.8,12,12.55,14.3,19.82a43.12,43.12,0,0,1-8.14,41.39c-2.66,3.08-7.21,8.26-11.62,8-3-.17-6.31-2-8.71-3.82-5.61-4.14-9-10.71-10.74-17.31a41.78,41.78,0,0,1-.84-19.46c1.77-8.07,6.24-15.3,9.15-23,.68-1.81-2.21-2.59-2.89-.8Z"/><path class="cls-3" d="M208.93,21.37c-1.28,8.67-4.22,17.22-4.15,26a44.63,44.63,0,0,0,4.35,18c4.84,10.52,15,20.77,27.6,19.07,6.18-.84,10.13-9.13,12.51-14.16A48.73,48.73,0,0,0,254,50.31c.22-13.92-6.3-28.79-17.42-37.41-10.51-8.15-26.86-2.54-27.51,11.58-.09,1.93,2.91,1.93,3,0A13.65,13.65,0,0,1,226.8,11.81c8.25.66,14.8,9.64,18.52,16.26A44.58,44.58,0,0,1,246,70.23c-2,3.92-5.25,10.57-9.93,11.37-3,.52-6.55-.38-9.33-1.53-5.84-2.43-10.2-7.33-13.26-12.74a42.56,42.56,0,0,1-5.66-19c-.29-8.83,2.76-17.47,4-26.13.28-1.89-2.61-2.7-2.89-.8Z"/><path class="cls-3" d="M268.55,78.72c-3.51,7.6-8.47,14.65-10.91,22.72a43.59,43.59,0,0,0-1.15,18.31c1.51,11.17,8.05,23.89,20.43,25.65,6,.86,12.11-6,15.73-10.09a48,48,0,0,0,9.87-17.41c4.05-13,2.09-29.1-6.24-40.17-7.72-10.26-24.11-8.61-28.44,4-.63,1.83,2.27,2.62,2.89.8a13.28,13.28,0,0,1,18-7.49c6.77,3.21,10.07,12.55,11.68,19.4a43.83,43.83,0,0,1-10.83,39.87c-3,3.21-7.69,8.54-12.51,8.14-3.11-.26-6.49-2.4-8.78-4.41-4.52-4-7-9.72-8.27-15.49a42,42,0,0,1,.09-18.7c2.09-8.43,7.45-15.76,11-23.56.8-1.74-1.78-3.27-2.59-1.51Z"/><path class="cls-3" d="M120.66,282.34a11.33,11.33,0,0,1-4-.72c-3.7-1.41-6.57-4.36-9.1-7l-2.73-2.81a.5.5,0,1,1,.72-.7L108.3,274c2.46,2.53,5.24,5.4,8.74,6.72,3.2,1.22,7.56.89,9.71-2.09a.5.5,0,1,1,.81.58A8.27,8.27,0,0,1,120.66,282.34Z"/><path class="cls-3" d="M249.45,341.27c-10.13,0-17.78-4.23-23.32-12.87a.5.5,0,1,1,.84-.54c5.95,9.29,14.45,13.3,26,12.25a.52.52,0,0,1,.54.45.5.5,0,0,1-.45.54Q251.2,341.27,249.45,341.27Z"/><path class="cls-3" d="M374.34,322.38h-.08a.5.5,0,0,1-.41-.58c.8-4.69,1.17-8.59.4-12.41-.89-4.43-3.43-8-6.78-9.63a.5.5,0,1,1,.43-.9c3.63,1.74,6.37,5.6,7.32,10.34.8,4,.42,8-.39,12.78A.5.5,0,0,1,374.34,322.38Z"/><path class="cls-3" d="M187.72,215.64c-11-7.16-21.82-14.81-31.34-23.89-7-6.72-16.41-16.3-16-26.86.37-8.55,9.62-16.28,17.92-16.83,11-.73,17.54,8.84,20.74,18.1.63,1.81,3.53,1,2.89-.8-2.89-8.36-7.82-16.74-16.78-19.48-6-1.83-11.73-.53-16.89,2.76-6.84,4.36-11.87,11.06-10.69,19.5,1.29,9.3,8.2,17.31,14.58,23.72,10.12,10.17,22,18.58,34,26.38,1.62,1.06,3.13-1.54,1.51-2.59Z"/><path class="cls-3" d="M181.83,166.51c3.16-6,8-12.37,14.15-15.56,8.06-4.19,17.23,1.1,20.7,7.91,10.08,19.77-14.63,39.59-28.33,49-1.58,1.09-.08,3.69,1.51,2.59,14.59-10.05,35.88-27.19,31.38-47.72-2.72-12.4-16.89-20.73-28.29-13.5-5.8,3.67-10.54,9.7-13.71,15.75-.89,1.71,1.69,3.23,2.59,1.51Z"/></svg>