<svg id="Calque_1" data-name="Calque 1" xmlns="http://www.w3.org/2000/svg" viewBox="0 0 375.76 137.86"><defs><style>.cls-1{fill:#13e2ba;}.cls-2{fill:#ec1d45;}.cls-3{fill:#333;}</style></defs><title>logo-title</title><path class="cls-1" d="M173.35,19.49q5.34-1.07,11.23-2.07a69.88,69.88,0,0,1,11.76-1,27.38,27.38,0,0,1,28.2,27.19,26.47,26.47,0,0,1-3.87,14.1A22.19,22.19,0,0,1,215,63.86a47.5,47.5,0,0,1-7.88,4.88,43.47,43.47,0,0,1-8.35,3.14,24,24,0,0,1-6.95.94l-2,19.11a8.86,8.86,0,0,1-3.21,6.48,9.24,9.24,0,0,1-5.75,2.21,7.48,7.48,0,0,1-5.21-1.94q-2.14-1.94-2-5.95l1.87-58.13a3.72,3.72,0,0,1-1.4.27h-1.4q-4,0-6.08-2.14a6.75,6.75,0,0,1-2.07-4.81,7.69,7.69,0,0,1,2.07-5.08Q168.67,20.43,173.35,19.49ZM191.79,56a9.37,9.37,0,0,0,6,.4,13.46,13.46,0,0,0,5.28-2.81,14.9,14.9,0,0,0,3.68-4.68,10.66,10.66,0,0,0,1.2-5.35,17.31,17.31,0,0,0-1.54-5.81A13,13,0,0,0,203,33.19a11.2,11.2,0,0,0-5-2.41,13,13,0,0,0-6.21.33Z" transform="translate(-12.12 -15.08)"/><path class="cls-1" d="M245,72.68a17.73,17.73,0,0,0,8.29,7,23.09,23.09,0,0,0,10.56,1.67,11.64,11.64,0,0,0,2.94-.67q1.47-.53,2.87-1.14t2.81-1.07a12.7,12.7,0,0,1,2.74-.6A8.38,8.38,0,0,1,282,80a8.68,8.68,0,0,1,2.94,5.81,7.43,7.43,0,0,1-1.47,5.35A14.74,14.74,0,0,1,278.85,95a25.6,25.6,0,0,1-6.42,2.47,43.42,43.42,0,0,1-6.75,1.14,38.72,38.72,0,0,1-9.09,0,30.36,30.36,0,0,1-11.16-3.41,40,40,0,0,1-10-7.28A40.47,40.47,0,0,1,228.21,78a29.68,29.68,0,0,1-3.41-11,49,49,0,0,1,.4-10.69,32.57,32.57,0,0,1,3.54-10.89,25.46,25.46,0,0,1,7.75-8.75,26.24,26.24,0,0,1,12.9-4.41q9-.8,14.83,2.21a27,27,0,0,1,9.35,7.55,29.6,29.6,0,0,1,4.94,9.42,42.1,42.1,0,0,1,1.74,7.82,14.8,14.8,0,0,1-.74,6.75q-1.14,3.14-5,3.81ZM264.35,56a19,19,0,0,0-.94-3.88,9.71,9.71,0,0,0-1.94-3.27,8.15,8.15,0,0,0-3.21-2.14,10.6,10.6,0,0,0-4.74-.47,7.75,7.75,0,0,0-3.47,1.34,19.18,19.18,0,0,0-3.47,2.87,20.35,20.35,0,0,0-2.67,3.41,4.68,4.68,0,0,0-.94,2.81q0,1.2,1.47.94Z" transform="translate(-12.12 -15.08)"/><path class="cls-1" d="M298.17,33.53a45.35,45.35,0,0,0,1.07-4.88,45.22,45.22,0,0,1,1.07-4.88,13.37,13.37,0,0,1,3.88-6.55,8,8,0,0,1,5.21-2.14,7.59,7.59,0,0,1,5.55,2.54q2.47,2.54,2.47,7.48a20.9,20.9,0,0,1-.47,4.34q-.47,2.2-1,4.08a37.27,37.27,0,0,1,5.48.4A14.85,14.85,0,0,1,326,35.32,8,8,0,0,1,329.1,38a6.88,6.88,0,0,1,1,4.24,9,9,0,0,1-1.34,4.78,7.38,7.38,0,0,1-3.21,2.58A15.57,15.57,0,0,1,321,50.77a54.63,54.63,0,0,1-5.55.26,18.63,18.63,0,0,1-3.61-.4,60,60,0,0,0-1,6,53.48,53.48,0,0,0-.33,6,48.55,48.55,0,0,0,3.88,19.09,38.12,38.12,0,0,0,13,15.87,7.24,7.24,0,0,1,2.94,5.76,8.45,8.45,0,0,1-.73,3.42,10.6,10.6,0,0,1-2,3,11.13,11.13,0,0,1-2.94,2.21,7.53,7.53,0,0,1-7.15-.07,37.47,37.47,0,0,1-11.29-8.5,48.9,48.9,0,0,1-7.62-11.38,53.11,53.11,0,0,1-4.34-13.26,75.47,75.47,0,0,1-1.34-14.13q0-3.62.33-7.1t1-7q-6.41-.26-9.29-2.79A7.34,7.34,0,0,1,282,42.28,8.34,8.34,0,0,1,285.2,36q3.21-2.85,8.82-2.85A24,24,0,0,1,298.17,33.53Z" transform="translate(-12.12 -15.08)"/><path class="cls-1" d="M373.8,37.8a19.9,19.9,0,0,1,5.88,5.61,10.14,10.14,0,0,1,1.74,5.28A7,7,0,0,1,380,53a7.26,7.26,0,0,1-3.67,2.61,10.14,10.14,0,0,1-4.94.27,9.87,9.87,0,0,1-5.08-2.74,17.56,17.56,0,0,0-8-4.54,15.63,15.63,0,0,0-6.75-.33q-2.61.6-2.94,2.41T352,54.37q3.21,1.6,6.48,2.87a68,68,0,0,1,6.28,2.81,26,26,0,0,1,5.48,3.74,16.56,16.56,0,0,1,4.08,5.95,18.27,18.27,0,0,1,.94,12.76,22.45,22.45,0,0,1-6.68,10.36,27.35,27.35,0,0,1-11.56,6,25.1,25.1,0,0,1-13.56-.27A29.6,29.6,0,0,1,336.85,96,35.28,35.28,0,0,1,331,91.79q-3.61-3.07-3.74-6.55a8.2,8.2,0,0,1,1.94-5.88,9.15,9.15,0,0,1,5.61-3q3.54-.6,7.42,2.21a22.71,22.71,0,0,0,7.62,3.88q3.34.8,4.81,0,2.81-1.6,2.81-3.27a4.68,4.68,0,0,0-1.6-3.27,16.69,16.69,0,0,0-4.21-2.94q-2.61-1.33-5-2.41a38.41,38.41,0,0,1-8-4.54,29.91,29.91,0,0,1-6.41-6.35A18.22,18.22,0,0,1,329,51.83a15.69,15.69,0,0,1,1.27-9,13.78,13.78,0,0,1,3.88-5.35A23.9,23.9,0,0,1,339.79,34a27.67,27.67,0,0,1,6.62-2,39.86,39.86,0,0,1,6.82-.6,33.93,33.93,0,0,1,11,1.67A42.55,42.55,0,0,1,373.8,37.8Z" transform="translate(-12.12 -15.08)"/><path class="cls-1" d="M102,85.24a15.89,15.89,0,0,1,.07,4.81,12.7,12.7,0,0,1-1.34,4.28A7.76,7.76,0,0,1,98,97.27a5.56,5.56,0,0,1-3.81.8q-5.75,0-8.82-8.15-1.07-2.81-2.07-6.21t-2-7.82q-1-4.41-1.94-10T77.53,53.3a55.65,55.65,0,0,1-4.48,9.82q-2.74,4.74-4.74,8.62a27.09,27.09,0,0,1-6.08,8,10.82,10.82,0,0,1-7.15,2.94A10.21,10.21,0,0,1,49,80.5a19.85,19.85,0,0,1-5.55-7.28,57.86,57.86,0,0,0-3.07-5.48q-1.47-2.27-2.87-4.34T34.7,59.18A37.44,37.44,0,0,1,32,54.11q.27,2.14.4,4.34t.13,4.48q0,5.21-.33,10.16t-.94,9.22q-.6,4.28-1.27,7.55A39.66,39.66,0,0,1,28.62,95a7.91,7.91,0,0,1-3.54,4.21,10.06,10.06,0,0,1-5,1.4,7.6,7.6,0,0,1-3.88-1,7.49,7.49,0,0,1-2.74-2.67,9.63,9.63,0,0,1-1.27-3.81,8.05,8.05,0,0,1,.67-4.28q.8-9.22,1.34-16.64t1.07-14.5q.53-7.08,1.07-14.43t1.47-16.44q.4-4.68,2.87-6.95a8,8,0,0,1,5.55-2.27,10.14,10.14,0,0,1,6,2.14,14.37,14.37,0,0,1,4.68,6.41q2.14,5.08,4.21,9.35t4.28,8.42q2.21,4.14,4.48,8.35t4.81,9.15Q56.68,56.64,59,51t4.21-11q1.94-5.41,3.41-10.09t2.14-7.48A8.44,8.44,0,0,1,72.05,17a9.52,9.52,0,0,1,5.48-1.74,10.41,10.41,0,0,1,5.41,1.47,7.68,7.68,0,0,1,3.41,4Q90,31.12,94,47.69T102,85.24Z" transform="translate(-12.12 -15.08)"/><path class="cls-1" d="M104.26,56.78a10.16,10.16,0,0,1-2.61-3.54,9.64,9.64,0,0,1-.73-3.67,9,9,0,0,1,2.34-6.21,7.49,7.49,0,0,1,5.81-2.61,8.51,8.51,0,0,1,3.14.67,10.92,10.92,0,0,1,3.27,2.14A28,28,0,0,0,122,48.23a13,13,0,0,0,5.68,1.47,10.44,10.44,0,0,0,8.08-3.88,38.1,38.1,0,0,0,6.08-10,6.91,6.91,0,0,1,2.47-3.14,6.1,6.1,0,0,1,3.41-1A9,9,0,0,1,154,34.46a9.23,9.23,0,0,1,2.94,6.95v.87a2.77,2.77,0,0,1-.13.87q-2.14,11.09-5,20.71a119.41,119.41,0,0,1-7.08,18.24,115.11,115.11,0,0,1-10,16.7,125.7,125.7,0,0,1-14,16.1,12.07,12.07,0,0,1-2.81,1.14,10.53,10.53,0,0,1-2.54.33,8.66,8.66,0,0,1-6.08-2.27,7.47,7.47,0,0,1-2.47-5.75,10.11,10.11,0,0,1,2.14-6q3.74-5.21,6.82-9.29t5.55-8q2.47-3.94,4.61-8.08A88.79,88.79,0,0,0,130,67.47a6.16,6.16,0,0,1-1.2.13h-1.2a27.47,27.47,0,0,1-12.43-3A43.6,43.6,0,0,1,104.26,56.78Z" transform="translate(-12.12 -15.08)"/><path class="cls-2" d="M301,117.82a3.62,3.62,0,0,1,1.25-3,4.57,4.57,0,0,1,2.78-1.09,4.32,4.32,0,0,1,2.78.84,3.27,3.27,0,0,1,1.25,2.84q0,3.31-.12,6.55t-.25,6.49q-.13,3.25-.16,6.52t.16,6.59a20.47,20.47,0,0,0,5.59.59,28.29,28.29,0,0,0,5.46-.72,4.81,4.81,0,0,1,3.5.94,3.73,3.73,0,0,1,1.4,2.47,4.05,4.05,0,0,1-.78,2.78,4.68,4.68,0,0,1-3.12,1.81l-1.44.28q-1.12.22-2.81.38t-3.68.19a23.49,23.49,0,0,1-4-.28A16.1,16.1,0,0,1,305,151a7.88,7.88,0,0,1-3-2.12,5.7,5.7,0,0,1-1-1.94,12.67,12.67,0,0,1-.44-2.18,20.39,20.39,0,0,1-.12-2.25V140.3q-.12-5.68.19-11.24T301,117.82Z" transform="translate(-12.12 -15.08)"/><path class="cls-2" d="M328.31,125.94a4,4,0,0,1,1.56-3,4.82,4.82,0,0,1,2.87-1,3.85,3.85,0,0,1,2.53.91,3.33,3.33,0,0,1,1.09,2.72q0,3.12-.19,6.46t-.19,6.52q0,2.06.16,4a35.07,35.07,0,0,0,.47,3.59c0,.21.07.41.09.59a5.44,5.44,0,0,1,0,.59,4.14,4.14,0,0,1-1.22,3.15,3.92,3.92,0,0,1-2.78,1.16,3.19,3.19,0,0,1-2.75-1.41,9.63,9.63,0,0,1-1.47-3.62,30.82,30.82,0,0,1-.59-5q-.13-2.75-.12-5.43t.13-5.18Q328.06,128.44,328.31,125.94Zm3.87-6.8a3.64,3.64,0,0,1-2.62-1.09,3.78,3.78,0,0,1-1.12-2.84,4.61,4.61,0,0,1,.44-1.9,7,7,0,0,1,1.12-1.75,5.13,5.13,0,0,1,1.56-1.22,3.35,3.35,0,0,1,1.75-.37,3.46,3.46,0,0,1,2.62,1.12A4.1,4.1,0,0,1,337,114a4,4,0,0,1-.47,1.84,7,7,0,0,1-1.16,1.62,6.2,6.2,0,0,1-1.56,1.19A3.46,3.46,0,0,1,332.18,119.13Z" transform="translate(-12.12 -15.08)"/><path class="cls-2" d="M343.67,128.19a15.22,15.22,0,0,1,.16-4.43,9.56,9.56,0,0,1,1.69-4.06,8.09,8.09,0,0,1,3.56-2.68,10.54,10.54,0,0,1,5.71-.37,3.42,3.42,0,0,1,2.18,1.31,4.46,4.46,0,0,1,.94,2.28,3.3,3.3,0,0,1-.5,2.18,2.2,2.2,0,0,1-2,1,3.82,3.82,0,0,0-3.31,1.37,6.56,6.56,0,0,0-1.12,3.56l1.37-.25a5.14,5.14,0,0,1,1.37-.06,2.72,2.72,0,0,1,2.09,1.25,3.93,3.93,0,0,1,.59,2.31,4.19,4.19,0,0,1-.84,2.31,3.07,3.07,0,0,1-2.15,1.25,6.41,6.41,0,0,1-1.44,0,4.4,4.4,0,0,0-1.37,0,60.79,60.79,0,0,0,.25,8,54.13,54.13,0,0,1,.31,6.59,2.91,2.91,0,0,1-1.09,2.5,3.79,3.79,0,0,1-2.4.78,4.15,4.15,0,0,1-2.43-.87A3,3,0,0,1,344,149.6q-.13-1.87-.16-3.71t-.09-3.65q-.12-1.62-.25-3.12t-.12-3.56a3.48,3.48,0,0,1-2.4-.31,3.4,3.4,0,0,1-1.4-1.47,4.25,4.25,0,0,1-.41-2,4.14,4.14,0,0,1,.56-2,3.63,3.63,0,0,1,1.5-1.4A3.53,3.53,0,0,1,343.67,128.19Z" transform="translate(-12.12 -15.08)"/><path class="cls-2" d="M369.2,139.11a8.28,8.28,0,0,0,3.87,3.28,10.79,10.79,0,0,0,4.93.78,5.42,5.42,0,0,0,1.37-.31q.69-.25,1.34-.53t1.31-.5a5.94,5.94,0,0,1,1.28-.28,3.91,3.91,0,0,1,3.18,1,4.06,4.06,0,0,1,1.37,2.71,3.47,3.47,0,0,1-.69,2.5,6.87,6.87,0,0,1-2.15,1.81,12,12,0,0,1-3,1.16,20.32,20.32,0,0,1-3.15.53,18.08,18.08,0,0,1-4.25,0,14.19,14.19,0,0,1-5.21-1.59,18.7,18.7,0,0,1-4.65-3.4,18.89,18.89,0,0,1-3.4-4.62,13.85,13.85,0,0,1-1.59-5.12,22.88,22.88,0,0,1,.19-5,15.22,15.22,0,0,1,1.65-5.09,11.88,11.88,0,0,1,3.62-4.09,12.26,12.26,0,0,1,6-2.06,12,12,0,0,1,11.3,4.56,13.86,13.86,0,0,1,2.31,4.4,19.7,19.7,0,0,1,.81,3.65,6.91,6.91,0,0,1-.34,3.15A2.76,2.76,0,0,1,383,137.8Zm9.05-7.8a9,9,0,0,0-.44-1.81,4.54,4.54,0,0,0-.91-1.53,3.81,3.81,0,0,0-1.5-1,4.94,4.94,0,0,0-2.22-.22,3.63,3.63,0,0,0-1.62.62,9,9,0,0,0-1.62,1.34,9.48,9.48,0,0,0-1.25,1.59,2.18,2.18,0,0,0-.44,1.31q0,.56.69.44Z" transform="translate(-12.12 -15.08)"/><path class="cls-3" d="M124.75,44.34a11.33,11.33,0,0,1-4-.72c-3.7-1.41-6.57-4.36-9.1-7l-2.73-2.81a.5.5,0,1,1,.72-.7L112.39,36c2.46,2.53,5.24,5.4,8.74,6.72,3.2,1.22,7.56.89,9.71-2.09a.5.5,0,0,1,.81.58A8.27,8.27,0,0,1,124.75,44.34Z" transform="translate(-12.12 -15.08)"/><path class="cls-3" d="M253.54,103.27c-10.13,0-17.78-4.23-23.32-12.87a.5.5,0,1,1,.84-.54c5.95,9.29,14.45,13.29,26,12.25a.51.51,0,0,1,.54.45.5.5,0,0,1-.45.54Q255.29,103.27,253.54,103.27Z" transform="translate(-12.12 -15.08)"/><path class="cls-3" d="M378.43,84.38h-.08a.5.5,0,0,1-.41-.58c.8-4.69,1.17-8.59.4-12.41-.89-4.43-3.42-8-6.78-9.63a.5.5,0,0,1,.43-.9c3.63,1.74,6.37,5.6,7.32,10.34.8,4,.42,8-.39,12.78A.5.5,0,0,1,378.43,84.38Z" transform="translate(-12.12 -15.08)"/></svg>