<svg id="Calque_1" data-name="Calque 1" xmlns="http://www.w3.org/2000/svg" xmlns:xlink="http://www.w3.org/1999/xlink"
     viewBox="0 0 1084 775">
    <defs>
        <style>
            .cls-1,.cls-11{fill:#99beff;}.cls-1,.cls-2,.cls-9{opacity:0.2;isolation:isolate;}.cls-2{fill:#333;}.cls-3{fill:#57331f;}.cls-4{fill:#69a1ac;}.cls-5{fill:#89c5cc;}.cls-6{fill:#e4e4e4;}.cls-7{fill:#191847;}.cls-8{fill:#2f3676;}.cls-9{fill:#6613e2;}.cls-10{fill:#f58da1;}.cls-12{fill:#c3f8ee;}.cls-13{fill:#eebbec;}.cls-14,.cls-15,.cls-16,.cls-17,.cls-18{fill:none;}.cls-15{stroke:#f58da1;}.cls-15,.cls-16,.cls-18{stroke-width:6px;}.cls-16{stroke:#13e2e2;}.cls-17{stroke:#99beff;stroke-width:8px;}.cls-18{stroke:#ec1d45;}.cls-19{fill:url(#Dégradé_sans_nom);}.cls-20{fill:#13e2ba;}.cls-21{fill:#f5f5f5;}
        </style>
        <linearGradient id="Dégradé_sans_nom" x1="-829.68" y1="1.92" x2="-829.3" y2="2.92"
                        gradientTransform="translate(172469.42 -178) scale(207.12 155.35)"
                        gradientUnits="userSpaceOnUse">
            <stop offset="0" stop-color="#13e2e2"/>
            <stop offset="1" stop-color="#13e2ba"/>
        </linearGradient>
    </defs>
    <title>mail-sent-illustration</title>
    <circle id="Oval" class="cls-1" cx="566" cy="353" r="329"/>
    <g id="Groupe_4589" data-name="Groupe 4589">
        <ellipse id="Ellipse_733" data-name="Ellipse 733" class="cls-2" cx="416" cy="733" rx="228" ry="17"/>
        <g id="Groupe_4584" data-name="Groupe 4584">
            <g id="Bottom_Standing_Sweatpants" data-name="Bottom Standing Sweatpants">
                <path id="Leg" class="cls-3" d="M338.44,399.64l51.1,175.9,24,132.1h24.1l-24.1-308Z"/>
                <path id="Leg-2" class="cls-3"
                      d="M315.54,399.64c3.6,91.4,2.2,141.3,1.4,149.6s-5.3,63.9-36.2,161.3h25.1c40.9-93.4,55.1-149,59.8-161.3s18.5-62.1,38.7-149.6Z"/>
                <path id="Pant" class="cls-4"
                      d="M337.34,399.64q19.95,90.75,68.9,289.9h35.3c2.6-136.2-8.5-225.9-27.7-289.9Z"/>
                <path id="Pant-2" class="cls-5"
                      d="M315.34,399.64c3.5,91.4-5.6,181.5-33.6,291.4h37.6c40.9-92,70.3-181.6,90.3-291.4Z"/>
                <g id="Left_Shoe" data-name="Left Shoe">
                    <path id="Shoe" class="cls-6"
                          d="M277.14,728.6l1.3-21.1a1.4,1.4,0,0,1,1.3-1.3l29.2-2.7,50.2,18.6a2.77,2.77,0,0,1,1.7,3.4l-2.1,7.3h-78.9Z"/>
                </g>
                <g id="Right_Shoe" data-name="Right Shoe">
                    <path id="Shoe-2" class="cls-6"
                          d="M408.17,728.6l1.3-21.1a1.4,1.4,0,0,1,1.3-1.3l29.2-2.7,50.2,18.6a2.77,2.77,0,0,1,1.7,3.4l-2.1,7.3h-78.9Z"/>
                </g>
            </g>
            <g id="Head_Front" data-name="Head Front">
                <g id="Head">
                    <path id="Head-2" class="cls-3"
                          d="M353.4,246.11l12-55.9c-6.7-7.9-11.2-17.5-10.5-28.3,2.2-31.1,45.4-24.2,53.9-8.6s7.4,55.5-3.5,58.3c-4.3,1.1-13.6-1.6-23-7.3l5.9,41.7Z"/>
                </g>
                <path id="Hair" class="cls-7"
                      d="M382.53,202.63c-2.3-7.1-3.2-27.4-3.4-33.4-.3,0-.7-.1-1-.1a8.71,8.71,0,0,0-8.7,8.7A8.54,8.54,0,0,0,372,184c-2,2.8-4.3,5.8-6.9,8.9-9.7-5.8-16.9-22.9-7.4-39.3,2.6-8,8.6-12.3,15.6-14.3a24.94,24.94,0,0,1,16.6-1.2c9.8.8,18.5,3.8,21,5.6,0,9.3-1.8,12-17.1,11.8-3.8,2-6.7,5.4-9.7,9.9,0,.3,2,27.9,10.6,27.9s15.9-5.4,19.6-5.4c2.7,0,2.1,3.4.3,6-1.5,2.1-8.8,4.1-8.8,7.4,0,1.8,1.8,1.8,3.4,1.8,1.2,0,2.3,0,2.3.8,0,3.2,1,9.2-4.5,9.2S385.33,210.93,382.53,202.63Z"/>
            </g>
            <g id="Body_Long_Sleeve_1" data-name="Body Long Sleeve 1">
                <path id="Arm" class="cls-3"
                      d="M468.11,369.46l36.1,46.3c11,6.4,19.8,13.2,26.6,20.4,1.5,2.4,3,6.8-4.6,4.3s-15.5-4.7-17.2-2,2.3,7.4-.6,10.9c-1.9,2.3-7.4-6-16.3-25l-38.7-30.3Z"/>
                <path id="Arm-2" class="cls-3"
                      d="M276.41,319.66s-21.3,118.1-25.5,127.2c-2.1,4.5-17.5,18.1-28.2,25.9-4.3,3.1-2.5,7.1-.9,8.2,13.2,8.6,21.8-1.6,33.3-7.2,12.5-6.2,11.4,11.3,21.3,6.6-3-7.2-10.2-20.7-6.8-29.6,2.2-5.9,38.6-131,38.6-131Z"/>
                <path id="Clothes_Back" data-name="Clothes Back" class="cls-7"
                      d="M378.41,225.36l12-1.4c13.8,76.9,106.6,135.7,110.6,164.3,1.5,10.5-5.4,15.3-2.2,18.7l-16.3,11.7c-2.4-3.7-8.4,2.3-19.7-3.1S372.51,314.76,378.41,225.36Z"/>
                <path id="Clothes_Front" data-name="Clothes Front" class="cls-8"
                      d="M252.61,439.36c1.4-8.5-8.6-12.7-5.9-31.7,15.3-107.5,73.8-165.3,97.5-184.6l.7-11a4,4,0,0,1,4.2-3.9h0l42.7,3.2a4.13,4.13,0,0,1,3.7,4.5l-1.2,17.8c-1.5,98.4,52.1,123.5,40.2,163-9.8,32.6-104.1,67.6-120.4,35.7-6.5-12.8-9.5-28.3-9.9-45.1-4.1,12.7-7.5,24.1-9.9,33.2-4.2,16.3-20.4,18.9-20.4,25.1Z"/>
            </g>
        </g>
    </g>
    <g id="mail-background">
        <circle id="Oval-2" class="cls-9" cx="938" cy="734" r="41"/>
        <path id="Polygon" class="cls-9" d="M147,29l49,49-49,49L98,78Z"/>
        <path id="Polygon-2" class="cls-9" d="M926,144l12,12-12,12-12-12Z"/>
        <g id="Groupe_4585" data-name="Groupe 4585">
            <path id="Rectangle_1653" data-name="Rectangle 1653" class="cls-10"
                  d="M837,110h13a.94.94,0,0,1,1,1v6a.94.94,0,0,1-1,1H837a.94.94,0,0,1-1-1v-6A.94.94,0,0,1,837,110Z"/>
            <path id="Rectangle_1656" data-name="Rectangle 1656" class="cls-10"
                  d="M859,110h13a.94.94,0,0,1,1,1v6a.94.94,0,0,1-1,1H859a.94.94,0,0,1-1-1v-6A.94.94,0,0,1,859,110Z"/>
            <path id="Rectangle_1654" data-name="Rectangle 1654" class="cls-10"
                  d="M858.5,96.5v13a.94.94,0,0,1-1,1h-6a.94.94,0,0,1-1-1v-13a.94.94,0,0,1,1-1h6A.94.94,0,0,1,858.5,96.5Z"/>
            <path id="Rectangle_1655" data-name="Rectangle 1655" class="cls-10"
                  d="M858.5,118.5v13a.94.94,0,0,1-1,1h-6a.94.94,0,0,1-1-1v-13a.94.94,0,0,1,1-1h6A.94.94,0,0,1,858.5,118.5Z"/>
        </g>
        <g id="Groupe_4586" data-name="Groupe 4586">
            <path id="Rectangle_1653-2" data-name="Rectangle 1653-2" class="cls-11"
                  d="M30,536H43a.94.94,0,0,1,1,1v6a.94.94,0,0,1-1,1H30a.94.94,0,0,1-1-1v-6A.94.94,0,0,1,30,536Z"/>
            <path id="Rectangle_1656-2" data-name="Rectangle 1656-2" class="cls-11"
                  d="M52,536H65a.94.94,0,0,1,1,1v6a.94.94,0,0,1-1,1H52a.94.94,0,0,1-1-1v-6A.94.94,0,0,1,52,536Z"/>
            <path id="Rectangle_1654-2" data-name="Rectangle 1654-2" class="cls-11"
                  d="M51.5,522.5v13a.94.94,0,0,1-1,1h-6a.94.94,0,0,1-1-1v-13a.94.94,0,0,1,1-1h6A.94.94,0,0,1,51.5,522.5Z"/>
            <path id="Rectangle_1655-2" data-name="Rectangle 1655-2" class="cls-11"
                  d="M51.5,544.5v13a.94.94,0,0,1-1,1h-6a.94.94,0,0,1-1-1v-13a.94.94,0,0,1,1-1h6A.94.94,0,0,1,51.5,544.5Z"/>
        </g>
        <g id="Groupe_4587" data-name="Groupe 4587">
            <path id="Rectangle_1653-3" data-name="Rectangle 1653-3" class="cls-12"
                  d="M1,96H14a.94.94,0,0,1,1,1v6a.94.94,0,0,1-1,1H1a.94.94,0,0,1-1-1V97A.94.94,0,0,1,1,96Z"/>
            <path id="Rectangle_1656-3" data-name="Rectangle 1656-3" class="cls-12"
                  d="M23,96H36a.94.94,0,0,1,1,1v6a.94.94,0,0,1-1,1H23a.94.94,0,0,1-1-1V97A.94.94,0,0,1,23,96Z"/>
            <path id="Rectangle_1654-3" data-name="Rectangle 1654-3" class="cls-12"
                  d="M22.5,82.5v13a.94.94,0,0,1-1,1h-6a.94.94,0,0,1-1-1v-13a.94.94,0,0,1,1-1h6A.94.94,0,0,1,22.5,82.5Z"/>
            <path id="Rectangle_1655-3" data-name="Rectangle 1655-3" class="cls-12"
                  d="M22.5,104.5v13a.94.94,0,0,1-1,1h-6a.94.94,0,0,1-1-1v-13a.94.94,0,0,1,1-1h6A.94.94,0,0,1,22.5,104.5Z"/>
        </g>
        <g id="Groupe_4588" data-name="Groupe 4588">
            <path id="Rectangle_1653-4" data-name="Rectangle 1653-4" class="cls-13"
                  d="M560,480h13a.94.94,0,0,1,1,1v6a.94.94,0,0,1-1,1H560a.94.94,0,0,1-1-1v-6A.94.94,0,0,1,560,480Z"/>
            <path id="Rectangle_1656-4" data-name="Rectangle 1656-4" class="cls-13"
                  d="M582,480h13a.94.94,0,0,1,1,1v6a.94.94,0,0,1-1,1H582a.94.94,0,0,1-1-1v-6A.94.94,0,0,1,582,480Z"/>
            <path id="Rectangle_1654-4" data-name="Rectangle 1654-4" class="cls-13"
                  d="M581.5,466.5v13a.94.94,0,0,1-1,1h-6a.94.94,0,0,1-1-1v-13a.94.94,0,0,1,1-1h6A.94.94,0,0,1,581.5,466.5Z"/>
            <path id="Rectangle_1655-4" data-name="Rectangle 1655-4" class="cls-13"
                  d="M581.5,488.5v13a.94.94,0,0,1-1,1h-6a.94.94,0,0,1-1-1v-13a.94.94,0,0,1,1-1h6A.94.94,0,0,1,581.5,488.5Z"/>
        </g>
        <g id="Ellipse_786" data-name="Ellipse 786">
            <circle class="cls-14" cx="76.5" cy="282.5" r="14.5"/>
            <circle class="cls-15" cx="76.5" cy="282.5" r="11.5"/>
        </g>
        <g id="Ellipse_787" data-name="Ellipse 787">
            <circle class="cls-14" cx="784.5" cy="448.5" r="11.5"/>
            <circle class="cls-16" cx="784.5" cy="448.5" r="8.5"/>
        </g>
        <g id="Ellipse_788" data-name="Ellipse 788">
            <circle class="cls-14" cx="1064.5" cy="541.5" r="19.5"/>
            <circle class="cls-17" cx="1064.5" cy="541.5" r="15.5"/>
        </g>
        <g id="Ellipse_789" data-name="Ellipse 789">
            <circle class="cls-14" cx="475.5" cy="21.5" r="21.5"/>
            <circle class="cls-18" cx="475.5" cy="21.5" r="18.5"/>
        </g>
    </g>
    <g id="Envelope">
        <path id="Icon_awesome-envelope" data-name="Icon awesome-envelope" class="cls-19"
              d="M765.2,177.3a2.48,2.48,0,0,1,3.4.4,2.46,2.46,0,0,1,.5,1.5v82.7a19.42,19.42,0,0,1-19.4,19.4H581.4A19.42,19.42,0,0,1,562,261.9V179.2a2.43,2.43,0,0,1,2.4-2.4,2.69,2.69,0,0,1,1.5.5c9.1,7,21.1,16,62.3,46,8.5,6.2,22.9,19.3,37.3,19.3s29.1-13.3,37.3-19.3C744.2,193.3,756.1,184.3,765.2,177.3Zm-99.6,52.3c9.4.2,22.9-11.8,29.7-16.7,53.7-39,57.8-42.4,70.1-52.1a9.52,9.52,0,0,0,3.7-7.6v-7.7a19.42,19.42,0,0,0-19.4-19.4H581.4A19.42,19.42,0,0,0,562,145.5v7.7a9.67,9.67,0,0,0,3.7,7.6c12.4,9.7,16.5,13.1,70.1,52.1,6.9,4.9,20.4,16.8,29.8,16.7Z"/>
        <g id="Groupe_4593" data-name="Groupe 4593">
            <ellipse id="Ellipse_790" data-name="Ellipse 790" class="cls-20" cx="763.02" cy="125.49" rx="22" ry="21.5"/>
            <path id="Icon_awesome-check-circle" data-name="Icon awesome-check-circle" class="cls-21"
                  d="M791.13,125.89a27.7,27.7,0,1,1-27.7-27.7,27.7,27.7,0,0,1,27.7,27.7Zm-30.9,14.7,20.6-20.6a1.75,1.75,0,0,0,0-2.5l-2.5-2.5a1.75,1.75,0,0,0-2.5,0L759,131.79l-7.8-7.8a1.75,1.75,0,0,0-2.5,0l-2.5,2.5a1.75,1.75,0,0,0,0,2.5l11.6,11.6A1.63,1.63,0,0,0,760.23,140.59Z"/>
        </g>
    </g>
</svg>