<svg xmlns="http://www.w3.org/2000/svg" xmlns:xlink="http://www.w3.org/1999/xlink" viewBox="0 0 135.81 135.81"><defs><style>.cls-1{fill:url(#Dégradé_sans_nom_2);}.cls-2{fill:url(#Dégradé_sans_nom_2-2);}.cls-3{fill:url(#Dégradé_sans_nom_2-3);}.cls-4{fill:url(#Dégradé_sans_nom_2-4);}.cls-5{fill:url(#Dégradé_sans_nom_2-5);}.cls-6{fill:url(#Dégradé_sans_nom_2-6);}</style><linearGradient id="Dégradé_sans_nom_2" y1="67.9" x2="135.81" y2="67.9" gradientUnits="userSpaceOnUse"><stop offset="0" stop-color="#fa5c42"/><stop offset="1" stop-color="#ec1d45"/></linearGradient><linearGradient id="Dégradé_sans_nom_2-2" x1="30.56" y1="59.07" x2="47.13" y2="59.07" xlink:href="#Dégradé_sans_nom_2"/><linearGradient id="Dégradé_sans_nom_2-3" x1="47.05" y1="42.93" x2="64.21" y2="42.93" xlink:href="#Dégradé_sans_nom_2"/><linearGradient id="Dégradé_sans_nom_2-4" x1="71.58" y1="42.93" x2="88.75" y2="42.93" xlink:href="#Dégradé_sans_nom_2"/><linearGradient id="Dégradé_sans_nom_2-5" x1="40.03" y1="77.86" x2="95.76" y2="77.86" xlink:href="#Dégradé_sans_nom_2"/><linearGradient id="Dégradé_sans_nom_2-6" x1="88.66" y1="59.07" x2="105.24" y2="59.07" xlink:href="#Dégradé_sans_nom_2"/></defs><title>mpl-pet-icon</title><g id="Calque_2" data-name="Calque 2"><g id="Calque_1-2" data-name="Calque 1"><path class="cls-1" d="M67.9,0a67.9,67.9,0,1,0,67.91,67.9A67.9,67.9,0,0,0,67.9,0Zm44,105.84A58.08,58.08,0,1,1,126,67.9,57.93,57.93,0,0,1,111.88,105.84Z"/><path class="cls-2" d="M47,62.08a7.36,7.36,0,0,1-3.85,5.61c-3.91,2-9-.32-11.39-5.08S30.63,52.4,34.54,50.44a7.82,7.82,0,0,1,8.36,1.31,11.2,11.2,0,0,1,3,3.78A10.86,10.86,0,0,1,47,62.08Z"/><path class="cls-3" d="M58.43,54.45c-4.48,1.08-9.37-3.2-10.9-9.55s.83-12.39,5.3-13.48S62.2,34.6,63.74,41,62.9,53.36,58.43,54.45Z"/><path class="cls-4" d="M88.28,44.9c-1.55,6.35-6.44,10.63-10.9,9.55S70.5,47.32,72,41,78.48,30.32,83,31.42,89.82,38.54,88.28,44.9Z"/><path class="cls-5" d="M95.76,87.06c0,4.7-2.78,9.57-10,9.57s-11.3-4-17.9-4-10.72,4-17.91,4-10-4.87-10-9.57a1.61,1.61,0,0,1,0-.3C40.3,83.53,44.38,74,51.31,67c4.45-4.48,10.06-7.89,16.59-7.89,6.89,0,12.76,3.81,17.33,8.66,5.67,6,9.29,13.7,10.27,17.59A7.72,7.72,0,0,1,95.76,87.06Z"/><path class="cls-6" d="M104,62.61c-2.39,4.76-7.47,7-11.4,5.08a7,7,0,0,1-3.43-4,10.49,10.49,0,0,1,.65-8.2A10.8,10.8,0,0,1,94.7,50.6a7.34,7.34,0,0,1,6.55-.16C105.16,52.4,106.42,57.84,104,62.61Z"/></g></g></svg>
