<svg xmlns="http://www.w3.org/2000/svg" xmlns:xlink="http://www.w3.org/1999/xlink" width="1094.876" height="542.102" viewBox="0 0 1094.876 542.102">
  <defs>
    <linearGradient id="linear-gradient" y1="0.5" x2="1" y2="0.5" gradientUnits="objectBoundingBox">
      <stop offset="0" stop-color="#fa5c42"/>
      <stop offset="1" stop-color="#ec1d45"/>
    </linearGradient>
    <linearGradient id="linear-gradient-3" x1="0" y1="0.5" x2="1" y2="0.5" xlink:href="#linear-gradient"/>
  </defs>
  <g id="not-found-illustration" transform="translate(-385.986 -144.898)">
    <g id="Plant" transform="translate(1175 144.898)" opacity="0.39">
      <path id="Fill_19" data-name="Fill 19" d="M9.938,35.736C28.6,67.052,50.345,97.374,63.4,131.613c-.526-4.036-1.084-8.067-1.708-12.093-3.313-21.341-7.43-42.526-11.757-63.685-2.2-10.773-4.534-21.507-6.924-32.241C41.727,17.829,40.457,12.061,39.145,6.3c-.318-1.4-.591-3.832-.989-6.3C50.845,41.637,63.081,83.3,72.031,125.942q1.761,8.394,2.993,16.758c.28-1.272.556-2.544.857-3.813A246.4,246.4,0,0,1,91.4,94.374a134.951,134.951,0,0,1,10.825-19.648c2.608-3.863,8.757-8.455,11.136-12.412-13.01,23.861-17.707,53.717-25.219,79.659-1.833,6.331-3.678,12.651-5.486,18.982,11.328-22.718,28.9-41.384,53.341-49.473-29.58,19.544-47.322,53.771-59.278,88.777-.039.415-.086.83-.127,1.246,3.518-6.677,7.95-12.716,13.956-16.946,12.855-9.055,27.116-6.417,39.586,1.35-9.787-6.221-27.474-.556-35.709,5.767-5.9,4.526-10.933,10.6-15.308,16.523-1.048,1.42-2.479,3.077-3.989,4.845A218.405,218.405,0,0,1,64.672,254c.807-3.889.223-10.108.447-13.007.024-.314.044-.628.068-.941q-1.114,4.449-2.152,8.784a120.22,120.22,0,0,0,2.7-17.061q.225-3.743.451-7.487-.074-7.1-.574-14.253c-1.17-4.629-2.48-8.994-3.56-12.625a163.194,163.194,0,0,0-16.646-37.36,147.491,147.491,0,0,0-22.966-29.116c-4.78-4.717-9.783-9.21-14.716-13.765-1.784-1.647-4.972-5.7-7.729-7.806,20.08,11.071,40.749,23.047,55.4,40.884q-2.576-9.892-5.556-19.468C39.831,98.454,27.191,64.953,9.938,35.736Z" fill="#dde3e9"/>
      <path id="Base" d="M0,0C0,35.9,2.843,65,41,65S82,35.9,82,0" transform="translate(30 213)" fill="#c5cfd6"/>
    </g>
    <g id="Groupe_4598" data-name="Groupe 4598">
      <g id="Corner_Plants" data-name="Corner Plants" transform="translate(1296.41 435.633) rotate(135)" opacity="0.5">
        <path id="Fill_10" data-name="Fill 10" d="M1.7.552A39.673,39.673,0,0,1,10.64.028a55.659,55.659,0,0,1,41.01,19.38C60.163,29.444,62.5,41.923,64.185,54.537c.167,1.252.238,2.5.332,3.752.02.269.05.51.083.736a1.616,1.616,0,0,1,.617,2.03,83.651,83.651,0,0,1,3.747,9.791c3.113,9.886,6.279,19.96,4.328,30.355A144.7,144.7,0,0,0,70.732,84c-.066-.323-.137-.643-.211-.963-.008-.034-.015-.067-.022-.1a37.5,37.5,0,0,0-1.575-5.04l-.02-.053c-.085-.216-.175-.432-.263-.647-.184-.446-.372-.891-.573-1.334q-.1-.226-.2-.456c-.934-2.28-1.328-4.849-2.165-7.208q-.3-.8-.629-1.6l-.039-.093c-.593-1.43-1.247-2.843-1.939-4.241a5.217,5.217,0,0,1-.9-1.615,10.083,10.083,0,0,1-.748-1.44q-.611-1.178-1.224-2.355l.037.014q-.616-1.129-1.232-2.249l-.271-.493-.44-.785C56.95,50.9,55.5,48.5,53.987,46.14c-.539-.844-1.825-2.054-2.072-3-.009-.035-.011-.068-.017-.1A53.86,53.86,0,0,0,40.333,30.882c.547.588,1.708,2.585,2.015,2.98.94,1.21,1.96,2.337,2.984,3.478a74.091,74.091,0,0,1,5.216,6.38,121.15,121.15,0,0,1,7.793,12.743c.023.026.047.05.069.076,1.193,1.464,1.943,3.678,2.8,5.353-3.4-1.567-7.155-2.589-10.642-3.98a87.6,87.6,0,0,1-10.126-4.747A113.06,113.06,0,0,1,27.5,44.949a51.211,51.211,0,0,1-12.136-11.1c-4.125-4.963-7.9-9.969-10.243-15.994A47.882,47.882,0,0,1,2.534,8.687C2.51,8.551,2.48,8.4,2.448,8.25A29.986,29.986,0,0,1,1,4.939C.346,3.15-1.2,1.181,1.7.552" transform="translate(117.188 144.42) rotate(180)" fill="#69a1ac"/>
        <path id="Fill_1" data-name="Fill 1" d="M.244,0h0Z" transform="translate(197.654 0) rotate(180)" fill="#c1dee2"/>
        <path id="Fill_20" data-name="Fill 20" d="M49.021,0A42.855,42.855,0,0,0,31.311,3.325,78.7,78.7,0,0,0,17.3,11.469,43.993,43.993,0,0,0,2.714,27.716C.66,31.755-.847,37.47.532,41.876c1.625,5.189,6.087,9.516,11.963,8.6,3.634-.565,6.965-2.972,9.727-5.238a36.811,36.811,0,0,0,8.133-9.591c3.562-5.906,5.656-12.582,8.682-18.753,1.436-2.929,2.824-5.879,4.544-8.662a13.971,13.971,0,0,1,3.05-3.768c.691-.548,3.6-1.5,2.491-2.727,16.337.215,30.811,12.774,33.947,28.319.292,1.449.52,2.91.762,4.368.152.921.091,4.315.913,4.9,1.813,1.3,1.051-2.644.973-3.211q-.3-2.2-.641-4.394A36.584,36.584,0,0,0,74.41,10.7C67.661,4.208,58.556,0,49.021,0Z" transform="translate(126.023 58.208) rotate(180)" fill="#89c5cc"/>
      </g>
      <g id="Corner_Plants-2" data-name="Corner Plants" transform="translate(1349.298 598.668) rotate(180)" opacity="0.5">
        <path id="Fill_10-2" data-name="Fill 10" d="M1.7.552A39.673,39.673,0,0,1,10.64.028a55.659,55.659,0,0,1,41.01,19.38C60.163,29.444,62.5,41.923,64.185,54.537c.167,1.252.238,2.5.332,3.752.02.269.05.51.083.736a1.616,1.616,0,0,1,.617,2.03,83.651,83.651,0,0,1,3.747,9.791c3.113,9.886,6.279,19.96,4.328,30.355A144.7,144.7,0,0,0,70.732,84c-.066-.323-.137-.643-.211-.963-.008-.034-.015-.067-.022-.1a37.5,37.5,0,0,0-1.575-5.04l-.02-.053c-.085-.216-.175-.432-.263-.647-.184-.446-.372-.891-.573-1.334q-.1-.226-.2-.456c-.934-2.28-1.328-4.849-2.165-7.208q-.3-.8-.629-1.6l-.039-.093c-.593-1.43-1.247-2.843-1.939-4.241a5.217,5.217,0,0,1-.9-1.615,10.083,10.083,0,0,1-.748-1.44q-.611-1.178-1.224-2.355l.037.014q-.616-1.129-1.232-2.249l-.271-.493-.44-.785C56.95,50.9,55.5,48.5,53.987,46.14c-.539-.844-1.825-2.054-2.072-3-.009-.035-.011-.068-.017-.1A53.86,53.86,0,0,0,40.333,30.882c.547.588,1.708,2.585,2.015,2.98.94,1.21,1.96,2.337,2.984,3.478a74.091,74.091,0,0,1,5.216,6.38,121.15,121.15,0,0,1,7.793,12.743c.023.026.047.05.069.076,1.193,1.464,1.943,3.678,2.8,5.353-3.4-1.567-7.155-2.589-10.642-3.98a87.6,87.6,0,0,1-10.126-4.747A113.06,113.06,0,0,1,27.5,44.949a51.211,51.211,0,0,1-12.136-11.1c-4.125-4.963-7.9-9.969-10.243-15.994A47.882,47.882,0,0,1,2.534,8.687C2.51,8.551,2.48,8.4,2.448,8.25A29.986,29.986,0,0,1,1,4.939C.346,3.15-1.2,1.181,1.7.552" transform="translate(117.188 144.42) rotate(180)" fill="#69a1ac"/>
        <path id="Fill_1-2" data-name="Fill 1" d="M.244,0h0Z" transform="translate(197.654 0) rotate(180)" fill="#c1dee2"/>
        <path id="Fill_20-2" data-name="Fill 20" d="M49.021,0A42.855,42.855,0,0,0,31.311,3.325,78.7,78.7,0,0,0,17.3,11.469,43.993,43.993,0,0,0,2.714,27.716C.66,31.755-.847,37.47.532,41.876c1.625,5.189,6.087,9.516,11.963,8.6,3.634-.565,6.965-2.972,9.727-5.238a36.811,36.811,0,0,0,8.133-9.591c3.562-5.906,5.656-12.582,8.682-18.753,1.436-2.929,2.824-5.879,4.544-8.662a13.971,13.971,0,0,1,3.05-3.768c.691-.548,3.6-1.5,2.491-2.727,16.337.215,30.811,12.774,33.947,28.319.292,1.449.52,2.91.762,4.368.152.921.091,4.315.913,4.9,1.813,1.3,1.051-2.644.973-3.211q-.3-2.2-.641-4.394A36.584,36.584,0,0,0,74.41,10.7C67.661,4.208,58.556,0,49.021,0Z" transform="translate(126.023 58.208) rotate(180)" fill="#89c5cc"/>
      </g>
      <g id="Corner_Plants-3" data-name="Corner Plants" transform="translate(801.773 538.012) rotate(180)" opacity="0.5">
        <path id="Fill_16" data-name="Fill 16" d="M78.554,0c2.428,0,4.849.049,7.274.175,1.849.1,4.673-.287,6.238.866,1.625,1.2,1.513,3.648,1.259,5.378-1.342,9.152-4.618,17.267-11.47,23.75C71.3,40.153,59.209,45.226,44.9,47.485c-10.054,1.587-19.335-.616-26.737-7.768A111.616,111.616,0,0,0,6.591,72.079,77.561,77.561,0,0,0,5.444,88.713c.115,3.609.314,7.209.7,10.8.168,1.561.963,3.923.352,5.4a2.461,2.461,0,0,1-4.219.423c-.9-1.229-.737-3.643-.923-5.1C1.047,97.82.763,95.4.559,92.974.228,89.045-.017,85.1,0,81.161.042,72.3,2.012,63.4,4.706,54.991c5.169-16.138,13.555-30.48,26.6-41.733,8.019-6.92,17.2-9.722,27.611-11.226C65.4,1.1,71.986,0,78.554,0" transform="translate(100.333 146.64) rotate(180)" fill="#89c5cc"/>
        <path id="Twisted_Leaf" data-name="Twisted Leaf" d="M3.237,1.144A6.358,6.358,0,0,1,5.285.594,33.2,33.2,0,0,1,11.685,0a118.093,118.093,0,0,1,19.79,1.778c4.119.712,9.1,3.106,13.2,1.806C51.809,1.318,59.024,1.429,65.8,4.664,71.989,7.622,76.689,13.24,79.432,19.31A37.223,37.223,0,0,1,82,25.872c.2.465.4.933.574,1.408.5,1.349.947,2.721,1.364,4.1.178.587.625,1.882.094,2.132a38.984,38.984,0,0,1,2.228,4.847c1.822,4.847,3.815,10.163,4.455,15.3a23.936,23.936,0,0,1,.026,5.721c-.109.942-.064,2.836-.7,3.552-1.355,1.52-2.051-.608-1.9-1.621,1.167-7.723-1.086-14.976-3.756-22.236a45.687,45.687,0,0,0-7.741-12.879,32.507,32.507,0,0,0-8.856-7.715A138.47,138.47,0,0,0,54.3,11.79c-3-1.362-6.011-2.687-9.1-3.861A9.069,9.069,0,0,0,42.672,7c-1.61-.006-3.891,1.182-5.446,1.624-5.115,1.454-10.294,3.316-15.58,4.058a20.092,20.092,0,0,1-9.738-1.189,9.114,9.114,0,0,1-1.533-.835,22.241,22.241,0,0,1-6.52-3.689A26,26,0,0,1,.8,3.672,1.724,1.724,0,0,1,.4,2.588C.188,2.479.049,2.351.017,2.2-.213,1.1,1.89,1.078,3.237,1.144" transform="translate(107.194 168.936) rotate(180)" fill="#89c5cc"/>
        <path id="Fill_18" data-name="Fill 18" d="M39.135,0c26.114,0,43.7,21.3,52.017,43.442,3.135,8.345,3.869,17.509,5.077,26.272.388,2.812.244,7.1,1.372,9.6.409.908,1.348,1.235.9,2.473a1.99,1.99,0,0,1-1.6,1.357c-1.643.306-3.965-1.5-5.373-2.219C79.841,75,72.166,65.831,65.905,54.613c-3.881-6.953-7.819-14.17-10.124-21.8A76.178,76.178,0,0,1,53.072,18.4a55.526,55.526,0,0,1-.362-5.772c.011-1.9.885-2.907,1.513-4.562C45.51,4.728,35.675,3.818,26.849,7.278A35.236,35.236,0,0,0,8.107,24.429a32.975,32.975,0,0,0-2.3,6.322c-.363,1.423-.38,3.269-1.052,4.556-1.63,3.119-5.06,1.034-4.731-1.87.918-8.1,5.5-16.23,11.346-21.861A40.565,40.565,0,0,1,39.135,0" transform="translate(98.618 83.182) rotate(180)" fill="#89c5cc"/>
      </g>
      <g id="Big_Leaf_Plant" data-name="Big Leaf Plant" transform="translate(549.992 274.414)" opacity="0.39">
        <g id="Big_Ass_Leaf" data-name="Big Ass Leaf" transform="translate(19.889 0)">
          <path id="leaf" d="M20.745.149a14.352,14.352,0,0,1,7.343.78C32.932,3,34.309,8.774,34.243,13.465c-.072,5.049-1.135,10.564,2.672,14.632,1.75,1.87,3.926,3.3,5.645,5.206A24.638,24.638,0,0,1,46.9,40.169c1.958,4.594,2.92,10,1.129,14.814-1.577,4.243-5.544,8.072-4.687,12.9.894,5.033,5.925,8.88,9.071,12.628,3.56,4.242,6.838,9.664,7.376,15.227.516,5.331-1.785,10.723-5.317,14.753-7.056,8.053-17.663,12-28.357,11.976-4.541-.011-9.682-.217-13.6-2.678a7.534,7.534,0,0,1-2.57-2.8,9.092,9.092,0,0,0-2.485-2.508A14.867,14.867,0,0,1,2.728,108.1c-3.881-9.687-.779-21.672,4.653-30.274,1.287-2.038,2.341-4,1.716-6.429-.653-2.536-2.256-4.823-3.675-7a56.4,56.4,0,0,1-4.1-6.539A14.949,14.949,0,0,1,.057,50.191a26.2,26.2,0,0,1,5.569-13.68c2.928-3.886,6.366-7.6,6.374-12.7.008-5.4-3.569-10.2-2.045-15.684A10.46,10.46,0,0,1,13.9,2.167C15.855.861,18.441.433,20.745.149Z" transform="translate(0 0)" fill="#dde3e9"/>
          <path id="middle_thing" data-name="middle thing" d="M1.185,1.015a1.233,1.233,0,0,1,1.57-.97c.883.249.866,1.081.843,1.823a24.7,24.7,0,0,0,.8,6.706c1.129,4.6,3.216,8.835,4.87,13.252a24.312,24.312,0,0,1,1.458,13.64c-.914,4.4-2.349,8.692-3.284,13.1C6.617,52.453,5.74,56.551,7,60.427,8.2,64.158,10.873,67.2,12.8,70.568a48.125,48.125,0,0,1,5.982,22.69,42.778,42.778,0,0,1-.84,11.063c-.49,2.09-1.148,4.913-2.924,6.356a2.016,2.016,0,0,1-2.908-.09c-.647-.924-.079-2.355.126-3.339A51.039,51.039,0,0,0,13.087,94.3a47.114,47.114,0,0,0-2.006-12.384A42.043,42.043,0,0,0,5.849,71.609C3.636,68.3,1.336,64.975.421,61.05c-.929-3.987-.174-8.044.835-11.955,1.067-4.137,2.465-8.155,3.91-12.179A21.539,21.539,0,0,0,6.3,25.179C4.761,17.07.65,9.459,1.185,1.015Z" transform="translate(17.959 7.762)" fill="#c5cfd6"/>
        </g>
        <g id="Big_Ass_Leaf-2" data-name="Big Ass Leaf" transform="translate(27.442 9.267)">
          <path id="leaf-2" data-name="leaf" d="M77.945,1.355A18.435,18.435,0,0,1,86.171,6.1c4.608,4.96,3.194,12.458.65,17.934-2.738,5.894-6.887,11.818-4.548,18.58,1.075,3.109,2.883,5.924,3.9,9.057A31.553,31.553,0,0,1,87.675,62c-.111,6.417-1.82,13.263-6.458,17.99-4.084,4.162-10.763,6.593-12.29,12.707-1.593,6.378,2.3,13.519,4.032,19.561,1.957,6.838,2.963,14.915.672,21.73-2.195,6.532-7.735,11.666-14.007,14.56-12.531,5.782-27.081,4.893-39.647-.709-5.335-2.379-11.273-5.3-14.588-10.233a9.642,9.642,0,0,1-1.551-4.628,11.635,11.635,0,0,0-1.6-4.241,19.034,19.034,0,0,1-2.217-9.956c.527-13.4,10.474-25.864,21.384-33.138,2.585-1.723,4.855-3.478,5.4-6.658.565-3.319-.119-6.841-.642-10.141a72.233,72.233,0,0,1-1.383-9.816,19.212,19.212,0,0,1,2.538-9.666C30.4,43.664,35.355,39.345,41.051,36.19,46.537,33.151,52.535,30.575,55.22,24.6c2.846-6.335,1.162-13.838,5.838-19.489A13.527,13.527,0,0,1,68.828.156C71.819-.358,75.086.488,77.945,1.355Z" transform="translate(0 0)" fill="#dde3e9"/>
          <path id="middle_thing-2" data-name="middle thing" d="M44.294.695A1.577,1.577,0,0,1,46.639.377c.906.757.453,1.727.039,2.587a31.859,31.859,0,0,0-2.556,8.308c-1.071,6-.83,12.081-1.191,18.145s-1.825,11.826-5.393,16.811c-3.364,4.7-7.281,8.991-10.673,13.687-2.99,4.138-6.152,8.5-6.7,13.716-.527,5.023,1.022,10,1.52,14.974,1.032,10.3-.93,20.334-4.8,29.831a55.049,55.049,0,0,1-6.747,12.572c-1.663,2.2-3.905,5.177-6.738,5.942-1.306.353-3.068-.112-3.363-1.633-.277-1.427,1.133-2.811,1.887-3.862a65.689,65.689,0,0,0,7.747-14.783,60.8,60.8,0,0,0,4.1-15.62A54.385,54.385,0,0,0,13,86.182c-.869-5.059-1.838-10.172-.866-15.27.987-5.178,3.985-9.554,7.2-13.624,3.406-4.306,7.137-8.3,10.928-12.273A27.71,27.71,0,0,0,37.7,31.8C40.125,21.458,39.268,10.347,44.294.695Z" transform="translate(27.442 11.136)" fill="#c5cfd6"/>
        </g>
        <g id="Big_Ass_Leaf-3" data-name="Big Ass Leaf" transform="translate(0 46.999)">
          <path id="leaf-3" data-name="leaf" d="M11.521,0A16.528,16.528,0,0,1,24.2,6.481c3.619,4.451,4.35,9.886,5.82,15.191a13.534,13.534,0,0,0,4.193,7.054c2,1.631,4.55,1.958,6.95,2.754a16.14,16.14,0,0,1,10.2,10.11c1.866,5.71-.11,11.469.23,17.256.312,5.314,5.6,8.63,9.86,11.178,4.2,2.512,7.979,4.864,9.243,9.758,1.341,5.191,1.79,10.984-.066,16.112-3.092,8.538-12.139,12.3-20.881,12.88-7.934.529-17.91-.3-23.868-6.005-3.565-3.413-4.857-8.187-4.7-12.936A39.032,39.032,0,0,1,22.639,81.1a39.083,39.083,0,0,0,1.481-6.127c.554-5.561-4.636-6.629-9.053-8.156A21.478,21.478,0,0,1,2.792,56.105C.247,51.351-.821,46.014.7,40.78a17.848,17.848,0,0,1,4.109-7.16c.844-.908,2.033-1.665,2.794-2.619a3.5,3.5,0,0,0,.311-3.088C6.786,23.094,3.257,19.1,2,14.294.856,9.952,1.53,4.549,5.538,1.748A10.541,10.541,0,0,1,11.521,0Z" transform="translate(0 0)" fill="#c5cfd6"/>
          <path id="middle_thing-3" data-name="middle thing" d="M2.89.55C8.3,6.257,9.77,14,10.2,21.5c.242,4.208-.01,8.647,1.238,12.729,1.068,3.494,3.572,6.164,6.153,8.688,5.2,5.081,10.99,10.246,12.51,17.6.892,4.315.29,8.773,1.522,13.04a35.732,35.732,0,0,0,5.492,10.966c1.932,2.638,4.449,4.658,6.56,7.117.644.751,1.567,1.856,1.3,2.915-.311,1.241-1.907,1.634-3.04,1.439-2.64-.454-4.863-2.951-6.589-4.767a41.077,41.077,0,0,1-6.413-8.712A36.4,36.4,0,0,1,24.776,71.2c-.691-4.14-.347-8.454-1.925-12.426C20.2,52.087,13.755,48.142,9.1,42.932,3.3,36.44,4.162,28.36,4.757,20.374c.326-4.389.651-9.345-1.588-13.352C2.314,5.493.408,4.067.04,2.329-.3.736,1.541-.874,2.89.55Z" transform="translate(15.586 12.006)" fill="#afb9c5"/>
        </g>
        <path id="Base-2" data-name="Base" d="M0,0C0,32.637,5.326,49.738,33.445,49.738S66.889,32.637,66.889,0Z" transform="translate(24.011 154.192)" fill="#89c5cc"/>
      </g>
      <g id="not-found-illustration-2" data-name="not-found-illustration">
        <g id="not-found-illustration-3" data-name="not-found-illustration">
          <g id="Calque_2" data-name="Calque 2" transform="translate(506.996 157.301)">
            <g id="Calque_1" data-name="Calque 1" transform="translate(25.68 95.857)">
              <path id="Tracé_2450" data-name="Tracé 2450" d="M264.366,316.541v60.665H223.589v64.645H162.924V377.206H25.68V316.541L162.924,140.51h60.665V316.541Z" transform="translate(-25.68 -104.086)" fill="url(#linear-gradient)"/>
              <path id="Tracé_2451" data-name="Tracé 2451" d="M1020.285,318.141v60.665H979.507v64.645H918.842V378.806H781.59V318.141L918.842,142.11h60.665V318.141Z" transform="translate(-164.983 -104.381)" fill="url(#linear-gradient)"/>
              <path id="Tracé_2452" data-name="Tracé 2452" d="M666.391,291.238A150.5,150.5,0,0,1,455.1,428.841c-1.5-.661-2.986-1.354-4.454-2.064A150.506,150.506,0,0,1,432,416.042q-2.447-1.631-4.772-3.361a150.859,150.859,0,0,1-23.117-20.915c-1.02-1.126-2.015-2.276-2.994-3.434a150.527,150.527,0,0,1-19.1-28.648c-1.289-2.529-2.521-5.1-3.671-7.709a149.921,149.921,0,0,1-12.766-60.738v-2.545q.122-7.341.922-14.454c.163-1.379.334-2.757.522-4.079a150.092,150.092,0,0,1,41.357-84.019l2.447-2.447c.685-.669,1.37-1.33,2.064-1.974a150.4,150.4,0,0,1,253.5,109.518Z" transform="translate(-88.318 -104.143)" fill="url(#linear-gradient-3)"/>
              <g id="Mobile3" transform="translate(378.685)">
                <path id="Container" d="M522.156,95.974l47.638,14.316a2.79,2.79,0,0,1,1.868,3.467l-28.656,95.259a2.79,2.79,0,0,1-3.467,1.868L491.9,196.568a2.79,2.79,0,0,1-1.868-3.467L518.7,97.817A2.79,2.79,0,0,1,522.156,95.974Z" transform="translate(-489.917 -95.857)" fill="#f2f2f2"/>
                <circle id="Touch" cx="5.221" cy="5.221" r="5.221" transform="translate(22.572 99.989) rotate(-73.27)" fill="#fff"/>
                <g id="Camera" transform="translate(48.908 11.041)">
                  <circle id="Lens" cx="0.693" cy="0.693" r="0.693" transform="translate(0 1.328) rotate(-73.27)" fill="#fff"/>
                  <path id="Sensor" d="M554.638,110.724l5.661,1.7a.7.7,0,0,1,.465.865h0a.7.7,0,0,1-.865.465l-5.661-1.7a.7.7,0,0,1-.465-.865h0A.7.7,0,0,1,554.638,110.724Z" transform="translate(-550.588 -109.633)" fill="#fff"/>
                </g>
                <g id="Rows" transform="translate(11.365 10.369)">
                  <g id="Row" transform="translate(15.009)">
                    <path id="Background" d="M528.645,108.619l40.973,12.317a1.4,1.4,0,0,1,.93,1.729l-4.609,15.327a1.4,1.4,0,0,1-1.729.93l-40.973-12.317a1.4,1.4,0,0,1-.93-1.729l4.633-15.319A1.4,1.4,0,0,1,528.645,108.619Z" transform="translate(-522.25 -108.568)" fill="#fff"/>
                    <g id="Text" transform="translate(14.546 9.21)">
                      <path id="Name" d="M543.272,119.9l22.334,6.713a1.028,1.028,0,0,1,.7,1.3l-.212.7a1.028,1.028,0,0,1-1.3.7l-22.318-6.705a1.028,1.028,0,0,1-.7-1.3l.212-.7a1.028,1.028,0,0,1,1.281-.71Z" transform="translate(-540.386 -119.859)" fill="#e9dddd"/>
                      <path id="Name-2" d="M541.647,125.419l14.324,4.307a1.028,1.028,0,0,1,.7,1.3l-.212.7a1.028,1.028,0,0,1-1.3.7l-14.332-4.307a1.028,1.028,0,0,1-.7-1.3l.212-.7a1.028,1.028,0,0,1,1.305-.7Z" transform="translate(-540.082 -120.874)" fill="#e9dddd"/>
                    </g>
                    <circle id="Avatar" cx="4.176" cy="4.176" r="4.176" transform="translate(4.165 13.558) rotate(-73.27)" fill="#d6c5c5"/>
                  </g>
                  <g id="Row-2" transform="translate(10.009 20.688)">
                    <path id="Background-2" d="M521.308,133.987,562.281,146.3a1.4,1.4,0,0,1,.93,1.729l-3.4,11.33a1.4,1.4,0,0,1-1.729.93l-40.973-12.317a1.4,1.4,0,0,1-.93-1.729l3.4-11.33a1.4,1.4,0,0,1,1.729-.93Z" transform="translate(-516.119 -133.929)" fill="#fff"/>
                    <g id="Text-2" transform="translate(14.196 7.975)">
                      <path id="Name-3" d="M536.148,143.75l22.326,6.722a1.028,1.028,0,0,1,.7,1.3v.1a1.028,1.028,0,0,1-1.3.7l-22.318-6.705a1.028,1.028,0,0,1-.7-1.3v-.1a1.028,1.028,0,0,1,1.289-.718Z" transform="translate(-533.76 -143.707)" fill="#e9dddd"/>
                      <path id="Name-4" d="M534.866,148.039l14.324,4.307a1.028,1.028,0,0,1,.7,1.3v.1a1.028,1.028,0,0,1-1.3.7l-14.324-4.307a1.028,1.028,0,0,1-.7-1.3v-.1a1.028,1.028,0,0,1,1.3-.7Z" transform="translate(-533.522 -144.496)" fill="#e9dddd"/>
                    </g>
                    <circle id="Avatar-2" cx="4.176" cy="4.176" r="4.176" transform="translate(3.565 11.519) rotate(-73.27)" fill="#d6c5c5"/>
                  </g>
                  <g id="Row-3" transform="translate(4.963 37.292)">
                    <path id="Background-3" d="M515.159,154.354l40.973,12.317a1.4,1.4,0,0,1,.93,1.729l-3.4,11.33a1.4,1.4,0,0,1-1.729.93l-40.973-12.317a1.395,1.395,0,0,1-.971-1.729l3.4-11.33a1.395,1.395,0,0,1,1.77-.93Z" transform="translate(-509.934 -154.286)" fill="#fff"/>
                    <g id="Text-3" transform="translate(14.192 8.032)">
                      <path id="Name-5" d="M530.016,164.179l22.318,6.705a1.028,1.028,0,0,1,.7,1.3v.1a1.028,1.028,0,0,1-1.3.7l-22.318-6.705a1.028,1.028,0,0,1-.7-1.3v-.1a1.028,1.028,0,0,1,1.3-.7Z" transform="translate(-527.579 -164.132)" fill="#e9dddd"/>
                      <path id="Name-6" d="M528.693,168.458l14.324,4.307a1.028,1.028,0,0,1,.7,1.3v.1a1.028,1.028,0,0,1-1.3.7l-14.34-4.34a1.028,1.028,0,0,1-.7-1.3v-.1a1.028,1.028,0,0,1,1.313-.669Z" transform="translate(-527.332 -164.919)" fill="#e9dddd"/>
                    </g>
                    <circle id="Avatar-3" cx="4.188" cy="4.188" r="4.188" transform="translate(4.805 10.877) rotate(-73.191)" fill="#c5afbe"/>
                  </g>
                  <g id="Row-4" transform="translate(0 53.969)">
                    <path id="Background-4" d="M509.038,174.787,550.011,187.1a1.4,1.4,0,0,1,.93,1.729l-3.4,11.33a1.4,1.4,0,0,1-1.729.93l-40.973-12.317a1.4,1.4,0,0,1-.93-1.729l3.4-11.33A1.4,1.4,0,0,1,509.038,174.787Z" transform="translate(-503.849 -174.729)" fill="#fff"/>
                    <g id="Text-4" transform="translate(14.187 8.013)">
                      <path id="Name-7" d="M523.876,184.6l22.318,6.705a1.028,1.028,0,0,1,.7,1.3v.1a1.028,1.028,0,0,1-1.3.7L523.281,186.7a1.028,1.028,0,0,1-.7-1.3v-.1a1.028,1.028,0,0,1,1.3-.7Z" transform="translate(-521.48 -184.552)" fill="#e9dddd"/>
                      <path id="Name-8" d="M522.586,188.879l14.324,4.307a1.028,1.028,0,0,1,.7,1.3v.1a1.028,1.028,0,0,1-1.3.7l-14.324-4.307a1.028,1.028,0,0,1-.7-1.3v-.1a1.028,1.028,0,0,1,1.3-.7Z" transform="translate(-521.242 -185.341)" fill="#e9dddd"/>
                    </g>
                    <circle id="Avatar-4" cx="4.176" cy="4.176" r="4.176" transform="translate(3.554 11.557) rotate(-73.27)" fill="#d6c5c5"/>
                  </g>
                </g>
              </g>
              <g id="Mobile2" transform="translate(410.384 211.539)">
                <path id="Container-2" d="M530.819,362l42.858-6.787a2.447,2.447,0,0,1,2.773,2.015l13.565,85.724A2.447,2.447,0,0,1,588,445.726l-42.858,6.787a2.447,2.447,0,0,1-2.773-2.015L528.8,364.774A2.447,2.447,0,0,1,530.819,362Z" transform="translate(-528.777 -355.187)" fill="#e9dddd"/>
                <circle id="Touch-2" cx="4.552" cy="4.552" r="4.552" transform="translate(30.811 80.022) rotate(-8.99)" fill="#fff"/>
                <g id="Camera-2" transform="translate(19.578 7.606)">
                  <circle id="Lens-2" cx="0.604" cy="0.604" r="0.604" transform="translate(0 1.384) rotate(-8.99)" fill="#fff"/>
                  <path id="Sensor-2" d="M556.714,365.334l5.1-.816a.612.612,0,0,1,.693.506h0a.612.612,0,0,1-.506.693l-5.1.816a.612.612,0,0,1-.693-.506h0a.612.612,0,0,1,.506-.693Z" transform="translate(-553.409 -364.512)" fill="#fff"/>
                </g>
                <g id="Rows-2" transform="translate(5.339 8.879)">
                  <g id="Row-5">
                    <path id="Container-3" d="M536.348,371.919l36.87-5.832a1.215,1.215,0,0,1,1.387,1.011l2.186,13.786a1.216,1.216,0,0,1-1.012,1.387L538.91,388.1a1.215,1.215,0,0,1-1.387-1.011l-2.186-13.786A1.215,1.215,0,0,1,536.348,371.919Z" transform="translate(-535.322 -366.072)" fill="#fff"/>
                    <g id="Text_Stuff" data-name="Text Stuff" transform="translate(3.427 7.13)">
                      <path id="Label" d="M540.3,378.008l20.083-3.181a.9.9,0,0,1,1.044.759l.1.628a.9.9,0,0,1-.759,1.044l-20.083,3.181a.9.9,0,0,1-1.044-.759l-.1-.628a.9.9,0,0,1,.759-1.044Z" transform="translate(-539.523 -374.813)" fill="#e9dddd"/>
                      <path id="Label-2" d="M541.076,383.226l12.888-2.039a.9.9,0,0,1,1.044.759l.1.628a.9.9,0,0,1-.759,1.044l-12.888,2.039a.9.9,0,0,1-1.044-.759l-.1-.628a.9.9,0,0,1,.759-1.044Z" transform="translate(-539.667 -375.985)" fill="#e9dddd"/>
                    </g>
                    <g id="Check" transform="translate(33.731 6.191)">
                      <circle id="Background-5" cx="2.121" cy="2.121" r="2.121" transform="translate(0 0.663) rotate(-8.99)" fill="#e9dddd"/>
                      <circle id="Indicator" cx="0.914" cy="0.914" r="0.914" transform="translate(1.381 1.667) rotate(-8.99)" fill="#f2f2f2"/>
                    </g>
                  </g>
                  <g id="Row-6" transform="translate(2.945 18.566)">
                    <path id="Background-6" d="M539.958,394.679l36.87-5.832a1.215,1.215,0,0,1,1.387,1.012l1.631,10.188a1.215,1.215,0,0,1-1.011,1.387l-36.87,5.832a1.215,1.215,0,0,1-1.387-1.011l-1.631-10.188a1.215,1.215,0,0,1,1.011-1.387Z" transform="translate(-538.932 -388.832)" fill="#fff"/>
                    <g id="Text-5" transform="translate(12.237 4.651)">
                      <path id="Name-9" d="M554.706,397.728l20.083-3.181a.9.9,0,0,1,1.044.759v.09a.9.9,0,0,1-.759,1.044l-20.083,3.181a.9.9,0,0,1-1.044-.759v-.09a.9.9,0,0,1,.759-1.044Z" transform="translate(-553.933 -394.533)" fill="#e9dddd"/>
                      <path id="Name-10" d="M555.326,401.836l12.888-2.039a.9.9,0,0,1,1.044.759v.09a.9.9,0,0,1-.759,1.044l-12.888,2.039a.9.9,0,0,1-1.044-.759v-.09a.9.9,0,0,1,.759-1.044Z" transform="translate(-554.048 -395.501)" fill="#e9dddd"/>
                    </g>
                    <circle id="Avatar-5" cx="3.638" cy="3.638" r="3.638" transform="translate(2.94 8.366) rotate(-8.99)" fill="#d6c5c5"/>
                  </g>
                  <g id="Row-7" transform="translate(5.316 33.575)">
                    <path id="Container-4" d="M542.868,413.079l36.87-5.832a1.215,1.215,0,0,1,1.387,1.012l1.631,10.2a1.215,1.215,0,0,1-1.011,1.387l-36.87,5.832a1.216,1.216,0,0,1-1.387-1.012l-1.631-10.188a1.215,1.215,0,0,1,1.011-1.4Z" transform="translate(-541.839 -407.232)" fill="#fff"/>
                    <g id="Text_Stuff-2" data-name="Text Stuff-2" transform="translate(3.25 6.045)">
                      <path id="Label-3" d="M546.6,417.838l20.083-3.181a.9.9,0,0,1,1.044.759v.09a.9.9,0,0,1-.759,1.044l-20.083,3.181a.9.9,0,0,1-1.044-.759v-.09a.9.9,0,0,1,.759-1.044Z" transform="translate(-545.823 -414.643)" fill="#e9dddd"/>
                      <path id="Label-4" d="M547.206,421.956l12.888-2.039a.9.9,0,0,1,1.044.759v.09a.9.9,0,0,1-.759,1.044l-12.888,2.039a.9.9,0,0,1-1.044-.759V423a.9.9,0,0,1,.759-1.044Z" transform="translate(-545.936 -415.613)" fill="#c5afbe"/>
                    </g>
                    <g id="Check-2" transform="translate(33.448 4.386)">
                      <circle id="Background-7" cx="2.121" cy="2.121" r="2.121" transform="translate(0 0.663) rotate(-8.99)" fill="#e9dddd"/>
                      <circle id="Indicator-2" cx="0.914" cy="0.914" r="0.914" transform="translate(1.381 1.667) rotate(-8.99)" fill="#f2f2f2"/>
                    </g>
                  </g>
                  <g id="Row-8" transform="translate(7.684 48.56)">
                    <path id="Background-8" d="M545.768,431.449l36.87-5.832a1.215,1.215,0,0,1,1.387,1.011l1.631,10.188a1.215,1.215,0,0,1-1.011,1.387l-36.87,5.832a1.216,1.216,0,0,1-1.387-1.011l-1.631-10.188a1.215,1.215,0,0,1,1.011-1.387Z" transform="translate(-544.742 -425.602)" fill="#fff"/>
                    <g id="Text-6" transform="translate(12.245 4.626)">
                      <path id="Name-11" d="M560.526,434.468l20.083-3.181a.9.9,0,0,1,1.044.759v.09a.9.9,0,0,1-.759,1.044l-20.083,3.181a.9.9,0,0,1-1.044-.759v-.09a.9.9,0,0,1,.759-1.044Z" transform="translate(-559.753 -431.273)" fill="#e9dddd"/>
                      <path id="Name-12" d="M561.136,438.536l12.888-2.039a.9.9,0,0,1,1.044.759v.09a.9.9,0,0,1-.759,1.044l-12.888,2.039a.9.9,0,0,1-1.044-.759v-.09a.9.9,0,0,1,.759-1.044Z" transform="translate(-559.866 -432.233)" fill="#e9dddd"/>
                    </g>
                    <circle id="Avatar-6" cx="3.638" cy="3.638" r="3.638" transform="translate(2.941 8.351) rotate(-8.99)" fill="#d6c5c5"/>
                  </g>
                </g>
              </g>
              <g id="Web" transform="translate(443.155 38.529)">
                <path id="Container-5" d="M594.221,143.131l131.591,20.695a3.353,3.353,0,0,1,2.782,3.818l-21.4,136.135a3.353,3.353,0,0,1-3.818,2.782l-131.6-20.695a3.353,3.353,0,0,1-2.782-3.818l21.4-136.135a3.353,3.353,0,0,1,3.826-2.782Z" transform="translate(-568.952 -143.091)" fill="#f2f2f2"/>
                <path id="Background-9" d="M720.608,184.681l22.277,3.516a3.353,3.353,0,0,1,2.782,3.818l-4.2,26.8a3.353,3.353,0,0,1-3.818,2.782l-22.285-3.5a3.353,3.353,0,0,1-2.782-3.818l4.217-26.813a3.352,3.352,0,0,1,3.809-2.782Z" transform="translate(-595.414 -150.748)" fill="#fff"/>
                <g id="Profile_Info" data-name="Profile Info" transform="translate(122.492 40.851)">
                  <circle id="Avatar-7" cx="6.681" cy="6.681" r="6.681" transform="matrix(0.155, -0.988, 0.988, 0.155, 4.237, 13.199)" fill="#e9dddd"/>
                  <path id="Name-13" d="M720.571,210.876l18.15,2.855a1.231,1.231,0,0,1,1.044,1.436h0a1.232,1.232,0,0,1-1.436,1.044l-18.15-2.855a1.232,1.232,0,0,1-1.044-1.436h0a1.232,1.232,0,0,1,1.436-1.044Z" transform="translate(-719.117 -196.43)" fill="#e9dddd"/>
                  <path id="Name-14" d="M723.821,216.566l11.551,1.819a1.232,1.232,0,0,1,1.044,1.436h0a1.232,1.232,0,0,1-1.436,1.044l-11.551-1.819a1.232,1.232,0,0,1-1.044-1.436h0a1.232,1.232,0,0,1,1.436-1.044Z" transform="translate(-719.716 -197.478)" fill="#e9dddd"/>
                </g>
                <path id="Header" d="M598.787,143.131l131.591,20.695a3.353,3.353,0,0,1,2.781,3.818l-1.232,7.839h0l-138.2-21.731h0l1.232-7.839a3.352,3.352,0,0,1,3.826-2.782Z" transform="translate(-573.518 -143.091)" fill="#d6c5c5"/>
                <g id="Buttons-2" transform="translate(24.547 4.249)">
                  <circle id="buttons-3" cx="1.672" cy="1.672" r="1.672" transform="matrix(0.155, -0.988, 0.988, 0.155, 0, 3.304)" fill="#f2f2f2"/>
                  <circle id="buttons-4" cx="1.672" cy="1.672" r="1.672" transform="matrix(0.155, -0.988, 0.988, 0.155, 4.945, 4.08)" fill="#f2f2f2"/>
                  <circle id="buttons-5" cx="1.672" cy="1.672" r="1.672" transform="matrix(0.155, -0.988, 0.988, 0.155, 9.897, 4.857)" fill="#f2f2f2"/>
                </g>
                <g id="Components" transform="translate(104.02 70.61)">
                  <path id="Background-10" d="M711.871,229.691l22.277,3.508a3.353,3.353,0,0,1,2.781,3.818l-11.542,73.414a3.353,3.353,0,0,1-3.818,2.782l-22.277-3.5a3.353,3.353,0,0,1-2.782-3.818l11.542-73.414a3.353,3.353,0,0,1,3.818-2.79Z" transform="translate(-696.472 -229.652)" fill="#fff"/>
                  <g id="Rows-3" transform="translate(8.355 8.348)">
                    <path id="Data" d="M720.3,239.906l10.727,1.7a1.672,1.672,0,0,1,1.387,1.909l-1.167,7.423a1.672,1.672,0,0,1-1.909,1.387l-10.727-1.689a1.672,1.672,0,0,1-1.387-1.909l1.167-7.423a1.672,1.672,0,0,1,1.909-1.4Z" transform="translate(-708.648 -239.886)" fill="#e9dddd"/>
                    <path id="Data-2" d="M717.615,257.105l10.727,1.689a1.672,1.672,0,0,1,1.387,1.909l-1.1,7.015a1.672,1.672,0,0,1-1.909,1.387l-10.727-1.688a1.672,1.672,0,0,1-1.387-1.909l1.1-7.015A1.672,1.672,0,0,1,717.615,257.105Z" transform="translate(-708.165 -243.055)" fill="#c5afbe"/>
                    <path id="Data-3" d="M714.985,273.785l10.727,1.689a1.672,1.672,0,0,1,1.387,1.909L726,284.4a1.672,1.672,0,0,1-1.909,1.387L713.362,284.1a1.672,1.672,0,0,1-1.387-1.909l1.1-7.015A1.672,1.672,0,0,1,714.985,273.785Z" transform="translate(-707.681 -246.129)" fill="#e9dddd"/>
                    <path id="Data-4" d="M709.745,307.165l10.727,1.689a1.672,1.672,0,0,1,1.387,1.909l-1.1,7.015a1.672,1.672,0,0,1-1.909,1.387l-10.727-1.688a1.672,1.672,0,0,1-1.387-1.909l1.1-7.015A1.672,1.672,0,0,1,709.745,307.165Z" transform="translate(-706.715 -252.281)" fill="#e9dddd"/>
                    <path id="Data-5" d="M712.365,290.475l10.727,1.689a1.672,1.672,0,0,1,1.387,1.909l-1.1,7.015a1.672,1.672,0,0,1-1.909,1.387l-10.727-1.689a1.672,1.672,0,0,1-1.387-1.909l1.1-7.015a1.672,1.672,0,0,1,1.909-1.387Z" transform="translate(-707.198 -249.205)" fill="#d6c5c5"/>
                  </g>
                </g>
                <g id="Rows-4" transform="translate(7.662 18.953)">
                  <g id="Row-9" transform="translate(15.246)">
                    <path id="Container-6" d="M601.493,166.345l89.517,14.071a1.672,1.672,0,0,1,1.387,1.909l-2.529,16.086a1.672,1.672,0,0,1-1.909,1.387l-89.517-14.063a1.672,1.672,0,0,1-1.387-1.909l2.529-16.086A1.672,1.672,0,0,1,601.493,166.345Z" transform="translate(-597.035 -166.325)" fill="#fff"/>
                    <g id="Text_Stuff-3" data-name="Text Stuff-3" transform="translate(4.553 6.331)">
                      <path id="Label-5" d="M605.075,174.106l66.416,10.441a1.232,1.232,0,0,1,1.044,1.436l-.073.457a1.232,1.232,0,0,1-1.436,1.044L604.61,177.042a1.232,1.232,0,0,1-1.044-1.436l.073-.457a1.232,1.232,0,0,1,1.436-1.044Z" transform="translate(-602.788 -174.087)" fill="#e9dddd"/>
                      <path id="Label-6" d="M604.145,180l43.771,6.885a1.232,1.232,0,0,1,1.044,1.436l-.073.457a1.232,1.232,0,0,1-1.436,1.044l-43.771-6.885a1.232,1.232,0,0,1-1.044-1.436l.073-.457A1.256,1.256,0,0,1,604.145,180Z" transform="translate(-602.617 -175.173)" fill="#e9dddd"/>
                    </g>
                    <g id="Check-3" transform="translate(80.88 19.169)">
                      <circle id="Background-11" cx="2.92" cy="2.92" r="2.92" transform="matrix(0.155, -0.988, 0.988, 0.155, 0, 5.77)" fill="#e9dddd"/>
                      <circle id="Indicator-3" cx="1.256" cy="1.256" r="1.256" transform="matrix(0.155, -0.988, 0.988, 0.155, 1.902, 4.384)" fill="#f2f2f2"/>
                    </g>
                  </g>
                  <g id="Row-10" transform="translate(12.179 22.684)">
                    <path id="Container-7" d="M597.227,194.155l89.517,14.079a1.672,1.672,0,0,1,1.387,1.909l-2.015,12.79a1.672,1.672,0,0,1-1.909,1.387l-89.525-14.079a1.672,1.672,0,0,1-1.387-1.909l2.015-12.79A1.672,1.672,0,0,1,597.227,194.155Z" transform="translate(-593.275 -194.134)" fill="#fff"/>
                    <g id="Text_Stuff-4" data-name="Text Stuff-4" transform="translate(4.459 5.35)">
                      <path id="Label-7" d="M600.874,200.707l66.5,10.457a1.215,1.215,0,0,1,1.011,1.387h0A1.215,1.215,0,0,1,667,213.562L600.5,203.1a1.215,1.215,0,0,1-1.012-1.387h0A1.215,1.215,0,0,1,600.874,200.707Z" transform="translate(-598.877 -200.692)" fill="#e9dddd"/>
                      <path id="Label-8" d="M600.111,205.608l43.812,6.885a1.215,1.215,0,0,1,1.011,1.387h0a1.215,1.215,0,0,1-1.387,1.011L599.768,208a1.215,1.215,0,0,1-1.011-1.387h0A1.24,1.24,0,0,1,600.111,205.608Z" transform="translate(-598.742 -201.597)" fill="#e9dddd"/>
                    </g>
                    <g id="Check-4" transform="translate(80.633 17.522)">
                      <circle id="Background-12" cx="2.92" cy="2.92" r="2.92" transform="matrix(0.155, -0.988, 0.988, 0.155, 0, 5.77)" fill="#e9dddd"/>
                      <circle id="Indicator-4" cx="1.256" cy="1.256" r="1.256" transform="matrix(0.155, -0.988, 0.988, 0.155, 1.902, 4.384)" fill="#f2f2f2"/>
                    </g>
                  </g>
                  <g id="Row-11" transform="translate(9.144 42.068)">
                    <path id="Container-8" d="M593.5,217.924,683.016,232a1.672,1.672,0,0,1,1.387,1.909l-2.015,12.79a1.672,1.672,0,0,1-1.909,1.387L590.962,234.01a1.672,1.672,0,0,1-1.387-1.909l1.974-12.79a1.672,1.672,0,0,1,1.95-1.387Z" transform="translate(-589.555 -217.897)" fill="#fff"/>
                    <g id="Text_Stuff-5" data-name="Text Stuff-5" transform="translate(4.411 5.348)">
                      <path id="Label-9" d="M597.135,224.467l66.522,10.457a1.215,1.215,0,0,1,1.011,1.387h0a1.215,1.215,0,0,1-1.387,1.011l-66.513-10.457a1.215,1.215,0,0,1-1.011-1.387h0A1.215,1.215,0,0,1,597.135,224.467Z" transform="translate(-595.106 -224.454)" fill="#e9dddd"/>
                      <path id="Label-10" d="M596.364,229.377l43.812,6.885a1.215,1.215,0,0,1,1.011,1.387h0a1.216,1.216,0,0,1-1.387,1.011l-43.812-6.885a1.215,1.215,0,0,1-1.012-1.387h0a1.24,1.24,0,0,1,1.387-1.011Z" transform="translate(-594.962 -225.359)" fill="#e9dddd"/>
                    </g>
                    <g id="Check-5" transform="translate(80.617 17.526)">
                      <circle id="Background-13" cx="2.92" cy="2.92" r="2.92" transform="matrix(0.155, -0.988, 0.988, 0.155, 0, 5.77)" fill="#e9dddd"/>
                      <circle id="Indicator-5" cx="1.256" cy="1.256" r="1.256" transform="matrix(0.155, -0.988, 0.988, 0.155, 1.902, 4.384)" fill="#c5afbe"/>
                    </g>
                  </g>
                  <g id="Row-12" transform="translate(0 100.245)">
                    <path id="Container-9" d="M582.281,289.236,671.8,303.315a1.672,1.672,0,0,1,1.387,1.909l-2.015,12.79a1.672,1.672,0,0,1-1.909,1.387l-89.508-14.047a1.672,1.672,0,0,1-1.387-1.909l2.015-12.79a1.672,1.672,0,0,1,1.9-1.419Z" transform="translate(-578.345 -289.218)" fill="#fff"/>
                    <g id="Text_Stuff-6" data-name="Text Stuff-6" transform="translate(4.402 5.338)">
                      <path id="Label-11" d="M585.923,295.777l66.5,10.457a1.216,1.216,0,0,1,1.011,1.387h0a1.216,1.216,0,0,1-1.387,1.011l-66.5-10.457a1.216,1.216,0,0,1-1.012-1.387h0a1.215,1.215,0,0,1,1.387-1.011Z" transform="translate(-583.886 -295.762)" fill="#e9dddd"/>
                      <path id="Label-12" d="M585.152,300.687l43.812,6.885a1.215,1.215,0,0,1,1.012,1.387h0a1.215,1.215,0,0,1-1.387,1.011l-43.82-6.893a1.216,1.216,0,0,1-1.011-1.387h0A1.24,1.24,0,0,1,585.152,300.687Z" transform="translate(-583.742 -296.667)" fill="#e9dddd"/>
                    </g>
                    <g id="Check-6" transform="translate(80.618 17.521)">
                      <circle id="Background-14" cx="2.92" cy="2.92" r="2.92" transform="matrix(0.155, -0.988, 0.988, 0.155, 0, 5.77)" fill="#e9dddd"/>
                      <circle id="Indicator-6" cx="1.256" cy="1.256" r="1.256" transform="matrix(0.155, -0.988, 0.988, 0.155, 1.902, 4.384)" fill="#f2f2f2"/>
                    </g>
                  </g>
                  <g id="Row-13" transform="translate(3.051 80.855)">
                    <path id="Container-10" d="M586.021,265.466l89.517,14.079a1.672,1.672,0,0,1,1.387,1.909l-2.015,12.79A1.672,1.672,0,0,1,673,295.631l-89.508-14.079a1.672,1.672,0,0,1-1.387-1.909l2.015-12.79a1.672,1.672,0,0,1,1.9-1.387Z" transform="translate(-582.085 -265.447)" fill="#fff"/>
                    <g id="Text_Stuff-7" data-name="Text Stuff-7" transform="translate(4.402 5.331)">
                      <path id="Label-13" d="M589.683,272l66.5,10.457a1.215,1.215,0,0,1,1.011,1.387h0a1.215,1.215,0,0,1-1.387,1.011l-66.5-10.457a1.215,1.215,0,0,1-1.011-1.387h0A1.215,1.215,0,0,1,589.683,272Z" transform="translate(-587.63 -271.982)" fill="#e9dddd"/>
                      <path id="Label-14" d="M588.883,276.917,632.7,283.8a1.216,1.216,0,0,1,1.011,1.387h0a1.215,1.215,0,0,1-1.387,1.011l-43.812-6.885a1.215,1.215,0,0,1-1.011-1.387h0a1.24,1.24,0,0,1,1.387-1.012Z" transform="translate(-587.482 -272.89)" fill="#e9dddd"/>
                    </g>
                    <g id="Check-7" transform="translate(80.617 17.524)">
                      <circle id="Background-15" cx="2.92" cy="2.92" r="2.92" transform="matrix(0.155, -0.988, 0.988, 0.155, 0, 5.77)" fill="#e9dddd"/>
                      <circle id="Indicator-7" cx="1.256" cy="1.256" r="1.256" transform="matrix(0.155, -0.988, 0.988, 0.155, 1.902, 4.384)" fill="#f2f2f2"/>
                    </g>
                  </g>
                  <g id="Row-14" transform="translate(6.102 61.465)">
                    <path id="Container-11" d="M589.761,241.7l89.517,14.112a1.672,1.672,0,0,1,1.387,1.909l-2.007,12.774a1.672,1.672,0,0,1-1.909,1.387l-89.517-14.1a1.672,1.672,0,0,1-1.387-1.909l2.015-12.79A1.672,1.672,0,0,1,589.761,241.7Z" transform="translate(-585.825 -241.677)" fill="#fff"/>
                    <g id="Text_Stuff-8" data-name="Text Stuff-8" transform="translate(4.402 5.339)">
                      <path id="Label-15" d="M593.393,248.237l66.5,10.457a1.215,1.215,0,0,1,1.012,1.387h0a1.215,1.215,0,0,1-1.387,1.011l-66.5-10.457a1.216,1.216,0,0,1-1.012-1.387h0a1.215,1.215,0,0,1,1.387-1.011Z" transform="translate(-591.364 -248.222)" fill="#e9dddd"/>
                      <path id="Label-16" d="M592.623,253.147l43.812,6.885a1.215,1.215,0,0,1,1.011,1.387h0a1.215,1.215,0,0,1-1.387,1.012l-43.812-6.885a1.215,1.215,0,0,1-1.011-1.387h0A1.24,1.24,0,0,1,592.623,253.147Z" transform="translate(-591.222 -249.128)" fill="#e9dddd"/>
                    </g>
                    <g id="Check-8" transform="translate(80.617 17.525)">
                      <circle id="Background-16" cx="2.92" cy="2.92" r="2.92" transform="matrix(0.155, -0.988, 0.988, 0.155, 0, 5.77)" fill="#e9dddd"/>
                      <circle id="Indicator-8" cx="1.256" cy="1.256" r="1.256" transform="matrix(0.155, -0.988, 0.988, 0.155, 1.902, 4.384)" fill="#f2f2f2"/>
                    </g>
                  </g>
                </g>
              </g>
              <g id="Bottom_Standing_Sweatpants" data-name="Bottom Standing Sweatpants" transform="translate(289.995 167.828)">
                <path id="Tracé_2453" data-name="Tracé 2453" d="M457.217,456.406a150.494,150.494,0,0,1-18.655-10.735L431.1,404.543l-6.934-23.9-2.194-7.562-9.642-33.142-4.968-17.13L401.21,301.6h43.877l1.158,14.764.506,6.444Z" transform="translate(-384.879 -301.6)" fill="#997659"/>
                <path id="Tracé_2454" data-name="Tracé 2454" d="M436.667,301.6q-.93,4.021-1.827,7.864-1.631,6.762-3.067,12.97a1.935,1.935,0,0,1-.09.375q-2.2,9.193-4.168,17.13-5.147,20.825-8.622,33.142-1.517,5.49-2.676,9.283c-.938,3.1-1.68,5.359-2.227,6.762-1.37,3.548-4.079,13.3-9.389,28.836a150.53,150.53,0,0,1-19.1-28.648c0-.065,0-.13,0-.188.294-3.557.816-19.936.318-49.188-.2-10.971-.555-23.745-1.134-38.339Z" transform="translate(-381.835 -301.6)" fill="#b28b67"/>
                <path id="Tracé_2455" data-name="Tracé 2455" d="M461.531,458.472c-1.5-.661-2.985-1.354-4.454-2.064a150.5,150.5,0,0,1-18.655-10.735q-2.447-1.631-4.772-3.361-6.868-28.118-12.586-51.969-.979-4.079-1.909-7.978-5.6-23.411-10.017-42.417-2.1-9.071-3.94-17.13-2.659-11.64-4.747-21.209h44.783q2.243,7.513,4.225,15.866c.416,1.746.816,3.532,1.215,5.343C457.909,355.994,462.077,399.382,461.531,458.472Z" transform="translate(-384.739 -301.602)" fill="#69a1ac"/>
                <path id="Tracé_2456" data-name="Tracé 2456" d="M439.2,301.6q-1.011,5.531-2.08,10.939-1.02,5.188-2.08,10.27c-4.258,20.23-9.1,39.35-14.6,57.834q-1.46,4.894-2.961,9.7c-3.263,10.506-6.8,20.833-10.531,31.054-1.02-1.126-2.015-2.276-2.994-3.434a150.53,150.53,0,0,1-19.1-28.648c-1.289-2.529-2.521-5.1-3.671-7.708,1.558-14.169,2.521-27.987,2.945-41.667.4-12.848.334-25.573-.155-38.339Z" transform="translate(-381.19 -301.6)" fill="#89c5cc"/>
              </g>
              <g id="Head_Front_Chongo" data-name="Head Front Chongo" transform="translate(303.914 27.546)">
                <g id="Head-11" transform="translate(12.2 21.979)">
                  <path id="Head-12" d="M413.21,216.142l6.77-31.405c-3.752-4.4-6.281-9.789-5.873-15.906,1.224-17.456,25.532-13.622,30.263-4.813s4.16,31.16-1.958,32.71c-2.447.653-7.586-.9-12.888-4.079l3.344,23.493H413.21Z" transform="translate(-413.21 -156.571)" fill="#b28b67"/>
                </g>
                <path id="hair-5" d="M433.865,149.508a25.337,25.337,0,0,0-8.157-.9,13.362,13.362,0,0,0,.979-7.1,22.5,22.5,0,0,0-2.284-6.444,9.42,9.42,0,0,0-1.713-2.692,5.71,5.71,0,0,0-2.773-1.468,6.982,6.982,0,0,0-3.181,0c-.489.082-.9.326-1.305.408s-.653-.163-1.06-.489a5.971,5.971,0,0,0-3.018-1.142,6.991,6.991,0,0,0-3.426.408,6.053,6.053,0,0,0-2.855,1.876,7.406,7.406,0,0,0-.9,1.305c-.082.163-.082.326-.326.408a5.191,5.191,0,0,0-.571.163,7.545,7.545,0,0,0-4.323,3.915,11.869,11.869,0,0,0-.653,5.057c.082,2.121,1.958,7.586,3.752,9.625a11.575,11.575,0,0,0,6.2,3.508,18.852,18.852,0,0,0-3.263,6.036,27.923,27.923,0,0,0-1.468,7.341,24.185,24.185,0,0,0,.408,7.26,7.757,7.757,0,0,0,3.508,5.057c.9.489,1.795.9,2.692,1.305a15.749,15.749,0,0,0,2.773.9c1.795.408,3.915.326,5.3-1.142a9.6,9.6,0,0,0,1.387-1.795c.163-.245.245-.408.082-.571a5.272,5.272,0,0,0-.734-.653,6.893,6.893,0,0,1-2.447-4.65c-.245-1.876.326-4.4,2.121-5.221,2.284-1.06,4.813.163,6.852,1.224.9-3.018,2.61-5.792,5.465-7.178,3.1-1.55,6.607-1.713,9.789-3.1A6.11,6.11,0,0,0,443,159.3a2.871,2.871,0,0,0,.653-1.06,1.354,1.354,0,0,0-.489-1.305C441.614,154.566,436.475,150.324,433.865,149.508Z" transform="translate(-398.254 -129.627)" fill="#191847"/>
              </g>
              <g id="Body_Jacket_2" data-name="Body Jacket 2" transform="translate(223.098 96.045)">
                <path id="Skin-6" d="M354.779,292.194l-15.2-3.043q-16.143,42.482-19.936,48.56c-.139.22-.261.4-.375.547-1.55,2.121-11.42,7.586-18.109,10.441-2.692,1.142-2.121,3.426-1.305,4.16,6.444,5.873,12.236,1.55,19.088-.163,3.834-.979,5.057.9,6.2,2.773.9,1.468,1.713,3.018,3.671,3.1a5.5,5.5,0,0,0,1.142-.163c-.9-4.079-3.508-11.828-.734-16.07.2-.318.636-1.052,1.289-2.219q4.592-8.157,23.745-43.8L356.3,292.5ZM506.07,275.529c-1.224-2.2-4.242-.734-5.3-2.039s1.55-5.547,4.16-9.381.163-3.752-1.305-3.263a67.763,67.763,0,0,0-15.009,11.746l-7.831,3.442-21.7,9.528,9.462,12.154L484.861,285.2l5.792-4.446C501.747,278.71,506.885,277,506.07,275.529Z" transform="translate(-299.179 -222.263)" fill="#b28b67"/>
                <path id="Coat_Back-5" data-name="Coat Back-5" d="M424.894,218.624l7.015-1.224c15.335,14.928,21.616,50.656,31.894,55.469,9.707,4.486,23.411.163,39.725-5.71l4.976,11.175c-14.846,16.07-46.414,29.61-59.139,21.861C428.891,287.8,424.151,243.666,424.894,218.624Z" transform="translate(-322.333 -214.3)" fill="#afb9c5"/>
                <path id="Shirt-5" d="M387.21,306.592h62.4c2.855,0,2.284-4.079,1.876-6.2-4.731-23.982-23.329-49.84-23.329-83.937L410.132,213.6C395.286,237.582,390.147,267.029,387.21,306.592Z" transform="translate(-315.402 -213.6)" fill="#dde3e9"/>
                <path id="Coat_Front-5" data-name="Coat Front-5" d="M324.21,329.35q12.6-78.431,73.17-115.75h7.1s24.227,82.632,13.378,110.122H361.733c.9-13.378,3.752-27.571,7.668-41.438q-19.088,34.382-32.058,49.6Z" transform="translate(-303.792 -213.6)" fill="#c5cfd6"/>
              </g>
            </g>
          </g>
          <g id="Groupe_4596" data-name="Groupe 4596" transform="translate(3053.986 -22623.721)">
            <circle id="Oval" cx="25" cy="25" r="25" transform="translate(-1674.986 23260.721)" fill="#ec1d45" opacity="0.2"/>
            <path id="Polygon" d="M29.851,0,59.7,29.851,29.851,59.7,0,29.851Z" transform="translate(-2605.251 22855.973)" fill="#ec1d45" opacity="0.2"/>
            <path id="Polygon-2" data-name="Polygon" d="M14.621,0,29.242,14.621,14.621,29.242,0,14.621Z" transform="translate(-2380.936 23260.486)" fill="#c3f8ee" opacity="0.2"/>
            <path id="Polygon-3" data-name="Polygon" d="M7.311,0l7.311,7.311L7.311,14.621,0,7.311Z" transform="translate(-1664.413 22926.031)" fill="#ec1d45" opacity="0.2"/>
            <path id="Icon_awesome-question" data-name="Icon awesome-question" d="M10.8,0A11.862,11.862,0,0,0,.264,5.573,1.471,1.471,0,0,0,.581,7.586l2.641,2a1.469,1.469,0,0,0,2.036-.254C6.792,7.413,7.93,6.307,10.325,6.307c1.884,0,4.213,1.212,4.213,3.039,0,1.381-1.14,2.09-3,3.133C9.37,13.694,6.5,15.207,6.5,18.993v.6a1.469,1.469,0,0,0,1.469,1.469h4.437a1.469,1.469,0,0,0,1.469-1.469v-.353c0-2.624,7.67-2.733,7.67-9.834C21.545,4.057,16,0,10.8,0Zm-.614,22.865a4.241,4.241,0,1,0,4.241,4.241A4.246,4.246,0,0,0,10.188,22.865Z" transform="translate(-1811.631 22985.637) rotate(30)" fill="#eebbec"/>
            <path id="Icon_awesome-question-2" data-name="Icon awesome-question" d="M11.99,0A13.168,13.168,0,0,0,.293,6.186,1.633,1.633,0,0,0,.645,8.42l2.932,2.223a1.631,1.631,0,0,0,2.26-.282C7.539,8.229,8.8,7,11.461,7c2.091,0,4.677,1.346,4.677,3.373,0,1.533-1.265,2.32-3.33,3.477C10.4,15.2,7.215,16.88,7.215,21.082v.665a1.631,1.631,0,0,0,1.631,1.631h4.925A1.631,1.631,0,0,0,15.4,21.748v-.392c0-2.913,8.513-3.034,8.513-10.916C23.916,4.5,17.759,0,11.99,0Zm-.681,25.381a4.708,4.708,0,1,0,4.708,4.708A4.713,4.713,0,0,0,11.309,25.381Z" transform="matrix(0.921, 0.391, -0.391, 0.921, -1866.827, 23170.549)" fill="#ec1d45"/>
            <path id="Icon_awesome-question-3" data-name="Icon awesome-question" d="M9.3,0A10.214,10.214,0,0,0,.228,4.8,1.267,1.267,0,0,0,.5,6.532L2.775,8.256a1.265,1.265,0,0,0,1.753-.219c1.321-1.654,2.3-2.607,4.363-2.607,1.622,0,3.628,1.044,3.628,2.616,0,1.189-.981,1.8-2.583,2.7C8.068,11.791,5.6,13.094,5.6,16.354v.516a1.265,1.265,0,0,0,1.265,1.265h3.821a1.265,1.265,0,0,0,1.265-1.265v-.3c0-2.26,6.6-2.354,6.6-8.468C18.552,3.493,13.776,0,9.3,0ZM8.773,19.688a3.652,3.652,0,1,0,3.652,3.652A3.656,3.656,0,0,0,8.773,19.688Z" transform="matrix(1, 0.017, -0.017, 1, -2258.297, 22845.016)" fill="#c3f8ee"/>
            <path id="Icon_awesome-question-4" data-name="Icon awesome-question" d="M13.734,0C7.52,0,3.5,2.546.336,7.086a1.87,1.87,0,0,0,.4,2.559L4.1,12.191a1.868,1.868,0,0,0,2.589-.323c1.95-2.443,3.4-3.849,6.442-3.849,2.395,0,5.357,1.541,5.357,3.864,0,1.756-1.449,2.657-3.814,3.983-2.757,1.546-6.407,3.47-6.407,8.283v.762a1.868,1.868,0,0,0,1.868,1.868h5.641a1.868,1.868,0,0,0,1.868-1.868v-.449c0-3.336,9.751-3.475,9.751-12.5C27.394,5.158,20.341,0,13.734,0Zm-.78,29.072a5.392,5.392,0,1,0,5.392,5.392A5.4,5.4,0,0,0,12.954,29.072Z" transform="translate(-2649.062 23071.189) rotate(-45)" fill="#f58da1"/>
            <path id="Icon_metro-cross" data-name="Icon metro-cross" d="M21.193,17.026h0l-5.7-5.7,5.7-5.7h0a.589.589,0,0,0,0-.83L18.5,2.1a.589.589,0,0,0-.83,0h0l-5.7,5.7-5.7-5.7h0a.589.589,0,0,0-.83,0L2.742,4.793a.589.589,0,0,0,0,.83h0l5.7,5.7-5.7,5.7h0a.589.589,0,0,0,0,.83L5.436,20.55a.589.589,0,0,0,.83,0h0l5.7-5.7,5.7,5.7h0a.589.589,0,0,0,.83,0l2.693-2.693a.589.589,0,0,0,0-.83Z" transform="translate(-1594.488 23097.727)" fill="#f58da1"/>
            <path id="Icon_metro-cross-2" data-name="Icon metro-cross" d="M21.193,17.026h0l-5.7-5.7,5.7-5.7h0a.589.589,0,0,0,0-.83L18.5,2.1a.589.589,0,0,0-.83,0h0l-5.7,5.7-5.7-5.7h0a.589.589,0,0,0-.83,0L2.742,4.793a.589.589,0,0,0,0,.83h0l5.7,5.7-5.7,5.7h0a.589.589,0,0,0,0,.83L5.436,20.55a.589.589,0,0,0,.83,0h0l5.7-5.7,5.7,5.7h0a.589.589,0,0,0,.83,0l2.693-2.693a.589.589,0,0,0,0-.83Z" transform="translate(-2670.571 22905.217)" fill="#eebbec"/>
            <path id="Icon_metro-cross-3" data-name="Icon metro-cross" d="M21.193,17.026h0l-5.7-5.7,5.7-5.7h0a.589.589,0,0,0,0-.83L18.5,2.1a.589.589,0,0,0-.83,0h0l-5.7,5.7-5.7-5.7h0a.589.589,0,0,0-.83,0L2.742,4.793a.589.589,0,0,0,0,.83h0l5.7,5.7-5.7,5.7h0a.589.589,0,0,0,0,.83L5.436,20.55a.589.589,0,0,0,.83,0h0l5.7-5.7,5.7,5.7h0a.589.589,0,0,0,.83,0l2.693-2.693a.589.589,0,0,0,0-.83Z" transform="translate(-2504.168 23200.684)" fill="#c3f8ee"/>
          </g>
        </g>
        <path id="Icon_awesome-paw" data-name="Icon awesome-paw" d="M38.8,31.349C26.764,31.349,9.7,49.954,9.7,61.7c0,5.289,4.063,8.449,10.873,8.449,7.4,0,12.29-3.8,18.226-3.8,5.988,0,10.889,3.8,18.226,3.8,6.809,0,10.873-3.16,10.873-8.449C67.9,49.954,50.834,31.349,38.8,31.349ZM16.478,29.438c-1.576-5.251-6.432-8.652-10.845-7.6S-1.08,28.008.5,33.259s6.432,8.652,10.845,7.6,6.712-6.167,5.136-11.418Zm12.84-3.149c4.689-1.234,7.035-7.569,5.241-14.149s-7.05-10.914-11.74-9.68-7.035,7.569-5.241,14.149S24.63,27.524,29.318,26.289Zm42.646-4.447c-4.413-1.055-9.268,2.346-10.845,7.6s.723,10.363,5.136,11.418,9.268-2.346,10.845-7.6S76.377,22.9,71.964,21.842ZM48.28,26.289c4.689,1.234,9.945-3.1,11.74-9.68S59.468,3.695,54.779,2.46s-9.945,3.1-11.74,9.68.552,12.916,5.241,14.149Z" transform="matrix(0.966, -0.259, 0.259, 0.966, 607.847, 406.025)" fill="#9ff0e4"/>
        <path id="Icon_awesome-heart" data-name="Icon awesome-heart" d="M50.485,5.593C44.5.493,35.6,1.41,30.108,7.078L27.957,9.295,25.805,7.078C20.323,1.41,11.412.493,5.428,5.593A15.681,15.681,0,0,0,4.347,28.3L25.478,50.115a3.424,3.424,0,0,0,4.947,0L51.556,28.3a15.671,15.671,0,0,0-1.07-22.7Z" transform="matrix(0.978, 0.208, -0.208, 0.978, 1256.165, 410.848)" fill="#9ff0e9"/>
      </g>
    </g>
  </g>
</svg>
