<svg xmlns="http://www.w3.org/2000/svg" xmlns:xlink="http://www.w3.org/1999/xlink" width="1920" height="765" viewBox="0 0 1920 765">
  <defs>
    <clipPath id="clip-path">
      <rect id="Rectangle_1732" data-name="Rectangle 1732" width="1920" height="765" transform="translate(0 200)" fill="#fff" stroke="#707070" stroke-width="1"/>
    </clipPath>
    <clipPath id="clip-path-2">
      <rect id="Rectangle_1485" data-name="Rectangle 1485" width="3038" height="992" transform="translate(0.793 0.475)" fill="#13e2c8" stroke="#707070" stroke-width="1"/>
    </clipPath>
    <linearGradient id="linear-gradient" x1="0.032" y1="0.628" x2="0.972" y2="0.652" gradientUnits="objectBoundingBox">
      <stop offset="0" stop-color="#13e2ba"/>
      <stop offset="1" stop-color="#13e2e2"/>
    </linearGradient>
    <linearGradient id="linear-gradient-2" x1="0.258" y1="0.705" x2="1.096" y2="0.783" xlink:href="#linear-gradient"/>
  </defs>
  <g id="not-found-bg" transform="translate(0 -200)" clip-path="url(#clip-path)">
    <g id="not-found-bg-2" data-name="not-found-bg">
      <g id="Groupe_4597" data-name="Groupe 4597">
        <g id="Groupe_de_masques_7" data-name="Groupe de masques 7" transform="translate(-678.793 141.525)" opacity="0.39" clip-path="url(#clip-path-2)">
          <path id="Tracé_1" data-name="Tracé 1" d="M3751.613,164.795c-229.293-23.371-323.522,527.584-617.738,522.391-219.483-3.874-291.649,200.9-561.691,195.715-371.432-1.291-320.146-233.37-787.9-140.118S1261.245,291.656,993.972,201.769,419.993-40.716,419.993-40.716L3891.738-14.749Z" transform="translate(-662.616 -77.837)" opacity="0.6" fill="url(#linear-gradient)"/>
          <path id="Tracé_1-2" data-name="Tracé 1" d="M3709.573,73.218C3480.28,49.847,3344.94,633.146,3050.724,627.953c-219.483-3.874-361.031,154.4-551.045,153.743-136.423-.474-321.315-105.729-360.112-118.712-282.361-137.827-285.447-43.459-582.464-48.652S1253.994,192.4,986.721,102.516,419.993-40.716,419.993-40.716L3891.738-14.749Z" transform="translate(-662.616 -77.837)" fill="url(#linear-gradient-2)"/>
        </g>
      </g>
      <g id="Corner_Plants" data-name="Corner Plants" transform="translate(1680.459 179.523)" opacity="0.5">
        <path id="Fill_16" data-name="Fill 16" d="M11.726,23.053c6.016-4.88,12.858-8.778,19.487-12.743C41.859,3.943,52.33-.325,64.772.019,85,.578,103.248,7.41,119.865,18.269c8.662,5.66,17.017,12.3,23.58,20.34,2.921,3.579,5.6,7.35,8.188,11.175,1.6,2.363,3.12,4.777,4.618,7.206.9,1.463,2.83,3.538,2.908,5.329a2.912,2.912,0,0,1-4.176,2.75c-1.646-.889-2.656-3.632-3.652-5.178-2.29-3.559-4.759-6.986-7.311-10.358a90.191,90.191,0,0,0-13.3-14.3A129.932,129.932,0,0,0,96.294,14.352C94.781,26.366,87.9,35.27,77.523,41.295,62.749,49.873,47.934,54.24,30.917,52.986c-11.051-.814-20.027-5.772-28-13.11C1.415,38.488-.491,36.339.116,34.041.7,31.829,3.57,30.079,5.192,28.618,7.32,26.7,9.5,24.857,11.726,23.053Z" transform="translate(172.845 212.928) rotate(-30)" fill="#dde3e9"/>
        <path id="Leaf" d="M119.947,266.087c-2.306-18.46-4.748-36.814-9.231-54.913-2.643-10.666-6.032-21.106-9.111-31.65q.413,1.984.731,3.989c-1.072-3.145-3.313-6.151-4.6-9.285-1.436-3.495-2.591-7.125-3.687-10.733-2.141-7.043-4.16-14.1-6.57-21.06-2.685-7.756-5.779-15.384-8.661-23.072-2.446-6.525-4.736-13.376-7.923-19.6-1.737-3.394-3.293-7.039-5-10.5-.571-1.158-5.464-14.091-5.427-14.091.811,0,3.847,5.747,4.35,6.592,1.47,2.466,2.719,5.033,3.981,7.6a33.886,33.886,0,0,1,2.78-8.856c.421-.867,3.376-7.263,4.336-7.264.48,0-3.964,12.077-4.525,13.137a21.908,21.908,0,0,0-1.607,2.87c-.481,1.48-.234,1.11.161,2.444.724,2.445,2.327,4.839,3.336,7.187.554,1.253,1.917,5.6,3.245,7.543,3.419,6.68,5.846,14.827,8.447,22.032a47.188,47.188,0,0,1,2.883-10.29c.319-.792,2.86-8.136,3.59-8.136.821,0-2.334,11.761-2.762,12.777-.8,1.887-2.044,3.715-2.706,5.636-.726,2.108.544,4,1.353,6.16,2.974,7.929,5.581,15.937,7.962,24.053,13.875-6.077,16.649-23.926,17.566-37.089.66-9.486-.8-19.145-3.1-28.344C106.693,80.95,101.526,69.1,96.043,57.689A126.864,126.864,0,0,0,70.258,22.12,135.838,135.838,0,0,0,51.977,7.547,38.865,38.865,0,0,0,41.961,2.4,36.3,36.3,0,0,0,36.9,1.171C35.6.944,32.949-.258,31.87.05,23.056,2.492,16.429,6.545,11.287,14.074,6.42,21.2,3.395,29.719,1.71,38.073A76.23,76.23,0,0,0,.97,66.116,172.874,172.874,0,0,0,6.4,87.189c7.491,24.654,20.636,51.081,44.253,64.588a71.888,71.888,0,0,0,24.84,8.274c2.053.318,4.1.62,6.181.735,1.4.078,6.006-.855,7.019-.253,1.389.825,2.182,5.512,2.786,7.212,4.589,12.915,8.692,25.977,12.413,39.157,3.959,14.022,7.1,28.181,9.717,42.5,1.112,6.09,2.2,12.169,3.117,18.292.215,1.424-.012,5.906,1.379,7.163a1.683,1.683,0,0,0,2.65-.507c.913-1.695-.567-6.37-.8-8.26" transform="matrix(0.391, -0.921, 0.921, 0.391, 0, 111.422)" fill="#c1dee2"/>
        <path id="Leave_the_Leaf_" data-name="Leave the Leaf!" d="M48.173,61.367a77.667,77.667,0,0,1-13.182-1.1A70.816,70.816,0,0,1,22.009,56.73c-4.276-1.618-9.717-3.9-13.868-7.218a18.181,18.181,0,0,1-4.954-5.778,12.647,12.647,0,0,1-1.267-7.609,1.43,1.43,0,0,1-.44.068,1.506,1.506,0,0,1-1.476-1c-.04-.334.221-.587.734-.711,1.254-.3,1.3-.391,1.774-1.252l.142-.258A13.36,13.36,0,0,0,3.4,31.259c.157-.411.319-.835.5-1.226a34.091,34.091,0,0,1,3.275-5.687,45.245,45.245,0,0,1,9.937-9.9C25.044,8.624,32.2,4.86,38.994,2.937A76.37,76.37,0,0,1,49.9.72,87.645,87.645,0,0,1,61.175,0,88.891,88.891,0,0,1,78.241,1.633,44.508,44.508,0,0,1,89.213,5.066a26.032,26.032,0,0,1,9.017,6.987,25.732,25.732,0,0,1,5.476,10.827,12.781,12.781,0,0,1,.2,1.48,10.443,10.443,0,0,0,.275,1.78l.054.193c.3,1.067.3,1.067,1.136,1.159.235.026.527.058.91.122,1.988.332,4.029.679,6.064,1.031a148.868,148.868,0,0,1,15.764,3.38,42.674,42.674,0,0,1,4.976,1.784c.191.082.478.194.811.324,1.883.734,5.388,2.1,5.889,3.448a1.476,1.476,0,0,1,.05,1.322.966.966,0,0,1-.847.331,6.288,6.288,0,0,1-2.551-.78c-.893-.5-1.823-.978-2.763-1.414a44.883,44.883,0,0,0-7.338-2.618c-2.69-.721-5.475-1.27-8.168-1.8l-.09-.018c-2.311-.455-4.775-.9-7.754-1.412-1.466-.249-2.968-.5-4.294-.717l-.027,0a3.917,3.917,0,0,1-.381-.094,2.551,2.551,0,0,0-.609-.121.314.314,0,0,0-.245.083.329.329,0,0,0-.059.264,43.459,43.459,0,0,0-6.841-.567c-.843-.026-1.71-.052-2.546-.1-3.229-.168-5.94-.281-8.677-.281-.924,0-1.826.014-2.682.04a79.319,79.319,0,0,0-8.19.634,41.14,41.14,0,0,0-4.712.929c-.19.049-.51.11-.881.182-1.292.249-3.454.667-3.819,1.249.062-.1.46-.146,1.181-.146.586,0,1.3.032,1.862.06l.445.023c.405.021.723.037.873.037h.042c1.935-.073,3.87-.27,5.672-.472a89,89,0,0,1,9.866-.572l.672,0c-.01.451-1.28,1.154-2.207,1.668-.343.19-.638.353-.8.465a34.032,34.032,0,0,0-3.752,3.027,37.106,37.106,0,0,0-5.984,6.642,6.942,6.942,0,0,1,2.137-1.442c.44-.236.855-.458,1.108-.635,1.26-.883,2.418-1.778,3.442-2.66,1.081-.931,2.067-1.928,2.889-2.78.3-.311.635-.731.99-1.176A9.6,9.6,0,0,1,87.223,32.3a.026.026,0,0,1,.013,0,.682.682,0,0,1,.192.081l.11.055a1.134,1.134,0,0,0,.45.136.338.338,0,0,0,.145-.029,2.2,2.2,0,0,0,.589-.67,1.043,1.043,0,0,1,.173-.226,3.265,3.265,0,0,1,1.165-.17,15.992,15.992,0,0,1,2.054.191c.472.064.917.125,1.274.142,2.271.1,4.576.235,6.8.361l.08,0,2.413.135c.119.006.247.009.4.009h.222l.224,0c.554,0,1.034.04,1.288.537.313.614-.094,2.045-.364,2.992-.065.227-.121.423-.159.58a18.781,18.781,0,0,1-4.162,8.181A33.611,33.611,0,0,1,85.952,54,132.2,132.2,0,0,1,67.2,59.36,96.084,96.084,0,0,1,48.173,61.367ZM68.166,22.645c-.091,0-.149.02-.173.058a.184.184,0,0,0-.015.152c.22.79,4.25,2.84,7.193,4.337a26.5,26.5,0,0,1,2.908,1.575,20.411,20.411,0,0,0-5.4-4.335C72.2,24.178,68.978,22.645,68.166,22.645ZM96.6,17.376c-.007.04.4.758.834,1.518l0,.006c.348.611.708,1.244.872,1.56.726,1.392,1.442,2.89,2.191,4.578a27.943,27.943,0,0,0-3.9-7.662Z" transform="translate(135.882 148.594) rotate(-30)" fill="#89c5cc"/>
      </g>
      <g id="Corner_Plants-2" data-name="Corner Plants" transform="translate(-95.054 141.104)" opacity="0.5">
        <path id="Fill_10" data-name="Fill 10" d="M93-22.364a51.114,51.114,0,0,1-11.522.675A71.7,71.7,0,0,1,28.652-46.65C17.686-59.578,14.671-75.65,12.5-91.9c-.215-1.613-.307-3.216-.428-4.832-.026-.347-.065-.656-.106-.948-.852-.759-1.3-1.643-.795-2.615A107.733,107.733,0,0,1,6.349-112.9C2.339-125.635-1.74-138.611.773-152a186.354,186.354,0,0,0,3.3,22.15c.085.416.177.829.272,1.24.01.043.019.087.029.13A48.293,48.293,0,0,0,6.4-121.989c.009.023.017.046.026.069.109.279.225.556.339.834.237.574.48,1.147.738,1.718q.131.291.251.588c1.2,2.936,1.711,6.245,2.789,9.283q.387,1.036.81,2.064l.051.12c.763,1.842,1.607,3.662,2.5,5.463a6.719,6.719,0,0,1,1.162,2.08,12.987,12.987,0,0,1,.963,1.855q.788,1.518,1.577,3.034l-.048-.018q.794,1.455,1.587,2.9l.35.635.567,1.011c1.766,3.146,3.637,6.23,5.582,9.275.694,1.087,2.351,2.645,2.669,3.865.012.046.014.088.022.131a69.377,69.377,0,0,0,14.9,15.655c-.7-.758-2.2-3.33-2.6-3.839-1.211-1.559-2.525-3.01-3.844-4.479a95.432,95.432,0,0,1-6.719-8.217A156.038,156.038,0,0,1,20.032-94.378c-.029-.033-.061-.064-.088-.1-1.536-1.886-2.5-4.737-3.61-6.894,4.377,2.019,9.217,3.334,13.709,5.127a112.849,112.849,0,0,1,13.044,6.115A145.645,145.645,0,0,1,59.763-79.547c6.055,3.74,11.142,8.888,15.633,14.291,5.314,6.392,10.183,12.84,13.195,20.6a61.665,61.665,0,0,1,3.333,11.814c.03.175.069.366.111.563A38.619,38.619,0,0,1,93.9-28.015c.841,2.305,2.827,4.841-.9,5.651" transform="translate(48.069 337.141)" fill="#69a1ac"/>
        <path id="Fill_1" data-name="Fill 1" d="M138.459,233.9c-4.267,2.888-9.941,3.645-15.048,3.645-19.945,0-38.691-7.385-54.887-18.39a128.292,128.292,0,0,1-23.821-21.7A63.553,63.553,0,0,1,34.5,182.287a52.158,52.158,0,0,1-3.708-11.68,119.8,119.8,0,0,1-2.1-14.907c-.138-1.965-1.282-12.392,1.991-12.569a4.5,4.5,0,0,1,0-.722c-7.108-11.093-11.5-24.093-15.572-36.418A247.662,247.662,0,0,1,6.35,73.354,354.992,354.992,0,0,1,1.036,29.1c-.181-3.185-.305-6.371-.412-9.56Q.488,15.46.352,11.38C.252,8.332-.285,4.822.2,1.792c.423-2.639,2.711-2.24,2.812.387.122,3.171.1,6.349.241,9.523q.277,6.318.582,12.635a294.9,294.9,0,0,0,16.785,85.7A199.645,199.645,0,0,0,35.2,142.152a223.888,223.888,0,0,0,17.9,26.1c6.233,7.969,12.714,15.753,20.351,22.5a156.5,156.5,0,0,0,20.023,14.693c8.9,5.64,17.785,11.144,27.426,15.474,5.012,2.251,10.118,4.265,15.169,6.425.909.389,1.883.765,2.757,1.215,2.916,1.5,1.956,3.761-.367,5.333" transform="translate(0 31.637) rotate(-13)" fill="#c1dee2"/>
        <path id="Fill_20" data-name="Fill 20" d="M47.523-10.827c8.109,0,15.326-1.055,22.8-4.283A101.292,101.292,0,0,0,88.355-25.6c8.027-5.647,14.35-12.219,18.776-20.927,2.644-5.2,4.584-12.564,2.808-18.238-2.092-6.683-7.835-12.257-15.4-11.079-4.678.727-8.965,3.829-12.521,6.747A47.4,47.4,0,0,0,71.55-56.741c-4.586,7.606-7.28,16.206-11.176,24.154-1.848,3.772-3.635,7.572-5.849,11.157A17.992,17.992,0,0,1,50.6-16.577c-.89.706-4.64,1.927-3.206,3.512C26.365-13.342,7.735-29.518,3.7-49.54c-.376-1.866-.67-3.748-.98-5.625-.2-1.186-.117-5.558-1.175-6.316C-.792-63.152.189-58.076.289-57.345q.388,2.833.825,5.66A47.131,47.131,0,0,0,14.842-24.6C23.529-16.247,35.249-10.827,47.523-10.827Z" transform="translate(43.781 168.526)" fill="#89c5cc"/>
      </g>
    </g>
  </g>
</svg>
