<svg xmlns="http://www.w3.org/2000/svg" width="111.994" height="42.326" viewBox="0 0 111.994 42.326">
  <path id="Path_2300" data-name="Path 2300" d="M387.248,568.4l-12.51-27.366c-.191-1.41-1.792-2.982-13.551-4.233a296.542,296.542,0,0,0-29.8-1.318,296.538,296.538,0,0,0-29.8,1.318c-11.759,1.251-13.36,2.823-13.551,4.233l-12.5,27.355a1.446,1.446,0,0,0,.814,1.973c.2.074,20.755,7.411,54.913,7.448h.264c34.156-.037,54.708-7.374,54.9-7.443a1.446,1.446,0,0,0,.832-1.966Zm-38.1-.422c-2.078,2.078-6.144.361-9.035-2.711a49.679,49.679,0,0,0-8.312-.723c-.133,0-.271,0-.412-.007s-.28.007-.414.007a49.678,49.678,0,0,0-8.312.723c-2.891,3.072-6.957,4.789-9.035,2.711-2.018-2.018.4-4.72.535-6.861-.135-2.141-2.555-4.843-.535-6.863,2.078-2.078,6.144-.361,9.035,2.711a49.682,49.682,0,0,0,8.312.723c.134,0,.273,0,.414.007s.278-.007.412-.007a49.683,49.683,0,0,0,8.313-.723c2.892-3.072,6.957-4.789,9.035-2.711,2.02,2.02-.4,4.722-.535,6.863C348.748,563.261,351.164,565.963,349.145,567.982Zm-17.761-23.951c-19.055,0-31.87-1.1-36.032-2.1,4.162-1,16.977-2.1,36.032-2.1s31.87,1.1,36.032,2.1C363.255,542.928,350.44,544.031,331.385,544.031Z" transform="translate(-275.387 -535.487)" fill=" #EC1D45"/>
</svg>