<svg xmlns="http://www.w3.org/2000/svg" width="54.826" height="60.155" viewBox="0 0 54.826 60.155">
  <g id="Group_4029" data-name="Group 4029" transform="translate(-921.472 -49.579)">
    <path id="Path_1615" data-name="Path 1615" d="M971.863,97.033c0,7.116-4.136,11.8-12.772,12.287s-20.436.972-25.362-1.217-8.7-10.217-2.737-7.541c4.076,1.83,4.994,2.408,5.167,2.591-.007-.737-.126-6.163-1.823-10.011-1.825-4.136-3.892-7.116-3.892-10.4s.1-4.364-.336-5.231c-.713-1.427-5.078-4.18-5.351-7.351,0,0-3.01,1.095-3.262.274s3.08-.706,3.171-1.254a1.018,1.018,0,0,0-.091-.775h-2.759s-.416-.161-.334-.48,1.52-.456,3.071-.433a17.009,17.009,0,0,1,.341-5.246c.639-2.691,4.12-12.757,5.762-12.666s2.449,5.109,2.449,5.109a103.774,103.774,0,0,1,10.2,1.992s4.773-5.262,5.93-4.806,1.155,4.943.744,9.185-.775,7.983,2.281,11.221c2.974,3.153,7.592,4.273,12.168,7.782-.631,4.726-1.947,8.433-3.934,11.068a10.578,10.578,0,0,1-8.705,4.441c-2.638,0-5.457-1.553-7.732-4.262a15.54,15.54,0,0,1-2.883-5.091,3.282,3.282,0,1,0-.942.139h.031a16.41,16.41,0,0,0,3.094,5.539c2.451,2.916,5.523,4.587,8.432,4.587a11.465,11.465,0,0,0,9.433-4.8c2-2.655,3.352-6.322,4.032-10.953C969.657,84.475,971.863,90.149,971.863,97.033Z" fill="#EC1D45"/>
    <g id="Group_4028" data-name="Group 4028" transform="translate(954.349 50.907)">
      <g id="Group_4026" data-name="Group 4026" transform="translate(0)">
        <path id="Path_1616" data-name="Path 1616" d="M1046.469,55.951V67.023a10.634,10.634,0,0,1-1.507,5.552l-.027.045a10.595,10.595,0,0,1-9.027,5.476c-.005.153-.011.3-.018.456s-.013.3-.022.456q-.123,2.411-.44,4.552c-.148-.128-.3-.25-.45-.372-.126-.1-.25-.2-.376-.292q.249-1.85.354-3.906c.009-.15.017-.3.022-.452s.013-.3.018-.458a10.237,10.237,0,0,1-1.294-.157l0-.04-.4-.088a11.432,11.432,0,0,1-2.431-.821l-.027-.013a11.265,11.265,0,0,1-3.824-3.012,10.6,10.6,0,0,1-2.5-6.926V55.951a1.216,1.216,0,0,1,.283-.812,1.376,1.376,0,0,1,.722-.46l4.474-.923a1.618,1.618,0,0,1,.706.053,1.07,1.07,0,0,1,.505.354,1.231,1.231,0,0,1,.261.575l.292,1.17a1.152,1.152,0,0,1-.135.854c-.016.027-.033.051-.047.073a1.241,1.241,0,0,1-.814.527l-2.586.5v9.092a7.222,7.222,0,0,0,2.127,5.173,6.886,6.886,0,0,0,5.112,2.211,7.2,7.2,0,0,0,5.215-2.129,7.031,7.031,0,0,0,2.171-5.185V57.862l-2.571-.5a1.224,1.224,0,0,1-.761-.532c-.026-.037-.051-.082-.08-.135a1.2,1.2,0,0,1-.095-.8l.212-1.124a1.2,1.2,0,0,1,.525-.761,1.174,1.174,0,0,1,.943-.181l4.488.854a1.371,1.371,0,0,1,.715.456A1.206,1.206,0,0,1,1046.469,55.951Z" transform="translate(-1024.519 -53.74)" fill="#EC1D45"/>
        <path id="Path_1617" data-name="Path 1617" d="M1053.3,129.411l0,.04h0Z" transform="translate(-1044.115 -105.268)" fill=" #EC1D45"/>
      </g>
      <g id="Group_4027" data-name="Group 4027" transform="translate(9.181 24.142)">
        <path id="Path_1618" data-name="Path 1618" d="M1053.3,129.411l0,.04h0Z" transform="translate(-1053.297 -129.411)" fill="#fff"/>
      </g>
    </g>
    <path id="Path_1619" data-name="Path 1619" d="M997.846,144.834c-.126-.1-.25-.2-.376-.292-.631,4.726-1.947,8.433-3.934,11.068a10.578,10.578,0,0,1-8.705,4.441c-2.638,0-5.457-1.553-7.732-4.262a15.541,15.541,0,0,1-2.883-5.091,3.281,3.281,0,1,0-.941.139h.031a16.409,16.409,0,0,0,3.094,5.539c2.451,2.916,5.523,4.587,8.431,4.587a11.464,11.464,0,0,0,9.433-4.8c2-2.655,3.352-6.322,4.032-10.953C998.149,145.078,998,144.956,997.846,144.834Zm-24.037,4.144a1.575,1.575,0,0,1-.535.095,1.521,1.521,0,1,1,.535-.1Z" transform="translate(-33.038 -64.479)" fill="#fff"/>
    <path id="Path_1620" data-name="Path 1620" d="M978.562,151.318a1.52,1.52,0,0,1-.987,1.423v0a1.576,1.576,0,0,1-.535.095,1.52,1.52,0,1,1,1.522-1.52Z" transform="translate(-36.804 -68.244)" fill="#EC1D45"/>
  </g>
</svg>