<svg xmlns="http://www.w3.org/2000/svg" xmlns:xlink="http://www.w3.org/1999/xlink" width="357.711" height="239.353" viewBox="0 0 357.711 239.353">
  <defs>
    <linearGradient id="linear-gradient" y1="0.5" x2="1" y2="0.5" gradientUnits="objectBoundingBox">
      <stop offset="0" stop-color="#82acf5"/>
      <stop offset="1" stop-color="#f8bdec"/>
    </linearGradient>
  </defs>
  <g id="welcome-advantages-app" transform="translate(-317.775 -1156.369)">
    <g id="Groupe_82" data-name="Groupe 82" transform="translate(317.775 1156.369)">
      <g id="Groupe_76" data-name="Groupe 76">
        <g id="Groupe_74" data-name="Groupe 74">
          <path id="Tracé_190" data-name="Tracé 190" d="M469.382,1236.172c-1.139-1.174-2-2.14-2.71-2.922-2.677,2.745-6.148,5.879-6.893,4.539-.834-1.5,1.267-5.082,2.752-7.292a16.914,16.914,0,0,0-4.152.4c-.282.05-.557.092-.826.127-2.488,3.916-7.419,11.224-9.253,10.674-1.969-.591,1.551-8.016,3.124-11.124-2.107-.62-3.435-1.511-4.165-1.511-.673,0-3.289,9.418-4.365,12.219-2.225.835-7.07,3.077-2.662-8.485-1.5-1.595-4.746.661-6.985,1.54-2.153.846-2.753,8.26-4.057,12.019a41.589,41.589,0,0,0-4.906,2.574c-.022-3.425,3.847-14.822,3.847-14.822s-13.79,4.586-13.79,7.108,9.119,6.879,5.116,6.879-8.451-6.65-8.451-6.65-7.175,3.9-5.812,8.255-3.068,5.928-4.527,7.431c0,0,0,.007-.006.01-3.38,1.236-7.676,3.724-9.525,5.63-3.114,3.211,5.708,22.091,3.41,24.461s-6.969-18.345-6.969-20.333c0-1.145-1-1.241-2.284-.326,3.735-21.3,9.525-39.713,18.542-49.046,3.481-3.733,7.489-5.867,11.193-8.157-.666,1.108-1.244,3.078-1.244,6.62,0,8.37,20.893,11.136,17.793,7.939s-6.561-13.1-4.893-13.1,4.448,10.434,8.9,12.612,9.675-3.669,9.675-3.669-13.956-10.835-12.566-12.268,13.456,13.071,16.792,14.447,9.452-5.275,9.452-5.275-23.019-12.727-22.372-14.906,21.371,13.53,24.6,12.5,6.005-7.682,6.005-7.682-23.353-8.141-22.463-10.09,19.572,8.6,22.241,8.026,1.334-8.485,1.334-9.861-14.4-3.382-15.791-4.816,14.123,2.637,15.235,2.637,2.335-1.376,1.223-4.012-2.113-11.351-2.113-11.351c-1.335,0-7.229-4.816-8.229-5.848s-4.782,8.14-6.227,8.14,4.226-8.255,4.226-10.2-3.559-3.669-6.45-3.669-7.34,19.909-8.674,19.909,4.67-20.367,3.781-21.284-3.447-2.294-8.785-1.491-2.336,24.079-4.226,26.028,0-24.651,0-25.339-6.672,1.147-9.008,3.554,1.668,24.881,0,26.6-3-21.441-3-23.849-2.113-2.637-8.118,5.16a8.278,8.278,0,0,0-1.533,6.814c-9.457,4.3-7.572,19.916-3.471,24.144a8.9,8.9,0,0,0,6.559,2.678c-9.053,5.5-14.592,9.249-20.757,23.8-.005-4.926-.532-15.6-3.113-18.266s3.114-1.223,3.114-3.974-.3-13.3-1.483-14.524-4.3,8.409-6.227,6.421,5.486-7.95,5.486-8.714-4.3-15.135-5.338-15.135-.3,6.268-3.262,7.8,1.631-8.867,1.631-12.077-3.039-3.9-6.524-7.492a72.448,72.448,0,0,1-7.414-9.937,127.133,127.133,0,0,0,7.562,19.874c4.334,8.648,5.5,40.793,5.624,44.442-.254.29-.02-3.073-.866,49.917a5.676,5.676,0,0,0-.041,2.54c-.029,1.778.09-.443-.956,7.873-1-3.1-1.668-5.4-1.668-5.4s-.572.627-1.385,1.664c-.456-2.766-1.433-4.91-3.08-5.563,0,0-.8.844-1.988,2-.257-8.872-1.181-41.5-4.278-49.732a10.76,10.76,0,0,0,4.384-1.258c6.256-3.021-1.147-24.857-2.13-20.612s-6.815,11.273-7.571,9.609,5.781-8.2,5.393-13.425-7.126-8.325-7.126-8.325-1.772,17.83-3.473,16.961,3.67-18.138,3.186-21.962-8.225-7.524-8.225-7.524.921,27.552-1,27.693.426-26.2-1.807-29.042-8.462-3.216-8.462-3.216,4.5,26.23,2.64,26.046-2.443-22.624-4.081-25.079-6.945,1.732-7.974,2.229,4,15.584,3.558,17.488-4.43-15.038-4.933-16.146-2.086-1.833-3.554.228-7.525,6.2-7.525,6.2c.6,1.331-.323,8.948-.641,10.319s8.251,1.83,8.906,3.272-8.084-1.235-9.541-.531-1.129,4.874.181,7.757,18.2.133,18.809,1.464-17.337,2.694-17.619,3.912-.152,4.266,2.867,9.3,19.052-6.363,21.366-5.181-18.422,8.9-18.936,9.147,3.881,6.24,6.739,7.7,17.838-10.645,19.879-9.6-14.662,10.734-16.462,11.6-1.013,3.059,7.535,6.233a5.539,5.539,0,0,0,5.784-.927c7.191,7.556,17.423.957,19.4-4.551.991,8.385,1.65,20.138,2.079,33.331-1.834-3.234-5.582-6.882-7.391-5.018-2.446,2.523-5,13.415-7.784,10.549s6.895-10.319,5.783-14.677-4.871-8.11-6.287-6.65-1.053,16.281-2.832,14.448,2.641-16.6,1.335-17.946-7.933-7.738-10.379-5.216,2.892,16.129,1.483,14.676-4.893-16.664-6.821-18.651-4.976.506-6.82-1.4c0,0-.371,4.224-1.335,5.217s9.341,9.937,8.007,9.937-9.786-8.1-9.786-8.1.667,8.637,2.521,10.549,11.713,3.516,11.713,5.2-12.751-2.14-12.751-2.14,2.521,9.937,6.969,11.16,11.417.306,11.417,1.988-8.748.611-8.748.611,2.076,12.23,7.859,12.23,6.441-1.07,6.441,1.07-4.514-1.528-4.514,2.293,4.194,11.487,6.376,9.237a12.2,12.2,0,0,0,2.437-4.33,386.794,386.794,0,0,1,9.281,49.35H355.7c-19.974,6.847-19.151,20.649,1.713,26.976h40c20.859-6.326,21.693-20.127,1.713-26.976H385.871a146.883,146.883,0,0,1,2.46-21.861,21.629,21.629,0,0,0,1.619,5.67c3.41,8.1,17.941,4.586,17.941,4.586-8.9,0-11.417-15.44-8.748-16.663s1.186,12.842,9.935,14.983,11.417-5.046,11.417-5.046c-6.82-1.376-19.051-12.916-16.751-15.287s13.637,13.758,18.233,13.758,9.638-12.536,9.638-12.536c-5.635,3.363-24.02-5.5-25.733-8.561s18.171,8.1,25.437,6.727,6.82-14.523,6.82-14.523c-2.3,2.37-22.241.152-24.317-1.988s19.721,1.07,23.872-1.07,2.817-13.086,2.817-13.086-15.123,3.3-18.978,2.232,15.865-3.057,17.644-7.643-2.614-15.227-2.614-15.227c-2.038,2.1-8.451.361-11.117.05,7.26-3.586,15.741-7.719,19.382-9.284,6.1-2.623,22.607-3.379,30.4-.974,1.7.678,2.719,1.2,2.719,1.2A70.7,70.7,0,0,0,469.382,1236.172Zm-57.82-49.648a8.131,8.131,0,0,0,.112-1.475c2.066,4.641,5.89,8.472,5.337,9.043C416.065,1195.066,411.005,1189.735,411.561,1186.524Zm-59.482,49.059a5.1,5.1,0,0,0-1.153.42c2.532-3.736,3.662-8.932,4.339-8.586C356.422,1228.007,354.731,1234.979,352.08,1235.583Zm31.362-14.231c1.711,1.914.638,11.67,3.247,14.36,1.51,1.558,3.187,1.874,4.421,1.087a154.213,154.213,0,0,0-7.77,29.117C383.527,1243.635,383.613,1225.389,383.442,1221.353Zm-8.311,73.876c1.394,1.968,2.92,3.6,3.944,4.888q-.145,1.614-.282,3.238c-1.574-.209-3.59-2.913-5.31-5.265q-.011-.876-.023-1.75A2.356,2.356,0,0,0,375.131,1295.229Zm-4.631-23.308c.037,1.336.071,2.686.1,4.042-3.04,2.751-6.741,5.623-7.862,4.467C361.1,1278.739,367.964,1274.895,370.5,1271.921Zm-2.179,69.57a387.716,387.716,0,0,0-9.636-50.886c1.948,1.243,7,4.3,11.09,5.432a32.333,32.333,0,0,0,1.271,11.563c.068,12.06.039,23.763-.023,33.892Zm5.335,0c.032-8.659.033-18.473-.033-28.692a8.308,8.308,0,0,0,4.209,2.986c-.613,8.844-1.08,17.568-1.427,25.705Zm5.142,0c.228-7.877.565-16.384,1.093-25.183a11.853,11.853,0,0,0,1.411.152c-.2,10.272-.367,18.464-.505,25.031Zm5.446,0h-1.7c.087-7.4.187-15.97.287-25.077a13.873,13.873,0,0,0,5.329-1.628C385.958,1322.447,384.785,1332.039,384.245,1341.49Zm4.964-44.168c-1.56.69-4.008-4.759-6.063-10.369.076-7.691-.005-6.213.331-8.669C386.188,1286.077,391.338,1296.382,389.209,1297.323Zm17.5-18.651c-3.857,0-1.835-12.831-1.422-18.863.865.29,1.77.571,2.651.832C407.914,1267.127,410.194,1278.672,406.705,1278.672Zm11.862-10.09c-2.353.578.626-6.685,2.224-10.271.977-.485,2.009-1,3.085-1.53C422.339,1259.459,421.188,1267.938,418.567,1268.581Z" transform="translate(-317.775 -1156.369)" fill="url(#linear-gradient)"/>
        </g>
        <g id="Groupe_75" data-name="Groupe 75" transform="translate(80.088 87.929)">
          <path id="Tracé_191" data-name="Tracé 191" d="M819.369,1343.666H771.582c-7.406,0-27.21,52.1-39.173,85.589h86.96Z" transform="translate(-614.571 -1342.189)" fill="#70a3ff"/>
          <path id="Rectangle_52" data-name="Rectangle 52" d="M26.8,0h94.609a26.8,26.8,0,0,1,26.8,26.8v41a26.8,26.8,0,0,1-26.8,26.8H26.8A26.8,26.8,0,0,1,0,67.8v-41A26.8,26.8,0,0,1,26.8,0Z" transform="translate(23.878 1.477)" fill="#99beff"/>
          <rect id="Rectangle_53" data-name="Rectangle 53" width="147.67" height="42.218" transform="translate(32.65 58.929)" fill="#d6e5ff"/>
          <rect id="Rectangle_54" data-name="Rectangle 54" width="147.67" height="37.967" transform="translate(32.65 68.011)" fill="#8fb7ff"/>
          <path id="Rectangle_55" data-name="Rectangle 55" d="M13.425,0H17.6A13.425,13.425,0,0,1,31.027,13.425v92.553a0,0,0,0,1,0,0H0a0,0,0,0,1,0,0V13.425A13.425,13.425,0,0,1,13.425,0Z" transform="translate(180.32)" fill="#8fb7ff"/>
          <path id="Rectangle_56" data-name="Rectangle 56" d="M15.321,0H25.463A15.321,15.321,0,0,1,40.784,15.321v89.674a0,0,0,0,1,0,0H0a0,0,0,0,1,0,0V15.321A15.321,15.321,0,0,1,15.321,0Z" transform="translate(0 0.983)" fill="#bfd7ff"/>
          <rect id="Rectangle_57" data-name="Rectangle 57" width="4.658" height="15.484" transform="translate(3.84 105.978)" fill="#99beff"/>
          <rect id="Rectangle_58" data-name="Rectangle 58" width="5.37" height="17.173" transform="translate(38.341 105.978)" fill="#99beff"/>
          <rect id="Rectangle_59" data-name="Rectangle 59" width="6.021" height="14.017" transform="translate(200.987 105.978)" fill="#99beff"/>
          <rect id="Rectangle_60" data-name="Rectangle 60" width="6.521" height="14.017" transform="translate(180.32 105.978)" fill="#99beff"/>
        </g>
      </g>
      <g id="Groupe_77" data-name="Groupe 77" transform="translate(31.364 201.892)">
        <ellipse id="Ellipse_60" data-name="Ellipse 60" cx="150.559" cy="18.731" rx="150.559" ry="18.731" fill="#838bc5"/>
      </g>
      <g id="Groupe_81" data-name="Groupe 81" transform="translate(110.14 43.651)">
        <g id="Groupe_80" data-name="Groupe 80">
          <path id="Tracé_192" data-name="Tracé 192" d="M672.769,1417.9c2.489.907,35.967-5.437,37.511-5.766s6.984-3.553,8.29-4.6c1.362-1.086,3.393-2.7,3.6-2.293s-2.515,2.39-2.7,2.936-.087.656,2.683-1.2,3.509-1.8,3.734-1.351-5.316,3.488-4.98,3.61,5.187-2.085,6.081-2.5,1.209,0,1.01.591a6.709,6.709,0,0,1-1.968,1.215,50.048,50.048,0,0,0-5.184,2.4s3.065-1.332,5.184-2.4c.964-.345,1.718-.5,1.86-.214.451.907-7.6,4.439-8.491,4.856s-1.111,2.2-.17,2.54,2.487-1.119,3.647-.7-1.177,2.562-3.371,2.8-9.3,1.792-14.4,2.831-21.884,8.354-33.264,7.626-31.656-25.9-31.885-25.969c.463-3.686,3.465-10.368,9.637-9.359C649.591,1392.962,670.565,1417.093,672.769,1417.9Z" transform="translate(-596.302 -1323.622)" fill="#fd5e5a"/>
          <path id="Tracé_193" data-name="Tracé 193" d="M582.405,1313.5s-5.388.454-6.053,7.087-6.365,6.849-8.061,3.656a3.081,3.081,0,0,1,1.389-4.532s-5.738,1.174-5.168,5.452,5.852,5.7,5.852,5.7-6.616-2.65-7.517,3.636,5.289,7.714,5.289,7.714-2.171-3.635.257-4.923,4.736,6.461,4.736,6.461-.277,3.967,4.827-.452,10.77,2.116,10.22,3.908,7.181-2.676,6.732-6.233,3.889-2.969,3.162-.6c0,0,5.773-4.355,1.581-7.521s-3.694-2.212-2.887-4.844-1.178-10.058-3.934-12.708S582.405,1313.5,582.405,1313.5Z" transform="translate(-555.956 -1282.077)" fill="#000a40"/>
          <path id="Tracé_194" data-name="Tracé 194" d="M611.063,1378.271c-6.288-12.37,7.259-21.494,7.259-21.494s17.71,16.52,29.915,30.3c-3.2,1.744-11.545,12.354-14.3,14.795C628,1393.923,613.78,1383.616,611.063,1378.271Z" transform="translate(-580.332 -1304.764)" fill="#f7931e"/>
          <path id="Tracé_195" data-name="Tracé 195" d="M651.854,1536.965c4.42,0,8.454-4.036,24.951-9.59s27.142-3.857,32.233,1.234-2.468,15.737-2.468,15.737l-56.365,15.612Z" transform="translate(-601.66 -1392.124)" fill="#dfbda3"/>
          <path id="Tracé_196" data-name="Tracé 196" d="M560.255,1537.785l-6.66,17.239,13.925,21.25s30.963-3.086,33.841-11.417,8.431-24.376,8.431-24.376Z" transform="translate(-551.167 -1399.368)" fill="#a78e7a"/>
          <path id="Tracé_197" data-name="Tracé 197" d="M669.481,1534.462c-9.934,6.344-25.32,24.976-37.027,29.188a63.144,63.144,0,0,0-18.92,10.616s-6.368,3.811-3.39,6.788,28.789-4.32,28.789-7.1,8.789-7.1,19.206-11.725,25.035-10.263,28.621-12.342c6.169-3.577,5.427-14.621.926-17.589S673.344,1532,669.481,1534.462Z" transform="translate(-580.308 -1395.817)" fill="#fd5e5a"/>
          <path id="Tracé_198" data-name="Tracé 198" d="M591.242,1571.733l-3.406,9.053-25.42,8.53s-14.379-15.152-9.805-25.8,21.022-10.84,28.736-7.755S591.242,1571.733,591.242,1571.733Z" transform="translate(-550.183 -1407.859)" fill="#dfbda3"/>
          <path id="Tracé_199" data-name="Tracé 199" d="M679.8,1586.242s1.1,3.312-1.159,5.378.512,4.136-2.529,6.914-27.367,1.851-37.5,5.4-46.2,7.356-56.02,5.461c-10.258-1.981-11.724-2.684-13.075-8.7s.676-15.5,15.373-16.157,52.032,9.985,61.324,8.905S672,1582.59,679.8,1586.242Z" transform="translate(-559.305 -1423.787)" fill="#fd5e5a"/>
          <path id="Tracé_200" data-name="Tracé 200" d="M563.174,1357.681a183.913,183.913,0,0,1,26.87-2.158c7.728.083,20.519,23.4,16.791,62.817-.953,10.076,3.592,23.007,7.217,29.5,0,0-42.272,6.286-53.072-3.715,0,0,11.248-12.321,10.729-20.718-.8-13-13.506-33.62-13.506-39C558.2,1375.55,563.174,1357.681,563.174,1357.681Z" transform="translate(-553.575 -1304.105)" fill="#ffba00"/>
          <path id="Tracé_201" data-name="Tracé 201" d="M629.7,1275.116c.345.859,2.2,17.941-.808,22.447s-8.023,2.132-12.435.779a36.357,36.357,0,0,1-7.373-3.134S627.277,1269.073,629.7,1275.116Z" transform="translate(-580.169 -1261.61)" fill="#000f60"/>
          <path id="Tracé_202" data-name="Tracé 202" d="M614.213,1321.638c.33.621-5.794,13.737-5.058,18.118,0,0,3.537,11.4,1.247,15.718-1.458,2.75-14.594-15.22-14.352-18.109.324-3.882,6.7-21.84,6.7-21.84Z" transform="translate(-573.354 -1283.203)" fill="#fc7575"/>
          <path id="Tracé_203" data-name="Tracé 203" d="M618.8,1326.65c-5.761,2.695-11.321-1.094-10.56-8.711.868-2.553.791-2.267.843-2.414l11.468,6.113C620.684,1321.893,619.916,1323.652,618.8,1326.65Z" transform="translate(-579.689 -1283.203)" fill="#fd5e5a"/>
          <path id="Tracé_204" data-name="Tracé 204" d="M627.388,1260.7s5.381,2.839,4.561,7.941-1.118,9.472-3.821,14.89-8.438,11.987-14.391,11.5-8.969-11.524-7.427-16.554,2.085-14.083,7.478-18.081S627.388,1260.7,627.388,1260.7Z" transform="translate(-578.509 -1253.501)" fill="#fc7575"/>
          <g id="Groupe_78" data-name="Groupe 78" transform="translate(34.355 31.548)">
            <path id="Tracé_205" data-name="Tracé 205" d="M620.478,1313.9a24.012,24.012,0,0,0,7.05,3.629,8.24,8.24,0,0,1-1.25,1,23.873,23.873,0,0,1-5.627-2.875A10.3,10.3,0,0,1,620.478,1313.9Z" transform="translate(-620.478 -1313.903)" fill="#fff"/>
            <path id="Tracé_206" data-name="Tracé 206" d="M620.841,1317.586a23.861,23.861,0,0,0,5.628,2.875C623.563,1322.346,621.495,1321.04,620.841,1317.586Z" transform="translate(-620.668 -1315.828)" fill="#2e0028"/>
          </g>
          <path id="Tracé_207" data-name="Tracé 207" d="M641.753,1259.5s5.381,2.839,4.561,7.941c-.744,4.624-1.058,8.648-3.122,13.394a11.283,11.283,0,0,0-3.448-3.088c-5.059-2.851-6.79-12.145-6.255-18.476.044-.137.465-2.151,1.782-2.849A6.939,6.939,0,0,1,641.753,1259.5Z" transform="translate(-592.874 -1252.298)" fill="#fd5e5a"/>
          <g id="Groupe_79" data-name="Groupe 79" transform="translate(38.967 25.479)">
            <path id="Tracé_208" data-name="Tracé 208" d="M633.043,1305.964a46.894,46.894,0,0,1,1.2-4.773,49.961,49.961,0,0,1-.952,5.062,4.683,4.683,0,0,1-3.149-.727A5.432,5.432,0,0,0,633.043,1305.964Z" transform="translate(-630.141 -1301.191)" fill="#172866"/>
          </g>
          <path id="Tracé_209" data-name="Tracé 209" d="M625.815,1295.8a3.252,3.252,0,0,0-1.478-2.685c-1.717-1.06-3.679,1.277-4.951.859.774.751,2.727-.367,3.859-.457a1.934,1.934,0,0,1,1.515.669A5.087,5.087,0,0,1,625.815,1295.8Z" transform="translate(-585.552 -1271.347)" fill="#172866"/>
          <path id="Tracé_210" data-name="Tracé 210" d="M626.236,1294.327a.957.957,0,1,0,1.222-.749A1.017,1.017,0,0,0,626.236,1294.327Z" transform="translate(-589.105 -1271.713)" fill="#172866"/>
          <path id="Tracé_211" data-name="Tracé 211" d="M641.17,1301.535a3.251,3.251,0,0,1,2.789-1.272c2.01.176,2.189,3.221,3.458,3.645-1.07.141-1.968-1.922-2.822-2.671a1.936,1.936,0,0,0-1.615-.368A5.078,5.078,0,0,0,641.17,1301.535Z" transform="translate(-596.938 -1275.222)" fill="#172866"/>
          <path id="Tracé_212" data-name="Tracé 212" d="M646.7,1302.247a.957.957,0,1,1-.534-1.33A1.018,1.018,0,0,1,646.7,1302.247Z" transform="translate(-598.857 -1275.543)" fill="#172866"/>
          <path id="Tracé_213" data-name="Tracé 213" d="M628.883,1286.838c.244-.069-.884-2.2-2.781-2.988s-4.664.705-4.664.705,3.4-.832,4.447.094S627.533,1287.224,628.883,1286.838Z" transform="translate(-586.625 -1266.53)" fill="#172866"/>
          <path id="Tracé_214" data-name="Tracé 214" d="M614.138,1249.318c-4.311-.8-10.6-3.842-15.755,2.011-3,3.3-5.067-.31-9.118,12.906-6.036,19.686,8.365,18.234,8.365,18.234s-.944-1.275,1.535-12.175l.045.1s.423-1.584,1.038-3.6l0-.013c.214-.582.4-1.186.569-1.807a38.546,38.546,0,0,1,2.021-5.214c1.633-3.143,3.379-4.467,6.809-4.977s12.9,6.842,12.9,6.842C624.085,1255.314,618.448,1250.12,614.138,1249.318Z" transform="translate(-569.037 -1247.814)" fill="#1b2b80"/>
          <path id="Tracé_215" data-name="Tracé 215" d="M643.31,1255.689c4.884,2.762,4,11.3,6.968,16.9s-.012,11.447-3.3,14.9-5.75-.2-5.75-.2,1.415,1.476,3.545-1.59,1.039-6.3-4.16-9.976-7.02-17.4-7.02-17.4C634.167,1255.926,638.426,1252.928,643.31,1255.689Z" transform="translate(-592.976 -1251.352)" fill="#2846a6"/>
          <path id="Tracé_216" data-name="Tracé 216" d="M641.225,1291.375c1.631,1.766,5.922-2.234,4.852-6.034-.733-2.909-3.674-4.941-5.947-6.816-3.4-3.63-5.359-11.381-6.539-16.11.283,5.3,1.949,13.038,5.594,17.037l.93.793c.965.78,4.039,2.709,4.989,5.384.779,2.111-.657,4.576-1.909,5.568A1.61,1.61,0,0,1,641.225,1291.375Z" transform="translate(-592.976 -1255.445)" fill="#023135"/>
          <path id="Tracé_217" data-name="Tracé 217" d="M608.754,1290.487s.478-6.759-2.412-5.977-2.432,8.567-.173,9.26S608.754,1290.487,608.754,1290.487Z" transform="translate(-577.68 -1266.96)" fill="#fc7575"/>
          <path id="Tracé_218" data-name="Tracé 218" d="M608.883,1287.978s1.82,6.834-.442,5.448S606.908,1286.206,608.883,1287.978Z" transform="translate(-579.102 -1268.632)" fill="#fd5e5a"/>
          <path id="Tracé_219" data-name="Tracé 219" d="M621.065,1301.4c-.478.67-1.912.466-3.2-.456s-1.95-2.211-1.472-2.88,1.912-.466,3.2.456S621.544,1300.728,621.065,1301.4Z" transform="translate(-583.905 -1273.87)" fill="#fd5e5a"/>
          <path id="Tracé_220" data-name="Tracé 220" d="M645.66,1310.24c-.109.744-1.266,1.189-2.584.995s-2.3-.954-2.189-1.7,1.266-1.189,2.585-.995S645.769,1309.5,645.66,1310.24Z" transform="translate(-596.786 -1279.53)" fill="#fd5e5a"/>
          <path id="Tracé_221" data-name="Tracé 221" d="M759.75,1536.2c1.73,1.867,3.118,7.335,1.559,10.064s-11.107.069-10.132-5.032S756.456,1532.645,759.75,1536.2Z" transform="translate(-654.397 -1397.781)" fill="#f40000"/>
          <path id="Tracé_222" data-name="Tracé 222" d="M596.743,1597.746s-1.92,11.5-5.974,10.717-8-6.918-3.841-10.717S596.743,1592.875,596.743,1597.746Z" transform="translate(-567.663 -1429)" fill="#f40000"/>
          <path id="Tracé_223" data-name="Tracé 223" d="M568.593,1439.98c-.132,13.224.4,30.055,4.2,35.035,4.744,6.226,13.822,24.061,18.055,31.748a17.976,17.976,0,0,0,3.011,3.872s6.893,10.105,4.558,11.291c-.955.484-3.154-5.176-4.2-5.176s2.451,11.912.769,11.912-2.767-10.02-3.818-11.072,3.574,11.935,2.523,12.986-4.941-13.216-4.941-12.25c0,.631,2.628,11.826,1.472,11.38-2.028-.783-2.418-10.855-3.574-12.011s1.367,9.859.315,9.356c-2.04-.976-1.787-12.615-4.31-16.5s-19.658-25.451-23.128-32.063c-1.514-2.887-4.2-19.153-5.291-36.037C559.018,1442.325,563.806,1439.924,568.593,1439.98Z" transform="translate(-551.499 -1348.249)" fill="#fc7575"/>
          <path id="Tracé_224" data-name="Tracé 224" d="M548.794,1400.576c-1.4-21.783,2.3-45.354,12.194-41.8a31.661,31.661,0,0,1,7.677,20.735c0,4.815-.73,12.285-.81,20.231C563.069,1399.685,553.582,1400.452,548.794,1400.576Z" transform="translate(-548.508 -1305.621)" fill="#fff7cf"/>
          <path id="Tracé_225" data-name="Tracé 225" d="M574.654,1359.167c10.279,14.077,5.436,24.615,6.868,40.966,1.751-16.119,2.648-24.554-.783-32.068A26.051,26.051,0,0,0,574.654,1359.167Z" transform="translate(-562.173 -1306.013)" fill="#fff"/>
        </g>
        <path id="Tracé_226" data-name="Tracé 226" d="M790.761,1586.076c.671-.612,4.056-1.015,4.936.593s-.779,3.239-.779,3.239,1.9.341,1.9,1.437-2.24,1.681-2.24,1.681,1.88,1.278,1.2,1.9a8.1,8.1,0,0,1-.859.73,1.008,1.008,0,0,1-.341,1.261l-.71.648s1.23.758.47,1.452-4.8,1.827-4.8,0,1.84-1.257,1.84-1.257-1.391-.277-.616-1.812,1.742-1.022,1.742-1.022a2.341,2.341,0,0,1-.727-1.536c0-.877,1.4-.5,1.4-.5s-2.28-1.328-1.24-2.277a6.735,6.735,0,0,1,1.554-1.17S788.7,1587.96,790.761,1586.076Z" transform="translate(-674.482 -1424.326)" fill="#f40000"/>
      </g>
    </g>
    <g id="Groupe_86" data-name="Groupe 86" transform="translate(551.27 1324.156)">
      <path id="Tracé_227" data-name="Tracé 227" d="M1034.464,1529.068c.046.128.146.358.138.34.016.034.109.256.159.278.307-.019,12.357-3.764,12.362-10.691.072-2.842-2.22-4.291-4.926-2.629-2.582,1.581-3.963,4.995-1.323,6.531a8.419,8.419,0,0,0,1.384.563c3.165,1.121,7.317-.5,7.037-.4a.666.666,0,0,0-.4-1.269,12.568,12.568,0,0,1-3.747.371,7.21,7.21,0,0,1-3.275-.913c-1.644-1.112,2.236-4.033,2.785-3.183a3.857,3.857,0,0,1-.877,3.457c-1.409,1.9-4.052,3.381-6.221,4.358-3.155,1.412-3.79,1.252-3.72,1.487l0,0C1033.85,1527.389,1034.47,1529.087,1034.464,1529.068Z" transform="translate(-925.52 -1511.941)" fill="#3e3531"/>
      <path id="Tracé_228" data-name="Tracé 228" d="M887.683,1523.211s-18.275,28.84-15.8,32.743l3.359.506,8.107-8.12,4.334-19.228Z" transform="translate(-840.754 -1515.886)" fill="#001923"/>
      <path id="Tracé_229" data-name="Tracé 229" d="M869.331,1513s2.412-3.2,4.537-4.346,4.505-.889,4.7-.222-2.285,4.664-2.538,7.17-9.265,2.506-9.963,0S869.331,1513,869.331,1513Z" transform="translate(-837.79 -1507.866)" fill="#bc5f02"/>
      <path id="Tracé_230" data-name="Tracé 230" d="M1019.128,1584.669s5.965,5.838,8.883,6.346l1.015,18.4-2.665,4.188-4.949-.508s3.172-3.68,2.665-4.188-2.285-11.3-2.285-11.3-10.914.255-14.975-8.122S1019.128,1584.669,1019.128,1584.669Z" transform="translate(-911.06 -1547.616)" fill="#3e3531"/>
      <path id="Tracé_231" data-name="Tracé 231" d="M912.036,1565.8s-10.889,26.826-12.366,27.561-4.775,4.078-4.775,4.078l-3.519,3.014,4.646.96s2.611-.449,2.954-1.47l-.315,1.362s2.071.458,3.807-2.6,15.007-12.856,15.007-12.856S922.976,1558.161,912.036,1565.8Z" transform="translate(-851.064 -1537.45)" fill="#3e3531"/>
      <path id="Tracé_232" data-name="Tracé 232" d="M816.169,1537.736a11.626,11.626,0,0,1-3.427-.952l-2.221-6.917s4.855.349,7.044-1.84a22.446,22.446,0,0,0,3.363-4.252s4.95-10.153,15.737-10.915c7.888-.557,14.706,4.511,21.95,6.761,9.141,2.839,19.638.743,28.958-.233,8.652-.906,14.368-6.517,27.56,1.1,4.806,2.776,7.057,8.3,7.837,13.561.676,4.563.585,10.832-2.926,14.343a32.463,32.463,0,0,1-13.706,7.995l-10.914,2.983c-13.04,1.142-18.465-3.712-18.465-3.712s-.571.286-13.326.286-36.042-11.739-36.042-11.739c-6.6.317-11.993-5.077-11.993-5.077s.381-.126,2.729-1.078a2.869,2.869,0,0,0,2.031-2.982S818.9,1538.244,816.169,1537.736Z" transform="translate(-808.804 -1510.455)" fill="#534741"/>
      <path id="Tracé_233" data-name="Tracé 233" d="M971.346,1562.786c9.9-4.188,13.8,3.712,15.515,7.8s-4.125,11.3-4.125,11.3l.58,1.09-6.925,1.892a41.852,41.852,0,0,1-6.246.1C965.122,1580.653,962.262,1566.629,971.346,1562.786Z" transform="translate(-889.771 -1535.948)" fill="#262523"/>
      <path id="Tracé_234" data-name="Tracé 234" d="M899.4,1591.958l3.193-4.43c.852-4.234,16.514-2.891,14.809,3a8.268,8.268,0,0,1-1.989,3.16c-1.484.013-3.242.02-5.326.02A42.743,42.743,0,0,1,899.4,1591.958Z" transform="translate(-855.255 -1548.21)" fill="#262523"/>
      <path id="Tracé_235" data-name="Tracé 235" d="M808.641,1548.273a5.573,5.573,0,0,1,2.951,2.221c1.428,1.9,1.967,4.7-.73,4.7S804.834,1546.5,808.641,1548.273Z" transform="translate(-806.924 -1528.859)" fill="#fc7575"/>
      <path id="Tracé_236" data-name="Tracé 236" d="M812.613,1550.5a6.907,6.907,0,0,0-3.736-2.457,5.7,5.7,0,0,1,4.244,2.457c1.427,1.9,2.056,4.692-.639,4.786a2.941,2.941,0,0,1-.789-.105C814.027,1554.964,813.981,1552.322,812.613,1550.5Z" transform="translate(-807.945 -1528.862)" fill="#bd5858"/>
      <path id="Tracé_237" data-name="Tracé 237" d="M816.162,1548.307a12.141,12.141,0,0,1,2.37.5c2.893,1,3.23,2.76,2.077,5.622,1.72-2.649,1.109-5.1-1.993-5.906A7.629,7.629,0,0,0,816.162,1548.307Z" transform="translate(-811.752 -1528.992)" fill="#552e5d"/>
      <path id="Tracé_238" data-name="Tracé 238" d="M823.508,1545.588a3.466,3.466,0,0,1,1.8-.1c1.74.436,1.859,2.873,2,4.629.349-2,.012-4.626-1.939-4.919A2.813,2.813,0,0,0,823.508,1545.588Z" transform="translate(-815.592 -1527.36)" fill="#552e5d"/>
      <path id="Tracé_239" data-name="Tracé 239" d="M813.415,1553.845c.257.537.663.878.908.761s.234-.648-.023-1.185-.664-.878-.908-.762S813.157,1553.308,813.415,1553.845Z" transform="translate(-810.212 -1531.266)" fill="#bd5858"/>
      <path id="Tracé_240" data-name="Tracé 240" d="M809.486,1555.728c.257.537.664.878.908.761s.233-.648-.024-1.185-.664-.878-.908-.761S809.229,1555.19,809.486,1555.728Z" transform="translate(-808.159 -1532.249)" fill="#bd5858"/>
      <path id="Tracé_241" data-name="Tracé 241" d="M983.321,1582.329a8.676,8.676,0,0,1,5.745,2.274c-2.247,3.139-4.706,16.494-4.706,16.494l3.789-1.928,1.825-2.709-.129,1.846,1.64-.835,5.533-19.9-5.533-3.877s1.936-9.066-1.448-11.937-10.445-8.14-17.366.082S976.948,1582.62,983.321,1582.329Z" transform="translate(-892.411 -1533.769)" fill="#534741"/>
      <path id="Tracé_242" data-name="Tracé 242" d="M896.59,1521a61.45,61.45,0,0,0,6.781,2.708c9.141,2.839,19.638.742,28.958-.233,8.652-.906,14.368-6.517,27.56,1.1a13.238,13.238,0,0,1,3.693,3.194c1.113,1.707,1.337,3.3.065,4.572-5.685,5.685-18.518-5.1-18.518,1.372s10.661,10.473,2.285,11.637-6.733-17.66-12.754-11.64a12.641,12.641,0,0,1-17.894.291C912.932,1530.172,892.977,1534.128,896.59,1521Z" transform="translate(-853.561 -1514.541)" fill="#552e5d"/>
      <path id="Tracé_243" data-name="Tracé 243" d="M868.612,1520.4s3.554-5.076,8.884-7.234,7.488-.825,6.409,1.206-.7,3.553-.7,5.775-3.109,10.089-7.932,9.328S868.612,1520.4,868.612,1520.4Z" transform="translate(-839.165 -1510.058)"/>
      <path id="Tracé_244" data-name="Tracé 244" d="M868.612,1523.11s6.917-5.53,9.011-5.53,4.657-1.307,4.137,1.287-1.39,2.149-1.39,6.083-3.821,4.123-5.92,4.886S868.993,1525.394,868.612,1523.11Z" transform="translate(-839.165 -1512.771)" fill="#fc7575"/>
      <path id="Tracé_245" data-name="Tracé 245" d="M880.163,1583.737l-11.613,16.111-1.385,8.365-.479,1.652s3.143-.619,4.261-2.685.8-3.15.8-3.15l.8,2.789s1.332-4.854,3.676-6.249,15.668-8.543,18.751-13.839C900.432,1577.356,881.015,1579.5,880.163,1583.737Z" transform="translate(-838.159 -1545.633)" fill="#534741"/>
      <g id="Groupe_83" data-name="Groupe 83" transform="translate(53.146 18.435)">
        <path id="Tracé_246" data-name="Tracé 246" d="M929.749,1552.848a.061.061,0,0,1-.058-.041c-1.85-5.066-11.282-6.189-11.377-6.2a.061.061,0,0,1-.054-.067.063.063,0,0,1,.068-.055c.1.01,9.6,1.144,11.479,6.281a.062.062,0,0,1-.036.079A.061.061,0,0,1,929.749,1552.848Z" transform="translate(-918.259 -1546.485)"/>
      </g>
      <g id="Groupe_84" data-name="Groupe 84" transform="translate(55.071 20.031)">
        <path id="Tracé_247" data-name="Tracé 247" d="M931.857,1559.128a.062.062,0,0,1-.062-.055c-.542-5.549-3.8-8.778-9.164-9.092-.25-.015-.291-.018-.32-.046a.062.062,0,0,1,0-.088.061.061,0,0,1,.074-.009c.029.007.138.014.253.021,5.435.317,8.73,3.584,9.28,9.2a.062.062,0,0,1-.055.068Z" transform="translate(-922.293 -1549.829)"/>
      </g>
      <g id="Groupe_85" data-name="Groupe 85" transform="translate(54.252 20.702)">
        <path id="Tracé_248" data-name="Tracé 248" d="M926.823,1557.215a.062.062,0,0,1-.06-.047c-.722-3.09-6.1-5.789-6.152-5.816a.061.061,0,0,1-.028-.082.06.06,0,0,1,.082-.028c.055.027,5.482,2.752,6.218,5.9a.062.062,0,0,1-.046.074A.031.031,0,0,1,926.823,1557.215Z" transform="translate(-920.577 -1551.234)"/>
      </g>
      <path id="Tracé_249" data-name="Tracé 249" d="M890.505,1523.973s-1.9,27.888-14.278,33.5l-4.093-1.523s12.279,4.093,15.8-32.743Z" transform="translate(-841.007 -1515.886)" fill="#00648c"/>
      <path id="Tracé_250" data-name="Tracé 250" d="M841.712,1540.258a1.1,1.1,0,1,1-1.1-1.1A1.1,1.1,0,0,1,841.712,1540.258Z" transform="translate(-823.954 -1524.219)" fill="#0b1742"/>
    </g>
    <g id="Groupe_87" data-name="Groupe 87" transform="translate(626.55 1314.712)">
      <path id="Tracé_251" data-name="Tracé 251" d="M965.014,1493.863a.386.386,0,0,1-.152-.741c.906-.388,22.273-9.424,29.366-2.331a.386.386,0,0,1-.546.546c-6.724-6.722-28.3,2.4-28.516,2.5A.386.386,0,0,1,965.014,1493.863Z" transform="translate(-964.628 -1488.083)" fill="#18287d"/>
    </g>
  </g>
</svg>
