<svg xmlns="http://www.w3.org/2000/svg" xmlns:xlink="http://www.w3.org/1999/xlink" width="392.36" height="222.411" viewBox="0 0 392.36 222.411">
  <defs>
    <linearGradient id="linear-gradient" x1="0.473" y1="1.158" x2="0.513" y2="-0.013" gradientUnits="objectBoundingBox">
      <stop offset="0" stop-color="#82acf5"/>
      <stop offset="1" stop-color="#f8bdec"/>
    </linearGradient>
    <linearGradient id="linear-gradient-2" x1="0.21" y1="-0.25" x2="0.539" y2="0.599" gradientUnits="objectBoundingBox">
      <stop offset="0" stop-color="#7f0300"/>
      <stop offset="1" stop-color="#39170a"/>
    </linearGradient>
    <linearGradient id="linear-gradient-3" x1="0" y1="0.5" x2="1" y2="0.5" xlink:href="#linear-gradient-2"/>
    <linearGradient id="linear-gradient-4" y1="0.5" x2="1" y2="0.5" gradientUnits="objectBoundingBox">
      <stop offset="0" stop-color="#f57939"/>
      <stop offset="1" stop-color="#fffb4d"/>
    </linearGradient>
  </defs>
  <g id="welcome-advantages-nomad" transform="translate(-274.624 -296.736)">
    <g id="Groupe_138" data-name="Groupe 138" transform="translate(274.624 296.736)">
      <path id="Tracé_386" data-name="Tracé 386" d="M378.852,323.277c-.954-.46-6.675,1.292-6.246.347s6.038-1.244,5.83-2.142-.816-5.884-.419-6.754c0,0-6.922-4.938-7.252-4.212s-2.941,11.816-3.229,10.57,3-11.122,2.329-11.448-4.148-3.066-5.22-1.459-1.454,16.3-2.672,16.417,1.728-17.05,1.728-17.05-4.078.243-5.539,2.105.075,19.1-1.183,19.012-.655-18.129-.655-18.129-5.068,2.422-5.384,4.925,3.2,13.808,2.086,14.377-2.274-11.1-2.274-11.1-4.411,2.031-4.665,5.449,4.026,7.7,3.531,8.789-4.312-3.51-4.956-6.29-5.489,11.515-1.395,13.493a7.042,7.042,0,0,0,2.87.824c-2.027,5.388-2.632,26.747-2.8,32.555-.775-.758-1.3-1.31-1.3-1.31-1.079.428-1.718,1.831-2.017,3.642-.532-.679-.907-1.09-.907-1.09s-.434,1.5-1.092,3.536c-.684-5.444-.607-3.991-.626-5.154a3.715,3.715,0,0,0-.027-1.663c-.554-34.688-.4-32.487-.566-32.677.078-2.389.844-23.431,3.681-29.092a83.218,83.218,0,0,0,4.95-13.01,47.453,47.453,0,0,1-4.853,6.505c-2.281,2.352-4.27,2.8-4.27,4.9s3.009,8.907,1.068,7.906-1.456-5.1-2.136-5.1-3.494,9.407-3.494,9.908,4.853,4.4,3.591,5.7-3.3-5-4.077-4.2-.971,7.706-.971,9.507,3.737.851,2.038,2.6-2.034,8.732-2.038,11.957c-4.036-9.528-7.662-11.98-13.588-15.583A5.826,5.826,0,0,0,321,329.086c2.684-2.768,3.918-12.988-2.272-15.8a5.419,5.419,0,0,0-1-4.46c-3.931-5.1-5.314-4.954-5.314-3.378s-.874,16.738-1.966,15.612,1.529-15.837,0-17.413-5.9-2.777-5.9-2.327,1.237,17.864,0,16.588.728-16.513-2.766-17.038-5.169.375-5.751.976,3.349,13.933,2.475,13.933-3.785-13.033-5.678-13.033-4.222,1.126-4.222,2.4,3.712,6.68,2.766,6.68-3.421-6-4.077-5.329-4.513,3.828-5.387,3.828c0,0-.655,5.7-1.383,7.431s.073,2.627.8,2.627,10.883-2.664,9.973-1.726-10.337,2.252-10.337,3.153-.873,6.079.873,6.455,13.977-6.53,14.559-5.254-14.7,6.605-14.7,6.605,1.82,4.353,3.931,5.029,15.677-9.607,16.1-8.181-14.645,9.757-14.645,9.757,4,4.353,6.188,3.453,10.082-10.4,10.993-9.457-8.226,8.031-8.226,8.031,3.421,3.828,6.333,2.4,4.732-8.256,5.824-8.256-1.173,6.482-3.2,8.574,11.647.282,11.647-5.2a8.545,8.545,0,0,0-.815-4.333c2.425,1.5,5.049,2.9,7.327,5.34,5.9,6.109,9.693,18.161,12.138,32.106-.844-.6-1.5-.536-1.5.213,0,1.3-3.057,14.862-4.562,13.31s4.271-13.91,2.232-16.012a19.779,19.779,0,0,0-6.234-3.685s0,0,0-.007c-.954-.984-3.856-2.013-2.963-4.865s-3.8-5.4-3.8-5.4-2.912,4.353-5.533,4.353,3.349-2.852,3.349-4.5-9.027-4.653-9.027-4.653.292,8.748-.693,8.2c-.853-2.461-1.132-7.413-2.656-8.936-1.244-1.244-3.725-2.82-4.706-1.776,1.483,3.3.484,9.108-.972,8.561-.7-1.834-3.053-9.352-3.493-9.352-.533,0-1.555.727-3.23,1.123.933,2.017,2.1,5.157.314,5.157s-3.648-3.116-4.673-5.133c-3.891-.662-3.524.033-6.893,3.507a46.3,46.3,0,0,0-5.61,7.055s.665-.344,1.78-.787c5.1-1.574,15.91-1.079,19.9.638,2.384,1.024,7.935,3.73,12.688,6.078-1.746.2-5.944,1.343-7.278-.033,0,0-2.876,6.965-1.711,9.967s14.074,4.3,11.55,5-12.424-1.461-12.424-1.461-.873,7.166,1.844,8.567,16.986-.7,15.627.7-14.414,2.853-15.918,1.3c0,0-.292,8.606,4.465,9.507s17.772-6.4,16.651-4.4-13.157,7.806-16.846,5.6c0,0,3.3,8.206,6.309,8.206s10.43-10.559,11.936-9.007-6.5,9.107-10.965,10.008c0,0,1.747,4.7,7.474,3.3s4.756-10.608,6.5-9.808.1,10.908-5.727,10.908c0,0,9.512,2.3,11.744-3a14.152,14.152,0,0,0,1.06-3.712,96.165,96.165,0,0,1,1.611,14.31h1.064a83.354,83.354,0,0,0-2.565-17.481,9.066,9.066,0,0,0,3.488,1.065c.066,5.963.131,11.57.189,16.416h1.145c-.09-4.3-.2-9.661-.331-16.386a7.881,7.881,0,0,0,.924-.1c.345,5.76.566,11.329.715,16.485H341.1c-.227-5.327-.533-11.038-.934-16.827a5.439,5.439,0,0,0,2.755-1.955c-.043,6.689-.042,13.114-.021,18.782h1.724c-.04-6.63-.059-14.291-.015-22.186a21.156,21.156,0,0,0,.831-7.568,31.6,31.6,0,0,0,7.26-3.556,253.714,253.714,0,0,0-6.308,33.311h1.174a253.217,253.217,0,0,1,6.076-32.305,7.982,7.982,0,0,0,1.6,2.835c1.428,1.472,4.173-3.545,4.173-6.047s-2.954-.1-2.954-1.5.431-.7,4.216-.7,5.145-8.006,5.145-8.006-5.727.7-5.727-.4,4.562-.5,7.473-1.3,4.562-7.306,4.562-7.306-8.347,2.5-8.347,1.4,6.454-2.151,7.668-3.4,1.65-6.905,1.65-6.905-5.533,5.3-6.406,5.3,5.872-5.855,5.241-6.505-.873-3.415-.873-3.415c-1.207,1.245-3.2-.388-4.465.914s-3.543,11.258-4.465,12.209,2.572-7.956.971-9.607-5.939,2.533-6.794,3.415,2.038,10.546.874,11.747-.927-8.5-1.854-9.458-3.387,1.5-4.115,4.353,5.605,7.731,3.785,9.607-3.494-5.254-5.1-6.905c-1.184-1.221-3.637,1.167-4.838,3.285.281-8.636.713-16.329,1.361-21.819,1.3,3.605,7.995,7.926,12.7,2.979a3.625,3.625,0,0,0,3.786.607c5.6-2.078,6.11-3.512,4.932-4.081s-12.112-6.913-10.776-7.6,11.142,7.241,13.013,6.286,4.748-4.879,4.411-5.041-13.91-5.214-12.4-5.988,12.01,6.687,13.987,3.391,2.062-5.29,1.877-6.088-11.93-1.69-11.533-2.561,11.455.929,12.312-.958S379.805,323.738,378.852,323.277Zm-64.335-1.847c-.362-.373,2.14-2.881,3.493-5.919a5.321,5.321,0,0,0,.074.965C318.448,318.578,315.135,322.068,314.517,321.43Zm-1.02,48.762c-1.715-.421-2.469-5.972-3.475-7.725l2.02,1C313.087,365.816,315.038,370.57,313.5,370.192Zm7.765,6.605c-2.284,0-.791-7.557-.8-11.8.577-.171,1.17-.355,1.735-.545C322.464,368.4,323.788,376.8,321.262,376.8Zm10.209-27.41c.808.515,1.906.308,2.895-.712,1.708-1.761,1.005-8.148,2.125-9.4-.112,2.643-.056,14.587.067,29.173A100.905,100.905,0,0,0,331.471,349.388Zm1.245,39.619c-1.394-.616,1.977-7.362,3.752-12.462.22,1.607.167.64.217,5.675C335.339,385.891,333.737,389.458,332.716,389.007Zm10.294.5c-1.126,1.54-2.446,3.31-3.476,3.447q-.091-1.062-.185-2.12c.671-.844,1.669-1.912,2.582-3.2a1.542,1.542,0,0,0,1.094.727C343.02,388.745,343.015,389.126,343.01,389.508Zm7.031-11.56c-.734.757-3.156-1.123-5.147-2.924q.033-1.333.068-2.647C346.623,374.325,351.115,376.841,350.041,377.948Zm7.735-29.082a3.316,3.316,0,0,0-.755-.275c-1.735-.4-2.842-4.959-2.085-5.346C355.379,343.018,356.118,346.42,357.776,348.866Z" transform="translate(-274.624 -296.736)" fill="url(#linear-gradient)"/>
      <path id="Tracé_387" data-name="Tracé 387" d="M388.677,612.023h26.187c13.658-4.143,14.2-13.177,1.121-17.66H387.556C374.478,598.847,375.023,607.881,388.677,612.023Z" transform="translate(-335.958 -473.18)" fill="#99beff"/>
      <path id="Rectangle_79" data-name="Rectangle 79" d="M2.179,0H51.113a2.179,2.179,0,0,1,2.179,2.179v0a2.179,2.179,0,0,1-2.179,2.179H2.179A2.179,2.179,0,0,1,0,2.179v0A2.179,2.179,0,0,1,2.179,0Z" transform="translate(42.124 138.843)" fill="#838bc5"/>
      <path id="Tracé_388" data-name="Tracé 388" d="M384.25,679.065l-3.09-39.081a.8.8,0,0,0-1.586.1c.2,4.17,1.833,37.312,2.036,41.451a12.235,12.235,0,0,1,6.405,1.981c9.441,6.364,8.109,22.149-1.834,26.314a10.486,10.486,0,0,1-8.515-.172c-2.566-1.159-1.52-2.132-2.532-2.981a1.576,1.576,0,0,0-2.026,2.415,14.051,14.051,0,0,0,7.044,3.579c7.458,1.191,13.968-4.373,15.9-11.488C397.4,696.377,395.847,681.644,384.25,679.065Z" transform="translate(-332.663 -499.795)" fill="#838bc5"/>
      <path id="Tracé_389" data-name="Tracé 389" d="M462.395,679.065c.349-4.419,2.744-34.706,3.09-39.081a.8.8,0,0,1,1.586.1c-.2,4.17-1.833,37.312-2.036,41.451a12.235,12.235,0,0,0-6.405,1.981c-9.441,6.364-8.109,22.149,1.834,26.314a10.486,10.486,0,0,0,8.515-.172c2.566-1.159,1.52-2.132,2.532-2.981a1.576,1.576,0,0,1,2.026,2.415,14.053,14.053,0,0,1-7.044,3.579c-7.458,1.191-13.967-4.373-15.9-11.488C449.249,696.377,450.8,681.644,462.395,679.065Z" transform="translate(-378.704 -499.795)" fill="#838bc5"/>
      <rect id="Rectangle_80" data-name="Rectangle 80" width="35.355" height="2.135" transform="translate(50.231 177.895)" fill="#838bc5"/>
      <rect id="Rectangle_81" data-name="Rectangle 81" width="2.712" height="73.704" transform="translate(66.058 141.021)" fill="#838bc5"/>
    </g>
    <path id="Tracé_390" data-name="Tracé 390" d="M743.318,803.712c0,5.544-76.1,10.038-169.967,10.038s-169.967-4.494-169.967-10.038,76.1-10.038,169.967-10.038S743.318,798.168,743.318,803.712Z" transform="translate(-76.334 -294.603)" fill="#838bc5"/>
    <path id="Tracé_391" data-name="Tracé 391" d="M736.164,678.616c2.656-14.97,5.142-33.036,3.352-40.629-3.57-15.143-28.314-4.107-29.627-3.37l-9.423,66.158,30.5.392Z" transform="translate(-252.454 -197.598)" fill="#410b05"/>
    <path id="Tracé_392" data-name="Tracé 392" d="M567.591,466c-18.621-19.865-47.869-34.346-66.428-21.289-2.326,1.636,20.8,144.215,20.8,144.215H589.03l5.11-63.027S574.447,473.31,567.591,466Z" transform="translate(-134.203 -84.764)" fill="url(#linear-gradient-2)"/>
    <path id="Tracé_393" data-name="Tracé 393" d="M774.647,701.094H762.235s16.189-50.256,11.474-64.276c-1.38-4.063-5.078-6.309-9.083-7.25,8.815-1.345,19.013.42,21.568,7.25C791.348,650.594,774.647,701.094,774.647,701.094Z" transform="translate(-289.073 -197.067)" fill="#890d00"/>
    <path id="Tracé_394" data-name="Tracé 394" d="M768.106,628.967c5.946-1.363,13.959-1.392,19.114,2.564a10.879,10.879,0,0,1,2.007,2.073c7.732,11.134-6.026,53.637-11.1,66.889,3.431-12.855,14.285-51.738,10.948-63.292-1.46-5.061-7.157-7.032-11.424-7.8A39.241,39.241,0,0,0,768.106,628.967Z" transform="translate(-292.554 -196.466)" fill="#d2d3fe"/>
    <path id="Tracé_395" data-name="Tracé 395" d="M649.771,726.994l-85.789-1.814,7.79-25.04,84.976-2.327Z" transform="translate(-171.542 -237.772)" fill="#410b05"/>
    <path id="Tracé_396" data-name="Tracé 396" d="M713.378,745.794H675.79l4.816-39.234,40.967-2.232Z" transform="translate(-237.825 -241.635)" fill="url(#linear-gradient-3)"/>
    <path id="Tracé_397" data-name="Tracé 397" d="M689.974,551.1c1.908,1.21,30.961,2.03,32.307,2.037s6.467-1.688,7.746-2.317c1.333-.657,3.32-1.633,3.414-1.255s-2.532,1.533-2.784,1.955-.192.53,2.453-.507,3.253-.864,3.358-.445-5.066,1.936-4.808,2.1a42.668,42.668,0,0,0,5.524-.976c.821-.185,1.008.216.733.677a5.715,5.715,0,0,1-1.861.654,42.7,42.7,0,0,0-4.758,1.056s2.8-.551,4.758-1.056c.866-.112,1.522-.1,1.588.161.21.838-7.139,2.314-7.961,2.5s-1.326,1.627-.6,2.085,2.276-.479,3.166.085-1.448,1.92-3.32,1.721-8.077-.2-12.517-.268-19.758,2.97-29.107.287-21.653-27.354-21.831-27.454c1.057-2.986,4.778-8.007,9.737-6.041C675.209,526.093,688.284,550.026,689.974,551.1Z" transform="translate(-231.709 -135.708)" fill="#fd5e5a"/>
    <path id="Tracé_398" data-name="Tracé 398" d="M679.106,536.06c-1.079-.664-2.716-3.01-4.34-5.683a84.272,84.272,0,0,0-16.528-19.191c-4.142-3.677-9.139-5.771-11.96-4.521-7.023,3.114-2.629,6.347.5,13.668,3.246,7.6,17.1,27.9,25.057,31.462,6.457,2.894,28.219-1.6,28.219-1.6l6.454-10.706S685.283,539.861,679.106,536.06Z" transform="translate(-218.101 -124.238)" fill="#4247a2"/>
    <path id="Tracé_399" data-name="Tracé 399" d="M687.458,639.5s39.542,6.206,39.984,7.3,9.158,55.473,9.158,55.473l14.52,7.219-21.19-1.652.6-4.8-1.507.1-15.359-40.076-7.517-2.492-28.11-9.467Z" transform="translate(-239.16 -203.205)" fill="#002838"/>
    <path id="Tracé_400" data-name="Tracé 400" d="M665.206,634.422s42.8,12.316,43.278,13.514-5.6,55.219-5.6,55.219l6.485,3.281s11.144,4.1,9.442,4.548-10.323,1.57-10.323,1.57l-13.9-3.618,2.228-4.34-4.68-.243v-43.52l-25.592-3.923-10.406-12.925Z" transform="translate(-226.177 -200.192)" fill="#005d5e"/>
    <path id="Tracé_401" data-name="Tracé 401" d="M722.078,647.28c-2.94-2.229-34.952-10.731-43.674-12.858,19.541,6.539,39.55,12.434,42.56,13.919-.134,4.046-1.917,21.554-2.991,37.7C718.218,684.43,723.627,647.149,722.078,647.28Z" transform="translate(-239.375 -200.192)" fill="#298a8d"/>
    <path id="Tracé_402" data-name="Tracé 402" d="M634.368,548c-3.448-9.567-6.293-25.062-15.684-37.072-4.483-5.733-15.308-8.142-17.461-8.141-3.836,0-18.508-.625-23.815,4.682-7.257,7.257,3.192,44.56,16.981,64.828,14.694-5.315,31.874-5.44,44.237-15.1C638.17,556.366,634.7,548.922,634.368,548Z" transform="translate(-178.094 -122.141)" fill="#757ad8"/>
    <path id="Tracé_403" data-name="Tracé 403" d="M609.031,559.521l-16.1-6.939a210.87,210.87,0,0,0-.716-21.78c-.518-4.928-1.406-10.107-3.689-14.555-1.8-3.514-4.829-6.451-9.064-5.826h0a9.789,9.789,0,0,0-2.049,1.536c-6.145,6.145.407,33.839,10.932,54.486,1.165.075,2.138.1,2.69.116.169.007.334.009.494.007a98.29,98.29,0,0,0,10.67-.756C600.886,562.875,602.7,559.687,609.031,559.521Z" transform="translate(-178.094 -126.63)" fill="#585ca2"/>
    <path id="Tracé_404" data-name="Tracé 404" d="M676.756,557.221a95.205,95.205,0,0,1-5.146-9.79c-3.847-9.642-9.428-33.457-20.173-39.923a37.792,37.792,0,0,0-12.083-4.7c4.242-.128,12.245,2.136,16.614,5.96a21.332,21.332,0,0,1,3.011,3.447c8.657,10.733,12.47,31.139,14.168,35.807l.387,1.011Z" transform="translate(-216.225 -122.165)" fill="#c8caef"/>
    <path id="Tracé_405" data-name="Tracé 405" d="M582.484,533.684c-8.153-15-58.12-2.567-58.12-2.567s-21-107.056-39.2-75.484c-13.728,23.826,12.458,139.273,12.458,139.273H564.84S589.8,547.149,582.484,533.684Z" transform="translate(-122.458 -90.746)" fill="url(#linear-gradient-4)"/>
    <path id="Tracé_406" data-name="Tracé 406" d="M538.888,529.392c-3.237-17-15.144-70.124-29.48-78.81a5.674,5.674,0,0,0-5.414-.581c14.7-4.531,28.293,65.2,32.93,82.6,12.339-3.11,23.077-5.377,36.206-6.466C570.161,525.992,549.66,527.156,538.888,529.392Z" transform="translate(-135.979 -90.596)" fill="#ffda88"/>
    <path id="Tracé_407" data-name="Tracé 407" d="M658.487,706.265H639.142s24.95-47.753,17.644-61.23c-2.138-3.906-7.1-5.95-13.306-6.855,13.658-1.293,28.52-.75,32.651,6.855C683.437,658.512,658.487,706.265,658.487,706.265Z" transform="translate(-216.099 -202.097)" fill="#890d00"/>
    <path id="Tracé_408" data-name="Tracé 408" d="M650.957,637.911c10.352-1.378,30.163-2.472,33.854,7.475,4.91,12.889-11.2,46.29-18.194,58.306,5.921-12.108,17.142-38.5,17.563-52.019.151-4.476-.655-7.667-4.239-10-4.586-2.955-11.624-3.664-17.039-3.891C658.931,637.589,654.944,637.732,650.957,637.911Z" transform="translate(-223.104 -201.736)" fill="#b86e66"/>
    <g id="Groupe_139" data-name="Groupe 139" transform="translate(405.433 345.565)">
      <path id="Tracé_409" data-name="Tracé 409" d="M627.759,422.706c.014-3.965,4.211-6.217,8.171-6.035,3.884.178,7.673.254,9,2.645,3.193,5.767-1.9,16.473-1.9,16.473s-2.689,4.984-7.989,4.942C631.414,440.7,627.732,430.12,627.759,422.706Z" transform="translate(-614.784 -416.66)" fill="#fc7575"/>
      <path id="Tracé_410" data-name="Tracé 410" d="M614.728,458.642s-2.884,17.209-2.4,21.04,12.344,5.875,14.429,2.947.123-15.53.123-15.53Z" transform="translate(-605.604 -441.548)" fill="#fd5e5a"/>
      <path id="Tracé_411" data-name="Tracé 411" d="M628.9,474.741c-.192-3.887-.776-7.641-.776-7.641l-12.152-8.457a64.756,64.756,0,0,0-1.6,10.694,11,11,0,0,0,1.518-.44c1.41-1.521,3.072-6.829,3.072-6.829a83.27,83.27,0,0,1,.678,8.39c-.015,1.9,3.41,3.185,6.772,3.874a8.816,8.816,0,0,0,1.223-2.43,9.555,9.555,0,0,1-.619,2.548C627.665,474.568,628.3,474.665,628.9,474.741Z" transform="translate(-606.85 -441.548)" fill="#e82525"/>
      <path id="Tracé_412" data-name="Tracé 412" d="M623.422,446.323a7.4,7.4,0,0,0,1.587,2.339,8.235,8.235,0,0,0,1.946-4.961c.022-2.87-1.749-4.441-1.74-5.5,0,0-.644,2.428-4.034,2.917s-6.093-2.109-7.371-3.407-2.924-2.549-2.908-4.66-.155-10.362-.155-10.362-.34-1.419-4.035.392-3.264,3.213-3.875,6.005.182,4.859-2.1,5.577a5.631,5.631,0,0,0-3.079,7.7c1.738,3.62,6.592,4.1,8,2.713s3.136-5.731,3.136-5.731a62.22,62.22,0,0,1,.615,7.159c-.013,1.735,3.412,2.91,6.775,3.541a7.794,7.794,0,0,0,1.221-2.218,8.076,8.076,0,0,1-.617,2.326,30.131,30.131,0,0,0,4.432.444,4.516,4.516,0,0,0,2.774-.97A7.238,7.238,0,0,1,623.422,446.323Z" transform="translate(-596.595 -419.919)" fill="#bebfff"/>
      <path id="Tracé_413" data-name="Tracé 413" d="M644.379,464.081a11.1,11.1,0,0,1-1.213-2.525c0,1.461,3.632,5.12-.226,9.982a12,12,0,0,1-1.847-3.34,11.173,11.173,0,0,0,.4,4.658c-1.392.917-2.716.924-6.285.391.525-1.425.466-2.457.758-4.8-.79,2.156-1,3.4-1.939,4.674-1.992-.341-6.523-1.27-6.663-3.261-.069,2.557,6.893,3.9,6.893,3.9,4.245.66,5.941,1.007,7.911-.487l.238-.181a5.97,5.97,0,0,1-.614-1.972,7.021,7.021,0,0,0,1.2,1.359C643.007,472.411,646.611,468.688,644.379,464.081Z" transform="translate(-614.547 -443.276)" fill="#e5e5ff"/>
      <path id="Tracé_414" data-name="Tracé 414" d="M605.657,422.8c-3.4,1.5-3.427,3.2-3.943,5.669-.833,3.581.118,4.893-2.082,5.576a6.1,6.1,0,0,0,.781,11.519c1.506.388,3.357.491,4.54-.625a4.786,4.786,0,0,1-4.353.079c-4.931-1.928-4.7-8.331-.556-9.871,2.873-.721,2.027-3.362,2.667-6.48.463-2.314.035-3.621,3.206-5.355,1.116-.644,3.415-1.848,4.128-.764C609.479,421.27,606.931,422.244,605.657,422.8Z" transform="translate(-595.893 -419.777)" fill="#7476ff"/>
      <path id="Tracé_415" data-name="Tracé 415" d="M629.351,441.144a3,3,0,0,0-3-1.054c-1.926.426-.488,5.37,1.2,5.383S629.351,441.144,629.351,441.144Z" transform="translate(-613.403 -430.504)" fill="#fc7575"/>
      <path id="Tracé_416" data-name="Tracé 416" d="M658.285,440.27a37.121,37.121,0,0,1-.677,7.935c-.622-.135-1.255-.232-1.886-.334a20.649,20.649,0,0,0,2.2.83C658.018,447.7,659.388,444.969,658.285,440.27Z" transform="translate(-631.362 -430.657)" fill="#18287d"/>
      <path id="Tracé_417" data-name="Tracé 417" d="M648.024,436.293a4.133,4.133,0,0,1,2.392.019,12.95,12.95,0,0,1,1.983.6s.2-1.544-.761-1.552-1.257.689-1.95-.015S648.024,436.293,648.024,436.293Z" transform="translate(-626.798 -427.636)" fill="#e3e4ff"/>
      <path id="Tracé_418" data-name="Tracé 418" d="M668.438,436.131a2.315,2.315,0,0,0-1.771.046,7.937,7.937,0,0,0-1.456.628s-.177-1.542.531-1.561.945.675,1.444-.038S668.438,436.131,668.438,436.131Z" transform="translate(-636.975 -427.548)" fill="#e3e4ff"/>
      <path id="Tracé_419" data-name="Tracé 419" d="M652.137,440.149a.73.73,0,1,1-.713-.856A.793.793,0,0,1,652.137,440.149Z" transform="translate(-628.383 -430.078)" fill="#18287d"/>
      <path id="Tracé_420" data-name="Tracé 420" d="M668.038,441.177a.73.73,0,1,1-.713-.856A.793.793,0,0,1,668.038,441.177Z" transform="translate(-637.81 -430.687)" fill="#18287d"/>
      <path id="Tracé_421" data-name="Tracé 421" d="M629.005,442.871s-1.168-1.015-1.432-.127.33,2.771,1.16,2.892S629.005,442.871,629.005,442.871Z" transform="translate(-614.637 -431.907)" fill="#d84444"/>
      <path id="Tracé_422" data-name="Tracé 422" d="M651.833,463.137c-1.21,1.146-3.532.99-5.532-1.119a.3.3,0,0,1,.394-.435C647.194,461.763,648.631,463.941,651.833,463.137Z" transform="translate(-625.727 -443.253)" fill="#fff"/>
    </g>
    <path id="Tracé_423" data-name="Tracé 423" d="M586.629,554.862l1.908-19.128s2.236-27.195-10.416-25.324c0,0-8,1.029-4.424,27.465,0,0,2.175,23.541,3.888,26.09s12.6,2.589,12.6,2.589S590.023,563.154,586.629,554.862Z" transform="translate(-176.757 -126.619)" fill="#d2d5ff"/>
    <path id="Tracé_424" data-name="Tracé 424" d="M644.15,630.855s.842.97-2.025,3.444-4.812,2.844-4.812,2.844l-3.039-.353,2.748-6.127Z" transform="translate(-213.213 -197.964)" fill="#592800"/>
    <path id="Tracé_425" data-name="Tracé 425" d="M597.424,619.719l22.676,5.952s5.382,3.888,7.8,4.66,5.379,3.443,4.8,4.263-3.621-1.965-4.115-1.88,1.787,3.381,2.158,5.542,1.111,4.259-.125,4.09-2.135-5.037-2.135-5.037-1.9-3.679-2.209-3.245,1.27,2.961,1.27,2.961.374,2.731.539,3.691c.123.717-.536,2.868-1.1,2.077-.33-.465-.174-2.24-.557-3.254a16.064,16.064,0,0,0-2.071-3.727s1.376,6.226.511,6.374-1.759-5.009-1.759-5.009-2.113-4.3-3.035-4.678-3.457-2.019-5.417-2.7-10.063,1.564-13.679,1.611-9.482-2.194-9.969-5.035S597.424,619.719,597.424,619.719Z" transform="translate(-187.552 -191.476)" fill="#f96969"/>
    <path id="Tracé_426" data-name="Tracé 426" d="M618.489,624.367l-21.065-4.648s-6.9,3.816-6.412,6.657,6.353,5.083,9.969,5.035a98.231,98.231,0,0,0,10.671-.756C610.343,627.721,612.154,624.533,618.489,624.367Z" transform="translate(-187.552 -191.476)" fill="#d2d5ff"/>
    <path id="Tracé_427" data-name="Tracé 427" d="M595.477,554c1.163-10.8,4.587-29.7-1.447-39.718-2.379-3.8-4.973-4.568-8.13-3.989,14.024-.518,8.755,31.053,7.465,45.234,3.408.628,12.889,2.6,22.107,3.866C613.748,558.864,601.4,555.443,595.477,554Z" transform="translate(-184.535 -126.501)" fill="#c8caef"/>
    <g id="Groupe_143" data-name="Groupe 143" transform="translate(478.625 420.341)">
      <g id="Groupe_140" data-name="Groupe 140" transform="translate(87.527 81.352)">
        <path id="Tracé_428" data-name="Tracé 428" d="M994.313,806.285c.02,0,.066-.049.08-.063C994.334,806.252,994.307,806.283,994.313,806.285Z" transform="translate(-992.809 -803.734)" fill="#381a3f"/>
        <path id="Tracé_429" data-name="Tracé 429" d="M1019.5,800.121a25.954,25.954,0,0,1-3.533.721c-12.531,1.772-17.982-.3-21.72-.312-.972.007-2.705.088-3.395.833a.886.886,0,0,0,.394,1.429c.481.167,1.4-.5,3-.6,3.049-.166,12.672,1.94,25.38-1.7C1019.717,800.464,1019.743,800.049,1019.5,800.121Z" transform="translate(-990.621 -800.112)" fill="#381a3f"/>
      </g>
      <path id="Tracé_430" data-name="Tracé 430" d="M913.225,760.565c-1.088-.068-7.641,1.456-6.885,5.229s10.788,8.526,10.975,10.276-8.6-1.534-11.617-1.724-4.648,4.476-3.047,5.073,21.629-.378,25.328-.741S914.893,760.67,913.225,760.565Z" transform="translate(-850.571 -695.314)" fill="#381a3f"/>
      <path id="Tracé_431" data-name="Tracé 431" d="M842.068,677.985s3.885,10.873,2.974,15.882-2.164,22.612-3.533,25.009-5.064,9.019-5.064,9.019-2.71-.6-3.166-.2-.743,1.278-1.25,1.445-2.274.883-2.557,1.693a1.722,1.722,0,0,0,1.908,2.305,5.3,5.3,0,0,0,2.218-.523,2.827,2.827,0,0,0,2.32,1.007,7.733,7.733,0,0,0,4.54-1.105c.666-.587,6.909-12.446,6.948-13.072s5.464-23.7,5.892-25.755S845.61,675.361,842.068,677.985Z" transform="translate(-807.508 -646.189)" fill="#381a3f"/>
      <path id="Tracé_432" data-name="Tracé 432" d="M790.585,622.778c-.462-.029-7.434,1.321-10.612.26a18.738,18.738,0,0,1-4.32-1.861,8.9,8.9,0,0,0,5.2,4.7,28.843,28.843,0,0,0,8.294,1.846Z" transform="translate(-775.653 -612.681)" fill="#381a3f"/>
      <path id="Tracé_433" data-name="Tracé 433" d="M829.888,609.97s-10.976-2.379-15.5-1.472-12.655,5.363-14.054,8.652c-.986,2.32-.931,6.927-.813,9.442a2.021,2.021,0,0,0,1.43,1.82c.665.213,1.265.787.918,2.246-.675,2.838-2.112,9.361-2.209,10.9s2.793,1.919,2.793,1.919a9.908,9.908,0,0,0,3.821,2.425c1.892.45,5.58-3.423,7.538-4.029s2.059-3.248,2.426-4.88,5.345-8.117,5.418-9.283.441,6.671,1.364,9.908,12.428,15.086,14.969,22.067,19.029,14.375,21.1,22.585,12.831,7.628,17.47,5.47,2.122-17.946-2.892-26.672a157.917,157.917,0,0,1-10.339-21.975c-2.517-6.317-9.73-11.671-11.525-16.818s-15.607-9.288-19.117-10.871S829.888,609.97,829.888,609.97Z" transform="translate(-789.763 -605.042)" fill="#5e4373"/>
      <path id="Tracé_434" data-name="Tracé 434" d="M829.888,609.778c-3.665-1.313-10.976-2.379-15.5-1.472s-12.655,5.363-14.054,8.652c-.986,2.32-.931,6.927-.813,9.442a2.021,2.021,0,0,0,1.43,1.82c.665.213,1.265.787.918,2.246-.675,2.838-2.112,9.361-2.209,10.9s2.793,1.919,2.793,1.919a9.909,9.909,0,0,0,3.821,2.425c1.892.45,5.58-3.423,7.538-4.029s2.059-3.248,2.426-4.88,5.345-8.117,5.418-9.283.441,6.671,1.364,9.908,12.428,15.086,14.969,22.067,19.029,14.375,21.1,22.585,12.831,7.628,17.47,5.47,2.122-17.946-2.892-26.672A157.92,157.92,0,0,1,863.32,638.9c-2.517-6.317-9.73-11.671-11.525-16.818s-15.607-9.288-19.117-10.871A31.023,31.023,0,0,0,829.888,609.778Z" transform="translate(-789.763 -604.85)" fill="#4a4254"/>
      <path id="Tracé_435" data-name="Tracé 435" d="M919.034,742.432c1.546-3.511-1-7.183-6.252-10s-14.064-18.665-23.041-23.2-10.064-2.042-10.064-2.042.2.757.6,1.977a39.6,39.6,0,0,1,5.272,8.741c1.1,3.023,4.816,6.123,8.843,9.334a12.634,12.634,0,0,1,3.645,2.919c4.045,3.31,7.7,6.743,8.608,10.332,1.237,4.914,5.592,6.679,9.883,6.84C917.937,746.459,918.145,744.453,919.034,742.432Z" transform="translate(-837.322 -663.266)" fill="#79587f"/>
      <path id="Tracé_436" data-name="Tracé 436" d="M873.534,704.27a16.133,16.133,0,0,1-1.593-3.211c-2.869-6.127-10.992-14.92-13.774-19.147a7.524,7.524,0,0,1-.844-1.6c1.06,3.162,8.333,11.024,12.532,17.75a38.265,38.265,0,0,1,2.86,5.653c4,6.841,18.51,13.477,20.673,21.249C891.578,717.433,878.187,710.792,873.534,704.27Z" transform="translate(-824.07 -647.739)" fill="#7b6193"/>
      <path id="Tracé_437" data-name="Tracé 437" d="M887.9,701.483c-.808,2.487,4.008,5.962,2.964,11.842s.175,16.17-.424,19.377-1.183,9.329-3.41,9.984-3.4.316-5.043,1.206-1.894,3.788-1.894,3.788l1.117,1.2a3.2,3.2,0,0,0,2.626,1.423c1.913.12,2.424-.642,2.424-.642a32.042,32.042,0,0,0,3.414.48c1.451.091,2.832.244,4.268-1.52s1.6-8.574,2.928-10.743,2.8-30.817,3-34.049S889.047,697.946,887.9,701.483Z" transform="translate(-837.567 -659.291)" fill="#4a4254"/>
      <path id="Tracé_438" data-name="Tracé 438" d="M899.85,709.686c-1.033,11.582-2.215,30.737-3.246,33.663a9.821,9.821,0,0,0-.965,2.814c-1.15,5.284-.885,7.708-2.987,9.1a4.677,4.677,0,0,1-3.079.494,33.88,33.88,0,0,1-3.417-.437l-.073.1c-.449.608-2.471.947-3.824.208a2.949,2.949,0,0,1-1.033-.919c-2.582-2.6-.081-.045-.081.064,1.061,1.832,4.215,1.885,5.155.955a22.439,22.439,0,0,0,4.953.564,3.725,3.725,0,0,0,1.7-.544c2.475-1.557,2.227-4.3,3.394-9.418.971-4.23,1.044-.022,2.028-9.841C899.179,727.609,899.626,718.331,899.85,709.686Z" transform="translate(-837.548 -665.152)" fill="#381a3f"/>
      <path id="Tracé_439" data-name="Tracé 439" d="M801.975,608.981c.817.454-3.28-4.71-5.749-5.461s-4.931-.566-7.153-1.041-7.559-.381-9.135-2.169c0,0-1.037,1.582,4.314,6.165s5.86,6.859,5.86,6.859S800.632,608.234,801.975,608.981Z" transform="translate(-778.145 -600.31)" fill="#4a4254"/>
      <path id="Tracé_440" data-name="Tracé 440" d="M786.463,607.056s7.091.446,11.6,2.65,1.2,5.028-1.3,5.474-3.225-.981-5.062-3.064A72.646,72.646,0,0,0,786.463,607.056Z" transform="translate(-782.062 -604.309)" fill="#fc7575"/>
      <path id="Tracé_441" data-name="Tracé 441" d="M802.093,608.981c.544.213-1.388-1.775-1.862-2.23-2.537-2.471-3.615-2.879-5.058-3.14-2.066-.408-4.081-.316-6.2-.79-2.208-.46-7.384-.555-8.919-2.511,1.3,1.128,4.039,1.3,5.92,1.459,4.684.366,2.575.409,6.206.687,4.124.388,5.386.613,8.332,4.031.3.353,1.9,2.351,1.673,2.525C802.148,609.021,802.122,609,802.093,608.981Z" transform="translate(-778.263 -600.31)" fill="#381a3f"/>
      <path id="Tracé_442" data-name="Tracé 442" d="M800.722,679.124h0c-.405,1.965-.731,3.719-.776,4.424-.1,1.538,2.793,1.919,2.793,1.919a7.872,7.872,0,0,0,1.446-3.254C804.276,680.779,800.722,679.124,800.722,679.124Z" transform="translate(-790.054 -647.034)" fill="#381a3f"/>
      <path id="Tracé_443" data-name="Tracé 443" d="M969.633,739.491c-.048-.031-.144-.031-.257-.072-1.062-.391-4.429-2.023-7.1,3.285-2.952,5.874,8.323,16.119,8.118,19.385s-1.4,3.289-4.522,3.987-1.153,5.689.332,5.782l2.078.131a3.3,3.3,0,0,0,2.248.589,3.159,3.159,0,0,0,1.28-.615,1.074,1.074,0,0,0,1.623.251,16.934,16.934,0,0,0,1.608-1.886c.29-.255.9-.092,2.022-.568s2.818-2.157.881-6.1-1.7-3.832-1-5.427S975.312,743.177,969.633,739.491Z" transform="translate(-885.999 -682.457)" fill="#5e4373"/>
      <path id="Tracé_444" data-name="Tracé 444" d="M863.248,613.433c.455,2.182-.081,5.584-2.636,9.077-2.8,3.827-5.463,7.178-6.817,8.96.07.747.092,2.135.232,3.493,1.059-.262,4.094-1.683,7.186-7,3.508-6.036,5.461-10.386,5.007-13.747C865.776,614.04,863.666,613.646,863.248,613.433Z" transform="translate(-821.978 -608.09)" fill="#42210b"/>
      <path id="Tracé_445" data-name="Tracé 445" d="M886.556,635.417s-5.7,3.218-2.056,8.48,6.6,4.5,8.87,8.493,7.682,5.547,9.011,2.707-.347-7.084-.723-10.932-1.783-6.221-4.658-9.482S888.413,633.779,886.556,635.417Z" transform="translate(-839.46 -619.719)" fill="#381a3f"/>
      <path id="Tracé_446" data-name="Tracé 446" d="M938.508,683.336c-.823,1.694-4.366,5.851-.388,8.241,4.432,2.663,3.32-.718,5.769.363s2.726-3.258-.245-6.628S938.6,683.142,938.508,683.336Z" transform="translate(-870.871 -649.314)" fill="#381a3f"/>
      <path id="Tracé_447" data-name="Tracé 447" d="M931.812,659.467s-.25,5.149.63,6.149,4.94,2,5.046.318.776-1.208-1.111-3.348S931.952,657.24,931.812,659.467Z" transform="translate(-868.21 -634.933)" fill="#381a3f"/>
      <path id="Tracé_448" data-name="Tracé 448" d="M945.935,709.2s-1.927,1.169-.2,3.132-.669,3.236,2.849,4.153,4.248,1.36,4.015-1.734S949.322,706.962,945.935,709.2Z" transform="translate(-876.058 -664.517)" fill="#381a3f"/>
      <path id="Tracé_449" data-name="Tracé 449" d="M969.576,728.932s-.095,3.073.747,2.331S971.555,729.056,969.576,728.932Z" transform="translate(-890.616 -676.562)" fill="#381a3f"/>
      <path id="Tracé_450" data-name="Tracé 450" d="M807.746,654.886a1.333,1.333,0,1,1-1.224-1.07A1.17,1.17,0,0,1,807.746,654.886Z" transform="translate(-793.153 -632.028)" fill="#381a3f"/>
      <g id="Groupe_141" data-name="Groupe 141" transform="translate(23.361 26.541)">
        <path id="Tracé_451" data-name="Tracé 451" d="M835.108,665.691a.2.2,0,0,0-.2-.195.2.2,0,0,0-.194.2c0,.086.325,8.586-1.458,10.157-.069.061-.206.209-.226.226a4.341,4.341,0,0,1,.6-.27C835.241,673.568,835.115,666.028,835.108,665.691Z" transform="translate(-833.029 -665.496)" fill="#381a3f"/>
      </g>
      <g id="Groupe_142" data-name="Groupe 142" transform="translate(31.547 26.249)">
        <rect id="Rectangle_82" data-name="Rectangle 82" width="2.228" height="0.659" transform="translate(0 2.182) rotate(-78.339)" fill="#42210b"/>
      </g>
      <circle id="Ellipse_62" data-name="Ellipse 62" cx="2.367" cy="2.367" r="2.367" transform="translate(29.18 27.407)" fill="#ff9739"/>
    </g>
    <g id="Groupe_144" data-name="Groupe 144" transform="translate(531.919 418.781)">
      <path id="Tracé_452" data-name="Tracé 452" d="M937.558,628.142a.33.33,0,0,1-.314-.229c-7.023-21.907-30.251-30.71-30.485-30.8a.33.33,0,0,1,.228-.618c.237.088,23.762,8.995,30.885,31.213a.329.329,0,0,1-.213.414A.337.337,0,0,1,937.558,628.142Z" transform="translate(-906.543 -596.479)" fill="#18287d"/>
    </g>
  </g>
</svg>
