<svg xmlns="http://www.w3.org/2000/svg" xmlns:xlink="http://www.w3.org/1999/xlink" width="676.788" height="395.103" viewBox="0 0 676.788 395.103">
  <defs>
    <linearGradient id="linear-gradient" x1="0.5" y1="-19.493" x2="0.5" y2="1" gradientUnits="objectBoundingBox">
      <stop offset="0" stop-color="#eebbec"/>
      <stop offset="1" stop-color="#99beff"/>
    </linearGradient>
    <linearGradient id="linear-gradient-2" x1="0.709" y1="-0.447" x2="1.749" y2="-0.447" gradientUnits="objectBoundingBox">
      <stop offset="0" stop-color="#7f0300"/>
      <stop offset="1" stop-color="#93170a"/>
    </linearGradient>
    <linearGradient id="linear-gradient-3" x1="0.492" y1="1.26" x2="1.532" y2="1.26" xlink:href="#linear-gradient-2"/>
    <linearGradient id="linear-gradient-4" x1="0.5" x2="0.5" y2="1.619" gradientUnits="objectBoundingBox">
      <stop offset="0" stop-color="#eebbec"/>
      <stop offset="0.288" stop-color="#c6bcf5"/>
      <stop offset="1" stop-color="#99beff"/>
    </linearGradient>
    <linearGradient id="linear-gradient-5" x1="-0.638" y1="3.721" x2="0.283" y2="3.721" xlink:href="#linear-gradient-2"/>
    <linearGradient id="linear-gradient-6" x1="0" y1="0.5" x2="1" y2="0.5" xlink:href="#linear-gradient-2"/>
  </defs>
  <g id="Groupe_49" data-name="Groupe 49" transform="translate(-2522.816 -1056.306)">
    <path id="Tracé_6" data-name="Tracé 6" d="M3133.378,1668.98c0,4.042-119.818,7.318-267.623,7.318s-267.623-3.276-267.623-7.318,119.819-7.318,267.623-7.318S3133.378,1664.938,3133.378,1668.98Z" transform="translate(-30.724 -246.948)" fill="url(#linear-gradient)"/>
    <g id="Groupe_6" data-name="Groupe 6" transform="translate(2558.758 1245.305)">
      <g id="Groupe_3" data-name="Groupe 3">
        <path id="Tracé_7" data-name="Tracé 7" d="M2584.222,1517.538l-.7-1.9,359-140.11.989,1.386Z" transform="translate(-2583.523 -1375.527)" fill="#400519"/>
      </g>
      <g id="Groupe_4" data-name="Groupe 4" transform="translate(189.053 0.009)">
        <path id="Tracé_8" data-name="Tracé 8" d="M2903.512,1542.21l-.677-1.944,171.531-164.725.659,1.208Z" transform="translate(-2902.835 -1375.542)" fill="#400519"/>
      </g>
      <g id="Groupe_5" data-name="Groupe 5" transform="translate(82.576 0.723)">
        <path id="Tracé_9" data-name="Tracé 9" d="M2723.753,1499.9l-.757-1.876,276.945-121.276.8,1.088Z" transform="translate(-2722.995 -1376.749)" fill="#400519"/>
      </g>
    </g>
    <g id="Groupe_7" data-name="Groupe 7" transform="translate(2609.292 1340.378)">
      <path id="Tracé_10" data-name="Tracé 10" d="M2688.875,1603.045s-8.706-8.409-11.487-10.037-9.732,2.294-8.33,5.17,6.471-.379,6.471-.379l8.947,11.433Z" transform="translate(-2668.874 -1559.164)" fill="#552e5d"/>
      <path id="Tracé_11" data-name="Tracé 11" d="M2811.245,1613.337a34.006,34.006,0,0,0,11.4-.121c6.2-1.135,10.352-.464,14.2-2.508s11.026-4.713,14-3.956c0,0-10.332,3.028-12.252,5.215s-13.836,2.524-15.564,3.44-9.238,2.688-9.238,2.688Z" transform="translate(-2726.953 -1564.873)" fill="#552e5d"/>
      <path id="Tracé_12" data-name="Tracé 12" d="M2692.841,1556.029s-3.685,1.911-4.461,4.388,1.715,6.544,5.566,3.512S2692.841,1556.029,2692.841,1556.029Z" transform="translate(-2676.773 -1544.235)" fill="#552e5d"/>
      <path id="Tracé_13" data-name="Tracé 13" d="M2798.218,1636.592l-.677,4.131s5.795,1.206,5.312,2.749-8.074,12.367-8.074,12.367l-6.772-1.224a.738.738,0,0,1-.422-1.261,5.819,5.819,0,0,1,5.564-1.768l3.088-6.309s-6.439.454-9.087-1.733c-2-1.648-3.979-4.677-6.425-6.725C2784.045,1631.4,2798.9,1632.462,2798.218,1636.592Z" transform="translate(-2714.503 -1575.683)" fill="#552e5d"/>
      <path id="Tracé_14" data-name="Tracé 14" d="M2704.619,1548.36s-3.908,16.8,1.532,19.932,52.041,14.769,55.037,18.208,7.475,11.209,6.8,15.341l-.677,4.131s5.794,1.206,5.311,2.748-8.073,12.368-8.073,12.368l-6.772-1.224a.737.737,0,0,1-.421-1.261,5.82,5.82,0,0,1,5.563-1.769l3.088-6.308s-6.438.453-9.086-1.734-5.274-6.81-8.993-8.34-43.2-1.233-49.544-3.432-13.457-10.64-15.391-13.924,6.971-30.911,4.9-32.951-8.04-2.77-10.483-4.765c-1.75-1.428-.8-4.157-.8-4.157s-.938-2.915.106-4.276,3.552.09,3.552.09,8.461,2.156,10.534,1.055,4.261-2.172,8.154-.016S2705.9,1544.267,2704.619,1548.36Z" transform="translate(-2671.871 -1536.213)" fill="#61140d"/>
      <path id="Tracé_15" data-name="Tracé 15" d="M2812.365,1620.714c3,3.439,7.475,11.21,6.8,15.341l-.677,4.131s5.794,1.206,5.311,2.748-8.073,12.368-8.073,12.368l-6.772-1.224a.737.737,0,0,1-.421-1.26,5.821,5.821,0,0,1,5.563-1.769l3.088-6.308s-6.439.454-9.087-1.734c-2-1.648-3.978-4.676-6.425-6.724,3.319-5.416,8.1-10.146,10.068-16.048A3.054,3.054,0,0,1,2812.365,1620.714Z" transform="translate(-2723.047 -1570.426)" fill="#61140d"/>
      <path id="Tracé_16" data-name="Tracé 16" d="M2710.951,1579.124l-18.448-.861-.43,2.449,18.688.458Z" transform="translate(-2678.337 -1553.305)" fill="#ffda88"/>
      <path id="Tracé_17" data-name="Tracé 17" d="M2717.46,1594.092c.523-1.667,2.21-3.575,4.4-5.33a3.919,3.919,0,0,0,1.057.905c4.287,2.467,34.141,10.219,48.066,15.077-1.855,2.937-4.571,6.168-7.631,6.391-5.685.412-8.313-2.235-13.94.752a12.677,12.677,0,0,1-16.981-4.907C2728.647,1600.548,2715.908,1599.047,2717.46,1594.092Z" transform="translate(-2688.641 -1557.588)" fill="#42210b"/>
      <path id="Tracé_18" data-name="Tracé 18" d="M2676.973,1544.162c-.911,2.179.712,3.094,3.1,3.762a18.74,18.74,0,0,1,5.167,2.457c.261.161.531-.213.27-.375C2680.544,1546.941,2675.618,1547.825,2676.973,1544.162Z" transform="translate(-2672.073 -1539.394)" fill="#552e5d"/>
      <path id="Tracé_19" data-name="Tracé 19" d="M2719.507,1548.7a12.978,12.978,0,0,1,3.781,2.708c1.458,1.651-5.733,9.822-6.248,9.691S2719.507,1548.7,2719.507,1548.7Z" transform="translate(-2688.499 -1541.247)" fill="#552e5d"/>
      <path id="Tracé_20" data-name="Tracé 20" d="M2709.972,1569.327s-4.54-1.273-2.88-5.387,8.24-7.1,8.889-9.167-.657-6.068-.657-6.068a8.934,8.934,0,0,1,4.265,2.715c1.648,2.049,1.19,3.415,1.815,4.475s2.224,1.963,1.925,5.085S2713.992,1569.3,2709.972,1569.327Z" transform="translate(-2684.316 -1541.247)" fill="#42210b"/>
      <path id="Tracé_21" data-name="Tracé 21" d="M2715.339,1554.82c.675-1.5.05-4.672-.237-6.115.726,1.714,1.523,4.554.916,6.361-1.283,2.725-7.461,5.25-8.962,9.465-.662,1.758.046,3.651,2.695,4.8-2.464-.574-4.118-2.5-3.4-4.962C2707.6,1559.79,2714.116,1556.969,2715.339,1554.82Z" transform="translate(-2684.094 -1541.247)" fill="#ff9739"/>
      <path id="Tracé_22" data-name="Tracé 22" d="M2704.29,1543.243c-.247.788.026,1.547.61,1.7s1.258-.37,1.5-1.158-.026-1.548-.61-1.7S2704.537,1542.454,2704.29,1543.243Z" transform="translate(-2683.285 -1538.536)"/>
      <path id="Tracé_23" data-name="Tracé 23" d="M2690.62,1610.663s-12.734.711-15.9,1.612-4.225,8.229-.871,9.083,3.791-4.744,3.791-4.744l15.476,1.044Z" transform="translate(-2670.064 -1566.522)" fill="#61140d"/>
      <path id="Tracé_24" data-name="Tracé 24" d="M2676.58,1536.635c1.044-1.362,3.782.339,4.067.407.193.046.988,2.137-1.622,3.807a2.933,2.933,0,0,1-2.022.327c-.064-.008-.435-.013-.461-.057C2676.059,1540.3,2675.747,1537.723,2676.58,1536.635Z" transform="translate(-2671.806 -1536.108)" fill="#552e5d"/>
    </g>
    <g id="Groupe_8" data-name="Groupe 8" transform="translate(2716.58 1389.198)">
      <path id="Tracé_25" data-name="Tracé 25" d="M2884.511,1684.99s-10.112-4.954-12.965-5.553-7.137,5.343-4.966,7.558,5.155-2.486,5.155-2.486l11.386,7.69Z" transform="translate(-2856.572 -1643.38)" fill="#552e5d"/>
      <path id="Tracé_26" data-name="Tracé 26" d="M2988.78,1647.018a26.545,26.545,0,0,0,9.271-3.871c4.663-3.1,8.3-3.846,10.714-7.018s7.332-8.022,10.031-8.3c0,0-7.366,6.227-8.156,8.895s-10.409,6.912-11.495,8.336-6.593,5.547-6.593,5.547Z" transform="translate(-2906.664 -1622.345)" fill="#552e5d"/>
      <path id="Tracé_27" data-name="Tracé 27" d="M2871.086,1640.6s-2.331,2.994-2.083,5.555,3.733,5.525,5.8,1.433S2871.086,1640.6,2871.086,1640.6Z" transform="translate(-2857.795 -1627.553)" fill="#552e5d"/>
      <path id="Tracé_28" data-name="Tracé 28" d="M2985.679,1678.975l.918,4.068s5.166-.789,5.321.807-2.193,14.173-2.193,14.173l-5.971,1.094a.755.755,0,0,1-.794-1.035,4.874,4.874,0,0,1,3.917-3.481l.276-6.89s-5.1,2.546-8.044,1.384c-2.218-.876-4.918-3.04-7.647-4.139C2972.245,1678.82,2984.76,1674.906,2985.679,1678.975Z" transform="translate(-2899.599 -1642.529)" fill="#552e5d"/>
      <path id="Tracé_29" data-name="Tracé 29" d="M2877.223,1626.437s2.792,16.926,8.353,18.046,47.794-3.417,51.469-1.2,10.1,7.968,11.022,12.037l.918,4.068s5.165-.789,5.321.806-2.192,14.173-2.192,14.173l-5.971,1.094a.755.755,0,0,1-.794-1.035,4.876,4.876,0,0,1,3.917-3.481l.276-6.89s-5.1,2.546-8.044,1.383-6.737-4.6-10.321-4.8-35.744,13.1-41.715,13.145-14.788-5.464-17.54-7.884-5.315-31.067-7.74-32.282-7.557.074-10.265-.976c-1.939-.753-2.131-3.607-2.131-3.607s-1.806-2.4-1.437-4.016,2.936-1.087,2.936-1.087,7.682-.784,8.985-2.492,2.709-3.426,6.659-2.7S2876.813,1622.2,2877.223,1626.437Z" transform="translate(-2850.172 -1618.566)" fill="#870b04"/>
      <path id="Tracé_30" data-name="Tracé 30" d="M2893.212,1653.428l-15.384,5.282.521,2.421,15.436-5.738Z" transform="translate(-2861.403 -1632.787)" fill="#249999"/>
      <path id="Tracé_31" data-name="Tracé 31" d="M2852.889,1635.773c.033,2.328,1.684,2.644,3.872,2.48a15.439,15.439,0,0,1,5.1.582c.27.064.358-.373.087-.437C2856.8,1637.182,2853.087,1639.629,2852.889,1635.773Z" transform="translate(-2851.229 -1625.585)" fill="#552e5d"/>
      <path id="Tracé_32" data-name="Tracé 32" d="M2890.549,1625.459a11.215,11.215,0,0,1,4.055,1.273c1.779,1.056-1.186,11.033-1.654,11.08S2890.549,1625.459,2890.549,1625.459Z" transform="translate(-2866.592 -1621.378)" fill="#552e5d"/>
      <path id="Tracé_33" data-name="Tracé 33" d="M2892.624,1646.4a3.919,3.919,0,0,1-4.272-4.063c-.109-4.375,4.207-9.321,4-11.463s-2.7-5.43-2.7-5.43a7.564,7.564,0,0,1,4.454,1.12c2.077,1.362,2.189,2.786,3.078,3.567s2.516,1.093,3.384,4.1S2895.9,1645.057,2892.624,1646.4Z" transform="translate(-2865.695 -1621.366)" fill="url(#linear-gradient-2)"/>
      <path id="Tracé_34" data-name="Tracé 34" d="M2891.8,1631.072c.017-1.62-1.623-4.366-2.372-5.613,1.2,1.355,2.867,3.735,3.015,5.618-.078,2.96-4.228,7.347-3.952,11.765.084,1.854,1.338,3.383,3.91,3.574a3.858,3.858,0,0,1-4.544-3.5C2887.242,1638.25,2891.565,1633.476,2891.8,1631.072Z" transform="translate(-2865.468 -1621.378)" fill="#ff9739"/>
      <path id="Tracé_35" data-name="Tracé 35" d="M2875.078,1625.618c.079.815.573,1.432,1.1,1.377s.9-.758.818-1.574-.573-1.432-1.1-1.378S2875,1624.8,2875.078,1625.618Z" transform="translate(-2860.276 -1620.799)"/>
      <path id="Tracé_36" data-name="Tracé 36" d="M2896.611,1697.473s-10.154,4.861-12.419,6.742-.521,9.052,2.525,8.741,1.409-5.665,1.409-5.665l13.021-4.133Z" transform="translate(-2863.578 -1650.755)" fill="#870b04"/>
      <path id="Tracé_37" data-name="Tracé 37" d="M2850.132,1628.432c.368-1.613,3.212-.932,3.47-.962.172-.02,1.568,1.662.03,4.078a2.35,2.35,0,0,1-1.536.971c-.055.015-.36.132-.4.1C2851.01,1632.012,2849.838,1629.719,2850.132,1628.432Z" transform="translate(-2850.085 -1622.15)" fill="#552e5d"/>
    </g>
    <g id="Groupe_9" data-name="Groupe 9" transform="translate(2522.816 1360.389)">
      <path id="Tracé_38" data-name="Tracé 38" d="M2563.918,1649.213s-12.072-5.916-15.479-6.63-8.52,6.38-5.929,9.025,6.154-2.969,6.154-2.969l13.594,9.181Z" transform="translate(-2530.562 -1599.534)" fill="#552e5d"/>
      <path id="Tracé_39" data-name="Tracé 39" d="M2688.409,1603.878a31.714,31.714,0,0,0,11.07-4.622c5.567-3.7,9.9-4.592,12.792-8.379s8.754-9.579,11.976-9.908c0,0-8.794,7.433-9.738,10.619s-12.429,8.253-13.725,9.953-7.87,6.623-7.87,6.623Z" transform="translate(-2590.368 -1574.419)" fill="#552e5d"/>
      <path id="Tracé_40" data-name="Tracé 40" d="M2547.89,1596.211s-2.783,3.575-2.487,6.634,4.457,6.6,6.926,1.711S2547.89,1596.211,2547.89,1596.211Z" transform="translate(-2532.021 -1580.637)" fill="#552e5d"/>
      <path id="Tracé_41" data-name="Tracé 41" d="M2684.706,1642.032l1.1,4.857s6.168-.94,6.352.964-2.617,16.921-2.617,16.921l-7.129,1.307a.9.9,0,0,1-.948-1.236c.587-1.576,1.911-3.874,4.676-4.156l.331-8.226s-6.09,3.039-9.6,1.652c-2.646-1.045-5.871-3.629-9.13-4.942C2668.668,1641.848,2683.61,1637.174,2684.706,1642.032Z" transform="translate(-2581.933 -1598.517)" fill="#552e5d"/>
      <path id="Tracé_42" data-name="Tracé 42" d="M2555.217,1579.3s3.334,20.209,9.973,21.546,57.065-4.079,61.452-1.438,12.063,9.513,13.159,14.371l1.1,4.857s6.168-.941,6.352.964-2.617,16.92-2.617,16.92l-7.13,1.307a.9.9,0,0,1-.947-1.236c.587-1.574,1.91-3.873,4.677-4.156l.329-8.226s-6.09,3.04-9.6,1.652-8.042-5.491-12.323-5.726-42.676,15.638-49.806,15.695-17.656-6.525-20.941-9.413-6.346-37.092-9.241-38.543-9.022.088-12.256-1.166c-2.315-.9-2.545-4.307-2.545-4.307s-2.155-2.869-1.716-4.794,3.5-1.3,3.5-1.3,9.173-.936,10.728-2.976,3.235-4.091,7.95-3.229S2554.727,1574.25,2555.217,1579.3Z" transform="translate(-2522.921 -1569.906)" fill="#f15a24"/>
      <path id="Tracé_43" data-name="Tracé 43" d="M2574.308,1611.529l-18.368,6.308.622,2.891,18.429-6.85Z" transform="translate(-2536.329 -1586.886)" fill="red"/>
      <path id="Tracé_44" data-name="Tracé 44" d="M2526.164,1590.452c.04,2.779,2.011,3.156,4.623,2.96a18.407,18.407,0,0,1,6.088.7c.322.076.426-.445.1-.522C2530.831,1592.134,2526.4,1595.055,2526.164,1590.452Z" transform="translate(-2524.182 -1578.288)" fill="#552e5d"/>
      <path id="Tracé_45" data-name="Tracé 45" d="M2571.128,1578.137a13.4,13.4,0,0,1,4.842,1.52c2.125,1.261-1.417,13.172-1.974,13.229S2571.128,1578.137,2571.128,1578.137Z" transform="translate(-2542.525 -1573.264)" fill="#552e5d"/>
      <path id="Tracé_46" data-name="Tracé 46" d="M2573.606,1603.144a4.68,4.68,0,0,1-5.1-4.851c-.13-5.224,5.022-11.13,4.774-13.686s-3.222-6.484-3.222-6.484a9.029,9.029,0,0,1,5.318,1.337c2.48,1.628,2.614,3.326,3.674,4.259s3.006,1.3,4.042,4.892S2577.519,1601.536,2573.606,1603.144Z" transform="translate(-2541.453 -1573.25)" fill="url(#linear-gradient-3)"/>
      <path id="Tracé_47" data-name="Tracé 47" d="M2572.618,1584.837c.02-1.932-1.937-5.211-2.832-6.7,1.438,1.619,3.423,4.46,3.6,6.707-.094,3.533-5.047,8.772-4.719,14.047.1,2.214,1.6,4.038,4.669,4.267a4.608,4.608,0,0,1-5.426-4.175C2567.18,1593.409,2572.341,1587.708,2572.618,1584.837Z" transform="translate(-2541.183 -1573.264)" fill="#ff9739"/>
      <path id="Tracé_48" data-name="Tracé 48" d="M2552.656,1578.327c.093.973.684,1.709,1.317,1.645s1.07-.906.976-1.879-.683-1.71-1.317-1.646S2552.562,1577.353,2552.656,1578.327Z" transform="translate(-2534.984 -1572.573)"/>
      <path id="Tracé_49" data-name="Tracé 49" d="M2581.448,1661.661s-12.124,5.8-14.827,8.05-.622,10.808,3.014,10.437,1.682-6.764,1.682-6.764l15.546-4.933Z" transform="translate(-2540.183 -1607.337)" fill="#f15a24"/>
      <path id="Tracé_50" data-name="Tracé 50" d="M2522.872,1581.686c.44-1.925,3.835-1.112,4.142-1.148.207-.024,1.873,1.985.037,4.869a2.8,2.8,0,0,1-1.834,1.159c-.066.018-.429.157-.474.118C2523.92,1585.962,2522.521,1583.223,2522.872,1581.686Z" transform="translate(-2522.817 -1574.186)" fill="#552e5d"/>
    </g>
    <g id="Groupe_15" data-name="Groupe 15" transform="translate(2898.695 1056.306)">
      <path id="Tracé_51" data-name="Tracé 51" d="M3303.477,1351.777c71.758,6.3,133.361-29.774,137.594-80.578a69.834,69.834,0,0,0-7.248-36.745c18.968-4.352,32.9-16.419,34.178-31.734,1.744-20.929-20.806-40-50.366-42.6-21.991-1.931-41.667,5.8-51.019,18.5a178.4,178.4,0,0,0-47.809-10.83c-71.758-6.3-133.36,29.774-137.593,80.578S3231.72,1345.474,3303.477,1351.777Z" transform="translate(-3167.187 -1098.537)" fill="url(#linear-gradient-4)"/>
      <g id="Groupe_13" data-name="Groupe 13">
        <path id="Tracé_52" data-name="Tracé 52" d="M3298,1183.018s-4.529,6-4.782,17.078c-.144,6.312,6.235,36.921,12.878,66.325,5.021,22.225,12.642,33.436,13.447,33.846,1.869.955,9.588-1.482,9.588-1.482l-11.775-52.857-13.691-45.191a42.433,42.433,0,0,1-.224-17.465c.619-2.634,1.851-3.826,3.06-6.275h0Z" transform="translate(-3212.972 -1105.541)" fill="#241145"/>
        <path id="Tracé_53" data-name="Tracé 53" d="M3213.932,1339.466c-2.979,2.272-2.884,3.708-4.718,4.23-2.687.764-7.635,1.236-11.826,5.672s-4.713,5.449-.232,9.912a24.172,24.172,0,0,1,3.576,4.292,3.036,3.036,0,0,0,3.408,1.379c11.752-3.322,1.521-6.475,14.923-15.05.7-.445,1.487-.941,2.36-1.478A36.626,36.626,0,0,0,3213.932,1339.466Z" transform="translate(-3172.502 -1171.818)" fill="#fd5e5a"/>
        <g id="Groupe_10" data-name="Groupe 10" transform="translate(0 173.577)">
          <path id="Tracé_54" data-name="Tracé 54" d="M3184.159,1374.3c3.117,5.282,1.032,12.434-4.658,15.974s-12.831,2.127-15.948-3.156-1.032-12.435,4.658-15.974S3181.041,1369.013,3184.159,1374.3Z" transform="translate(-3159.486 -1357.52)" fill="#400519"/>
          <path id="Tracé_55" data-name="Tracé 55" d="M3186.4,1350.51l-28.716,17.863.844,1.429a21.554,21.554,0,0,0,30.045,7.571l10.007-6.225a7.215,7.215,0,0,0,2.333-9.758l-5.008-8.485A6.818,6.818,0,0,0,3186.4,1350.51Zm10.024,11.147a5.026,5.026,0,0,1-1.625,6.8l-2.165,1.347a4.751,4.751,0,0,1-6.622-1.668l-3.958-6.709a5.024,5.024,0,0,1,1.625-6.8l2.165-1.347a4.75,4.75,0,0,1,6.622,1.668Z" transform="translate(-3157.681 -1349.48)" fill="url(#linear-gradient-5)"/>
        </g>
        <path id="Tracé_56" data-name="Tracé 56" d="M3533.212,1451.449l13.9-11.108,9.13,28.339-11.514-14.026-9.758,3.006Z" transform="translate(-3310.875 -1212.969)" fill="#241145"/>
        <path id="Tracé_57" data-name="Tracé 57" d="M3340.724,1363.838l-43.143,19.629-51.961,58.964-25.941,86.2,12.249,4.886,36.09-84.5,76.924-76.334Z" transform="translate(-3182.973 -1181.76)" fill="#241145"/>
        <path id="Tracé_58" data-name="Tracé 58" d="M3361.531,1381.888l27.611,90.75,85.066-35.787-10.791-14.047-56.406,19.014-4.2-63.035Z" transform="translate(-3240.84 -1187.857)" fill="#35115e"/>
        <path id="Tracé_59" data-name="Tracé 59" d="M3202.888,1642.179l-.821,2.527-26.8,2.527L3210,1656.78l2.753-11.286Z" transform="translate(-3164.855 -1295.306)" fill="#241145"/>
        <path id="Tracé_60" data-name="Tracé 60" d="M3245.434,1250.72c13.737-25.292,15.812-56.775,24.066-64.275a6.053,6.053,0,0,1,1.713-1.026c3.145-.9,3.432,26.674,3.486,30.437-1.994,10.8-.592,44.813-40.013,73.559-1.669-2.3-9.851-11.827-11.335-14.246C3229.347,1269.073,3237.719,1264.924,3245.434,1250.72Z" transform="translate(-3184.47 -1108.967)" fill="#fb8603"/>
        <path id="Tracé_61" data-name="Tracé 61" d="M3320.742,1261.6c-10.317-39.7-26.755-73.025-19.689-80.3,0,0,11.237-6.867,16.2-8.39,7.4-2.271,19.911-1.459,31.805,18.769,5.41,9.2,2.648,32.337,6.69,52.227s21.706,34.391,25.129,49.347c-21.1,5.682-30.41,8.328-50.883,13.842C3327.874,1300.247,3323.986,1274.078,3320.742,1261.6Z" transform="translate(-3215.47 -1103.512)" fill="#ffba00"/>
        <path id="Tracé_62" data-name="Tracé 62" d="M3349.446,1254.936c17.269-23.354,10.555-47.686,5.856-55.81s-4.919-8.909-12.818-.8c-6.091,6.253-10.5,27.661-20.169,45.317,2.683,8.278,5.4,17.146,7.8,26.357.276,1.062.557,2.223.841,3.464C3338.277,1267.423,3344.913,1261.065,3349.446,1254.936Z" transform="translate(-3224.841 -1111.916)" fill="#ff8139" opacity="0.19"/>
        <g id="Groupe_11" data-name="Groupe 11" transform="translate(80.246 75.122)">
          <path id="Tracé_63" data-name="Tracé 63" d="M3311.735,1268.946c-6.643-29.4-8.677-61.043-8.534-67.354.2-8.638-2.562-15.391-1.872-18.4l-3.327,2.355s-4.528,6-4.781,17.078c-.144,6.312,6.235,36.922,12.878,66.325,5.021,22.225,12.642,33.436,13.447,33.846.905.463,3.183.13,5.291-.337C3323.1,1300.4,3316.331,1289.29,3311.735,1268.946Z" transform="translate(-3293.218 -1183.188)" fill="url(#linear-gradient-6)"/>
        </g>
        <path id="Tracé_64" data-name="Tracé 64" d="M3322.173,1161.319s-16.945,6.219-18.061,8.631,2.51,12.433,2.51,12.433l15.266-8.36Z" transform="translate(-3217.329 -1099.145)" fill="#241145"/>
        <path id="Tracé_65" data-name="Tracé 65" d="M3307.456,1144.591l1.714,19.982c.351,4.106,3.07,7.129,6.227,6.966a23.659,23.659,0,0,0,2.48-.255,8.691,8.691,0,0,0,7.367-9.963c-1.061-7-3.506-18.639-3.427-24.776C3321.945,1126.5,3307.483,1139.467,3307.456,1144.591Z" transform="translate(-3218.78 -1087.525)" fill="#fc7575"/>
        <path id="Tracé_66" data-name="Tracé 66" d="M3321.817,1136.545c.128-10.043-14.333,2.922-14.361,8.045l1,11.681a33.691,33.691,0,0,0,7.393-2.144c3.858-1.7,4.132-6.917,6.413-8.377a2.482,2.482,0,0,0,.356-.284A62.23,62.23,0,0,1,3321.817,1136.545Z" transform="translate(-3218.78 -1087.525)" fill="#fd5e5a"/>
        <path id="Tracé_67" data-name="Tracé 67" d="M3275.765,1096.662c4.155,2.853,12.3,6.993,15.357,2.871-2.731,4.72-11.746,1.551-16.442-.831Z" transform="translate(-3205.409 -1072.769)" fill="#0f1d5b"/>
        <path id="Tracé_68" data-name="Tracé 68" d="M3293.721,1116.812s-5.109-4.117-4.263-.529,3.375,11.3,6.088,8.279S3293.721,1116.812,3293.721,1116.812Z" transform="translate(-3211.4 -1080.174)" fill="#fd5e5a"/>
        <path id="Tracé_69" data-name="Tracé 69" d="M3306.431,1088.889c-.7.736-8.3.108-10.84,8.532s.222,27.753,5.037,32.961,10.369,1.982,14.705-6.726,12.74-19.888,6.656-28.236C3318.755,1090.984,3306.431,1088.889,3306.431,1088.889Z" transform="translate(-3213.548 -1069.598)" fill="#fc7575"/>
        <path id="Tracé_70" data-name="Tracé 70" d="M3298.876,1141.4s2.224,5.646-.007,8.028,6.4,3.3,9.3,2.484,6.6-1.651,7.77-2.565c1.941-1.515,2.073-20.981.41-16.429s-5.581,12.543-7.207,12.534-3.71.43-5.373.42S3298.876,1141.4,3298.876,1141.4Z" transform="translate(-3215.129 -1087.279)" fill="#0f1d5b"/>
        <path id="Tracé_71" data-name="Tracé 71" d="M3296.934,1083.909c-.716,4.437-4.866,10.51-14.656,3.793s-7.806-15.142-7.806-15.142,4.944,6.985,8,5.522.883-9.765.883-9.765,11.076-.826,13.151-.814,4.15,6.98,4.15,6.98-1.4-3.117,9.535-4.091,4.437,16.526,5.651,22.6-6.276,16.77-6.3,20.323a9.78,9.78,0,0,0,1.769,5.783s-2.356.578-4.4-5.65,1.8-15.377,1.826-20.114c.031-5.756-2.476-7.836-4.7-9.626C3302.375,1082.378,3297.65,1079.472,3296.934,1083.909Z" transform="translate(-3205.257 -1060.874)" fill="#0f1d5b"/>
        <path id="Tracé_72" data-name="Tracé 72" d="M3330.318,1117.743s-4.041,7.868-1.208,7.269,8.435-4.632,7.234-10.263S3330.318,1117.743,3330.318,1117.743Z" transform="translate(-3227.203 -1079.368)" fill="#fc7575"/>
        <path id="Tracé_73" data-name="Tracé 73" d="M3331.076,1119.878s2.481-2.5,3.3-1.615c1.909,2.065-4.424,7.9-4.415,6.332A21.107,21.107,0,0,1,3331.076,1119.878Z" transform="translate(-3227.96 -1081.503)" fill="#fd5e5a"/>
        <path id="Tracé_74" data-name="Tracé 74" d="M3313.017,1116.418c-.006,1.206-.68,2.18-1.5,2.175s-1.488-.986-1.481-2.193.681-2.18,1.5-2.175S3313.023,1115.212,3313.017,1116.418Z" transform="translate(-3219.831 -1079.934)" fill="#18287d"/>
        <path id="Tracé_75" data-name="Tracé 75" d="M3298.322,1116.335c-.006,1.206-.68,2.18-1.5,2.176s-1.487-.986-1.481-2.193.681-2.18,1.5-2.175S3298.329,1115.129,3298.322,1116.335Z" transform="translate(-3213.836 -1079.9)" fill="#18287d"/>
        <path id="Tracé_76" data-name="Tracé 76" d="M3312.3,1105.182l-.463,1.392a3.386,3.386,0,0,1,3.711,1.182S3314.117,1104.868,3312.3,1105.182Z" transform="translate(-3220.568 -1076.235)" fill="#18287d"/>
        <path id="Tracé_77" data-name="Tracé 77" d="M3295.376,1108.794a6.4,6.4,0,0,1,2.7-1.1l-.582-1.06S3295.383,1107.587,3295.376,1108.794Z" transform="translate(-3213.852 -1076.837)" fill="#18287d"/>
        <path id="Tracé_78" data-name="Tracé 78" d="M3291.642,1111.122l-4.67-.026a2.954,2.954,0,0,0-2.737,3.13l-.021,3.751a2.958,2.958,0,0,0,2.7,3.162l4.669.026a2.957,2.957,0,0,0,2.738-3.131l.02-3.751A2.957,2.957,0,0,0,3291.642,1111.122Zm1.428,6.905a1.594,1.594,0,0,1-1.474,1.686l-4.669-.026a1.594,1.594,0,0,1-1.456-1.7l.02-3.75a1.592,1.592,0,0,1,1.473-1.686l4.669.027a1.6,1.6,0,0,1,1.456,1.7Z" transform="translate(-3209.299 -1078.657)" fill="#0f1d5b"/>
        <path id="Tracé_79" data-name="Tracé 79" d="M3314.841,1111.049l-5.439-.03a3.194,3.194,0,0,0-3.187,3.2l-.021,3.841a3.2,3.2,0,0,0,3.152,3.24l5.438.03a3.194,3.194,0,0,0,3.186-3.2l.021-3.841A3.2,3.2,0,0,0,3314.841,1111.049Zm1.668,7.074a1.722,1.722,0,0,1-1.716,1.725l-5.438-.031a1.723,1.723,0,0,1-1.7-1.744l.02-3.842a1.723,1.723,0,0,1,1.716-1.726l5.438.031a1.723,1.723,0,0,1,1.7,1.745Z" transform="translate(-3218.266 -1078.626)" fill="#0f1d5b"/>
        <path id="Tracé_80" data-name="Tracé 80" d="M3301.311,1128.037c0-.077-1.967-6.2.6-15.755a.366.366,0,1,1,.706.2c-.022.085-2.233,8.466-.774,14.685,2.149-.335,2.948-.91,3.078-.272S3304.1,1127.316,3301.311,1128.037Z" transform="translate(-3215.98 -1079.03)" fill="#18287d"/>
        <rect id="Rectangle_30" data-name="Rectangle 30" width="3.775" height="1.363" transform="translate(84.51 35.769) rotate(0.325)" fill="#0f1d5b"/>
        <path id="Tracé_81" data-name="Tracé 81" d="M3304.659,1056.306c3.279.149,6.609,1.616,8.13,4.6a12.291,12.291,0,0,1,.983,6.856l-.384,2.214-.72-.125a21.731,21.731,0,0,0,.01-4.275c-.63-4.77-3.774-6.9-8.032-6.609Z" transform="translate(-3217.633 -1056.306)" fill="#0f1d5b"/>
        <path id="Tracé_82" data-name="Tracé 82" d="M3335.954,1171.6l10.614,72.1,21.276,52.383s26.669-5.8,31.924-10.693c0,0,9.886-24.266,2.636-49.629-5.573-19.5-31.6-30.4-33.2-36.006C3365.515,1186.848,3362.945,1170.3,3335.954,1171.6Z" transform="translate(-3230.406 -1103.31)" fill="url(#linear-gradient-6)"/>
        <path id="Tracé_83" data-name="Tracé 83" d="M3351.356,1198.327c-2.557,2.625-4.817,7.919-7.294,14.486l5.813,39.49,3.485,8.576a72.363,72.363,0,0,0,4.958-5.944c17.269-23.354,10.555-47.686,5.857-55.81S3359.255,1190.217,3351.356,1198.327Z" transform="translate(-3233.713 -1111.916)" fill="#690c05"/>
        <g id="Groupe_12" data-name="Groupe 12" transform="translate(87.638 50.139)">
          <path id="Tracé_84" data-name="Tracé 84" d="M3305.99,1144.5a.3.3,0,0,1,.01-.6c.054,0,5.343.063,6.708-2.739a.294.294,0,1,1,.524.269C3312.085,1143.781,3308.489,1144.527,3305.99,1144.5Z" transform="translate(-3305.704 -1140.992)" fill="#18287d"/>
        </g>
        <path id="Tracé_85" data-name="Tracé 85" d="M3222.492,1350.43c-5.264,6.15-12.222,1.123-15.9,2.559s-8.939,9.4-5.464,11.008,6.917,12.1,11.179,10.439,12.547-11.039,16.942-15.94a20.711,20.711,0,0,1,2.341-2.052,108.785,108.785,0,0,0-6.81-8.579C3223.873,1348.857,3223.094,1349.728,3222.492,1350.43Z" transform="translate(-3174.939 -1175.244)" fill="#fc7575"/>
        <path id="Tracé_86" data-name="Tracé 86" d="M3235.349,1277.886l9.643,16.5s47.8-26.654,65.065-50.009,16.775-50.77,12.076-58.892-11.139-5.826-19.038,2.284-12.968,41.706-30.353,59.555A235.723,235.723,0,0,1,3235.349,1277.886Z" transform="translate(-3189.365 -1106.937)" fill="#ffda88"/>
        <path id="Tracé_87" data-name="Tracé 87" d="M3331.914,1161.319s5.734,1.117,6.565,6.711c.682,4.6-3.075,18.325-3.075,18.325a77.974,77.974,0,0,0-6.333-11.5C3324.976,1168.681,3331.914,1161.319,3331.914,1161.319Z" transform="translate(-3227.07 -1099.145)" fill="#241145"/>
      </g>
      <g id="Groupe_14" data-name="Groupe 14" transform="translate(135.283 64.214)">
        <path id="Tracé_88" data-name="Tracé 88" d="M3406.861,1202.812a.485.485,0,0,1-.078-.007.45.45,0,0,1-.355-.523c1.953-11.283-3.589-20.647-8.582-26.517a55.6,55.6,0,0,0-11.46-10.165.459.459,0,0,1-.147-.619.433.433,0,0,1,.6-.152,56.641,56.641,0,0,1,11.666,10.344c7.341,8.629,10.379,18.058,8.785,27.266A.443.443,0,0,1,3406.861,1202.812Z" transform="translate(-3386.175 -1164.764)" fill="#35385f"/>
      </g>
    </g>
    <path id="Tracé_89" data-name="Tracé 89" d="M3205.733,1398.568c2.958,3.194,7.5,6.741,11.625,7.935a17.861,17.861,0,0,0,6.92.454c5.76-.59,6.969-2.479,7.383-1.445.191.475-.384.772-.288.67-5.351,2.012-10.845,1.938-14.159.807C3213.064,1405.622,3208.61,1401.9,3205.733,1398.568Z" transform="translate(-278.588 -139.622)" fill="#400519"/>
  </g>
</svg>
