<svg xmlns="http://www.w3.org/2000/svg" xmlns:xlink="http://www.w3.org/1999/xlink" width="683.6" height="422.3" viewBox="0 0 683.6 422.3">
  <defs>
    <linearGradient id="linear-gradient" x1="3.417" y1="1.165" x2="3.457" y2="-0.004" gradientUnits="objectBoundingBox">
      <stop offset="0" stop-color="#82acf5"/>
      <stop offset="1" stop-color="#f8bdec"/>
    </linearGradient>
    <linearGradient id="linear-gradient-2" x1="8.212" y1="0.501" x2="9.233" y2="0.501" gradientUnits="objectBoundingBox">
      <stop offset="0" stop-color="#7f0300"/>
      <stop offset="1" stop-color="#93170a"/>
    </linearGradient>
    <linearGradient id="linear-gradient-3" x1="8.61" y1="0.5" x2="9.65" y2="0.5" xlink:href="#linear-gradient-2"/>
  </defs>
  <g id="Groupe_4475" data-name="Groupe 4475" transform="translate(-1077 -1429)">
    <g id="Groupe_34" data-name="Groupe 34" transform="translate(1077 1429)">
      <g id="Groupe_18" data-name="Groupe 18">
        <g id="Groupe_17" data-name="Groupe 17">
          <path id="Tracé_90" data-name="Tracé 90" d="M0,165.6a52.53,52.53,0,0,1,5-2.2c14.3-4.4,44.4-3,55.6,1.8,6.7,2.9,22.2,10.4,35.4,17-4.9.6-16.6,3.8-20.3-.1,0,0-8,19.5-4.8,27.8,3.3,8.4,39.3,12,32.3,14s-34.7-4.1-34.7-4.1-2.4,20,5.2,23.9,47.4-2,43.7,2c-3.8,3.9-40.3,8-44.5,3.6,0,0-.8,24,12.5,26.6,13.3,2.5,49.6-17.9,46.5-12.3s-36.8,21.8-47.1,15.7c0,0,9.2,22.9,17.6,22.9s29.1-29.5,33.3-25.2-18.2,25.4-30.6,28c0,0,4.9,13.1,20.9,9.2s13.3-29.6,18.2-27.4.3,30.5-16,30.5c0,0,26.6,6.4,32.8-8.4a40.4,40.4,0,0,0,3-10.4c2.4,11.7,3.8,25.8,4.5,40h3c-1-17.3-3.1-34.8-7.2-48.8a25.8,25.8,0,0,0,9.7,3c.2,16.7.4,32.3.5,45.9h3.2c-.3-12-.6-27-.9-45.8a12.217,12.217,0,0,0,2.6-.3c1,16.1,1.6,31.6,2,46h4.4c-.6-14.9-1.5-30.8-2.6-47a14.8,14.8,0,0,0,7.7-5.5c-.1,18.7-.1,36.6-.1,52.5h4.8c-.1-18.5-.2-39.9,0-62a57.152,57.152,0,0,0,2.3-21.1c7.5-2.1,16.7-7.7,20.3-9.9a699.306,699.306,0,0,0-17.6,93h3.3a694.185,694.185,0,0,1,17-90.2,21.777,21.777,0,0,0,4.5,7.9c4,4.1,11.7-9.9,11.7-16.9s-8.3-.3-8.3-4.2,1.2-2,11.8-2S255,210.7,255,210.7s-16,2-16-1.1,12.7-1.4,20.9-3.6c8.1-2.2,12.7-20.4,12.7-20.4s-23.3,7-23.3,3.9,18-6,21.4-9.5,4.6-19.3,4.6-19.3-15.5,14.8-17.9,14.8,16.4-16.4,14.6-18.2-2.4-9.5-2.4-9.5c-3.4,3.5-8.9-1.1-12.5,2.6-3.5,3.6-9.9,31.4-12.5,34.1s7.2-22.2,2.7-26.8-16.6,7.1-19,9.5c-2.4,2.5,5.7,29.5,2.4,32.8-3.3,3.4-2.6-23.7-5.2-26.4s-9.5,4.2-11.5,12.2,15.7,21.6,10.6,26.8-9.8-14.7-14.2-19.3c-3.3-3.4-10.2,3.3-13.5,9.2.8-24.1,2-45.6,3.8-60.9,3.6,10.1,22.3,22.1,35.5,8.3a10.134,10.134,0,0,0,10.6,1.7c15.6-5.8,17.1-9.8,13.8-11.4s-33.8-19.3-30.1-21.2,31.1,20.2,36.4,17.6c5.2-2.7,13.3-13.6,12.3-14.1-.9-.5-38.9-14.6-34.6-16.7,4.2-2.2,33.5,18.7,39.1,9.5,5.5-9.2,5.8-14.8,5.2-17-.5-2.2-33.3-4.7-32.2-7.2,1.1-2.4,32,2.6,34.4-2.7s3-12.9.3-14.2-18.6,3.6-17.4,1,16.9-3.5,16.3-6-2.3-16.4-1.2-18.9c0,0-11.1-7.6-13.8-11.3-2.7-3.8-5.6-2.4-6.5-.4s-8.2,33-9,29.5,8.4-31.1,6.5-32-11.6-8.6-14.6-4.1-4.1,45.5-7.5,45.9c-3.4.3,4.8-47.6,4.8-47.6s-11.4.7-15.5,5.9.2,53.4-3.3,53.1-1.8-50.6-1.8-50.6-14.2,6.8-15,13.8c-.9,7,8.9,38.6,5.8,40.2s-6.4-31-6.4-31-12.3,5.7-13,15.2c-.7,9.6,11.2,21.5,9.9,24.5-1.4,3-12-9.8-13.8-17.6S180.6,116,192,121.5a18.985,18.985,0,0,0,8,2.3c-5.7,15-7.4,74.7-7.8,90.9-2.2-2.1-3.6-3.7-3.6-3.7-3,1.2-4.8,5.1-5.6,10.2-1.5-1.9-2.5-3-2.5-3s-1.2,4.2-3.1,9.9c-1.9-15.2-1.7-11.1-1.7-14.4a9.817,9.817,0,0,0-.1-4.6c-1.5-96.9-1.1-90.7-1.6-91.3.2-6.7,2.4-65.5,10.3-81.3C192.4,19.6,197.8,0,197.8,0s-7.2,11.6-13.6,18.2S172.3,26,172.3,31.9s8.4,24.9,3,22.1-4.1-14.3-6-14.3-9.8,26.3-9.8,27.7,13.6,12.3,10,15.9c-3.5,3.6-9.2-14-11.4-11.7-2.2,2.2-2.7,21.5-2.7,26.6,0,5,10.4,2.4,5.7,7.3s-5.7,24.4-5.7,33.4c-11.3-26.6-21.4-33.5-38-43.5a16.371,16.371,0,0,0,12-4.9c7.5-7.7,10.9-36.3-6.3-44.1a15.264,15.264,0,0,0-2.8-12.5c-11-14.3-14.8-13.8-14.8-9.4s-2.4,46.8-5.5,43.6c-3-3.1,4.3-44.2,0-48.6S83.5,11.7,83.5,13s3.5,49.9,0,46.3,2-46.1-7.7-47.6c-9.8-1.5-14.4,1-16.1,2.7-1.6,1.7,9.4,38.9,6.9,38.9-2.4,0-10.6-36.4-15.9-36.4S38.9,20,38.9,23.6s10.4,18.7,7.7,18.7C44,42.3,37,25.5,35.2,27.4s-12.6,10.7-15,10.7c0,0-1.8,15.9-3.9,20.8s.2,7.3,2.2,7.3,30.4-7.4,27.9-4.8C44,63.8,17.7,67.5,17.7,70s-2.4,17,2.4,18c4.9,1,39-18.2,40.7-14.7,1.6,3.6-41.1,18.5-41.1,18.5s5.1,12.2,11,14c5.9,1.9,43.8-26.8,45-22.9,1.2,4-40.9,27.3-40.9,27.3s11.2,12.2,17.3,9.6c6.1-2.5,28.2-29,30.7-26.4s-23,22.4-23,22.4,9.6,10.7,17.7,6.7S90.7,99.4,93.8,99.4c3,0-3.3,18.1-8.9,24-5.7,5.8,32.5.8,32.5-14.5,0-6.5-1.1-10.1-2.3-12.1,6.8,4.2,14.1,8.1,20.5,14.9,16.5,17.1,27.1,50.7,33.9,89.7-2.4-1.7-4.2-1.5-4.2.6,0,3.6-8.5,41.5-12.7,37.2s11.9-38.9,6.2-44.7c-3.4-3.5-11.2-8-17.4-10.3h0c-2.7-2.7-10.8-5.6-8.3-13.6s-10.6-15.1-10.6-15.1-8.1,12.2-15.5,12.2c-7.3,0,9.4-8,9.4-12.6s-25.2-13-25.2-13,7.1,15.3,7,21.6a96.459,96.459,0,0,0-9-5.8c-2.4-6.9-3.6-13.6-7.4-15.4-4.5-2.1-8.4-5.5-11.1-2.5,4.1,9.2-.6,20.5-4.7,19-2-5.1-8.5-26.1-9.8-26.1-1.5,0-4.3,2-9,3.1,2.6,5.6,5.9,14.4.9,14.4S37.9,141.7,35,136.1c-10.9-1.9-9.8.1-19.3,9.8A130.027,130.027,0,0,0,0,165.6ZM111.4,69c-1-1,6-8,9.8-16.5a13.219,13.219,0,0,0,.2,2.7C122.4,61,113.2,70.8,111.4,69Zm112.9,60.9c1.2-.6,3.3,8.9,7.9,15.7a10.229,10.229,0,0,0-2.1-.8C225.3,143.7,222.2,131,224.3,129.9Zm-28,88.8c.1-2.5.1-5,.2-7.4,4.6,5.4,17.2,12.5,14.2,15.6C208.6,229,201.8,223.7,196.3,218.7Zm-15.5,44.1c1.9-2.4,4.7-5.3,7.2-8.9,1.4,1.8,2.3,1.9,3.1,2v3.2c-3.1,4.3-6.8,9.2-9.7,9.6C181.1,266.8,181,264.8,180.8,262.8ZM173,200.3a282.661,282.661,0,0,0-14.2-53.2c2.3,1.4,5.3.9,8.1-2,4.8-4.9,2.8-22.8,5.9-26.3C172.5,126.2,172.7,159.6,173,200.3Zm-.3,22.6c.6,4.5.5,1.8.6,15.9-3.8,10.3-8.2,20.2-11.1,19C158.4,256,167.8,237.2,172.7,222.9ZM128,190.7c1.6-.5,3.3-1,4.8-1.5.8,11,4.5,34.5-2.6,34.5C123.9,223.6,128.1,202.5,128,190.7Zm-29.1-7.1c2,1,3.9,1.9,5.6,2.8,2.9,6.6,8.4,19.8,4.1,18.8C103.8,204,101.7,188.5,98.9,183.6Z" fill="url(#linear-gradient)"/>
        </g>
        <path id="Tracé_91" data-name="Tracé 91" d="M147.3,387.8h73.1c38.2-11.6,39.7-36.8,3.1-49.3H144.1C107.6,351,109.1,376.3,147.3,387.8Z" fill="#99beff"/>
      </g>
      <ellipse id="Ellipse_2" data-name="Ellipse 2" cx="308.9" cy="23.5" rx="308.9" ry="23.5" transform="translate(65.8 375.3)" fill="#838bc5"/>
      <g id="Groupe_28" data-name="Groupe 28">
        <path id="Tracé_92" data-name="Tracé 92" d="M345.5,278.6l17.2,21.1-88.2-1.6,11.1-28.5h59.9Z" fill="#07506f"/>
        <path id="Tracé_93" data-name="Tracé 93" d="M394.3,136.5s15.8,7.4,21.6,19.2c3.3,6.8,16.3,27.2,26.7,43.3a114.694,114.694,0,0,0-25,21.9,98.557,98.557,0,0,1-13.3-25.6Z" fill="#fb8603"/>
        <path id="Tracé_94" data-name="Tracé 94" d="M269.8,378.2c23.9-9,26.7-22.3,36.2-12.8,11.2,11.2,14,12.1,35.4,2.8l4,21.9a243.368,243.368,0,0,1-24.6-.8c-36.2-3.9-56.4.1-64.4.1C248.6,389.4,245.9,387.3,269.8,378.2Z" fill="#fd5e5a"/>
        <path id="Tracé_95" data-name="Tracé 95" d="M245.6,399c23.9-9,26.7-22.3,36.2-12.8,11.2,11.2,14,12.1,35.4,2.8l4,21.9a243.368,243.368,0,0,1-24.6-.8c-36.2-3.9-56.4.1-64.4.1C224.4,410.2,221.7,408,245.6,399Z" fill="#fc7575"/>
        <path id="Tracé_96" data-name="Tracé 96" d="M390.2,351.4c30.3.6,61.9,6.3,61.9,6.3S423.5,355.7,390.2,351.4Z" fill="#07506f"/>
        <path id="Tracé_97" data-name="Tracé 97" d="M340.5,360.9c8.8-7.9,29-9.9,49.8-9.5,33.3,4.3,61.9,6.3,61.9,6.3s-31.6-5.7-61.9-6.3c-45.6-5.9-100.1-16.2-102.7-31.8-4.3-27.1,65.2-26.5,65.2-26.5s121,31.1,134.8,53.7-5.7,30.5-8.6,33.1c-2.4,2.1-84.9,10-133.5,10.4l-5.3-28.9A1.069,1.069,0,0,1,340.5,360.9Z" fill="#07506f"/>
        <path id="Tracé_98" data-name="Tracé 98" d="M317.3,178.6c0-39.6,26.4-56.9,26.4-56.9s17-5.6,33-.1c15.9,5.6,39.1,41.7,34.8,66s-55.3,88.6-58.8,91.7c-25.7-2.2-56.8-.5-82.3-2.9C282.5,251.3,317.3,205.3,317.3,178.6Z" fill="#ffda88"/>
        <path id="Tracé_99" data-name="Tracé 99" d="M317.3,178.6c0-39.6,26.4-56.9,26.4-56.9s17-5.6,33-.1c15.9,5.6,39.1,41.7,34.8,66s-55.3,88.6-58.8,91.7c-25.7-2.2-56.8-.5-82.3-2.9C282.5,251.3,317.3,205.3,317.3,178.6Z" fill="#ffda88"/>
        <path id="Tracé_100" data-name="Tracé 100" d="M328.8,137.8a67.02,67.02,0,0,1,7.7-9.8c13.4,9.1,35.9,21.4,71.4,32.9a73.032,73.032,0,0,1,3.4,12.3C369.9,161.3,344,147.8,328.8,137.8Z" fill="#fff7cf"/>
        <path id="Tracé_101" data-name="Tracé 101" d="M326.3,142c15.7,10.3,42.6,24.1,85.7,36.4a39.794,39.794,0,0,1-.4,9.2,31.5,31.5,0,0,1-.9,3.6c-47.9-14-75-29.9-88.6-40A70.991,70.991,0,0,1,326.3,142Z" fill="#fff7cf"/>
        <path id="Tracé_102" data-name="Tracé 102" d="M317.6,170.9a79.4,79.4,0,0,1,2.8-14.8c14.3,10.4,41.4,25.9,88.6,39.6a104.611,104.611,0,0,1-5.2,10.9C361,194.7,333.8,181.2,317.6,170.9Z" fill="#fff7cf"/>
        <path id="Tracé_103" data-name="Tracé 103" d="M288.8,244.4c15.3,7.2,39.2,15.6,74.6,21.8-2.5,3.3-4.8,6-6.5,8.2-37.8-1.4-63.2-7.1-78.8-12.3C281.4,256.6,285,250.6,288.8,244.4Z" fill="#fff7cf"/>
        <path id="Tracé_104" data-name="Tracé 104" d="M343.7,121.7a58.644,58.644,0,0,1,10.7-2.1,305.072,305.072,0,0,0,40.5,17.7,92.028,92.028,0,0,1,10.6,17.8c-32-10.8-52.7-22-65.4-30.5A30.9,30.9,0,0,1,343.7,121.7Z" fill="#fff7cf"/>
        <path id="Tracé_105" data-name="Tracé 105" d="M364.5,119.3a41.864,41.864,0,0,1,12.2,2.4c3.6,1.3,7.6,4.1,11.6,8C379.3,126.1,371.4,122.7,364.5,119.3Z" fill="#fff7cf"/>
        <path id="Tracé_106" data-name="Tracé 106" d="M352.9,279.1c-.1.1-.2.2-.3.2-25.7-2.2-56.8-.5-82.3-2.9,1.5-3,3.3-6.4,5.3-10C291,271.7,315.8,277.4,352.9,279.1Z" fill="#fff7cf"/>
        <path id="Tracé_107" data-name="Tracé 107" d="M299.3,226.4c16.7,8.1,41,17.3,75.3,25-2.8,3.8-5.4,7.3-7.9,10.5-35.8-6.1-60-14.7-75.4-21.8C294,235.6,296.7,231,299.3,226.4Z" fill="#fff7cf"/>
        <path id="Tracé_108" data-name="Tracé 108" d="M317.3,178.6v-2.1c16.6,10.2,43.2,23,84.2,34.4-2.3,4-4.8,8.1-7.4,12.3-38.8-11.6-63.5-24.4-78.2-34A46.162,46.162,0,0,0,317.3,178.6Z" fill="#fff7cf"/>
        <path id="Tracé_109" data-name="Tracé 109" d="M309,207.8a113.984,113.984,0,0,0,5.4-13.7c15,9.6,39.3,22,76.9,33.3l-5.4,8.1C349.3,226.7,324.7,216.3,309,207.8Z" fill="#fff7cf"/>
        <path id="Tracé_110" data-name="Tracé 110" d="M301.7,222.1c1.8-3.3,3.6-6.7,5.2-9.9,15.8,8.5,40.1,18.8,76.1,27.5-1.8,2.5-3.6,5-5.3,7.5C343,239.5,318.5,230.3,301.7,222.1Z" fill="#fff7cf"/>
        <path id="Tracé_111" data-name="Tracé 111" d="M385.9,235.5c-6,8.8-12.3,17.3-17.7,24.5-6.8-7.2-50.9-67.7-50.9-81.4a74.831,74.831,0,0,1,7.3-33.2c13.9,15.4,37.4,56.9,47.6,71.7a13.19,13.19,0,0,0-2,1.3,165.3,165.3,0,0,0,14.5,18.3Z" fill="#f9b406" opacity="0.28"/>
        <path id="Tracé_112" data-name="Tracé 112" d="M295.3,282.9c36-8.4,83.7,28.1,124.4,51.2,27.3,15.5,44.7,38.6,45.7,55.6.7,11-6.2,18.6-13.9,20.6-16.1,4.2-124.1-56.6-152.3-63.6-28.3-6.9-30.6-35.7-24.7-48.6C275.5,296,276.3,287.4,295.3,282.9Z" fill="#25a9e0"/>
        <g id="Groupe_19" data-name="Groupe 19">
          <path id="Tracé_113" data-name="Tracé 113" d="M409.3,36.2s18.5,1,21,18.8c2.5,17.9-8.4,36.5-8.2,44.6.3,8.1,10.6,8.7,9.4,4.5,0,0,4.3,7.3-3.8,10.3-8,3-11.8-1.1-11.8-1.1s-2.8,11.6-18.7,8.9c-15.8-2.8-17.7-10.3-17.7-10.3s-25.6,10-29.8-13.4c7,2.6,12.5-2.4,13.6-8.8,1.3-7.2.9-12.3,1.5-19.5.8-10.1,3-24.1,11.8-30.8,7.9-6.1,18.2-9.1,28.5-4.3C406.4,35.9,407.9,35.8,409.3,36.2Z" fill="#54284e"/>
          <path id="Tracé_114" data-name="Tracé 114" d="M355.6,97.5c2.3-.6,4.9-2.8,6.1-7,2.5-12-.2-31.3,8.7-45.5a24.335,24.335,0,0,1,5.6-6.1c.6-.2,13.6-11.4,29.1-3.6-15.7-6.5-27.5,4.8-28,5a22.444,22.444,0,0,0-4.9,5.8c-8.7,14.7-4.9,38.6-8.2,46.8-1.9,5.1-6.6,8.6-12.3,7.6,5.3,19.6,28.6,10.1,28.7,10.1,0,.1.1,2.8,3.9,5.7l1,.7a37.412,37.412,0,0,0,17,5.2,13.952,13.952,0,0,0,13-7,13.019,13.019,0,0,1-7.7,7c-8.7,2.7-24.3-.9-28.5-8.9-5.8,2-12.8,2.8-18.6.9-11.3-3.6-12.1-16.6-12.5-17.8C349.4,96.8,352.3,98.6,355.6,97.5Z" fill="#3f1e3b"/>
        </g>
        <g id="Groupe_21" data-name="Groupe 21">
          <path id="Tracé_115" data-name="Tracé 115" d="M379.2,84.2l-11.5,39.9s9.9,44.5,18.2,41.9,8.1-39.7,8.1-39.7l6.6-24.5Z" fill="#fc7575"/>
          <path id="Tracé_116" data-name="Tracé 116" d="M379.2,84.2l-1.3,4.4c1.6,8.7,9.6,24.6,19,27l3.7-13.7Z" fill="#fd5e5a"/>
          <path id="Tracé_117" data-name="Tracé 117" d="M412.6,38.5s13.5,8.7,12.2,19.6c-1.2,10.9-3.4,14.9-3.5,22.1s-6.3,25.4-18.1,28.2S379.9,90.5,378.8,82c-1.1-8.6,0-20.4,5-32.6C388.7,37.1,404.9,34.9,412.6,38.5Z" fill="#fc7575"/>
          <path id="Tracé_118" data-name="Tracé 118" d="M409.2,87c-1.4-2.5-1-7.2-.2-10.1.1,2.9.1,7.9,1.2,9.9l.2.4c-.2.1-2.4,1.8-4.8,1.2A7.454,7.454,0,0,0,409.2,87Z" fill="#452140"/>
          <g id="Groupe_20" data-name="Groupe 20">
            <path id="Tracé_119" data-name="Tracé 119" d="M397.2,89.9c5,3.6,13.1,5.3,13.1,5.3a13.412,13.412,0,0,1-2.1,2A40.669,40.669,0,0,1,397.7,93,21.91,21.91,0,0,1,397.2,89.9Z" fill="#fff"/>
            <path id="Tracé_120" data-name="Tracé 120" d="M397.8,93.1a40.669,40.669,0,0,0,10.5,4.2C403.4,101.1,399.5,99.1,397.8,93.1Z" fill="#2e162b"/>
          </g>
          <path id="Tracé_121" data-name="Tracé 121" d="M405.5,66.6a8.481,8.481,0,0,0-3.8-2.8c-2.7-1.1-9.2,1.1-9.2,1.1s6.2-.5,7.9-.2a14.235,14.235,0,0,1,4,2.4Z" fill="#5c2c55"/>
          <path id="Tracé_122" data-name="Tracé 122" d="M413.3,69.2a6.663,6.663,0,0,1,3.5-1.2c2.2-.2,6.6,2.6,6.6,2.6a44.073,44.073,0,0,0-5.8-1.7,9.761,9.761,0,0,0-3.5.9Z" fill="#5c2c55"/>
          <path id="Tracé_123" data-name="Tracé 123" d="M403.2,73.7c-.8-1.7-3.3-3-5-3.2-2.4-.2-4.3,1.2-5.8,1.1,2,1.2,3.4-1,8.3.7A12.3,12.3,0,0,1,403.2,73.7Z" fill="#2e162b"/>
          <path id="Tracé_124" data-name="Tracé 124" d="M412.6,76.3a6.77,6.77,0,0,1,5.8-1.1c2.3.7,3.5,2.7,4.9,3.2-2.3.3-2.8-2.2-7.9-2.4A8.611,8.611,0,0,0,412.6,76.3Z" fill="#2e162b"/>
          <ellipse id="Ellipse_3" data-name="Ellipse 3" cx="3" cy="5.3" rx="3" ry="5.3" transform="translate(388.513 81.147) rotate(-68.181)" fill="#fd5e5a"/>
          <path id="Tracé_125" data-name="Tracé 125" d="M418.4,81.4a8.419,8.419,0,0,1,2.8.2,41.4,41.4,0,0,1-.9,5,5.853,5.853,0,0,1-1.3.2c-2.6.2-4.9-.8-5-2.3C413.8,83.1,415.8,81.6,418.4,81.4Z" fill="#fd5e5a"/>
          <path id="Tracé_126" data-name="Tracé 126" d="M412.4,41.9c-1.8-6.8-20.6-18.5-39.6,17.1-18.6,37,3.9,42.9,9.3,34.4a3.465,3.465,0,0,0,.3-3.3c2.2-1.8,6-8.2,2.8-12.2a10.326,10.326,0,0,0-3.6-2.8s4.5,3.1.1,6.2c-3.6,2.5-6.4-4.3-6.7-6.7C372.6,56.7,418.4,60.9,412.4,41.9Z" fill="#6d3465"/>
          <path id="Tracé_127" data-name="Tracé 127" d="M407.6,36.3l3.8,12.5s13.7,4.9,12.2,16.9a39.261,39.261,0,0,1-1.6,7.4s2-.8,5.5-7.6c3.6-7.1,1.2-19.8-5.2-23.9C416,37.5,407.6,36.3,407.6,36.3Z" fill="#6d3465"/>
          <path id="Tracé_128" data-name="Tracé 128" d="M412.4,41.9c2.5,4.7,1.4,10.9-8.3,15.6-7.8,3.8-18.5,5.1-25.1,10.8-3.6,2.4-4.1,12.6.7,12.5,3.4.3,3.9-3.7,1.8-5.8a4.244,4.244,0,0,1,2.2,4.2c0,3.7-6.5,5.2-9,1.3-1.9-2.8-2.2-7.1-1.3-10.4C378,53.5,415.8,60.3,412.4,41.9Z" fill="#914587"/>
          <path id="Tracé_129" data-name="Tracé 129" d="M380.9,68.9s-.3-5.2-4-3.4c-5.7,2.7-1.6,14.6,1.8,15.2S380.9,68.9,380.9,68.9Z" fill="#fc7575"/>
          <path id="Tracé_130" data-name="Tracé 130" d="M380.1,70.5s-.1-2-1.3-2.2c-1.3-.2-1.8,9-.1,9C380.3,77.4,380.1,70.5,380.1,70.5Z" fill="#fd5e5a"/>
        </g>
        <path id="Tracé_131" data-name="Tracé 131" d="M465.7,391.2c4,49.3-152.5,24.8-152.5,24.8V384.7s73.5-13.8,98.8-15.1C434.2,368.5,464.6,378,465.7,391.2Z" fill="#51bae6"/>
        <path id="Tracé_132" data-name="Tracé 132" d="M449.3,133.1s-10.2,7.3-10.2,13,4.3,8.3,6.9,1.9,5-5,10.5-8.3a22.066,22.066,0,0,0,8-8.9Z" fill="#58391b"/>
        <path id="Tracé_133" data-name="Tracé 133" d="M478.1,192.7s-4.8,10-.3,15.5c4.4,5.4,2.4,6.9-6.9,12.6-9.3,5.8-6.8,10.9-6.8,10.9s17.7-7.2,21.4-8.7,6.7-6.4,6.7-6.4l2.9-18.8Z" fill="#58391b"/>
        <path id="Tracé_134" data-name="Tracé 134" d="M444.2,109.6s-1.6-7.6,3.6-12.8,33.5-7.5,28.7-1.9-24.2,6.1-25.7,9S444.2,109.6,444.2,109.6Z" fill="#754c24"/>
        <path id="Tracé_135" data-name="Tracé 135" d="M426.1,189.9c6.7,11,19.4,26.3,19.4,26.3s37.4-50.5,41.4-54.6a5.552,5.552,0,0,0,1.1-1.7c2.9-6.2,2.9-22.4,2.9-22.4s.7-14.1,5.4-14.1-5.4,14.1-1.3,19.3,7,2.8,7.8-.5c.8-3.2-4-19.2-.7-19.2s3.9,20.2,6.1,18c2.1-2.1-3.8-22.8-.9-22.8,3,0,6.5,22.2,6.5,27.3,0,5.2-15,20.7-20.1,25.9s-34.5,82.3-52,77.2c-10.3-3-18.2-27.6-29.7-43.8C417.3,198,418.7,194.7,426.1,189.9Z" fill="#fd5e5a"/>
        <path id="Tracé_136" data-name="Tracé 136" d="M447,107.4s-7.9,1.8-12.5,8.3a93.026,93.026,0,0,0-7.6,12.5s13.5,13.7,23,8.4c9.4-5.4,13.7-5.6,14.8-2,1.1,3.5-3.3,37.2,0,46s20.1,30.4,36.4,28.9,17.8-20.8,16.2-31.8-5.8-26.4-7.7-35.5-2.2-16.9-17.2-24.7C477.3,109.5,458.9,103.6,447,107.4Z" fill="#754c24"/>
        <path id="Tracé_137" data-name="Tracé 137" d="M464.7,134.5c.7,5-4.1,34.8-.9,45.7,2.3,7.2,12.9,20.3,23.9,25.8-9.4-5.9-22.8-20.4-23.3-31.1-.6-7.3.5-35.5.5-35.4A16.93,16.93,0,0,0,464.7,134.5Z" fill="url(#linear-gradient-2)"/>
        <path id="Tracé_138" data-name="Tracé 138" d="M449.4,110.2a18.568,18.568,0,0,1,5.3-15.5c6.9-6.9,17.1-11,21.1-7.9,3.9,3.1-10.5,9.8-11.4,13S457.3,109.3,449.4,110.2Z" fill="#c69c6d"/>
        <path id="Tracé_139" data-name="Tracé 139" d="M449.4,110.2c-.3-7.3,2.9-12.7,8.4-17.2,4.3-3.5,13.3-9,18-6.2C469.9,81.4,445.5,93.1,449.4,110.2Z" fill="url(#linear-gradient-3)"/>
        <path id="Tracé_140" data-name="Tracé 140" d="M454,106.9s3-11,7.3-14.1,13.4-6.3,12.5-3.2c-.9,3-14,6-15.1,10.3A15.689,15.689,0,0,1,454,106.9Z" fill="#fc7575"/>
        <path id="Tracé_141" data-name="Tracé 141" d="M489,178.3s-5.3-3.8-16,5.3-3.7,14.2-5.5,17.6-9-.7-13.7-5.4c-4.6-4.6-11.7-1.9-12.2,1.1,0,0,6.8,7.9,11.2,10.8,4.3,3,17.2,6.4,17.2,6.4s9.2-2.7,10.4-6.9c1.1-4.2,5.6,0,11.1.5C497,208.4,511.4,188.2,489,178.3Z" fill="#754c24"/>
        <path id="Tracé_142" data-name="Tracé 142" d="M491.5,207.8c5.3.1,9-7.2,9.9-11.5,1.7-8.1-3.7-14.7-10.6-18.1a13.393,13.393,0,0,0-4.7-1.4c-7.8-.5-18.5,8.3-19.3,16-.3,2.8.3,4.5,1.1,7.2,0-3.2-.9-4.9-.2-7.8.9-4,4-7.1,7.3-9.6a20.533,20.533,0,0,1,8.6-4c7.6-1.2,16.3,6.4,17,13.9.5,5.5-2.8,11.9-6.8,14.5A4.006,4.006,0,0,1,491.5,207.8Z" fill="#3b2612"/>
        <path id="Tracé_143" data-name="Tracé 143" d="M516.6,194.6s4.2-2.3,9.6,3c5.3,5.3-8,15.3-12.6,9C508.9,200.3,516.6,194.6,516.6,194.6Z" fill="#754c24"/>
        <ellipse id="Ellipse_4" data-name="Ellipse 4" cx="1.8" cy="2.7" rx="1.8" ry="2.7" transform="translate(437.8 117.3)"/>
        <path id="Tracé_144" data-name="Tracé 144" d="M473.8,108.2s-7.3,21.8-16.9,25l3.7,2,16-25.5Z" fill="#2846a6"/>
        <g id="Groupe_22" data-name="Groupe 22">
          <path id="Tracé_145" data-name="Tracé 145" d="M482.8,140.9c1.4-2-.5-6-.5-6.2.2.1.8-2.5,6.3,3.1a15.232,15.232,0,0,0-1.4-7.8c1.1.5.6-1.6,9.5,4.9-.2-6.4-8.2-9.5-8.3-9.7,1.3-.2-1.1-2,11.4-1.3-3.1-2.5-11.4-3.5-15.3-3.9,16.1-.2,17.5,5,17.8,5.1a106.409,106.409,0,0,0-10.7.2c9,5.5,6.3,12.2,6.5,12.6-.2-.1-5.7-4.5-8.7-6a12.5,12.5,0,0,1-.2,8.4c-.2-.2-4-5-5.8-5.2,1.7,5.1-.6,6.3-.6,6.5-.1-.2-3-4-4.3-4.2C479.7,137.5,482,140.1,482.8,140.9Z" fill="#58391b"/>
          <path id="Tracé_146" data-name="Tracé 146" d="M494.6,158.8c.6-6.4.8-7.8.9-8.5.6.5,1.5-1.8,7.2,7,.7-4.6-2-10.5-2.1-10.7.5.2,2.5-1,8.7,4.1-.1-3.3-2.3-8.1-3.8-11,6,8.9,4.6,12.8,4.7,13.1-.2-.1-4.2-3.5-7.4-4.5,3.3,8.7.4,12.3.4,12.9-.1-.2-4.1-7.1-6.5-9-.4,2.9-.8,5.9-1.3,9-1-1.2-6.7-7.2-10.2-11.4C486.6,151.1,490,154.3,494.6,158.8Z" fill="#58391b"/>
          <path id="Tracé_147" data-name="Tracé 147" d="M460.5,116.7c1.2-.3,2.9-.6,4.7-.9a26.291,26.291,0,0,0-5-1.4c.2-.1,4.2-2.1,4-1.9a8.427,8.427,0,0,0-4.3-.3c.3-.4,2.9-3.7,2.8-3.6a12.646,12.646,0,0,0-4.9,1.8,10.572,10.572,0,0,1,2.6-1.7,9.563,9.563,0,0,1,3.8-1c-.1.2-2.3,3.4-2.2,3.2a8.479,8.479,0,0,1,4.8,1.5c-.2.1-3.3,1.6-3.1,1.5,4.2,1.3,4.3,2.8,4.3,3.1a41.626,41.626,0,0,0-6,.1c.1.1,1.7,2.1,1.6,1.9-.1,0-4.2,0-5.5-.1,1.4-.2,2.8-.3,4.1-.5C462.3,118.5,460.4,116.5,460.5,116.7Z" fill="#58391b"/>
          <path id="Tracé_148" data-name="Tracé 148" d="M451.1,126.9c1.6-.2,3.8-.6,6-.9a35.072,35.072,0,0,0-6.3-2.1c.3-.1,5.6-2.4,5.2-2.2a10.838,10.838,0,0,0-5.5-.6c.4-.5,4-4.6,3.8-4.4a16.484,16.484,0,0,0-6.4,2,13.565,13.565,0,0,1,3.5-2.1,13.084,13.084,0,0,1,5-1c-.1.2-3.2,4.2-3,4,3.8.2,5.7,1.6,6.1,2.3-.3.1-4.3,1.9-4.1,1.8,5.2,1.9,5.1,2.4,5.9,3.1-.7.1-3.9.7-8.2,1,.1.2,2.1,2.8,2,2.6-.2,0-5.4-.3-7-.5,1.8-.2,3.6-.2,5.3-.4A23.881,23.881,0,0,1,451.1,126.9Z" fill="#58391b"/>
        </g>
        <path id="Tracé_149" data-name="Tracé 149" d="M376.3,206.7a99.2,99.2,0,0,0,17,18.9s49.5-53,54-57.1a4.345,4.345,0,0,0,1.2-1.7c3.2-6.2,3.2-22.4,3.2-22.4s.8-14.1,5.9-14.1c5.2,0-5.9,14.1-1.4,19.3s7.7,2.8,8.6-.5c.9-3.2-4.4-19.2-.7-19.2s4.3,20.2,6.7,18c2.3-2.1-4.2-22.8-.9-22.8s7.2,22.2,7.2,27.3c0,5.2-16.6,20.7-22.2,25.9s-38.1,89.3-57.3,84.1c-11.4-3-29.2-23.5-41.8-39.7C361.5,216,368.1,211.5,376.3,206.7Z" fill="#fc7575"/>
        <path id="Tracé_150" data-name="Tracé 150" d="M376.3,206.7c1,1.4,1.9,2.8,2.9,4-5.2,4.2-14.3,12-18.6,18.3-1.7-2.1-3.4-4.2-5-6.3C361.5,216,368.1,211.5,376.3,206.7Z" fill="#fd5e5a"/>
        <path id="Tracé_151" data-name="Tracé 151" d="M343.7,121.7c10.2,2.7,28.1,68,39.5,84.1a122.22,122.22,0,0,0-27.5,21.9c-9.9-12.1-37.5-41.8-37.9-59.5C317.6,156,330.9,118.3,343.7,121.7Z" fill="#f9b406"/>
        <path id="Tracé_152" data-name="Tracé 152" d="M343.7,121.7c9.5,4.5,24,65.3,39.5,84.1C374.6,190.4,355.9,125,343.7,121.7Z" fill="#fff"/>
        <g id="Groupe_26" data-name="Groupe 26">
          <g id="Groupe_23" data-name="Groupe 23">
            <path id="Tracé_153" data-name="Tracé 153" d="M287.1,296.2a1.593,1.593,0,0,0,1.5-1.2,1.666,1.666,0,0,0-1.1-2c-3.5-1-5.4-1.5-5.4-1.5a1.764,1.764,0,0,0-2,1.1,1.548,1.548,0,0,0,1.1,1.9s1.9.5,5.3,1.5A3.932,3.932,0,0,0,287.1,296.2Z" fill="#1c7fa8"/>
          </g>
          <g id="Groupe_24" data-name="Groupe 24">
            <path id="Tracé_154" data-name="Tracé 154" d="M429.5,361.2c-2.7-2.3-5.7-4.6-8.9-6.9a1.581,1.581,0,0,1,1.8-2.6c3.2,2.3,6.3,4.7,9,7a1.5,1.5,0,0,1,.2,2.2,1.563,1.563,0,0,1-1.2.6A.855.855,0,0,1,429.5,361.2Zm-18.2-13.1c-3-1.9-6.3-3.9-9.6-5.8a1.612,1.612,0,1,1,1.6-2.8c3.4,2,6.7,3.9,9.8,5.9a1.624,1.624,0,0,1,.5,2.2,1.457,1.457,0,0,1-1.3.7A2.959,2.959,0,0,1,411.3,348.1Zm-19.5-11.3c-3.2-1.7-6.6-3.4-10.1-5.1a1.565,1.565,0,1,1,1.4-2.8q5.25,2.55,10.2,5.1a1.642,1.642,0,0,1,.7,2.2,1.693,1.693,0,0,1-1.4.9C392.3,337,392.1,336.9,391.8,336.8Zm-20.2-9.9c-3.3-1.5-6.8-3-10.3-4.5a1.589,1.589,0,1,1,1.3-2.9c3.5,1.5,7,3.1,10.4,4.6a1.569,1.569,0,0,1,.8,2.1,1.551,1.551,0,0,1-1.5.9A1.445,1.445,0,0,1,371.6,326.9ZM350.8,318c-3.4-1.4-6.9-2.7-10.5-4.1a1.616,1.616,0,0,1,1.2-3c3.6,1.4,7.2,2.8,10.6,4.1a1.667,1.667,0,0,1,.9,2.1,1.637,1.637,0,0,1-1.5,1A.821.821,0,0,1,350.8,318Zm-21.1-8c-3.7-1.3-7.2-2.6-10.7-3.7a1.581,1.581,0,0,1,1-3c3.4,1.2,7,2.4,10.7,3.8a1.606,1.606,0,0,1,1,2,1.5,1.5,0,0,1-1.5,1.1C330,310.1,329.9,310.1,329.7,310Zm-21.4-7.3c-3.9-1.3-7.6-2.4-10.8-3.4a1.614,1.614,0,0,1,.9-3.1c3.2,1,6.9,2.1,10.8,3.4a1.606,1.606,0,0,1,1,2,1.5,1.5,0,0,1-1.5,1.1C308.6,302.8,308.5,302.8,308.3,302.7Z" fill="#1c7fa8"/>
          </g>
          <g id="Groupe_25" data-name="Groupe 25">
            <path id="Tracé_155" data-name="Tracé 155" d="M442.5,373.3a1.284,1.284,0,0,0,1-.4,1.584,1.584,0,0,0,.2-2.2c-1.2-1.4-2.5-2.8-3.8-4.2a1.626,1.626,0,1,0-2.3,2.3c1.3,1.4,2.6,2.7,3.7,4A1.845,1.845,0,0,0,442.5,373.3Z" fill="#1c7fa8"/>
          </g>
        </g>
        <g id="Groupe_27" data-name="Groupe 27">
          <path id="Tracé_156" data-name="Tracé 156" d="M354.9,405.5a1.6,1.6,0,1,1,0-3.2q5.55.15,11.1,0a1.6,1.6,0,1,1,0,3.2c-2,0-3.9.1-5.9.1C358.5,405.6,356.7,405.6,354.9,405.5Zm20.8-2a1.579,1.579,0,0,1,1.5-1.7q5.4-.3,11.1-.9a1.512,1.512,0,0,1,1.7,1.4,1.455,1.455,0,0,1-1.4,1.7c-3.8.4-7.6.7-11.2.9h-.1A1.467,1.467,0,0,1,375.7,403.5Zm-32,1.4c-3.9-.3-7.7-.8-11.2-1.4a1.57,1.57,0,0,1,.5-3.1c3.5.6,7.2,1,11,1.3a1.649,1.649,0,0,1,1.5,1.7,1.708,1.708,0,0,1-1.6,1.5Zm54.2-3.5a1.594,1.594,0,0,1,1.4-1.8c3.6-.5,7.3-1,11-1.6a1.57,1.57,0,1,1,.5,3.1c-3.7.6-7.5,1.2-11.1,1.6h-.2A1.456,1.456,0,0,1,397.9,401.4Zm-76.5-.2c-1-.3-1.9-.5-2.9-.8a1.614,1.614,0,1,1,.9-3.1c.9.3,1.9.5,2.8.8a1.511,1.511,0,0,1,1.1,2,1.593,1.593,0,0,1-1.5,1.2A.6.6,0,0,0,321.4,401.2Zm98.6-3.3a1.6,1.6,0,0,1,1.3-1.9c3.6-.7,7.3-1.4,10.9-2.2a1.589,1.589,0,1,1,.7,3.1c-3.6.8-7.3,1.5-11,2.2h-.3A1.383,1.383,0,0,1,420,397.9Zm21.9-4.6a1.536,1.536,0,0,1,1.2-1.9c6.7-1.6,10.7-2.8,10.8-2.8a1.614,1.614,0,1,1,.9,3.1s-4.1,1.2-10.9,2.8h-.4A1.521,1.521,0,0,1,441.9,393.3Z" fill="#7ccbec"/>
        </g>
        <path id="Tracé_157" data-name="Tracé 157" d="M463.5,124.2s-5,9.3-10.3,12.1-9,8.4-7.2,14,9.7,2.7,11.7-1.9,9.4-7.2,15.4-9.6,8.5-19.4-.5-18.7C463.6,120.6,463.5,124.2,463.5,124.2Z" fill="#754c24"/>
        <path id="Tracé_158" data-name="Tracé 158" d="M453.2,136.3c5.3-2.8,9.3-8.2,10.3-12.1.6-2.4.1-3.6,9.1-4.2a4.714,4.714,0,0,1,4.6,2.1,5.108,5.108,0,0,0-3.1-.7c-9,.6-8.4,1.8-9.1,4.2-1,3.8-5,9.3-10.3,12.1s-9,8.4-7.2,14a3.7,3.7,0,0,0,.5,1.1,4.271,4.271,0,0,1-2-2.5C444.2,144.6,447.9,139.1,453.2,136.3Z" fill="#3b2612"/>
        <path id="Tracé_159" data-name="Tracé 159" d="M427.5,129s.7,6,5.5,7.7c1.9.7,12.8-.2,8.7-6.4s-13.2-3.9-13.2-3.9Z" fill="#58391b"/>
        <path id="Tracé_160" data-name="Tracé 160" d="M427.5,129s-.9-.4-.9-1.2a3.943,3.943,0,0,1,1.3-1.5s.8.2.9,1.6C428.1,129.3,427.5,129,427.5,129Z" fill="#fc7575"/>
      </g>
    </g>
  </g>
</svg>
