<?xml version="1.0" encoding="utf-8"?>
<!-- Generator: Adobe Illustrator 21.0.0, SVG Export Plug-In . SVG Version: 6.00 Build 0)  -->
<svg version="1.1" id="Calque_1" xmlns="http://www.w3.org/2000/svg" xmlns:xlink="http://www.w3.org/1999/xlink" x="0px" y="0px"
	 viewBox="0 0 1253 659" style="enable-background:new 0 0 1253 659;" xml:space="preserve">
<style type="text/css">
	.st0{clip-path:url(#SVGID_2_);}
	.st1{fill:url(#Tracé_1475_1_);}
	.st2{fill:none;stroke:#FD5E5A;stroke-miterlimit:10;stroke-dasharray:12,12;}
	.st3{fill:#EAF1FF;}
	.st4{fill:#A7A38A;}
	.st5{fill:#FB8603;}
	.st6{fill:#DFCFF9;}
	.st7{fill:#95BAF9;}
	.st8{fill:#70A3FF;}
	.st9{fill:#FC7575;}
	.st10{fill:#F4EDED;}
	.st11{fill:url(#Tracé_1496_1_);}
	.st12{fill:#E03055;}
	.st13{fill:#B9A8A8;}
	.st14{fill:url(#Tracé_1505_1_);}
	.st15{fill:#F4F1E1;}
	.st16{fill:#4A2054;}
	.st17{fill:#FD5E5A;}
	.st18{fill:#A82440;}
	.st19{fill:#3D1046;}
	.st20{fill:#552E5D;}
	.st21{fill:#FFF7CF;}
	.st22{fill:#F29797;}
	.st23{fill:#E8E0FF;}
	.st24{fill:#C7A680;}
	.st25{fill:url(#Tracé_1591_1_);}
	.st26{fill:url(#Tracé_1607_1_);}
</style>
<g>
	<defs>
		<rect id="SVGID_1_" width="1253" height="659"/>
	</defs>
	<clipPath id="SVGID_2_">
		<use xlink:href="#SVGID_1_"  style="overflow:visible;"/>
	</clipPath>
	<g id="Groupe_de_masques_28" transform="translate(-667 -413)" class="st0">
		<g id="Groupe_4015" transform="translate(626.453 321.166)">
			<g id="Groupe_4010" transform="translate(294.86 369.59)">
				<g id="Groupe_4009">
					
						<linearGradient id="Tracé_1475_1_" gradientUnits="userSpaceOnUse" x1="-585.6613" y1="590.7776" x2="-584.6613" y2="590.7776" gradientTransform="matrix(217.2655 0 0 -217.2901 127269.8672 128478.7422)">
						<stop  offset="0" style="stop-color:#82ACF5"/>
						<stop  offset="1" style="stop-color:#F8BDEC"/>
					</linearGradient>
					<path id="Tracé_1475" class="st1" d="M86.2,217.3c-2.2,0-4.4-0.3-6.5-0.9c-13-3.6-20.7-16.9-17.4-30c0.3-1.1,0.7-2.1,1.1-3.2
						l0.1-0.2l2.9-5l34.9-60.3c-0.7-0.5-1.4-1.2-1.9-1.9l-59.2,34l-0.2,0.1l-0.3,0.3l-5.6,3.2l-0.2,0.2l-0.3,0.1
						c-1,0.5-2.1,0.8-3.1,1.1c-6.2,1.7-12.9,0.8-18.5-2.4c-5.6-3.3-9.7-8.6-11.4-14.8c-3.5-13,4.1-26.4,17.2-30
						c0.7-0.2,1.3-0.3,1.9-0.4c0.4-0.1,0.8-0.2,1.2-0.3l0.2,0l75.9,0c0.1-0.9,0.4-1.8,0.7-2.6L39.3,70.2L38,69.7L31.6,66l-0.2-0.2
						c-3.8-3.3-6.6-7.6-7.9-12.5C20,40.2,27.8,26.8,40.9,23.4c9.5-2.5,19.5,0.9,25.5,8.6l0.1,0.2l2.9,5l35.1,60.4
						c0.8-0.3,1.6-0.5,2.4-0.6l0-76l0-0.1c0.7-5.2,3.1-10,6.9-13.7c4.6-4.6,10.8-7.2,17.3-7.2h0c6.5,0,12.7,2.6,17.3,7.2l0,0
						c7,7,9.1,17.4,5.5,26.6l-0.1,0.2l-2.5,4.5l-0.5,0.5L116,99.4c0.4,0.3,0.7,0.6,1,0.9c0.3,0.3,0.6,0.7,0.9,1l65-37.6l0.2-0.2
						l0.3-0.1c5-2,10.5-2.3,15.7-0.9c13,3.4,20.7,16.6,17.4,29.5c0,0.1-0.1,0.2-0.1,0.4c-2.7,9.9-11.2,17.1-21.4,18l-0.1,0l-4,0
						l-70.6,0c-0.1,0.8-0.3,1.7-0.6,2.4l60,34.9l1,0.5l3.5,1.9l0.6,0.2l0.5,0.5c0.8,0.6,1.6,1.3,2.4,2.1c9.6,9.6,9.6,25.1,0,34.7
						s-25.1,9.6-34.7,0c-0.7-0.6-1.3-1.4-1.9-2.1l-0.3-0.3l-3-5.5l-34.8-60.1c-0.8,0.3-1.6,0.5-2.4,0.6v72.5l-0.1,3.2l0,0.2
						c-0.1,0.5-0.2,1-0.3,1.4c-0.1,0.5-0.2,1-0.3,1.6C106.9,209.8,97.3,217.3,86.2,217.3L86.2,217.3z M66.7,184.8
						c-0.4,0.8-0.7,1.7-0.9,2.5c-2.8,11.2,3.8,22.6,14.9,25.7c11,3,22.4-3.5,25.4-14.5c0-0.1,0.1-0.2,0.1-0.3
						c0.1-0.5,0.2-0.9,0.3-1.4s0.2-0.9,0.3-1.4l0.1-2.8v-76.1l1.9,0.2c1.3,0.1,2.7-0.2,3.8-0.9l1.6-1l36.6,63.2l2.9,5.2l0.2,0.2
						l0.1,0.2c0.4,0.6,0.9,1.1,1.5,1.6c8.2,8.2,21.5,8.2,29.7,0c8.2-8.2,8.2-21.5,0-29.7l0,0c-0.6-0.7-1.3-1.2-2-1.8l-0.2-0.2
						l-0.2,0l-3.7-2.1l-1.1-0.6l-63.1-36.7l1-1.6c0.7-1.1,1-2.5,0.9-3.8l-0.1-1.9h78.1c8.7-0.8,16-6.9,18.2-15.4
						c3-11-3.4-22.4-14.4-25.4c-0.1,0-0.2-0.1-0.3-0.1c-4.3-1.2-8.9-1-13.1,0.6l0,0l-5.2,3l-63,36.5l-1.2-1.8
						c-0.6-1-1.4-1.9-2.5-2.5l-1.8-1.2l36.6-63.8l0.5-0.5l2.2-3.9c3.1-7.8,1.2-16.7-4.7-22.6l0,0c-3.9-3.9-9.2-6.1-14.8-6.1h0
						c-5.5,0-10.9,2.2-14.8,6.1c-3.1,3.1-5.2,7.2-5.8,11.6l0,79.4l-1.9-0.1c-1.3-0.1-2.7,0.2-3.8,0.9l-1.6,1L63.5,34
						c-7.3-9.1-20.6-10.6-29.7-3.3c-2,1.6-3.7,3.6-5,5.8c-2.8,4.8-3.5,10.5-2,15.8c1.1,4.2,3.5,8,6.9,10.8l0.1,0.1l5.9,3.4L41,67
						l61.8,35.9l-1,1.6c-0.8,1.2-1.1,2.6-1.1,4l0.2,1.9l-79.1,0c-0.4,0.1-0.8,0.2-1.1,0.2c-0.6,0.1-1.1,0.2-1.7,0.4
						c-11.1,3-17.7,14.5-14.6,25.6c1.5,5.4,5,9.9,9.8,12.7c4.8,2.8,10.5,3.6,15.8,2.1c0.8-0.2,1.6-0.5,2.4-0.8l0,0l5.6-3.2l0.5-0.5
						l0.6-0.2l61.7-35.5l1,1.6c0.3,0.6,0.7,1.1,1.2,1.6c0.5,0.5,1,0.9,1.6,1.2l1.6,1.1L66.7,184.8z"/>
				</g>
			</g>
			<path id="Tracé_1476" class="st2" d="M857.1,145.5c26-8.5,53.1-13.4,80.5-14.6c101.8-4.1,211.7,36.3,277.4,115.8
				c20.2,24.5,36.7,53.3,48.8,82.5c29.7,71.5,33.6,145.7,4.3,167.2c-31.4,23.1-108.6-9.2-114.8-45.7c-4.4-26.2,28.8-47,87.1-99.9
				c8.1-7.3,15.8-14.5,23.3-21.6c36.1-34.3,70.2-70.6,102.1-108.8"/>
			<path id="Tracé_1477" class="st2" d="M40.6,763.3c62-227.5,157.6-316.1,239.1-352.8c78.6-35.4,159.3-29.4,207.7-97
				c-82.6-25.9-138.8-130.6-125.9-146.3c8.4-10.1,50.7,10.7,88.2,31.9c31-61.8,46.1-72.2,54.2-70.1c21.6,5.6,32.8,111-13.8,180.7
				c-0.9,1.3-1.8,2.6-2.7,3.9c38.8,12.1,74.9,4.3,111.2-13.7"/>
			<path id="Tracé_1478" class="st3" d="M1073.5,234.4c-28.2,0-54.9,12.4-73.1,33.9c-17-11.7-35.5-21.3-54.9-28.4
				c11.4,15.6,21.7,33.6,27.8,53.3c0.9,2.8,1.7,5.6,2.5,8.2c-7.9,3.1-15.5,7.1-16.8,9c-0.5,0.4-27.2,24.1-25.3,28.7
				c1.7,4.1,22.5-15.4,27-19.7v0c-5.1,5-30.5,30.6-28.7,32.4c1,1,9.6-6.1,17.8-13.4c-4.6,4.6-8.1,8.7-7.1,9.7
				c2.4,2.4,21.6-19.1,23.2-17.5c0,0.1,0.1,0.2,0.1,0.3c0.2,2.5-15.6,15.9-14.2,17.2c1.2,1.2,22.6-11.8,30.2-16.5
				c0.7-0.4,1.5-0.8,2.2-1.3c9.8,36.2,10.1,47.3,10.1,47.3s12.1,64.1-1.2,90.7c0,0,0,0.1-0.1,0.1c-0.6,0.9-1.1,1.7-1.8,2.5
				c-0.5,0.7-1.1,1.4-1.7,2c-1.5,1.6-3.1,3-4.9,4.3c-0.6,0.4-1.3,0.8-1.8,1.2c2.8-0.8,5.5-1.9,8-3.4c2.1-1.2,4-2.6,5.8-4.2
				c7.3-0.8,21.8-3.4,39-12.7c24.9-13.3,55.6-40.3,79-94.9c46.9-109.6,53.2,8.6,40,15.3c0,0,0.3,0.5,0.8,1.5
				c27.4-45.3,13-104.2-32.3-131.6C1108.2,239.2,1091,234.4,1073.5,234.4z M631.4,376.1c-0.1-0.3-0.2-0.5-0.3-0.8l-0.3-0.1l-0.2,0.5
				c-1.6,3.8-3.2,7.7-4.6,11.7c0,0,0,0,0,0c-17.3,47.2-20,98.6-7.6,147.4c16.2,0.2,33.6,0.8,52.2,1.9
				C668.8,498.6,645.4,420.1,631.4,376.1z M922.9,423.8c-0.1-0.1-0.3-0.3-0.4-0.4c-0.2-0.2-0.4-0.4-0.7-0.6
				c-0.5-0.5-1.1-1.1-1.8-1.6c-0.3-0.2-0.5-0.5-0.8-0.7c-1-0.8-2.1-1.7-3.3-2.6c-0.2-0.1-0.4-0.3-0.6-0.4c-1.4-1-2.8-2-4.4-2.9
				c-0.2-0.2-0.5-0.3-0.8-0.5c-0.1-0.1-0.2-0.1-0.4-0.2c-0.3-0.2-0.6-0.4-0.9-0.5c-0.6-0.4-1.3-0.7-2-1c-0.6-0.3-1.2-0.6-1.8-0.9
				c-1-0.4-1.9-0.8-2.9-1.2c-0.2-0.1-0.4-0.1-0.6-0.2c-0.4-0.2-0.9-0.3-1.4-0.5c-1-0.3-2-0.7-3.1-0.9c-0.5-0.1-0.9-0.2-1.4-0.3
				c-0.5-0.1-0.9-0.2-1.4-0.3c-0.6-0.1-1.2-0.2-1.8-0.3c0,0,0,0-0.1,0c-0.5-0.1-1-0.2-1.5-0.2c-0.3-0.1-0.7-0.1-1-0.1
				c-2.3-0.3-4.5-0.4-6.8-0.3c-5.9,0.1-11.8,1.3-17.3,3.5c-1.7,0.7-3.4,1.4-5,2.2l-6-16c1.3-1.1,2.7-2.5,4.2-4
				c3.7-3.8,7-7.9,9.8-12.4c6.4-10.1,10.4-21.5,12-33.3c-2.3,8.3-8.7,19-16.2,27.7c-3.9,4.6-8.4,8.7-13.5,12.1h0v0
				c-8.9,5.7-17.3,5.8-21.1-5.6c-5.3-16.2-22.8-29.5-38.2-38.5c0.2,17-6.6,33.4-10.8,50.8c-4.6,18.9-0.2,88.9,2.8,129.6
				c21.8-6.3,49.2-13.2,78.4-19.3c-18.5-16-36.5-41.1-10.3-70.3c3.7-4.2,7.9-8.1,12.4-11.5v0c2.4-1.8,4.8-3.4,7.4-4.8
				c2.2-1.2,4.5-2.2,6.9-3.1c0.5-0.2,0.9-0.3,1.3-0.5c1.8-0.6,3.6-1.1,5.5-1.4c0.6-0.1,1.1-0.2,1.7-0.3s1.1-0.1,1.7-0.2
				c0.1,0,0.2,0,0.2,0c0.5-0.1,1.1-0.1,1.6-0.1c0.2,0,0.4,0,0.5,0c0.5,0,1,0,1.5,0c1.3,0,2.6,0.1,3.9,0.2c0.2,0,0.5,0,0.7,0.1
				c1.8,0.2,3.6,0.5,5.4,1c0.4,0.1,0.9,0.2,1.3,0.4s0.9,0.2,1.3,0.4h0c0.4,0.1,0.8,0.3,1.2,0.4h0c0.4,0.1,0.8,0.3,1.2,0.4
				c1,0.4,1.9,0.8,2.8,1.2c0.6,0.2,1.1,0.5,1.6,0.8h0c0.3,0.2,0.7,0.4,1,0.5s0.7,0.4,1,0.5c0.4,0.2,0.7,0.4,1.1,0.6
				c0.3,0.2,0.7,0.4,1,0.6c1.2,0.7,2.2,1.4,3.2,2.2c0.3,0.2,0.6,0.5,0.9,0.7c1.4,1.1,2.7,2.2,4,3.4
				C923.7,424.7,923.4,424.3,922.9,423.8L922.9,423.8z M1107.7,455.3c-4.3,1.4-7.7,3.7-13.1,5.1c-9.1,2.5-18.9,15.3-25.7,17.1
				s-16.6,7.3-22.9,8.6c-1.5,0.3-5.3,1.3-10.4,2.5c17,2.5,30.3,7.4,37.7,15.4c34.5,36.8-83.8,115.4-190.8,154.1
				c49.4,1.3,95.6,3.1,137.4,5.4c56.2-47.2,88.5-116.9,88.5-190.3C1108.3,467.2,1108.1,461.2,1107.7,455.3L1107.7,455.3z
				 M772.3,679.7c-0.5,1.2-0.9,2.4-1,3.7c-0.4,3.5-0.3,7.1,0.2,10.5c0.3-3.7,1.4-7.4,3.3-10.6c4-7.5,11.2-13.6,18.3-18.4
				C785.1,669.1,774.4,675.4,772.3,679.7L772.3,679.7z M732.7,668.8c-1.6,1.8-2.7,2.9-2.7,2.9c-1.3,0.3-2.7,0.6-4,0.9
				c3.8,2.3,7.9,4.1,12.1,5.5C734.1,676.3,730.9,672.7,732.7,668.8L732.7,668.8z M797.8,661.8c-0.2,0.3-0.4,0.6-0.5,0.8
				c0.4-0.2,0.8-0.4,1.1-0.6C798.3,662,798,661.9,797.8,661.8L797.8,661.8z M759.9,639.1c-1.9,1.2-4,2.1-6.1,2.9
				c-1.3,0.5-2.8,1-4.6,1.6c2.2,0.4,4.4,1.2,6.4,2.2c0.1,0.2,0.3,0.4,0.4,0.6c0.5,0.8,1.1,1.5,1.8,2.2c5.1,5.1,13,6.3,20.7,7.7
				c1.2,0,2.3,0,3.5,0c6.1,2,11.6,3.7,15.8,5.5c1.4-1.9,2.8-3.6,4.4-5.3c3.4-3.6,8.2-8.4,14.2-13.9
				C794.2,646.3,770.1,647.6,759.9,639.1L759.9,639.1z M881.4,339c-0.1,2.2-0.3,4.9-0.7,8.1C881.5,344.5,881.8,341.7,881.4,339
				L881.4,339z M790.7,302.4c6.6,1.4,14.5,3.2,23.7,5.8C807.5,306.1,799.1,304.1,790.7,302.4L790.7,302.4z M793.2,299.2
				c1,0.3,1.9,0.6,2.9,0.9C795.2,299.8,794.2,299.5,793.2,299.2L793.2,299.2z M790.3,298.3c1,0.3,2,0.6,2.9,0.9
				C792.3,298.9,791.3,298.6,790.3,298.3L790.3,298.3z M769.4,299c1.1,0.1,2.3,0.3,3.6,0.4C771.5,299.2,770.4,299.1,769.4,299
				L769.4,299z M808.7,259.7c0.3-0.3,0.7-0.5,1-0.8C809.3,259.1,809,259.4,808.7,259.7L808.7,259.7z M759.6,245.4
				c-1.6,0.7-3.2,1.4-4.8,2.2l5.9,1.3C760.3,247.8,759.9,246.6,759.6,245.4z"/>
			<path id="Tracé_1479" class="st4" d="M821.7,311.2c-0.3-0.1-0.6-0.2-0.9-0.4c-0.1,0-0.1,0-0.1-0.1c-0.7-0.3-1.4-0.5-2-0.8
				c-0.2-0.1-0.5-0.2-0.8-0.3c-0.4-0.2-0.9-0.3-1.3-0.5c-1-0.4-1-0.4-1.1-0.4c-0.1,0-0.1,0-0.1-0.1c-0.2,0-0.3-0.1-0.5-0.2h0
				c-0.1,0-0.2-0.1-0.2-0.1c0,0-0.1,0-0.1,0c-0.1,0-0.1,0-0.2-0.1c-6.9-2.1-15.3-4.1-23.7-5.8c-0.8-0.2-1.6-0.3-2.3-0.5
				c-0.7-0.1-1.4-0.3-2-0.4c-0.3-0.1-0.6-0.1-0.9-0.2c-0.7-0.1-1.4-0.3-2.1-0.4c-0.8-0.1-1.6-0.3-2.4-0.4c-1.1-0.2-2.2-0.4-3.1-0.5
				c-0.7-0.1-1.4-0.2-2-0.3c0,0-0.1,0-0.1,0c-0.1,0-0.2,0-0.3,0h0c-0.8-0.1-1.5-0.2-2.2-0.3c-0.1,0-0.2,0-0.3,0
				c-1.4-0.2-2.6-0.3-3.6-0.4c-0.3,0-0.5-0.1-0.7-0.1c-0.2,0-0.4,0-0.6-0.1c-0.2,0-0.4,0-0.7,0c-0.1,0-0.2,0-0.3,0
				c-0.2,0-0.4,0-0.6,0c-0.2,0-0.4,0-0.4,0H766c-0.3,0-0.6,0-0.9-0.1c1.1-0.9,2.1-1.9,3.1-3c0.7-0.7,1.3-1.5,1.9-2.2
				c0.8,0.1,1.5,0.3,2.3,0.4c1.3,0.2,2.6,0.5,3.9,0.8c1.1,0.2,2.2,0.5,3.4,0.7c0.4,0.1,0.8,0.2,1.2,0.3c0.4,0.1,0.8,0.2,1.2,0.3
				c1.7,0.4,3.4,0.9,5.2,1.4c1,0.3,2,0.6,3,0.9s2,0.6,2.9,0.9s1.9,0.6,2.9,0.9c0.2,0.1,0.5,0.2,0.7,0.2c0.4,0.1,0.8,0.3,1.2,0.4
				c0.3,0.1,0.6,0.2,0.9,0.3c0.6,0.2,1.1,0.4,1.6,0.6s1,0.4,1.5,0.6c1.4,0.5,2.7,1.1,4.1,1.6c1,0.4,1.9,0.8,2.9,1.2
				c2.5,1.1,4.8,2.2,7.1,3.3c0.9,0.5,1.9,0.9,2.8,1.4c0.6,0.3,1.1,0.6,1.7,0.9C821,310.9,821.4,311,821.7,311.2z"/>
			<g id="Groupe_4011" transform="translate(282.04 459.819)">
				<path id="Tracé_1480" class="st5" d="M65.4,28.8c0,0.2,0,0.4-0.1,0.6c0,0.1,0,0.3-0.1,0.4c0,0.2-0.1,0.4-0.1,0.6
					c-0.1,0.3-0.1,0.5-0.2,0.8c0,0.2-0.1,0.3-0.2,0.5c0,0.1-0.1,0.3-0.1,0.4c0,0.1-0.1,0.2-0.1,0.3c-0.1,0.2-0.1,0.3-0.2,0.5
					c0,0.1-0.1,0.2-0.1,0.2c0,0,0,0.1-0.1,0.2c0,0.1-0.1,0.2-0.2,0.3c-0.4,0.8-0.9,1.5-1.5,2.1c-0.2,0.2-0.3,0.3-0.5,0.5
					c-0.2,0.2-0.4,0.3-0.6,0.5s-0.4,0.3-0.7,0.4c-10.9,6.7-13.3-8.3-29.2,0c-2,1.1-4.2,1.9-6.4,2.4c-0.3,0.1-0.6,0.1-0.8,0.2
					c-0.3,0.1-0.7,0.1-1,0.2s-0.7,0.1-1,0.1c-0.3,0-0.7,0.1-1,0.1c-0.2,0-0.5,0.1-0.7,0.1c-0.3,0-0.5,0-0.8,0c-0.2,0-0.4,0-0.6,0
					c-0.9,0-1.7,0-2.6,0c-0.4,0-0.8-0.1-1.2-0.1c0,0,0,0-0.1,0c-0.2,0-0.4,0-0.7-0.1S14.2,40,13.9,40s-0.4-0.1-0.7-0.1
					c-0.3,0-0.6-0.1-0.8-0.2c-0.4-0.1-0.7-0.2-1.1-0.3c-0.2-0.1-0.4-0.1-0.6-0.2l-0.2-0.1c-0.2-0.1-0.5-0.2-0.7-0.2
					s-0.5-0.2-0.7-0.3s-0.5-0.2-0.7-0.3c-0.2-0.1-0.3-0.1-0.5-0.2c-0.2-0.1-0.3-0.1-0.4-0.2c-0.2-0.1-0.3-0.2-0.5-0.2
					c0,0-0.1,0-0.1,0c-0.2-0.1-0.3-0.2-0.5-0.3S6.1,37.3,6,37.2c-0.4-0.2-0.8-0.5-1.1-0.8c-0.2-0.1-0.4-0.3-0.5-0.4
					c-0.2-0.1-0.4-0.3-0.5-0.5c0,0,0,0,0,0c-0.2-0.2-0.3-0.3-0.5-0.5c-0.1-0.1-0.2-0.2-0.3-0.3c0,0,0,0,0,0
					c-0.2-0.2-0.4-0.4-0.6-0.6c0,0,0,0,0,0c-0.1-0.1-0.1-0.2-0.2-0.3c-0.2-0.3-0.4-0.5-0.6-0.8c-0.1-0.2-0.2-0.3-0.3-0.5
					c0-0.1-0.1-0.1-0.1-0.2c-0.1-0.1-0.1-0.2-0.2-0.4c0,0,0,0,0-0.1c-0.1-0.1-0.1-0.2-0.1-0.3c0,0,0-0.1-0.1-0.1
					c-0.1-0.2-0.2-0.4-0.2-0.6s-0.2-0.4-0.2-0.7s-0.1-0.4-0.2-0.7S0.1,29.1,0,28.8c0.7-0.4,1.4-0.8,2.1-1.2c1.2-0.7,2.5-1.3,3.7-2
					C7,25,8.2,24.4,9.4,23.8c5.8-2.9,11.4-5.6,16.7-8.2c2.6-1.3,5.2-2.6,7.7-3.8c0.8-0.4,1.7-0.8,2.5-1.3c1.6-0.8,3.2-1.6,4.8-2.4
					C46.7,5.2,52,2.5,57,0c2,1.8,3.4,4.3,3.7,7l0,0c0,0,0,0,0,0.1c0.1,0.3,0.5,1.2,1,2.5c0,0,0,0.1,0.1,0.2c0.1,0.2,0.1,0.3,0.2,0.5
					c0.1,0.1,0.1,0.3,0.2,0.5c0,0,0,0.1,0,0.1c0.1,0.2,0.1,0.3,0.2,0.5c0.3,0.9,0.7,2,1,3.2c0.1,0.3,0.2,0.7,0.3,1.1
					c0.1,0.2,0.1,0.4,0.2,0.5s0.1,0.4,0.1,0.6c0.2,0.6,0.3,1.1,0.4,1.7c0.1,0.4,0.2,0.8,0.3,1.2c0.1,0.3,0.1,0.5,0.2,0.8
					c0,0.1,0.1,0.3,0.1,0.4c0,0.3,0.1,0.6,0.1,0.8s0.1,0.6,0.1,0.9c0,0.1,0,0.2,0,0.3s0,0.2,0,0.3c0.1,0.6,0.1,1.1,0.1,1.7
					c0,0.2,0,0.3,0,0.5C65.6,26.5,65.6,27.7,65.4,28.8z"/>
			</g>
			<g id="Groupe_4014" transform="translate(158.453 102.592)">
				<g id="Groupe_4013">
					<g id="Groupe_4012">
						<path id="Tracé_1481" class="st6" d="M1090.4,594.7c0,22.9-244.1,41.4-545.2,41.4c-117.2,0-225.8-2.8-314.7-7.6
							c1.5-0.6,3-1.3,4.4-2c3.9-1.9,5.3-6.3,3.1-9.8c-2.4-3.5-7.1-4.7-10.9-2.8c-1.1,0.4-8.7,4.9-28.4,7.4
							c-18.1,2.3-36.4,2.5-54.6,0.9c-12.9-1.2-25.7-3.2-38.3-6.2c-16.8-3.9-39.3-10.7-47.9-24c-2.9-4.5-4.4-9.8-4.3-15.2
							c7.4-1.2,15.4-2.3,24.2-3.4c8.5,4.6,17.3,8.5,26.4,11.6c0.5,0,2.2-0.1,4.8-0.2c0.6,0,1.2,0,1.9-0.1c1.7-0.1,3.6-0.2,5.7-0.3
							c0.2,0,0.4,0,0.6,0s0.4,0,0.7,0v0c17.4-0.9,46.7-2,62.3,0.7c21.7,3.7,43.5-0.3,33.6-11c-1.6-1.6-3.6-2.9-5.7-3.9
							c-0.8-2.6-1.8-5.2-3-7.7c34.6-2.1,72.7-3.9,113.5-5.3c19.5,6.4,37.9,10.4,44.3,11.3c59,8.4,136.1,13.7,192.2,4.1h0
							c4.1-0.7,8.1-1.5,12-2.3c3.8,2.3,7.9,4.1,12.1,5.5c10.7,3.5,22,5.3,33.3,5.2c-0.4,3.5-0.3,7.1,0.2,10.5
							c0.1,0.4,0.1,0.9,0.2,1.3c0.1,0.4,0.1,0.8,0.2,1.2s0.1,0.8,0.2,1.2c0,0.2,0.1,0.3,0.1,0.5c0.2,0.7,0.3,1.5,0.5,2.2
							c0.1,0.3,0.1,0.5,0.2,0.8c0.1,0.5,0.3,0.9,0.4,1.4s0.3,0.9,0.5,1.4c0.4,1.2,0.9,2.4,1.4,3.6c0.1,0.3,0.3,0.6,0.4,0.9
							c0.1,0.1,0.1,0.3,0.2,0.4c0.1,0.2,0.2,0.5,0.4,0.7c0.2,0.4,0.4,0.8,0.6,1.1c0.2,0.3,0.3,0.6,0.5,0.8c0.1,0.2,0.3,0.4,0.4,0.7
							c0.2,0.4,0.5,0.8,0.8,1.1c0.1,0.1,0.2,0.2,0.2,0.3c0.3,0.4,0.5,0.7,0.8,1.1c0.2,0.2,0.4,0.4,0.5,0.7c0.2,0.3,0.5,0.5,0.7,0.8
							c0.2,0.2,0.4,0.4,0.6,0.7c0.2,0.2,0.4,0.4,0.6,0.6c0,0,0.1,0.1,0.1,0.1c0.2,0.2,0.4,0.3,0.6,0.5c0,0,0.1,0.1,0.1,0.1
							c0.2,0.2,0.4,0.3,0.6,0.5c0.3,0.2,0.7,0.5,1,0.7c0.1,0.1,0.2,0.1,0.3,0.2c0.2,0.1,0.4,0.2,0.6,0.3c0.3,0.2,0.6,0.3,0.9,0.5
							c1.2,0.6,2.5,1.2,3.8,1.6c0.2,0.1,0.5,0.1,0.7,0.2c0.3,0.1,0.5,0.2,0.8,0.2c0.2,0.1,0.5,0.1,0.7,0.2s0.5,0.1,0.7,0.2
							s0.5,0.1,0.7,0.1c0.4,0.1,0.7,0.1,1.1,0.2s0.7,0.1,1,0.1c0.2,0,0.5,0,0.7,0c0.2,0,0.3,0,0.5,0c0.1,0,0.2,0,0.4,0
							c0.2,0,0.3,0,0.5,0c0.3,0,0.6,0,0.9,0c0.1,0,0.2,0,0.3,0c0.3,0,0.6,0,0.9-0.1s0.6-0.1,0.9-0.1c0.5-0.1,1-0.2,1.5-0.3
							c0.1,0,0.2-0.1,0.3-0.1s0.2,0,0.3-0.1c0.2-0.1,0.4-0.1,0.7-0.2c0.2,0,0.3-0.1,0.5-0.2s0.3-0.1,0.5-0.2c0.4-0.1,0.7-0.3,1-0.4
							c0.1-0.1,0.3-0.1,0.4-0.2c0.1-0.1,0.2-0.1,0.3-0.2s0.2-0.1,0.3-0.2c0.1-0.1,0.3-0.2,0.4-0.2c0.2-0.1,0.4-0.3,0.7-0.4
							c0.1-0.1,0.2-0.2,0.3-0.2s0.2-0.1,0.3-0.2c0.2-0.2,0.4-0.4,0.6-0.6c0.1-0.1,0.2-0.2,0.3-0.3s0.2-0.2,0.3-0.3s0.2-0.2,0.2-0.3
							s0.1-0.2,0.2-0.3c0.1-0.1,0.2-0.3,0.3-0.5s0.2-0.3,0.3-0.5s0.1-0.3,0.2-0.4s0.1-0.3,0.2-0.4c0.1-0.2,0.1-0.3,0.1-0.5
							c0-0.1,0-0.2,0.1-0.3c0-0.1,0-0.3,0.1-0.4c0,0,0-0.1,0-0.1c0,0,0-0.1,0-0.1c0-0.6,0-1.1-0.2-1.7c-1.3-5,3.8-25.4,6.8-36.6h0
							c20-3.9,42-10.3,64.6-18.4c49.4,1.3,95.6,3.1,137.4,5.4C1000,568.5,1090.4,580.8,1090.4,594.7z"/>
						<path id="Tracé_1482" class="st7" d="M724,555.6c-22.5,8.2-44.6,14.6-64.6,18.4h0c-0.8,0.2-1.6,0.3-2.3,0.5
							c-3.7-1.4-7.2-3.1-10.6-5.1c-3.7-2.3-7.2-5.1-7.9-8.1c0-0.4,0.1-0.8,0.3-1.1c0.4-0.2,0.8-0.4,1.1-0.6
							c-0.2-0.1-0.4-0.2-0.6-0.3c1.4-1.9,2.8-3.6,4.4-5.3c3.4-3.6,8.2-8.4,14.2-13.9s13.1-11.9,21.1-18.7c7.4-6.3,15.6-13,24.3-19.9
							c23-18.2,49.3-37,74-51.2c29.2-16.7,56.2-26.9,72.8-21.5c-2.3-0.9-25.9-8.8-71.8,16.6c1.3-13-4-31,0-35
							c4.6-4.5,20-21.9,33.6-22.9c2.9-0.3,5.9,0.4,8.4,1.8c11.4,6.6,40.5,0.6,56.6-3.2c17,2.5,30.3,7.4,37.7,15.4
							C949.2,438.3,830.9,516.9,724,555.6z"/>
						<path id="Tracé_1483" class="st8" d="M850.1,428.8c-16.6-5.4-43.5,4.8-72.8,21.5c0.5-1.6,0.8-3.3,0.9-5
							C824.2,420,847.8,427.9,850.1,428.8z"/>
						<path id="Tracé_1484" class="st9" d="M838.1,207.3c0,6.9-3.4,12.1-8.4,17.2c-1.2,1-2.4,1.9-3.6,2.8c-0.1,0.1-0.3,0.2-0.4,0.3
							c-2.3-8.3-5-17.8-8.4-28.9c3.3-1.3,6.7-2.5,10.1-3.4C833,196.1,838.1,198.7,838.1,207.3z"/>
						<path id="Tracé_1485" class="st4" d="M838.1,368.1c-1.8,1.6-3.7,3-5.8,4.2c-2.5,1.5-5.2,2.6-8,3.4c0.6-0.4,1.2-0.7,1.8-1.2
							c1.8-1.2,3.4-2.7,4.9-4.3c0.6-0.7,1.2-1.3,1.7-2c0.6-0.8,1.2-1.7,1.8-2.5c-0.5,0.9-1,1.8-1.5,2.7
							C834.7,368.4,836.4,368.3,838.1,368.1z"/>
						<path id="Tracé_1486" class="st9" d="M825.7,227.6c-0.8,0.5-1.5,1-2.2,1.3c-7.6,4.7-29,17.7-30.2,16.5
							c-1.4-1.4,14.4-14.7,14.2-17.2c0-0.1-0.1-0.2-0.1-0.3c-1.6-1.6-20.8,19.9-23.2,17.5c-1-1,2.6-5.1,7.1-9.7
							c-8.2,7.3-16.8,14.4-17.8,13.4c-1.8-1.8,23.6-27.4,28.7-32.4v0c-4.5,4.3-25.3,23.8-27,19.7c-1.9-4.6,24.8-28.2,25.3-28.7
							c1.3-1.9,8.9-5.9,16.8-9C820.7,209.8,823.5,219.3,825.7,227.6z"/>
						<path id="Tracé_1487" class="st4" d="M765.6,322.4c-1.3-1.2-2.6-2.3-4-3.4c-0.3-0.2-0.6-0.5-0.9-0.7c-1-0.7-2-1.4-3.2-2.2
							c-0.3-0.2-0.7-0.4-1-0.6c-0.4-0.2-0.7-0.4-1.1-0.6c-0.3-0.2-0.7-0.4-1-0.5s-0.7-0.4-1-0.5h0c-0.5-0.3-1.1-0.5-1.6-0.8
							c-0.9-0.4-1.8-0.8-2.8-1.2c-0.4-0.2-0.8-0.3-1.2-0.4h0c-0.4-0.1-0.8-0.3-1.2-0.4h0c-0.4-0.1-0.8-0.3-1.3-0.4s-0.8-0.2-1.3-0.4
							c-1.8-0.5-3.6-0.8-5.4-1c-0.2,0-0.5,0-0.7-0.1c-1.3-0.1-2.5-0.2-3.9-0.2c-0.5,0-1,0-1.5,0c-0.2,0-0.3,0-0.5,0
							c-0.5,0-1,0.1-1.6,0.1c-0.1,0-0.2,0-0.2,0c-0.6,0-1.1,0.1-1.7,0.2c-0.6,0.1-1.1,0.2-1.7,0.3c-1.9,0.3-3.7,0.8-5.5,1.4
							c-0.4,0.1-0.9,0.3-1.3,0.5c-2.4,0.8-4.7,1.9-6.9,3.1c-2.6,1.4-5.1,3-7.4,4.8l-2.4-6.4l-1.1-2.9c1.6-0.8,3.3-1.6,5-2.2
							c5.5-2.2,11.4-3.4,17.3-3.5c2.3,0,4.6,0.1,6.8,0.3c0.4,0,0.7,0.1,1,0.1c0.5,0.1,1,0.2,1.5,0.2c0,0,0,0,0.1,0
							c0.6,0.1,1.2,0.2,1.8,0.3c0.5,0.1,1,0.2,1.4,0.3c0.5,0.1,0.9,0.2,1.4,0.3c1.1,0.3,2.1,0.6,3.1,0.9c0.5,0.2,0.9,0.3,1.4,0.5
							c0.2,0.1,0.4,0.1,0.6,0.2c1,0.4,2,0.8,2.9,1.2c0.6,0.3,1.2,0.6,1.8,0.9c0.7,0.3,1.3,0.7,2,1c0.3,0.2,0.6,0.4,0.9,0.5
							c0.1,0.1,0.2,0.1,0.4,0.2c0.3,0.1,0.5,0.3,0.8,0.5c1.6,0.9,3.1,1.9,4.4,2.9c0.2,0.1,0.4,0.3,0.6,0.4c1.2,0.9,2.3,1.8,3.3,2.6
							c0.3,0.2,0.6,0.5,0.8,0.7c0.7,0.5,1.3,1.1,1.8,1.6c0.2,0.2,0.4,0.4,0.7,0.6c0.2,0.1,0.3,0.3,0.4,0.4
							C764.9,321.7,765.3,322.1,765.6,322.4z"/>
						<path id="Tracé_1488" class="st4" d="M734.6,100.1L734.6,100.1c-0.2,2.3-0.5,4.3-0.8,6.2c0.2-2.9,0.2-5.9-0.1-8.8v0
							c-0.3-2.9-0.9-5.8-1.8-8.6v0c-1.3-4.2-3-8.3-5.2-12.2v0c0.2,0.1,2,1.4,4.9,3.7h0c0.7,0.5,1.4,1.1,2.2,1.7
							c0.5,2.7,0.8,5.5,0.9,8.3C734.9,93.6,734.8,96.8,734.6,100.1z"/>
						<path id="Tracé_1489" class="st4" d="M722.2,244.5c-1.6,11.8-5.6,23.2-12,33.3c-2.8,4.5-6.1,8.6-9.8,12.4
							c-1.5,1.5-2.8,2.8-4.2,4l-0.3-0.7l-3.4-9.1v0h0c5-3.4,9.6-7.4,13.5-12.1C713.6,263.4,719.9,252.8,722.2,244.5z"/>
						<path id="Tracé_1490" class="st8" d="M708.4,405.2c-33.8,9.8-63,20.9-82.2,28.5c-5.4,2.1-10,4-13.7,5.4
							c-29.3,11.6-28,19.9-27.9,20.5c-5.3-6-31.3-11.7-51.7-16.4c-5-1.1-9.7-2.2-13.6-3.2c-1.8-0.4-4.1-0.9-6.9-1.3
							c-0.1,2.7-0.3,5.3-0.8,7.9c0.4-2.6,0.6-5.3,0.5-8c-0.3,0-0.5-0.1-0.8-0.1s-0.5-0.1-0.8-0.1s-0.6-0.1-0.8-0.1s-0.6-0.1-0.9-0.1
							c-1.8-0.2-3.6-0.5-5.6-0.7c-0.5-0.1-1.1-0.1-1.6-0.2c-1.6-0.2-3.3-0.4-5.1-0.6c-0.3,0-0.6-0.1-0.9-0.1
							c-1.1-0.1-2.1-0.2-3.2-0.3c-1.1-0.1-2.3-0.2-3.5-0.3c-0.2,0-0.4,0-0.6-0.1c-0.6,0-1.2-0.1-1.8-0.2c-2.7-0.2-5.5-0.5-8.3-0.7
							l-2.8-0.2c0,0-0.1,0-0.1,0c-0.9-0.1-1.8-0.1-2.8-0.2c-2.9-0.2-5.7-0.4-8.6-0.7c-1.2-0.1-2.5-0.2-3.7-0.3l-0.3,0l-5.1-0.4
							c-0.1,0-0.3,0-0.4,0c-1.9-0.1-3.9-0.3-5.8-0.4c-1.4-0.1-2.8-0.2-4.2-0.3c-0.9-0.1-1.8-0.1-2.8-0.2c-1.4-0.1-2.7-0.2-4-0.3
							c7.2-0.1,14.6-0.1,22.3,0c16.2,0.2,33.6,0.8,52.2,1.9c0.1,0,0.3,0,0.4,0c6.2,0.4,12.6,0.8,19.1,1.3c14.3,1.1,29.3,2.4,45,4
							c1.3-3.4,20.1-10.7,48.5-18.9c21.8-6.3,49.2-13.2,78.4-19.3C705.3,402.6,706.9,403.9,708.4,405.2z"/>
						<path id="Tracé_1491" class="st8" d="M703.4,501.5c-8.7,6.8-16.8,13.5-24.3,19.9c-8,6.8-15.1,13.1-21.1,18.7
							c-22.3,3.6-46.3,5-56.5-3.5c-1.9,1.2-4,2.1-6.1,2.9c-1.3,0.5-2.8,1-4.6,1.6c-8.2-1.7-15.6,0.8-19.7,2.7
							c-1.1-0.4-2.3-0.8-3.5-1.2c-0.8-0.3-1.6-0.5-2.4-0.8c-0.1,0-0.3-0.1-0.4-0.1c-0.3-0.1-0.7-0.2-1-0.3c-1.2-0.4-2.5-0.8-3.9-1.3
							c-0.6-0.2-1.1-0.4-1.7-0.6c-0.9-0.3-1.8-0.6-2.7-0.8c-0.3-0.1-0.6-0.2-0.9-0.3c-3.4-1.1-7.1-2.2-11-3.3
							c-0.9-0.3-1.8-0.5-2.7-0.8c-1.4-0.4-2.8-0.8-4.2-1.2c-0.9-0.3-1.9-0.5-2.9-0.8l-1.5-0.4c-0.6-0.2-1.2-0.3-1.9-0.5
							c-2.1-0.6-4.3-1.2-6.5-1.8c-0.6-0.2-1.2-0.3-1.8-0.5s-1.2-0.3-1.8-0.5c-0.9-0.2-1.9-0.5-2.8-0.7s-1.9-0.5-2.8-0.7
							c-1.3-0.3-2.5-0.6-3.8-1c-1.7-0.4-3.4-0.9-5.2-1.3c-2.7-0.7-5.5-1.3-8.3-2c-0.7-0.2-1.4-0.3-2.1-0.5c0,0-0.1,0-0.1,0
							c-1.7-0.4-3.5-0.8-5.2-1.2c-0.4-0.1-0.7-0.2-1-0.2c-1.4-0.3-2.8-0.6-4.2-0.9c0,0-0.1,0-0.1,0c-0.7-0.2-1.4-0.3-2.2-0.5
							c-1.4-0.3-2.9-0.6-4.3-0.9c-2.9-0.6-5.8-1.2-8.7-1.8c-0.7-0.2-1.5-0.3-2.2-0.5c-5.8-1.2-11.7-2.3-17.6-3.4l-2.2-0.4
							c-1.1-0.2-2.1-0.4-3.2-0.6c-0.8-0.1-1.7-0.3-2.5-0.4c-0.6-0.1-1.2-0.2-1.8-0.3l-2.1-0.4c-1.1-0.2-2.1-0.4-3.2-0.5
							c-1.1-0.2-2.2-0.4-3.3-0.5l-0.3,0c-0.9-0.1-1.8-0.3-2.7-0.4s-1.7-0.3-2.6-0.4c-0.6-0.1-1.2-0.2-1.8-0.3l-1.7-0.3
							c-1.2-0.2-2.3-0.3-3.5-0.5c-0.6-0.1-1.1-0.2-1.7-0.2s-1.1-0.2-1.7-0.2c-1.7-0.2-3.4-0.4-5.1-0.6c-0.6-0.1-1.1-0.1-1.7-0.2
							c-3.8-0.4-7.5-0.8-11.2-1.2l-1.9-0.2c-0.8-0.1-1.7-0.1-2.5-0.2c-0.6,0-1.3-0.1-1.9-0.1s-1.3-0.1-1.9-0.1c-0.5,0-1-0.1-1.5-0.1
							c-0.1,0-0.2,0-0.4,0c-0.6,0-1.2-0.1-1.8-0.1c-1.1-0.1-2.2-0.1-3.3-0.2c-0.5,0-1,0-1.5-0.1c-0.5,0-1.1,0-1.6,0
							c-3.4-0.1-6.6-0.1-9.7-0.1c-0.4,0-0.7,0-1.1,0c-0.4,0-0.8,0-1.2,0c-0.4,0-0.8,0-1.1,0c-1.5,0.1-3,0.1-4.4,0.2
							c-0.5,0-1,0.1-1.4,0.1c-0.5,0-1.1,0.1-1.6,0.1c-0.4,0-0.8,0.1-1.1,0.1c-1.2,0.1-2.3,0.3-3.4,0.4c-0.3,0-0.7,0.1-1,0.1
							c-0.8,0.1-1.6,0.3-2.3,0.4c-0.6,0.1-1.1,0.2-1.7,0.3c-1.3,0.3-2.5,0.6-3.6,0.9c-0.4,0.1-0.7,0.2-1.1,0.3l-0.1,0
							c-0.3,0.1-0.7,0.2-1,0.3c-0.5,0.2-1,0.3-1.4,0.5c0.7-0.3,12.9-5.9,24.2-6.8c11.7-1,61.8-0.1,113,11.4l3.5,0.8
							c0.9,0.2,1.8,0.4,2.6,0.6c3.2,0.7,6.5,1.5,9.7,2.2c1.8,0.4,3.5,0.8,5.3,1.2v0c1.8,0.4,3.5,0.8,5.3,1.2
							c1.2,0.3,2.3,0.5,3.5,0.8c1.8,0.4,3.5,0.8,5.3,1.2c1.2,0.3,2.3,0.5,3.5,0.8c3.2,0.7,6.3,1.4,9.4,2l1.4,0.3c1,0.2,2,0.4,3,0.6
							c1.1,0.2,2.2,0.5,3.3,0.7c0.2,0,0.4,0.1,0.6,0.1c0.8,0.2,1.7,0.3,2.5,0.5c1.4,0.3,2.8,0.6,4.1,0.8c0.8,0.2,1.6,0.3,2.4,0.4
							c2.8,0.5,5.5,1,8.1,1.4c0.7,0.1,1.5,0.2,2.2,0.4c0.6,0.1,1.3,0.2,1.9,0.3c0.5,0.1,0.9,0.1,1.4,0.2c0.9,0.1,1.8,0.3,2.7,0.4
							c0.4,0.1,0.9,0.1,1.3,0.2c0.6,0.1,1.2,0.2,1.8,0.2c0.5,0.1,1.1,0.1,1.6,0.2l1.6,0.2c0.6,0.1,1.2,0.1,1.8,0.2s1.2,0.1,1.8,0.2
							c1,0.1,2,0.2,2.9,0.2c0.8,0.1,1.7,0.1,2.5,0.1s1.6,0.1,2.4,0.1c1.4,0,2.7,0,4,0c0.5,0,1.1,0,1.6-0.1c0.5,0,1.1-0.1,1.6-0.1
							s1-0.1,1.5-0.1s1-0.1,1.4-0.2s0.9-0.1,1.4-0.2s0.9-0.2,1.3-0.2c0.3-0.1,0.6-0.1,1-0.2c0.2,0,0.5-0.1,0.7-0.2
							c0.2-0.1,0.4-0.1,0.7-0.2c0.2-0.1,0.5-0.1,0.7-0.2c0.4-0.1,0.8-0.3,1.1-0.4c0.2-0.1,0.5-0.2,0.7-0.3c0.2-0.1,0.3-0.1,0.4-0.2
							c0.2-0.1,0.4-0.2,0.5-0.3s0.4-0.2,0.5-0.3c0.4-0.2,0.7-0.4,1-0.6c0.2-0.1,0.3-0.2,0.5-0.4s0.3-0.3,0.5-0.4
							c0.1-0.1,0.2-0.1,0.2-0.2s0.2-0.1,0.2-0.2c0,0,6.8,9.2,66.1-2.5l34.8-25.3C701.8,499.7,702.6,500.6,703.4,501.5z"/>
						<path id="Tracé_1492" class="st10" d="M652.7,610.6c0.1,0.6,0.2,1.1,0.2,1.7c0,0,0,0.1,0,0.1c0,0,0,0.1,0,0.1
							c0,0.1,0,0.3-0.1,0.4c0,0.1,0,0.2-0.1,0.3c0,0.2-0.1,0.3-0.1,0.5c-0.1,0.1-0.1,0.3-0.2,0.4s-0.1,0.3-0.2,0.4s-0.2,0.3-0.3,0.5
							s-0.2,0.3-0.3,0.5c-0.1,0.1-0.1,0.2-0.2,0.3s-0.1,0.2-0.2,0.3s-0.2,0.2-0.3,0.3s-0.2,0.2-0.3,0.3c-0.2,0.2-0.4,0.4-0.6,0.6
							c-0.1,0.1-0.2,0.1-0.3,0.2s-0.2,0.2-0.3,0.2c-0.2,0.2-0.4,0.3-0.7,0.4c-0.1,0.1-0.3,0.2-0.4,0.2c-0.1,0.1-0.2,0.1-0.3,0.2
							s-0.2,0.1-0.3,0.2c-0.1,0.1-0.3,0.1-0.4,0.2c-0.3,0.2-0.7,0.3-1,0.4c-0.1,0.1-0.3,0.1-0.5,0.2s-0.3,0.1-0.5,0.2
							c-0.2,0.1-0.4,0.1-0.7,0.2c-0.1,0-0.2,0-0.3,0.1s-0.2,0.1-0.3,0.1c-0.5,0.1-1,0.2-1.5,0.3c-0.3,0-0.6,0.1-0.9,0.1
							s-0.6,0.1-0.9,0.1c-0.1,0-0.2,0-0.3,0c-0.3,0-0.6,0-0.9,0c-0.2,0-0.3,0-0.5,0c-0.1,0-0.2,0-0.4,0c-0.2,0-0.3,0-0.5,0
							c-0.2,0-0.5,0-0.7,0c-0.3,0-0.7-0.1-1-0.1s-0.7-0.1-1.1-0.2c-0.2,0-0.5-0.1-0.7-0.1s-0.5-0.1-0.7-0.2s-0.5-0.1-0.7-0.2
							c-0.3-0.1-0.5-0.1-0.8-0.2c-0.2-0.1-0.4-0.1-0.7-0.2c-1.3-0.4-2.6-1-3.8-1.6c-0.3-0.2-0.6-0.3-0.9-0.5
							c-0.2-0.1-0.4-0.2-0.6-0.3c-0.1-0.1-0.2-0.1-0.3-0.2c-0.3-0.2-0.7-0.5-1-0.7c-0.2-0.2-0.4-0.3-0.6-0.5c-0.1,0-0.1-0.1-0.1-0.1
							c-0.2-0.2-0.4-0.3-0.6-0.5c0,0-0.1-0.1-0.1-0.1c-0.2-0.2-0.4-0.4-0.6-0.6c-0.2-0.2-0.4-0.4-0.6-0.7c-0.2-0.3-0.5-0.5-0.7-0.8
							c-0.2-0.2-0.4-0.4-0.5-0.7c-0.3-0.3-0.5-0.7-0.8-1.1c-0.1-0.1-0.2-0.2-0.2-0.3c-0.3-0.4-0.5-0.7-0.8-1.1
							c-0.1-0.2-0.3-0.4-0.4-0.7c-0.2-0.3-0.3-0.5-0.5-0.8c-0.2-0.4-0.4-0.8-0.6-1.1c-0.1-0.2-0.3-0.5-0.4-0.7
							c-0.1-0.1-0.1-0.3-0.2-0.4c-0.1-0.3-0.3-0.6-0.4-0.9c-0.5-1.2-1-2.4-1.4-3.6c-0.2-0.4-0.3-0.9-0.5-1.4s-0.3-0.9-0.4-1.4
							c-0.1-0.3-0.2-0.5-0.2-0.8c-0.2-0.7-0.4-1.5-0.5-2.2c0-0.2-0.1-0.3-0.1-0.5c-0.1-0.4-0.2-0.8-0.2-1.2
							c-0.1-0.4-0.1-0.8-0.2-1.2c-0.1-0.4-0.1-0.9-0.2-1.3c0.3-3.7,1.4-7.4,3.3-10.6c4-7.5,11.2-13.6,18.3-18.4
							c1.6-0.8,3-1.6,4.3-2.2c-0.2,0.3-0.3,0.7-0.3,1.1c0.7,3,4.2,5.8,7.9,8.1c3.4,2,6.9,3.7,10.6,5.1c0.8-0.1,1.6-0.3,2.3-0.5
							C656.4,585.2,651.4,605.6,652.7,610.6z"/>
						<path id="Tracé_1493" d="M655.4,102.6c-0.5,0.7-1.3,4.8-5.7,5.8c-2.6,0.7-5.3,1.1-8,1.3c0,0,1.5-6.4,4.2-8
							S656,101.8,655.4,102.6z"/>
						<path id="Tracé_1494" class="st4" d="M681,143.6l-0.1,0c-3.2,0.7-6.5,1-9.8,0.8c-0.2,0-0.5,0-0.7-0.1s-0.5-0.1-0.7-0.1
							c-1.9-0.4-3.7-1-5.5-1.8c-0.8,2.2-1.8,4.3-3,6.4c-0.4,0.7-0.8,1.4-1.3,2.2c-0.1,0.2-0.2,0.4-0.4,0.6c-0.3,0.4-0.6,0.9-0.9,1.3
							c0,0,0,0.1-0.1,0.1c-0.2,0.3-0.4,0.6-0.6,0.8c-0.3,0.4-0.6,0.8-0.9,1.2c-0.6,0.7-1.3,1.5-2,2.2c-0.1,0.2-0.3,0.3-0.4,0.5
							L654,158c-0.2,0.2-0.5,0.4-0.7,0.7c-0.2,0.2-0.5,0.4-0.7,0.6c-1.1,1-2.3,2-3.6,2.8c-0.3,0.2-0.6,0.4-0.9,0.6
							c-0.4,0.3-0.9,0.6-1.3,0.8c-0.4,0.3-0.9,0.5-1.4,0.7c-0.5,0.3-1,0.5-1.5,0.7c-0.3,0.1-0.5,0.2-0.8,0.4
							c-0.2,0.1-0.4,0.2-0.6,0.2c-0.4,0.2-0.8,0.3-1.3,0.5c-0.7,0.2-1.4,0.5-2.1,0.7c-8.2,2.1-17,1.1-24.5-2.9c0,0-0.1,0-0.1-0.1
							c-0.2-0.1-0.4-0.2-0.7-0.3c-0.7-1.7-1.5-3.3-2.3-4.9l0-0.3c0,0,0.1,0.1,0.1,0.1c1.1,0.9,2.2,1.6,3.4,2.3
							c8.1,4.3,17.6,4.9,26.2,1.7c3.2-1.2,6.2-3,8.9-5.2c0.3-0.3,0.7-0.5,1-0.8c0.3-0.3,0.6-0.6,0.9-0.9s0.6-0.6,0.9-0.9
							c1.4-1.4,2.6-3,3.7-4.6c2.9-4.3,5-9.1,6.2-14.2l2,2.9C666.8,141.4,676.9,143,681,143.6z"/>
						<path id="Tracé_1495" class="st7" d="M640,559.5c-0.4,0.2-0.7,0.4-1.1,0.6c0.1-0.2,0.3-0.5,0.5-0.8
							C639.6,559.3,639.8,559.4,640,559.5z"/>
						
							<linearGradient id="Tracé_1496_1_" gradientUnits="userSpaceOnUse" x1="-434.4125" y1="789.5228" x2="-433.4255" y2="858.2528" gradientTransform="matrix(20.243 0 0 -5.541 9418.2939 5104.7842)">
							<stop  offset="0" style="stop-color:#82ACF5"/>
							<stop  offset="1" style="stop-color:#F8BDEC"/>
						</linearGradient>
						<path id="Tracé_1496" class="st11" d="M643.8,554c-1.6,1.7-3.1,3.4-4.4,5.3c-4.2-1.8-9.8-3.6-15.8-5.5
							C630.4,553.8,637.1,553.9,643.8,554z"/>
						<path id="Tracé_1497" class="st10" d="M639.4,559.3c-0.2,0.3-0.4,0.6-0.5,0.8c-1.3,0.6-2.7,1.4-4.3,2.2
							c-8,4.2-18.6,10.5-20.8,14.8c-0.5,1.2-0.9,2.4-1,3.7c-11.3,0-22.5-1.7-33.3-5.2c-3.9-1.8-7.1-5.4-5.3-9.4
							c2.8-3.1,6.9-8.3,8.3-12.8c0.5-1.3,0.6-2.6,0.4-3.9c-0.2-0.9-3-2.4-8-4.4c-1.1-0.5-2.4-0.9-3.8-1.5c4.1-1.8,11.5-4.3,19.7-2.7
							c2.2,0.5,4.4,1.2,6.4,2.2c0.1,0.2,0.3,0.4,0.4,0.6c0.5,0.8,1.1,1.5,1.8,2.2c5.1,5.1,13,6.3,20.7,7.7c1.2,0,2.3,0,3.5,0
							C629.6,555.7,635.2,557.4,639.4,559.3z"/>
						<path id="Tracé_1498" d="M633.3,149.3c-0.1,0.2-0.2,0.4-0.3,0.6c-0.3,0.4-0.6,0.9-0.9,1.3v0c-0.2,0.3-0.4,0.5-0.7,0.8
							c0,0,0,0,0,0c-0.2,0.3-0.5,0.5-0.7,0.8c-0.3,0.3-0.6,0.5-0.9,0.7c-0.1,0.1-0.3,0.2-0.4,0.3c-0.1,0.1-0.3,0.2-0.5,0.3
							c0,0,0,0,0,0h0c-0.1,0.1-0.2,0.1-0.3,0.2c-0.1,0.1-0.2,0.1-0.3,0.1c0,0-0.1,0-0.1,0.1c-0.2,0.1-0.5,0.2-0.7,0.2
							c-0.2,0.1-0.5,0.1-0.7,0.1c-1,0.2-2,0.1-3,0c-0.4-0.1-0.8-0.1-1.2-0.2c-0.2,0-0.4-0.1-0.6-0.1c-0.3-0.1-0.5-0.2-0.8-0.3
							c-0.1-0.1-0.3-0.1-0.4-0.2c-0.1-0.1-0.3-0.2-0.4-0.2c-0.1,0-0.1-0.1-0.2-0.1c-0.4-0.3-0.8-0.6-1.1-0.9
							c-0.8-0.8-1.4-1.8-1.9-2.8c0,0-0.1-0.1-0.1-0.2c-0.7-1.4-1.3-2.9-1.7-4.4c-0.1-0.2-0.1-0.5-0.1-0.7c0-0.1,0-0.2,0-0.3
							c0-0.2-0.1-0.3-0.1-0.5c-0.1-1.4,0.3-2.8,1.1-3.9c1.3-2,4.2-2.7,8.9-0.9c4-2.6,7.6-2,9.5,0.4
							C637.3,142.7,634.2,147.8,633.3,149.3z"/>
						<path id="Tracé_1499" class="st12" d="M625.2,420.5c-28.3,8.2-47.2,15.5-48.5,18.9c-15.7-1.6-30.7-3-45-4
							c-7.4-52.7,4.8-129.9-9-143.7c-7.5-7.5-17.6-33.5-26.9-61.6c-0.6-1.8-1.2-3.7-1.8-5.5c-5.6-17.5-10.9-35.4-15-49.9
							c-1.1-4-2.2-7.7-3.1-11.1c-3.1-11.4-5.1-18.9-5.3-19.6v0c17.2-2.1,32.6-3.3,46.2-3.9c0.4,2.5,1,5,1.7,7.4
							c0.6,2.2,1.4,4.3,2.4,6.3c1.6,3.1,34.5,17.5,42.9,4.8c0,0-7-2.3-10.9-18.7c7.2,0.2,13.3,0.7,18.5,1.2h0
							c6.6,0.5,13.2,1.4,19.7,2.8l0.4,3.5l5.2,49.3c-17.3,3.6-35.7,20.7-41.9,30.5c-6.9,11-5.2,23.9-3.4,33.1s13.7,11,13.7,11
							s6.9-1.8,5.2-9.2c0,0,5.2,1.8,6.9-1.8s1.7-16.5,6.9-22s6.9-3.7,6.9-3.7s5.1,5.5,10.3-1.8c5.2-7.4,5.2-5.5,5.2-5.5
							c9.3,3.6,18.3,8,27,13c0.2,17-6.6,33.4-10.8,50.8C617.8,309.8,622.1,379.8,625.2,420.5z"/>
						<path id="Tracé_1500" class="st13" d="M634.6,562.3c-7.1,4.8-14.3,10.9-18.3,18.4c-1.2,0.1-2.3,0.1-3.5,0.1
							c0.1-1.3,0.5-2.5,1-3.7C616,572.8,626.6,566.5,634.6,562.3z"/>
						<path id="Tracé_1501" class="st13" d="M623.6,553.7c-1.1,0-2.3,0-3.5,0c-7.7-1.3-15.6-2.5-20.7-7.7c-0.7-0.7-1.3-1.4-1.8-2.2
							c-0.2-0.2-0.3-0.4-0.4-0.6c0.2,0.1,0.5,0.2,0.8,0.4C606,547.9,615.3,551,623.6,553.7z"/>
						<path id="Tracé_1502" class="st4" d="M621.4,40.3c-0.3-1-0.7-1.9-1.1-2.8c-2-4.2-5.7-8.7-9.8-12.7l0,0
							c0.1,0.1,2.3-0.1,5.9-0.3c0.3,0,0.6,0,1-0.1c1.1,2,2,4.2,2.6,6.4c0.1,0.3,0.2,0.5,0.2,0.8C620.9,34.5,621.3,37.4,621.4,40.3z"
							/>
						<path id="Tracé_1503" d="M617.3,107.6c-0.8,0.5-3.6-2.1-5.4-3c-0.1-0.1-0.3-0.2-0.4-0.3s-0.3-0.2-0.5-0.3
							c-0.2-0.2-0.5-0.4-0.7-0.6c-0.2-0.2-0.4-0.4-0.7-0.6c-0.2-0.2-0.4-0.4-0.6-0.6c-0.2-0.2-0.3-0.3-0.5-0.5
							c-0.2-0.2-0.3-0.3-0.4-0.5c0,0,0,0,0,0c-0.1-0.1-0.2-0.2-0.3-0.4c0-0.1-0.1-0.1-0.1-0.2c-0.1-0.1-0.1-0.2-0.2-0.3
							c-0.3-0.4-0.5-0.9-0.4-1.5c0-0.2,0.2-0.3,0.3-0.4c0.1,0,0.1-0.1,0.2-0.1c0.1-0.1,0.3-0.1,0.5-0.1c2.6,0,5.1,0.7,7.1,2.2
							C617.6,102.4,617.4,107.5,617.3,107.6z"/>
						<path id="Tracé_1504" class="st13" d="M616.3,580.7c-1.8,3.3-2.9,6.9-3.3,10.6c-0.6-3.5-0.6-7-0.2-10.5
							C614,580.8,615.1,580.8,616.3,580.7z"/>
						
							<linearGradient id="Tracé_1505_1_" gradientUnits="userSpaceOnUse" x1="-437.8633" y1="854.7681" x2="-436.8633" y2="854.7681" gradientTransform="matrix(25.5315 0 0 -52.845 11770.3975 45340.457)">
							<stop  offset="0" style="stop-color:#7F0300"/>
							<stop  offset="1" style="stop-color:#93170A"/>
						</linearGradient>
						<path id="Tracé_1505" class="st14" d="M612.8,189.2c-0.4,0.6-0.8,1.1-1.2,1.7c-0.6,0.7-1.2,1.4-1.9,2.2c-1,1.1-2,2.1-3.1,3
							c-0.1,0-0.2,0-0.3,0c-0.2,0-0.4,0-0.6,0c-1.1,0-2-0.1-3-0.1c-2.1,0-4.2,0.2-6.2,0.7l-5.2-49.3l-0.4-3.5l5.3,1.2h0l5.9,1.3v0
							c1.5,3.7,3.6,5.7,6,8.6c0.6,0.7,1.2,1.4,1.8,2c0.3,0.3,0.7,0.6,1,0.9c0.1,0.1,0.3,0.2,0.4,0.4l0,0.3c0.9,1.6,1.7,3.2,2.3,4.9
							C616.6,169.9,618.8,180.1,612.8,189.2z"/>
						<path id="Tracé_1506" class="st4" d="M611.3,46.9c-2,1-3.4-1.5-4.3,1.2c-0.8,2.7-2.5,0.7-2.7,2.2c-0.2,1.4-2.3,0.1-2.6,0
							c-0.1,0.2-0.3,0.4-0.5,0.6c-1.8,2.3-7.1,0.4-7.1,0.9c0,0.6-2-2.5-3.8-1.3c-1.9,1.2-5.1-1.5-4.4-7.7s0.8-8.1,2.1-11.7
							s3.7-3.8,3.9-7.4c0.2-3.7,1-4.8,1-4.8c3.7,2.2,7.2,4.8,10.4,7.7c0.1,0.1,0.2,0.2,0.3,0.2s0.2,0.2,0.2,0.3
							c0.2,0.2,0.3,0.3,0.5,0.5c0.3,0.3,0.6,0.7,0.8,1c0.6,0.7,1,1.5,1.2,2.4C607.3,35.8,613.3,45.9,611.3,46.9z"/>
						<path id="Tracé_1507" class="st15" d="M996.2,275.8c13.2-6.7,6.9-124.9-40-15.3c-23.4,54.6-54.1,81.6-79,94.9
							c-17.3,9.2-31.7,11.9-39,12.7c-1.8,1.6-3.7,3-5.8,4.2c-2.5,1.5-5.2,2.6-8,3.4c0.6-0.4,1.2-0.7,1.8-1.2
							c1.8-1.2,3.4-2.7,4.9-4.3c0.6-0.7,1.2-1.3,1.7-2c0.6-0.8,1.2-1.7,1.8-2.5c0,0,0-0.1,0.1-0.1c13.3-26.6,1.2-90.7,1.2-90.7
							s-0.3-11.1-10.1-47.3c-0.8,0.5-1.5,1-2.2,1.3c-7.6,4.7-29,17.7-30.2,16.5c-1.4-1.4,14.4-14.7,14.2-17.2c0-0.1-0.1-0.2-0.1-0.3
							c-1.6-1.6-20.8,19.9-23.2,17.5c-1-1,2.6-5.1,7.1-9.7c-8.2,7.3-16.8,14.4-17.8,13.4c-1.8-1.8,23.6-27.4,28.7-32.4v0
							c-4.5,4.3-25.3,23.8-27,19.7c-1.9-4.6,24.8-28.2,25.3-28.7c1.3-1.9,8.9-5.9,16.8-9c-0.8-2.7-1.7-5.4-2.5-8.2
							c-6.1-19.6-16.4-37.6-27.8-53.3C767.7,110.6,745,91,733.8,82c0.5,2.7,0.8,5.5,0.9,8.3c0.2,3.3,0.1,6.5-0.1,9.8v0
							c-0.2,2.2-0.5,4.3-0.8,6.1c0.2-2.9,0.2-5.9-0.1-8.8v0c-0.3-2.9-0.9-5.8-1.8-8.6v0c-1.3-4.2-3-8.3-5.2-12.2v0
							c-8.5-15.2-22.1-26.6-28.1-33.7c-0.6-0.7-1-1.3-1.5-1.9c-7.7-11-33.7-10.8-45.5-14.7c-8.2-2.7-25-2.3-34.4-1.8
							c1.1,2,2,4.2,2.6,6.4c0.1,0.3,0.2,0.5,0.2,0.8c0.8,2.8,1.2,5.7,1.3,8.6c-0.3-1-0.7-1.9-1.1-2.8c-2-4.2-5.7-8.7-9.8-12.7l0,0
							c-4.3-4.3-9-8.1-14.1-11.3c-7.3-4.4-8.8,8.3-9.2,9.4c-0.8,3.1-1.8,6.2-3,9.2c-2.6,6.7-0.9,4.4-3,7.6s0.4,3.4-0.7,8.7
							s0.9,4.1,0.4,5.7c-0.4,1.6-0.7,6.9-1.9,13.1c-0.6,3.1-3,6.3-5.3,8.8c0.1,1.2,0.1,2.4,0.1,3.6c0.7,3,1.7,6,3.1,8.8
							c2.6,2.8,5.4,6,7.9,9.1c0.6,0.7,1.2,1.5,1.7,2.2c1,1.4,2,2.7,2.8,3.9c0.2,0.3,0.4,0.6,0.6,0.9s0.4,0.6,0.5,0.9
							c1.8,3.2,3.5,5.7,4.9,8.1c1,1.6,1.9,3.4,2.7,5.2c1.2,2.7,1.8,5.7,1.8,8.7v0.2c0,7,0.5,11.8,1.3,15.3c0.3,1.2,0.7,2.4,1.1,3.5
							v0c1.5,3.7,3.6,5.7,6,8.6c0.6,0.7,1.2,1.4,1.8,2c0.3,0.3,0.7,0.6,1,0.9c0.1,0.1,0.3,0.2,0.4,0.4c0,0,0.1,0.1,0.1,0.1
							c1.1,0.9,2.2,1.6,3.4,2.3c8.1,4.3,17.6,4.9,26.2,1.7c3.2-1.2,6.2-3,8.9-5.2c0.3-0.3,0.7-0.6,1-0.8s0.6-0.6,0.9-0.9
							s0.6-0.6,0.9-0.9c1.4-1.4,2.6-3,3.7-4.6c2.9-4.3,5-9.1,6.2-14.2l2,2.9c1.9,2.8,12,4.4,16.1,5l-0.1,0c-3.2,0.7-6.5,1-9.8,0.8
							c-0.2,0-0.5-0.1-0.7-0.1s-0.5-0.1-0.7-0.1c-1.9-0.4-3.7-1-5.5-1.8c-0.8,2.2-1.8,4.3-3,6.4c-0.4,0.7-0.8,1.4-1.3,2.2
							c-0.1,0.2-0.2,0.4-0.4,0.6c-0.3,0.4-0.6,0.9-0.9,1.3c0,0,0,0.1-0.1,0.1c-0.2,0.3-0.4,0.6-0.6,0.8c-0.3,0.4-0.6,0.8-0.9,1.2
							c-0.6,0.7-1.3,1.5-2,2.2c-0.1,0.2-0.3,0.3-0.4,0.5L654,158c-0.2,0.2-0.5,0.4-0.7,0.7c-0.2,0.2-0.5,0.4-0.7,0.6
							c-1.1,1-2.3,2-3.6,2.8c-0.3,0.2-0.6,0.4-0.9,0.6c-0.4,0.3-0.9,0.6-1.3,0.8c-0.4,0.3-0.9,0.5-1.4,0.7c-0.5,0.3-1,0.5-1.5,0.7
							c-0.3,0.1-0.5,0.2-0.8,0.4c-0.2,0.1-0.4,0.2-0.6,0.2c-0.4,0.2-0.8,0.3-1.3,0.5c-0.7,0.2-1.4,0.5-2.1,0.7
							c-8.2,2.1-17,1.1-24.5-2.9c0,0-0.1,0-0.1-0.1c-0.2-0.1-0.4-0.2-0.7-0.3c2.7,6.6,5,16.7-1,25.9c-0.4,0.6-0.8,1.1-1.2,1.7
							c0.8,0.1,1.5,0.3,2.3,0.4c1.3,0.2,2.6,0.5,3.9,0.8c1.1,0.2,2.2,0.5,3.4,0.7c0.4,0.1,0.8,0.2,1.2,0.3c0.4,0.1,0.8,0.2,1.2,0.3
							c1.7,0.4,3.4,0.9,5.2,1.4c1,0.3,2,0.6,3,0.9c1,0.3,2,0.6,2.9,0.9c1,0.3,1.9,0.6,2.9,0.9c0.2,0.1,0.5,0.2,0.7,0.2
							c0.4,0.1,0.8,0.3,1.2,0.4c0.3,0.1,0.6,0.2,0.9,0.3c0.6,0.2,1.1,0.4,1.6,0.6s1,0.4,1.5,0.6c1.4,0.5,2.7,1.1,4.1,1.6
							c1,0.4,1.9,0.8,2.9,1.2c2.5,1.1,4.8,2.2,7.1,3.3c0.9,0.5,1.9,0.9,2.8,1.4c0.6,0.3,1.1,0.6,1.7,0.9c0.3,0.2,0.7,0.4,1,0.5
							c-0.3-0.1-0.6-0.2-0.9-0.4c-0.1,0-0.1,0-0.1-0.1c-0.7-0.3-1.4-0.5-2-0.8c-0.2-0.1-0.5-0.2-0.8-0.3c-0.4-0.2-0.9-0.3-1.3-0.5
							c-1-0.4-1-0.4-1.1-0.4c-0.1,0-0.1,0-0.1-0.1c-0.2,0-0.3-0.1-0.5-0.2h0c-0.1,0-0.2-0.1-0.2-0.1c0,0-0.1,0-0.1,0
							c-0.1,0-0.1,0-0.2-0.1c-9.1-2.6-17-4.4-23.7-5.8c-0.8-0.2-1.6-0.3-2.3-0.5c-0.7-0.1-1.4-0.3-2-0.4c-0.3-0.1-0.6-0.1-0.9-0.2
							c-0.7-0.1-1.4-0.3-2.1-0.4c-0.8-0.1-1.6-0.3-2.4-0.4c-1.1-0.2-2.2-0.4-3.1-0.5c-0.7-0.1-1.4-0.2-2-0.3c0,0-0.1,0-0.1,0
							c-0.1,0-0.2,0-0.3,0h0c-0.8-0.1-1.5-0.2-2.2-0.3c-0.1,0-0.2,0-0.3,0c-1.2-0.1-2.4-0.3-3.6-0.4c-0.3,0-0.5-0.1-0.7-0.1
							c-0.2,0-0.4,0-0.6-0.1c-0.2,0-0.4,0-0.7,0c-0.1,0-0.2,0-0.3,0c-0.2,0-0.4,0-0.6,0c-0.2,0-0.4,0-0.4,0h-0.2
							c-0.3,0-0.6,0-0.9-0.1c-0.1,0-0.2,0-0.3,0c-0.2,0-0.4,0-0.6,0c-1.1,0-2-0.1-3-0.1c-2.1,0-4.2,0.2-6.2,0.7
							c-17.3,3.6-35.7,20.7-41.9,30.5c-6.9,11-5.2,23.9-3.4,33.1c1.7,9.2,13.7,11,13.7,11s6.9-1.8,5.2-9.2c0,0,5.2,1.8,6.9-1.8
							s1.7-16.5,6.9-22s6.9-3.7,6.9-3.7s5.1,5.5,10.3-1.8c5.2-7.4,5.2-5.5,5.2-5.5c9.3,3.6,18.3,8,27,13c15.5,9,32.9,22.2,38.2,38.5
							c3.8,11.4,12.1,11.3,21.1,5.6v0h0c5-3.4,9.6-7.4,13.5-12.1c7.5-8.7,13.9-19.3,16.2-27.7c0.4-3.2,0.6-5.9,0.7-8.1
							c0.4,2.7,0.1,5.5-0.7,8.1c-1.6,11.8-5.6,23.2-12,33.3c-2.8,4.5-6.1,8.6-9.8,12.4c-1.5,1.5-2.8,2.8-4.2,4l6,16
							c1.6-0.8,3.3-1.6,5-2.2c5.5-2.2,11.4-3.4,17.3-3.5c2.3,0,4.6,0.1,6.8,0.3c0.4,0,0.7,0.1,1,0.1c0.5,0.1,1,0.1,1.5,0.2
							c0,0,0,0,0.1,0c0.6,0.1,1.2,0.2,1.8,0.3c0.5,0.1,1,0.2,1.4,0.3c0.5,0.1,0.9,0.2,1.4,0.3c1.1,0.3,2.1,0.6,3.1,0.9
							c0.5,0.2,0.9,0.3,1.4,0.5c0.2,0.1,0.4,0.1,0.6,0.2c1,0.4,2,0.8,2.9,1.2c0.6,0.3,1.2,0.6,1.8,0.9c0.7,0.3,1.3,0.7,2,1
							c0.3,0.2,0.6,0.4,0.9,0.5c0.1,0.1,0.2,0.1,0.4,0.2c0.3,0.1,0.5,0.3,0.8,0.5c1.6,0.9,3.1,1.9,4.4,2.9c0.2,0.1,0.4,0.3,0.6,0.4
							c1.2,0.9,2.3,1.8,3.3,2.6c0.3,0.2,0.6,0.5,0.8,0.7c0.7,0.5,1.3,1.1,1.8,1.6c0.2,0.2,0.4,0.4,0.7,0.6c0.2,0.1,0.3,0.3,0.4,0.4
							c0.4,0.4,0.8,0.8,1.1,1.1c-1.3-1.2-2.6-2.3-4-3.4c-0.3-0.2-0.6-0.5-0.9-0.7c-1-0.7-2-1.4-3.2-2.2c-0.3-0.2-0.7-0.4-1-0.6
							c-0.4-0.2-0.7-0.4-1.1-0.6c-0.3-0.2-0.7-0.4-1-0.5s-0.7-0.4-1-0.5h0c-0.5-0.3-1.1-0.5-1.6-0.8c-0.9-0.4-1.8-0.8-2.8-1.2
							c-0.4-0.2-0.8-0.3-1.2-0.4h0c-0.4-0.1-0.8-0.3-1.2-0.4h0c-0.4-0.1-0.8-0.3-1.3-0.4s-0.8-0.2-1.3-0.4c-1.8-0.5-3.6-0.8-5.4-1
							c-0.2,0-0.5,0-0.7-0.1c-1.3-0.1-2.5-0.2-3.9-0.2c-0.5,0-1,0-1.5,0c-0.2,0-0.3,0-0.5,0c-0.5,0-1,0.1-1.6,0.1
							c-0.1,0-0.2,0-0.2,0c-0.6,0.1-1.1,0.1-1.7,0.2s-1.1,0.2-1.7,0.3c-1.9,0.3-3.7,0.8-5.5,1.4c-0.4,0.1-0.9,0.3-1.3,0.5
							c-2.4,0.8-4.7,1.9-6.9,3.1c-2.6,1.4-5.1,3-7.4,4.8v0c-4.5,3.4-8.6,7.3-12.4,11.5c-26.2,29.2-8.2,54.3,10.3,70.3
							c1.6,1.4,3.2,2.7,4.8,4c7.9,6.3,15.2,10.7,18.3,13c10.6,7.8,7.8,20.7,7.8,24.8s-24.4,7.3-35.6,25.3s-2.2,23.4-2.2,23.4
							c1.2,2.5,2.6,4.9,4.3,7.2c0.7,0.9,1.5,1.9,2.3,2.7c23-18.2,49.3-37,74-51.2c0.5-1.6,0.8-3.3,0.9-5c1.3-13-4-31,0-35
							c4.6-4.5,20-21.9,33.6-22.9c2.9-0.3,5.9,0.4,8.4,1.8c11.4,6.6,40.5,0.6,56.6-3.2c5.1-1.2,8.9-2.2,10.4-2.5
							c6.3-1.2,16-6.7,22.9-8.6s16.6-14.7,25.7-17.1c5.4-1.4,8.8-3.8,13.1-5.1c3.5-1.1,7.3-1.5,10.9-1c11.4,1.2,2.9-11,8.6-14.1
							c5.7-3.1,18.3-16.5,22.9-19c4.6-2.4-2.9-7.3,2.3-10.4c5.2-3.1-5.2-12.3,4-13.2c7.6-0.8,1.4-13.5-0.9-17.8
							C996.5,276.4,996.2,275.8,996.2,275.8z M604.3,50.3c-0.2,1.4-2.3,0.1-2.6,0c-0.1,0.2-0.3,0.4-0.5,0.6
							c-1.8,2.3-7.1,0.4-7.1,0.9c0,0.6-2-2.5-3.8-1.3c-1.9,1.2-5.1-1.5-4.4-7.7s0.8-8.1,2.1-11.7s3.7-3.8,3.9-7.4
							c0.2-3.7,1-4.8,1-4.8c3.7,2.2,7.2,4.8,10.4,7.7c0.1,0.1,0.2,0.2,0.3,0.2c0.1,0.1,0.2,0.2,0.2,0.3c0.2,0.2,0.3,0.3,0.5,0.5
							c0.3,0.3,0.6,0.7,0.8,1c0.6,0.7,1,1.5,1.2,2.4c1,4.7,7,14.8,5.1,15.8c-2,1-3.4-1.5-4.3,1.2C606.2,50.8,604.5,48.8,604.3,50.3z
							 M611.8,104.6c-0.1-0.1-0.3-0.2-0.4-0.3s-0.3-0.2-0.5-0.3c-0.2-0.2-0.5-0.4-0.7-0.6c-0.2-0.2-0.4-0.4-0.7-0.6
							c-0.2-0.2-0.4-0.4-0.6-0.6c-0.2-0.2-0.3-0.3-0.5-0.5c-0.2-0.2-0.3-0.3-0.4-0.5c0,0,0,0,0,0c-0.1-0.1-0.2-0.2-0.3-0.4
							c0-0.1-0.1-0.1-0.1-0.2c-0.1-0.1-0.1-0.2-0.2-0.3c-0.3-0.4-0.5-0.9-0.4-1.5c0-0.2,0.2-0.3,0.3-0.4c0.1,0,0.1-0.1,0.2-0.1
							c0.1-0.1,0.3-0.1,0.5-0.1c2.6,0,5.1,0.7,7.1,2.2c2.4,1.9,2.2,7,2,7.1C616.5,108.1,613.6,105.5,611.8,104.6L611.8,104.6z
							 M633.3,149.3c-0.1,0.2-0.2,0.4-0.3,0.6c-0.3,0.4-0.6,0.9-0.9,1.3v0c-0.2,0.3-0.4,0.5-0.7,0.8c0,0,0,0,0,0
							c-0.2,0.3-0.5,0.5-0.7,0.8c-0.3,0.3-0.6,0.5-0.9,0.7c-0.1,0.1-0.3,0.2-0.4,0.3c-0.1,0.1-0.3,0.2-0.5,0.3c0,0,0,0,0,0h0
							c-0.1,0.1-0.2,0.1-0.3,0.2c-0.1,0.1-0.2,0.1-0.3,0.1c0,0-0.1,0-0.1,0.1c-0.2,0.1-0.5,0.2-0.7,0.2c-0.2,0.1-0.5,0.1-0.7,0.1
							c-1,0.2-2,0.1-3,0c-0.4-0.1-0.8-0.1-1.2-0.2c-0.2,0-0.4-0.1-0.6-0.1c-0.3-0.1-0.5-0.2-0.8-0.3c-0.1-0.1-0.3-0.1-0.4-0.2
							c-0.1-0.1-0.3-0.2-0.4-0.2c-0.1,0-0.1-0.1-0.2-0.1c-0.4-0.3-0.8-0.6-1.1-0.9c-0.8-0.8-1.4-1.8-1.9-2.8c0,0-0.1-0.1-0.1-0.2
							c-0.7-1.4-1.3-2.9-1.7-4.4c-0.1-0.2-0.1-0.5-0.1-0.7c0-0.1,0-0.2,0-0.3c0-0.2-0.1-0.3-0.1-0.5c-0.1-1.4,0.3-2.8,1.1-3.9
							c1.3-2,4.2-2.7,8.9-0.9c4-2.6,7.6-2,9.5,0.4C637.3,142.7,634.2,147.8,633.3,149.3L633.3,149.3z M655.4,102.6
							c-0.5,0.7-1.3,4.8-5.7,5.8c-2.6,0.7-5.3,1.1-8,1.3c0,0,1.5-6.4,4.2-8S656,101.8,655.4,102.6L655.4,102.6z M683.7,63.9
							c-0.5,7.2-2.9,9-3.5,10.5c-0.1,0.3-0.1,0.7,0,1.1c0.2,0.6-0.4,0.8-1.4,0.6c-1.3-0.2-2.6-0.7-3.7-1.4c0,0-0.1,0-0.1,0
							c-0.3-0.2-0.7-0.5-1-0.7c-0.7-0.5-1.1-1.3-1.1-2.2c0-0.1,0-0.2,0-0.4c0.2-0.8,0.4-1.3,0.5-1.7c0.4-1.4,0.2-1.2-1.4-3.4
							c-2.1-2.8-3.6-2.1-4.6-1.4s1-5-3.1-3.1c-0.4,0.2-0.9,0.4-1.3,0.5c-2.5,0.6-2.4-1.3-2.3-1.6v-0.1c0,0,0-0.1,0-0.1
							c0-0.1,0-0.1,0.1-0.1c0,0,0-0.1,0-0.1c0.1-0.1,0.1-0.3,0.3-0.5c0-0.1,0.1-0.2,0.1-0.3c0.1-0.2,0.2-0.4,0.4-0.7
							c0.1-0.1,0.1-0.2,0.2-0.3c0.1-0.1,0.2-0.3,0.3-0.5c0.1-0.1,0.2-0.3,0.3-0.4c0.2-0.3,0.4-0.6,0.6-0.9c0.5-0.8,1.1-1.8,1.7-2.7
							c0.1-0.2,0.3-0.5,0.5-0.7c0.8-1.3,1.8-2.6,2.7-3.8c0.1-0.1,0.2-0.2,0.3-0.4c0.1-0.2,0.2-0.3,0.3-0.4c0.2-0.2,0.3-0.4,0.5-0.6
							c0.8-1,1.6-2,2.6-3l0.1-0.1c0.2-0.2,0.4-0.4,0.7-0.6c0.1,0,0.1-0.1,0.2-0.1c0.2-0.1,0.4-0.3,0.6-0.4c4.2-1.8,8.9-6.8,8.4-3.6
							s-1.2,3.2,0.6,5.2l0.2,0.2l0.3,0.4c0.1,0.1,0.1,0.1,0.2,0.2s0.1,0.1,0.1,0.1c0.2,0.2,0.4,0.4,0.5,0.5c0,0,0.1,0,0.1,0.1
							c0.3,0.3,0.4,0.6,0.5,0.9c0,0.1,0,0.1,0.1,0.2c0.1,0.3,0.2,0.6,0.3,1.1c0.5,2.4-0.2,1.8,0.5,3c0.7,1.3-1.3-0.1,0,4.4
							S684.4,54.9,683.7,63.9L683.7,63.9z M691.1,67.6c-1.1,4.7-0.2,5.7-1.6,10.8c-0.3,1-0.4,1.8-0.5,2.2l-1.3-0.9
							c0.1-0.3,0.2-1,0.7-3.1c1.3-4.8,0.4-5.7,1.5-10.1s-0.2-5.5,0-8.5s-2.8-3.7-2-6.2c0.2-0.4,0.2-0.9,0.2-1.4c0-0.1,0-0.2-0.1-0.3
							c0-0.1,0-0.1-0.1-0.2c0-0.1-0.1-0.2-0.1-0.2c0-0.1-0.1-0.1-0.1-0.2c-0.1-0.1-0.1-0.2-0.2-0.3c0-0.1-0.1-0.2-0.1-0.3
							s-0.1-0.2-0.1-0.3c0-0.1-0.1-0.2-0.1-0.3c-0.1-0.5-0.2-1-0.3-1.5c-0.1-0.7-0.1-1.3-0.1-2c0-5.3-0.4-7.8-6.9-8.7
							c-5.6-0.8-19.9,16.5-23.7,21.2l-0.5-0.4c4.8-5.9,19-22.8,24.7-22c6.9,1,7.4,3.7,7.4,9.3c0,0.7,0,1.4,0.1,2.1
							c0.1,1.2,0.5,2.3,1,3.3c0,0,0,0.1,0,0.1c0,0.1,0,0.1,0.1,0.2c0,0.1,0,0.2,0,0.2c0,0.5,0,1-0.2,1.4c-0.8,2.7,2.4,3.4,2.2,6.6
							S692.3,62.9,691.1,67.6L691.1,67.6z"/>
						<path id="Tracé_1508" class="st4" d="M691.1,67.6c-1.1,4.7-0.2,5.7-1.6,10.8c-0.3,1-0.4,1.8-0.5,2.2l-1.3-0.9
							c0.1-0.3,0.2-1,0.7-3.1c1.3-4.8,0.4-5.7,1.5-10.1s-0.2-5.5,0-8.5s-2.8-3.7-2-6.2c0.2-0.4,0.2-0.9,0.2-1.4c0-0.1,0-0.2-0.1-0.3
							c0-0.1,0-0.1-0.1-0.2c0-0.1-0.1-0.2-0.1-0.2c0-0.1-0.1-0.1-0.1-0.2c-0.1-0.1-0.1-0.2-0.2-0.3c0-0.1-0.1-0.2-0.1-0.3
							s-0.1-0.2-0.1-0.3c0-0.1-0.1-0.2-0.1-0.3c-0.1-0.5-0.2-1-0.3-1.5c-0.1-0.7-0.1-1.3-0.1-2c0-5.3-0.4-7.8-6.9-8.7
							c-5.6-0.8-19.9,16.5-23.7,21.2l-0.5-0.4c4.8-5.9,19-22.8,24.7-22c6.9,1,7.4,3.7,7.4,9.3c0,0.7,0,1.4,0.1,2.1
							c0.1,1.2,0.5,2.3,1,3.3c0,0,0,0.1,0,0.1c0,0.1,0,0.1,0.1,0.2c0,0.1,0,0.2,0,0.2c0,0.5,0,1-0.2,1.4c-0.8,2.7,2.4,3.4,2.2,6.6
							S692.3,62.9,691.1,67.6z"/>
						<path id="Tracé_1509" class="st4" d="M683.7,63.9c-0.5,7.2-2.9,9-3.5,10.5c-0.1,0.3-0.1,0.7,0,1.1c0.2,0.6-0.4,0.8-1.4,0.6
							c-1.3-0.2-2.6-0.7-3.7-1.4c0,0-0.1,0-0.1,0l-1-0.7c-0.7-0.5-1.1-1.3-1.1-2.2c0-0.1,0-0.2,0.1-0.4c0.2-0.8,0.4-1.3,0.5-1.7
							c0.4-1.4,0.2-1.2-1.4-3.4c-2.1-2.8-3.6-2.1-4.6-1.4s1-5-3.1-3.1c-0.4,0.2-0.9,0.4-1.3,0.5c-2.5,0.6-2.4-1.3-2.3-1.6v-0.1
							c0,0,0-0.1,0-0.1c0-0.1,0-0.1,0.1-0.1c0,0,0-0.1,0-0.1c0.1-0.1,0.1-0.3,0.3-0.5c0-0.1,0.1-0.2,0.1-0.3
							c0.1-0.2,0.2-0.4,0.4-0.7c0.1-0.1,0.1-0.2,0.2-0.3c0.1-0.1,0.2-0.3,0.3-0.5c0.1-0.1,0.2-0.3,0.3-0.4c0.2-0.3,0.4-0.6,0.6-0.9
							c0.5-0.8,1.1-1.8,1.7-2.7c0.1-0.2,0.3-0.5,0.5-0.7c0.8-1.3,1.8-2.6,2.7-3.8c0.1-0.1,0.2-0.2,0.3-0.4c0.1-0.2,0.2-0.3,0.3-0.4
							c0.2-0.2,0.3-0.4,0.5-0.6c0.8-1,1.6-2,2.6-3l0.1-0.1c0.2-0.2,0.4-0.4,0.7-0.6c0.1,0,0.1-0.1,0.2-0.1c0.2-0.1,0.4-0.3,0.6-0.4
							c4.2-1.8,8.9-6.8,8.4-3.6s-1.2,3.2,0.6,5.2l0.2,0.2l0.3,0.4c0.1,0.1,0.1,0.1,0.2,0.2s0.1,0.1,0.1,0.1c0.2,0.2,0.4,0.4,0.5,0.5
							c0,0,0.1,0,0.1,0.1c0.3,0.3,0.4,0.6,0.5,0.9c0,0.1,0,0.1,0.1,0.2c0.1,0.3,0.2,0.6,0.3,1.1c0.5,2.4-0.2,1.8,0.5,3
							c0.7,1.3-1.3-0.1,0,4.4S684.4,54.9,683.7,63.9z"/>
						<path id="Tracé_1510" class="st16" d="M599.8,127.3c-2.4,3.6-5.6,6.5-9.3,8.5c-5.8,3.1-12.4,4.4-18.9,3.7
							c-2.8-0.3-5.6-0.9-8.3-1.8l-9-15.8l-1.2-2.2c0.6-2,1.3-3.9,2.3-5.8c0.1-0.2,0.2-0.4,0.3-0.6c0.1-0.1,0.1-0.1,0.1-0.2
							c3-0.2,5.2-0.7,6.2-1.2c3.7-2.2,10.3-12.2,11.6-27c1,1.1,2.1,2.3,3.3,3.6c2.6,2.8,5.4,6,7.9,9.1c0.6,0.7,1.2,1.5,1.7,2.2
							c1,1.4,2,2.7,2.8,3.9c0.2,0.3,0.4,0.6,0.6,0.9s0.4,0.6,0.5,0.9c1.8,3.2,3.5,5.7,4.9,8.1c-2.4,0-4.8-0.2-7.1-0.5
							c-6.8-0.9-10.4-2-12.3-3c3.1,3.8,10.1,9.9,22.2,8.7C599.2,121.4,599.8,124.3,599.8,127.3z"/>
						<path id="Tracé_1511" class="st7" d="M734.6,442.9c0,4.1-24.4,7.3-35.6,25.3s-2.2,23.4-2.2,23.4c1.2,2.5,2.6,4.9,4.3,7.2
							L666.3,524c-59.3,11.8-66.1,2.5-66.1,2.5c-0.1,0.1-0.2,0.2-0.2,0.2s-0.2,0.1-0.2,0.2c-0.2,0.1-0.3,0.3-0.5,0.4
							s-0.3,0.2-0.5,0.4c-0.3,0.2-0.7,0.4-1,0.6c-0.2,0.1-0.3,0.2-0.5,0.3s-0.3,0.2-0.5,0.3c-0.1,0.1-0.3,0.1-0.4,0.2
							c-0.2,0.1-0.4,0.2-0.7,0.3c-0.4,0.1-0.7,0.3-1.1,0.4c-0.2,0.1-0.5,0.2-0.7,0.2c-0.2,0.1-0.4,0.1-0.7,0.2s-0.4,0.1-0.7,0.2
							c-0.3,0.1-0.6,0.1-1,0.2c-0.4,0.1-0.9,0.2-1.3,0.2s-0.9,0.1-1.4,0.2s-1,0.1-1.4,0.2s-1,0.1-1.5,0.1s-1,0.1-1.6,0.1
							c-0.5,0-1,0-1.6,0.1c-1.3,0-2.6,0-4,0c-0.8,0-1.6-0.1-2.4-0.1s-1.6-0.1-2.5-0.1c-1-0.1-1.9-0.1-2.9-0.2
							c-0.6,0-1.2-0.1-1.8-0.2s-1.2-0.1-1.8-0.2l-1.6-0.2c-0.5-0.1-1.1-0.1-1.6-0.2c-0.6-0.1-1.2-0.1-1.8-0.2
							c-0.4-0.1-0.9-0.1-1.3-0.2c-0.9-0.1-1.8-0.3-2.7-0.4c-0.4-0.1-0.9-0.1-1.4-0.2l-1.9-0.3c-0.7-0.1-1.5-0.2-2.2-0.4
							c-2.6-0.4-5.3-0.9-8.1-1.4c-0.8-0.1-1.6-0.3-2.4-0.4c-1.4-0.3-2.7-0.5-4.1-0.8c-0.8-0.2-1.6-0.3-2.5-0.5
							c-0.2,0-0.4-0.1-0.6-0.1c-1.1-0.2-2.2-0.5-3.3-0.7c-1-0.2-2-0.4-3-0.6l-1.4-0.3c-3.1-0.7-6.2-1.3-9.4-2
							c-1.2-0.3-2.3-0.5-3.5-0.8c-1.7-0.4-3.5-0.8-5.3-1.2c-1.2-0.3-2.3-0.5-3.5-0.8c-1.8-0.4-3.5-0.8-5.3-1.2v0
							c-1.8-0.4-3.5-0.8-5.3-1.2c-3.2-0.7-6.5-1.5-9.7-2.2c-0.9-0.2-1.8-0.4-2.6-0.6c-1.2-0.3-2.3-0.5-3.5-0.8
							c-51.2-11.5-101.3-12.3-113-11.4c-11.3,0.9-23.5,6.4-24.2,6.8c0.5-0.2,0.9-0.4,1.4-0.5c0.3-0.1,0.6-0.2,1-0.3l0.1,0
							c0.4-0.1,0.7-0.2,1.1-0.3c1.1-0.3,2.4-0.6,3.6-0.9c0.5-0.1,1.1-0.2,1.7-0.3c0.8-0.1,1.5-0.3,2.3-0.4c0.3-0.1,0.7-0.1,1-0.1
							c1.1-0.2,2.2-0.3,3.4-0.4c0.4,0,0.7-0.1,1.1-0.1c0.5-0.1,1.1-0.1,1.6-0.1c0.5,0,1-0.1,1.4-0.1c1.4-0.1,2.9-0.2,4.4-0.2
							c0.4,0,0.8,0,1.1,0c0.4,0,0.8,0,1.2,0l1.1,0c3.1-0.1,6.3,0,9.7,0.1c0.5,0,1,0,1.6,0c0.5,0,1,0,1.5,0.1c1.1,0,2.2,0.1,3.3,0.2
							c0.6,0,1.2,0.1,1.8,0.1c0.1,0,0.2,0,0.4,0c0.5,0,1,0.1,1.5,0.1c0.6,0,1.3,0.1,1.9,0.1s1.3,0.1,1.9,0.1
							c0.8,0.1,1.7,0.1,2.5,0.2l1.9,0.2c3.6,0.3,7.4,0.7,11.2,1.2c0.6,0.1,1.1,0.1,1.7,0.2c1.7,0.2,3.4,0.4,5.1,0.6
							c0.6,0.1,1.1,0.1,1.7,0.2s1.1,0.1,1.7,0.2c1.1,0.2,2.3,0.3,3.5,0.5l1.7,0.3c0.6,0.1,1.2,0.2,1.8,0.3c0.9,0.1,1.7,0.3,2.6,0.4
							s1.8,0.3,2.7,0.4l0.3,0c1.1,0.2,2.2,0.3,3.3,0.5c1.1,0.2,2.1,0.3,3.2,0.5l2.1,0.4c0.6,0.1,1.2,0.2,1.8,0.3
							c0.8,0.1,1.7,0.3,2.5,0.4c1.1,0.2,2.1,0.4,3.2,0.6l2.2,0.4c5.9,1.1,11.7,2.2,17.6,3.4c0.7,0.1,1.5,0.3,2.2,0.5
							c2.9,0.6,5.8,1.2,8.7,1.8c1.4,0.3,2.9,0.6,4.3,1c0.7,0.2,1.4,0.3,2.2,0.5c0,0,0.1,0,0.1,0c1.4,0.3,2.8,0.6,4.2,0.9
							c0.3,0.1,0.7,0.2,1,0.2c1.7,0.4,3.5,0.8,5.2,1.2c0,0,0.1,0,0.1,0c0.7,0.2,1.4,0.3,2.1,0.5c2.8,0.7,5.5,1.3,8.3,2
							c1.7,0.4,3.5,0.9,5.2,1.3c1.3,0.3,2.5,0.6,3.8,1c1,0.2,1.9,0.5,2.8,0.7s1.9,0.5,2.8,0.7c0.6,0.2,1.2,0.3,1.8,0.5
							s1.2,0.3,1.8,0.5c2.2,0.6,4.4,1.2,6.5,1.8c0.6,0.2,1.2,0.3,1.9,0.5l1.5,0.4c1,0.3,1.9,0.5,2.9,0.8c1.4,0.4,2.8,0.8,4.2,1.2
							c0.9,0.3,1.8,0.5,2.7,0.8c3.9,1.1,7.6,2.2,11,3.3c0.3,0.1,0.6,0.2,0.9,0.3c0.9,0.3,1.8,0.6,2.7,0.8c0.6,0.2,1.2,0.4,1.7,0.6
							c1.3,0.4,2.6,0.8,3.9,1.3c0.3,0.1,0.7,0.2,1,0.3c0.1,0,0.3,0.1,0.4,0.1c0.8,0.3,1.6,0.6,2.4,0.8c1.2,0.4,2.4,0.8,3.5,1.2
							c1.4,0.5,2.6,1,3.8,1.5c5,2,7.9,3.5,8,4.4c0.2,1.3,0,2.7-0.4,3.9c-1.4,4.5-5.5,9.7-8.3,12.8c-1.6,1.8-2.7,2.9-2.7,2.9
							c-1.3,0.3-2.7,0.6-4,0.9c-3.9,0.9-7.9,1.6-12,2.3h0c-56.1,9.6-133.3,4.3-192.2-4.1c-6.4-0.9-24.9-4.9-44.3-11.3
							c-24.4-8-50.4-19.9-56.3-34.6c-8.7-21.8-3.1-44.5,25.6-61.7c1.6-1,3.3-1.9,5.1-2.9c0.6-0.3,1.2-0.6,1.8-0.9
							c0.6-0.3,1.3-0.6,1.9-1c9.3-4.4,19-8,29-10.7c0.7-0.2,1.4-0.4,2.1-0.6c0.7-0.2,1.4-0.4,2-0.5c26.8-7,62.1-11.3,107.5-12
							c1.3,0.1,2.7,0.2,4,0.3c0.9,0.1,1.8,0.1,2.8,0.2c1.4,0.1,2.8,0.2,4.2,0.3c1.9,0.1,3.8,0.3,5.8,0.4c0.1,0,0.3,0,0.4,0l5.1,0.4
							l0.3,0c1.2,0.1,2.5,0.2,3.7,0.3c2.9,0.2,5.8,0.4,8.6,0.7c0.9,0.1,1.9,0.1,2.8,0.2c0,0,0.1,0,0.1,0l2.8,0.2
							c2.8,0.2,5.6,0.5,8.3,0.7c0.6,0.1,1.2,0.1,1.8,0.2c0.2,0,0.4,0,0.6,0.1c1.2,0.1,2.4,0.2,3.5,0.3c1.1,0.1,2.2,0.2,3.2,0.3
							c0.3,0,0.6,0.1,0.9,0.1c1.8,0.2,3.5,0.4,5.1,0.6c0.5,0.1,1.1,0.1,1.6,0.2c2,0.2,3.9,0.5,5.6,0.7c0.3,0,0.6,0.1,0.9,0.1
							s0.6,0.1,0.8,0.1s0.6,0.1,0.8,0.1s0.5,0.1,0.8,0.1c0,2.7-0.2,5.3-0.5,8c0.4-2.6,0.7-5.3,0.8-7.9c2.8,0.4,5.2,0.9,6.9,1.3
							c3.9,1,8.6,2,13.6,3.2c20.4,4.6,46.4,10.4,51.7,16.4c-0.1-0.6-1.4-8.8,27.9-20.5c3.7-1.4,8.3-3.3,13.7-5.4
							c19.2-7.6,48.4-18.7,82.2-28.5c7.9,6.3,15.2,10.7,18.3,13C737.3,425.9,734.6,438.8,734.6,442.9z"/>
						<path id="Tracé_1512" class="st13" d="M579.6,575.5c-4.2-1.4-8.3-3.2-12.1-5.5c1.4-0.3,2.7-0.6,4-0.9c0,0,1.2-1.1,2.7-2.9
							C572.4,570.1,575.7,573.7,579.6,575.5z"/>
						<path id="Tracé_1513" class="st16" d="M571.3,63.1c-0.1-0.2-0.1-0.5-0.2-0.7c-0.2-0.7-0.5-1.4-0.7-2.1c0,0,0,0,0-0.1
							c0.3,0,0.5-0.1,0.8-0.2c-0.3-0.1-0.6-0.2-0.9-0.3v0c-1.7-4.9-3.6-8.9-4.6-12.6c-0.4-1.3-0.6-2.6-0.7-3.9
							c-0.4-8.5-11.8-17-17.8-19.7c-4-1.9-8.4-3-12.8-3.4c0,0,0,0,0.1,0c-7,8.4-12.5,18-16.4,28.3c-3,8.4-4.8,17.9-3.1,27.3
							c0.4,2.5,0.7,5.1,0.8,7.6c0.1,3.7,0,7.4-0.5,11c-0.2,1.3-0.4,2.6-0.6,4c-0.3,1.8-0.7,3.5-1.2,5.2v0
							c-5.1,18.2-17.9,32.4-35.4,27.9l-23.8-22.3c0,0,20.5-5.9,23.2-16.6l-20.6,5.8c0,0-8.2-15.2-9.1-28.3c0,0,18,6.2,31.9,5.9
							l-2.2-0.4c0,0,6.6-10.5,5.3-28.3c-1.3-17.8,16.9-45.6,32.9-46.5c16-0.9,48.2-3.5,51.7,10.2C569.5,18.6,571.7,42.9,571.3,63.1z
							"/>
						<path id="Tracé_1514" class="st17" d="M573.3,72.2c-0.5,0.1-1.1,0.1-1.7,0.2c-0.2,0-0.5,0-0.7,0c-3.6,0.1-6.4-1.2-7.1-3.4
							c-0.1-0.3-0.2-0.7-0.2-1.1c-0.1-1.9,1.3-4,3.6-5.8c1-0.7,2-1.3,3.1-1.8c0.2,0.7,0.5,1.4,0.7,2.1c0.1,0.2,0.2,0.5,0.2,0.7v0
							c0.4,1.3,0.8,2.7,1.1,4.2c0.1,0.5,0.2,1,0.3,1.4c0,0,0,0.1,0,0.1c0.1,0.7,0.3,1.5,0.4,2.3C573.2,71.5,573.2,71.9,573.3,72.2z"
							/>
						<path id="Tracé_1515" d="M571.1,60.1c-0.2,0.1-0.5,0.2-0.8,0.2c-1.7,0.3-3.4-0.7-4.9-1.8l0,0c-1-0.7-2.1-1.3-3.3-1.7
							c-2.6-0.7-5.4,1.5-7.8,3.8c1.3-3.6,4.6-6.7,8.2-5.9c0.3,0.1,0.7,0.2,1,0.4c2.7,1.2,4.2,3.7,6.8,4.7v0
							C570.5,59.9,570.8,60,571.1,60.1z"/>
						<path id="Tracé_1516" class="st9" d="M563.8,158.6c-8.4,12.7-41.3-1.6-42.9-4.8c-1-2-1.8-4.1-2.4-6.3
							c-0.7-2.4-1.3-4.9-1.7-7.4c-1-7-1.4-14-1-21.1c0.1,0.6,0.2,1.1,0.2,1.7c7.5,5,23.4,5.5,32.9,4.9c1.1-0.1,2-0.2,2.9-0.2
							c-0.5,4.5-0.2,9,0.8,13.4c0.1,0.4,0.2,0.7,0.2,1.1C556.8,156.3,563.8,158.6,563.8,158.6z"/>
						<path id="Tracé_1517" d="M565.6,47.2c-2.4-0.7-4.7-1.8-6.5-1.4c-0.4,0.2-0.8,0.5-1.1,0.9c-1.1,1.2-2.1,2.5-3.1,3.9
							c-0.6,1.1-2.2,0.2-1.7-1c0.6-1.9,1.7-3.7,3.3-5C559.1,42.5,562.3,43.6,565.6,47.2z"/>
						<path id="Tracé_1518" class="st17" d="M555.7,113.1l-0.1,0.2c-0.1,0.2-0.2,0.4-0.3,0.6c-1.5,3-2.5,6.2-3.1,9.4
							c-0.1,0.7-0.2,1.3-0.3,2c-0.9,0.1-1.9,0.2-2.9,0.2c-9.5,0.6-25.4,0-32.9-4.9c-0.1-0.5-0.2-1.1-0.2-1.7
							c-0.7-4.9-1.7-10.5-2.5-15.4v0c0.5-1.7,0.9-3.5,1.2-5.2c1.3,1.2,2.5,2.3,3.5,3.5c0.6,0.6,1.1,1.2,1.6,1.8
							c5.7,6.7,19.3,9.2,29.6,9.5C551.6,113.2,553.8,113.2,555.7,113.1z"/>
						<path id="Tracé_1519" class="st9" d="M573.7,76c-0.1-1.3-0.2-2.6-0.4-3.8c-0.5,0.1-1.1,0.1-1.7,0.2c-0.2,0-0.5,0-0.7,0
							c-3.6,0.1-6.4-1.2-7.1-3.4c-0.1-0.3-0.2-0.7-0.2-1.1c-0.1-1.9,1.3-4,3.6-5.8c1-0.7,2-1.3,3.1-1.8c0,0,0,0,0-0.1
							c-1.7,0.3-3.4-0.7-4.9-1.8l0,0c-1-0.7-2.1-1.3-3.3-1.7c-2.6-0.7-5.4,1.5-7.8,3.8c1.3-3.6,4.6-6.7,8.2-5.9
							c0.3,0.1,0.7,0.2,1,0.4c2.7,1.2,4.2,3.7,6.8,4.7c-1.7-4.9-3.6-8.9-4.6-12.6c-2.4-0.7-4.7-1.8-6.5-1.4
							c-0.4,0.2-0.8,0.5-1.1,0.9c-1.1,1.2-2.1,2.5-3.1,3.9c-0.6,1.1-2.2,0.2-1.7-1c0.6-1.9,1.7-3.7,3.3-5c2.6-2,5.8-1,9.1,2.6
							c-0.4-1.3-0.6-2.6-0.7-3.9c-0.4-8.5-11.8-17-17.8-19.7c-4-1.9-8.4-3-12.8-3.4c0,0,0,0,0.1,0c-7,8.4-12.5,18-16.4,28.3
							c-3,8.4-4.8,17.9-3.1,27.3c0.4,2.5,0.7,5.1,0.8,7.6c0.1,3.7,0,7.4-0.5,11c-0.2,1.3-0.4,2.6-0.6,4c1.3,1.2,2.5,2.3,3.5,3.5
							c0.6,0.6,1.1,1.2,1.6,1.8c5.7,6.7,19.3,9.2,29.6,9.5c2.3,0.1,4.5,0,6.4-0.1c0.1-0.1,0.1-0.2,0.2-0.3c0,0.1-0.1,0.2-0.2,0.3
							c3-0.2,5.2-0.7,6.2-1.2c3.7-2.2,10.3-12.2,11.6-27c0.1-1.7,0.2-3.4,0.2-5.3C573.8,78.3,573.7,77.1,573.7,76z M530.1,43.8
							c2.6,0.1,5,0.9,7.2,2.3c2,1.2,3.3,2.6,2.8,3.5c-0.5,0.9-1,0.5-2.4-0.4c-1-0.7-2-1.3-3.1-1.9c-3.9-2-7.3-2.4-12.8,2.5
							C523.5,46.7,526.6,44,530.1,43.8z M538.7,58.9c-1.5-0.6-3.3-0.5-4.8,0.2c-2.4,1.3-4.2,5.7-7.5,5.7c-0.1,0-0.2,0-0.3,0
							c3.2-1.7,3.5-5.6,6.8-7.6c1.7-0.9,3.8-0.9,5.5,0L538.7,58.9z M540.9,78.4c-1.8,0.6-3.7,0.9-5.6,0.9
							c-6.2,0.1-11.3-2.7-11.3-6.1c0-2,1.6-3.7,4.1-4.9c2.2-1,4.7-1.5,7.1-1.5c1.5,0,3,0.1,4.5,0.5c4,0.9,6.8,3.1,6.9,5.7
							C546.5,75.3,544.3,77.3,540.9,78.4L540.9,78.4z M548.6,61.1c0.2,0.2,0.3,0.4,0.5,0.6c1.3,1.6,2.8,3,4.5,4.2
							c2.1,1.4,4.6,2.2,7.1,2.3c-0.8,2.7-1.8,5.4-3,8c0.1-2.1,0.4-4.2,0.8-6.2C553.7,69.2,549.7,65.8,548.6,61.1L548.6,61.1z
							 M556.9,111.2C556.9,111.2,556.9,111.2,556.9,111.2C556.9,111.2,556.9,111.2,556.9,111.2L556.9,111.2L556.9,111.2L556.9,111.2
							z M564.5,86.9L564.5,86.9c-0.2,2.2-0.2,4.4-0.1,6.5c0.3,1.9-0.4,4.9-5.3,5.6c-3.6,0.5-6.7-4.4-8.3-8.1c0-0.1-0.1-0.1-0.1-0.2
							c-0.2-0.5-0.4-0.9-0.5-1.3c-0.1-0.2-0.1-0.4-0.2-0.6c-0.1-0.3-0.2-0.6-0.2-1c0,0,14.2-6.4,14.5-4.2c0.1,0.6,0.1,1.3,0.1,1.9
							C564.6,85.9,564.6,86.4,564.5,86.9L564.5,86.9z"/>
						<path id="Tracé_1520" d="M557.7,76.1c0.1-2.1,0.4-4.2,0.8-6.2c-4.8-0.6-8.7-4.1-9.9-8.8c0.2,0.2,0.3,0.4,0.5,0.6
							c1.3,1.6,2.8,3,4.5,4.2c2.1,1.4,4.6,2.2,7.1,2.3C559.9,70.8,558.9,73.5,557.7,76.1z"/>
						<path id="Tracé_1521" d="M564.5,93.4c0.3,1.9-0.4,4.9-5.3,5.6c-3.6,0.5-6.7-4.4-8.3-8.1c0.1-0.1,0.2-0.1,0.3-0.1
							c3.2-1.6,9.8-4.6,13.3-3.8C564.4,89.1,564.4,91.3,564.5,93.4z"/>
						<path id="Tracé_1522" class="st17" d="M546.5,72.9c0,2.3-2.2,4.4-5.6,5.5c-1.8,0.6-3.7,0.9-5.6,0.9
							c-6.2,0.1-11.3-2.7-11.3-6.1c0-2,1.6-3.7,4.1-4.9c2.2-1,4.7-1.5,7.1-1.5c1.5,0,3,0.1,4.5,0.5
							C543.6,68.2,546.5,70.3,546.5,72.9z"/>
						<path id="Tracé_1523" d="M538.7,58.9c-1.5-0.6-3.3-0.5-4.8,0.2c-2.4,1.3-4.2,5.7-7.5,5.7c-0.1,0-0.2,0-0.3,0
							c3.2-1.7,3.5-5.6,6.8-7.6c1.7-0.9,3.8-0.9,5.5,0L538.7,58.9z"/>
						<path id="Tracé_1524" d="M540,49.6c-0.5,0.9-1,0.5-2.4-0.4c-1-0.7-2-1.3-3.1-1.9c-3.9-2-7.3-2.4-12.8,2.5
							c1.9-3.1,4.9-5.8,8.4-6c2.6,0.1,5,0.9,7.2,2.3C539.2,47.3,540.5,48.7,540,49.6z"/>
						<path id="Tracé_1525" class="st18" d="M531.7,435.4c-6.5-0.5-12.9-0.9-19.1-1.3c-0.2,0-0.3,0-0.4,0
							C510.3,396,487,317.5,473,273.5c-0.1-0.3-0.2-0.5-0.3-0.8l-0.3-0.1l-0.2,0.5l-19.3-8.6l-19.4-8l-1.2-0.5l-0.6-0.2
							c-2.8-20.3,1.7-40.7,8.5-58.5c7.5-18.9,17.6-36.6,30.1-52.7c0.1-0.2,0.2-0.3,0.4-0.4v0l0,0v0c0.2,0.6,2.1,8.2,5.3,19.6
							c0.9,3.4,2,7.1,3.1,11.1c4.1,14.5,9.4,32.4,15,49.9c0.6,1.8,1.2,3.7,1.8,5.5c9.3,28.1,19.3,54.1,26.9,61.6
							C536.5,305.5,524.3,382.7,531.7,435.4z"/>
						<path id="Tracé_1526" class="st9" d="M472.2,273c-1.6,3.8-3.2,7.7-4.6,11.7c0,0,0,0,0,0c-8.5,15.8-18,28.6-27.8,34
							c-24.9,13.5-63.7,17.4-90.8,19.8c-0.7,0.1-1.4,0.1-2.1,0.2h0l-2.2,0.2c-9.6,0.9-17.3,1.6-22,2.6c-7.3,1.6-15.9,3.5-23.9,5.2
							c-1.9,0.4-3.8,0.8-5.7,1.3c-2,0.4-3.9,0.9-5.8,1.3c-0.2,0-0.4,0.1-0.6,0.1l13.2-16.5c-0.4-0.1-0.8-0.2-1.2-0.3
							c-10.1-2.3-21.9,2.7-27.8,5.6c-0.8-0.4-1.5-0.6-1.9-0.8c-0.3-0.1-0.5-0.2-0.5-0.2c-0.4-0.2-0.8-0.3-1.2-0.5c0,0,0,0,0,0
							c-0.6-0.2-1.1-0.4-1.7-0.6c-6-2.3-12.3-3.4-18.7-3.3c-0.6,0-1.2,0-1.8,0.1s-1.2,0.1-1.8,0.1c-2.7,0.2-5.4,0.7-8,1.2h0
							c-0.4-0.1-0.8-0.3-1.2-0.4c-0.9-0.4-1.4-0.8-1.4-1.3c0-1.2,2.7-1.8,6.2-2c1.4,0.1,2.9,0.2,4.4,0.2c0.6,0,1.2,0,1.8,0.1
							l1.8,0.1c6.3,0.2,12,0.3,12,0.3s-5.8-0.5-12-0.7c-0.6,0-1.2,0-1.8,0s-1.2,0-1.8,0c-1.5,0-3,0-4.4,0.1c-4.2-0.3-7.5-0.7-8-1.3
							c-1.5-1.8-1-3.6,2.4-3.5c1.4,0,5.6,0.2,9.9,0.2c0.6,0,1.2,0,1.8,0s1.2,0,1.8,0c4.8,0,9-0.1,9.5-0.6s-4.4-1.2-9.5-2
							c-0.6-0.1-1.2-0.2-1.8-0.3s-1.2-0.2-1.8-0.3c-4.3-0.8-8-1.6-7.9-2.4c0.1-1.5,1.6-2.6,7.9-1.8c0.6,0.1,1.1,0.1,1.8,0.2
							c0.6,0.1,1.1,0.2,1.8,0.3c0.7,0.1,1.5,0.3,2.4,0.4c11.4,2.3,11.6,1.8,10.3,0.1c-1.3-1.5-11.6-4.1-12.6-5.8
							c-0.1-0.1-0.1-0.2-0.1-0.3c0-0.1,0-0.2,0.1-0.2c0.9-1.2,9,1.2,14.6,2.8c4.7,1.1,9.4,2,14.2,2.6c0.6,0.1,1.3,0.2,1.9,0.2
							s1.3,0.2,1.9,0.2c6.3,0.7,12.4,1.1,14.9,0.6c5.4-1.1,121.4-28.6,128.1-35.4c1.8-1.8,6-13,11-27.9l19.4,8L472.2,273z"/>
						<path id="Tracé_1527" class="st9" d="M473,274.1c-1.8,3.6-3.6,7.2-5.4,10.6c1.5-3.9,3-7.8,4.6-11.7l0.5,0.2
							C472.8,273.5,472.9,273.8,473,274.1z"/>
						<path id="Tracé_1528" class="st19" d="M302.4,353.7l-10.2,12.6c0-0.1,0-0.2-0.1-0.4v0c0-0.2-0.1-0.3-0.1-0.5c0,0,0,0,0-0.1
							c0-0.2-0.1-0.3-0.1-0.5c0,0,0,0,0-0.1c0-0.2-0.1-0.3-0.1-0.5c0,0,0,0,0,0c0-0.2-0.1-0.3-0.1-0.5c0,0,0,0,0-0.1
							c0-0.2-0.1-0.3-0.1-0.5c0,0,0,0,0,0c0-0.2-0.1-0.3-0.1-0.5c0,0,0,0,0,0c0-0.2-0.1-0.3-0.1-0.5v-0.1c-0.1-0.2-0.1-0.3-0.2-0.5
							v-0.1c-0.1-0.2-0.1-0.3-0.2-0.5c0,0,0,0,0-0.1c-0.1-0.2-0.1-0.4-0.2-0.5c0,0,0,0,0,0c-0.1-0.2-0.1-0.4-0.2-0.5c0,0,0,0,0,0
							c0,0,0,0,0,0c0-0.1-0.1-0.2-0.1-0.2s-0.1-0.2-0.1-0.3c0,0,0,0,0,0c0-0.1,0-0.2-0.1-0.3c0-0.1-0.1-0.2-0.1-0.3c0,0,0,0,0,0
							c-0.1-0.2-0.1-0.4-0.2-0.6v0c-0.1-0.4-0.3-0.8-0.4-1.3c-0.1-0.4-0.3-0.7-0.4-1.1L302.4,353.7z"/>
						<path id="Tracé_1529" class="st20" d="M276.1,341.1c5-4.4,13.6-10.4,22.6-8.5c-10.1-2.3-21.9,2.7-27.8,5.6
							c-0.4-0.2-0.7-0.3-1-0.4c-0.1,0-0.2-0.1-0.3-0.1c-0.2-0.1-0.4-0.2-0.6-0.2s-0.3-0.1-0.4-0.1c0,0-0.1,0-0.1,0c0,0,0,0,0,0
							c-0.4-0.2-0.8-0.3-1.2-0.5l-0.1,0.1l0,0c0,0,0,0,0,0c-0.7,1.5-1.5,2.9-2.4,4.3v0c-1.2,1.7-2.7,3.2-4.5,4.3
							c-1.4,0.8-2.9,1.4-4.5,1.6c-0.5,0.1-1.1,0.1-1.6,0.1c-0.2,0-0.3,0-0.5,0c-0.2,0-0.4,0-0.6,0c-0.1,0-0.3,0-0.4-0.1
							c-0.1,0-0.3-0.1-0.4-0.1c-0.6-0.1-1.1-0.4-1.6-0.8c-0.2-0.1-0.3-0.3-0.5-0.4c-0.1-0.1-0.1-0.1-0.2-0.2
							c-0.2-0.2-0.4-0.4-0.6-0.7c-0.4-0.7-0.9-1.3-1.5-1.8c-0.1-0.1-0.3-0.2-0.4-0.3c-0.2-0.1-0.4-0.2-0.6-0.3
							c-0.1,0-0.2-0.1-0.2-0.1c-0.1,0-0.2-0.1-0.3-0.1c-0.1,0-0.2-0.1-0.4-0.1c-0.1,0-0.2,0-0.2,0c0,0,0,0,0,0c-0.1,0-0.1,0-0.2,0
							c-0.1,0-0.2,0-0.3,0c-0.6,0-1.2,0.1-1.8,0.2c-0.2,0-0.4,0.1-0.6,0.1c-0.3,0.1-0.6,0.1-1,0.2s-0.7,0.2-1.1,0.3
							c-0.1,0-0.3,0.1-0.4,0.1c-0.4,0.2-0.9,0.3-1.4,0.5c-0.7,0.3-1.4,0.5-2.2,0.9c-0.3,0.1-0.7,0.3-1,0.4s-0.7,0.2-1,0.3
							c-0.2,0.1-0.4,0.1-0.7,0.2s-0.4,0.1-0.7,0.2c-0.3,0.1-0.5,0.1-0.8,0.2c-0.4,0.1-0.8,0.2-1.2,0.2c-0.2,0-0.4,0.1-0.6,0.1
							s-0.4,0.1-0.6,0.1v0c-0.2,0-0.4,0-0.6,0.1s-0.4,0-0.6,0c-0.3,0-0.5,0-0.8,0c-0.3,0-0.6,0-0.9,0c-0.3,0-0.6,0-0.9,0
							c-0.1,0-0.1,0-0.2,0c-0.1,0-0.1,0-0.2,0c-0.3,0-0.5,0-0.8,0c-0.3,0-0.6-0.1-0.9-0.1c-0.3,0-0.7-0.1-1-0.1s-0.6-0.1-1-0.2
							c-0.6-0.1-1.3-0.3-1.9-0.5s-1.2-0.4-1.8-0.6c-0.3-0.1-0.6-0.2-0.9-0.4c-0.2-0.1-0.5-0.2-0.7-0.3c-0.2-0.1-0.3-0.2-0.5-0.3
							c-0.3-0.1-0.6-0.3-0.9-0.5c-0.3-0.1-0.5-0.3-0.7-0.4c-0.2-0.1-0.3-0.2-0.5-0.3s-0.3-0.2-0.4-0.3c-0.1-0.1-0.2-0.1-0.2-0.2
							c-0.2-0.1-0.5-0.3-0.7-0.5c-4,1.7-8.2,3.6-12.6,5.7c-0.6,0.3-1.3,0.6-1.9,0.9s-1.3,0.6-1.9,0.9c-5,2.4-10.3,5-16,7.9
							c2,1.8,3.4,4.3,3.7,7l0,0c0,0,0,0,0,0.1c0.1,0.3,0.5,1.2,1,2.5c0,0,0,0.1,0.1,0.2c0.1,0.2,0.1,0.3,0.2,0.5
							c0.1,0.1,0.1,0.3,0.2,0.5c0,0,0,0.1,0,0.1c0.1,0.2,0.1,0.3,0.2,0.5c0.3,0.9,0.7,2,1,3.2c0.1,0.3,0.2,0.7,0.3,1.1
							c0.1,0.2,0.1,0.4,0.2,0.5c0,0.2,0.1,0.3,0.1,0.5c0,0,0,0,0,0.1c0.2,0.6,0.3,1.1,0.4,1.7c0.1,0.4,0.2,0.8,0.3,1.2l0.1,0.6
							c0,0.1,0,0.2,0,0.3c0,0.1,0.1,0.3,0.1,0.4c0,0.3,0.1,0.6,0.1,0.8s0.1,0.6,0.1,0.9c0,0.1,0,0.2,0,0.3s0,0.2,0,0.3
							c0.1,0.6,0.1,1.1,0.1,1.7c0,0.2,0,0.3,0,0.5c0.1,1.2,0,2.3-0.1,3.5c0,0.2,0,0.4-0.1,0.6c0,0.1,0,0.3-0.1,0.4
							c0,0.2-0.1,0.4-0.1,0.6c-0.1,0.3-0.1,0.5-0.2,0.8c0,0.2-0.1,0.3-0.2,0.5c0,0.1-0.1,0.3-0.1,0.4c0,0.1-0.1,0.2-0.1,0.3
							c-0.1,0.2-0.1,0.3-0.2,0.5c0,0.1-0.1,0.2-0.1,0.2c0,0,0,0.1-0.1,0.2c0,0.1-0.1,0.2-0.2,0.3c-0.4,0.8-0.9,1.5-1.5,2.1
							c-0.2,0.2-0.3,0.3-0.5,0.5c-0.2,0.2-0.4,0.3-0.6,0.5s-0.4,0.3-0.7,0.4c-10.9,6.7-13.3-8.3-29.2,0c-2,1.1-4.2,1.9-6.4,2.4
							c-0.3,0.1-0.6,0.1-0.8,0.2c-0.3,0.1-0.7,0.1-1,0.2s-0.7,0.1-1,0.1c-0.3,0-0.7,0.1-1,0.1c-0.2,0-0.5,0.1-0.7,0.1
							c-0.3,0-0.5,0-0.8,0c-0.2,0-0.4,0-0.6,0c-0.9,0-1.7,0-2.6,0c0,0-0.1,0-0.1,0c-0.3,0-0.7-0.1-1-0.1c0,0,0,0-0.1,0
							c-0.2,0-0.4,0-0.7-0.1s-0.5-0.1-0.7-0.1s-0.4-0.1-0.7-0.1c-0.1,0-0.3,0-0.4-0.1s-0.3-0.1-0.4-0.1c-0.4-0.1-0.7-0.2-1.1-0.3
							c-0.2-0.1-0.4-0.1-0.6-0.2l-0.2-0.1c-0.2-0.1-0.5-0.2-0.7-0.2s-0.5-0.2-0.7-0.3s-0.5-0.2-0.7-0.3c-0.2-0.1-0.3-0.1-0.5-0.2
							c-0.2-0.1-0.3-0.1-0.4-0.2c-0.2-0.1-0.3-0.2-0.5-0.2c0,0-0.1,0-0.1,0c-0.2-0.1-0.3-0.2-0.5-0.3c-0.2-0.1-0.3-0.2-0.4-0.3
							c-0.4-0.2-0.8-0.5-1.1-0.8c-0.2-0.1-0.4-0.3-0.5-0.4c-0.2-0.1-0.4-0.3-0.5-0.5c0,0,0,0,0,0c-0.2-0.2-0.3-0.3-0.5-0.5
							c-0.1-0.1-0.2-0.2-0.3-0.3c0,0,0,0,0,0c-0.2-0.2-0.4-0.4-0.6-0.6c0,0,0,0,0,0c-0.1-0.1-0.1-0.2-0.2-0.3
							c-0.2-0.3-0.4-0.5-0.6-0.8c-0.1-0.2-0.2-0.3-0.3-0.5c0-0.1-0.1-0.1-0.1-0.2c-0.1-0.1-0.1-0.2-0.2-0.4c0,0,0,0,0-0.1
							c-0.1-0.1-0.1-0.2-0.1-0.3c0,0,0-0.1-0.1-0.1c-0.1-0.2-0.2-0.4-0.2-0.6s-0.2-0.4-0.2-0.7s-0.1-0.4-0.2-0.7s-0.1-0.5-0.2-0.7
							c-71.3,40.9-78,118.9-78,151.2c0,1.7,0.2,3.3,0.6,4.9c-6,7.7-10.1,16.7-11.8,26.2c-0.7,3.9-0.9,7.9-0.5,11.9
							c1,12.2,6.9,23.2,18.6,32.1c5.2,3.9,10.8,7.1,16.7,9.6c39.5,17.2,120.3,23.6,161.3,6.5c1.5-0.6,3-1.3,4.4-2
							c3.9-1.9,5.3-6.3,3.1-9.8c-2.4-3.5-7.1-4.7-10.9-2.8c-1.1,0.4-8.7,4.9-28.4,7.4c-18.1,2.3-36.4,2.5-54.6,0.9
							c-12.9-1.2-25.7-3.2-38.3-6.2c-16.8-3.9-39.3-10.7-47.9-24c-2.9-4.5-4.4-9.8-4.3-15.2c0.2-5.9,1.7-11.6,4.5-16.8
							c6,5.2,12.6,9.7,19.6,13.4c8.5,4.6,17.3,8.5,26.4,11.6c0.5,0,2.2-0.1,4.8-0.2c0.6,0,1.2,0,1.9-0.1c1.7-0.1,3.6-0.2,5.7-0.3
							c0.2,0,0.4,0,0.6,0l0.7,0c-0.1-0.3-0.3-0.6-0.4-0.9c-4.3-3.1-7.9-7.9-10.9-13.2c-6.8-12.6-9.6-28.4-7.3-33.4
							c4.3-9.3,15.9,6.1,29.3,2c10.8-3.3,23.3-23.7,21.5-38.6c-5.5-9.4-14.1-16-30.7-20.5c-3.1-0.7-6-1.3-8.7-2
							c-11-2-22-1.2-31.5,5.1c5.7-5.9,13.4-8.9,21.4-9.7c-1.2-1.3-1.6-3.1-1.1-4.8c3.4-12.6,30.2-6.1,43.5-4.1s-0.5-32,13.4-35.3
							c14-3.2,12.1,52.8,18.7,60c0.8,0.8,2.3,1.3,4.3,1.5c0,0,0,0,0,0c0,0,0,0,0,0c0,0,0,0,0.1,0c0,0,0.1,0,0.1-0.1c0,0,0,0,0.1,0
							c0,0,0.1-0.1,0.1-0.1c0,0,0.1,0,0.1-0.1c0,0,0.1-0.1,0.2-0.1c0,0,0,0,0.1,0c0,0,0.1,0,0.1-0.1c0,0,0.1,0,0.1,0
							c0,0,0.1-0.1,0.1-0.1c0,0,0,0,0.1-0.1c0,0,0.1,0,0.1-0.1c0,0,0,0,0.1,0c0,0,0,0,0,0c0,0,0,0,0,0c0,0,0,0,0,0c0,0,0,0,0,0
							c0,0,0.1,0,0.1-0.1s0.1,0,0.1,0c0,0,0.1,0,0.1,0c0,0,0,0,0,0c0,0,0,0,0,0s0,0,0.1,0c0,0,0.1,0,0.1,0c0,0,0,0,0,0l0.2-0.1l0,0
							c0,0,0,0,0,0c0,0,0,0,0.1,0c0,0,0.1,0,0.1,0c0,0,0,0,0,0c0,0,0,0,0.1,0s0.1,0,0.1-0.1c0,0,0.1,0,0.1-0.1l0.1,0
							c0,0,0.1,0,0.1-0.1c0.1,0,0.1,0,0.2-0.1c0,0,0.1,0,0.1,0c0.1,0,0.1,0,0.1-0.1c0,0,0.1,0,0.1-0.1c0,0,0.1,0,0.1,0
							c0.1,0,0.1,0,0.2-0.1c0.1-0.1,0.3-0.1,0.4-0.2c0.1,0,0.1,0,0.2-0.1c0,0,0.1,0,0.1-0.1c0,0,0.1,0,0.1,0c0.1,0,0.1-0.1,0.2-0.1
							c0,0,0.1,0,0.1,0c0,0,0.1,0,0.1,0c0,0,0,0,0.1,0c0,0,0.1,0,0.1,0c0,0,0,0,0,0c0,0,0,0,0.1,0c0,0,0.1,0,0.1-0.1s0.1,0,0.1,0
							c0,0,0.1,0,0.1-0.1c0,0,0.1,0,0.2-0.1l0,0l0,0c0,0,0.1,0,0.1,0c0,0,0.1,0,0.1,0l0,0l0.3-0.1c0,0,0.1,0,0.1-0.1
							c0.1,0,0.1,0,0.2-0.1c0.1,0,0.1,0,0.2-0.1c0,0,0.1,0,0.1,0c0.1,0,0.1,0,0.2-0.1c0.1,0,0.1-0.1,0.2-0.1c0.1,0,0.1,0,0.2-0.1
							c0,0,0.1,0,0.1,0c0.1,0,0.1-0.1,0.2-0.1c0,0,0.1,0,0.1-0.1c0.1,0,0.1,0,0.2-0.1c0,0,0.1,0,0.1,0c0.1,0,0.1,0,0.2-0.1l0.5-0.2
							c0,0,0,0,0,0c0.1,0,0.1,0,0.2-0.1l0.1,0c0.1,0,0.2-0.1,0.2-0.1h0c0.1,0,0.1,0,0.2-0.1c0,0,0.1,0,0.2-0.1s0.1,0,0.2,0
							c0,0,0.1-0.1,0.1-0.1c0,0,0.1,0,0.2-0.1c0,0,0.1,0,0.1,0c0.2-0.1,0.4-0.2,0.6-0.2c0,0,0,0,0.1,0c0.1,0,0.2-0.1,0.3-0.1
							c0,0,0.1,0,0.1,0c0.1,0,0.2,0,0.2-0.1c0,0,0,0,0,0c0,0,0,0,0,0c0.3-0.1,0.6-0.2,0.9-0.3c0,0,0.1,0,0.1,0l1.1-0.4l0.1,0
							c0,0,0.1,0,0.2-0.1c0.1,0,0.1,0,0.2-0.1c0.4-0.1,0.8-0.3,1.2-0.4c0.2-0.1,0.3-0.1,0.5-0.2c1.1-0.4,2.3-0.9,3.4-1.3
							c0,0,0.1,0,0.1,0l0.3-0.1c0,0,0.1,0,0.1,0c0.7-0.3,1.4-0.5,2.2-0.8c0,0,0,0,0,0c0.1,0,0.2-0.1,0.3-0.1c0,0,0,0,0.1,0
							c0,0,0.1,0,0.1,0c0.1,0,0.1,0,0.2-0.1c0,0,0.1,0,0.1,0c0.2-0.1,0.4-0.2,0.7-0.2c0,0,0,0,0.1,0c0.1-0.1,0.2-0.1,0.4-0.1h0
							c0.1,0,0.2-0.1,0.3-0.1c0.1-0.1,0.2-0.1,0.3-0.1c0,0,0,0,0.1,0l0.2-0.1c0.1,0,0.1,0,0.2-0.1c0,0,0.1,0,0.1,0
							c0.1,0,0.2-0.1,0.3-0.1h0c0.1-0.1,0.2-0.1,0.4-0.1h0c0.1,0,0.2-0.1,0.3-0.1c0,0,0.1,0,0.1,0c0.1,0,0.1-0.1,0.2-0.1
							c0.1,0,0.1-0.1,0.2-0.1c0.3-0.1,0.7-0.3,1-0.4c0,0,0,0,0,0v0c0.2-0.1,0.4-0.2,0.7-0.3c0.2-0.1,0.3-0.1,0.5-0.2
							c0.3-0.1,0.5-0.2,0.8-0.3c0.1,0,0.2-0.1,0.2-0.1c0,0,0,0,0,0c0,0,0,0,0,0c0.1,0,0.1,0,0.2-0.1c0,0,0.1,0,0.1,0
							c0,0,0.1,0,0.1,0c0.1,0,0.2-0.1,0.2-0.1c0,0,0,0,0.1,0c0,0,0.1,0,0.1,0c0.1,0,0.1-0.1,0.2-0.1c0.1,0,0.2-0.1,0.3-0.1
							c0.1,0,0.1-0.1,0.2-0.1c0,0,0,0,0.1,0c0,0,0.1,0,0.1,0c0,0,0,0,0.1,0c0,0,0,0,0,0c0.2-0.1,0.4-0.2,0.7-0.3c0,0,0,0,0,0
							c0,0,0,0,0,0c0,0,0.1,0,0.1-0.1c0.1,0,0.1-0.1,0.2-0.1c0.1,0,0.2-0.1,0.2-0.1c0,0,0,0,0.1,0c0.1-0.1,0.3-0.1,0.4-0.2
							c0.1,0,0.2-0.1,0.2-0.1c0.1,0,0.2-0.1,0.3-0.1c0.2-0.1,0.4-0.2,0.6-0.3c0,0,0.1,0,0.2-0.1c0.2-0.1,0.3-0.2,0.5-0.2
							c0,0,0.1-0.1,0.1-0.1c0,0,0,0,0.1,0c0,0,0.1,0,0.1,0c0,0,0,0,0.1,0c0,0,0,0,0.1,0c0,0,0,0,0,0c0,0,0,0,0,0
							c0,0,0.1-0.1,0.1-0.1c0,0,0,0,0.1,0s0,0,0.1,0c0.1,0,0.2-0.1,0.3-0.1c0,0,0.1,0,0.1,0c0.1,0,0.1-0.1,0.2-0.1
							c0.1-0.1,0.2-0.1,0.3-0.1c8-4.1,18.5-11.7,26.7-17c0.6-0.4,1.2-0.8,1.8-1.1c0.6-0.4,1.2-0.7,1.8-1.1c3.6-2.2,6.5-3.6,8.2-3.6
							h0.2l0,0h0.2c0,0,0.1,0,0.1,0h0c0,0,0.1,0,0.1,0h0c0,0,0.1,0,0.1,0h0c0.1,0,0.1,0,0.1,0l0,0c0,0,0.1,0,0.1,0h0c0,0,0,0,0,0h0
							c0,0,0.1,0,0.1,0c0,0,0,0,0,0c0.1,0,0.1,0,0.2,0c0,0,0.1,0,0.1,0l0,0h0c0,0,0,0,0,0h0l0,0h0c0,0,0,0,0,0s0,0,0,0
							c0.2-4.8-3.5-8.8-8.2-9c-0.1,0-0.3,0-0.4,0c-0.3,0-0.5,0-0.8,0.1c-0.1,0-0.2,0-0.3,0.1c-0.1,0-0.2,0-0.3,0.1
							c-0.1,0-0.3,0.1-0.5,0.1c-0.1,0-0.1,0-0.2,0.1c-0.2,0.1-0.5,0.2-0.7,0.3c-0.1,0-0.3,0.1-0.4,0.2c-0.2,0.1-0.5,0.2-0.7,0.3
							s-0.5,0.2-0.7,0.4c-0.1,0.1-0.2,0.1-0.3,0.2c0,0-0.1,0.1-0.2,0.1c-0.2,0.1-0.3,0.2-0.5,0.3s-0.4,0.2-0.6,0.3
							c-0.5,0.3-1,0.6-1.5,0.8c-1.4,0.8-2.9,1.7-4.3,2.5c-0.2,0.1-0.4,0.2-0.6,0.4c-0.7,0.4-1.3,0.7-1.9,1c-0.2,0.1-0.4,0.2-0.6,0.3
							c-0.1,0.1-0.3,0.1-0.4,0.2c-0.3,0.1-0.7,0.3-1,0.4c-0.2,0.1-0.3,0.1-0.5,0.2c-0.2,0.1-0.4,0.1-0.7,0.2c-0.1,0-0.2,0-0.3,0
							c-0.1,0-0.2,0-0.3,0c-0.1,0-0.3,0-0.4,0c-0.1,0-0.2,0-0.4,0h0c-0.1,0-0.2,0-0.3-0.1c-0.1,0-0.2-0.1-0.4-0.1
							c-0.1,0-0.2-0.1-0.3-0.1c0,0,0,0,0,0c-0.1,0-0.1-0.1-0.2-0.1c-0.1-0.1-0.2-0.2-0.2-0.2c0,0,0-0.1-0.1-0.1
							c0-0.1-0.1-0.1-0.1-0.2c0,0-0.1-0.1-0.1-0.1c0-0.1-0.1-0.2-0.1-0.3c-0.1-0.2-0.1-0.4-0.2-0.6c0-0.1,0-0.2,0-0.4
							c0-0.3,0-0.5,0-0.8c0-0.7,0.1-1.5,0.2-2.2c0.4-1.9,0.5-3.8,0.2-5.7c-1.9,0.7-3.8,1.3-5.5,2.1c-2.9,1.2-7.1,3.3-11.7,5.4
							c-1,0.5-2.1,1-3.1,1.5c-1.1,0.5-2.2,1-3.3,1.5c-0.2,0.1-0.4,0.2-0.5,0.2c-0.8,0.4-1.6,0.7-2.4,1.1h0c-0.6,0.2-1.1,0.5-1.7,0.7
							c0.6-0.5,1.3-1.1,2-1.6c1-0.8,2-1.5,3.1-2.3c0.1-0.1,0.2-0.2,0.4-0.2c0.3-0.2,0.7-0.5,1-0.7c0.5-0.4,1.1-0.7,1.6-1.1
							c0.4-0.2,0.7-0.5,1.1-0.7s0.7-0.5,1.1-0.7c0.2-0.1,0.4-0.2,0.6-0.4l0.6-0.4c0.6-0.4,1.1-0.7,1.7-1.1s1.2-0.7,1.7-1
							c0.4-0.3,0.9-0.5,1.3-0.8s0.9-0.5,1.3-0.7c0.6-0.3,1.2-0.6,1.7-0.9c0.7-0.4,1.3-0.7,2-1c0.3-0.1,0.6-0.3,0.9-0.4
							s0.6-0.3,0.9-0.4c0.3-0.1,0.5-0.2,0.8-0.4c0.8-0.3,1.5-0.7,2.3-1c-2.3-1.4-6.1-2-10.8-5.3c-0.5-0.3-0.9-0.7-1.4-1.1
							c-0.5-0.4-0.9-0.7-1.4-1.2c-0.9-0.8-1.8-1.7-2.7-2.6c-5.5-6-4.7-17.2-1.3-28.2c0.3-0.8,0.5-1.7,0.8-2.5v0
							c0.3-0.9,0.6-1.7,0.9-2.6c2.2-5.8,5.1-11.4,8.5-16.6c0.4-0.6,0.8-1.2,1.3-1.8c0.5-0.6,0.9-1.2,1.4-1.8
							c1.1-1.4,2.4-2.6,3.8-3.7c1.3-1,2.8-1.7,4.5-2c1.4-0.2,2.9-0.1,4.2,0.4c0,0,0,0,0,0c1.8,0.7,3.6,1.5,5.4,2.3
							c4.7,2.3,9.6,4.1,14.6,5.3c0.6,0.1,1.2,0.3,1.8,0.4c1.5,0.3,3,0.6,4.7,0.8c1.2,0.2,2.4,0.3,3.7,0.5c3.8,0.4,7.6,0.6,11.4,0.7
							c3.8,0.1,7.6-0.3,11.3-1.1c1.7-0.4,3.2-1,4.7-1.8h0c0.8-0.4,1.6-1,2.2-1.8c0.1-0.1,0.1-0.1,0.1-0.2v-0.1
							c0-0.7-0.1-1.5-0.2-2.2c0-0.1,0-0.3,0-0.4c0,0,0,0,0,0c0-0.2,0-0.3,0-0.5v0c0-0.1,0-0.3,0-0.5s-0.1-0.3-0.1-0.5v0
							c0-0.1,0-0.3-0.1-0.5v0c0-0.2,0-0.3-0.1-0.5l0-0.1l0-0.1c0-0.1,0-0.2,0-0.3v0c0-0.2-0.1-0.3-0.1-0.5c0-0.2-0.1-0.3-0.1-0.5
							c0,0,0,0,0-0.1l0-0.1c0,0,0,0,0,0c0-0.1,0-0.2,0-0.3v0c0,0,0,0,0-0.1c0,0,0-0.1,0-0.1c0-0.1,0-0.2-0.1-0.4v0
							c0-0.2-0.1-0.3-0.1-0.5c0,0,0,0,0-0.1c0-0.2-0.1-0.3-0.1-0.5c0,0,0,0,0-0.1c0-0.2-0.1-0.3-0.1-0.5c0,0,0,0,0,0
							c0-0.2-0.1-0.3-0.1-0.5c0,0,0,0,0-0.1c0-0.2-0.1-0.3-0.1-0.5c0,0,0,0,0,0c0-0.2-0.1-0.3-0.1-0.5c0,0,0,0,0,0
							c0-0.2-0.1-0.3-0.1-0.5v0c-0.1-0.2-0.1-0.3-0.2-0.5v-0.1c-0.1-0.2-0.1-0.3-0.2-0.5c0,0,0,0,0-0.1c-0.1-0.2-0.1-0.4-0.2-0.5
							c0,0,0,0,0,0c-0.1-0.2-0.1-0.4-0.2-0.5c0,0,0,0,0,0c0-0.1-0.1-0.2-0.1-0.3s-0.1-0.2-0.1-0.3c0,0,0,0,0,0c0-0.1,0-0.2-0.1-0.3
							c0-0.1-0.1-0.2-0.1-0.3c0,0,0,0,0,0c-0.1-0.2-0.1-0.4-0.2-0.6v0c-0.1-0.4-0.3-0.8-0.4-1.3c-0.1-0.4-0.3-0.7-0.4-1.1
							c-0.4-0.9-0.8-1.8-1.3-2.6c-0.3-0.5-0.6-1-0.9-1.5c-0.3-0.4-0.6-0.9-0.9-1.3l-2.7,3.3l-0.7,0.9l-0.3-0.3l0,0l-1.4-1.2
							l-1.9-1.7l-6.8-6.1l0.1-0.1C273.4,343.6,274.7,342.3,276.1,341.1z M120.2,489.6c13,8.7-1.3,4.7-14.2,18.6s-27,24.8-33.4,18
							c-6.3-6.9,3.3-30,3.3-30S107.2,480.9,120.2,489.6z M125.2,432.2c-10.9,6.7-28.9,20.8-28.9,6.4s16.9-32.7,27-25
							C123.3,413.6,136.2,425.5,125.2,432.2L125.2,432.2z"/>
						<path id="Tracé_1530" class="st20" d="M293.1,412.1c-0.2,0.3-0.3,0.5-0.5,0.7c0,0.1-0.1,0.1-0.1,0.2v0
							c-0.1,0.1-0.1,0.1-0.2,0.2c-0.8,1.1-1.7,2-2.7,2.9c-0.5-2.6-1.6-7.5-1.6-7.5C288.7,408.6,293.1,412.1,293.1,412.1z"/>
						<path id="Tracé_1531" class="st21" d="M293.1,373.6c-0.6,0.9-1.4,1.5-2.3,2l2.4,0C293.1,374.9,293.1,374.3,293.1,373.6z"/>
						<path id="Tracé_1532" class="st21" d="M293,403.3c-0.1-3.8-0.1-8.6-0.1-13.8c0-5.3,0.3-9.6,0.3-14l-2.4,0h0
							c-2.4,1.4-7.1,2.9-16.1,2.9c-3.8,0-7.6-0.2-11.4-0.7c-2.8-0.3-5.6-0.7-8.3-1.3c-11.7-2.4-17.3-6.6-21.8-8c0,0,0,0,0,0
							c-2.9-0.9-5.3-0.8-8.7,1.6c-2,1.6-3.7,3.4-5.2,5.5c-4.5,6.4-8.2,13.5-10.7,20.9v0c-4.1,11.7-5.5,24.2,0.5,30.7
							c1.2,1.4,2.6,2.6,4,3.8c5.3,4.2,9.6,4.8,12.2,6.3c1.2-0.5,2.3-0.9,3.4-1.3c0.2-0.1,0.7-0.2,1.3-0.4c-2.8-5.2,2.8-23.8,5.8-27
							c1.3-1.5,4.7-0.8,9.4,0.9c6.1,2.2,14.4,6.3,23.4,10.1c0.8,0.4,1.7,0.7,2.6,0.9c6.5,2.1,13.7,0.4,18.6-4.5
							c-0.5-2.6-1.6-7.5-1.6-7.5c0.6,0,5,3.5,5,3.5S293,408.6,293,403.3z M285,392.2c-0.4-6.6-7-8.5-11.6-11.2
							C281.6,380.4,287.6,387.2,285,392.2L285,392.2z"/>
						<path id="Tracé_1533" class="st20" d="M238.8,343.7c0.5-0.2,1-0.4,1.4-0.5C239.8,343.3,239.3,343.5,238.8,343.7z
							 M210.5,477.8C210.5,477.8,210.5,477.8,210.5,477.8c0.1-0.1,0.2-0.1,0.2-0.1C210.6,477.7,210.5,477.8,210.5,477.8z
							 M212.8,476.8L212.8,476.8c0.1,0,0.1-0.1,0.2-0.1c0.1,0,0.2-0.1,0.2-0.1C213.1,476.7,212.9,476.7,212.8,476.8z M215.5,475.5
							C215.5,475.5,215.5,475.5,215.5,475.5c0.1,0,0.1-0.1,0.1-0.1C215.6,475.5,215.5,475.5,215.5,475.5L215.5,475.5z"/>
						<path id="Tracé_1534" class="st20" d="M292.5,368.2c0-0.1,0-0.2,0-0.3c0,0,0,0,0,0C292.5,368,292.5,368.1,292.5,368.2z"/>
						<path id="Tracé_1535" class="st20" d="M292.6,368.4L292.6,368.4L292.6,368.4C292.5,368.4,292.6,368.4,292.6,368.4z"/>
						<path id="Tracé_1536" class="st20" d="M292.3,413.2c0.1-0.1,0.2-0.3,0.3-0.4C292.5,412.9,292.4,413,292.3,413.2z"/>
						<path id="Tracé_1537" class="st20" d="M292.4,367.4L292.4,367.4c0-0.1-0.1-0.3-0.1-0.5C292.3,367.1,292.4,367.3,292.4,367.4z
							"/>
						<path id="Tracé_1538" class="st20" d="M292.3,366.9L292.3,366.9C292.3,366.9,292.3,366.9,292.3,366.9
							C292.3,366.9,292.3,366.9,292.3,366.9z"/>
						<path id="Tracé_1539" class="st20" d="M290.5,359.8c0-0.1-0.1-0.2-0.1-0.3C290.5,359.6,290.5,359.7,290.5,359.8
							C290.5,359.8,290.5,359.8,290.5,359.8z"/>
						<path id="Tracé_1540" class="st21" d="M289.8,452.6c0,1-0.2,2-0.6,2.9c-0.5,1.2-1.4,2.1-2.5,2.7c-7.1,4-23-4.1-29.7-5.8
							c0.2-4.8-3.5-8.8-8.2-9c-0.1,0-0.3,0-0.4,0c-0.3,0-0.5,0-0.8,0.1c-0.1,0-0.2,0-0.3,0.1c-0.3,0.1-0.5,0.1-0.8,0.2
							c-0.1,0-0.1,0-0.2,0.1c-0.2,0.1-0.5,0.2-0.7,0.3c-0.1,0-0.3,0.1-0.4,0.2c-0.2,0.1-0.5,0.2-0.7,0.3s-0.5,0.2-0.7,0.4
							c-0.2,0.1-0.3,0.2-0.5,0.3s-0.3,0.2-0.5,0.3s-0.4,0.2-0.6,0.3c-0.5,0.3-1,0.6-1.5,0.8c-1.4,0.8-2.9,1.7-4.3,2.5
							c-0.2,0.1-0.4,0.2-0.6,0.4c-0.7,0.4-1.3,0.7-1.9,1c-0.2,0.1-0.4,0.2-0.6,0.3c-0.1,0.1-0.3,0.1-0.4,0.2c-0.3,0.1-0.7,0.3-1,0.4
							c-0.2,0.1-0.3,0.1-0.5,0.2c-0.2,0.1-0.4,0.1-0.7,0.2c-0.1,0-0.2,0-0.3,0c-0.1,0-0.2,0-0.3,0c-0.1,0-0.3,0-0.4,0
							c-0.1,0-0.2,0-0.4,0h0c-0.1,0-0.2,0-0.3-0.1c-0.1,0-0.2-0.1-0.4-0.1c-0.1,0-0.2-0.1-0.3-0.1c0,0,0,0,0,0
							c-0.1,0-0.1-0.1-0.2-0.1c-0.1-0.1-0.2-0.2-0.2-0.2c0,0,0-0.1-0.1-0.1c0-0.1-0.1-0.1-0.1-0.2c0,0-0.1-0.1-0.1-0.1
							c0-0.1-0.1-0.2-0.1-0.3c-0.1-0.2-0.1-0.4-0.2-0.6c0-0.1,0-0.2,0-0.4c0-0.3,0-0.5,0-0.8c0-0.7,0.1-1.5,0.2-2.2
							c0.4-1.9,0.5-3.8,0.2-5.7c0.3-0.1,0.7-0.2,1-0.3c0.6-0.2,1.3-0.4,2-0.6c0.7-0.2,1.5-0.5,2.3-0.7c0.5-0.1,0.9-0.3,1.4-0.4
							c1.8-0.5,3.7-1.1,5.6-1.7c0.5-0.2,1.1-0.3,1.6-0.5c0.7-0.2,1.4-0.4,2.1-0.7c0.4-0.1,0.7-0.2,1.1-0.3l0.5-0.1
							c1.4-0.4,2.8-0.9,4.2-1.4c0.5-0.2,0.9-0.3,1.4-0.5c0.7-0.2,1.3-0.5,2-0.7c1.5-0.6,3-1.2,4.6-1.8c0.4-0.2,0.8-0.3,1.3-0.5
							c0.8-0.4,1.7-0.7,2.6-1.1c3.4-0.9,14.4,5,21.8,12.1l2.7,4.7l2.9,5.3l0.3,0.3C289.1,451.8,289.5,452.2,289.8,452.6z"/>
						<path id="Tracé_1541" class="st21" d="M289.8,452.6c-0.4-0.4-0.7-0.8-1-1.2l-0.3-0.3l-2.9-5.3l-2.7-4.7
							C286.9,444.9,289.7,449,289.8,452.6z"/>
						<path id="Tracé_1542" class="st22" d="M299.8,332.9l-13.2,16.5l-0.7,0.8l-2.7,3.3l-0.7,0.9l-0.3-0.3l0,0l-3.2-2.9l-6.8-6.2
							c1.2-1.4,2.5-2.6,3.9-3.9c5-4.4,13.6-10.4,22.6-8.5C299.1,332.7,299.5,332.8,299.8,332.9z"/>
						<path id="Tracé_1543" class="st20" d="M285,392.2c-0.4-6.6-7-8.5-11.6-11.2C281.6,380.4,287.6,387.2,285,392.2z"/>
						<path id="Tracé_1544" class="st22" d="M282.3,354.2l-3.3-2.9h0.1L282.3,354.2z"/>
						<path id="Tracé_1545" class="st22" d="M279.1,351.2L279.1,351.2l-6.9-6.1l0.1-0.1L279.1,351.2z"/>
						<path id="Tracé_1546" class="st20" d="M267.3,336.9L267.3,336.9C267.2,337,267.2,337,267.3,336.9L267.3,336.9z"/>
						<path id="Tracé_1547" class="st20" d="M267.3,336.8l-0.1,0.1h0C267.3,336.9,267.3,336.9,267.3,336.8
							C267.3,336.8,267.3,336.8,267.3,336.8z"/>
						<path id="Tracé_1548" class="st5" d="M267.3,336.8c0,0,0,0.1-0.1,0.1c0,0,0,0,0,0c0,0,0,0,0,0l-2.4,4.3v0
							c-1.6,2.4-3.9,4.2-6.6,5.3c-0.8,0.3-1.6,0.5-2.4,0.6c-0.5,0.1-1.1,0.1-1.6,0.1c-0.2,0-0.3,0-0.5,0c-0.2,0-0.4,0-0.6,0
							c-0.1,0-0.3,0-0.4-0.1c-0.1,0-0.3-0.1-0.4-0.1c-0.6-0.1-1.1-0.4-1.6-0.8c-0.2-0.1-0.3-0.3-0.5-0.4c-0.1-0.1-0.1-0.1-0.2-0.2
							c-0.2-0.2-0.4-0.4-0.6-0.7c-0.4-0.7-0.9-1.3-1.5-1.8c-0.1-0.1-0.3-0.2-0.4-0.3c-0.3-0.2-0.6-0.3-0.9-0.4
							c-0.1,0-0.2-0.1-0.3-0.1c-0.1,0-0.2-0.1-0.4-0.1c-0.1,0-0.2,0-0.2,0c0,0,0,0,0,0c-0.1,0-0.1,0-0.2,0c-0.1,0-0.2,0-0.3,0
							c-0.8,0-1.6,0.1-2.4,0.3c-0.3,0.1-0.6,0.1-1,0.2s-0.7,0.2-1.1,0.3c-0.1,0-0.3,0.1-0.4,0.1c-0.4,0.1-0.9,0.3-1.4,0.5
							c-0.7,0.3-1.4,0.5-2.2,0.9c-0.3,0.1-0.7,0.3-1,0.4s-0.7,0.2-1,0.3c-0.2,0.1-0.4,0.1-0.7,0.2s-0.4,0.1-0.7,0.2
							c-0.3,0.1-0.5,0.1-0.8,0.2c-0.4,0.1-0.8,0.2-1.2,0.2c-0.2,0-0.4,0.1-0.6,0.1c-0.4,0.1-0.8,0.1-1.2,0.1c-0.2,0-0.4,0-0.6,0
							c-0.3,0-0.5,0-0.8,0c-0.3,0-0.6,0-0.9,0c-0.3,0-0.6,0-0.9,0c-0.1,0-0.3,0-0.4,0c-0.3,0-0.5,0-0.8,0c-0.3,0-0.6-0.1-0.9-0.1
							c-0.3,0-0.7-0.1-1-0.1s-0.6-0.1-1-0.2c-0.6-0.1-1.3-0.3-1.9-0.5s-1.2-0.4-1.8-0.6c-0.3-0.1-0.6-0.2-0.9-0.4
							c-0.2-0.1-0.5-0.2-0.7-0.3c-0.2-0.1-0.3-0.2-0.5-0.3c-0.3-0.1-0.6-0.3-0.9-0.5c-0.3-0.1-0.5-0.3-0.7-0.4
							c-0.2-0.1-0.3-0.2-0.5-0.3s-0.3-0.2-0.4-0.3c-0.1-0.1-0.2-0.1-0.2-0.2c-0.2-0.1-0.5-0.3-0.7-0.5c3.6-1.5,6.9-2.8,10.1-4
							c3.9-1.4,7.9-2.6,12-3.5h0c3.2-0.7,6.5-1.2,9.8-1.4C252.7,332.6,260.3,333.9,267.3,336.8z"/>
						<path id="Tracé_1549" class="st5" d="M238.8,343.7c0.5-0.2,1-0.4,1.4-0.5C239.8,343.3,239.3,343.5,238.8,343.7z"/>
						<path id="Tracé_1550" class="st5" d="M267.2,337c-0.7,1.5-1.5,2.9-2.4,4.3L267.2,337z"/>
						<path id="Tracé_1551" class="st21" d="M256.9,452.4C256.9,452.4,256.8,452.4,256.9,452.4L256.9,452.4
							C256.9,452.4,256.9,452.4,256.9,452.4z"/>
						<path id="Tracé_1552" class="st21" d="M256.3,452.3C256.3,452.3,256.3,452.3,256.3,452.3L256.3,452.3
							C256.3,452.3,256.3,452.3,256.3,452.3z"/>
						<path id="Tracé_1553" class="st21" d="M256.1,452.3c-0.1,0-0.1,0-0.2,0C256,452.3,256.1,452.3,256.1,452.3L256.1,452.3z"/>
						<path id="Tracé_1554" class="st21" d="M255.9,452.3c-0.1,0-0.2,0-0.3-0.1h0c0,0,0.1,0,0.1,0h0
							C255.8,452.2,255.9,452.2,255.9,452.3z"/>
						<path id="Tracé_1555" class="st21" d="M255.3,452.2c0,0-0.1,0-0.1,0L255.3,452.2L255.3,452.2z"/>
						<path id="Tracé_1556" class="st23" d="M261.2,429.1c-0.9,0.4-1.7,0.8-2.6,1.1c-0.4,0.2-0.8,0.4-1.3,0.5
							c-1.6,0.7-3.1,1.3-4.6,1.8c-0.7,0.3-1.3,0.5-2,0.7c-0.5,0.2-1,0.3-1.4,0.5c-1.4,0.5-2.9,1-4.2,1.4l-0.5,0.1
							c-0.4,0.1-0.7,0.2-1.1,0.3c-0.7,0.2-1.4,0.4-2.1,0.7c-0.6,0.2-1.1,0.3-1.6,0.5c-1.9,0.6-3.8,1.1-5.6,1.7
							c-0.5,0.1-0.9,0.3-1.4,0.4c-0.8,0.2-1.5,0.5-2.3,0.7c-0.7,0.2-1.3,0.4-2,0.6c-0.3,0.1-0.7,0.2-1,0.3c-1.9,0.7-3.8,1.3-5.5,2.1
							c-2.9,1.2-7.1,3.3-11.7,5.4c-1,0.5-2.1,1-3.1,1.5c-1.1,0.5-2.2,1-3.3,1.5c-1,0.4-2,0.9-3,1.3c0.1-0.3,0.2-0.6,0.3-0.9
							c1-0.8,2-1.5,3.1-2.3c0.5-0.3,0.9-0.7,1.4-1c0.5-0.4,1.1-0.7,1.6-1.1c0.4-0.2,0.7-0.5,1.1-0.7s0.7-0.5,1.1-0.7
							c0.2-0.1,0.4-0.2,0.6-0.4l0.6-0.4c0.6-0.4,1.1-0.7,1.7-1.1s1.2-0.7,1.7-1c0.4-0.3,0.9-0.5,1.3-0.8s0.9-0.5,1.3-0.7
							c0.6-0.3,1.2-0.6,1.7-0.9c0.7-0.4,1.3-0.7,2-1c0.3-0.1,0.6-0.3,0.9-0.4s0.6-0.3,0.9-0.4c0.3-0.1,0.5-0.2,0.8-0.4
							c0.8-0.3,1.5-0.7,2.3-1c1.2-0.5,2.3-0.9,3.4-1.3c0.2-0.1,0.7-0.2,1.3-0.4c2.7-0.7,8.7-2.1,15.1-3.5
							C250.9,430.9,257,429.7,261.2,429.1z"/>
						<path id="Tracé_1557" class="st23" d="M201.3,451.6c-0.1,0.3-0.2,0.6-0.3,0.9v0h0c-0.6,0.2-1.1,0.5-1.7,0.7
							C199.9,452.6,200.6,452.1,201.3,451.6z"/>
						<path id="Tracé_1558" class="st20" d="M216.7,475c-0.1,0.1-0.2,0.1-0.3,0.2c0,0-0.1,0-0.1,0.1c0,0-0.1,0-0.1,0
							c0.1,0,0.1-0.1,0.2-0.1C216.5,475,216.6,475,216.7,475z"/>
						<path id="Tracé_1559" class="st20" d="M216.1,475.3c0,0-0.1,0-0.1,0.1c-0.1,0-0.1,0.1-0.2,0.1
							C215.9,475.3,216,475.3,216.1,475.3z"/>
						<path id="Tracé_1560" class="st20" d="M215.7,475.4C215.7,475.4,215.7,475.5,215.7,475.4c-0.1,0.1-0.1,0.1-0.2,0.1
							c0,0-0.1,0-0.1,0c0,0,0,0,0,0c0,0,0,0,0,0C215.5,475.5,215.6,475.5,215.7,475.4C215.7,475.5,215.7,475.4,215.7,475.4z"/>
						<path id="Tracé_1561" class="st20" d="M214.3,476.1c-0.1,0-0.1,0-0.1,0.1c0,0-0.1,0-0.1,0.1l-0.2,0.1c0,0,0,0-0.1,0
							C213.9,476.3,214.1,476.2,214.3,476.1z"/>
						<path id="Tracé_1562" class="st20" d="M215,475.8C214.9,475.8,214.9,475.8,215,475.8c-0.1,0.1-0.2,0.1-0.2,0.1
							c-0.1,0-0.2,0.1-0.3,0.1C214.6,476,214.8,475.9,215,475.8z"/>
						<path id="Tracé_1563" class="st20" d="M215.1,475.7C215.1,475.7,215.1,475.8,215.1,475.7c-0.1,0.1-0.1,0.1-0.1,0.1
							C215,475.8,215.1,475.7,215.1,475.7z"/>
						<path id="Tracé_1564" class="st20" d="M213.4,476.5C213.4,476.5,213.4,476.5,213.4,476.5c-0.1,0.1-0.2,0.1-0.3,0.1
							c0,0-0.1,0-0.1,0s-0.1,0-0.1,0c0,0-0.1,0-0.1,0l-0.1,0c0.1-0.1,0.3-0.1,0.4-0.2C213.3,476.6,213.4,476.5,213.4,476.5z"/>
						<path id="Tracé_1565" class="st20" d="M213.7,476.4c-0.1,0-0.2,0.1-0.2,0.1c0,0,0,0,0,0C213.5,476.4,213.6,476.4,213.7,476.4
							z"/>
						<path id="Tracé_1566" class="st20" d="M212.5,476.9C212.5,477,212.4,477,212.5,476.9c-0.1,0-0.2,0.1-0.2,0.1
							C212.3,477,212.4,477,212.5,476.9z"/>
						<path id="Tracé_1567" class="st20" d="M211.2,477.5C211.2,477.5,211.1,477.5,211.2,477.5c-0.1,0.1-0.2,0.1-0.2,0.1
							C211,477.5,211.1,477.5,211.2,477.5z"/>
						<path id="Tracé_1568" class="st20" d="M211,477.6l-0.2,0.1c0,0,0,0-0.1,0c0,0-0.1,0-0.1,0c0,0-0.1,0-0.1,0.1c0,0,0,0,0,0
							c0,0,0.1,0,0.1,0c0.1,0,0.1-0.1,0.2-0.1C210.8,477.7,210.9,477.6,211,477.6z"/>
						<path id="Tracé_1569" class="st20" d="M209.8,478.1c0,0-0.1,0-0.1,0.1c0,0,0,0,0,0C209.7,478.1,209.8,478.1,209.8,478.1z"/>
						<path id="Tracé_1570" class="st20" d="M208.6,478.6c-0.1,0-0.1,0.1-0.2,0.1c-0.1,0-0.1,0.1-0.2,0.1l-0.1,0
							C208.3,478.7,208.5,478.6,208.6,478.6z"/>
						<path id="Tracé_1571" class="st20" d="M208.1,478.8c-0.1,0-0.1,0-0.2,0.1c-0.1,0-0.1,0.1-0.2,0.1c-0.1,0-0.1,0.1-0.2,0.1
							c0,0-0.1,0-0.1,0C207.7,478.9,207.9,478.8,208.1,478.8z"/>
						<path id="Tracé_1572" class="st20" d="M205.6,479.7c-0.1,0.1-0.2,0.1-0.3,0.1h0C205.4,479.8,205.5,479.8,205.6,479.7z"/>
						<path id="Tracé_1573" class="st24" d="M208.3,570.1c-5.8-2.7-14.1-4.7-22.3-6.1c0-0.1-0.1-0.3-0.2-0.4
							c6.4-0.4,12.9-0.8,19.5-1.2C206.5,564.8,207.5,567.4,208.3,570.1z"/>
						<path id="Tracé_1574" class="st24" d="M205.3,562.3c-6.6,0.4-13.1,0.8-19.5,1.2c-6.8-17.2-12-44.6-14.6-59.8
							c2.9-6.1,5-10.3,6-11.4c0.7-0.8,1.6-1.4,2.5-1.9c0,0,0,0,0,0c0,0,0,0,0.1,0c0,0,0.1,0,0.1-0.1c0,0,0,0,0.1,0
							c0,0,0.1-0.1,0.1-0.1c0,0,0.1,0,0.1-0.1c0,0,0.1-0.1,0.2-0.1c0,0,0,0,0.1,0c0,0,0.1,0,0.1-0.1c0,0,0.1,0,0.1,0
							c0,0,0.1-0.1,0.1-0.1c0,0,0,0,0.1-0.1c0,0,0.1,0,0.1-0.1c0,0,0,0,0.1,0c0,0,0,0,0,0c0,0,0,0,0,0c0,0,0,0,0,0c0,0,0,0,0,0
							c0.1,0,0.1-0.1,0.2-0.1c0,0,0.1,0,0.1,0c0,0,0.1,0,0.1,0c0.1,0,0.1,0,0.2-0.1c0,0,0,0,0,0l0.2-0.1l0,0c0,0,0,0,0,0
							c0,0,0.1,0,0.2-0.1c0,0,0,0,0,0c0,0,0,0,0.1,0s0.1,0,0.1-0.1c0,0,0.1,0,0.1-0.1l0.1,0c0,0,0.1,0,0.1-0.1c0.1,0,0.1,0,0.2-0.1
							c0,0,0.1,0,0.1,0c0.1,0,0.1,0,0.1-0.1c0,0,0.1,0,0.1-0.1c0,0,0.1,0,0.1,0c0.1,0,0.1,0,0.2-0.1c0.1-0.1,0.3-0.1,0.4-0.2
							c0.1,0,0.1,0,0.2-0.1c0,0,0.1,0,0.1-0.1c0,0,0.1,0,0.1,0c0.1,0,0.1-0.1,0.2-0.1c0,0,0.1,0,0.1,0c0,0,0.1,0,0.1,0
							c0,0,0.1,0,0.1-0.1c0,0,0,0,0,0c0.1,0,0.2-0.1,0.3-0.1c0,0,0.1,0,0.1-0.1c0,0,0.1,0,0.2-0.1l0,0c0,0,0,0,0.1,0s0,0,0,0
							c0,0,0.1,0,0.1,0l0,0l0.3-0.1c0.1,0,0.2-0.1,0.3-0.1c0.1,0,0.1,0,0.2-0.1c0,0,0.1,0,0.1,0c0.1,0,0.1,0,0.2-0.1
							c0.1,0,0.1-0.1,0.2-0.1c0.1,0,0.1,0,0.2-0.1c0,0,0.1,0,0.1,0c0.1,0,0.1-0.1,0.2-0.1c0,0,0.1,0,0.1-0.1c0.1,0,0.1,0,0.2-0.1
							c0,0,0.1,0,0.1,0c0.1,0,0.1,0,0.2-0.1l0.5-0.2c0,0,0,0,0,0c0.1,0,0.1,0,0.2-0.1l0.1,0c0.1,0,0.2-0.1,0.2-0.1h0
							c0.1,0,0.1,0,0.2-0.1c0,0,0.1,0,0.2-0.1s0.1,0,0.2,0c0,0,0.1-0.1,0.1-0.1c0,0,0.1,0,0.2-0.1c0,0,0.1,0,0.1,0
							c0.2-0.1,0.4-0.2,0.6-0.2c0,0,0,0,0.1,0c0.2-0.1,0.5-0.2,0.7-0.3c0,0,0,0,0,0c0,0,0,0,0,0c0.3-0.1,0.6-0.2,0.9-0.3
							c0,0,0.1,0,0.1,0l1.1-0.4l0.1,0c0,0,0.1,0,0.2-0.1c0.1,0,0.1,0,0.2-0.1c0.4-0.1,0.8-0.3,1.2-0.4c0.2-0.1,0.3-0.1,0.5-0.2
							c1.1-0.4,2.3-0.9,3.4-1.3c0,0,0.1,0,0.1,0c0,0,0.1,0,0.1,0c0,0,0.1,0,0.1,0c0,0,0.1,0,0.1,0c0,0,0.1,0,0.1,0
							c0.7-0.3,1.4-0.5,2.2-0.8c0,0,0,0,0,0c0.1,0,0.2-0.1,0.3-0.1c0,0,0,0,0.1,0c-0.1,1.7-0.2,3.5-0.3,5.5
							c-5.7,3.3-12.8,9.2-12.8,18.1c0,15,7.6,22.3,5.7,37.3c-1.2,9.5,4.8,15.3,9.3,18.2c0-0.1-0.1-0.2-0.1-0.4
							c0.1,0.4,0.3,0.8,0.5,1.2C204.9,561.4,205.1,561.9,205.3,562.3z"/>
						<path id="Tracé_1575" class="st19" d="M204.2,559.8c0,0.1,0.1,0.2,0.1,0.4c-4.5-2.9-10.5-8.7-9.3-18.2
							c1.9-15-5.7-22.3-5.7-37.3c0-8.9,7.1-14.8,12.8-18.1c0,0.6-0.1,1.2-0.1,1.7c0,0.6-0.1,1.2-0.1,1.8c-0.1,1.2-0.1,2.5-0.2,3.8
							c0,0.3,0,0.7,0,1c-0.1,2.3-0.2,4.7-0.2,7.2c-0.1,2.9-0.2,5.9-0.2,8.9c0,2.1-0.1,4.2-0.1,6.4c0,3.8,0,7.7,0,11.5
							c0,0.7,0,1.5,0.1,2.2v0.6c0,0.8,0,1.6,0.1,2.5c0.1,2.2,0.1,4.3,0.2,6.3c0,0.5,0,0.9,0.1,1.4c0,0.5,0.1,0.9,0.1,1.4
							c0.1,1.3,0.2,2.6,0.3,3.9c0.1,0.9,0.2,1.7,0.2,2.6c0.1,1.1,0.2,2.1,0.4,3.1c0.1,0.4,0.1,0.8,0.2,1.1c0.1,0.6,0.2,1.2,0.3,1.8
							c0.1,0.4,0.2,0.8,0.2,1.1c0.2,0.8,0.4,1.6,0.6,2.3C204,559.3,204.1,559.5,204.2,559.8z"/>
						<path id="Tracé_1576" class="st24" d="M203.9,559.1c0.1,0.2,0.2,0.5,0.2,0.7C204.1,559.5,204,559.3,203.9,559.1z"/>
						<path id="Tracé_1577" class="st24" d="M203.3,556.8c0.2,0.8,0.4,1.6,0.6,2.3C203.7,558.4,203.5,557.6,203.3,556.8z"/>
						<path id="Tracé_1578" class="st24" d="M202.8,553.9c0.1,0.6,0.2,1.2,0.3,1.8C203,555.1,202.9,554.5,202.8,553.9z"/>
						<path id="Tracé_1579" class="st24" d="M202.2,549.7c0.1,1.1,0.2,2.1,0.4,3.1C202.5,551.8,202.3,550.7,202.2,549.7z"/>
						<path id="Tracé_1580" class="st19" d="M202,486.5c0,0.6-0.1,1.2-0.1,1.8C202,487.7,202,487.1,202,486.5
							C202,486.5,202,486.5,202,486.5C202,486.5,202,486.5,202,486.5z"/>
						<path id="Tracé_1581" class="st19" d="M201.9,490.1c-0.1,1.2-0.1,2.5-0.2,3.8C201.8,492.6,201.8,491.3,201.9,490.1z"/>
						<path id="Tracé_1582" class="st24" d="M201.7,543.2c0.1,1.3,0.2,2.6,0.3,3.9C201.8,545.8,201.7,544.6,201.7,543.2z"/>
						<path id="Tracé_1583" class="st24" d="M201.5,540.5c0,0.5,0.1,0.9,0.1,1.4C201.5,541.4,201.5,540.9,201.5,540.5z"/>
						<path id="Tracé_1584" class="st19" d="M201.7,494.9c-0.1,2.3-0.2,4.7-0.2,7.2C201.5,499.7,201.6,497.2,201.7,494.9z"/>
						<path id="Tracé_1585" class="st19" d="M201.2,531.7c0,0.8,0,1.6,0.1,2.5C201.2,533.4,201.2,532.6,201.2,531.7z"/>
						<path id="Tracé_1586" class="st24" d="M201.1,528.9c0,0.7,0,1.5,0.1,2.2C201.2,530.4,201.1,529.6,201.1,528.9z"/>
						<path id="Tracé_1587" class="st19" d="M201.2,511.1c0,2.1-0.1,4.2-0.1,6.4C201.1,515.3,201.2,513.2,201.2,511.1z"/>
						<path id="Tracé_1588" class="st20" d="M199.7,482c0,0-0.1,0-0.1,0c0,0-0.1,0-0.1,0c0,0-0.1,0-0.1,0
							C199.5,482,199.6,482,199.7,482z"/>
						<path id="Tracé_1589" class="st21" d="M191.6,485c-0.2,0.1-0.5,0.2-0.7,0.3l0.3-0.1c0,0,0.1,0,0.1,0
							C191.4,485.1,191.5,485,191.6,485z"/>
						<path id="Tracé_1590" class="st21" d="M186.5,487c-0.1,0-0.2,0.1-0.3,0.1c0,0,0.1,0,0.1-0.1C186.4,487.1,186.4,487,186.5,487
							z"/>
						
							<linearGradient id="Tracé_1591_1_" gradientUnits="userSpaceOnUse" x1="-277.7422" y1="30.4982" x2="-267.0912" y2="930.4973" gradientTransform="matrix(1.885 0 0 -0.428 701.0612 721.2941)">
							<stop  offset="0" style="stop-color:#82ACF5"/>
							<stop  offset="1" style="stop-color:#F8BDEC"/>
						</linearGradient>
						<path id="Tracé_1591" class="st25" d="M186,564c-0.6-0.1-1.3-0.2-1.9-0.3c0.6-0.1,1.1-0.1,1.7-0.1
							C185.9,563.7,185.9,563.8,186,564z"/>
						<path id="Tracé_1592" class="st21" d="M185.9,487.3c0,0-0.1,0-0.1,0.1c0,0,0,0-0.1,0l0,0c0,0,0.1,0,0.1,0
							C185.8,487.3,185.9,487.3,185.9,487.3z"/>
						<path id="Tracé_1593" class="st21" d="M185,487.6c0,0-0.1,0-0.1,0.1C184.9,487.7,184.9,487.7,185,487.6
							C185,487.7,185,487.6,185,487.6z"/>
						<path id="Tracé_1594" class="st21" d="M185.3,487.5c-0.1,0-0.2,0.1-0.3,0.1c0,0,0,0,0.1,0c0,0,0.1,0,0.1-0.1
							S185.3,487.5,185.3,487.5z"/>
						<path id="Tracé_1595" class="st21" d="M180.4,585c-15.6-2.7-44.9-1.6-62.3-0.7c-0.1-0.3-0.3-0.6-0.4-0.9
							c-4.3-3.1-7.9-7.9-10.9-13.2c-6.8-12.6-9.6-28.4-7.3-33.4c4.3-9.3,15.9,6.1,29.3,2c10.8-3.3,23.3-23.7,21.5-38.6
							c2.3,4.1,4.2,8.4,5.7,12.9c1.6,4.6,2.8,9.3,3.8,14c1,15.5-1.9,30.1-1.9,33.9c0,0,12.6,0.6,26.1,2.7c0.6,0.1,1.2,0.2,1.9,0.3
							c8.2,1.4,16.5,3.3,22.3,6.1c2.1,0.9,4.1,2.2,5.7,3.9C223.9,584.7,202,588.7,180.4,585z"/>
						<path id="Tracé_1596" class="st21" d="M182.2,488.9c-0.1,0-0.1,0-0.2,0.1c0,0,0,0,0.1,0C182.2,489,182.2,488.9,182.2,488.9z"
							/>
						<path id="Tracé_1597" class="st21" d="M181.8,489.1c-0.1,0-0.1,0-0.2,0.1c0,0,0,0,0.1,0C181.7,489.2,181.8,489.2,181.8,489.1
							z"/>
						<path id="Tracé_1598" class="st21" d="M181.6,489.2C181.6,489.3,181.6,489.3,181.6,489.2
							C181.6,489.3,181.6,489.3,181.6,489.2C181.6,489.3,181.6,489.2,181.6,489.2z"/>
						<path id="Tracé_1599" class="st21" d="M181.5,489.3c-0.1,0-0.1,0.1-0.2,0.1c0,0,0.1,0,0.1-0.1S181.4,489.3,181.5,489.3z"/>
						<path id="Tracé_1600" class="st21" d="M179.7,490.3c-0.9,0.5-1.7,1.2-2.5,1.9c-1,1.1-3.1,5.3-6,11.4
							c-3,6.3-6.9,14.5-11.3,23.3c-0.1-7.5-1.3-14.9-3.5-22c-6.8-21.3-23.1-28.8-44.3-31.9c-3.7-0.6-7.5-0.7-11.2-0.3
							c-1.2-1.3-1.6-3.1-1.1-4.8c3.4-12.6,30.2-6.1,43.5-4.1s-0.5-32,13.4-35.3c14-3.2,12.1,52.8,18.7,60
							C176.1,489.7,177.6,490.2,179.7,490.3C179.7,490.3,179.7,490.3,179.7,490.3z"/>
						<path id="Tracé_1601" class="st23" d="M159.9,527.1c-1-4.8-2.3-9.4-3.8-14c-1.4-4.5-3.3-8.8-5.7-12.9
							c-5.5-9.4-14.1-16-30.7-20.5c-2.6-0.7-5.3-1.4-8.3-2c-0.1,0-0.3-0.1-0.4-0.1c-11-2-22-1.2-31.5,5.1c5.7-5.9,13.4-8.9,21.4-9.7
							c3.7-0.4,7.5-0.3,11.2,0.3c21.1,3.1,37.4,10.6,44.3,31.9C158.6,512.2,159.8,519.6,159.9,527.1z"/>
						<path id="Tracé_1602" class="st5" d="M125.2,432.2c-10.9,6.7-28.9,20.8-28.9,6.4s16.9-32.7,27-25
							C123.3,413.6,136.2,425.5,125.2,432.2z"/>
						<path id="Tracé_1603" class="st5" d="M125.7,384.8c-0.7,0.4-1.4,0.8-2.1,1.2v0C124.3,385.6,125,385.2,125.7,384.8z"/>
						<path id="Tracé_1604" class="st5" d="M106.1,508.2c-12.9,13.9-27,24.8-33.4,18c-6.3-6.9,3.3-30,3.3-30s31.3-15.2,44.3-6.6
							S118.9,494.2,106.1,508.2z"/>
						<path id="Tracé_1605" class="st20" d="M118.1,584.3L118.1,584.3c-0.2,0-0.4,0-0.7,0L118.1,584.3z"/>
						<path id="Tracé_1606" class="st21" d="M119.7,479.6c-3.1-0.7-6-1.3-8.7-2c0.1,0,0.3,0,0.4,0.1
							C114.4,478.2,117.2,478.9,119.7,479.6z"/>
						
							<linearGradient id="Tracé_1607_1_" gradientUnits="userSpaceOnUse" x1="-444.1569" y1="849.0307" x2="-443.7759" y2="860.8917" gradientTransform="matrix(52.49 0 0 -32.148 23335.0586 27993.2305)">
							<stop  offset="0" style="stop-color:#82ACF5"/>
							<stop  offset="1" style="stop-color:#F8BDEC"/>
						</linearGradient>
						<path id="Tracé_1607" class="st26" d="M52.5,612.5C18.8,607.1,0,601,0,594.7c0-5.1,12-9.9,33.9-14.4
							C34.8,592.5,40.8,603.5,52.5,612.5z"/>
					</g>
				</g>
			</g>
		</g>
	</g>
</g>
</svg>
