<svg xmlns="http://www.w3.org/2000/svg" width="1107.047" height="559" viewBox="0 0 1107.047 559">
  <g id="welcome-contact-bg" transform="translate(-517.766 -452)">
    <g id="Groupe_4097" data-name="Groupe 4097">
      <g id="Scene_Wireframe" data-name="Scene/Wireframe" transform="translate(741 400)">
        <path id="Twisted_Leaf" data-name="Twisted Leaf" d="M102.225,1.334A7.414,7.414,0,0,0,99.838.692,38.719,38.719,0,0,0,92.374,0,137.709,137.709,0,0,0,69.3,2.074c-4.8.83-10.61,3.622-15.388,2.106-8.324-2.642-16.738-2.512-24.635,1.26-7.221,3.449-12.7,10-15.9,17.078a43.407,43.407,0,0,0-2.995,7.652c-.237.542-.465,1.088-.67,1.642-.582,1.573-1.1,3.173-1.59,4.777-.207.684-.729,2.194-.11,2.486a45.46,45.46,0,0,0-2.6,5.652C3.286,50.378.962,56.578.215,62.568a27.912,27.912,0,0,0-.03,6.671c.127,1.1.074,3.307.819,4.142,1.58,1.772,2.392-.709,2.214-1.89C1.858,62.485,4.485,54.027,7.6,45.561a53.276,53.276,0,0,1,9.027-15.019,37.906,37.906,0,0,1,10.328-9,161.472,161.472,0,0,1,15.728-7.8c3.5-1.588,7.009-3.134,10.61-4.5a10.575,10.575,0,0,1,2.948-1.088c1.877-.007,4.537,1.379,6.351,1.894,5.964,1.7,12,3.867,18.168,4.733A23.43,23.43,0,0,0,92.113,13.4a10.628,10.628,0,0,0,1.787-.974,25.936,25.936,0,0,0,7.6-4.3,30.324,30.324,0,0,0,3.563-3.839,2.011,2.011,0,0,0,.47-1.264c.244-.128.406-.277.443-.451.269-1.286-2.184-1.31-3.754-1.233" transform="translate(588 194)" fill="#89c5cc"/>
        <path id="Fill_16" data-name="Fill 16" d="M11.933,0C9.99,0,8.054.039,6.115.139,4.636.216,2.377-.089,1.126.828c-1.3.953-1.21,2.9-1.007,4.28,1.073,7.282,3.693,13.739,9.174,18.9,8.439,7.944,18.113,11.981,29.561,13.778,8.042,1.263,15.465-.491,21.385-6.181a88.518,88.518,0,0,1,9.253,25.752,61.405,61.405,0,0,1,.917,13.236c-.092,2.872-.251,5.736-.56,8.594-.134,1.242-.77,3.122-.282,4.3a1.974,1.974,0,0,0,3.375.336c.722-.978.59-2.9.738-4.056.246-1.923.474-3.847.637-5.778.265-3.126.46-6.262.446-9.4A69.774,69.774,0,0,0,71,43.758C66.865,30.916,60.158,19.5,49.726,10.55,43.311,5.043,35.97,2.814,27.641,1.617A111.241,111.241,0,0,0,11.933,0" transform="translate(56 310.05) rotate(-39)" fill="#dde3e9"/>
        <path id="Leaf" d="M81.472,180.815c-1.575-12.542-3.242-25.012-6.294-37.31-1.8-7.247-4.1-14.342-6.2-21.506q.282,1.348.5,2.71c-.729-2.137-2.25-4.181-3.126-6.31-.976-2.375-1.761-4.842-2.507-7.294-1.456-4.786-2.83-9.58-4.468-14.311-1.826-5.271-3.928-10.454-5.887-15.679A127.246,127.246,0,0,0,48.105,67.8c-1.18-2.306-2.237-4.784-3.4-7.135-.388-.787-3.714-9.576-3.689-9.576.55,0,2.613,3.907,2.954,4.481,1,1.676,1.847,3.421,2.7,5.168a23.014,23.014,0,0,1,1.88-6.015c.285-.589,2.285-4.932,2.936-4.932.325,0-2.681,8.2-3.061,8.922a14.855,14.855,0,0,0-1.088,1.949c-.325,1-.158.754.111,1.66A47.616,47.616,0,0,0,49.724,67.2a34.728,34.728,0,0,0,2.205,5.126C54.252,76.868,55.9,82.4,57.671,87.3a32.055,32.055,0,0,1,1.949-6.988c.216-.538,1.934-5.525,2.429-5.525.557,0-1.576,7.988-1.865,8.678-.538,1.282-1.384,2.522-1.832,3.827-.491,1.432.372,2.721.921,4.185,2.022,5.388,3.794,10.83,5.414,16.345,9.406-4.12,11.276-16.244,11.89-25.185A62.468,62.468,0,0,0,74.458,63.38c-2.087-8.343-5.6-16.4-9.324-24.151A86.4,86.4,0,0,0,47.626,15.05,92.388,92.388,0,0,0,35.22,5.139a26.4,26.4,0,0,0-6.8-3.5A24.612,24.612,0,0,0,24.995.8C24.112.644,22.311-.175,21.58.034,15.6,1.687,11.112,4.437,7.63,9.548a44.722,44.722,0,0,0-6.48,16.3A51.867,51.867,0,0,0,.665,44.9,117.757,117.757,0,0,0,4.357,59.215c5.095,16.753,14.025,34.713,30.05,43.9a48.771,48.771,0,0,0,16.85,5.636c1.392.217,2.783.424,4.192.5.95.054,4.072-.577,4.76-.167.942.561,1.483,3.746,1.894,4.9,3.12,8.777,5.91,17.653,8.442,26.608,2.693,9.528,4.833,19.148,6.615,28.876.758,4.138,1.5,8.268,2.125,12.428.147.968,0,4.012.94,4.867a1.139,1.139,0,0,0,1.8-.343c.618-1.151-.389-4.328-.55-5.612" transform="matrix(0.799, -0.602, 0.602, 0.799, 1, 171.481)" fill="#c1dee2"/>
        <path id="Fill_10" data-name="Fill 10" d="M85.98.66A47.063,47.063,0,0,0,75.329.033,66.182,66.182,0,0,0,26.489,23.2c-10.138,12-12.926,26.92-14.928,42-.2,1.5-.284,2.985-.4,4.486-.024.322-.06.609-.1.88A1.937,1.937,0,0,0,10.332,73,100.261,100.261,0,0,0,5.869,84.706C2.162,96.526-1.608,108.571.714,121a173.656,173.656,0,0,1,3.049-20.562c.079-.386.163-.769.252-1.151.009-.04.017-.081.027-.121a44.965,44.965,0,0,1,1.875-6.026c.008-.022.016-.043.024-.064.1-.259.208-.516.314-.774.219-.533.444-1.065.682-1.594q.121-.27.232-.546c1.112-2.726,1.582-5.8,2.578-8.618q.358-.962.749-1.916l.047-.112c.706-1.71,1.485-3.4,2.31-5.071a6.244,6.244,0,0,0,1.074-1.931,12.073,12.073,0,0,0,.891-1.722q.728-1.409,1.458-2.816l-.044.016q.734-1.35,1.467-2.689l.323-.589.524-.938c1.632-2.921,3.363-5.783,5.16-8.61.641-1.009,2.174-2.455,2.468-3.588.011-.042.013-.081.02-.122A64.29,64.29,0,0,1,39.967,36.924c-.651.7-2.034,3.091-2.4,3.564-1.119,1.447-2.334,2.795-3.554,4.158A88.517,88.517,0,0,0,27.8,52.274,144.959,144.959,0,0,0,18.519,67.51c-.027.031-.056.06-.082.091C17.017,69.352,16.123,72,15.1,74c4.046-1.874,8.521-3.1,12.674-4.759a104.134,104.134,0,0,0,12.059-5.676A134.574,134.574,0,0,0,55.25,53.743,61.078,61.078,0,0,0,69.7,40.477c4.912-5.934,9.414-11.919,12.2-19.124a57.426,57.426,0,0,0,3.082-10.967c.028-.163.064-.339.1-.523a35.925,35.925,0,0,0,1.726-3.958c.778-2.14,2.614-4.494-.83-5.246" transform="translate(595 231)" fill="#69a1ac"/>
        <path id="Leave_the_Leaf_" data-name="Leave the Leaf!" d="M-1.323,82c.221,0,.463-.17.72-.5.593-.772.118-3.281-.138-4.629-.046-.24-.085-.447-.107-.587a29,29,0,0,0-.767-3.508,101.182,101.182,0,0,0-3.734-10.3c-.511-1.255-1.046-2.555-1.59-3.866-.1-.244-.188-.423-.258-.568-.25-.519-.25-.519.258-1.073l.09-.1a7.037,7.037,0,0,1,.925-.8,8.618,8.618,0,0,0,.778-.647A17.431,17.431,0,0,0-.892,48.375a17.684,17.684,0,0,0,.77-7.707A30.3,30.3,0,0,0-2.1,33.112,60.645,60.645,0,0,0-8.252,21.224a54.813,54.813,0,0,0-8.732-10.263c-3.551-3.223-8.292-6-14.5-8.479A30.708,30.708,0,0,0-40.75.313C-41.2.282-41.657.266-42.121.266a25.156,25.156,0,0,0-3.079.2c-.289.036-.591.095-.883.152a9.077,9.077,0,0,1-1.252.186l-.2.011c-.139.008-.247.014-.342.014-.384,0-.535-.111-1.018-.586A.7.7,0,0,0-49.354,0a.416.416,0,0,0-.374.319,1.144,1.144,0,0,0,.314,1.2,8.554,8.554,0,0,0-3.918,3.464A12.334,12.334,0,0,0-54.87,9.91,35.6,35.6,0,0,0-54.025,20.5,48.528,48.528,0,0,0-50.6,31.063a55.578,55.578,0,0,0,5.532,9.453,79.906,79.906,0,0,0,15.64,15.85,22.847,22.847,0,0,0,10.506,4.8,12.244,12.244,0,0,0,2,.166,13.419,13.419,0,0,0,4.2-.7c.105-.035.24-.074.4-.119.64-.185,1.607-.464,1.846-.863.214-.359.016-.669-.235-1.062-.074-.116-.15-.235-.222-.366q-.415-.753-.828-1.506c-.727-1.324-1.479-2.694-2.232-4.032-.119-.212-.245-.49-.378-.786a5.134,5.134,0,0,0-1.147-1.863.707.707,0,0,0-.19-.018,1.483,1.483,0,0,1-.6-.1c-.127-.081-.147-.311-.161-.463-.007-.077-.012-.137-.029-.147a6.522,6.522,0,0,0-2.274-.522c-.383-.045-.745-.087-1.031-.148-.789-.169-1.719-.38-2.638-.667a29.266,29.266,0,0,1-2.769-1.028c-.192-.082-.469-.241-.762-.41a5.243,5.243,0,0,0-1.552-.712A25.35,25.35,0,0,1-21.6,46.879a23.094,23.094,0,0,1,3.091,1.076c.121.052.322.163.554.292a5.139,5.139,0,0,0,1.62.7.264.264,0,0,0,.135-.03,60.263,60.263,0,0,0-4.122-5.869c-.768-.971-1.581-2.019-2.314-3.1-.047-.07-.164-.28-.311-.545a8.135,8.135,0,0,0-1.29-1.982c.468,0,1.484,1.1,2.092,1.75.176.19.328.353.424.445A28.275,28.275,0,0,1-19.488,42a54.1,54.1,0,0,1,3.313,4.492c1.468,2.193,2.757,4.479,3.953,6.634.275.5.572,1,.859,1.5a29.671,29.671,0,0,1,2.141,4.152.252.252,0,0,1,.149-.063c.16,0,.236.258.31.507a2.663,2.663,0,0,0,.084.254c.388.931.767,1.842,1.14,2.749.787,1.915,1.416,3.5,1.981,4.977l.03.079c.662,1.736,1.347,3.531,1.9,5.332a30.508,30.508,0,0,1,1.138,5.17c.088.7.149,1.406.182,2.1C-2.284,80.446-2,82-1.323,82ZM-4.54,49.348a18.932,18.932,0,0,1-3,5c.7-1.036,1.3-1.987,1.843-2.907.123-.208.356-.643.583-1.064C-4.831,49.853-4.565,49.358-4.54,49.348ZM-17.9,34.774c.318,0,.658,2.847.693,3.32a13.873,13.873,0,0,1-.547,4.673l0,.007,0-.007a17.9,17.9,0,0,0-.142-2.243c-.2-2.234-.472-5.294-.1-5.7A.125.125,0,0,1-17.9,34.774Z" transform="matrix(0.53, -0.848, 0.848, 0.53, 76.146, 219)" fill="#89c5cc"/>
        <g id="Background_Shape_2" data-name="Background Shape 2" transform="translate(39 358)" opacity="0.6">
          <path id="Background_Shape" data-name="Background Shape" d="M661.711,146.152c9.65,65.324-224.374,107.932-425.8,78.2S-57.928,78.493,38.191,16.62,652.061,80.828,661.711,146.152Z" fill="#dde3e9"/>
        </g>
        <g id="Mobile3" transform="translate(138 76)">
          <rect id="Container" width="159" height="302" rx="8" fill="#f2f2f2"/>
          <circle id="Touch" cx="15" cy="15" r="15" transform="translate(64 253)" fill="#fff"/>
          <g id="Camera" transform="translate(64 16)">
            <circle id="Lens" cx="2" cy="2" r="2" fill="#fff"/>
            <rect id="Sensor" width="21" height="4" rx="2" transform="translate(9)" fill="#fff"/>
          </g>
          <g id="Rows" transform="translate(14 28)">
            <g id="Row">
              <rect id="Background" width="131" height="54" rx="4" fill="#fff"/>
              <g id="Text" transform="translate(39 16.2)">
                <rect id="Name" width="73" height="8.1" rx="3" fill="#dde3e9"/>
                <rect id="Name-2" data-name="Name" width="49" height="8.1" rx="3" transform="translate(0 13.5)" fill="#dde3e9"/>
              </g>
              <circle id="Avatar" cx="12" cy="12" r="12" transform="translate(9 15)" fill="#c5cfd6"/>
            </g>
            <g id="Row-2" data-name="Row" transform="translate(0 62)">
              <rect id="Background-2" data-name="Background" width="131" height="42" rx="4" fill="#fff"/>
              <g id="Text-2" data-name="Text" transform="translate(39 12.6)">
                <rect id="Name-3" data-name="Name" width="73" height="6.3" rx="3" fill="#dde3e9"/>
                <rect id="Name-4" data-name="Name" width="49" height="6.3" rx="3" transform="translate(0 10.5)" fill="#dde3e9"/>
              </g>
              <circle id="Avatar-2" data-name="Avatar" cx="12" cy="12" r="12" transform="translate(9 9)" fill="#c5cfd6"/>
            </g>
            <g id="Row-3" data-name="Row" transform="translate(0 112)">
              <rect id="Background-3" data-name="Background" width="131" height="42" rx="4" fill="#fff"/>
              <g id="Text-3" data-name="Text" transform="translate(39 12.6)">
                <rect id="Name-5" data-name="Name" width="73" height="6.3" rx="3" fill="#dde3e9"/>
                <rect id="Name-6" data-name="Name" width="49" height="6.3" rx="3" transform="translate(0 10.5)" fill="#dde3e9"/>
              </g>
              <circle id="Avatar-3" data-name="Avatar" cx="12" cy="12" r="12" transform="translate(9 9)" fill="#afb9c5"/>
            </g>
            <g id="Row-4" data-name="Row" transform="translate(0 162)">
              <rect id="Background-4" data-name="Background" width="131" height="42" rx="4" fill="#fff"/>
              <g id="Text-4" data-name="Text" transform="translate(39 12.6)">
                <rect id="Name-7" data-name="Name" width="73" height="6.3" rx="3" fill="#dde3e9"/>
                <rect id="Name-8" data-name="Name" width="49" height="6.3" rx="3" transform="translate(0 10.5)" fill="#dde3e9"/>
              </g>
              <circle id="Avatar-4" data-name="Avatar" cx="12" cy="12" r="12" transform="translate(9 9)" fill="#c5cfd6"/>
            </g>
          </g>
        </g>
        <g id="Mobile3-2" data-name="Mobile3" transform="translate(156 102)">
          <g id="Group" transform="translate(0 218)">
            <path id="Fill_16-2" data-name="Fill 16" d="M8.14,0C6.815,0,5.494.027,4.171.1,3.162.148,1.621-.061.768.568-.119,1.221-.058,2.557.081,3.5.813,8.493,2.6,12.919,6.339,16.456,12.1,21.9,18.695,24.668,26.5,25.9c5.486.866,10.55-.336,14.588-4.237A60.868,60.868,0,0,1,47.4,39.315a42.292,42.292,0,0,1,.626,9.073c-.063,1.968-.171,3.932-.382,5.891-.091.851-.526,2.14-.192,2.944a1.343,1.343,0,0,0,2.3.231c.493-.67.4-1.987.5-2.78.168-1.318.323-2.637.434-3.961.181-2.143.314-4.292.3-6.444a48.036,48.036,0,0,0-2.567-14.274c-2.82-8.8-7.4-16.625-14.512-22.763-4.376-3.774-9.383-5.3-15.065-6.123A75.529,75.529,0,0,0,8.14,0" transform="translate(4)" fill="#89c5cc"/>
            <path id="Fill_18" data-name="Fill 18" d="M32.571,0C18.272,0,8.642,11.524,4.089,23.5c-1.716,4.515-2.119,9.472-2.78,14.213-.212,1.521-.134,3.839-.751,5.195-.224.491-.738.668-.492,1.338a1.086,1.086,0,0,0,.879.734c.9.166,2.171-.814,2.942-1.2,6.4-3.208,10.6-8.168,14.027-14.236a60.584,60.584,0,0,0,5.544-11.8,40.769,40.769,0,0,0,1.484-7.8,29.682,29.682,0,0,0,.2-3.122,6.3,6.3,0,0,0-.829-2.468c4.771-1.806,10.156-2.3,14.989-.427a19.209,19.209,0,0,1,10.262,9.279,17.7,17.7,0,0,1,1.26,3.42A11.772,11.772,0,0,0,51.4,19.1c.893,1.687,2.771.559,2.59-1.011A20.315,20.315,0,0,0,47.775,6.263,22.349,22.349,0,0,0,32.571,0" transform="translate(0 35)" fill="#89c5cc"/>
          </g>
          <rect id="Container-2" data-name="Container" width="159" height="302" rx="8" transform="translate(48)" fill="#dde3e9"/>
          <circle id="Touch-2" data-name="Touch" cx="15" cy="15" r="15" transform="translate(112 253)" fill="#fff"/>
          <g id="Camera-2" data-name="Camera" transform="translate(112 16)">
            <circle id="Lens-2" data-name="Lens" cx="2" cy="2" r="2" fill="#fff"/>
            <rect id="Sensor-2" data-name="Sensor" width="21" height="4" rx="2" transform="translate(9)" fill="#fff"/>
          </g>
          <g id="Rows-2" data-name="Rows" transform="translate(62 28)">
            <g id="Row-5" data-name="Row">
              <rect id="Container-3" data-name="Container" width="131" height="54" rx="4" fill="#fff"/>
              <g id="Text_Stuff" data-name="Text Stuff" transform="translate(9 16.2)">
                <rect id="Label" width="73" height="8.1" rx="3" fill="#dde3e9"/>
                <rect id="Label-2" data-name="Label" width="49" height="8.1" rx="3" transform="translate(0 13.5)" fill="#dde3e9"/>
              </g>
              <g id="Check" transform="translate(110 20)">
                <circle id="Background-5" data-name="Background" cx="7" cy="7" r="7" fill="#dde3e9"/>
                <circle id="Indicator" cx="3" cy="3" r="3" transform="translate(4 4)" fill="#f2f2f2"/>
              </g>
            </g>
            <g id="Row-6" data-name="Row" transform="translate(0 62)">
              <rect id="Background-6" data-name="Background" width="131" height="42" rx="4" fill="#fff"/>
              <g id="Text-5" data-name="Text" transform="translate(39 12.6)">
                <rect id="Name-9" data-name="Name" width="73" height="6.3" rx="3" fill="#dde3e9"/>
                <rect id="Name-10" data-name="Name" width="49" height="6.3" rx="3" transform="translate(0 10.5)" fill="#dde3e9"/>
              </g>
              <circle id="Avatar-5" data-name="Avatar" cx="12" cy="12" r="12" transform="translate(9 9)" fill="#c5cfd6"/>
            </g>
            <g id="Row-7" data-name="Row" transform="translate(0 112)">
              <rect id="Container-4" data-name="Container" width="131" height="42" rx="4" fill="#fff"/>
              <g id="Text_Stuff-2" data-name="Text Stuff" transform="translate(9 12.6)">
                <rect id="Label-3" data-name="Label" width="73" height="6.3" rx="3" fill="#dde3e9"/>
                <rect id="Label-4" data-name="Label" width="49" height="6.3" rx="3" transform="translate(0 10.5)" fill="#afb9c5"/>
              </g>
              <g id="Check-2" data-name="Check" transform="translate(110 14)">
                <circle id="Background-7" data-name="Background" cx="7" cy="7" r="7" fill="#dde3e9"/>
                <circle id="Indicator-2" data-name="Indicator" cx="3" cy="3" r="3" transform="translate(4 4)" fill="#f2f2f2"/>
              </g>
            </g>
            <g id="Row-8" data-name="Row" transform="translate(0 162)">
              <rect id="Background-8" data-name="Background" width="131" height="42" rx="4" fill="#fff"/>
              <g id="Text-6" data-name="Text" transform="translate(39 12.6)">
                <rect id="Name-11" data-name="Name" width="73" height="6.3" rx="3" fill="#dde3e9"/>
                <rect id="Name-12" data-name="Name" width="49" height="6.3" rx="3" transform="translate(0 10.5)" fill="#dde3e9"/>
              </g>
              <circle id="Avatar-6" data-name="Avatar" cx="12" cy="12" r="12" transform="translate(9 9)" fill="#c5cfd6"/>
            </g>
          </g>
        </g>
        <g id="Web" transform="translate(270 127)">
          <rect id="Container-5" data-name="Container" width="335" height="346" rx="8" fill="#f2f2f2"/>
          <rect id="Background-9" data-name="Background" width="70" height="81" rx="8" transform="translate(249 43)" fill="#fff"/>
          <g id="Profile_Info" data-name="Profile Info" transform="translate(259 58)">
            <circle id="Avatar-7" data-name="Avatar" cx="16" cy="16" r="16" transform="translate(9)" fill="#dde3e9"/>
            <rect id="Name-13" data-name="Name" width="50" height="6" rx="3" transform="translate(0 36)" fill="#dde3e9"/>
            <rect id="Name-14" data-name="Name" width="34" height="6" rx="3" transform="translate(8 46)" fill="#dde3e9"/>
          </g>
          <path id="Header" d="M8,0H327a8,8,0,0,1,8,8V27a0,0,0,0,1,0,0H0a0,0,0,0,1,0,0V8A8,8,0,0,1,8,0Z" fill="#c5cfd6"/>
          <g id="Buttons" transform="translate(9 10)">
            <circle id="buttons-2" data-name="buttons" cx="4" cy="4" r="4" fill="#f2f2f2"/>
            <circle id="buttons-3" data-name="buttons" cx="4" cy="4" r="4" transform="translate(12)" fill="#f2f2f2"/>
            <circle id="buttons-4" data-name="buttons" cx="4" cy="4" r="4" transform="translate(24)" fill="#f2f2f2"/>
          </g>
          <g id="Components" transform="translate(249 132)">
            <rect id="Background-10" data-name="Background" width="70" height="194" rx="8" fill="#fff"/>
            <g id="Rows-3" data-name="Rows" transform="translate(18 18)">
              <rect id="Data" width="34" height="26" rx="4" fill="#dde3e9"/>
              <rect id="Data-2" data-name="Data" width="34" height="25" rx="4" transform="translate(0 34)" fill="#afb9c5"/>
              <rect id="Data-3" data-name="Data" width="34" height="25" rx="4" transform="translate(0 67)" fill="#dde3e9"/>
              <rect id="Data-4" data-name="Data" width="34" height="25" rx="4" transform="translate(0 133)" fill="#dde3e9"/>
              <rect id="Data-5" data-name="Data" width="34" height="25" rx="4" transform="translate(0 100)" fill="#c5cfd6"/>
            </g>
          </g>
          <g id="Rows-4" data-name="Rows" transform="translate(16 44)">
            <g id="Row-9" data-name="Row">
              <rect id="Container-6" data-name="Container" width="225" height="47" rx="4" fill="#fff"/>
              <g id="Text_Stuff-3" data-name="Text Stuff" transform="translate(9 14.1)">
                <rect id="Label-5" data-name="Label" width="167" height="7.05" rx="3" fill="#dde3e9"/>
                <rect id="Label-6" data-name="Label" width="112.096" height="7.05" rx="3" transform="translate(0 11.75)" fill="#dde3e9"/>
              </g>
              <g id="Check-3" data-name="Check" transform="translate(193.954 16.5)">
                <circle id="Background-11" data-name="Background" cx="7" cy="7" r="7" fill="#dde3e9"/>
                <circle id="Indicator-3" data-name="Indicator" cx="3" cy="3" r="3" transform="translate(4 4)" fill="#f2f2f2"/>
              </g>
            </g>
            <g id="Row-10" data-name="Row" transform="translate(0 55)">
              <rect id="Container-7" data-name="Container" width="225" height="39" rx="4" fill="#fff"/>
              <g id="Text_Stuff-4" data-name="Text Stuff" transform="translate(9 11.7)">
                <rect id="Label-7" data-name="Label" width="167" height="5.85" rx="2.925" fill="#dde3e9"/>
                <rect id="Label-8" data-name="Label" width="112.096" height="5.85" rx="2.925" transform="translate(0 9.75)" fill="#dde3e9"/>
              </g>
              <g id="Check-4" data-name="Check" transform="translate(193.954 12.5)">
                <circle id="Background-12" data-name="Background" cx="7" cy="7" r="7" fill="#dde3e9"/>
                <circle id="Indicator-4" data-name="Indicator" cx="3" cy="3" r="3" transform="translate(4 4)" fill="#f2f2f2"/>
              </g>
            </g>
            <g id="Row-11" data-name="Row" transform="translate(0 102)">
              <rect id="Container-8" data-name="Container" width="225" height="39" rx="4" fill="#fff"/>
              <g id="Text_Stuff-5" data-name="Text Stuff" transform="translate(9 11.7)">
                <rect id="Label-9" data-name="Label" width="167" height="5.85" rx="2.925" fill="#dde3e9"/>
                <rect id="Label-10" data-name="Label" width="112.096" height="5.85" rx="2.925" transform="translate(0 9.75)" fill="#dde3e9"/>
              </g>
              <g id="Check-5" data-name="Check" transform="translate(193.954 12.5)">
                <circle id="Background-13" data-name="Background" cx="7" cy="7" r="7" fill="#dde3e9"/>
                <circle id="Indicator-5" data-name="Indicator" cx="3" cy="3" r="3" transform="translate(4 4)" fill="#afb9c5"/>
              </g>
            </g>
            <g id="Row-12" data-name="Row" transform="translate(0 243)">
              <rect id="Container-9" data-name="Container" width="225" height="39" rx="4" fill="#fff"/>
              <g id="Text_Stuff-6" data-name="Text Stuff" transform="translate(9 11.7)">
                <rect id="Label-11" data-name="Label" width="167" height="5.85" rx="2.925" fill="#dde3e9"/>
                <rect id="Label-12" data-name="Label" width="112.096" height="5.85" rx="2.925" transform="translate(0 9.75)" fill="#dde3e9"/>
              </g>
              <g id="Check-6" data-name="Check" transform="translate(193.954 12.5)">
                <circle id="Background-14" data-name="Background" cx="7" cy="7" r="7" fill="#dde3e9"/>
                <circle id="Indicator-6" data-name="Indicator" cx="3" cy="3" r="3" transform="translate(4 4)" fill="#f2f2f2"/>
              </g>
            </g>
            <g id="Row-13" data-name="Row" transform="translate(0 196)">
              <rect id="Container-10" data-name="Container" width="225" height="39" rx="4" fill="#fff"/>
              <g id="Text_Stuff-7" data-name="Text Stuff" transform="translate(9 11.7)">
                <rect id="Label-13" data-name="Label" width="167" height="5.85" rx="2.925" fill="#dde3e9"/>
                <rect id="Label-14" data-name="Label" width="112.096" height="5.85" rx="2.925" transform="translate(0 9.75)" fill="#dde3e9"/>
              </g>
              <g id="Check-7" data-name="Check" transform="translate(193.954 12.5)">
                <circle id="Background-15" data-name="Background" cx="7" cy="7" r="7" fill="#dde3e9"/>
                <circle id="Indicator-7" data-name="Indicator" cx="3" cy="3" r="3" transform="translate(4 4)" fill="#f2f2f2"/>
              </g>
            </g>
            <g id="Row-14" data-name="Row" transform="translate(0 149)">
              <rect id="Container-11" data-name="Container" width="225" height="39" rx="4" fill="#fff"/>
              <g id="Text_Stuff-8" data-name="Text Stuff" transform="translate(9 11.7)">
                <rect id="Label-15" data-name="Label" width="167" height="5.85" rx="2.925" fill="#dde3e9"/>
                <rect id="Label-16" data-name="Label" width="112.096" height="5.85" rx="2.925" transform="translate(0 9.75)" fill="#dde3e9"/>
              </g>
              <g id="Check-8" data-name="Check" transform="translate(193.954 12.5)">
                <circle id="Background-16" data-name="Background" cx="7" cy="7" r="7" fill="#dde3e9"/>
                <circle id="Indicator-8" data-name="Indicator" cx="3" cy="3" r="3" transform="translate(4 4)" fill="#f2f2f2"/>
              </g>
            </g>
          </g>
        </g>
        <path id="Fill_1" data-name="Fill 1" d="M127.986,3.376C124.041.7,118.8,0,114.076,0,95.64,0,78.311,6.84,63.341,17.032a118.671,118.671,0,0,0-22.019,20.1,58.867,58.867,0,0,0-9.434,14.041A48.375,48.375,0,0,0,28.46,61.991,111.159,111.159,0,0,0,26.515,75.8c-.128,1.82-1.185,11.477,1.841,11.641a4.177,4.177,0,0,0,0,.668c-6.57,10.274-10.63,22.314-14.394,33.729A229.732,229.732,0,0,0,5.87,152.063,329.391,329.391,0,0,0,.958,193.05C.791,196,.676,198.95.577,201.9q-.126,3.779-.251,7.557c-.092,2.823-.589,6.073-.14,8.88.391,2.444,2.506,2.074,2.6-.358.113-2.937.095-5.88.223-8.82q.256-5.852.538-11.7a273.592,273.592,0,0,1,15.515-79.376,185.077,185.077,0,0,1,13.474-29.74A207.372,207.372,0,0,1,49.084,64.173c5.762-7.38,11.752-14.59,18.812-20.843A144.678,144.678,0,0,1,86.4,29.722C94.631,24.5,102.843,19.4,111.755,15.391c4.633-2.084,9.353-3.95,14.021-5.95.84-.36,1.741-.709,2.549-1.126,2.7-1.39,1.808-3.483-.34-4.939" transform="translate(560 294)" fill="#c1dee2"/>
        <path id="Fill_20" data-name="Fill 20" d="M-58.182,0c7.477,0,14.131.972,21.02,3.943A93.43,93.43,0,0,1-20.533,13.6c7.4,5.2,13.232,11.249,17.312,19.266,2.438,4.789,4.226,11.566,2.589,16.79-1.929,6.152-7.224,11.284-14.2,10.2-4.313-.67-8.267-3.525-11.545-6.212A43.659,43.659,0,0,1-36.028,42.27c-4.228-7-6.713-14.919-10.3-22.237-1.7-3.473-3.351-6.971-5.393-10.271a16.569,16.569,0,0,0-3.619-4.468c-.82-.65-4.278-1.774-2.956-3.233-19.39.255-36.568,15.147-40.291,33.58-.347,1.718-.618,3.45-.9,5.179-.181,1.092-.108,5.117-1.084,5.814-2.152,1.538-1.247-3.135-1.155-3.807q.358-2.608.76-5.211A43.366,43.366,0,0,1-88.315,12.683C-80.306,4.99-69.5,0-58.182,0" transform="translate(672 392)" fill="#89c5cc"/>
        <g id="Plant" transform="translate(65 333)">
          <path id="Fill_19" data-name="Fill 19" d="M9.938,35.736C28.6,67.052,50.345,97.374,63.4,131.613c-.526-4.036-1.084-8.067-1.708-12.093-3.313-21.341-7.43-42.526-11.757-63.685-2.2-10.773-4.534-21.507-6.924-32.241C41.727,17.829,40.457,12.061,39.145,6.3c-.318-1.4-.591-3.832-.989-6.3C50.845,41.637,63.081,83.3,72.031,125.942q1.761,8.394,2.993,16.758c.28-1.272.556-2.544.857-3.813A246.4,246.4,0,0,1,91.4,94.374a134.951,134.951,0,0,1,10.825-19.648c2.608-3.863,8.757-8.455,11.136-12.412-13.01,23.861-17.707,53.717-25.219,79.659-1.833,6.331-3.678,12.651-5.486,18.982,11.328-22.718,28.9-41.384,53.341-49.473-29.58,19.544-47.322,53.771-59.278,88.777-.039.415-.086.83-.127,1.246,3.518-6.677,7.95-12.716,13.956-16.946,12.855-9.055,27.116-6.417,39.586,1.35-9.787-6.221-27.474-.556-35.709,5.767-5.9,4.526-10.933,10.6-15.308,16.523-1.048,1.42-2.479,3.077-3.989,4.845A218.405,218.405,0,0,1,64.672,254c.807-3.889.223-10.108.447-13.007.024-.314.044-.628.068-.941q-1.114,4.449-2.152,8.784a120.22,120.22,0,0,0,2.7-17.061q.225-3.743.451-7.487-.074-7.1-.574-14.253c-1.17-4.629-2.48-8.994-3.56-12.625a163.194,163.194,0,0,0-16.646-37.36,147.491,147.491,0,0,0-22.966-29.116c-4.78-4.717-9.783-9.21-14.716-13.765-1.784-1.647-4.972-5.7-7.729-7.806,20.08,11.071,40.749,23.047,55.4,40.884q-2.576-9.892-5.556-19.468C39.831,98.454,27.191,64.953,9.938,35.736Z" fill="#dde3e9"/>
          <path id="Base" d="M0,0C0,35.9,2.843,65,41,65S82,35.9,82,0" transform="translate(30 213)" fill="#c5cfd6"/>
        </g>
        <g id="Graph" transform="translate(520 52)">
          <rect id="Value" width="6" height="25" rx="3" transform="translate(0 32)" fill="#dde3e9"/>
          <rect id="Value-2" data-name="Value" width="6" height="41" rx="3" transform="translate(14 16)" fill="#dde3e9"/>
          <rect id="Value-3" data-name="Value" width="6" height="49" rx="3" transform="translate(28 8)" fill="#dde3e9"/>
          <rect id="Value-4" data-name="Value" width="6" height="41" rx="3" transform="translate(42 16)" fill="#dde3e9"/>
          <rect id="Value-5" data-name="Value" width="6" height="57" rx="3" transform="translate(56)" fill="#c5cfd6"/>
        </g>
        <g id="Pie_Chart" data-name="Pie Chart" transform="translate(68 338) rotate(180)">
          <path id="Value-6" data-name="Value" d="M-20,20.256A20.191,20.191,0,0,1,0,0V20.256L-13.668,35A20.073,20.073,0,0,1-20,20.256Z" transform="translate(20) rotate(180)" fill="#f2f2f2"/>
          <path id="Value-7" data-name="Value" d="M-20.2,0H0A20.014,20.014,0,0,1-5.5,13.668,20.357,20.357,0,0,1-20.2,20,20.644,20.644,0,0,1-34,14.557Z" transform="translate(0.332 -20) rotate(180)" fill="#afb9c5"/>
          <path id="Value-8" data-name="Value" d="M-20,20H0a19.745,19.745,0,0,0-1.578-7.765,20.041,20.041,0,0,0-4.3-6.359,20.04,20.04,0,0,0-6.359-4.3A19.746,19.746,0,0,0-20,0V20Zm-2-2v0L-30,0A18.353,18.353,0,0,0-40,10l18,8Z" transform="rotate(180)" fill="#c5cfd6"/>
        </g>
        <g id="Chart" transform="translate(641 330)">
          <path id="Value-9" data-name="Value" d="M37.766,37.179A10.513,10.513,0,1,1,30.1,19.5V0a30,30,0,1,0,0,60A29.69,29.69,0,0,0,52,50.5Z" fill="#f2f2f2"/>
          <path id="Value-10" data-name="Value" d="M0,0V19.5A10.5,10.5,0,0,1,10.5,30H30A30.092,30.092,0,0,0,0,0Z" transform="translate(30)" fill="#afb9c5"/>
          <path id="Value-11" data-name="Value" d="M4.1,0A10.64,10.64,0,0,1,0,8.391L12.262,24A30.413,30.413,0,0,0,24,0Z" transform="translate(36 30)" fill="#c5cfd6"/>
        </g>
        <g id="Chart-2" data-name="Chart" transform="translate(459 63)">
          <path id="Value-12" data-name="Value" d="M29.051,28.5a8.074,8.074,0,1,1-5.9-13.554V0A23.146,23.146,0,0,0,0,23,23.146,23.146,0,0,0,23.15,46,22.873,22.873,0,0,0,40,38.718Z" fill="#f2f2f2"/>
          <path id="Value-13" data-name="Value" d="M0,0V14.95A8.05,8.05,0,0,1,8.05,23H23A23.071,23.071,0,0,0,0,0Z" transform="translate(23)" fill="#afb9c5"/>
          <path id="Value-14" data-name="Value" d="M3.073,0A7.98,7.98,0,0,1,0,6.293L9.2,18A22.81,22.81,0,0,0,18,0Z" transform="translate(28 23)" fill="#c5cfd6"/>
        </g>
        <g id="Image" transform="translate(76 57)">
          <path id="Fill_35" data-name="Fill 35" d="M1.007.986C1,1,1,1.006.993,1.018c.006-.01.014-.05.014-.032" transform="translate(47 51)" fill="#c5cfd6"/>
          <path id="Fill_37" data-name="Fill 37" d="M1,1a.087.087,0,0,0,0,.01C1,1,1.014.971,1,1" transform="translate(47 51)" fill="#c5cfd6"/>
          <path id="Fill_39" data-name="Fill 39" d="M1.067.832c-.014.04-.032.078-.048.118.008-.02.016-.036.024-.056-.208.52-.076.182.024-.062" transform="translate(47 51)" fill="#c5cfd6"/>
          <path id="Fill_41" data-name="Fill 41" d="M1.022.953,1,1.009c-.058.112.024-.056.024-.056" transform="translate(47 51)" fill="#c5cfd6"/>
          <path id="Fill_43" data-name="Fill 43" d="M1,1H1V1Z" transform="translate(47 51)" fill="#c5cfd6"/>
          <path id="Fill_45" data-name="Fill 45" d="M1,1S1,1,1,1,1,1,1,1" transform="translate(47 51)" fill="#c5cfd6"/>
          <path id="Fill_47" data-name="Fill 47" d="M.99,1.016c-.012.024.056-.092,0,0" transform="translate(47 51)" fill="#c5cfd6"/>
          <path id="Fill_49" data-name="Fill 49" d="M1,1,1,1S1,1,1,1" transform="translate(47 51)" fill="#c5cfd6"/>
          <rect id="Photo_Background" data-name="Photo Background" width="95" height="63" rx="4" fill="#dde3e9"/>
          <g id="icons8-night_landscape" transform="translate(8 18)">
            <path id="Mountains" d="M28,0,0,45H56Z" fill="#afb9c5"/>
            <path id="Mountains-2" data-name="Mountains" d="M24.5,0,0,33H49Z" transform="translate(31 12)" fill="#c5cfd6"/>
          </g>
          <circle id="Sun" cx="9" cy="9" r="9" transform="translate(65 12)" fill="#fff"/>
        </g>
        <g id="Image-2" data-name="Image" transform="translate(672 459) rotate(180)">
          <path id="Fill_35-2" data-name="Fill 35" d="M-1.007.986c0,.01.008.02.014.032C-1,1.008-1.007.968-1.007.986" transform="translate(70 -76) rotate(180)" fill="#c5cfd6"/>
          <path id="Fill_37-2" data-name="Fill 37" d="M-1,1a.087.087,0,0,1,0,.01C-1,1-1.014.971-1,1" transform="translate(70 -76) rotate(180)" fill="#c5cfd6"/>
          <path id="Fill_39-2" data-name="Fill 39" d="M-1.067.832c.014.04.032.078.048.118C-1.027.93-1.035.914-1.043.894c.208.52.076.182-.024-.062" transform="translate(70 -76) rotate(180)" fill="#c5cfd6"/>
          <path id="Fill_41-2" data-name="Fill 41" d="M-1.022.953-1,1.009c.058.112-.024-.056-.024-.056" transform="translate(70 -76) rotate(180)" fill="#c5cfd6"/>
          <path id="Fill_43-2" data-name="Fill 43" d="M-1,1h0V1Z" transform="translate(70 -76) rotate(180)" fill="#c5cfd6"/>
          <path id="Fill_45-2" data-name="Fill 45" d="M-1,1s0,0,0,0,0,0,0,0" transform="translate(70 -76) rotate(180)" fill="#c5cfd6"/>
          <path id="Fill_47-2" data-name="Fill 47" d="M-.99,1.016c.012.024-.056-.092,0,0" transform="translate(70 -76) rotate(180)" fill="#c5cfd6"/>
          <path id="Fill_49-2" data-name="Fill 49" d="M-1,1l0,0s0,0,0,0" transform="translate(70 -76) rotate(180)" fill="#c5cfd6"/>
          <rect id="Photo_Background-2" data-name="Photo Background" width="142" height="94" rx="4" transform="translate(142) rotate(180)" fill="#dde3e9"/>
          <g id="icons8-night_landscape-2" data-name="icons8-night_landscape" transform="translate(11 -27)">
            <path id="Mountains-3" data-name="Mountains" d="M-41.055,0,0,67H-82.11Z" transform="translate(0.671) rotate(180)" fill="#afb9c5"/>
            <path id="Mountains-4" data-name="Mountains" d="M-36.295,0,0,49.054H-72.59Z" transform="translate(47.761 -17.946) rotate(180)" fill="#c5cfd6"/>
          </g>
          <circle id="Sun-2" data-name="Sun" cx="13.5" cy="13.5" r="13.5" transform="translate(124 -18) rotate(180)" fill="#fff"/>
        </g>
      </g>
      <g id="A_Human_Standing" data-name="A Human/Standing" transform="translate(1356 651)" opacity="0.4">
        <g id="Head_Front" data-name="Head/Front" transform="translate(136.813)">
          <g id="Head" transform="translate(7 17)">
            <path id="Head-2" data-name="Head" d="M0,0,8.262,38.51C3.655,43.919.536,50.548,1.057,57.974c1.5,21.4,31.292,16.692,37.086,5.891s5.107-38.2-2.382-40.129c-2.987-.77-9.349,1.116-15.825,5.019L24,0Z" transform="translate(42 73) rotate(180)" fill="#b28b67"/>
          </g>
          <path id="hair" d="M.224,11.16A5.191,5.191,0,0,1,3.86,7.474,4.788,4.788,0,0,1,5.2,7.341c.161.006.206.053.282-.06a1.48,1.48,0,0,0,.08-.386,7.282,7.282,0,0,1,.272-.9A7.354,7.354,0,0,1,7.6,3.357,8.929,8.929,0,0,1,12.968.82a7.819,7.819,0,0,1,3.224.44,12.767,12.767,0,0,1,1.565.669c.153.077.648.452.8.427.169-.027.51-.447.647-.553A9.478,9.478,0,0,1,25.128,0c2.392.018,4.7.137,6.69,1.6a13.379,13.379,0,0,1,1.207,1c.2.187.4.382.583.584q.169.183.327.375c.179.218.15.289.4.137a4.973,4.973,0,0,1,3.193-.718,7.146,7.146,0,0,1,1.928.545c.209.09.694.447.917.45s.7-.328.927-.412A7.6,7.6,0,0,1,45.154,3.2a9.948,9.948,0,0,1,3.777,1.485,5.078,5.078,0,0,1,1.4,1.273c.165.227.313.468.5.678.109.123.326.25.384.406a8.3,8.3,0,0,1,1.6-.707,3.944,3.944,0,0,1,2.253.086,8.958,8.958,0,0,1,3.552,2.524,10.086,10.086,0,0,1,1.315,1.766q.268.455.492.934a3.474,3.474,0,0,0,.216.487c.123.179.206.183.429.261a6.93,6.93,0,0,1,2.951,1.976,6.8,6.8,0,0,1,1.528,3.24,1.65,1.65,0,0,0,.061.4c.056.052.284.029.37.039a7.787,7.787,0,0,1,.887.156,7.321,7.321,0,0,1,1.559.561,8.148,8.148,0,0,1,3.994,4.769,9.676,9.676,0,0,1-.151,6.624,6.471,6.471,0,0,1-.492.97c-.118.189-.156.19-.079.388.085.221.241.436.342.651a9.352,9.352,0,0,1,.706,2.215,10.388,10.388,0,0,1,.122,3.829,5.528,5.528,0,0,1-.591,1.68,4.819,4.819,0,0,1-.518.752c-.1.121-.21.237-.323.348a2.155,2.155,0,0,0-.2.189c-.134.172-.162.031-.093.284a11.333,11.333,0,0,0,.451,1.048c.138.355.264.715.378,1.078a15.907,15.907,0,0,1,.55,2.247,7.056,7.056,0,0,1-.5,4.365,4.366,4.366,0,0,1-1.235,1.47,4.584,4.584,0,0,1-.811.493c-.147.07-.335.1-.4.242s.035.457.059.628a10.466,10.466,0,0,1-.123,4.509,6.23,6.23,0,0,1-2.469,3.315,7.683,7.683,0,0,1-7.68.218A8.063,8.063,0,0,1,57.647,59.9c-1.315,1.771-4.022,1.714-5.944,1.21a8.538,8.538,0,0,1-5.424-4.482c-1.514,1.843-4.691,1.245-5.741-.754a4.784,4.784,0,0,1-.484-1.574c-.039-.287-.014-.576-.044-.861a4.449,4.449,0,0,0-.419-1.066,5.886,5.886,0,0,1-.447-2.125,10.789,10.789,0,0,1,.082-1.141,3.921,3.921,0,0,0-.116-1,4.585,4.585,0,0,0,1.941-.243,3.833,3.833,0,0,0,1.5-1.055,8.756,8.756,0,0,0,1.888-3.529c.854-2.8.5-6.149-2.308-7.683-1.31-.715-5.234-.712-6.794-.359-1.64.371-3.5,3.991-3.591,4.331-.057.211-.028.471-.222.611-.425.308-1.126-.227-1.44-.491a5.678,5.678,0,0,1-1.261-1.678,20.755,20.755,0,0,1-1.73-4.243c-.32-1.131-.524-2.3-.942-3.4a5.2,5.2,0,0,0-2.091-2.7,18.409,18.409,0,0,0-3.6-1.456,8.928,8.928,0,0,1-3.327-1.828,4.6,4.6,0,0,1-.571-.636c-.131-.183-.26-.532-.459-.648-.31-.18-.761.288-1.029.458a11.891,11.891,0,0,0-3.311,3.286,20.447,20.447,0,0,0-2.2,3.912,11.313,11.313,0,0,1-1.478,3.263c-.343.385-2.894.618-3.72.282a4.7,4.7,0,0,1-2.029-1.756,2.728,2.728,0,0,1-.23-1.788c.071-.361.217-.7.3-1.052a3.279,3.279,0,0,1,.273-.851A2.1,2.1,0,0,1,3.99,27.812a6.147,6.147,0,0,1-1.414-1.917,8.229,8.229,0,0,1-.732-2.5,3.033,3.033,0,0,1,.405-1.946,5.124,5.124,0,0,1,1.661-1.379A10.807,10.807,0,0,1,1.6,17.552,7.864,7.864,0,0,1,.224,11.16Z" transform="translate(0 0)" fill="#191847"/>
        </g>
        <g id="Bottom_Skinny_Jeans_1" data-name="Bottom/Skinny Jeans 1" transform="translate(0 173)">
          <g id="Seat" transform="translate(121.813 42)">
            <path id="Seat-2" data-name="Seat" d="M131,124H16A16,16,0,0,1,0,108V16A16,16,0,0,1,16,0H131a16,16,0,0,1,16,16v92a16,16,0,0,1-16,16ZM32,28a4.005,4.005,0,0,0-4,4V92a4.005,4.005,0,0,0,4,4h83a4,4,0,0,0,4-4V32a4,4,0,0,0-4-4Z" transform="translate(147 124) rotate(180)" fill="#c5cfd6"/>
          </g>
          <path id="Skin" d="M126.572,66.08c-6.368,22.307-11.213,41.937-12.437,49.268-2.92,17.48,22.461,18.5,25.816,9.811,5.078-13.149,13.943-56.351,24.594-121.606L152.371,0C139.558,28.358,130.292,53.051,126.572,66.08ZM3.75,89c11.756,4.647,52.924,19.189,72.778,23.3,5.706,1.183,11.236,2.281,16.435,3.273,15.454,2.95,23.46-24.929,8.576-27.071C64.473,83.165,11.924,77.656,7.428,77.038a5.729,5.729,0,0,0-.778-.053C.749,76.984-3.331,86.2,3.75,89Z" transform="translate(202.674 162.66) rotate(180)" fill="#b28b67"/>
          <path id="Leg_Back" data-name="Leg Back" d="M63.76,95.912a13,13,0,0,0-.172,3.313L0,131.594v7.047H7.562s92.277-23.513,94.306-30.137c.014-.047.027-.093.038-.14q.047-.062.093-.125c12.191-16.767,19.493-98.624,21.89-104.753L100.527,0C91.591,33.138,63,56.223,63.76,95.912Z" transform="translate(163.813 138.641) rotate(180)" fill="#1f28cf"/>
          <path id="Leg_Front" data-name="Leg Front" d="M31.077,18.684l19.206,6.588c-5.817,1.164-11.176,2.2-15.76,3.008C4.909,33.475-3.726,49.326,1.38,83.912H55.942c8.913-2.561,55.232-21.985,79.265-32.316,15.906-6.838,10.892-31.488,1.884-37.9a.879.879,0,0,0-.5-.781C103.268-.9,74.732-.228,56,.443,47.487.747,41,1.052,37,0Z" transform="translate(208.812 83.912) rotate(180)" fill="#2b44ff"/>
          <g id="Right_Shoe" data-name="Right Shoe" transform="matrix(-0.438, 0.899, -0.899, -0.438, 208.761, 75.585)">
            <path id="shoe" d="M4.474,15.967a2,2,0,0,1-2.565-1.348L0,7.894A64.242,64.242,0,0,1,.9,0H57.3s2.2,7.268-2.538,7.848S46.9,8.894,46.9,8.894L20.68,20.581a1,1,0,0,1-1.332-.532l-1.685-4.088s-4.385-2.046-7.127-2.046Z" transform="translate(0 0)" fill="#e4e4e4"/>
          </g>
          <g id="Right_Shoe-2" data-name="Right Shoe" transform="translate(0 151.332)">
            <path id="shoe-2" data-name="shoe" d="M53.339,5.033A2,2,0,0,1,55.9,6.381l1.908,6.724a64.242,64.242,0,0,1-.9,7.894H.51s-2.2-7.268,2.538-7.848,7.87-1.047,7.87-1.047L37.133.419a1,1,0,0,1,1.332.532l1.685,4.088s4.385,2.046,7.127,2.046Z" transform="translate(0 -0.332)" fill="#e4e4e4"/>
          </g>
        </g>
        <g id="Body_Long_Sleeve_1" data-name="Body/Long Sleeve 1" transform="translate(56.148 68)">
          <path id="Skin-2" data-name="Skin" d="M1.227,2.162c-1.116.688-2.338,3.28.615,5.3C9.2,12.512,19.8,21.342,21.236,24.249c2.93,5.944,12.91,63.888,12.91,63.888l20.9-.083s-19.354-62.481-20.9-66.3C31.831,16.017,36.728,7.283,38.822,2.59c-3.3-1.477-4.834.409-6.512,2.294C30.52,6.894,28.564,8.9,24.125,6.838,18.445,4.195,13.749,0,8.15,0A12.989,12.989,0,0,0,1.227,2.162Zm178.7,56.225L150.473,75.754l9.409,16.28L188.21,64.4a85.858,85.858,0,0,0,20.26-11.646c1.184-1.428,2.473-4.164-3.1-2.94s-11.485,2.262-12.532.451,2.038-4.587.1-6.959a.732.732,0,0,0-.593-.283Q189.684,43.021,179.93,58.387Z" transform="translate(209.502 181.157) rotate(180)" fill="#b28b67"/>
          <path id="Coat_Back" data-name="Coat Back" d="M0,128.333l8.485,2.231Q35.593,76.937,95,36.37L70.043,0C29.32,39.879,2.652,82.366,0,128.333Z" transform="matrix(-0.996, 0.087, -0.087, -0.996, 127.155, 133.177)" fill="#191847"/>
          <path id="Shirt" d="M77,114H0S26.759,48.938,26.759,3.461L49.986,0C68.24,29.358,73.4,65.5,77,114Z" transform="translate(76.665 0)" fill="#dde3e9"/>
          <path id="Coat_Front" data-name="Coat Front" d="M0,0C8.421,95,61.5,147,61.5,147l.018-.016.009.016h1.517c2.722-.094,8.29-.337,8.29-.337l5.612-16.04c.891-29.333,10.4-118.229,10.4-118.229H36.95Q37.079,6.281,37.531,0Z" transform="translate(188.665 147) rotate(180)" fill="#2f3676"/>
          <path id="Shade" d="M14.1,0H.062a255.488,255.488,0,0,0,3.8,49.5A268.911,268.911,0,0,1,7.249,21.813C9.078,11.9,11.384,4.566,14.1,0Z" transform="translate(151.768 135) rotate(180)" fill="rgba(0,0,0,0.1)"/>
          <path id="Light" d="M24.889,11.571,0,0V11.571Z" transform="translate(115.665 92.429)" fill="rgba(255,255,255,0.2)"/>
        </g>
      </g>
      <g id="Groupe_4096" data-name="Groupe 4096" transform="translate(41)" opacity="0.4">
        <g id="Head_Front_Short_Beard" data-name="Head/Front/Short Beard" transform="translate(535 543)">
          <g id="Head-3" data-name="Head" transform="translate(54.022 31.397)">
            <path id="Head-4" data-name="Head" d="M0,87.623,9.917,41.4C4.387,34.907.643,26.95,1.268,18.035,3.071-7.652,38.829-2,45.784,10.963s6.13,45.851-2.86,48.168c-3.585.924-11.222-1.339-19-6.025l4.879,34.516Z" transform="translate(0 0)" fill="#b28b67"/>
          </g>
          <path id="Hair-2" data-name="Hair" d="M24.254,54.076c-1.936-5.844-2.672-22.667-2.852-27.641a7.289,7.289,0,0,0-.862-.051,7.2,7.2,0,0,0-5.034,12.352c-1.665,2.354-3.533,4.811-5.673,7.345C1.793,41.259-5.426,26.368,2.435,12.8,4.607,6.156,9.7,2.369,15.506.72A24.92,24.92,0,0,1,30.547-.2c8.082.695,15.987,3.02,18.032,4.484,0,7.652-2.417,10.984-15.082,10.783-3.11,1.643-5.5,4.472-7.995,8.182.009.129,1.673,23.043,8.75,23.043,7.1,0,13.12-4.506,16.233-4.506,2.271,0,1.765,2.841.26,4.947-1.243,1.738-7.288,3.414-7.288,6.106,0,1.517,1.718,1.487,3.221,1.456,1.164-.022,2.2-.047,2.2.652,0,2.644.9,8.868-3.686,8.868C40.55,63.813,26.535,60.966,24.254,54.076Z" transform="translate(53.889 29.02)" fill="#191847"/>
        </g>
        <g id="humaaan-8" transform="translate(476.766 566.581)">
          <g id="Bottom_Skinny_Jeans_1-2" data-name="Bottom/Skinny Jeans 1" transform="translate(0 180.182)">
            <path id="Leg" d="M0,0,50.1,132.509l35.115,97.666h20.023L56.967,0Z" transform="translate(109.605)" fill="#191847"/>
            <path id="Leg-2" data-name="Leg" d="M80.351,0c-.545,45.466-.151,106.68-1.42,109.514S0,174.1,0,174.1l10.32,17.542s92.2-59.435,96.917-67.354S135.634,43.5,147.956,0Z" transform="translate(16.872)" fill="#2f3676"/>
            <g id="Left_Shoe" data-name="Left Shoe" transform="translate(16.087 171.335) rotate(50)">
              <path id="Shoe-3" data-name="Shoe" d="M0,21,1,0H22C36.936,10.5,61,17,61,17v4H23L10,19v2Z" transform="translate(0 0)" fill="#191847"/>
            </g>
            <g id="Right_Shoe-3" data-name="Right Shoe" transform="translate(192.96 227.05)">
              <path id="Shoe-4" data-name="Shoe" d="M0,21.872,1.042,0H22.923C38.486,10.936,63.559,17.706,63.559,17.706v4.166H23.965L10.419,19.789v2.083Z" transform="translate(0 0)" fill="#191847"/>
            </g>
          </g>
          <g id="Body_Long_Sleeve_1-2" data-name="Body/Long Sleeve 1" transform="translate(34.754 67.164)">
            <path id="Skin-3" data-name="Skin" d="M1.278,90.385c-1.163-.716-2.436-3.416.64-5.525,7.667-5.254,18.715-14.45,20.208-17.478C25.18,61.191,35.577.842,35.577.842L57.351.928S37.185,66,35.577,69.984c-2.411,5.973,2.691,15.069,4.873,19.957-3.439,1.538-5.037-.426-6.786-2.389-1.864-2.093-3.9-4.186-8.527-2.035-5.919,2.752-10.812,7.122-16.645,7.121A13.538,13.538,0,0,1,1.278,90.385ZM188.753,31.8,155.841,18.155,163.187,0l33.237,24.4a89.46,89.46,0,0,1,22.593,9.076c1.429,1.3,3.156,3.936-2.769,3.481s-12.178-.668-13,1.352,2.768,4.436,1.115,7.161a.786.786,0,0,1-.721.388Q200.726,45.855,188.753,31.8Z" transform="translate(0 99.699)" fill="#b28b67"/>
            <path id="Coat_Back-2" data-name="Coat Back" d="M0,2.324,8.841,0C44.659,25.843,63.17,79.89,106.55,105.584l-8.76,13.033C26.209,116.048,2.761,50.2,0,2.324Z" transform="matrix(0.996, 0.087, -0.087, 0.996, 97.658, 6.897)" fill="#11665d"/>
            <path id="Shirt-2" data-name="Shirt" d="M0,118.733H79.721c3.643,0,2.956-5.258,2.43-7.911C76.073,80.2,52.349,47.193,52.349,3.6l-23-3.6C10.333,30.577,3.756,68.224,0,118.733Z" transform="translate(58.179 3.659)" fill="#dde3e9"/>
            <path id="Coat_Front-2" data-name="Coat Front" d="M.106,166.135c-1.839-59.448,20.679-105.2,39.523-132.78A12.092,12.092,0,0,1,29.28,27C20.876,11.841,23.91,3.5,32.893.752S49.885,3.659,64.2,3.659a11.16,11.16,0,0,1,1.706.122l7.631.435s30.98,104.954,17.089,140.048H27.609A199.827,199.827,0,0,1,17.2,166.135Z" transform="translate(21.605)" fill="#268b80"/>
            <path id="Shade-2" data-name="Shade" d="M23.551,38.063H0C4.319,27.694,9.084,14.888,14.161,0c2.115,18.348,5.273,31.153,9.389,38.062Z" transform="translate(49.215 106.2)" fill="rgba(0,0,0,0.1)"/>
          </g>
        </g>
      </g>
    </g>
  </g>
</svg>
