<svg xmlns="http://www.w3.org/2000/svg" xmlns:xlink="http://www.w3.org/1999/xlink" width="384.135" height="239.776" viewBox="0 0 384.135 239.776">
  <defs>
    <linearGradient id="linear-gradient" y1="0.5" x2="1" y2="0.5" gradientUnits="objectBoundingBox">
      <stop offset="0" stop-color="#82acf5"/>
      <stop offset="1" stop-color="#f8bdec"/>
    </linearGradient>
  </defs>
  <g id="welcome-advantages-community" transform="translate(-1304.715 -245.796)">
    <g id="Groupe_128" data-name="Groupe 128" transform="translate(1304.715 245.796)">
      <g id="Groupe_118" data-name="Groupe 118" transform="translate(0 0)">
        <g id="Groupe_95" data-name="Groupe 95" transform="translate(34.409 206.611)">
          <path id="Tracé_262" data-name="Tracé 262" d="M1728.6,755.719c0,9.159-76.5,16.583-170.861,16.583s-170.861-7.424-170.861-16.583,76.5-16.582,170.861-16.582S1728.6,746.561,1728.6,755.719Z" transform="translate(-1386.876 -739.137)" fill="#838bc5"/>
        </g>
        <g id="Groupe_117" data-name="Groupe 117">
          <g id="Groupe_96" data-name="Groupe 96">
            <path id="Tracé_263" data-name="Tracé 263" d="M1455.726,325.285c-1.134-1.169-1.99-2.132-2.7-2.911-2.667,2.734-6.125,5.856-6.866,4.521-.831-1.495,1.261-5.062,2.741-7.264a16.844,16.844,0,0,0-4.136.4c-.28.05-.554.091-.823.126-2.478,3.9-7.39,11.179-9.217,10.632-1.961-.588,1.545-7.984,3.112-11.08-2.1-.618-3.422-1.506-4.149-1.506-.67,0-11.391,15.237-7,3.72-1.493-1.589-4.727.658-6.957,1.534-2.145.843-2.742,8.226-4.041,11.971-1.5.833-1.055-12.2-1.055-12.2S1400.9,327.8,1400.9,330.31s9.083,6.852,5.1,6.852-8.419-6.624-8.419-6.624-7.146,3.883-5.789,8.223-3.056,5.905-4.509,7.4c0,0,0,.007-.006.01-3.366,1.231-7.646,3.709-9.487,5.608-3.1,3.2,5.686,22,3.4,24.364s-6.942-18.273-6.942-20.253c0-1.141-.991-1.235-2.275-.325,3.721-21.22,9.488-39.557,18.469-48.853,3.467-3.719,7.46-5.844,11.15-8.126-.664,1.1-1.24,3.067-1.24,6.594,0,8.337,20.812,11.092,17.723,7.908s-6.535-13.047-4.874-13.047,4.431,10.393,8.861,12.563,9.637-3.655,9.637-3.655-13.9-10.792-12.517-12.22,13.4,13.02,16.726,14.39,9.415-5.254,9.415-5.254-22.929-12.677-22.284-14.847,21.287,13.477,24.5,12.449,5.981-7.652,5.981-7.652-23.261-8.109-22.375-10.05,19.5,8.566,22.154,7.995,1.329-8.452,1.329-9.822-14.344-3.369-15.729-4.8,14.068,2.627,15.175,2.627,2.326-1.37,1.218-4-2.1-11.307-2.1-11.307c-1.33,0-7.2-4.8-8.2-5.825s-4.763,8.109-6.2,8.109,4.209-8.223,4.209-10.165-3.544-3.654-6.424-3.654-7.311,19.831-8.64,19.831,4.653-20.287,3.766-21.2-3.434-2.284-8.751-1.485-2.326,23.984-4.209,25.925,0-24.555,0-25.24-6.646,1.142-8.972,3.541,1.662,24.783,0,26.5-2.991-21.357-2.991-23.755-2.1-2.627-8.086,5.139a8.247,8.247,0,0,0-1.527,6.787c-9.42,4.287-7.542,19.837-3.457,24.049a8.867,8.867,0,0,0,6.534,2.668c-9.017,5.482-14.535,9.213-20.675,23.71-.005-4.907-.53-15.542-3.1-18.194s3.1-1.218,3.1-3.959-.3-13.248-1.477-14.466-4.283,8.375-6.2,6.4,5.465-7.918,5.465-8.68-4.283-15.076-5.317-15.076-.3,6.243-3.249,7.766,1.624-8.832,1.624-12.03-3.027-3.883-6.5-7.462a72.2,72.2,0,0,1-7.384-9.9,126.636,126.636,0,0,0,7.532,19.8c4.317,8.614,5.482,40.632,5.6,44.268-.253.288-.019-3.061-.862,49.72a5.651,5.651,0,0,0-.041,2.531c-.028,1.77.09-.441-.952,7.842-1-3.09-1.661-5.381-1.661-5.381s-.57.625-1.38,1.658c-.454-2.755-1.428-4.89-3.068-5.541,0,0-.8.841-1.981,1.994-.256-8.837-1.177-41.338-4.262-49.536a10.718,10.718,0,0,0,4.368-1.253c6.231-3.01-1.142-24.76-2.122-20.531s-6.789,11.228-7.542,9.571,5.759-8.171,5.373-13.374-7.1-8.292-7.1-8.292-1.765,17.76-3.46,16.9,3.656-18.068,3.174-21.876-8.193-7.494-8.193-7.494.917,27.444-1,27.585.424-26.1-1.8-28.929-8.429-3.2-8.429-3.2,4.482,26.127,2.629,25.944-2.434-22.536-4.065-24.981-6.918,1.725-7.942,2.22,3.983,15.523,3.543,17.419-4.412-14.979-4.914-16.083-11.035,6.408-11.035,6.408c.6,1.326-.322,8.912-.638,10.277s8.219,1.823,8.871,3.259-8.053-1.23-9.5-.529-1.125,4.855.18,7.727,18.132.133,18.734,1.458-17.269,2.684-17.55,3.9-.151,4.249,2.856,9.263,18.977-6.338,21.282-5.16-18.35,8.864-18.862,9.111,3.866,6.216,6.712,7.67,17.768-10.6,19.8-9.565-14.6,10.692-16.4,11.558-1.01,3.047,7.5,6.209a5.516,5.516,0,0,0,5.761-.924c7.163,7.527,17.355.953,19.328-4.534.986,8.353,1.644,20.059,2.071,33.2-1.827-3.221-5.56-6.855-7.362-5-2.437,2.513-4.984,13.362-7.753,10.507s6.867-10.279,5.76-14.618-4.852-8.079-6.262-6.624-1.048,16.217-2.821,14.39,2.63-16.533,1.329-17.875-7.9-7.708-10.338-5.2,2.88,16.066,1.477,14.619-4.874-16.6-6.794-18.578-4.957.5-6.794-1.39c0,0-.369,4.206-1.329,5.2s9.3,9.9,7.975,9.9-9.748-8.071-9.748-8.071.665,8.6,2.511,10.507,11.667,3.5,11.667,5.177-12.7-2.132-12.7-2.132,2.511,9.9,6.942,11.116,11.373.3,11.373,1.98-8.714.609-8.714.609,2.068,12.182,7.828,12.182,6.416-1.065,6.416,1.066-4.5-1.523-4.5,2.284,4.177,11.442,6.351,9.2a12.152,12.152,0,0,0,2.428-4.313,385.177,385.177,0,0,1,9.245,49.156H1342.49c-19.9,6.821-19.076,20.568,1.706,26.871h39.846c20.777-6.3,21.608-20.048,1.707-26.871h-13.2a146.339,146.339,0,0,1,2.451-21.775,21.532,21.532,0,0,0,1.612,5.647c3.4,8.071,17.871,4.568,17.871,4.568-8.861,0-11.372-15.38-8.714-16.6s1.181,12.791,9.9,14.923,11.372-5.025,11.372-5.025c-6.794-1.37-18.976-12.865-16.685-15.228s13.583,13.705,18.162,13.705,9.6-12.487,9.6-12.487c-5.612,3.35-23.926-5.483-25.632-8.528s18.1,8.071,25.336,6.7,6.794-14.467,6.794-14.467c-2.289,2.361-22.154.152-24.221-1.979s19.643,1.066,23.778-1.066,2.806-13.036,2.806-13.036-15.064,3.29-18.9,2.223,15.8-3.046,17.575-7.614-2.6-15.166-2.6-15.166c-2.03,2.093-8.418.36-11.074.05,7.232-3.572,15.678-7.689,19.306-9.248,6.077-2.612,22.518-3.365,30.285-.97,1.7.676,2.708,1.2,2.708,1.2A70.378,70.378,0,0,0,1455.726,325.285Zm-57.593-49.452a8.07,8.07,0,0,0,.112-1.47c2.058,4.623,5.867,8.439,5.315,9.008C1402.619,284.341,1397.579,279.03,1398.133,275.833ZM1338.885,324.7a5.089,5.089,0,0,0-1.149.419c2.522-3.721,3.648-8.9,4.322-8.553C1343.211,317.153,1341.526,324.1,1338.885,324.7Zm31.238-14.174c1.7,1.906.635,11.624,3.234,14.3,1.5,1.551,3.175,1.866,4.4,1.083a153.6,153.6,0,0,0-7.74,29C1370.209,332.72,1370.295,314.545,1370.124,310.524Zm-8.277,73.586c1.389,1.96,2.908,3.583,3.929,4.869q-.145,1.608-.281,3.225c-1.568-.208-3.576-2.9-5.29-5.244q-.01-.872-.023-1.743A2.345,2.345,0,0,0,1361.846,384.11Zm-4.613-23.216c.037,1.331.071,2.675.1,4.027-3.028,2.74-6.715,5.6-7.831,4.449C1347.872,367.685,1354.707,363.856,1357.234,360.893Zm-2.17,69.3a386.187,386.187,0,0,0-9.6-50.687c1.94,1.237,6.973,4.286,11.047,5.411a32.182,32.182,0,0,0,1.265,11.516c.068,12.013.039,23.671-.023,33.759Zm5.314,0c.032-8.625.034-18.4-.032-28.578a8.28,8.28,0,0,0,4.193,2.974c-.612,8.809-1.076,17.5-1.422,25.6Zm5.122,0c.228-7.846.563-16.32,1.088-25.084a11.824,11.824,0,0,0,1.406.152c-.2,10.232-.366,18.392-.5,24.933Zm5.425,0h-1.692c.088-7.374.186-15.907.287-24.979a13.8,13.8,0,0,0,5.308-1.621C1372.63,411.221,1371.462,420.776,1370.925,430.19Zm4.943-43.994c-1.553.686-3.992-4.74-6.039-10.328.076-7.661-.005-6.189.33-8.634C1372.86,374.994,1377.99,385.259,1375.868,386.2Zm17.428-18.578c-3.842,0-1.828-12.781-1.416-18.789.861.289,1.764.569,2.64.829C1394.5,356.12,1396.771,367.618,1393.3,367.618Zm11.815-10.05c-2.344.575.624-6.659,2.215-10.231.973-.483,2-.993,3.073-1.524C1408.869,348.48,1407.722,356.927,1405.111,357.568Z" transform="translate(-1304.715 -245.796)" fill="url(#linear-gradient)"/>
          </g>
          <g id="Groupe_116" data-name="Groupe 116" transform="translate(82.942 37.085)">
            <path id="Tracé_264" data-name="Tracé 264" d="M1869.644,471.6h-47.6c-7.377,0-27.1,51.9-39.019,85.253h86.619Z" transform="translate(-1665.651 -414.12)" fill="#70a3ff"/>
            <path id="Rectangle_64" data-name="Rectangle 64" d="M30.428,0H117.2a30.429,30.429,0,0,1,30.429,30.429V63.8A30.428,30.428,0,0,1,117.2,94.229H30.428A30.428,30.428,0,0,1,0,63.8V30.428A30.428,30.428,0,0,1,30.428,0Z" transform="translate(23.784 57.482)" fill="#99beff"/>
            <rect id="Rectangle_65" data-name="Rectangle 65" width="147.09" height="42.053" transform="translate(32.522 114.709)" fill="#d6e5ff"/>
            <rect id="Rectangle_66" data-name="Rectangle 66" width="147.09" height="37.818" transform="translate(32.522 123.755)" fill="#8fb7ff"/>
            <path id="Rectangle_67" data-name="Rectangle 67" d="M15.242,0h.421A15.242,15.242,0,0,1,30.905,15.242v90.32a0,0,0,0,1,0,0H0a0,0,0,0,1,0,0V15.242A15.242,15.242,0,0,1,15.242,0Z" transform="translate(179.612 56.011)" fill="#8fb7ff"/>
            <path id="Rectangle_68" data-name="Rectangle 68" d="M17.394,0H23.23A17.393,17.393,0,0,1,40.624,17.393v87.19a0,0,0,0,1,0,0H0a0,0,0,0,1,0,0V17.394A17.394,17.394,0,0,1,17.394,0Z" transform="translate(0 56.99)" fill="#bfd7ff"/>
            <rect id="Rectangle_69" data-name="Rectangle 69" width="4.64" height="15.422" transform="translate(3.825 161.573)" fill="#99beff"/>
            <rect id="Rectangle_70" data-name="Rectangle 70" width="5.349" height="17.105" transform="translate(38.19 161.573)" fill="#99beff"/>
            <rect id="Rectangle_71" data-name="Rectangle 71" width="5.997" height="13.961" transform="translate(200.197 161.573)" fill="#99beff"/>
            <rect id="Rectangle_72" data-name="Rectangle 72" width="6.495" height="13.961" transform="translate(179.612 161.573)" fill="#99beff"/>
            <g id="Groupe_115" data-name="Groupe 115" transform="translate(60.415)">
              <g id="Groupe_114" data-name="Groupe 114">
                <g id="Groupe_110" data-name="Groupe 110" transform="translate(0 73.084)">
                  <path id="Tracé_265" data-name="Tracé 265" d="M1695.866,539a23.661,23.661,0,0,0,.947-7.46c-.18-3.977,4.531-5.862,6.849-5.908s-.123,2.92-1.838,5.073,4.048,9.377,2.627,12.307S1696.336,540.445,1695.866,539Z" transform="translate(-1675.409 -518.606)" fill="#882400"/>
                  <path id="Tracé_266" data-name="Tracé 266" d="M1745.062,556.609s3.36-3.9,3.639-5.763-5.83-.8-4.235-4.085,8.447-.026,9.614,1.883-1.453,8.792-1.453,8.792Z" transform="translate(-1703.501 -530.069)" fill="#ffbf4b"/>
                  <path id="Tracé_267" data-name="Tracé 267" d="M1757.536,548.644c1.167,1.91-1.453,8.792-1.453,8.792l-3.617-.4c1.21-1.466,3.081-4.092,2.774-6-.348-2.167-3.865-4.2-5.093-5.664C1752.8,545.135,1756.685,547.25,1757.536,548.644Z" transform="translate(-1706.957 -530.07)" fill="#882400"/>
                  <path id="Tracé_268" data-name="Tracé 268" d="M1666.426,544.542s-2.4-7.413-1.741-10,1.632-9.611.978-10.646.957-8.283,2.09-9.139,1.822,3.07,1.784,5.145-.511,4.531-.031,4.765,6.87,4.77,8.737,7.362c0,0,25.958,11.407,34.208,5.475,0,0,.567-5.038,4.537-5.237s7.341,1.7,8.109,8.038-5.663,16.609-27.507,19.008S1666.426,544.542,1666.426,544.542Z" transform="translate(-1657.219 -512.217)" fill="#fe9"/>
                  <path id="Tracé_269" data-name="Tracé 269" d="M1666.426,544.542s-2.4-7.413-1.741-10,1.632-9.611.978-10.646.957-8.283,2.09-9.139,1.822,3.07,1.784,5.145-.511,4.531-.031,4.765,6.87,4.77,8.737,7.362c0,0,25.958,11.407,34.208,5.475,0,0,.567-5.038,4.537-5.237s7.341,1.7,8.109,8.038-5.663,16.609-27.507,19.008S1666.426,544.542,1666.426,544.542Z" transform="translate(-1657.219 -512.217)" fill="#fe9"/>
                  <path id="Tracé_270" data-name="Tracé 270" d="M1697.219,556.167c7.888,4.019,27.413,11.063,34.208,5.475C1724.465,565.855,1705.874,559.213,1697.219,556.167Z" transform="translate(-1676.195 -536.353)" fill="#fff8d3"/>
                  <path id="Tracé_271" data-name="Tracé 271" d="M1766.474,592.51s6.769-3.651,7.509-6.979-8.177-7.809-8.812-5.274,3.84,4.8,3.84,4.8-7.3,3.169-6.364,5.872S1766.474,592.51,1766.474,592.51Z" transform="translate(-1714.173 -549.921)" fill="#fff8d2"/>
                  <path id="Tracé_272" data-name="Tracé 272" d="M1787.036,552.147a9.628,9.628,0,0,1,3.439-4.642s2.4,5.351,1.357,6.219S1787.036,552.147,1787.036,552.147Z" transform="translate(-1728.397 -531.318)" fill="#f13f00"/>
                  <path id="Tracé_273" data-name="Tracé 273" d="M1791.892,553.664a22.761,22.761,0,0,0-1.591-4.923,8.754,8.754,0,0,0-2.992,3.578c-.173-.106-.273-.171-.273-.171a9.628,9.628,0,0,1,3.439-4.642S1792.778,552.636,1791.892,553.664Z" transform="translate(-1728.397 -531.318)" fill="#b53000"/>
                  <g id="Groupe_97" data-name="Groupe 97" transform="translate(65.762 23.576)">
                    <path id="Tracé_274" data-name="Tracé 274" d="M1804.044,565.886a9.632,9.632,0,0,1,5.759-.456s-2.457,5.327-3.8,5.108S1804.044,565.886,1804.044,565.886Z" transform="translate(-1804.044 -565.15)" fill="#f13f00"/>
                  </g>
                  <path id="Tracé_275" data-name="Tracé 275" d="M1806.254,570.52a23.528,23.528,0,0,0,2.579-4.334,8.79,8.79,0,0,0-4.723.111c-.044-.255-.066-.411-.066-.411a9.632,9.632,0,0,1,5.759-.456S1807.628,570.145,1806.254,570.52Z" transform="translate(-1738.282 -541.574)" fill="#b53000"/>
                  <path id="Tracé_276" data-name="Tracé 276" d="M1658.158,537.416c-12.2-11.387-8.464-24.6,4.032-25.7a10.571,10.571,0,0,1,5.192.566,1.31,1.31,0,0,0,1.051-2.4,14.27,14.27,0,0,0-6.373-1.014c-11.473.533-17.271,9.889-14.249,19.962,2.4,8.067,9.63,13.879,8.513,12.881a2.225,2.225,0,0,0,2.963-3.32A14.106,14.106,0,0,1,1658.158,537.416Z" transform="translate(-1647.019 -508.855)" fill="#b53000"/>
                  <path id="Tracé_277" data-name="Tracé 277" d="M1780.828,559.383c.838-1.584,1.787-2.523,3.647-2.616,3.97-.2,8.9,1.395,9.668,7.733.2,1.653-.849,4.254-2.623,6.11-2.2-2.686-3.638-5.328-2.99-9.333C1788.531,561.277,1783.618,562.876,1780.828,559.383Z" transform="translate(-1724.789 -536.692)" fill="#b53000"/>
                  <path id="Tracé_278" data-name="Tracé 278" d="M1697.59,579.976c-21.844,2.4-31.164-14.773-31.164-14.773s-2.4-7.413-1.741-10a47.038,47.038,0,0,0,.876-5.017c2,3.168,4.653,8.347,5.845,7.933,1.69-.586,2.741-6.655,5.684-1.97s5.045,10.533,8.305,12.115,6.076-3.053,8.731-1.765,4.312,7.339,5.749,6.841-1.363-5.838,2.21-6.32,3.207,2.927,6.144,6.452c1.081,1.3,3.925,1.856,6.321,1.942A49.6,49.6,0,0,1,1697.59,579.976Z" transform="translate(-1657.219 -532.878)" fill="#b53000"/>
                  <path id="Tracé_279" data-name="Tracé 279" d="M1761.627,591.245c1.848,1.776,8.647-2.239,9.387-5.567s-8.177-7.808-8.812-5.274,3.84,4.8,3.84,4.8S1757.968,587.729,1761.627,591.245Z" transform="translate(-1713.076 -550.007)" fill="#b53000" opacity="0.28" style="mix-blend-mode: multiply;isolation: isolate"/>
                  <path id="Tracé_280" data-name="Tracé 280" d="M1790.6,572.105a5.107,5.107,0,0,0-.978,1.075c-.128.265.309,1.214.659,1.8a.119.119,0,0,1-.042.163.117.117,0,0,1-.163-.041,5.079,5.079,0,0,1-.713-1.777,2.825,2.825,0,0,1-1.831-.8.119.119,0,0,1,.163-.175c.01.009.958.884,1.71.725a4.059,4.059,0,0,1,1.04-1.156.119.119,0,0,1,.154.182Z" transform="translate(-1728.662 -545.494)"/>
                  <g id="Groupe_98" data-name="Groupe 98" transform="translate(62.701 29.058)">
                    <path id="Tracé_281" data-name="Tracé 281" d="M1796.774,578.243a.058.058,0,0,0-.025.018.059.059,0,0,0,.006.084l4,3.431a.06.06,0,0,0,.078-.09l-4-3.431A.058.058,0,0,0,1796.774,578.243Z" transform="translate(-1796.734 -578.24)" fill="#b9bcfc"/>
                  </g>
                  <g id="Groupe_99" data-name="Groupe 99" transform="translate(63.352 28.832)">
                    <path id="Tracé_282" data-name="Tracé 282" d="M1798.33,577.7a.059.059,0,0,0,0,.11l5.419,2.433a.059.059,0,0,0,.079-.03.059.059,0,0,0-.03-.079l-5.419-2.433A.059.059,0,0,0,1798.33,577.7Z" transform="translate(-1798.29 -577.7)" fill="#b9bcfc"/>
                  </g>
                  <g id="Groupe_100" data-name="Groupe 100" transform="translate(63.736 27.994)">
                    <path id="Tracé_283" data-name="Tracé 283" d="M1799.247,575.7a.06.06,0,0,0-.039.042.059.059,0,0,0,.043.072l4.443,1.11a.06.06,0,0,0,.029-.116l-4.443-1.11A.053.053,0,0,0,1799.247,575.7Z" transform="translate(-1799.207 -575.699)" fill="#b9bcfc"/>
                  </g>
                  <g id="Groupe_101" data-name="Groupe 101" transform="translate(53.472 19.627)">
                    <path id="Tracé_284" data-name="Tracé 284" d="M1774.737,555.723a.057.057,0,0,0-.019.011.06.06,0,0,0-.006.084l5.382,6.148a.059.059,0,0,0,.084.006.059.059,0,0,0,.006-.084l-5.382-6.148A.06.06,0,0,0,1774.737,555.723Z" transform="translate(-1774.697 -555.719)" fill="#b9bcfc"/>
                  </g>
                  <g id="Groupe_102" data-name="Groupe 102" transform="translate(55.107 17.608)">
                    <path id="Tracé_285" data-name="Tracé 285" d="M1778.642,550.9l-.011,0a.06.06,0,0,0-.021.082l4.11,6.951a.061.061,0,0,0,.082.021.06.06,0,0,0,.021-.082l-4.11-6.95A.059.059,0,0,0,1778.642,550.9Z" transform="translate(-1778.601 -550.9)" fill="#b9bcfc"/>
                  </g>
                  <g id="Groupe_103" data-name="Groupe 103" transform="translate(57.039 17.222)">
                    <path id="Tracé_286" data-name="Tracé 286" d="M1783.255,549.981h0a.06.06,0,0,0-.033.078l2.28,5.678a.06.06,0,0,0,.078.033.059.059,0,0,0,.033-.077l-2.28-5.678A.059.059,0,0,0,1783.255,549.981Z" transform="translate(-1783.215 -549.978)" fill="#b9bcfc"/>
                  </g>
                  <g id="Groupe_104" data-name="Groupe 104" transform="translate(64.276 18.451)">
                    <path id="Tracé_287" data-name="Tracé 287" d="M1802.04,552.916a.059.059,0,0,0-.035.034l-1.5,3.582a.059.059,0,0,0,.032.078.06.06,0,0,0,.078-.032l1.5-3.582a.06.06,0,0,0-.032-.078A.062.062,0,0,0,1802.04,552.916Z" transform="translate(-1800.497 -552.912)" fill="#b9bcfc"/>
                  </g>
                  <g id="Groupe_105" data-name="Groupe 105" transform="translate(63.203 15.775)">
                    <path id="Tracé_288" data-name="Tracé 288" d="M1799.622,546.527a.059.059,0,0,0-.038.042l-1.649,6.63a.06.06,0,0,0,.116.029l1.649-6.63a.06.06,0,0,0-.078-.071Z" transform="translate(-1797.933 -546.523)" fill="#b9bcfc"/>
                  </g>
                  <g id="Groupe_106" data-name="Groupe 106" transform="translate(66.425 23.494)">
                    <path id="Tracé_289" data-name="Tracé 289" d="M1809.415,565.037a.06.06,0,0,1-.036.033l-3.674,1.263a.06.06,0,0,1-.038-.113l3.674-1.263a.06.06,0,0,1,.076.037A.059.059,0,0,1,1809.415,565.037Z" transform="translate(-1805.627 -564.954)" fill="#b9bcfc"/>
                  </g>
                  <g id="Groupe_107" data-name="Groupe 107" transform="translate(66.07 24.186)">
                    <path id="Tracé_290" data-name="Tracé 290" d="M1811.619,566.69a.061.061,0,0,1-.044.036l-6.725,1.206a.06.06,0,0,1-.069-.048.059.059,0,0,1,.048-.07l6.725-1.206a.06.06,0,0,1,.069.048A.061.061,0,0,1,1811.619,566.69Z" transform="translate(-1804.78 -566.607)" fill="#b9bcfc"/>
                  </g>
                  <path id="Tracé_291" data-name="Tracé 291" d="M1793.971,571.205l-.075-.98a6.791,6.791,0,0,0,1.308,1.215l-1.052-.058A.192.192,0,0,1,1793.971,571.205Z" transform="translate(-1732.384 -544.523)" fill="#ed0009"/>
                  <path id="Tracé_292" data-name="Tracé 292" d="M1707.219,551.489c.262.611.525,1.226.76,1.829a9.982,9.982,0,0,1-4.339-.352.954.954,0,1,1,.616-1.806A8.221,8.221,0,0,0,1707.219,551.489Z" transform="translate(-1679.551 -533.413)" fill="#cf6f00"/>
                  <g id="Groupe_108" data-name="Groupe 108" transform="translate(0.083 0.023)">
                    <path id="Tracé_293" data-name="Tracé 293" d="M1652.077,560.515a.954.954,0,0,1,1.908-.023,4.814,4.814,0,0,1-1.295,2.76c-.343-.6-.671-1.233-.974-1.884A1.761,1.761,0,0,0,1652.077,560.515Z" transform="translate(-1649.831 -538.341)" fill="#f78500"/>
                    <path id="Tracé_294" data-name="Tracé 294" d="M1649.52,547.816a.955.955,0,0,1-.589,1.214,12.544,12.544,0,0,1-1.428.4,18.259,18.259,0,0,1-.287-1.89,10.728,10.728,0,0,0,1.09-.315A.954.954,0,0,1,1649.52,547.816Z" transform="translate(-1647.216 -531.148)" fill="#f78500"/>
                    <path id="Tracé_295" data-name="Tracé 295" d="M1649.7,535.833a.953.953,0,0,1-.9,1.008,5.168,5.168,0,0,1-1.49-.115,15.175,15.175,0,0,1,.354-1.883,3.117,3.117,0,0,0,1.025.093A.953.953,0,0,1,1649.7,535.833Z" transform="translate(-1647.27 -523.982)" fill="#f78500"/>
                    <path id="Tracé_296" data-name="Tracé 296" d="M1655.577,522.434a.953.953,0,0,1-1.335.192l-1.079-.807a13.582,13.582,0,0,1,1.2-1.483l1.019.762A.954.954,0,0,1,1655.577,522.434Z" transform="translate(-1650.672 -515.551)" fill="#f78500"/>
                    <path id="Tracé_297" data-name="Tracé 297" d="M1666.135,514.15a.953.953,0,0,1-1.214-.589l-.326-.94a15.468,15.468,0,0,1,1.739-.81l.39,1.125A.954.954,0,0,1,1666.135,514.15Z" transform="translate(-1657.317 -510.596)" fill="#f78500"/>
                    <path id="Tracé_298" data-name="Tracé 298" d="M1679.556,510.968a.954.954,0,0,1-1.128-.74l-.237-1.136q.927-.133,1.911-.183l.194.931A.953.953,0,0,1,1679.556,510.968Z" transform="translate(-1665.219 -508.909)" fill="#f78500"/>
                    <path id="Tracé_299" data-name="Tracé 299" d="M1690.92,511.207a.955.955,0,0,1-.69-1.159l.2-.8a12.738,12.738,0,0,1,1.866.4l-.219.864A.953.953,0,0,1,1690.92,511.207Z" transform="translate(-1672.199 -509.107)" fill="#f78500"/>
                  </g>
                  <path id="Tracé_300" data-name="Tracé 300" d="M1766.474,592.51s6.769-3.651,7.509-6.979-8.177-7.809-8.812-5.274,3.84,4.8,3.84,4.8-7.3,3.169-6.364,5.872S1766.474,592.51,1766.474,592.51Z" transform="translate(-1714.173 -549.921)" fill="#fff8d2"/>
                  <path id="Tracé_301" data-name="Tracé 301" d="M1776.584,586.731c-.74,3.327-7.509,6.979-7.509,6.979a3.872,3.872,0,0,1-2.036.156,34.863,34.863,0,0,1,3.5-3.568c2.912-2.524,4.815-2.858,3.6-4.913a20.41,20.41,0,0,1-2.065-3.809C1774.51,582.75,1776.988,584.913,1776.584,586.731Z" transform="translate(-1716.775 -551.121)" fill="#b53000"/>
                  <g id="Groupe_109" data-name="Groupe 109" transform="translate(9.447 27.351)">
                    <path id="Tracé_302" data-name="Tracé 302" d="M1734.467,596.563a.953.953,0,0,1,1.23,1.159c-.71,2.531.181,6.423,1.066,9.224a37.281,37.281,0,0,1-4.008.181,41.858,41.858,0,0,1,1.105-9.921A.951.951,0,0,1,1734.467,596.563Z" transform="translate(-1706.296 -587.151)" fill="#f78500"/>
                    <path id="Tracé_303" data-name="Tracé 303" d="M1709.521,597.657a.954.954,0,0,1,1.509,1.168c-1.351,1.746-.9,5.261-.286,8.049a30.763,30.763,0,0,1-4.6-1.356A22.007,22.007,0,0,1,1709.521,597.657Z" transform="translate(-1690.83 -587.603)" fill="#f78500"/>
                    <path id="Tracé_304" data-name="Tracé 304" d="M1688.792,587.7a.954.954,0,0,1,1.028,1.533c-1.228,1.39-1.678,4.963-1.9,7.981a32,32,0,0,1-3.845-2.844,43.761,43.761,0,0,1,4.319-6.4A.953.953,0,0,1,1688.792,587.7Z" transform="translate(-1678.002 -582)" fill="#f78500"/>
                    <path id="Tracé_305" data-name="Tracé 305" d="M1676.833,574.215a.954.954,0,0,1,.659,1.79c-3.044,1.191-4.348,4.854-5.084,7.322a28.127,28.127,0,0,1-2.832-3.78,19.814,19.814,0,0,1,7.221-5.319Z" transform="translate(-1669.577 -574.162)" fill="#f78500"/>
                  </g>
                  <path id="Tracé_306" data-name="Tracé 306" d="M1801.881,571.092a.944.944,0,1,0,1.287-.355A.944.944,0,0,0,1801.881,571.092Z" transform="translate(-1736.954 -544.749)" fill="#2846a6"/>
                  <path id="Tracé_307" data-name="Tracé 307" d="M1792.319,562.669a.944.944,0,1,0,1.286-.355A.944.944,0,0,0,1792.319,562.669Z" transform="translate(-1731.396 -539.854)" fill="#2846a6"/>
                </g>
                <path id="Tracé_308" data-name="Tracé 308" d="M1801.135,559.12l-6.633,20.632,17.19,6.227,10.232-1.84,9.989,2.513,17.433-5.327L1839,565.161Z" transform="translate(-1732.736 -464.985)" fill="#451a4f"/>
                <path id="Tracé_309" data-name="Tracé 309" d="M1821.924,591.308s.822-16.52-13.711-19.305a33.611,33.611,0,0,0-8.773-.435l-4.938,15.354,17.19,6.228Z" transform="translate(-1732.736 -472.155)" fill="#552e5d"/>
                <path id="Tracé_310" data-name="Tracé 310" d="M1859.979,594.944s1.861-19.852,18.252-16.94c6.523,1.159,9.17,14.126,9.17,14.126l-17.433,5.327Z" transform="translate(-1770.792 -475.791)" fill="#552e5d"/>
                <path id="Tracé_311" data-name="Tracé 311" d="M1778.776,438.171s-1.363,16.9-12.569,28.106c-12.324,12.324-23.318,13.964-23.318,13.964s-4.7,3.027-7.052,3.761-4.232.275-3.1-.825,1.975-.367,3.009-1.376.611-.871-.094-1.559-4.138.734-4.138,1.376-.752,5.687-1.6,4.861.235-5.733.658-6.145a17.4,17.4,0,0,1,2.821-1.376l-3.291,1.192s-.564,5.137-1.176,5.137-.094-5,.329-5.87,3.809-1.559,3.809-1.559a21.494,21.494,0,0,0,7.382-2.385c2.528-1.433,13.849-7.918,19.21-15.356,2.017-2.8,3.728-8.255,4.4-9.96,2.445-6.237,6.483-18.5,9.962-20.52a15.62,15.62,0,0,1,3.17-1.635,5.234,5.234,0,0,1,3.092,0Z" transform="translate(-1694.46 -388.65)" fill="#e26666"/>
                <path id="Tracé_312" data-name="Tracé 312" d="M1799.874,456.6l13.892,2.026,5.9-9.848,2.006-20.605a11.464,11.464,0,0,0-3.207.018,10.531,10.531,0,0,0-5.7,3.34C1808.033,436.358,1799.874,456.6,1799.874,456.6Z" transform="translate(-1735.858 -388.825)" fill="#4247a2"/>
                <path id="Tracé_313" data-name="Tracé 313" d="M1800.992,584.352c2.594-.131,6.581,1.485,9.116,5.086,2.188,3.108,5.88,61.821,5.88,61.821l-.878.206.07,1.6,1.366,5.831-2.146,5.317-4.27-4.459,1.149-6.689L1794.5,594.412S1796.685,584.571,1800.992,584.352Z" transform="translate(-1732.736 -479.646)" fill="#61306d"/>
                <path id="Tracé_314" data-name="Tracé 314" d="M1883.414,586.855c-2.792-.438-7.523,1.243-10.321,4.692-2.45,3.021-11.572,61.188-11.572,61.188l1.984.418c-.122,1.03-.189,1.6-.189,1.6l-1.8,5.74,1.747,5.428,4.6-3.075-.66-7.87s.159-.345.451-.984l.758.124c3.723-8.2,18.549-43.3,19.879-56.71C1888.585,594.5,1886.753,587.379,1883.414,586.855Z" transform="translate(-1771.688 -481.065)" fill="#61306d"/>
                <path id="Tracé_315" data-name="Tracé 315" d="M1838.223,427.274s-13.019-1.746-19.757,0c0,0-2.371,22.569-4.242,29.053s-14.35,30.8-14.35,30.8l43.424,2.992s.374-18.953,2-26.434,4.617-32.046,4.617-33.916Z" transform="translate(-1735.858 -387.906)" fill="#757ad8"/>
                <path id="Tracé_316" data-name="Tracé 316" d="M1865.111,481.892c.707-3.981,1.554-9.912,2.3-15.553-10.419-3.608-23.924-4.106-31.318-4.066a132.863,132.863,0,0,1-2.547,14.846c-.109.378-.254.816-.431,1.306A62.3,62.3,0,0,1,1865.111,481.892Z" transform="translate(-1755.175 -408.696)" fill="#fff7cf"/>
                <path id="Tracé_317" data-name="Tracé 317" d="M1862.925,473.383s10.124,4.067,8.631,13.783c-2.1,13.686-1.964,23.836-5.094,27.128s-25.187-1.416-29.674-3.742a48.665,48.665,0,0,0-7.272,2.049,1.656,1.656,0,0,1-2.166-.73,2.793,2.793,0,0,1-.324-1.189,2.528,2.528,0,0,1-.589-2.229,4.4,4.4,0,0,1-.564-2.006c.129-.709,2.018-1.29,5.373-1.419.969-.037,5.1,1.577,6.4,2.251s17.276-.577,20.923-2.728C1861.7,502.7,1862.455,473.525,1862.925,473.383Z" transform="translate(-1750.96 -415.155)" fill="#ff8f8f"/>
                <path id="Tracé_318" data-name="Tracé 318" d="M1911.506,494.255c-.091,1.153-.189,2.325-.295,3.49l9.1,3.457c.243-1.98.52-4.061.854-6.231a11.815,11.815,0,0,0-.064-4.127l-.533-1.53-7.792-2.5A54.936,54.936,0,0,1,1911.506,494.255Z" transform="translate(-1800.568 -422.96)" fill="#fd5e5a"/>
                <path id="Tracé_319" data-name="Tracé 319" d="M1921.433,469.719l-12.224-3.365,1.583-11.9s2.62-20.163,2.663-20.151a11.4,11.4,0,0,1,2.8,1.282,10.414,10.414,0,0,1,3.756,5.418C1922.3,447.433,1921.433,469.719,1921.433,469.719Z" transform="translate(-1799.404 -392.444)" fill="#4247a2"/>
                <path id="Tracé_320" data-name="Tracé 320" d="M1900.052,374.325s1.551-2.647,3.012-2.356,1.221,4.541-.555,5.077S1899.176,376.36,1900.052,374.325Z" transform="translate(-1793.936 -356.2)" fill="#fd5e5a"/>
                <path id="Tracé_321" data-name="Tracé 321" d="M1871.464,387.793s.125,14.854,1.462,17.651,7.027,4.042,9.251,2.51l.39-12.651Z" transform="translate(-1777.466 -365.41)" fill="#fc7575"/>
                <path id="Tracé_322" data-name="Tracé 322" d="M1882.452,399.023l.115-3.72-11.1-7.51s.025,2.992.174,6.543a19.169,19.169,0,0,0,4.306,4.326C1878.268,400.262,1880.671,400.247,1882.452,399.023Z" transform="translate(-1777.466 -365.41)" fill="#fd5e5a"/>
                <path id="Tracé_323" data-name="Tracé 323" d="M1877.781,349.683s3.356.641,4.251,3.229,1.42,15.323.134,18.284-4.779,3.831-8.289,1.552-8.19-7.706-8.535-12.758S1871.569,346.985,1877.781,349.683Z" transform="translate(-1773.901 -342.944)" fill="#fc7575"/>
                <path id="Tracé_324" data-name="Tracé 324" d="M1870.244,344.166c-2.249.67-7.511-2.132-9.75,3.023s1.038,5.777.229,7.641-.5,2.656.607,5.873a17.313,17.313,0,0,0,2.5,5.094,3.706,3.706,0,0,0,.893.958l-.1-4.44s-1.753-1.978-1.253-3.128,2.375.277,3.028-.429c1.039-1.127-1.434-8.207,3.915-9.845,4.677-1.431,8.166.436,8.97,3.889C1880.7,352.5,1879.525,341.4,1870.244,344.166Z" transform="translate(-1770.628 -339.798)" fill="#111f59"/>
                <path id="Tracé_325" data-name="Tracé 325" d="M1869.392,378.707s-1.316-2.614-2.763-2.205-1.525,4.773.167,5.194A2.168,2.168,0,0,0,1869.392,378.707Z" transform="translate(-1774.021 -358.822)" fill="#fc7575"/>
                <path id="Tracé_326" data-name="Tracé 326" d="M1869.369,380.044s-2.153-1.781-2.709-.5.417,2.872,1.94,2.271S1869.369,380.044,1869.369,380.044Z" transform="translate(-1774.582 -360.346)" fill="#fd5e5a"/>
                <g id="Groupe_111" data-name="Groupe 111" transform="translate(100.373 24.749)">
                  <path id="Tracé_327" data-name="Tracé 327" d="M1886.687,394.116a9.418,9.418,0,0,0,7.03-.673,5.561,5.561,0,0,1-1.589.955A6.8,6.8,0,0,1,1886.687,394.116Z" transform="translate(-1886.687 -393.443)" fill="#172866"/>
                </g>
                <g id="Groupe_112" data-name="Groupe 112" transform="translate(97.126 15.841)">
                  <path id="Tracé_328" data-name="Tracé 328" d="M1878.942,375.117a4.626,4.626,0,0,1,2-2.629,2.964,2.964,0,0,1,3.032.274.187.187,0,0,1-.224.3,2.588,2.588,0,0,0-2.63-.246,4.321,4.321,0,0,0-1.817,2.4.187.187,0,1,1-.361-.1Z" transform="translate(-1878.935 -372.173)" fill="#172866"/>
                </g>
                <g id="Groupe_113" data-name="Groupe 113" transform="translate(104.906 15.605)">
                  <path id="Tracé_329" data-name="Tracé 329" d="M1897.544,372.273c.853-1.31,3.484-.37,3.817.172a.188.188,0,0,1-.321.195h0s-.269-.359-1.488-.614a1.569,1.569,0,0,0-1.7.452A.187.187,0,0,1,1897.544,372.273Z" transform="translate(-1897.511 -371.609)" fill="#172866"/>
                </g>
                <path id="Tracé_330" data-name="Tracé 330" d="M1883.727,378.573a5.228,5.228,0,0,1,1.47-.661,5.941,5.941,0,0,1,.9-.187,1.175,1.175,0,0,0-1.475-.578,1.159,1.159,0,0,0-.93,1.327A.837.837,0,0,0,1883.727,378.573Z" transform="translate(-1784.554 -359.187)" fill="#1b2b80"/>
                <path id="Tracé_331" data-name="Tracé 331" d="M1899.156,376.725a5.242,5.242,0,0,1,1.612-.046,5.95,5.95,0,0,1,.9.173,1.175,1.175,0,0,0-1.14-1.1,1.159,1.159,0,0,0-1.368.868A1.007,1.007,0,0,0,1899.156,376.725Z" transform="translate(-1793.561 -358.406)" fill="#1b2b80"/>
                <path id="Tracé_332" data-name="Tracé 332" d="M1895.188,385.287a7.671,7.671,0,0,0-1.07-1.055,7.429,7.429,0,0,0-.79,1.075,6.338,6.338,0,0,0,.813-.771A6.523,6.523,0,0,0,1895.188,385.287Z" transform="translate(-1790.174 -363.34)" fill="#18287d"/>
                <path id="Tracé_333" data-name="Tracé 333" d="M1876.378,345.5s1.863-3.34,1.94-5.014-1.488-2.89-2.545-2.473a1.3,1.3,0,0,0-.976,1.248,3.55,3.55,0,0,1,.751-2.663c.969-.947,2.5-.332,3.279.006a1.569,1.569,0,0,1,.927.808s.469-1.367-.391-2.044a2.262,2.262,0,0,0-2-.262,2.952,2.952,0,0,1,3.016-.412,2.67,2.67,0,0,1,1.809,2.2c.186.471-.289,1.378-.289,1.378a3.348,3.348,0,0,0,1.632-1.352c.37-.852-.923-2.579-.923-2.579s4.795.158,3,4.292a1.668,1.668,0,0,0,1.588-.476,2.062,2.062,0,0,0,.285-1.852s6,8.9.573,11.04c-.209.082.009-2.757-4.263-3.676A9.745,9.745,0,0,0,1876.378,345.5Z" transform="translate(-1779.392 -334.347)" fill="#1b2b80"/>
                <path id="Tracé_334" data-name="Tracé 334" d="M1883.351,383.61c0,.612-.989,1.108-2.208,1.108s-2.208-.5-2.208-1.108.988-1.108,2.208-1.108S1883.351,383,1883.351,383.61Z" transform="translate(-1781.809 -362.335)" fill="#fd5e5a"/>
                <path id="Tracé_335" data-name="Tracé 335" d="M1899.888,382.694c0,.612.989,1.108,2.208,1.108a4.144,4.144,0,0,0,.914-.1c.012-.658.014-1.335.008-2.016a4.135,4.135,0,0,0-.921-.1C1900.877,381.586,1899.888,382.082,1899.888,382.694Z" transform="translate(-1793.987 -361.802)" fill="#fd5e5a"/>
              </g>
            </g>
          </g>
        </g>
      </g>
      <g id="Groupe_120" data-name="Groupe 120" transform="translate(15.79 160.27)">
        <g id="Groupe_119" data-name="Groupe 119">
          <path id="Tracé_336" data-name="Tracé 336" d="M1377.813,697.341h4.057a90.986,90.986,0,0,0,.021-16.085c-1.252-15.787-8.912-42.148-10.532-46.666-.771-2.149-2.309.222-1.6,2.482,3.823,12.2,7.946,30.258,8.7,45A68.893,68.893,0,0,1,1377.813,697.341Z" transform="translate(-1358.203 -631.542)" fill="#0b1742"/>
          <path id="Tracé_337" data-name="Tracé 337" d="M1550.694,697.341h-4.057a90.915,90.915,0,0,1-.021-16.085c1.252-15.787,8.912-42.148,10.532-46.666.771-2.149,2.309.222,1.6,2.482-3.824,12.2-7.946,30.258-8.7,45A68.875,68.875,0,0,0,1550.694,697.341Z" transform="translate(-1460.897 -631.542)" fill="#2e385d"/>
          <path id="Tracé_338" data-name="Tracé 338" d="M1546.632,697.341h-4.056a90.94,90.94,0,0,1-.021-16.085c1.252-15.787,8.911-42.148,10.533-46.666.771-2.149,2.309.222,1.6,2.482-3.823,12.2-7.946,30.258-8.7,45A68.938,68.938,0,0,0,1546.632,697.341Z" transform="translate(-1458.536 -631.542)" fill="#0b1742"/>
          <path id="Tracé_339" data-name="Tracé 339" d="M1666.567,697.341h-4.057a90.939,90.939,0,0,1-.021-16.085c1.252-15.787,8.912-42.148,10.532-46.666.771-2.149,2.309.222,1.6,2.482-3.823,12.2-7.946,30.258-8.7,45A68.9,68.9,0,0,0,1666.567,697.341Z" transform="translate(-1528.242 -631.542)" fill="#2e385d"/>
          <rect id="Rectangle_73" data-name="Rectangle 73" width="151.233" height="7.051" transform="translate(0 0.924)" fill="#1b2b80"/>
          <rect id="Rectangle_74" data-name="Rectangle 74" width="62.449" height="7.051" transform="translate(88.784 0.924)" fill="#662d91"/>
          <rect id="Rectangle_75" data-name="Rectangle 75" width="151.233" height="0.924" fill="#fffaef"/>
        </g>
      </g>
      <g id="Groupe_122" data-name="Groupe 122" transform="translate(64.628 106.253)">
        <path id="Tracé_340" data-name="Tracé 340" d="M1543.827,572.683s-1.151,16.3.443,19.4,1.683,4.872-1.949,3.9-6.423-18.867-6.423-18.867Z" transform="translate(-1503.707 -542.036)" fill="#c7a680"/>
        <path id="Tracé_341" data-name="Tracé 341" d="M1550.183,580.121c-.239,4.765-.514,13.575.539,16.1a4,4,0,0,1-2.217-3.978c.443-3.277-1.358-4.872-1.358-8.149C1547.146,582.133,1548.829,580.843,1550.183,580.121Z" transform="translate(-1510.245 -546.359)" fill="#3d1046"/>
        <path id="Tracé_342" data-name="Tracé 342" d="M1465.789,544.634c0-7.374,1.727-25.576,20.727-34.146s24.646-12.489,32.154-9.566c0,0,3.787,1.2,4.982,4.252s.8,4.517.8,7.175.064,4.916.064,4.916a4.844,4.844,0,0,1-5.843,1.661c-3.787-1.461-7.042-3.122-7.773-2.391s-2.159,5.148-1.262,6.045,5.955-1.262,7.3-1.594,7.85,3.521,6.655,5.779-6.776-.731-8.1-.731-5.992,3.521-9.108,4.982-8.2,2.624-9.36,3.787c-.488.488-2.044,3.8-4.118,7.6a43.553,43.553,0,0,1-.444,7.412s10.939.488,13.287,2.835-2.835,3.228-7.972,2.411c-5.294-.842-17.219.02-18.044,0C1479.637,555.055,1465.789,550.782,1465.789,544.634Z" transform="translate(-1462.96 -499.771)" fill="#fff7cf"/>
        <path id="Tracé_343" data-name="Tracé 343" d="M1459.2,612.854c-.858,4.794,1.588,9.043,8.255,11.724,9.73,3.888,29.981,5.25,39.322.98a1.438,1.438,0,0,0,.743-2.145,2.164,2.164,0,0,0-2.589-.622,21.22,21.22,0,0,1-6.735,1.615,67.929,67.929,0,0,1-22.029-1.165c-3.989-.864-9.316-2.333-11.358-5.252-2-2.775-.844-6.611,1.693-9.057a1.773,1.773,0,0,0-.283-2.839,2.846,2.846,0,0,0-3.5.263A12.9,12.9,0,0,0,1459.2,612.854Z" transform="translate(-1459.034 -561.175)" fill="#552e5d"/>
        <path id="Tracé_344" data-name="Tracé 344" d="M1597.29,511.616l5.846-.8-3.787,4.318Z" transform="translate(-1539.388 -506.081)" fill="#3d1046"/>
        <path id="Tracé_345" data-name="Tracé 345" d="M1506.279,531.06l-.045.021-.028.013-.043.02-.028.013-.044.02-.027.012-.042.019-.034.015-.036.015-.035.016-.142.062-.029.012-.051.022-.015.007-.06.025-.018.008-.058.024-.024.01-.049.02-.029.012-.058.024-.016.006-.071.029-.007,0-.155.062-.041.016-.033.013-.038.015-.051.02-.021.009-.058.022-.024.01-.054.021-.027.01-.056.021-.025.009-.236.089-.037.014-.052.019-.028.01-.048.018-.04.015-.043.016-.032.012-.245.089-.044.016-.04.014-.027.01-.07.025h-.005l-.079.028-.01,0-.068.024-.027.01-.045.016-.045.016-.019.007-.073.026-.07.025h0l-.081.029-.015,0-.159.055-.018.006-.052.018-.039.013-.066.023-.009,0-.515.176-.041.014-.02.007-.051.018-.811.275-.112.039-.29.1-.05.017-.04.014-.014.005-.269.092-.023.008-.209.073h0l-.065.023-.02.007-.249.088-.027.01-.041.014-.033.012-.036.013-.037.013-.053.019h0l-.061.022-.03.011-.044.016-.011,0-.124.046h0l-.043.016-.027.01-.045.016-.024.01-.049.018-.02.008-.038.014-.038.015-.039.015-.024.009-.038.015-.044.017-.025.01-.064.025-.05.02-.014.005-.041.016-.029.011-.033.013-.029.012-.036.014-.035.014-.027.011-.036.015-.028.012-.032.013-.046.02-.1.044-.036.016-.026.011-.028.012-.035.015-.023.01-.036.016-.026.012-.028.013-.031.014-.034.016-.021.01-.033.015-.069.032-.007,0-.03.014-.025.012-.029.014-.025.013-.024.012-.031.015-.021.01-.032.016-.019.009-.032.017-.02.01-.029.016-.02.01-.046.025-.02.011-.028.015-.018.01-.029.016-.019.011-.015.008a1.649,1.649,0,0,1-1.021-.328c-1.575-1.575-1.132-13.828-4.442-13.116s-.035,8.152-3.179,7.71-9.521-1.86-10.318.886,8.118,1.958,11.024,4.865-.927,9.662-4.115,10.547-5.947-2.48-6.959-.443c-.774,1.557.907,7.939,4.315,10.2a1.074,1.074,0,0,0,.084.207c-1.767.082-3.013.155-3.26.147-.084,0-13.932-4.275-13.932-10.423,0-7.374,1.727-25.576,20.727-34.146s24.646-12.489,32.154-9.566c0,0,3.787,1.2,4.982,4.252q.054.14.1.276v0c.016.044.032.087.047.129l0,.008.045.126,0,.007.042.121,0,.012c.014.039.027.078.04.117l0,.013c.013.039.025.076.037.114l0,.014c.012.038.024.075.035.113l0,.012.034.113,0,.012.032.11,0,.012c.01.036.021.072.03.108l0,.014c.01.035.019.07.028.105l0,.014c.01.035.018.069.027.1l0,.014.025.1,0,.017.023.1,0,.013.023.1,0,.01c.008.034.015.067.021.1l0,.012c.007.033.013.066.02.1l0,.011c.006.034.013.067.019.1v.007c.006.034.012.067.018.1l0,.009c.006.033.011.067.017.1v.006c.006.034.01.067.016.1v0c0,.034.01.067.014.1v0c0,.034.01.068.014.1v0c0,.034.009.067.013.1v0c0,.033.007.066.011.1v.007c0,.032.007.065.01.1h0c.016.169.029.336.037.5v0c-.135.212-1.206,1.493-7.067.924-6.377-.62-6.909-3.189-9.212-1.683s-6.487,9.647-3.645,12.489,4.885,1.152,4.354,4.163,3.455-.62,4.96-.62a1.966,1.966,0,0,1,2.047,1.97l-.012,0-.016,0-.04-.009h0l-.038-.008-.012,0-.029-.006-.01,0-.038-.007h-.005l-.033-.005h-.008l-.035-.005h0l-.03,0h-.01l-.027,0h-.005l-.031,0h-.068c-1.328,0-5.992,3.521-9.108,4.982l-.069.033Z" transform="translate(-1462.96 -499.771)" fill="#552e5d"/>
        <path id="Tracé_346" data-name="Tracé 346" d="M1591.262,501.32s4.385-2.516,7.772-1.623l-4.088,4.709Z" transform="translate(-1535.885 -499.506)" fill="#552e5d"/>
        <path id="Tracé_347" data-name="Tracé 347" d="M1594.13,502.425c.521-.544,3.495-3.469,6.572-2.658l-4.088,4.709Z" transform="translate(-1537.552 -499.576)" fill="#fc7575"/>
        <path id="Tracé_348" data-name="Tracé 348" d="M1500.924,541.547s3.044,2.592.452,4.063-6.865,4.553-6.865,1.4S1498.51,539.866,1500.924,541.547Z" transform="translate(-1479.653 -523.709)" fill="#fb8603"/>
        <path id="Tracé_349" data-name="Tracé 349" d="M1481.2,582.375s7.415-3.332,10.5-1.44-.315,1.016-3.363,4.063-6.408,5.433-7.916,3.925S1481.2,582.375,1481.2,582.375Z" transform="translate(-1471.163 -546.495)" fill="#fb8603"/>
        <g id="Groupe_121" data-name="Groupe 121" transform="translate(21.33 0.191)">
          <path id="Tracé_350" data-name="Tracé 350" d="M1524.367,514.173s2.593,5.139,0,6.609-3.152-1.821-6.935,0c-2.821,1.359-6.929.69-7.468-1.83q1.072-.567,2.226-1.089c4.432-2,8.138-3.745,11.31-5.21A2.322,2.322,0,0,1,1524.367,514.173Z" transform="translate(-1509.964 -507.339)" fill="#fb8603"/>
          <path id="Tracé_351" data-name="Tracé 351" d="M1570.609,503.226c-2.475.28-.607-2.1-4.53-.56a6.068,6.068,0,0,1-5.72-.7c5.46-2.143,9.005-2.634,13.052-1.124A3.706,3.706,0,0,1,1570.609,503.226Z" transform="translate(-1539.254 -499.963)" fill="#fb8603"/>
        </g>
        <path id="Tracé_352" data-name="Tracé 352" d="M1504.051,584.812a15.046,15.046,0,0,0-.838-4.8c-1.618-4.65-5.492-6.289-10.5-6.973a9.4,9.4,0,0,0-7.729,2.068,10.706,10.706,0,0,1,7.578-1.1c7.1,1.331,9.1,3.685,10.585,7.735A25.3,25.3,0,0,1,1504.051,584.812Z" transform="translate(-1474.116 -542.179)" fill="#e8e0ff"/>
        <path id="Tracé_353" data-name="Tracé 353" d="M1567.519,550.158c-2.352.308-7.208,1.394-7.712,1.531a25.98,25.98,0,0,0-6.976,3.734c1.979-.786,4.172-1.8,5.406-2.286C1560.641,552.172,1563.526,551.822,1567.519,550.158Z" transform="translate(-1513.549 -528.945)" fill="#e8e0ff"/>
        <path id="Tracé_354" data-name="Tracé 354" d="M1597.613,527.491c.609-1.1-.8-2.567-2.742-2.445C1595.943,525.638,1597.516,526.039,1597.613,527.491Z" transform="translate(-1537.982 -514.346)" fill="#552e5d"/>
        <path id="Tracé_355" data-name="Tracé 355" d="M1603.519,541.114c-.111-.563-.37-1.649-.37-1.649a8.924,8.924,0,0,1,1.2.758A4.744,4.744,0,0,1,1603.519,541.114Z" transform="translate(-1542.794 -522.73)" fill="#552e5d"/>
      </g>
      <g id="Groupe_127" data-name="Groupe 127" transform="translate(307.726 154.368)">
        <path id="Tracé_356" data-name="Tracé 356" d="M2050.191,694.12s-2.524-2.226-3.879-1.563l1.3,3.383Z" transform="translate(-2043.458 -659.75)" fill="#d86b00"/>
        <path id="Tracé_357" data-name="Tracé 357" d="M2154.284,744.643s-.878,4.506,2.267,7.651,4.874,5.214,4.874,5.894-2.38,5.781-2.38,5.781-2.607.284-2.834,1.644-.056,1.106-.056,1.106h5.611s5.157-8.531,5.611-9.495-.964-9.918-.964-9.918Z" transform="translate(-2106.146 -690.094)" fill="#d86b00"/>
        <path id="Tracé_358" data-name="Tracé 358" d="M2081.827,738.31s1.19,5.949.34,9.18-3,9.125-3,9.125a3.664,3.664,0,0,0-2.211,4.507s4.482.639,5.1.019,5.158-8.1,5.951-12.518,1.417-7.821,1.417-7.821Z" transform="translate(-2061.18 -686.413)" fill="#d86b00"/>
        <path id="Tracé_359" data-name="Tracé 359" d="M2048.042,691.092s-4.761,1.663-5.517,4.459a12.9,12.9,0,0,1-2.645,4.837s.151,3.249,1.814,4.156a1.577,1.577,0,0,0,1.259.983c1.008.176,4.484-.328,5.971-.328s6.65,2.141,7.305,3.879,11.084,6.046,13.049,7.029,7.179,13.225,6.348,15.265c0,0-2.091,1.184-1.612,3.225l5.511-.1a2.465,2.465,0,0,0,1.013-1.914c0-1.235-1.713-17.281-1.713-17.281s3.9-2.668,11.326-1.591,12.752,9.8,20.517,11.165c0,0,.2,4.96-1.247,6.4a8.377,8.377,0,0,0-1.957,3.317h5.868s3.06-10.629,2.777-12.5c0,0-5.1-8.672-4.251-11.278s2.777-16.1-3.514-18.307-20.347-6.121-32.476-1.077a32.436,32.436,0,0,0-13.149.567C2055.749,693.816,2048.042,691.092,2048.042,691.092Z" transform="translate(-2039.72 -657.738)" fill="#ff8139"/>
        <g id="Groupe_123" data-name="Groupe 123" transform="translate(13.938 31.392)">
          <path id="Tracé_360" data-name="Tracé 360" d="M2183.223,703.957c-2.2,0-5.118-9.478-6.336-10.7-.628-.628-2.647-1.557-4-2.922a62.045,62.045,0,0,1,9.2,1.936C2183.283,697.36,2184.575,703.957,2183.223,703.957Z" transform="translate(-2130.962 -689.924)" fill="#ff4a00"/>
          <path id="Tracé_361" data-name="Tracé 361" d="M2160.936,705.833c.4,3.535-1.4.344-3.935-3.63a140.448,140.448,0,0,1-7.041-12.721,43.428,43.428,0,0,1,6.111-.051c.709,1.821,1.686,4.417,2.664,7.3C2160.6,702.231,2160.536,702.3,2160.936,705.833Z" transform="translate(-2117.636 -689.348)" fill="#ff4a00"/>
          <path id="Tracé_362" data-name="Tracé 362" d="M2136.932,700.134c-1.718,2.993-5.172-3.837-7.313-8.06a31.787,31.787,0,0,1,5.019-1.322C2136.059,693,2138.453,697.485,2136.932,700.134Z" transform="translate(-2105.814 -690.164)" fill="#ff4a00"/>
          <path id="Tracé_363" data-name="Tracé 363" d="M2117.508,704.305c-1.6,0-4.546-6.207-6.216-10.057a34.193,34.193,0,0,1,3.425.065C2116.424,697.95,2119.168,704.305,2117.508,704.305Z" transform="translate(-2095.163 -692.186)" fill="#ff4a00"/>
          <path id="Tracé_364" data-name="Tracé 364" d="M2098.757,704.077c-1.168,0-5.792-4.749-6.889-7.921q.615-.114,1.225-.272c.786-.2,1.563-.37,2.322-.5C2097.129,698.469,2100.063,704.077,2098.757,704.077Z" transform="translate(-2083.874 -692.855)" fill="#ff4a00"/>
          <path id="Tracé_365" data-name="Tracé 365" d="M2077.658,702.737c-2.162.262-4.19-3.148-4.879-5.353a27.429,27.429,0,0,0,5.775.222C2079.015,698.835,2080.144,702.436,2077.658,702.737Z" transform="translate(-2072.779 -694.019)" fill="#ff4a00"/>
        </g>
        <path id="Tracé_366" data-name="Tracé 366" d="M2087.171,690.931c10.079-4.176,22.35-2.453,32.5,1.309-7.752-2.549-16.391-4.079-24.444-2.981a33.553,33.553,0,0,0-8.008,2.136c-12.9-1.8-15.764,3.637-27.851-.576C2072.726,694.872,2074.945,688.805,2087.171,690.931Z" transform="translate(-2051.046 -657.465)" fill="#fdb866"/>
        <path id="Tracé_367" data-name="Tracé 367" d="M2052.512,685.672s1.055,3.5,1.282,4.907,5.485-.407,5.485-.407S2055.484,684.261,2052.512,685.672Z" transform="translate(-2047.062 -655.693)" fill="#f78500"/>
        <path id="Tracé_368" data-name="Tracé 368" d="M2052.538,686.059c.112.372,1.058,3.545,1.271,4.871.132.822,2.155.534,3.82.151C2056.8,689.825,2054.619,686.786,2052.538,686.059Z" transform="translate(-2047.076 -656.045)" fill="#fc7575"/>
        <path id="Tracé_369" data-name="Tracé 369" d="M2198.365,620.568a7.6,7.6,0,0,0-.949,4.976c.481,5.641,5.458,21.252,3.992,27.685l-.056.247a2.012,2.012,0,0,1-3.924-.89c1.841-8.123-3.926-25.4-2.327-31.751.891-3.379,5.582-5.471,8.62-6.3a2.869,2.869,0,0,1,1.023-.135,1,1,0,0,1,.946,1.066c-.091.7-.928.868-1.492,1.057A10.9,10.9,0,0,0,2198.365,620.568Z" transform="translate(-2129.769 -614.392)" fill="#f78500"/>
        <g id="Groupe_124" data-name="Groupe 124" transform="translate(2.366 42.048)">
          <path id="Tracé_370" data-name="Tracé 370" d="M2051.179,714.813a.056.056,0,0,1,.006.016.044.044,0,0,1-.033.053l-5.951,1.373a.044.044,0,1,1-.02-.087l5.951-1.373A.045.045,0,0,1,2051.179,714.813Z" transform="translate(-2045.147 -714.794)" fill="#b9bcfc"/>
        </g>
        <g id="Groupe_125" data-name="Groupe 125" transform="translate(2.678 40.11)">
          <path id="Tracé_371" data-name="Tracé 371" d="M2051.5,710.184l0,.008a.045.045,0,0,1-.023.059l-5.53,2.415a.046.046,0,0,1-.059-.023.045.045,0,0,1,.023-.059l5.531-2.415A.045.045,0,0,1,2051.5,710.184Z" transform="translate(-2045.891 -710.165)" fill="#b9bcfc"/>
        </g>
        <g id="Groupe_126" data-name="Groupe 126" transform="translate(3.076 43.892)">
          <path id="Tracé_372" data-name="Tracé 372" d="M2051.462,719.865v0a.044.044,0,0,1-.05.038l-4.531-.62a.044.044,0,1,1,.012-.088l4.53.62A.044.044,0,0,1,2051.462,719.865Z" transform="translate(-2046.843 -719.197)" fill="#b9bcfc"/>
        </g>
        <path id="Tracé_373" data-name="Tracé 373" d="M2047.637,707.871c0,.5.269.9.6.9s.6-.4.6-.9-.27-.9-.6-.9S2047.637,707.374,2047.637,707.871Z" transform="translate(-2044.228 -668.199)" fill="#3b0046"/>
        <path id="Tracé_374" data-name="Tracé 374" d="M2039.657,716.18l1.031-.035s-.518,1.079-.9,1.079S2039.444,716.18,2039.657,716.18Z" transform="translate(-2039.497 -673.531)" fill="#fc7575"/>
      </g>
    </g>
    <g id="Groupe_129" data-name="Groupe 129" transform="translate(1395.783 344.324)">
      <path id="Tracé_375" data-name="Tracé 375" d="M1522.5,491.574a.339.339,0,0,1-.24-.579c8.453-8.453,22.484-9.92,22.624-9.934a.339.339,0,1,1,.066.674c-.138.014-13.933,1.461-22.211,9.74A.339.339,0,0,1,1522.5,491.574Z" transform="translate(-1522.164 -481.06)" fill="#552e5d"/>
    </g>
    <g id="Groupe_130" data-name="Groupe 130" transform="translate(1555.707 275.061)">
      <path id="Tracé_376" data-name="Tracé 376" d="M1910.445,344.8a.339.339,0,0,1-.3-.494c8.989-17.462-5.819-27.915-5.969-28.019a.339.339,0,0,1,.384-.559c.156.107,15.448,10.9,6.188,28.888A.338.338,0,0,1,1910.445,344.8Z" transform="translate(-1904.027 -315.674)" fill="#552e5d"/>
    </g>
  </g>
</svg>
