<svg xmlns="http://www.w3.org/2000/svg" xmlns:xlink="http://www.w3.org/1999/xlink" width="1027.876" height="706.573" viewBox="0 0 1027.876 706.573">
  <defs>
    <linearGradient id="linear-gradient" x1="0.478" y1="0.969" x2="0.522" y2="-0.015" gradientUnits="objectBoundingBox">
      <stop offset="0" stop-color="#82acf5"/>
      <stop offset="1" stop-color="#f8bdec"/>
    </linearGradient>
    <linearGradient id="linear-gradient-2" x1="0.813" y1="0.948" x2="0.129" y2="0.032" xlink:href="#linear-gradient"/>
  </defs>
  <g id="Groupe_4476" data-name="Groupe 4476" transform="translate(-94 -2391.999)">
    <g id="Groupe_188" data-name="Groupe 188" transform="translate(-1919.625 2170.287)">
      <path id="Tracé_453" data-name="Tracé 453" d="M2997.59,736.7c-.39,30.45-11.14,55.4-20.43,71.99a.01.01,0,0,0-.01.01H2085.26l-.33-.42c-75.65-96.26-66.34-182.58-66.34-182.58,6.82-63.22,45.22-123.44,95-158,46.82-32.51,69.27-18.41,120.3-46.73q2.79-1.545,5.7-3.27c24.75-14.68,40.42-29.94,52.59-45.6,19-24.45,29.47-49.86,52.66-75.49,3.58-3.97,7.48-7.94,11.75-11.91q3.84-3.57,7.82-6.89c115.1-96.21,313.1-40.72,332.18-35.11,39.81,11.7,192.03,56.45,228,170,22.12,69.84-20.96,98.69,12,181C2960.16,652.55,2998.34,678.16,2997.59,736.7Z" fill="#e9f2f9"/>
      <g id="Groupe_184" data-name="Groupe 184">
        <path id="Tracé_454" data-name="Tracé 454" d="M2218.127,802.94a15.593,15.593,0,0,0,10,3.831c.287,0,.567-.006.86-.023,3.86-.234,7.557-2.012,11.02-5.306a30.71,30.71,0,0,0,2.556-2.743,25.225,25.225,0,0,0,4.024-6.533,21.664,21.664,0,0,0,1.527-9.441v-.006a63.741,63.741,0,0,0-.913-7.5,74.137,74.137,0,0,1-.994-8.019,35.346,35.346,0,0,1,.134-5.633c.135,1.293.322,2.568.55,3.826,4.691-12.26,10.172-24.269,17.712-34.868-2.708.018-5.417.076-8.131.158a146.836,146.836,0,0,0-13.406,25.784c-1.784,7.586-.825,13.751.064,19.214.006.065.018.129.029.193,1.153,7.131,2.071,12.8-3.281,19.625-.146.193-.3.386-.468.585a21.135,21.135,0,0,1-5.826,5.094,11.431,11.431,0,0,1-4.79,1.48,10.2,10.2,0,0,1-1.527-.017,11.705,11.705,0,0,1-6.329-2.685,2.048,2.048,0,0,0-2.807,2.983Z" fill="#93322c" stroke="#6e2621" stroke-miterlimit="10" stroke-width="1"/>
        <path id="Tracé_455" data-name="Tracé 455" d="M2243.062,756.468a146.836,146.836,0,0,1,13.406-25.784q-1.947.061-3.9.141a51.61,51.61,0,0,0-3.96,9.072,113.341,113.341,0,0,0-5.323,15.646C2243.208,755.853,2243.132,756.164,2243.062,756.468Z" fill="#93322c" stroke="#6e2621" stroke-miterlimit="10" stroke-width="1"/>
        <path id="Tracé_456" data-name="Tracé 456" d="M2246.887,765.394a51.293,51.293,0,0,0,3.276,10.967c4.486-12.593,9.487-25.2,16.348-36.61a104.649,104.649,0,0,1,6.142-9.16c-2.685-.071-5.364-.088-8.054-.065C2257.059,741.125,2251.578,753.134,2246.887,765.394Z" fill="#93322c" stroke="#6e2621" stroke-miterlimit="10" stroke-width="1"/>
        <path id="Tracé_457" data-name="Tracé 457" d="M2273.185,796.1a67.2,67.2,0,0,1,7.166,7.019q1.114,1.281,2.141,2.627a51.725,51.725,0,0,0,9.563,2.029,71.059,71.059,0,0,0-6.844-9.516,75.463,75.463,0,0,0-10.236-9.564c-.3.907-.573,1.831-.819,2.755a46.939,46.939,0,0,0-.965,4.621C2273.191,796.079,2273.185,796.085,2273.185,796.1Z" fill="#93322c" stroke="#6e2621" stroke-miterlimit="10" stroke-width="1"/>
        <path id="Tracé_458" data-name="Tracé 458" d="M2274.975,788.691a75.463,75.463,0,0,1,10.236,9.564,71.059,71.059,0,0,1,6.844,9.516,51.7,51.7,0,0,0,6.054.351c.608,0,1.217-.011,1.819-.035a94.275,94.275,0,0,0-8.136-12.611v-.006l-.006,0c-.562-.708-1.123-1.393-1.714-2.071a83.22,83.22,0,0,0-12.716-11.488c-.369,1.041-.749,2.082-1.117,3.123-.433,1.194-.854,2.387-1.24,3.6A.283.283,0,0,1,2274.975,788.691Z" fill="#93322c" stroke="#6e2621" stroke-miterlimit="10" stroke-width="1"/>
        <path id="Tracé_459" data-name="Tracé 459" d="M2285.229,762.516c2.971,2.123,5.943,4.258,8.821,6.522a67.594,67.594,0,0,0,54.4.356c.345-1.28.631-2.585.871-3.907q-1.509-2.263-3.188-4.41c-.368-.474-.748-.948-1.134-1.41a67.2,67.2,0,0,1-59.435,2.118C2285.445,762.024,2285.334,762.27,2285.229,762.516Z" fill="#93322c" stroke="#6e2621" stroke-miterlimit="10" stroke-width="1"/>
        <path id="Tracé_460" data-name="Tracé 460" d="M2285.562,761.785A67.2,67.2,0,0,0,2345,759.667a70.99,70.99,0,0,0-4.809-5.276,67.335,67.335,0,0,1-53.21,4.428C2286.492,759.8,2286.025,760.79,2285.562,761.785Z" fill="#93322c" stroke="#6e2621" stroke-miterlimit="10" stroke-width="1"/>
        <path id="Tracé_461" data-name="Tracé 461" d="M2282.474,768.769c6.177,4.5,12.324,9.136,17.325,14.9a64.076,64.076,0,0,1,4.469,5.837c2.182,3.2,4.136,6.563,6.007,9.967q.939,1.73,1.866,3.457.754,1.413,1.5,2.837a52.122,52.122,0,0,0,6.153-2.363c-.643-1.281-1.31-2.55-1.983-3.814-.269-.509-.538-1.012-.813-1.521-1.357-2.532-2.732-5.071-4.182-7.557a83.916,83.916,0,0,0-6.493-9.686c-.567-.708-1.146-1.4-1.749-2.082a78.419,78.419,0,0,0-10.528-9.7c-2.878-2.264-5.85-4.4-8.821-6.522q-1.395,3.009-2.679,6.071C2282.527,768.646,2282.5,768.71,2282.474,768.769Z" fill="#93322c" stroke="#6e2621" stroke-miterlimit="10" stroke-width="1"/>
        <path id="Tracé_462" data-name="Tracé 462" d="M2294.05,769.038a78.419,78.419,0,0,1,10.528,9.7c.6.678,1.182,1.374,1.749,2.082a67.953,67.953,0,0,0,38.939-2.673,51.3,51.3,0,0,0,3.164-8.686l.018-.071A67.594,67.594,0,0,1,2294.05,769.038Z" fill="#93322c" stroke="#6e2621" stroke-miterlimit="10" stroke-width="1"/>
        <path id="Tracé_463" data-name="Tracé 463" d="M2317.815,799.588c.673,1.264,1.34,2.533,1.983,3.814a51.71,51.71,0,0,0,8.715-5.083A67.079,67.079,0,0,1,2317.815,799.588Z" fill="#93322c" stroke="#6e2621" stroke-miterlimit="10" stroke-width="1"/>
        <path id="Tracé_464" data-name="Tracé 464" d="M2312.82,790.51c1.45,2.486,2.825,5.025,4.182,7.557.275.509.544,1.012.813,1.521a67.079,67.079,0,0,0,10.7-1.269h.006a.019.019,0,0,0,.012-.006,52.4,52.4,0,0,0,12.044-12.12A67.574,67.574,0,0,1,2312.82,790.51Z" fill="#93322c" stroke="#6e2621" stroke-miterlimit="10" stroke-width="1"/>
        <path id="Tracé_465" data-name="Tracé 465" d="M2306.327,780.824a83.916,83.916,0,0,1,6.493,9.686,67.574,67.574,0,0,0,27.755-4.317,52.225,52.225,0,0,0,4.691-8.042A67.953,67.953,0,0,1,2306.327,780.824Z" fill="#93322c" stroke="#6e2621" stroke-miterlimit="10" stroke-width="1"/>
        <path id="Tracé_466" data-name="Tracé 466" d="M2252.573,730.825q1.947-.08,3.9-.141c2.714-.082,5.423-.14,8.131-.158,2.69-.023,5.369-.006,8.054.065q3.957.1,7.908.362,3.405.228,6.8.609l.889.1c2.48.3,4.954.661,7.411,1.1q3.563.641,7.066,1.5a95.419,95.419,0,0,1,12.114,3.831,80.141,80.141,0,0,1,10.031,4.738h.006q2.368,1.334,4.638,2.837,1.869,1.236,3.656,2.608a68.835,68.835,0,0,1,7.013,6.1,70.99,70.99,0,0,1,4.809,5.276c.386.462.766.936,1.134,1.41q1.684,2.141,3.188,4.41a52.044,52.044,0,0,0,.854-9.423c0-.105,0-.216-.006-.322a71.146,71.146,0,0,0-16.038-14.675c-12.453-8.283-27.287-12.442-42.15-14.12-5.188-.585-10.394-.884-15.612-.995q-4.14-.087-8.294-.029-4.176.044-8.364.2c-1.433.047-2.872.1-4.3.158A51.422,51.422,0,0,0,2252.573,730.825Z" fill="#93322c" stroke="#6e2621" stroke-miterlimit="10" stroke-width="1"/>
        <path id="Tracé_467" data-name="Tracé 467" d="M2255.4,726.28c1.433-.059,2.872-.111,4.3-.158q4.185-.15,8.364-.2,4.151-.052,8.294.029c5.218.111,10.424.41,15.612.995,14.863,1.678,29.7,5.837,42.15,14.12a71.146,71.146,0,0,1,16.038,14.675,51.32,51.32,0,0,0-1.246-11.055v-.006a71.352,71.352,0,0,0-10.177-8.224c-12.459-8.282-27.293-12.441-42.156-14.12a223.822,223.822,0,0,0-33.206-.795q-2.193.07-4.387.169A51.139,51.139,0,0,0,2255.4,726.28Z" fill="#93322c" stroke="#6e2621" stroke-miterlimit="10" stroke-width="1"/>
        <path id="Tracé_468" data-name="Tracé 468" d="M2263.581,717.1c12.558-.532,25.14-.784,37.622.62,14.863,1.679,29.7,5.838,42.15,14.12.439.293.877.591,1.31.9a51.829,51.829,0,0,0-8.013-11.681l-.006-.005a105.568,105.568,0,0,0-30.832-7.938c-11.973-1.351-24.052-1.17-36.107-.69h-.012A52.425,52.425,0,0,0,2263.581,717.1Z" fill="#93322c" stroke="#6e2621" stroke-miterlimit="10" stroke-width="1"/>
        <path id="Tracé_469" data-name="Tracé 469" d="M2269.705,712.423c12.055-.48,24.134-.661,36.107.69a105.568,105.568,0,0,1,30.832,7.938,52.194,52.194,0,0,0-12.939-10.33c-.006,0-.006-.006-.011-.006h-.006a122.8,122.8,0,0,0-13.26-2.211,218.388,218.388,0,0,0-31.487-.86h-.012A51.982,51.982,0,0,0,2269.705,712.423Z" fill="#93322c" stroke="#6e2621" stroke-miterlimit="10" stroke-width="1"/>
        <path id="Tracé_470" data-name="Tracé 470" d="M2278.941,707.644a218.388,218.388,0,0,1,31.487.86,122.8,122.8,0,0,1,13.26,2.211,52.143,52.143,0,0,0-44.747-3.071Z" fill="#93322c" stroke="#6e2621" stroke-miterlimit="10" stroke-width="1"/>
        <path id="Tracé_471" data-name="Tracé 471" d="M2259,721.711q2.193-.1,4.387-.169a223.822,223.822,0,0,1,33.206.795c14.863,1.679,29.7,5.838,42.156,14.12a71.352,71.352,0,0,1,10.177,8.224,51,51,0,0,0-4.258-11.938v-.006c-.433-.3-.871-.6-1.31-.9-12.453-8.282-27.287-12.441-42.15-14.12-12.482-1.4-25.064-1.152-37.622-.62A51.026,51.026,0,0,0,2259,721.711Z" fill="#93322c" stroke="#6e2621" stroke-miterlimit="10" stroke-width="1"/>
        <path id="Tracé_472" data-name="Tracé 472" d="M2266.248,797.231a51.321,51.321,0,0,0,6.353,4.223c.117-1.8.3-3.585.584-5.358,0-.011.006-.017.006-.029a46.939,46.939,0,0,1,.965-4.621c.246-.924.521-1.848.819-2.755a.283.283,0,0,0,.024-.064c.386-1.211.807-2.4,1.24-3.6.368-1.041.748-2.082,1.117-3.123a.749.749,0,0,0,.041-.1q1.2-3.273,2.451-6.528a1.452,1.452,0,0,0,.058-.146c.837-2.135,1.691-4.247,2.568-6.358.023-.059.053-.123.076-.182q1.29-3.061,2.679-6.071c.1-.246.216-.492.333-.731.463-.995.93-1.983,1.416-2.966.035-.076.076-.152.111-.228.62-1.269,1.252-2.527,1.919-3.773.041-.082.082-.169.128-.251.878-1.662,1.778-3.293,2.738-4.914.052-.093.1-.181.158-.275q1.9-3.246,4.012-6.358h.006c.064-.105.135-.2.2-.31a96.447,96.447,0,0,1,6.475-8.434q-3.5-.868-7.066-1.5a97.956,97.956,0,0,0-7.85,10.658c-1.152,1.79-2.252,3.62-3.3,5.475q-1.185,2.088-2.3,4.223a210.679,210.679,0,0,0-10.6,24.531q-.983,2.641-1.918,5.276c-.164.457-.328.919-.486,1.375-.579,1.655-1.123,3.317-1.573,5.007-.17.649-.328,1.3-.468,1.954A52.78,52.78,0,0,0,2266.248,797.231Z" fill="#93322c" stroke="#6e2621" stroke-miterlimit="10" stroke-width="1"/>
        <path id="Tracé_473" data-name="Tracé 473" d="M2286.978,758.819a67.335,67.335,0,0,0,53.21-4.428,68.835,68.835,0,0,0-7.013-6.1,67.325,67.325,0,0,1-44.167,6.528c-.667,1.246-1.3,2.5-1.919,3.773C2287.054,758.667,2287.013,758.743,2286.978,758.819Z" fill="#93322c" stroke="#6e2621" stroke-miterlimit="10" stroke-width="1"/>
        <path id="Tracé_474" data-name="Tracé 474" d="M2289.008,754.818a67.325,67.325,0,0,0,44.167-6.528q-1.79-1.368-3.656-2.608-2.273-1.509-4.638-2.837h-.006a67.023,67.023,0,0,1-33,6.808c-.96,1.621-1.86,3.252-2.738,4.914C2289.09,754.649,2289.049,754.736,2289.008,754.818Z" fill="#93322c" stroke="#6e2621" stroke-miterlimit="10" stroke-width="1"/>
        <path id="Tracé_475" data-name="Tracé 475" d="M2291.874,749.653a67.023,67.023,0,0,0,33-6.808,80.141,80.141,0,0,0-10.031-4.738,66.7,66.7,0,0,1-18.794,4.913h-.006q-2.113,3.106-4.012,6.358C2291.979,749.472,2291.926,749.56,2291.874,749.653Z" fill="#93322c" stroke="#6e2621" stroke-miterlimit="10" stroke-width="1"/>
        <path id="Tracé_476" data-name="Tracé 476" d="M2296.05,743.02a66.7,66.7,0,0,0,18.794-4.913,95.419,95.419,0,0,0-12.114-3.831,96.447,96.447,0,0,0-6.475,8.434C2296.185,742.816,2296.114,742.915,2296.05,743.02Z" fill="#93322c" stroke="#6e2621" stroke-miterlimit="10" stroke-width="1"/>
        <path id="Tracé_477" data-name="Tracé 477" d="M2260.165,791.7a52,52,0,0,0,6.083,5.533,52.78,52.78,0,0,1,.913-5.96c.14-.655.3-1.3.468-1.954.45-1.69.994-3.352,1.573-5.007.158-.456.322-.918.486-1.375q.938-2.64,1.918-5.276a210.679,210.679,0,0,1,10.6-24.531q1.115-2.133,2.3-4.223c1.052-1.855,2.152-3.685,3.3-5.475a97.956,97.956,0,0,1,7.85-10.658c-2.457-.444-4.931-.807-7.411-1.1a102.658,102.658,0,0,0-8,11.266q-1.368,2.211-2.644,4.492c-.62,1.105-1.228,2.228-1.819,3.351a233.517,233.517,0,0,0-12.611,29.978c-.748,2.1-1.491,4.223-2.059,6.387A45.24,45.24,0,0,0,2260.165,791.7Z" fill="#93322c" stroke="#6e2621" stroke-miterlimit="10" stroke-width="1"/>
        <path id="Tracé_478" data-name="Tracé 478" d="M2254.667,784.749a51.772,51.772,0,0,0,5.5,6.949,45.24,45.24,0,0,1,.953-4.557c.568-2.164,1.311-4.282,2.059-6.387a233.517,233.517,0,0,1,12.611-29.978c.591-1.123,1.2-2.246,1.819-3.351q1.274-2.281,2.644-4.492a102.658,102.658,0,0,1,8-11.266l-.889-.1q-3.4-.387-6.8-.609a104.3,104.3,0,0,0-7.393,10.728q-1.08,1.78-2.094,3.6c-5.885,10.511-10.359,21.911-14.407,33.294C2255.936,780.613,2255.222,782.655,2254.667,784.749Z" fill="#93322c" stroke="#6e2621" stroke-miterlimit="10" stroke-width="1"/>
        <path id="Tracé_479" data-name="Tracé 479" d="M2250.163,776.361a51.574,51.574,0,0,0,4.5,8.388c.555-2.094,1.269-4.136,2-6.177,4.048-11.383,8.522-22.783,14.407-33.294q1.017-1.816,2.094-3.6a104.3,104.3,0,0,1,7.393-10.728q-3.948-.272-7.908-.362a104.649,104.649,0,0,0-6.142,9.16C2259.65,751.157,2254.649,763.768,2250.163,776.361Z" fill="#93322c" stroke="#6e2621" stroke-miterlimit="10" stroke-width="1"/>
        <path id="Tracé_480" data-name="Tracé 480" d="M2279.848,775.273a101.7,101.7,0,0,1,13.1,11.09c.679.708,1.339,1.427,1.983,2.17a71.6,71.6,0,0,1,7.037,9.833c1.789,2.93,3.445,5.96,5.077,8.99a51.628,51.628,0,0,0,6.6-1.591q-.747-1.422-1.5-2.837-.93-1.728-1.866-3.457c-1.871-3.4-3.825-6.767-6.007-9.967a64.076,64.076,0,0,0-4.469-5.837c-5-5.762-11.148-10.394-17.325-14.9-.877,2.111-1.731,4.223-2.568,6.358A1.452,1.452,0,0,1,2279.848,775.273Z" fill="#93322c" stroke="#6e2621" stroke-miterlimit="10" stroke-width="1"/>
        <path id="Tracé_481" data-name="Tracé 481" d="M2272.6,801.454a51.655,51.655,0,0,0,9.891,4.288q-1.028-1.343-2.141-2.627a67.2,67.2,0,0,0-7.166-7.019C2272.905,797.869,2272.718,799.658,2272.6,801.454Z" fill="#93322c" stroke="#6e2621" stroke-miterlimit="10" stroke-width="1"/>
        <path id="Tracé_482" data-name="Tracé 482" d="M2277.356,781.906a83.22,83.22,0,0,1,12.716,11.488c.591.678,1.152,1.363,1.714,2.071l.006,0v.006a94.275,94.275,0,0,1,8.136,12.611,51.8,51.8,0,0,0,7.119-.731c-1.632-3.03-3.288-6.06-5.077-8.99a71.6,71.6,0,0,0-7.037-9.833c-.644-.743-1.3-1.462-1.983-2.17a101.7,101.7,0,0,0-13.1-11.09q-1.246,3.255-2.451,6.528A.749.749,0,0,1,2277.356,781.906Z" fill="#93322c" stroke="#6e2621" stroke-miterlimit="10" stroke-width="1"/>
      </g>
      <path id="Tracé_483" data-name="Tracé 483" d="M2977.15,808.7H2373.91" fill="none" stroke="#000" stroke-miterlimit="10" stroke-width="2"/>
      <path id="Tracé_484" data-name="Tracé 484" d="M2085.26,808.7h263.68" fill="none" stroke="#000" stroke-miterlimit="10" stroke-width="2"/>
      <path id="Tracé_485" data-name="Tracé 485" d="M2841.88,449.9c2.65,0,5.56-3.28,2.91-9.55s-5.02-27-5.02-27c-3.18,0-17.2-11.45-19.58-13.9s-11.37,19.36-14.81,19.36,10.05-19.64,10.05-24.27-8.46-8.73-15.34-8.73-17.45,47.35-20.63,47.35,11.11-48.44,8.99-50.62-8.19-5.45-20.89-3.55-5.55,57.27-10.05,61.91,0-58.63,0-60.27-15.87,2.73-21.42,8.45,3.96,59.18,0,63.27-7.15-50.99-7.15-56.72-5.02-6.27-19.3,12.27a19.716,19.716,0,0,0-3.65,16.21,25.079,25.079,0,0,0-11.86,11.33c-8.17,15.22-3.8,38.45,3.6,46.09a20.873,20.873,0,0,0,14.33,6.33c.44.03.86.04,1.28.04-.23.14-.44.27-.66.4l3.1,2.24.78-.48c-1.58,2.63-2.96,7.32-2.96,15.74,0,19.91,49.7,26.49,42.32,18.88s-15.6-31.15-11.64-31.15a2.135,2.135,0,0,1,1.4.83c.01,0,.02.02.02.02a14.464,14.464,0,0,1,1.97,2.96.561.561,0,0,1,.1.15c3.39,6.07,7.95,17.56,14.02,23.38a.01.01,0,0,1,.01.01,14.48,14.48,0,0,0,3.64,2.65c10.58,5.18,23.01-8.73,23.01-8.73s-33.19-25.77-29.88-29.18,32,31.09,39.94,34.36,22.48-12.54,22.48-12.54-54.75-30.27-53.21-35.45,50.83,32.18,58.5,29.72,14.28-18.27,14.28-18.27-55.54-19.36-53.43-24,46.55,20.45,52.9,19.09,3.17-20.18,3.17-23.45-34.25-8.05-37.55-11.46S2839.24,449.9,2841.88,449.9Zm-133.57-14.18a18.509,18.509,0,0,0,.27-3.51c4.92,11.04,14.01,20.15,12.69,21.51C2719.03,456.03,2706.99,443.35,2708.31,435.72Z" opacity="0.5" fill="url(#linear-gradient)"/>
      <path id="Tracé_486" data-name="Tracé 486" d="M2342.37,558.21c-1.17-1.72-2.14-1.99-2.57-.11a22.339,22.339,0,0,1-1.11,3.4c-.01.01-.02.02-.02.03a57.313,57.313,0,0,1-11.26,16.85c-2.71,2.72-4.96,4.01-5.61,2.57a2.537,2.537,0,0,1-.01-1.69v-.01c1.42-5.64,13.66-19.18,12.84-30.23-.73-9.7-10.66-16.33-14.98-18.77h-.01c-1.2-.68-1.96-1.03-1.96-1.03s-.05.51-.15,1.43v.01c-.78,7.4-4.52,40.74-8.12,38.9-2.89-1.48,2.82-22.92,5.89-38.34v-.01c1.22-6.13,2.02-11.3,1.69-13.89-1.15-9.09-19.56-17.89-19.56-17.89s.66,19.61.49,37.42c-.12,14.77-.8,28.3-2.87,28.45-2.05.15-2.06-12.39-1.92-26.86.17-17.78.55-38.49-2.38-42.22-2.37-3.03-6.66-4.87-10.66-5.99h-.01a50.29,50.29,0,0,0-9.45-1.66s.45,2.6,1.12,6.73c1.88,11.62,5.56,35.36,6.14,47.58.23,4.73-.01,7.74-.99,7.64s-1.79-2.72-2.52-6.83c-2.07-11.59-3.45-34.92-5.44-46.5-.53-3.1-1.1-5.36-1.74-6.32-3.9-5.84-16.52,4.12-18.97,5.3-1.07.52.64,7.76,2.81,16.1,2.75,10.6,6.24,22.96,5.65,25.5-.64,2.78-4.47-11.39-7.6-23.32-1.97-7.48-3.67-14.07-4.13-15.09-1.2-2.64-26.35,15.3-26.35,15.3,1.44,3.17-.77,21.29-1.52,24.55s19.62,4.35,21.18,7.78-19.23-2.94-22.69-1.26-2.69,11.59.43,18.45,43.29.31,44.73,3.48-41.23,6.41-41.9,9.3-.36,10.15,6.82,22.12a5.851,5.851,0,0,0,3.38,2.61c6.71,2.18,19.63-3.82,30.39-8.9,8.08-3.81,14.94-7.1,17.04-6.03,2.31,1.18-5.03,5.09-14.41,9.28-12.99,5.8-29.91,12.14-30.63,12.48-.67.33,2.21,4.82,6.08,9.36a60.125,60.125,0,0,0,4.77,5.04l.01.01c.64.62,1.29,1.18,1.93,1.69v.01a18.984,18.984,0,0,0,3.24,2.2,2.85,2.85,0,0,0,1.22.28c9.05.4,41.44-25.48,46.06-23.12,4.85,2.48-34.87,25.53-39.15,27.6s-2.41,7.28,17.92,14.83a13.159,13.159,0,0,0,13.75-2.21c8.79,9.23,19.48,9.58,28.44,5.96,8.49-3.42,15.42-10.4,17.71-16.78.22,1.84.43,3.77.63,5.74l2.39-21.85a52.925,52.925,0,0,0-1.99-7.17c2.56-.04,5.94-.82,10.43-2.99C2356.99,601.27,2347.56,565.75,2342.37,558.21Zm-47.48,79.49a11.863,11.863,0,0,0-2.74,1c6.02-8.89,8.71-21.25,10.32-20.43C2305.22,619.68,2301.2,636.26,2294.89,637.7Z" opacity="0.5" fill="url(#linear-gradient-2)"/>
      <g id="Groupe_186" data-name="Groupe 186">
        <path id="Tracé_487" data-name="Tracé 487" d="M2442.872,572.912s11.252,159.262-4.326,189.556-16.448,47.607,19.041,38.087,62.766-184.364,62.766-184.364Z" fill="#daa567"/>
        <path id="Tracé_488" data-name="Tracé 488" d="M2444.649,603.352c2.334,46.56,5.025,132.659-5.268,157.307,10.539-6.292,24.409-18.589,21.667-38.872-4.326-32.024,13.275-47.6,13.275-79.631C2474.323,623.017,2457.879,610.4,2444.649,603.352Z" fill="#edba5f"/>
        <path id="Tracé_489" data-name="Tracé 489" d="M2807.27,711.83a41.5,41.5,0,0,1-1.4,10.59c-3.67,13.93-14.26,26.72-28,38.02a213.769,213.769,0,0,1-30.47,20.52q-5.01,2.835-10.06,5.46a434.416,434.416,0,0,1-51.32,22.28H2416.41c-6.57-4.41-7.42-10.62.5-18.53,3.07-3.07,7.63-5.81,13.24-8.26,13.36-5.83,32.64-9.99,51.68-12.94,32.8-5.07,64.91-6.5,64.91-6.5,0-8.08-6.7-39.29-4.34-72.43-10.28-18.83-19.25-36.45-26.22-49.85-6.79-13.02-11.66-22.08-14.02-24.43a28.2,28.2,0,0,0-5.82-4.2.746.746,0,0,1-.12-.07c-.12-.06-.23-.12-.35-.19a.95.95,0,0,0-.17-.1l-.27-.15a2.007,2.007,0,0,1-.2-.11l-.45-.24c-.06-.03-.12-.07-.19-.1-.09-.05-.19-.1-.29-.15a1.148,1.148,0,0,0-.19-.1c-.01,0-.01-.01-.02-.01-.09-.06-.2-.1-.29-.16a.357.357,0,0,1-.09-.04.407.407,0,0,0-.09-.05,3.168,3.168,0,0,1-.32-.16c-.07-.03-.14-.07-.2-.1-.1-.05-.21-.1-.31-.15-.08-.04-.15-.08-.23-.12s-.17-.08-.25-.12-.13-.06-.2-.09c-.02-.01-.05-.03-.07-.04-.09-.04-.17-.08-.25-.12-.1-.04-.19-.09-.29-.13a.572.572,0,0,0-.07-.04c-.22-.1-.45-.21-.67-.31l-.33-.15a1.621,1.621,0,0,0-.19-.09l-.33-.15a2.911,2.911,0,0,0-.31-.14c-.08-.04-.18-.08-.27-.12h-.01c-.19-.09-.39-.18-.59-.27a2.285,2.285,0,0,0-.23-.1c-.11-.05-.22-.1-.34-.15l-.27-.12c-.08-.04-.17-.07-.25-.11s-.19-.08-.28-.11a.3.3,0,0,0-.08-.04c-.33-.15-.67-.29-1.01-.43-.15-.06-.3-.13-.45-.19-.1-.04-.21-.09-.32-.13-.09-.04-.18-.08-.27-.11-.59-.24-1.2-.49-1.81-.73a.534.534,0,0,0-.11-.05,2.343,2.343,0,0,0-.28-.11c-.13-.06-.26-.11-.4-.16a.686.686,0,0,0-.13-.05c-.37-.14-.74-.29-1.12-.44a2.465,2.465,0,0,1-.24-.1c-.15-.05-.29-.11-.43-.16-.49-.18-1-.38-1.51-.57a1.088,1.088,0,0,0-.23-.09c-.06-.03-.12-.05-.19-.08a.564.564,0,0,1-.12-.04.359.359,0,0,0-.11-.04,2.359,2.359,0,0,0-.24-.09c-.22-.08-.45-.17-.68-.26a2,2,0,0,1-.26-.1c-.15-.05-.3-.1-.45-.16-.2-.07-.4-.15-.6-.22a.145.145,0,0,0-.07-.02c-.17-.07-.35-.14-.53-.2-.15-.05-.29-.11-.44-.16a.421.421,0,0,0-.1-.04c-.1-.04-.2-.07-.3-.11-.19-.07-.39-.14-.59-.21a.035.035,0,0,0-.02-.01c-.35-.12-.71-.25-1.07-.38-.05-.02-.11-.04-.16-.06-.11-.04-.21-.08-.32-.12-.13-.05-.27-.09-.4-.14-.09-.03-.18-.06-.27-.1-.8-.28-1.61-.57-2.43-.86a1.067,1.067,0,0,1-.19-.07c-.22-.07-.43-.15-.64-.22-.01,0-.02-.01-.03-.01-.68-.24-1.36-.47-2.05-.71a1.56,1.56,0,0,0-.23-.08c-.87-.3-1.74-.6-2.62-.9l-.14-.05c-.13-.05-.26-.09-.39-.14-.17-.05-.33-.11-.5-.17-.93-.32-1.88-.64-2.82-.96-.37-.12-.74-.25-1.1-.37l-2.04-.69c-.17-.05-.35-.11-.52-.17-.31-.1-.6-.21-.9-.31s-.6-.21-.9-.31q0,.015-.03,0c-.73-.25-1.47-.5-2.21-.75v-.01c-.44-.15-.89-.3-1.33-.45-.16-.06-.33-.11-.49-.17a1.18,1.18,0,0,1-.2-.07c-.13-.04-.27-.09-.4-.13-1.68-.57-3.37-1.14-5.05-1.72-.02-.01-.05-.02-.07-.03-.22-.07-.43-.15-.64-.22-.03-.01-.07-.02-.1-.03-.27-.09-.53-.18-.8-.28-.06-.02-.11-.04-.17-.06l-1.56-.54a1.227,1.227,0,0,0-.14-.05c-.27-.1-.53-.19-.8-.28l-.04-.01c-.23-.08-.46-.16-.68-.24-.02-.01-.04-.01-.06-.02-.22-.08-.44-.16-.66-.23a1.345,1.345,0,0,0-.18-.07l-.44-.15c-.15-.05-.29-.11-.44-.16-.09-.03-.18-.06-.26-.09-.23-.08-.44-.16-.67-.24l-.09-.03c-.27-.09-.55-.19-.82-.29-.23-.08-.46-.17-.69-.25-.08-.03-.17-.06-.25-.09-.13-.05-.26-.09-.39-.14l-.18-.06c-.05-.02-.11-.04-.18-.06-.02-.01-.05-.02-.07-.03-.16-.06-.33-.12-.49-.18h-.01c-.63-.23-1.27-.46-1.9-.69-.1-.04-.2-.08-.31-.12l-.42-.15-.39-.15c-.16-.05-.31-.11-.47-.17l-.27-.1c-.16-.06-.34-.12-.51-.19-.12-.04-.24-.09-.36-.13l-2.31-.87-.24-.09c-.18-.07-.36-.14-.55-.21a.69.69,0,0,0-.08-.03c-.24-.09-.48-.18-.71-.28l-.24-.09c-.16-.06-.33-.13-.49-.19h-.01c-.02-.01-.05-.02-.07-.03a.485.485,0,0,0-.11-.04l-.6-.24c-.12-.05-.24-.09-.36-.14s-.22-.09-.33-.13c-.14-.06-.27-.11-.4-.16-.51-.2-1.02-.4-1.52-.61-.02,0-.05-.02-.07-.02-.23-.1-.46-.19-.69-.29-.06-.02-.11-.04-.16-.06-.19-.08-.38-.15-.57-.23-.09-.04-.19-.08-.28-.12-.16-.06-.32-.13-.48-.19a2.465,2.465,0,0,0-.24-.1c-.18-.08-.37-.16-.56-.24-.06-.02-.11-.05-.17-.07-.2-.08-.4-.16-.59-.25-.05-.02-.11-.04-.16-.06-.16-.07-.33-.14-.5-.21a2.126,2.126,0,0,1-.22-.1.142.142,0,0,1-.06-.02c-.17-.07-.34-.15-.5-.22-.42-.17-.82-.35-1.23-.53-.12-.06-.24-.11-.35-.16s-.23-.1-.34-.15c-.14-.06-.28-.12-.41-.18l-.27-.12c-.14-.06-.29-.13-.44-.19-.09-.05-.18-.09-.27-.13-.14-.06-.28-.13-.43-.19-.06-.03-.12-.05-.18-.08-.18-.08-.36-.17-.53-.25a2.526,2.526,0,0,1-.24-.11c-.22-.1-.45-.21-.67-.31-14.22-6.67-31.73-17.74-47.69-27.62H2363c-1.3-.82-2.59-1.61-3.86-2.39-.73-.45-1.45-.9-2.17-1.35l-.01-.01c-1.74-1.05-3.44-2.1-5.12-3.11-2.65-1.6-5.22-3.12-7.67-4.53-3.85-2.22-7.42-4.17-10.61-5.72-5.07-2.48-9.17-3.96-11.86-3.96-.15,0-.3,0-.46.01a.612.612,0,0,0-.13.01h-.08c-.1.01-.2.02-.3.02a.127.127,0,0,1-.06.01l-.26.03a.376.376,0,0,0-.1.01c-.02,0-.05.01-.08.01-.07.01-.14.01-.21.02-.01,0-.03.01-.04.01-.11.01-.22.03-.33.05h-.01c-.03,0-.06.01-.08.01-.11.02-.21.03-.32.05a.434.434,0,0,1-.05.01c-.12.02-.25.04-.37.07a.358.358,0,0,0-.1.02c-.09.01-.19.03-.29.05l-.12.03c-.12.02-.24.04-.37.07a.01.01,0,0,0-.01.01c-.13.02-.26.05-.39.08h-.01v.01a.127.127,0,0,0-.06.01.236.236,0,0,0-.08.02.5.5,0,0,0-.12.02c-.62.15-1.28.32-1.97.5v.01c-4.64,1.25-10.71,3.39-17.38,5.63q-2.355.8-4.79,1.59c-4.96,1.61-10.15,3.19-15.24,4.44q-1.77.435-3.51.81c-14.06,3.02-26.89,2.95-31.88-6.48-3.54-6.68-.18-14.79,6.59-22.76.62-.73,1.27-1.46,1.95-2.18a109.883,109.883,0,0,1,17.9-15.08c.93-.64,1.87-1.27,2.81-1.89,2.77-1.82,5.57-3.52,8.33-5.07h.01c11.76-6.64,22.79-10.65,27.44-9.5,13.1,3.25,62.53,24.35,71.29,15.58a6.228,6.228,0,0,0,1.03-1.37c6.5-11.17-6.54-50.88-13.36-57.7-7.14-7.14-38.95,9.09-75.96,23.37-23.31,9-39.92.21-49.01-7.52-.67-.57-1.3-1.13-1.88-1.68a44.383,44.383,0,0,1-6.21-7.03s.27-9.52.46-23.41c.09-7.26.17-15.72.17-24.63,0-13.2-1.01-23.37-.45-34.11a2.808,2.808,0,0,1,.01-.29c.01-.4.04-.79.07-1.19s.05-.8.08-1.2l.19-2.25c.03-.32.06-.64.1-.96.04-.35.08-.7.12-1.06l.12-.99v-.02c.03-.28.08-.56.12-.84a.771.771,0,0,1,.02-.15v-.04c.05-.33.09-.66.14-.99a.06.06,0,0,0,.01-.04.037.037,0,0,1,.01-.03c.12-.84.26-1.69.42-2.56a4.54,4.54,0,0,1,.09-.51.127.127,0,0,1,.01-.06c.06-.33.13-.67.19-1.01,0-.03.01-.06.01-.08.04-.16.07-.32.1-.48s.06-.32.1-.47v-.02a.5.5,0,0,0,.02-.12c.02-.07.03-.14.05-.21v-.01c.05-.25.11-.5.16-.76.01-.04.02-.07.03-.1.07-.34.14-.67.22-1,.01-.04.02-.09.03-.13.07-.32.15-.64.23-.97a1.045,1.045,0,0,1,.04-.17c.08-.33.16-.65.24-.98.01-.05.02-.09.03-.14.07-.27.15-.56.22-.84.01-.06.03-.11.04-.17a.573.573,0,0,0,.04-.14c.09-.34.18-.68.28-1.03.01-.04.02-.09.03-.13l.3-1.05.03-.12a1.863,1.863,0,0,1,.07-.22c.08-.29.16-.57.25-.86.01-.04.02-.08.03-.11.11-.36.22-.73.34-1.1l.03-.12c.12-.37.23-.73.35-1.1.01-.05.03-.09.04-.14.12-.37.24-.74.37-1.11a.5.5,0,0,1,.04-.13c.12-.38.25-.76.38-1.14a.564.564,0,0,1,.04-.12c.13-.39.27-.79.41-1.18a.705.705,0,0,1,.02-.07c.14-.41.29-.82.44-1.24.01-.02.02-.05.03-.07.08-.23.16-.46.25-.69.07-.19.14-.38.21-.58.01,0,.01-.01.01-.02.33-.88.67-1.78,1.03-2.69.3-.78.62-1.54.97-2.29a55.8,55.8,0,0,1,7.09-11.67c6.74-8.61,15.39-14.97,22.97-19.41a106.271,106.271,0,0,1,12.18-6.1c3.36-1.42,5.47-2.08,5.47-2.08.72-.28,1.45-.56,2.17-.82q2.895-1.08,5.76-2.02c.81-.27,1.62-.53,2.42-.77.27-.09.53-.17.8-.24.62-.2,1.25-.38,1.87-.56.5-.14,1.01-.28,1.52-.42q.66-.2,1.32-.36c.44-.12.88-.23,1.32-.34,3.32-.85,6.62-1.55,9.93-2.11.83-.14,1.64-.27,2.47-.39.74-.11,1.47-.22,2.2-.31l1.97-.24q.99-.12,1.98-.21c.43-.05.86-.09,1.3-.12q1.695-.15,3.39-.24c1.41-.09,2.82-.15,4.24-.18.14-.01.29-.01.43-.01.86-.02,1.72-.03,2.59-.03s1.74.01,2.61.03a1.62,1.62,0,0,1,.22.01c.69.01,1.39.03,2.09.06.8.03,1.59.07,2.4.11.59.03,1.18.07,1.78.11.48.03.96.07,1.44.11a2.46,2.46,0,0,1,.26.02l.75.06c.25.02.5.04.75.07,1.06.1,2.13.21,3.2.33.61.07,1.22.14,1.83.22.34.04.68.08,1.02.13.31.04.62.08.93.13.2.02.4.05.61.09.38.05.75.1,1.13.16.53.07,1.06.16,1.6.25.46.07.93.15,1.4.23.73.12,1.45.25,2.18.38.4.07.81.14,1.21.22q.915.165,1.83.36c1.01.2,2.03.41,3.05.63l1.5.33c1.44.32,2.9.66,4.36,1.03.73.17,1.46.36,2.19.55.85.21,1.71.44,2.57.67,1.28.34,2.58.7,3.89,1.08.65.18,1.31.37,1.97.57s1.32.39,1.98.59c.89.26,1.78.54,2.68.82q1.635.51,3.3,1.05c1.18.38,2.36.77,3.56,1.17,1.06.36,2.12.72,3.19,1.09,1.14.39,2.29.8,3.45,1.21.42.15.83.3,1.25.44q6.72,2.415,13.86,5.22c21.2,8.32,45.36,19.2,73.97,32.41,1.09.51,2.19,1.01,3.3,1.52,1.83.85,3.69,1.71,5.56,2.58q5.985,2.775,12.25,5.69c1.03.48,2.09.97,3.15,1.46q3.15,1.455,6.38,2.97,5.82,2.7,11.87,5.51,4.02,1.86,8.13,3.77,11.715,5.43,24.31,11.22c1.03.47,2.06.94,3.1,1.42,3.1,1.43,6.25,2.86,9.44,4.32,2.13.97,4.27,1.95,6.44,2.94s4.34,1.97,6.55,2.97c1.98.9,3.97,1.8,5.99,2.72,1.34.6,2.69,1.21,4.04,1.82q11.3,5.1,21.76,10.64a340.252,340.252,0,0,1,67.64,46.64,313.178,313.178,0,0,1,51.55,58.92c.01,0,.02.02.02.02.67.98,1.33,1.97,1.97,2.96a.561.561,0,0,1,.1.15q7.65,11.58,14.02,23.38a.01.01,0,0,1,.01.01C2801.7,594.18,2807.27,670.45,2807.27,711.83Z" fill="#fff7cf"/>
        <path id="Tracé_490" data-name="Tracé 490" d="M2269.113,327.528l-57.129-7.791,37,42.2Z" fill="#edba5f"/>
        <path id="Tracé_491" data-name="Tracé 491" d="M2807.27,711.83a41.5,41.5,0,0,1-1.4,10.59c-3.67,13.93-14.26,26.72-28,38.02a213.769,213.769,0,0,1-30.47,20.52q-5.01,2.835-10.06,5.46a434.416,434.416,0,0,1-51.32,22.28h-43.76c9.65-7.06,17.81-17.5,24.28-29.03,14.88-26.49,20.87-58.76,15.72-69.13-4.47-8.98-12.4-7.22-22.64-3.37-12.44,4.68-28.27,12.45-45.37,7.7-24.96-6.94-53.95-50.67-49.91-82.4a34.661,34.661,0,0,1,9.7-20.68,39.717,39.717,0,0,1,4.58-3.91,62.467,62.467,0,0,1,12.28-6.94.031.031,0,0,0,.02-.01q.375-.18.75-.33c12.82-5.51,28.6-8.84,43.38-11.85a.36.36,0,0,1,.11-.02c1.76-.37,3.51-.72,5.23-1.07,2.6-.53,5.15-1.05,7.63-1.59,2.72-.59,5.36-1.17,7.88-1.79a.12.12,0,0,1,.08-.02c10.5-2.56,18.98-5.52,23.25-9.87a9.62,9.62,0,0,0,2.53-10.13c-3.98-13.74-22.27-16.81-43.29-15.96-20.03.81-42.54,5.19-57.53,7.3-30.72,4.33,1.29-68.38-31.06-75.34s-28.02,112.78-43.41,128.18c-1.82,1.81-5.27,2.84-9.98,3.2a1.077,1.077,0,0,1-.15-.08.746.746,0,0,1-.12-.07.482.482,0,0,0-.07-.03,2.538,2.538,0,0,0-.28-.16.95.95,0,0,0-.17-.1l-.27-.15a2.007,2.007,0,0,1-.2-.11l-.45-.24c-.06-.03-.12-.07-.19-.1-.09-.05-.19-.1-.29-.15a1.148,1.148,0,0,0-.19-.1c-.01,0-.01-.01-.02-.01-.09-.06-.2-.1-.29-.16a.357.357,0,0,1-.09-.04.407.407,0,0,0-.09-.05,3.168,3.168,0,0,1-.32-.16c-.07-.03-.14-.07-.2-.1-.1-.05-.21-.1-.31-.15-.08-.04-.15-.08-.23-.12s-.17-.08-.25-.12-.13-.06-.2-.09c-.02-.01-.05-.03-.07-.04-.09-.04-.17-.08-.25-.12-.1-.04-.19-.09-.29-.13a.572.572,0,0,0-.07-.04c-.22-.1-.45-.21-.67-.31l-.33-.15a1.621,1.621,0,0,0-.19-.09l-.33-.15a2.911,2.911,0,0,0-.31-.14c-.08-.04-.18-.08-.27-.12h-.01l-.24-.12c-.12-.05-.24-.1-.35-.15a2.285,2.285,0,0,0-.23-.1c-.11-.05-.22-.1-.34-.15l-.27-.12c-.08-.04-.17-.07-.25-.11s-.19-.08-.28-.11a.3.3,0,0,0-.08-.04c-.33-.15-.67-.29-1.01-.43-.15-.06-.3-.13-.45-.19-.1-.04-.21-.09-.32-.13-.09-.04-.18-.08-.27-.11-.12-.05-.24-.1-.35-.15-.09-.03-.18-.07-.27-.11-.11-.04-.23-.09-.34-.14s-.23-.09-.35-.14c-.09-.04-.19-.07-.28-.11a1.926,1.926,0,0,0-.22-.08.534.534,0,0,0-.11-.05,2.343,2.343,0,0,0-.28-.11c-.13-.06-.26-.11-.4-.16a.686.686,0,0,0-.13-.05c-.16-.07-.32-.13-.49-.2l-.63-.24a2.465,2.465,0,0,1-.24-.1c-.15-.05-.29-.11-.43-.16s-.25-.1-.37-.15a2.317,2.317,0,0,1-.24-.09c-.13-.05-.26-.09-.38-.14s-.25-.09-.37-.14a.886.886,0,0,0-.15-.05,1.088,1.088,0,0,0-.23-.09c-.06-.03-.12-.05-.19-.08a.564.564,0,0,1-.12-.04.359.359,0,0,0-.11-.04,2.359,2.359,0,0,0-.24-.09,2.465,2.465,0,0,0-.24-.1c-.15-.05-.29-.1-.44-.16a2,2,0,0,1-.26-.1c-.14-.05-.29-.1-.43-.16h-.02c-.2-.07-.4-.15-.6-.22a.145.145,0,0,0-.07-.02c-.17-.07-.35-.14-.53-.2-.04-.02-.07-.03-.11-.05-.12-.04-.22-.08-.33-.11a.421.421,0,0,0-.1-.04c-.1-.04-.2-.07-.3-.11-.19-.07-.39-.14-.59-.21a.035.035,0,0,0-.02-.01c-.17-.06-.34-.12-.51-.19-.12-.04-.24-.08-.37-.13-.06-.02-.12-.04-.19-.06-.05-.02-.11-.04-.16-.06-.11-.04-.21-.08-.32-.12-.13-.05-.27-.09-.4-.14-.09-.03-.18-.06-.27-.1-.8-.28-1.61-.57-2.43-.86a1.067,1.067,0,0,1-.19-.07c-.22-.07-.43-.15-.64-.22-.01,0-.02-.01-.03-.01-.68-.24-1.36-.47-2.05-.71a1.56,1.56,0,0,0-.23-.08c-.87-.3-1.74-.6-2.62-.9l-.14-.05c-.13-.05-.26-.09-.39-.14-.17-.05-.33-.11-.5-.17-.93-.32-1.88-.64-2.82-.96-.37-.12-.74-.25-1.1-.37l-2.04-.69c-.17-.06-.35-.12-.52-.18l-.9-.3c-.3-.1-.6-.21-.9-.31q0,.015-.03,0c-.74-.25-1.46-.5-2.21-.76-.44-.15-.89-.3-1.33-.45-.16-.06-.33-.11-.49-.17a1.18,1.18,0,0,1-.2-.07c-.13-.04-.27-.09-.4-.13q-2.5-.855-5.03-1.72h-.02c-.02-.01-.05-.02-.07-.03-.22-.07-.43-.15-.64-.22-.03-.01-.07-.02-.1-.03v-.01c-.1-.03-.19-.06-.29-.1-.17-.05-.34-.11-.51-.17-.06-.02-.11-.04-.17-.06l-1.56-.54a1.227,1.227,0,0,0-.14-.05c-.27-.1-.53-.19-.8-.28l-.04-.01c-.23-.08-.46-.16-.68-.24-.02-.01-.04-.01-.06-.02-.22-.08-.44-.16-.66-.23a1.345,1.345,0,0,0-.18-.07l-.44-.15c-.15-.05-.29-.11-.44-.16-.09-.03-.18-.06-.26-.09-.23-.08-.44-.16-.67-.24l-.09-.03c-.26-.09-.52-.18-.77-.28a.436.436,0,0,1-.05-.01c-.23-.08-.46-.17-.69-.25-.08-.03-.17-.06-.25-.09-.13-.05-.26-.09-.39-.14l-.18-.06c-.05-.02-.11-.04-.18-.06-.02-.01-.05-.02-.07-.03-.16-.06-.33-.12-.49-.18h-.01c-.63-.23-1.27-.46-1.9-.69-.1-.04-.2-.08-.31-.12l-.42-.15-.39-.15c-.16-.05-.31-.11-.47-.17l-.27-.1c-.16-.06-.34-.12-.51-.19-.12-.04-.24-.09-.36-.13l-2.31-.87-.24-.09c-.18-.07-.36-.14-.55-.21a.69.69,0,0,0-.08-.03c-.06-.03-.12-.05-.18-.08-.18-.06-.35-.13-.53-.2l-.24-.09c-.16-.06-.33-.13-.49-.19h-.01c-.02-.01-.05-.02-.07-.03a.485.485,0,0,0-.11-.04.467.467,0,0,0-.1-.05c-.17-.06-.33-.12-.5-.19-.12-.05-.24-.09-.36-.14s-.22-.09-.33-.13c-.14-.06-.27-.11-.4-.16-.51-.2-1.02-.4-1.52-.61-.02,0-.05-.02-.07-.02-.23-.1-.46-.19-.69-.29-.06-.02-.11-.04-.16-.06-.19-.08-.38-.15-.57-.23-.09-.04-.19-.08-.28-.12-.16-.06-.32-.13-.48-.19a2.465,2.465,0,0,0-.24-.1c-.18-.08-.37-.16-.56-.24-.06-.02-.11-.05-.17-.07-.2-.08-.4-.16-.59-.25-.05-.02-.11-.04-.16-.06-.16-.07-.33-.14-.5-.21a2.126,2.126,0,0,1-.22-.1.142.142,0,0,1-.06-.02c-.17-.07-.34-.15-.5-.22-.3-.13-.6-.26-.89-.39a3.463,3.463,0,0,1-.34-.14c-.12-.06-.24-.11-.35-.16s-.23-.1-.34-.15c-.14-.06-.28-.12-.41-.18l-.27-.12c-.14-.06-.29-.13-.44-.19-.09-.05-.18-.09-.27-.13-.14-.06-.28-.13-.43-.19-.06-.03-.12-.05-.18-.08-.03-.02-.06-.03-.09-.05-.14-.06-.29-.13-.44-.2a2.526,2.526,0,0,1-.24-.11c-.22-.1-.45-.21-.67-.31-14.22-6.67-31.73-17.74-47.69-27.62H2363c-1.3-.82-2.59-1.61-3.86-2.39-.73-.45-1.45-.9-2.17-1.35l-.01-.01c-1.74-1.05-3.44-2.1-5.12-3.11-2.65-1.6-5.22-3.12-7.67-4.53-3.85-2.22-7.42-4.17-10.61-5.72-5.07-2.48-9.17-3.96-11.86-3.96h-.36c-.03,0-.06.01-.1.01a.612.612,0,0,0-.13.01h-.08c-.1.01-.2.02-.3.02a.127.127,0,0,1-.06.01l-.26.03a.376.376,0,0,0-.1.01c-.02,0-.05.01-.08.01-.07.01-.14.01-.21.02-.01,0-.03.01-.04.01-.11.01-.22.03-.33.05h-.01c-.03,0-.06.01-.08.01-.11.02-.21.03-.32.05a.434.434,0,0,1-.05.01c-.12.02-.25.04-.37.07a.358.358,0,0,0-.1.02c-.09.01-.19.03-.29.05l-.12.03c-.12.02-.24.04-.37.07a.01.01,0,0,0-.01.01c-.13.02-.26.05-.39.08h-.01c-.02.01-.04.01-.06.02a.236.236,0,0,0-.08.02.5.5,0,0,0-.12.02c-.58-12.26,10.53-19.25,20.01-19.25a19.655,19.655,0,0,1,6.5,1.46,117.879,117.879,0,0,1,13.54,6.53c.99.54,1.99,1.07,2.99,1.61.03.02.06.03.1.06,14.56,7.81,28.59,14.81,25.34-3.6-.96-5.46-1.06-9.34-.41-12.21a10.029,10.029,0,0,1,5.37-6.95c7.36-4.16,21.1-5.04,37.58-21.52,27.77-27.77-13.11-107.33-35.62-122.05s-27.7,10.39-90.02,16.45c-3.68.36-7.17.64-10.47.86-48.02,3.13-57.31-7.91-58.57-9.87a.01.01,0,0,1-.01-.01v-.03a2.1,2.1,0,0,1,.02-.25c.01-.4.04-.79.07-1.19s.05-.8.08-1.2l.19-2.25c.03-.32.06-.64.1-.96v-.06c.04-.32.08-.65.11-.97,0-.01.01-.02.01-.03l.12-.99v-.02c.03-.28.08-.56.12-.84a.771.771,0,0,1,.02-.15v-.04c.05-.33.09-.66.14-.99a.06.06,0,0,0,.01-.04.037.037,0,0,1,.01-.03c.04-.32.09-.64.14-.96a.127.127,0,0,0,.01-.06c.05-.32.11-.65.16-.97.01-.03.01-.06.02-.09l.09-.48a4.54,4.54,0,0,1,.09-.51.127.127,0,0,1,.01-.06l.18-.99c0-.01,0-.01.01-.02,0-.03.01-.06.01-.08.04-.16.07-.32.1-.48s.06-.32.1-.47v-.02a.5.5,0,0,0,.02-.12c.02-.07.03-.14.05-.21v-.01c.05-.25.11-.5.16-.76.01-.04.02-.07.03-.1.07-.34.14-.67.22-1,.01-.04.02-.09.03-.13.07-.32.15-.64.23-.97a1.045,1.045,0,0,1,.04-.17c.08-.33.16-.65.24-.98.01-.05.02-.09.03-.14.07-.27.15-.56.22-.84.01-.06.03-.11.04-.17a.573.573,0,0,0,.04-.14c.09-.34.18-.68.28-1.03.01-.04.02-.09.03-.13l.3-1.05.03-.12a1.863,1.863,0,0,1,.07-.22c.08-.29.16-.57.25-.86.01-.04.02-.08.03-.11.11-.36.22-.73.34-1.1l.03-.12c.12-.37.23-.73.35-1.1.01-.05.03-.09.04-.14.12-.37.24-.74.37-1.11a.5.5,0,0,1,.04-.13c.12-.38.25-.76.38-1.14a.564.564,0,0,1,.04-.12c.13-.39.27-.79.41-1.18a.705.705,0,0,1,.02-.07c.14-.41.29-.82.44-1.24.01-.02.02-.05.03-.07.08-.23.16-.46.25-.69.07-.19.14-.38.21-.58.01,0,.01-.01.01-.02.33-.88.67-1.78,1.03-2.69.3-.78.62-1.54.97-2.29a55.8,55.8,0,0,1,7.09-11.67c6.74-8.61,15.39-14.97,22.97-19.41a106.271,106.271,0,0,1,12.18-6.1c3.36-1.42,5.47-2.08,5.47-2.08.72-.28,1.45-.56,2.17-.82q2.895-1.08,5.76-2.02c.81-.27,1.62-.53,2.42-.77.27-.09.53-.17.8-.24.62-.2,1.25-.38,1.87-.56.5-.14,1.01-.28,1.52-.42q.66-.2,1.32-.36c.44-.12.88-.23,1.32-.34,3.32-.85,6.62-1.55,9.93-2.11.83-.14,1.64-.27,2.47-.39.74-.11,1.47-.22,2.2-.31l1.97-.24q.99-.12,1.98-.21c.43-.05.86-.09,1.3-.12q1.695-.15,3.39-.24c1.41-.09,2.82-.15,4.24-.18.14-.01.29-.01.43-.01.86-.02,1.72-.03,2.59-.03s1.74.01,2.61.03a1.62,1.62,0,0,1,.22.01c.69.01,1.39.03,2.09.06.8.03,1.59.07,2.4.11.59.03,1.18.07,1.78.11.48.03.96.07,1.44.11a2.46,2.46,0,0,1,.26.02l.75.06c.25.02.5.04.75.07,1.06.1,2.13.21,3.2.33.61.07,1.22.14,1.83.22.34.04.68.08,1.02.13.31.04.62.08.93.13.2.02.4.05.61.09.38.05.75.1,1.13.16.53.07,1.06.16,1.6.25.46.07.93.15,1.4.23.73.12,1.45.25,2.18.38.4.07.81.14,1.21.22q.915.165,1.83.36c1.01.2,2.03.41,3.05.63l1.5.33c1.44.32,2.9.66,4.36,1.03.73.17,1.46.36,2.19.55.85.21,1.71.44,2.57.67,1.28.34,2.58.7,3.89,1.08.65.18,1.31.37,1.97.57s1.32.39,1.98.59c.89.26,1.78.54,2.68.82q1.635.51,3.3,1.05c1.18.38,2.36.77,3.56,1.17,1.06.36,2.12.72,3.19,1.09,1.14.39,2.29.8,3.45,1.21.42.15.83.3,1.25.44q6.72,2.415,13.86,5.22c21.2,8.32,45.36,19.2,73.97,32.41,1.09.51,2.19,1.01,3.3,1.52,1.83.85,3.69,1.71,5.56,2.58q5.985,2.775,12.25,5.69c1.03.48,2.09.97,3.15,1.46q3.15,1.455,6.38,2.97,5.82,2.7,11.87,5.51,4.02,1.86,8.13,3.77,11.715,5.43,24.31,11.22c1.03.47,2.06.94,3.1,1.42,3.1,1.43,6.25,2.86,9.44,4.32,2.13.97,4.27,1.95,6.44,2.94s4.34,1.97,6.55,2.97c1.98.9,3.97,1.8,5.99,2.72,1.34.6,2.69,1.21,4.04,1.82q11.3,5.1,21.76,10.64a340.252,340.252,0,0,1,67.64,46.64,313.178,313.178,0,0,1,51.55,58.92c.01,0,.02.02.02.02.67.98,1.33,1.97,1.97,2.96a.561.561,0,0,1,.1.15q7.65,11.58,14.02,23.38a.01.01,0,0,1,.01.01C2801.7,594.18,2807.27,670.45,2807.27,711.83Z" fill="#fc6"/>
        <path id="Tracé_492" data-name="Tracé 492" d="M2293.781,291.173s-42.846-24.585-75.953-15.862l39.953,46.02Z" fill="#fc6"/>
        <path id="Tracé_493" data-name="Tracé 493" d="M2282.044,301.286c-5.09-5.321-34.15-33.9-64.216-25.975l39.953,46.02Z" fill="#fc7575"/>
        <path id="Tracé_494" data-name="Tracé 494" d="M2627.064,447.753s-29.746,25.328-4.42,39.7,67.084,44.5,67.084,13.692S2650.65,431.325,2627.064,447.753Z" fill="#fb8603"/>
        <path id="Tracé_495" data-name="Tracé 495" d="M2736.861,624.058S2664.4,591.5,2634.282,609.984s3.081,9.928,32.857,39.7,62.62,53.084,77.351,38.355S2736.861,624.058,2736.861,624.058Z" fill="#fb8603"/>
        <g id="Groupe_185" data-name="Groupe 185">
          <path id="Tracé_496" data-name="Tracé 496" d="M2485.743,342.1s-25.33,50.212,0,64.586,30.8-17.8,67.765,0c27.572,13.274,67.713,6.746,72.979-17.885q-10.47-5.535-21.755-10.637c-43.311-19.532-79.519-36.6-110.514-50.913A22.677,22.677,0,0,0,2485.743,342.1Z" fill="#fb8603"/>
          <path id="Tracé_497" data-name="Tracé 497" d="M2320.087,307.2c24.187,2.738,5.933-20.536,44.265-5.475a59.3,59.3,0,0,0,55.9-6.884c-53.36-20.944-88-25.74-127.547-10.982C2296.9,293.139,2305.218,305.517,2320.087,307.2Z" fill="#fb8603"/>
        </g>
        <path id="Tracé_498" data-name="Tracé 498" d="M2542.4,690.039a146.977,146.977,0,0,1,8.185-46.9c15.812-45.445,53.669-61.457,102.6-68.139,26.5-3.645,56.076,1.614,75.531,20.21-22.451-13.592-48.2-15.279-74.046-10.73-69.414,13-88.943,36.014-103.432,75.588A245.868,245.868,0,0,0,2542.4,690.039Z" fill="#e8e0ff"/>
        <path id="Tracé_499" data-name="Tracé 499" d="M2307.528,480.732c22.978,3.01,70.428,13.625,75.356,14.96,21.673,6.5,50.357,23.1,68.175,36.486-19.333-7.683-40.771-17.615-52.83-22.337C2374.747,500.407,2346.548,496.991,2307.528,480.732Z" fill="#e8e0ff"/>
        <path id="Tracé_500" data-name="Tracé 500" d="M2252.214,401.891c-5.951-10.709,7.835-25.086,26.8-23.889C2268.527,383.785,2253.163,387.711,2252.214,401.891Z" fill="#fc6"/>
        <path id="Tracé_501" data-name="Tracé 501" d="M2241.519,453.088c1.091-5.5,3.615-16.116,3.615-16.116-1.369,0-11.7,7.406-11.7,7.406A46.42,46.42,0,0,0,2241.519,453.088Z" fill="#fc6"/>
      </g>
      <path id="Tracé_502" data-name="Tracé 502" d="M2243.09,630.2" fill="none" stroke="#000" stroke-miterlimit="10" stroke-width="1"/>
      <path id="Tracé_503" data-name="Tracé 503" d="M2244.09,650.2s7-7,8-13-9-18-9-18,20-3,22-9-3-20-13-21c0,0,2-10-7-8s-19,9-14,13a20.942,20.942,0,0,0-1,16s-18,5-10,20S2244.09,650.2,2244.09,650.2Z" fill="#b7443f"/>
      <path id="Tracé_504" data-name="Tracé 504" d="M2243.427,627.014a28.62,28.62,0,0,1,1.163-3.312s.246.061.644.138c-1.214-2.542-3.644-4.435-3.644-7.138C2240.73,620.139,2242.82,623.576,2243.427,627.014Z" fill="#feb27b"/>
      <path id="Tracé_505" data-name="Tracé 505" d="M2258.59,603.7c-7,8-14,8-14,8,1,0,5-4,5-4-3,2-10,1-10,1a22.454,22.454,0,0,1-7,16s14,18,11,13c-1.837-3.06-1.05-7.612-.163-10.688-.607-3.438-2.7-6.875-1.837-10.312,0,2.7,2.43,4.6,3.644,7.138,1.213.234,3.85.615,5.356-.138a59.226,59.226,0,0,0,6-4h1a43.311,43.311,0,0,1,1-5l.059-.08C2261.55,610.609,2258.59,603.7,2258.59,603.7Z" fill="#feb27b"/>
      <path id="Tracé_506" data-name="Tracé 506" d="M2146.35,808.7h-23.69c-.05-.58-.07-1.24-.07-2,0-3.61,2.6-7.73,4.05-9.75.56-.78.95-1.25.95-1.25l5-1a21.056,21.056,0,0,0,.68,4.91,10.489,10.489,0,0,0,1.32,3.09c2,3,7,3,9,4A16.023,16.023,0,0,1,2146.35,808.7Z" fill="#203967"/>
      <path id="Tracé_507" data-name="Tracé 507" d="M2235.59,808.7H2210.6a60.287,60.287,0,0,1,3.43-9.73c.34-.78.56-1.27.56-1.27h5a22.035,22.035,0,0,0,.97,2,16.558,16.558,0,0,0,4.03,5C2227.84,807.2,2230.2,805.68,2235.59,808.7Z" fill="#203967"/>
      <path id="Tracé_508" data-name="Tracé 508" d="M2221.59,669.7s6,20,10,24l26,26c2,2,4,10,7,12a11.913,11.913,0,0,0,6,2,10.671,10.671,0,0,1-6-8,2.19,2.19,0,0,1,3,1c1,2,2,1,1-1s-3-5-5-6-20-29-21-31-4-21-6-23Z" fill="#fab283"/>
      <path id="Tracé_509" data-name="Tracé 509" d="M2235.59,662.7s4,16,8,20,34,25,34,25l8-2-5-1-14-14c-2-2-9-8-11-12s-6.5-19.25-6.5-19.25Z" fill="#ea955e"/>
      <path id="Tracé_510" data-name="Tracé 510" d="M2141.59,704.7c-1.493,4.652-2.576,14.716-3,21a148.1,148.1,0,0,0,0,20,33.633,33.633,0,0,0-8,15c-2,9-4,37-4,37l7,2s13-40,16-43,16-26,21-48l.034.064c.149-8.191.875-16.892,1.673-25.085C2159.17,687.314,2145.12,693.7,2141.59,704.7Z" fill="#f0a24f"/>
      <path id="Tracé_511" data-name="Tracé 511" d="M2199.093,692.421q-1-6.609-2-13.219a148.516,148.516,0,0,0-24.793,4.479c-.8,8.193-1.524,16.894-1.673,25.085.536.992,7.815,14.454,14.686,25.692C2191.871,721.259,2197.343,707.392,2199.093,692.421Z" fill="#e28330"/>
      <path id="Tracé_512" data-name="Tracé 512" d="M2212.59,748.7a.354.354,0,0,0,.289.053q2.334-.815-13.289-53.053l-.5-3.281c-1.75,14.971-7.222,28.838-13.783,42.037,4.74,7.753,9.284,14.446,11.28,15.244,0,0-3,11,0,21s18,29,18,29h6S2211.59,757.7,2212.59,748.7Z" fill="#f0a24f"/>
      <path id="Tracé_513" data-name="Tracé 513" d="M2205.853,666.6a27.488,27.488,0,0,1,9.576-3.351,39.361,39.361,0,0,1-3.839-16.55C2209.88,653.541,2211.087,661.839,2205.853,666.6Z" fill="#9cb1f3"/>
      <path id="Tracé_514" data-name="Tracé 514" d="M2238.09,663.688v.458c2.567-7.658,6.627-14.264,7.449-22.184-.451-1.928-.935-3.873-1.449-5.76a61.6,61.6,0,0,0-8-18s-2,3-5,3-59,15-77,37-20,42-20,42,7,18,53-2c0,0,4-4,4-9,0,0,0,.515.02,1.256,1.524-4.85,5.338-8.3,7.525-12.527.307-4.081,1.483-7.872,4.455-9.729.966-.6,1.887-1.132,2.763-1.6,5.234-4.764,4.027-13.062,5.737-19.9a39.361,39.361,0,0,0,3.839,16.55c.426-.047.661-.05.661-.05l7,13s15-5,15-10v-.5h-.5c.157-.525.327-1.042.5-1.556Z" fill="#afc3fe"/>
      <path id="Tracé_515" data-name="Tracé 515" d="M2192.09,696.2c1,0,8-2,8-3,0-.628-1.974-8.367-1.455-15.271-2.187,4.226-6,7.677-7.525,12.527C2191.163,692.471,2191.359,696.2,2192.09,696.2Z" fill="#9eaff6"/>
      <path id="Tracé_516" data-name="Tracé 516" d="M2238.09,665.2s8-1,11-5c0,0-1.374-8.923-3.551-18.24-.822,7.92-4.882,14.526-7.449,22.184Z" fill="#9eaff6"/>
      <path id="Tracé_517" data-name="Tracé 517" d="M2238.09,664.146c-.173.514-.343,1.031-.5,1.556h.5v-1.556Z" fill="#afc3fe"/>
      <path id="Tracé_518" data-name="Tracé 518" d="M2341.86,808.7h-27.61a8.522,8.522,0,0,1-.66-2,28.879,28.879,0,0,1-.02-9.88,1.129,1.129,0,0,1,.02-.12h13a2.36,2.36,0,0,0-.18.87c-.06,1.34.76,3.99,7.18,6.13C2337.98,805.16,2340.47,807.1,2341.86,808.7Z" fill="#1f3761"/>
      <path id="Tracé_519" data-name="Tracé 519" d="M2373.91,808.7h-24.97a6.052,6.052,0,0,1-1.39-2.98,23.939,23.939,0,0,1-.29-6.76,20.667,20.667,0,0,1,.29-2.26h11.71a2.2,2.2,0,0,0-.16,1.07c.08,1.28,1.11,3.46,6.48,5.24C2370.7,804.72,2372.94,807.14,2373.91,808.7Z" fill="#1f3761"/>
      <path id="Tracé_520" data-name="Tracé 520" d="M2314.59,741.7c0,9-3,55-3,55l17,1s2.893-13.382,5.418-24.922c-9.574-12.107-13.344-27.117-18.089-41.64A66,66,0,0,0,2314.59,741.7Z" fill="#f0a24f"/>
      <path id="Tracé_521" data-name="Tracé 521" d="M2340.59,706.7h-19s-3.64,13.522-5.671,24.438c4.745,14.523,8.515,29.533,18.089,41.64,1.672-7.646,3.183-14.484,3.582-16.078,1-4-1-26,1-36S2340.59,706.7,2340.59,706.7Z" fill="#d98437"/>
      <path id="Tracé_522" data-name="Tracé 522" d="M2363.59,709.7s2,22,0,35-5,51-4,53c0,0-15,2-15,1s-6.591-39.08-6.8-43.54l-4.2-55.46Z" fill="#f0a24f"/>
      <path id="Tracé_523" data-name="Tracé 523" d="M2358.59,517.7a39.967,39.967,0,0,1,4,30h-3c-1,0-1,12-1,12l-16-5s1-6,0-10S2358.59,517.7,2358.59,517.7Z" fill="#feb27b"/>
      <path id="Tracé_524" data-name="Tracé 524" d="M2351.59,544.7s2-3,1-5-3-6,0-6a12.133,12.133,0,0,1,5,1s3-6,1-12c0,0,4-3,4-5s-3-9-18-5-16,8-16,11,12,23,15,23S2351.59,544.7,2351.59,544.7Z" fill="#1f3761"/>
      <path id="Tracé_525" data-name="Tracé 525" d="M2369.59,601.7c-5-1-9-4-14-5,4.052,4.053,8.763,8.761,14.662,10.933C2369.855,604.086,2369.59,601.7,2369.59,601.7Z" fill="#a3ace9"/>
      <path id="Tracé_526" data-name="Tracé 526" d="M2682,808.7h-35.23c2.25-2.04,5.15-4.44,6.82-5,3-1,15,2,16-10a12.892,12.892,0,0,1,.3-1.99c2.03-8.8,11.7-.01,11.7-.01s.14,1.41.29,3.48C2682.16,799,2682.47,805.07,2682,808.7Z" fill="#1f3761"/>
      <path id="Tracé_527" data-name="Tracé 527" d="M2729.59,808.7c0-1,7-8,8-10,.55-1.11.19-7.13-.25-12.28-.09-1.08-.19-2.11-.28-3.06-.25-2.7-.47-4.66-.47-4.66h8s1.01.76,2.52,2.01c.09.08.19.16.29.25,1.46,1.22,3.32,2.87,5.19,4.74,4,4,3,6,3,6s-7,4-7,7-3,9-3,9-5.02.63-9.44,1Z" fill="#1f3761"/>
      <path id="Tracé_528" data-name="Tracé 528" d="M2737.59,714.7c-2.482-4.962-11.115-24.279-15.725-33.644a295.939,295.939,0,0,0-16.639,48.188c3.218,5.558,6.5,11.294,9.364,16.456,10,18,22,39,24,39s9-3,10-6S2740.59,720.7,2737.59,714.7Z" fill="#b5443c"/>
      <path id="Tracé_529" data-name="Tracé 529" d="M2719.59,676.7c-3-5-8-22-8-22l-31.75,11.75,9.75,36.25s7.631,12.719,15.636,26.544a295.939,295.939,0,0,1,16.639-48.188C2720.9,679.1,2720.108,677.567,2719.59,676.7Z" fill="#93322c"/>
      <path id="Tracé_530" data-name="Tracé 530" d="M2645.676,507.83a15.531,15.531,0,0,1,.886,1.554,31.762,31.762,0,0,0,9.028-6.682C2652.179,504.407,2649.492,507.556,2645.676,507.83Z" fill="#f19c5e"/>
      <path id="Tracé_531" data-name="Tracé 531" d="M2659.59,500.7s2-2,1-10-12-16-12-16l-16,6s3,23,6,25a14.329,14.329,0,0,0,7,2l.086.128c3.816-.274,6.5-3.423,9.914-5.128a31.762,31.762,0,0,1-9.028,6.682,16.7,16.7,0,0,1,1.028,13.318c-3,8,15-13,15-13A16.7,16.7,0,0,0,2659.59,500.7Z" fill="#feb27b"/>
      <path id="Tracé_532" data-name="Tracé 532" d="M2621.59,627.082s-.72.8-1.81,1.9c-2.31,2.33-6.27,6.04-8.57,6.47-3.37.63-6.24-1-6.62-2.75a.59.59,0,0,1-.02-.14c-.16-1.84,3.71-6.37,6.27-6.61.2-.02.42-.06.67-.11a37.573,37.573,0,0,0,5.52-1.85c2.14-.87,3.94-1.67,3.94-1.67Z" fill="#feb27b"/>
      <path id="Tracé_533" data-name="Tracé 533" d="M2571.09,595.452v5.37a10.545,10.545,0,0,1-3.05,1.85h-.01a6.825,6.825,0,0,1-3.82.41c-3.62-.76-9.5-8.63-8.24-10a6.751,6.751,0,0,1,6.28-2.23,10.541,10.541,0,0,1,1.84.35c.33.09.65.19.96.29a15.112,15.112,0,0,1,2.61,1.19A13.163,13.163,0,0,1,2571.09,595.452Z" fill="#feb27b"/>
      <path id="Tracé_534" data-name="Tracé 534" d="M2613.08,624.322l-1.57,1.52c-.25.05-.47.09-.67.11-2.56.24-6.43,4.77-6.27,6.61l-.6.58-2.32-2.25,1.94-1.93-10.31-11.64-5.75,5.88-3.63-3.06,3.48-3.28,10.39-9.81,2.82-2.66,3,2.87-6,6.25,10,11,3.25-2.69Z" fill="#333"/>
      <path id="Tracé_535" data-name="Tracé 535" d="M2611.51,625.842l-6.94,6.72c-.16-1.84,3.71-6.37,6.27-6.61C2611.04,625.932,2611.26,625.892,2611.51,625.842Z" fill="#333"/>
      <path id="Tracé_536" data-name="Tracé 536" d="M2597.77,607.052l-10.39,9.81c-2.09-2.14-7.87-8.03-14.19-14.58,4.57-.33,11.44-.85,18.73-1.42C2594.62,603.712,2596.73,605.942,2597.77,607.052Z" fill="#e6e8ef"/>
      <path id="Tracé_537" data-name="Tracé 537" d="M2574.98,583.272s-1.89-.19-4.64,3.81a13.071,13.071,0,0,1-5.29,4.41c-.31-.1-.63-.2-.96-.29a10.541,10.541,0,0,0-1.84-.35c-6.12-6.48-10.87-11.73-10.78-12.27.11-.64,1.46-2.29,3.17-3.93a32.23,32.23,0,0,1,2.76-2.38c1.5-1.12,2.93-1.91,3.81-1.82C2562.19,570.552,2568.12,576.312,2574.98,583.272Z" fill="#babdc7"/>
      <path id="Tracé_538" data-name="Tracé 538" d="M2591.92,600.862c-7.29.57-14.16,1.09-18.73,1.42-.7-.72-1.4-1.45-2.1-2.18-1.74-1.8-3.49-3.63-5.19-5.41-.83-.88-1.66-1.74-2.46-2.59l-1.19-1.25a10.541,10.541,0,0,1,1.84.35c.33.09.65.19.96.29a13.071,13.071,0,0,0,5.29-4.41c2.75-4,4.64-3.81,4.64-3.81,1.99,2.02,4.05,4.14,6.1,6.26C2585,593.592,2588.84,597.622,2591.92,600.862Z" fill="#e6e8ef"/>
      <path id="Tracé_539" data-name="Tracé 539" d="M2557.4,572.272a32.23,32.23,0,0,0-2.76,2.38l-1.72-2.12v-2.09h2.87Z" fill="#333"/>
      <line id="Ligne_1" data-name="Ligne 1" x1="1.12" y1="1.38" transform="translate(2554.64 574.652)" fill="none"/>
      <line id="Ligne_2" data-name="Ligne 2" x1="1.19" y1="1.35" transform="translate(2557.4 572.272)" fill="none"/>
      <path id="Tracé_540" data-name="Tracé 540" d="M2540.59,557.869l13.166,13.75" fill="none" stroke="#333" stroke-miterlimit="10" stroke-width="1"/>
      <path id="Tracé_541" data-name="Tracé 541" d="M2565.05,591.492a9.668,9.668,0,0,1-1.61.61" fill="none"/>
      <path id="Tracé_542" data-name="Tracé 542" d="M2653.59,576.7c-4,7-12,9-17,14l.979,4.895C2643.575,589.632,2651.8,584.774,2653.59,576.7Z" fill="#a3ace9"/>
      <path id="Tracé_543" data-name="Tracé 543" d="M2667.59,513.7c9.78,2.667,10.869,14.818,16.611,23.806-3.641-9.89-6.451-17.1-7.611-19.806-3-7-14-11-14-11s-11,10-13,11-6,15-6,19a10.731,10.731,0,0,1-.972,3.093C2651.676,531.169,2653.122,510.808,2667.59,513.7Z" fill="#a3ace9"/>
      <path id="Tracé_544" data-name="Tracé 544" d="M2661.59,496.7a13.626,13.626,0,0,0,3-6c1-4,3-16,0-20s-21-5-29,0-10,9-7,13,3,5,7,3,8-7,11-4l7,7s4-5,4-3v6S2659.59,496.7,2661.59,496.7Z" fill="#1f3761"/>
      <path id="Tracé_545" data-name="Tracé 545" d="M2656.59,661.7s3,52,6,79,3,53,11,54,12,3,14-11,8-46,8-50,6-50,6-67Z" fill="#b5443c"/>
      <path id="Tracé_546" data-name="Tracé 546" d="M2720.59,658.7a75.127,75.127,0,0,1-6.07,5.27,73.606,73.606,0,0,1-13.08,8.3,41.429,41.429,0,0,1-9.85,3.43c-2.77.55-5.74,1.21-8.76,1.88-9.5,2.11-19.46,4.35-25,4-2.25-.14-3.77-.7-4.24-1.88-2-5-13-65-13-65s-12,13-16,14a11.7,11.7,0,0,1-4.81.28c-1.36-.23-2.19-.75-2.19-1.28a34.91,34.91,0,0,0-.56-3.71c-.23-1.23-.44-2.29-.44-2.29s19-22,21-26l-.02-.11c6.01-5.96,14.23-10.82,16.02-18.89-4,7-12,9-17,14,0,0-8,6-11,7-1.63.54-18.53,1.97-33.67,3.16-7.29.57-14.16,1.09-18.73,1.42-2.54.2-4.37.33-5.16.39l-.44.03s-2.25-5.06-1.69-8.01a2.278,2.278,0,0,1,1.69-1.99c.02-.01.05-.01.07-.02,1.38-.34,6.67-1.54,13.42-3.15,14.86-3.55,36.77-9.09,39.51-11.83,3.46-3.46,18.12-28.57,22.03-37.91,9.06-8.62,10.5-28.98,24.97-26.09,9.78,2.67,10.87,14.82,16.61,23.81,5.78,15.68,13.64,38.11,20.39,60.19C2715.59,633.7,2720.59,658.7,2720.59,658.7Z" fill="#afc3fe"/>
      <path id="Tracé_547" data-name="Tracé 547" d="M2451.423,595.369c17.006.2,25-9.5,25-23.75s-12.667-26.584-25-26.084-24,12.334-23.833,26.084S2437.59,595.2,2451.423,595.369Z" fill="#fff"/>
      <path id="Tracé_548" data-name="Tracé 548" d="M2450.475,587.2c10.622.12,15.615-5.591,15.615-13.977s-7.912-15.644-15.615-15.35-14.99,7.258-14.886,15.35S2441.835,587.1,2450.475,587.2Z" fill="#d5d8e2"/>
      <g id="Groupe_187" data-name="Groupe 187">
        <path id="Tracé_549" data-name="Tracé 549" d="M2424.39,687.3c-19.29.005-44.548-41.531-50.768-75.738-.545-2.994-1.006-6.242-1.494-9.681-1.8-12.7-4.047-28.494-12.63-48.772a178.231,178.231,0,0,0-7.911-16.316l3.505-1.926a181.882,181.882,0,0,1,8.089,16.684c8.787,20.757,11.071,36.842,12.907,49.767.483,3.4.939,6.612,1.469,9.53,6.406,35.227,32.44,74.476,48.018,72.375,6.752-.9,16.455-11.334,24.338-55.9l.021-.12a162.034,162.034,0,0,0,2.256-36.044l4-.2a166.013,166.013,0,0,1-2.312,36.936l-.021.12c-6.761,38.224-15.837,57.58-27.747,59.172A12.866,12.866,0,0,1,2424.39,687.3Z" fill="#fff"/>
      </g>
      <path id="Tracé_550" data-name="Tracé 550" d="M2352.7,534.954a4.482,4.482,0,0,0,1.139,3.2c.368.408,1.025.746,1.429.374a1.015,1.015,0,0,0,.253-.475,3.376,3.376,0,0,0-.865-3.285,1.73,1.73,0,0,0-1.625-.555,1.544,1.544,0,0,0-.878,1.83,3.954,3.954,0,0,0,1.217,1.836,2.009,2.009,0,0,0,.877.588,1.415,1.415,0,0,0,1.328-.5,4.178,4.178,0,0,0,.7-1.307,2.516,2.516,0,0,0-.063-2.49,3.667,3.667,0,0,0-.658-1.138,3.157,3.157,0,0,0-2.269-.743,2.909,2.909,0,0,0-1.586.323,3.03,3.03,0,0,0-1.011,2.837,12.541,12.541,0,0,0,.223,1.77,1.459,1.459,0,0,0,.288.708c.525.581,1.5.09,2.26.291" fill="none" stroke="#fff" stroke-miterlimit="10" stroke-width="1"/>
      <path id="Tracé_551" data-name="Tracé 551" d="M2326.59,579.7c5-8,9-16,15-21,6.439-4.6,13.725,2.645,21.078,6.95a8.793,8.793,0,0,0-4.078-7.95c-5-3-18-7-18-7s1,3-2,6-29,34-28,53c.728,13.83,4.1,20.238,5.887,22.7C2316.067,614.251,2317.514,596.341,2326.59,579.7Z" fill="#a3ace9"/>
      <path id="Tracé_552" data-name="Tracé 552" d="M2441.59,587.7a17.178,17.178,0,0,0,8-3,18.406,18.406,0,0,0,4-4c1.148-1.457,3.852-4.888,3-6-.748-.976-4.067.053-6,1-1.985.972-3.59,2.386-4,2-.149-.14.007-.376,0-1-.014-1.088-.513-2.241-.842-2.233-.436.01-.1,2.041-1.158,4.233-1.023,2.123-6.791,6.532-5,5h0Z" fill="#feb27b"/>
      <path id="Tracé_553" data-name="Tracé 553" d="M2369.59,601.7c-5-1-9-4-14-5,4.05,4.05,8.76,8.76,14.66,10.93.94,8.42,2.64,23.44,3.34,29.07,1,8-3,78-3,78s4,9-29,4-29-16-30-21c-.79-3.93,3.37-41.2,5.18-56.99.5-4.3.82-7.01.82-7.01a7.207,7.207,0,0,1-1.11-1.3c-.41-18.15,1.03-36.06,10.11-52.7,5-8,9-16,15-21,6.44-4.6,13.72,2.65,21.08,6.95a7.409,7.409,0,0,1-.08,1.05s30,20,36,21,43-6,43-6a3.552,3.552,0,0,0,2,3,47.085,47.085,0,0,0,5,2s-47,19-52,19S2369.59,601.7,2369.59,601.7Z" fill="#afc3fe"/>
      <path id="Tracé_554" data-name="Tracé 554" d="M2084.93,808.28q18.855.015,37.7.02,11.625,0,23.25.01l64.8.03q12.12,0,24.25.01h.01q39.585.015,79.17.04h.01q13.74,0,27.47.01h7.1q12.51.015,25.03.01,21.15.015,42.3.02,113.22.06,226.45.11h4.48q17.535,0,35.07.02h4.39q21.6,0,43.2.02h7.89q24.885.015,49.77.02l46.76.03,143.13.06" fill="none" stroke="#000" stroke-linecap="round" stroke-miterlimit="10" stroke-width="2"/>
      <path id="Tracé_555" data-name="Tracé 555" d="M3040.5,808.513l-1025.875-.466" fill="none" stroke="#000" stroke-linecap="round" stroke-miterlimit="10" stroke-width="2"/>
      <path id="Tracé_556" data-name="Tracé 556" d="M2833.3,778.44c8.385,46.849-15.52,88.367-80.668,114.561-95.087,37.989-292.97,51.3-384.246,9.577-9.078-4.148-12.328-13.534-7.26-20.964,5.01-7.343,16.272-10.027,25.3-6.08,2.556.791,20.051,10.527,65.811,15.778,72.623,8.539,146.9,3.371,215.267-11.388,38.976-8.439,91.033-22.8,110.986-51.322,19.527-27.118,8.246-64.6-16.544-88.5-8.6-8.287-7.357-20.708,2.768-27.744,10.215-7.1,25.637-6.022,34.2,2.566C2798.915,714.925,2826.311,740.209,2833.3,778.44Z" fill="#fc6"/>
    </g>
  </g>
</svg>
