<svg xmlns="http://www.w3.org/2000/svg" width="57.075" height="59.928" viewBox="0 0 57.075 59.928">
  <g id="Groupe_4043" data-name="Groupe 4043" transform="translate(-691.017 -446.921)">
    <path id="Tracé_1627" data-name="Tracé 1627" d="M747.421,460.411c-1.569-2.995-4.492-1.141-8.485-4.457s-1.783-6.738-5.633-8.521-6.132,1.426-8.557,4.421,0,4.991-.642,8.272c-.293,1.5-4.532,6.184-9.05,10.831-4.647,4.518-9.332,8.757-10.831,9.05-3.28.642-5.277-1.782-8.272.642s-6.2,4.706-4.421,8.557,5.2,1.64,8.521,5.633,1.462,6.917,4.457,8.485,5.491.285,7.7-2.781,1.5-6.917,2.567-9.769c.5-1.343,4.895-6.068,9.4-10.692,4.625-4.507,9.35-8.9,10.693-9.4,2.852-1.069,6.7-.357,9.769-2.567S748.99,463.406,747.421,460.411Z" fill="#ffffff"/>
    <g id="Groupe_4041" data-name="Groupe 4041" transform="translate(713.3 476.08)">
      <path id="Tracé_1628" data-name="Tracé 1628" d="M809.744,549.355a13,13,0,0,1-.7,4.221q-.078-.434-.181-.868c-.024-.1-.048-.193-.072-.293-.088-.362-.189-.72-.3-1.077-.016-.056-.024-.109-.04-.157.02-.06.044-.117.064-.177.1-.237.193-.478.277-.719.04-.1.076-.2.113-.306.084-.245.165-.49.241-.74.028-.08.048-.157.076-.233.092-.322.181-.647.261-.973.02-.072.036-.149.056-.225.02-.1.048-.209.068-.318A12.391,12.391,0,0,1,809.744,549.355Z" transform="translate(-783.527 -536.222)" fill="#fff"/>
      <path id="Tracé_1629" data-name="Tracé 1629" d="M805.938,536.584c-.028.225-.056.442-.088.663-.012.072-.02.149-.032.221-.064.374-.137.744-.221,1.117-.012.072-.036.153-.052.229-.08.354-.169.708-.273,1.053-.008.032-.012.064-.02.1-.113.37-.233.736-.358,1.1a.741.741,0,0,0-.044.121c-.008-.012-.012-.028-.02-.04-.02-.06-.044-.121-.068-.177-.121-.314-.249-.623-.382-.925-.048-.109-.1-.221-.149-.326-.133-.285-.265-.567-.414-.848-.04-.076-.076-.157-.117-.233-.165-.318-.334-.627-.519-.933.125-.4.233-.8.338-1.2a.141.141,0,0,0,.008-.04c.113-.454.209-.908.289-1.367.028-.145.044-.289.072-.438.048-.31.1-.627.133-.941.024-.177.036-.354.052-.527.008-.072.016-.137.024-.205A13.27,13.27,0,0,1,805.938,536.584Z" transform="translate(-780.375 -527.551)" fill="#fff"/>
      <path id="Tracé_1630" data-name="Tracé 1630" d="M798.036,531.9c-.02.237-.032.474-.06.712-.008.084-.012.165-.02.245-.052.422-.109.84-.185,1.258-.016.109-.04.213-.056.322-.064.322-.133.639-.209.961-.028.121-.056.245-.088.366-.02.088-.048.173-.072.257-.068-.1-.141-.2-.209-.3s-.157-.225-.229-.334c-.237-.334-.482-.663-.74-.985-.044-.052-.08-.109-.125-.157-.293-.366-.6-.724-.924-1.069-.08-.092-.165-.177-.249-.265-.125-.133-.249-.273-.378-.4.088-.02.177-.048.265-.072.1-.024.213-.048.318-.076.285-.06.571-.125.864-.177.072-.012.149-.032.225-.044.358-.064.724-.117,1.085-.161.084-.008.173-.016.257-.028C797.682,531.928,797.855,531.912,798.036,531.9Z" transform="translate(-775.179 -526.899)" fill="#fff"/>
      <path id="Tracé_1631" data-name="Tracé 1631" d="M793.762,547.15a13.308,13.308,0,0,1-1.942,2.886c-.032-.261-.064-.519-.1-.78-.012-.08-.024-.157-.036-.237-.06-.354-.121-.7-.2-1.045-.04-.2-.08-.4-.129-.587a22.29,22.29,0,0,0-1.708-4.711c-.173-.354-.362-.712-.559-1.061-.06-.117-.137-.233-.2-.354-.133-.225-.265-.454-.406-.675-.089-.141-.181-.273-.269-.41-.133-.2-.265-.394-.4-.591-.1-.145-.205-.281-.31-.422-.133-.181-.273-.366-.414-.543-.109-.145-.225-.277-.342-.414-.141-.177-.285-.346-.43-.515-.121-.141-.241-.269-.37-.4-.149-.165-.3-.326-.458-.486-.125-.129-.253-.261-.382-.386-.157-.157-.322-.306-.49-.458-.129-.121-.261-.241-.394-.362-.076-.068-.149-.133-.225-.2.08-.04.161-.084.241-.121.1-.048.2-.1.305-.141.217-.1.442-.2.663-.3.088-.036.181-.076.273-.117.305-.125.619-.245.937-.354a.64.64,0,0,1,.08-.028c.241-.084.478-.157.72-.233.173.165.342.342.51.515.145.145.3.293.446.45.2.217.386.446.579.675.129.149.261.3.39.458.205.249.39.519.583.78.1.141.209.273.31.418.281.4.543.812.792,1.23.012.012.016.02.02.024a22.03,22.03,0,0,1,1.182,2.263,20.278,20.278,0,0,1,.9,2.368l0,.008a21.333,21.333,0,0,1,.816,3.63C793.746,547,793.75,547.078,793.762,547.15Z" transform="translate(-768.9 -528.221)" fill="#fff"/>
      <path id="Tracé_1632" data-name="Tracé 1632" d="M785.676,553.464a13.08,13.08,0,0,1-2.07,1.6c-.032-.225-.068-.462-.113-.72-.024-.141-.048-.277-.072-.418-.012-.06-.024-.125-.036-.185-.04-.213-.084-.414-.125-.595s-.088-.37-.137-.559c-.068-.269-.141-.531-.217-.8-.052-.181-.1-.366-.161-.543a22,22,0,0,0-.941-2.46c-.2-.438-.41-.864-.635-1.286-.036-.068-.076-.133-.117-.205q-.271-.519-.579-1.013c-.08-.137-.169-.265-.253-.394-.169-.265-.338-.527-.515-.78-.113-.157-.229-.305-.338-.462-.165-.221-.334-.446-.506-.663-.129-.161-.261-.318-.394-.474-.169-.2-.338-.406-.515-.6-.145-.157-.289-.306-.434-.454-.181-.193-.362-.382-.551-.567-.145-.145-.3-.281-.45-.422-.2-.185-.4-.37-.6-.547-.149-.125-.293-.245-.442-.374-.133-.1-.257-.217-.394-.326.076-.056.149-.113.225-.173s.173-.129.261-.193c.189-.137.382-.265.575-.4.064-.044.133-.092.2-.137.257-.173.527-.338.792-.5l.165-.1c.169-.1.334-.193.5-.285.125.1.245.209.366.314.137.121.277.237.414.362.157.137.31.289.462.438.129.125.261.249.39.378.149.153.29.31.438.466.125.129.249.261.37.394.145.161.277.33.418.495.113.137.229.269.342.414.141.169.269.35.4.523.108.137.213.277.313.418.133.189.257.382.386.571.092.137.185.269.273.4.133.221.265.442.394.663.064.121.141.229.209.35.193.342.37.691.543,1.037a21.468,21.468,0,0,1,1.64,4.53c.044.185.084.374.125.559A21.962,21.962,0,0,1,785.676,553.464Z" transform="translate(-763.571 -530.804)" fill="#fff"/>
      <path id="Tracé_1633" data-name="Tracé 1633" d="M778.343,559.075A12.875,12.875,0,0,1,776.1,560c-.06-.313-.133-.643-.213-.969-.032-.121-.068-.233-.1-.354l.016-.008-.161-.547,0,0-.1-.33a23.427,23.427,0,0,0-.82-2.235h.012l-.217-.47c-.016-.024-.02-.048-.032-.068-.024-.044-.044-.092-.056-.121-.008,0-.008-.012-.012-.02v0l0,0c-.193-.41-.4-.816-.611-1.214-.076-.137-.161-.273-.237-.406-.153-.269-.3-.535-.462-.8-.076-.117-.157-.229-.233-.346l-.08-.117c-.153-.233-.305-.466-.466-.687-.04-.06-.08-.113-.121-.165-.08-.109-.153-.209-.233-.314-.161-.213-.318-.426-.482-.631-.133-.161-.269-.31-.4-.466-.165-.2-.334-.394-.506-.587-.141-.157-.289-.3-.438-.454-.173-.185-.35-.366-.535-.539q-.229-.223-.47-.434c-.181-.169-.37-.342-.555-.506-.165-.137-.338-.273-.5-.41-.129-.1-.253-.213-.382-.314.028-.032.056-.064.088-.1.318-.354.643-.691.981-1.021a.666.666,0,0,0,.056-.052c.326-.31.663-.611,1.009-.9.04-.032.072-.068.113-.1.117.092.237.185.354.285.2.157.4.31.591.478.169.149.338.3.5.458s.338.306.5.458c.177.173.342.35.511.527.149.153.3.3.438.458.169.185.326.378.49.571.137.157.269.314.4.474.153.189.3.39.446.587.125.169.257.338.378.507.133.189.253.386.378.579s.253.374.374.567c.1.169.193.342.289.511.133.225.269.45.39.687.032.052.052.113.084.169.181.346.354.687.511,1.041a22.213,22.213,0,0,1,.9,2.36c.056.165.1.326.145.486.08.277.157.559.225.84.04.169.093.342.129.51.044.193.076.378.113.563a2.186,2.186,0,0,1,.044.225c.02.121.048.237.064.358C778.258,558.371,778.3,558.725,778.343,559.075Z" transform="translate(-759.152 -534.321)" fill="#fff"/>
      <path id="Tracé_1634" data-name="Tracé 1634" d="M767.8,555.173c-.185-.036-.366-.072-.547-.113s-.334-.064-.5-.1c-.269-.064-.535-.137-.8-.213-.149-.04-.293-.076-.438-.121-.342-.1-.687-.213-1.025-.334-.064-.024-.125-.04-.189-.06-.4-.149-.8-.305-1.186-.474-.121-.048-.237-.109-.354-.161-.1-.044-.2-.088-.3-.141.189-.3.394-.595.607-.888.028-.044.056-.089.089-.133.241-.326.486-.643.744-.957a.781.781,0,0,0,.068-.084c.153.121.305.237.45.358.129.109.265.209.39.318.233.2.45.4.675.6.1.088.193.173.289.261.318.305.619.615.913.929.024.024.04.052.064.072q.41.446.8.917c.08.092.153.2.229.293A.084.084,0,0,1,767.8,555.173Z" transform="translate(-756.024 -538.555)" fill="#fff"/>
      <path id="Tracé_1635" data-name="Tracé 1635" d="M767.991,563.015c-.1-.008-.209-.012-.313-.02-.177-.016-.358-.032-.539-.056-.249-.024-.5-.06-.748-.1l-.531-.084c-.249-.044-.5-.1-.756-.149l-.5-.109c-.269-.064-.535-.137-.8-.209-.149-.04-.293-.076-.438-.121-.342-.1-.687-.217-1.025-.334-.064-.024-.125-.04-.189-.064-.4-.145-.8-.3-1.186-.47-.121-.056-.237-.112-.354-.165-.273-.121-.539-.249-.808-.382-.149-.072-.289-.153-.434-.225-.169-.093-.334-.185-.5-.277.012-.032.028-.06.04-.092.173-.37.362-.736.559-1.1.02-.04.044-.076.064-.117.1-.177.2-.35.3-.527.113.048.225.1.338.157.173.076.346.161.523.233.249.109.5.205.756.3.169.064.334.137.5.193.281.1.563.189.844.277q.229.072.446.145c.378.109.752.205,1.13.293.064.012.121.036.185.048.442.1.888.189,1.335.261.133.02.273.04.41.056.04,0,.08.012.121.016a.346.346,0,0,0,.028.04c.165.237.326.478.482.72.084.137.169.269.249.406.141.233.281.47.414.712.084.149.169.3.249.45C767.9,562.822,767.943,562.922,767.991,563.015Z" transform="translate(-753.877 -542.759)" fill="#fff"/>
      <path id="Tracé_1636" data-name="Tracé 1636" d="M767.841,570.189c-.165,0-.33,0-.494-.016s-.326-.008-.486-.016c-.229-.012-.45-.032-.675-.052-.153-.016-.31-.024-.458-.04-.245-.028-.486-.064-.736-.1-.129-.016-.257-.032-.386-.052-.37-.064-.74-.129-1.109-.209-.326-.072-.647-.149-.969-.233-.1-.028-.209-.064-.314-.092-.213-.06-.426-.117-.631-.181-.129-.04-.257-.088-.386-.129-.185-.064-.37-.125-.551-.189-.137-.048-.269-.1-.4-.157q-.265-.1-.519-.205c-.137-.056-.273-.121-.406-.177-.165-.072-.33-.145-.494-.225-.137-.06-.273-.133-.406-.2-.161-.08-.322-.153-.478-.241-.137-.068-.269-.145-.4-.217-.161-.088-.318-.173-.474-.269-.125-.072-.253-.153-.382-.229l-.305-.2c.092-.293.189-.591.3-.888.024-.072.056-.149.084-.221.08-.2.165-.41.249-.611.145.08.293.153.438.229.173.093.346.189.523.273.229.113.47.225.708.334.173.08.346.161.523.237.249.1.5.2.756.3.169.068.334.137.5.2q.422.145.844.277c.153.044.3.1.446.141.378.109.752.209,1.13.3.064.012.121.032.185.044.442.1.888.189,1.335.261.133.024.273.036.41.06.31.044.619.088.933.125.177.016.354.028.527.04.229.016.462.044.687.052a1.07,1.07,0,0,1,.04.1c.137.293.261.6.382.9.024.072.056.149.084.217.129.338.245.671.358,1.005A.267.267,0,0,0,767.841,570.189Z" transform="translate(-752.388 -546.718)" fill="#fff"/>
      <path id="Tracé_1637" data-name="Tracé 1637" d="M767.67,576.513a12.926,12.926,0,0,1-2.991.35,13.084,13.084,0,0,1-9.64-4.229c.06-.293.133-.591.209-.884.02-.072.04-.137.056-.209.068.044.141.08.205.121.133.08.261.157.39.233.161.1.33.189.494.281.133.068.265.141.4.213.165.088.342.173.51.257.133.068.261.133.4.193.173.084.346.161.527.237.133.056.261.121.4.173.177.076.362.149.547.221.133.048.261.1.394.145.193.072.39.137.587.2.125.04.249.084.378.125.213.068.434.133.651.189.109.032.213.068.326.092.326.089.655.169.993.237.386.084.784.161,1.182.229.173.028.354.044.527.068.225.028.446.064.675.092.173.016.354.028.527.04.229.02.454.044.687.056.169.012.342.012.518.016.225,0,.45.016.679.016.052.185.1.362.149.551C767.534,575.861,767.6,576.187,767.67,576.513Z" transform="translate(-751.587 -550.605)" fill="#fff"/>
      <path id="Tracé_1638" data-name="Tracé 1638" d="M771.183,527.569c-.072,0-.145.016-.213.024-.177.016-.35.036-.519.056-.249.032-.5.072-.744.109-.161.028-.314.048-.47.08-.277.048-.547.109-.82.165-.125.032-.253.052-.382.084-.31.072-.615.157-.925.245l0,0-.241.072h0l-.748.221.016.016c-.117.04-.233.072-.35.117a22.022,22.022,0,0,0-2.89,1.254l0,0-.257.133v0l-.6.318.012.012c-.113.068-.229.129-.346.2a22.612,22.612,0,0,0-2.372,1.636l0-.008-.233.189a.278.278,0,0,1-.036.028l0,0-.442.358.008.008a23.354,23.354,0,0,0-2.38,2.34h0l-.133.157a.405.405,0,0,0-.056.064l-.257.3,0,0c-.068.089-.145.177-.217.269a22.527,22.527,0,0,0-1.387,1.93c-.161.253-.318.507-.47.764-.338.583-.655,1.182-.941,1.789l-.012-.008-.205.462-.161.362.012,0c-.2.478-.386.957-.555,1.439-.028.072-.052.153-.08.233l-.012-.012-.177.571-.1.322,0,0c-.072.253-.145.5-.205.752a13.178,13.178,0,0,1-1.314-2.05c.048-.177.088-.362.141-.539a1.011,1.011,0,0,1,.048-.157c.125-.426.257-.844.406-1.254.117-.338.237-.667.37-.993a21.887,21.887,0,0,1,4.687-7.067c.39-.394.792-.776,1.206-1.138.342-.293.691-.575,1.053-.852a21.057,21.057,0,0,1,2.36-1.588c.567-.33,1.15-.623,1.749-.9.1-.048.209-.1.318-.153a22.861,22.861,0,0,1,2.155-.824c.458-.145.913-.277,1.371-.394l.08-.012c.43-.109.864-.205,1.294-.281.1-.02.2-.032.3-.044.366-.064.736-.125,1.105-.165.117-.016.233-.024.35-.032.205-.024.414-.036.623-.052A13.241,13.241,0,0,1,771.183,527.569Z" transform="translate(-748.555 -523.449)" fill="#fff"/>
      <path id="Tracé_1639" data-name="Tracé 1639" d="M766.348,522.24c-.08.008-.153.024-.229.032-.293.04-.579.08-.868.129l-.527.1c-.281.056-.563.117-.844.185-.161.036-.322.072-.482.117-.382.1-.764.2-1.142.326-.044.012-.089.028-.133.04a22.053,22.053,0,0,0-2.247.856c-.157.072-.31.149-.458.221-.213.1-.426.193-.635.3a.521.521,0,0,0-.064.036c-.334.169-.667.35-1,.535a23.124,23.124,0,0,0-2.408,1.62c-.39.3-.772.6-1.138.921q-.663.579-1.278,1.206c-.543.555-1.065,1.13-1.548,1.732a22.6,22.6,0,0,0-3.308,5.6c-.04.1-.076.209-.117.318-.117.289-.233.583-.334.884-.036.1-.068.213-.1.322-.052.161-.109.326-.157.486a13.217,13.217,0,0,1-.82-3.481c.032-.084.056-.165.088-.245a21.821,21.821,0,0,1,5.029-7.553,21.562,21.562,0,0,1,3.236-2.621,21.78,21.78,0,0,1,4.233-2.187c.394-.153.8-.289,1.2-.418.129-.04.257-.072.382-.113.281-.084.563-.169.844-.241.161-.04.326-.072.486-.109.249-.056.5-.121.76-.169.177-.036.362-.056.539-.088.064-.008.125-.024.189-.032A13.037,13.037,0,0,1,766.348,522.24Z" transform="translate(-746.486 -520.351)" fill="#fff"/>
      <path id="Tracé_1640" data-name="Tracé 1640" d="M761.3,519.581a.613.613,0,0,1-.08.024c-.374.1-.748.205-1.122.322-.072.02-.149.048-.225.076-.382.121-.76.253-1.134.394a22.4,22.4,0,0,0-4.4,2.275,22.17,22.17,0,0,0-3.373,2.729,22.434,22.434,0,0,0-2.581,3.011c-.245.346-.482.7-.7,1.049-.072.113-.141.225-.205.334-.157.257-.306.51-.454.768-.064.125-.137.253-.205.378-.129.241-.249.482-.366.724a13.143,13.143,0,0,1,13.093-12.2A13.331,13.331,0,0,1,761.3,519.581Z" transform="translate(-746.45 -519.46)" fill="#fff"/>
    </g>
    <g id="Groupe_4042" data-name="Groupe 4042" transform="translate(711.922 474.742)">
      <path id="Tracé_1641" data-name="Tracé 1641" d="M774.588,540.51c-1.958-1.917-2.541-5.853-2.7-8.574a13.317,13.317,0,0,0,.064-1.335,14.466,14.466,0,1,0-.856,4.9,11.236,11.236,0,0,0,2.645,5.869c.884.864,2.725,2.665,2.376,3.429-.285.623-2.147,1.564-11.42.824-8.6-.683-13.6-.2-14.861,1.443a1.263,1.263,0,0,0-.261,1.17l1.142-.4a.34.34,0,0,1,.016.08.53.53,0,0,1,.181-.237c.627-.535,3.208-1.684,13.688-.848,10.138.8,12.064-.322,12.614-1.532C777.864,543.879,776.409,542.291,774.588,540.51Zm-17.1-23.042a13.33,13.33,0,0,1,1.757.121.62.62,0,0,1-.08.024c-.374.1-.748.2-1.122.322-.072.02-.149.048-.225.076-.382.121-.76.253-1.134.394a22.88,22.88,0,0,0-10.355,8.016c-.245.346-.482.7-.7,1.049-.072.112-.141.225-.205.334-.157.257-.305.511-.454.768-.064.125-.137.253-.205.378-.129.241-.249.482-.366.724A13.143,13.143,0,0,1,757.492,517.469ZM745.4,534.838c-.052.161-.109.326-.157.486a13.214,13.214,0,0,1-.82-3.481c.032-.084.056-.165.088-.245a21.822,21.822,0,0,1,5.029-7.553,21.559,21.559,0,0,1,3.236-2.621,21.777,21.777,0,0,1,4.233-2.187c.394-.153.8-.289,1.2-.418.129-.04.257-.072.382-.113.281-.084.563-.169.844-.241.161-.04.326-.072.486-.109.249-.056.5-.121.76-.169.177-.036.362-.056.539-.088.064-.008.125-.024.189-.032a13.034,13.034,0,0,1,2.85,1.29c-.08.008-.153.024-.229.032-.293.04-.579.08-.868.129l-.527.1c-.281.056-.563.117-.844.185-.161.036-.322.072-.482.117-.382.1-.764.205-1.142.326-.044.012-.088.028-.133.04a22.04,22.04,0,0,0-2.247.856c-.157.072-.31.149-.458.221-.213.1-.426.193-.635.3a.52.52,0,0,0-.064.036c-.334.169-.667.35-1,.535a23.105,23.105,0,0,0-2.408,1.62c-.39.3-.772.6-1.138.921q-.663.579-1.278,1.206c-.543.555-1.065,1.13-1.548,1.732a22.593,22.593,0,0,0-3.308,5.6c-.04.1-.076.209-.117.318-.117.289-.233.583-.334.884C745.468,534.621,745.436,534.73,745.4,534.838Zm2.215,2.171L747.6,537l-.177.571-.1.322,0,0c-.072.253-.145.5-.2.752a13.166,13.166,0,0,1-1.315-2.05c.048-.177.088-.362.141-.539A1.018,1.018,0,0,1,746,535.9c.125-.426.257-.844.406-1.254.117-.338.237-.667.37-.993a21.883,21.883,0,0,1,4.687-7.067c.39-.394.792-.776,1.206-1.138.342-.293.691-.575,1.053-.852a21.051,21.051,0,0,1,2.36-1.588c.567-.33,1.15-.623,1.749-.9.1-.048.209-.1.318-.153a22.849,22.849,0,0,1,2.155-.824c.458-.145.912-.277,1.371-.394l.08-.012c.43-.109.864-.205,1.294-.281.1-.02.2-.032.3-.044.366-.064.736-.125,1.105-.165.117-.016.233-.024.35-.032.205-.024.414-.036.623-.052a13.23,13.23,0,0,1,1.6,1.439c-.072,0-.145.016-.213.024-.177.016-.35.036-.519.056-.249.032-.5.072-.744.109-.161.028-.314.048-.47.08-.277.048-.547.109-.82.165-.125.032-.253.052-.382.084-.31.072-.615.157-.925.245l0,0-.241.072h0l-.748.221.016.016c-.117.04-.233.072-.35.117a22.033,22.033,0,0,0-2.89,1.254l0,0-.257.133v0l-.6.318.012.012c-.113.068-.229.129-.346.2a22.584,22.584,0,0,0-2.372,1.636l0-.008-.233.189a.286.286,0,0,1-.036.028l0,0-.442.358.008.008a23.359,23.359,0,0,0-2.38,2.34h0l-.133.157a.4.4,0,0,0-.056.064l-.257.3,0,0c-.068.089-.145.177-.217.269a22.529,22.529,0,0,0-1.387,1.93c-.161.253-.318.507-.47.764-.338.583-.655,1.182-.941,1.789l-.012-.008-.2.462-.161.362.012,0c-.2.478-.386.957-.555,1.439C747.667,536.848,747.643,536.929,747.615,537.009Zm19.641-14.54c-.02.237-.032.474-.06.712-.008.084-.012.165-.02.245-.052.422-.109.84-.185,1.258-.016.109-.04.213-.056.322-.064.322-.133.639-.209.961-.028.121-.056.245-.088.366-.02.088-.048.173-.072.257-.068-.1-.141-.2-.209-.3s-.157-.225-.229-.334c-.237-.334-.482-.663-.74-.985-.044-.052-.08-.109-.125-.157-.293-.366-.6-.724-.924-1.069-.08-.092-.165-.177-.249-.265-.125-.133-.249-.273-.378-.4.088-.02.177-.048.265-.072.1-.024.213-.048.318-.076.285-.06.571-.125.864-.177.072-.012.149-.032.225-.044.358-.064.724-.117,1.085-.161.084-.008.173-.016.257-.028C766.9,522.5,767.075,522.481,767.256,522.469ZM758.2,537.7c-.177-.016-.358-.032-.539-.056-.249-.024-.5-.06-.748-.1l-.531-.084c-.249-.044-.5-.1-.756-.149l-.5-.109c-.269-.064-.535-.137-.8-.209-.149-.04-.294-.076-.438-.121-.342-.1-.687-.217-1.025-.334-.064-.024-.125-.04-.189-.064-.4-.145-.8-.3-1.186-.47-.121-.056-.237-.113-.354-.165-.273-.121-.539-.249-.808-.382-.149-.072-.289-.153-.434-.225-.169-.092-.334-.185-.5-.277.012-.032.028-.06.04-.092.173-.37.362-.736.559-1.1.02-.04.044-.076.064-.117.1-.177.2-.35.3-.527.112.048.225.1.338.157.173.076.346.161.523.233.249.109.5.205.756.3.169.064.334.137.5.193.281.1.563.189.844.277q.229.072.446.145c.378.109.752.205,1.13.293.064.012.121.036.185.048.442.1.888.189,1.335.261.133.02.273.04.41.056.04,0,.08.012.121.016a.35.35,0,0,0,.028.04c.165.237.326.478.482.72.084.137.169.269.249.406.141.233.281.47.414.711.084.149.169.3.249.45.052.092.1.193.145.285C758.408,537.717,758.3,537.713,758.2,537.7Zm.772.953a1.053,1.053,0,0,1,.04.1c.137.293.261.6.382.9.024.072.056.149.084.217.129.338.245.671.358,1.005a.264.264,0,0,0,.016.06c-.165,0-.33,0-.495-.016s-.326-.008-.486-.016c-.229-.012-.45-.032-.675-.052-.153-.016-.31-.024-.458-.04-.245-.028-.486-.064-.736-.1-.129-.016-.257-.032-.386-.052-.37-.064-.74-.129-1.109-.209-.326-.072-.647-.149-.969-.233-.1-.028-.209-.064-.314-.092-.213-.06-.426-.117-.631-.181-.129-.04-.257-.088-.386-.129-.185-.064-.37-.125-.551-.189-.137-.048-.269-.1-.4-.157q-.265-.1-.519-.205c-.137-.056-.273-.121-.406-.177-.165-.072-.33-.145-.494-.225-.137-.06-.273-.133-.406-.2-.161-.08-.322-.153-.478-.241-.137-.068-.269-.145-.4-.217-.161-.088-.318-.173-.474-.269-.125-.072-.253-.153-.382-.229l-.306-.2c.092-.293.189-.591.3-.888.024-.072.056-.149.084-.221.08-.2.165-.41.249-.611.145.08.293.153.438.229.173.093.346.189.523.273.229.113.47.225.707.334.173.08.346.161.523.237.249.1.5.2.756.3.169.068.334.137.5.2q.422.145.844.277c.153.044.3.1.446.141.378.109.752.209,1.13.3.064.012.121.032.185.044.442.1.888.189,1.335.261.133.024.273.036.41.06.31.044.619.088.933.125.177.016.354.028.527.04C758.512,538.621,758.746,538.649,758.971,538.657Zm-3.345-4.683c-.169-.036-.334-.064-.5-.1-.269-.064-.535-.137-.8-.213-.149-.04-.294-.076-.438-.121-.342-.1-.687-.213-1.025-.334-.064-.024-.125-.04-.189-.06-.4-.149-.8-.306-1.186-.474-.121-.048-.237-.109-.354-.161-.1-.044-.2-.088-.3-.141.189-.3.394-.595.607-.888.028-.044.056-.088.088-.133.241-.326.486-.643.744-.957a.775.775,0,0,0,.068-.084c.153.121.305.237.45.358.129.108.265.209.39.318.233.2.45.4.675.6.1.088.193.173.289.261.318.306.619.615.912.929.024.024.04.052.064.072q.41.446.8.916c.08.092.153.2.229.294a.084.084,0,0,1,.024.032C755.988,534.05,755.807,534.014,755.626,533.974Zm1.865,9.752a13.084,13.084,0,0,1-9.64-4.229c.06-.293.133-.591.209-.884.02-.072.04-.137.056-.209.068.044.141.08.2.121.133.08.261.157.39.233.161.1.33.189.494.281.133.068.265.141.4.213.165.088.342.173.511.257.133.068.261.133.4.193.173.084.346.161.527.237.133.056.261.121.4.173.177.076.362.149.547.221.133.048.261.1.394.145.193.072.39.137.587.2.125.04.249.084.378.125.213.068.434.133.651.189.109.032.213.068.326.092.326.089.655.169.993.237.386.084.784.161,1.182.229.173.028.354.044.527.068.225.028.446.064.675.092.173.016.354.028.527.04.229.02.454.044.687.056.169.012.342.012.519.016.225,0,.45.016.679.016.052.185.1.362.149.551.08.334.149.659.217.985A12.927,12.927,0,0,1,757.492,543.726Zm3.855-.583c-.06-.314-.133-.643-.213-.969-.032-.121-.068-.233-.1-.354l.016-.008-.161-.547,0,0-.1-.33a23.439,23.439,0,0,0-.82-2.235h.012l-.217-.47c-.016-.024-.02-.048-.032-.068-.024-.044-.044-.092-.056-.121-.008,0-.008-.012-.012-.02v0l0,0c-.193-.41-.4-.816-.611-1.214-.076-.137-.161-.273-.237-.406-.153-.269-.3-.535-.462-.8-.076-.117-.157-.229-.233-.346l-.08-.117c-.153-.233-.306-.466-.466-.687-.04-.06-.08-.113-.121-.165-.08-.109-.153-.209-.233-.314-.161-.213-.318-.426-.482-.631-.133-.161-.269-.31-.4-.466-.165-.2-.334-.394-.507-.587-.141-.157-.289-.3-.438-.454-.173-.185-.35-.366-.535-.539q-.229-.223-.47-.434c-.181-.169-.37-.342-.555-.507-.165-.137-.338-.273-.5-.41-.129-.1-.253-.213-.382-.314.028-.032.056-.064.088-.1.318-.354.643-.691.981-1.021a.648.648,0,0,0,.056-.052c.326-.309.663-.611,1.009-.9.04-.032.072-.068.112-.1.117.092.237.185.354.285.2.157.4.31.591.478.169.149.338.3.5.458s.338.305.5.458c.177.173.342.35.51.527.149.153.3.3.438.458.169.185.326.378.49.571.137.157.269.314.4.474.153.189.3.39.446.587.125.169.257.338.378.506.133.189.253.386.378.579s.253.374.374.567c.1.169.193.342.289.51.133.225.269.45.39.687.032.052.052.113.084.169.181.346.354.687.51,1.041a22.192,22.192,0,0,1,.9,2.36c.056.165.1.326.145.486.08.277.157.559.225.84.04.169.092.342.129.51.044.193.076.378.113.563a2.236,2.236,0,0,1,.044.225c.02.121.048.237.064.358.064.362.109.715.149,1.065A12.883,12.883,0,0,1,761.346,543.143Zm3.087-1.411c-.032-.225-.068-.462-.113-.719-.024-.141-.048-.277-.072-.418-.012-.06-.024-.125-.036-.185-.04-.213-.084-.414-.125-.595s-.088-.37-.137-.559c-.068-.269-.141-.531-.217-.8-.052-.181-.1-.366-.161-.543a22.04,22.04,0,0,0-.941-2.46c-.2-.438-.41-.864-.635-1.286-.036-.068-.076-.133-.117-.205q-.271-.518-.579-1.013c-.08-.137-.169-.265-.253-.394-.169-.265-.338-.527-.515-.78-.113-.157-.229-.305-.338-.462-.165-.221-.334-.446-.506-.663-.129-.161-.261-.318-.394-.474-.169-.2-.338-.406-.515-.6-.145-.157-.289-.305-.434-.454-.181-.193-.362-.382-.551-.567-.145-.145-.3-.281-.45-.422-.2-.185-.4-.37-.6-.547-.149-.125-.293-.245-.442-.374-.133-.1-.257-.217-.394-.326.076-.056.149-.112.225-.173s.173-.129.261-.193c.189-.137.382-.265.575-.4.064-.044.133-.092.205-.137.257-.173.527-.338.792-.5l.165-.1c.169-.1.334-.193.5-.285.125.1.245.209.366.314.137.121.277.237.414.362.157.137.31.289.462.438.129.125.261.249.39.378.149.153.289.309.438.466.125.129.249.261.37.394.145.161.277.33.418.494.112.137.229.269.342.414.141.169.269.35.4.523.109.137.213.277.314.418.133.189.257.382.386.571.092.137.185.269.273.4.133.221.265.442.394.663.064.121.141.229.209.35.193.342.37.691.543,1.037a21.467,21.467,0,0,1,1.64,4.53c.044.185.084.374.125.559a21.957,21.957,0,0,1,.394,2.721A13.075,13.075,0,0,1,764.434,541.732Zm2.886-2.448c-.032-.261-.064-.519-.1-.78-.012-.08-.024-.157-.036-.237-.06-.354-.121-.7-.2-1.045-.04-.2-.08-.4-.129-.587a22.294,22.294,0,0,0-1.708-4.711c-.173-.354-.362-.712-.559-1.061-.06-.117-.137-.233-.205-.354-.133-.225-.265-.454-.406-.675-.088-.141-.181-.273-.269-.41-.133-.2-.265-.394-.4-.591-.1-.145-.205-.281-.31-.422-.133-.181-.273-.366-.414-.543-.109-.145-.225-.277-.342-.414-.141-.177-.285-.346-.43-.515-.121-.141-.241-.269-.37-.4-.149-.165-.3-.326-.458-.486-.125-.129-.253-.261-.382-.386-.157-.157-.322-.305-.49-.458-.129-.121-.261-.241-.394-.362-.076-.068-.149-.133-.225-.2.08-.04.161-.084.241-.121.1-.048.2-.1.305-.141.217-.1.442-.2.663-.3.088-.036.181-.076.273-.117.305-.125.619-.245.937-.354a.637.637,0,0,1,.08-.028c.241-.084.478-.157.72-.233.173.165.342.342.51.515.145.145.3.293.446.45.2.217.386.446.579.675.129.149.261.3.39.458.205.249.39.518.583.78.1.141.209.273.31.418.281.4.543.812.792,1.23a.292.292,0,0,1,.02.024,22.018,22.018,0,0,1,1.182,2.263,20.279,20.279,0,0,1,.9,2.368l0,.008a21.339,21.339,0,0,1,.816,3.63c.008.072.012.149.024.221A13.308,13.308,0,0,1,767.32,539.284Zm1.954-9.4c-.113.37-.233.736-.358,1.1a.732.732,0,0,0-.044.121c-.008-.012-.012-.028-.02-.04-.02-.06-.044-.121-.068-.177-.121-.314-.249-.623-.382-.925-.048-.108-.1-.221-.149-.326-.133-.285-.265-.567-.414-.848-.04-.076-.076-.157-.117-.233-.165-.318-.334-.627-.519-.933.125-.4.233-.8.338-1.2a.14.14,0,0,0,.008-.04c.113-.454.209-.909.289-1.367.028-.145.044-.289.072-.438.048-.31.1-.627.133-.941.024-.177.036-.354.052-.527.008-.072.016-.137.024-.205a13.271,13.271,0,0,1,1.841,3.594c-.028.225-.056.442-.088.663-.012.072-.02.149-.032.221-.064.374-.137.744-.221,1.117-.012.072-.036.153-.052.229-.08.354-.169.707-.273,1.053C769.286,529.818,769.282,529.85,769.274,529.882Zm.639,4.94q-.078-.434-.181-.868c-.024-.1-.048-.193-.072-.293-.088-.362-.189-.72-.3-1.077-.016-.056-.024-.109-.04-.157.02-.06.044-.117.064-.177.1-.237.193-.478.277-.72.04-.1.076-.2.113-.306.084-.245.165-.49.241-.74.028-.08.048-.157.076-.233.092-.322.181-.647.261-.973.02-.072.036-.149.056-.225.02-.1.048-.209.068-.318a12.375,12.375,0,0,1,.137,1.865A13,13,0,0,1,769.913,534.822Z" transform="translate(-743.02 -516.13)" fill="#333"/>
    </g>
  </g>
</svg>
