<svg xmlns="http://www.w3.org/2000/svg" width="60" height="60" viewBox="0 0 60 60">
  <path id="Tracé_1651" data-name="Tracé 1651" d="M1713.08,320.155a30,30,0,1,0,30,30A30,30,0,0,0,1713.08,320.155Zm2.778,47.717a3.956,3.956,0,0,1-5.531,0,4.123,4.123,0,0,1,0-5.609,3.988,3.988,0,0,1,5.556,0,3.854,3.854,0,0,1,1.1,2.8A3.807,3.807,0,0,1,1715.858,367.872Zm7.626-23.221a29.145,29.145,0,0,1-3.826,4.534,34.136,34.136,0,0,0-3.223,3.7,7.45,7.45,0,0,0-1.337,3.381,2.076,2.076,0,0,1-.708,1.284,2.135,2.135,0,0,1-1.389.445,1.824,1.824,0,0,1-1.441-.628,2.541,2.541,0,0,1-.55-1.73,10.365,10.365,0,0,1,1.048-4.875,24.88,24.88,0,0,1,3.04-4.35,24.739,24.739,0,0,0,2.307-3.145,5.524,5.524,0,0,0,.733-2.83,3.334,3.334,0,0,0-1.284-2.752,5.445,5.445,0,0,0-3.485-1.023,8.414,8.414,0,0,0-3.617.813,33.49,33.49,0,0,0-4.036,2.333,4.715,4.715,0,0,1-2.149.734,1.937,1.937,0,0,1-1.546-.812,3.074,3.074,0,0,1,.6-4.377,16.44,16.44,0,0,1,5.189-2.962,17.712,17.712,0,0,1,6.028-1.075,13.95,13.95,0,0,1,5.688,1.1,9.227,9.227,0,0,1,3.878,3.04,7.458,7.458,0,0,1,1.389,4.456A8.516,8.516,0,0,1,1723.485,344.651Z" transform="translate(-1683.08 -320.155)" fill="#ffffff"/>
</svg>